<svg width="27" height="27" viewBox="0 0 27 27" fill="none" xmlns="http://www.w3.org/2000/svg">
<path fill-rule="evenodd" clip-rule="evenodd" d="M13.5 0C6.04346 0 0 6.04346 0 13.5C0 19.4636 3.867 24.5244 9.23235 26.3111C9.90776 26.4329 10.1514 26.0173 10.1514 25.66C10.1514 25.3392 10.1406 24.4892 10.1365 23.3644C6.38049 24.1793 5.58733 21.5534 5.58733 21.5534C4.97554 19.9942 4.08898 19.5787 4.08898 19.5787C2.86405 18.7408 4.18237 18.7598 4.18237 18.7598C5.5386 18.8545 6.2492 20.1512 6.2492 20.1512C7.45383 22.214 9.41102 21.6184 10.1771 21.2733C10.3003 20.4002 10.6522 19.8047 11.0366 19.4677C8.0399 19.1279 4.88891 17.9693 4.88891 12.7948C4.88891 11.3235 5.41543 10.1162 6.27492 9.17415C6.13821 8.83171 5.67125 7.45789 6.40891 5.60086C6.40891 5.60086 7.54181 5.23677 10.1203 6.9828C11.2004 6.68368 12.3522 6.53344 13.4986 6.52802C14.6478 6.53344 15.801 6.68368 16.877 6.9828C19.4568 5.23541 20.5884 5.60086 20.5884 5.60086C21.326 7.45789 20.8631 8.83171 20.7224 9.17415C21.5886 10.1162 22.1084 11.3222 22.1084 12.7948C22.1084 17.9829 18.9547 19.1225 15.9472 19.4568C16.4277 19.8737 16.8608 20.6967 16.8608 21.9554C16.8608 23.761 16.8445 25.2174 16.8445 25.66C16.8445 26.0214 17.0855 26.441 17.7744 26.3084C23.1371 24.519 27 19.4623 27 13.5C27 6.04346 20.9565 0 13.5 0Z" fill="#F0F0F0"/>
</svg>
