<svg width="27" height="36" viewBox="0 0 27 36" fill="none" xmlns="http://www.w3.org/2000/svg">
<path d="M26.9918 26.9926C26.7842 28.4278 23.8546 32.1502 22.5064 32.6898C22.0478 32.8737 21.603 32.8282 21.2471 32.5554C21.0178 32.3775 20.7826 32.0177 17.6236 26.8898L16.6846 25.3617C16.3229 24.8142 16.3921 24.0926 16.8388 23.5431C17.2797 23.0093 17.9241 22.8116 18.4835 23.0251C18.5152 23.0409 20.8458 23.8099 20.8458 23.8099C26.1596 25.5555 26.3316 25.6227 26.5609 25.7907C26.8969 26.0655 27.0531 26.4945 26.9839 26.9926H26.9918ZM16.3446 19.1921C15.969 18.6208 15.9749 17.9467 16.3644 17.4821L17.8391 15.4677C21.085 11.0495 21.263 10.8162 21.4824 10.6621C21.8619 10.409 22.3285 10.3952 22.7713 10.6146C24.0582 11.2393 26.6577 15.1 26.8139 16.5827V16.6321C26.8554 17.1381 26.6577 17.5454 26.3019 17.7925C26.0587 17.9486 25.8373 18.0396 19.7962 19.5044C18.8413 19.7476 18.3096 19.88 17.9972 19.9927L18.0388 19.9472C17.4418 20.1271 16.7736 19.8385 16.396 19.2415L16.3446 19.1921ZM12.6381 16.9009C12.3494 16.9919 11.4698 17.2666 10.3865 15.5132C10.3865 15.5132 3.08405 4.02189 2.91404 3.66804C2.80927 3.2707 2.93579 2.81998 3.28964 2.45624C4.37689 1.33143 10.2757 -0.3212 11.8197 0.054397C12.3237 0.184868 12.6697 0.503137 12.7903 0.9499C12.8792 1.44411 13.5968 12.1111 13.6996 14.4991C13.8004 16.5431 12.9247 16.8139 12.6381 16.9009ZM13.6008 28.5899C13.585 34.1784 13.5711 34.3662 13.4802 34.6311C13.324 35.0482 12.9662 35.3269 12.472 35.4179C11.0487 35.659 6.59687 34.0143 5.66974 32.9132C5.49183 32.6701 5.37915 32.4269 5.35938 32.1818C5.33368 32.0039 5.35938 31.826 5.42461 31.6698C5.53729 31.3812 5.69148 31.1578 9.69061 26.4707L10.8648 25.0751C11.2661 24.5611 11.9778 24.4069 12.642 24.6718C13.2845 24.917 13.6858 25.4724 13.6423 26.0714V28.5603L13.6008 28.5899ZM1.48282 25.0158C1.04396 25.0039 0.652551 24.739 0.425215 24.3081C0.261139 23.9879 0.144505 23.462 0.0693858 22.8215C-0.132251 20.8961 0.114853 17.9902 0.69011 17.067C0.962912 16.6439 1.35828 16.4206 1.79516 16.4364C2.08377 16.4364 2.34076 16.5273 8.05577 18.8797L9.73212 19.5459C10.3291 19.7653 10.6988 20.39 10.6652 21.1017C10.6217 21.7896 10.2224 22.3194 9.63526 22.4776L7.25911 23.2327C1.94342 24.9407 1.76748 24.9881 1.48875 24.9664L1.48282 25.0158ZM23.6628 35.5365H23.6549L23.649 35.5424L23.6628 35.5365Z" fill="#F0F0F0"/>
</svg>
