<svg width="814" height="128" viewBox="0 0 814 128" fill="none" xmlns="http://www.w3.org/2000/svg">
<path d="M28.93 84.605V126H0.2V2.155H43.89C52.6167 2.155 60.0967 3.20333 66.33 5.29999C72.62 7.33999 77.7767 10.1733 81.8 13.8C85.88 17.4267 88.8833 21.705 90.81 26.635C92.7367 31.565 93.7 36.8917 93.7 42.615C93.7 48.7917 92.7083 54.4583 90.725 59.615C88.7417 64.7717 85.71 69.1917 81.63 72.875C77.55 76.5583 72.365 79.4483 66.075 81.545C59.8417 83.585 52.4467 84.605 43.89 84.605H28.93ZM28.93 62.93H43.89C51.37 62.93 56.7533 61.145 60.04 57.575C63.3267 54.005 64.97 49.0183 64.97 42.615C64.97 39.7817 64.545 37.2033 63.695 34.88C62.845 32.5567 61.5417 30.5733 59.785 28.93C58.085 27.23 55.9033 25.9267 53.24 25.02C50.6333 24.1133 47.5167 23.66 43.89 23.66H28.93V62.93ZM137.338 80.185V126H108.608V2.155H148.898C157.852 2.155 165.473 3.09 171.763 4.96C178.11 6.77333 183.267 9.32333 187.233 12.61C191.257 15.8967 194.175 19.7783 195.988 24.255C197.802 28.7317 198.708 33.605 198.708 38.875C198.708 42.8983 198.17 46.695 197.093 50.265C196.017 53.835 194.402 57.15 192.248 60.21C190.152 63.2133 187.545 65.905 184.428 68.285C181.368 70.665 177.827 72.62 173.803 74.15C175.73 75.1133 177.515 76.3033 179.158 77.72C180.858 79.1367 182.332 80.865 183.578 82.905L209.928 126H183.918C179.102 126 175.645 124.187 173.548 120.56L152.978 84.605C152.072 83.0183 150.995 81.885 149.748 81.205C148.558 80.525 146.858 80.185 144.648 80.185H137.338ZM137.338 60.38H148.898C152.808 60.38 156.123 59.8983 158.843 58.935C161.62 57.915 163.887 56.5267 165.643 54.77C167.4 53.0133 168.675 50.9733 169.468 48.65C170.262 46.27 170.658 43.72 170.658 41C170.658 35.56 168.873 31.31 165.303 28.25C161.79 25.19 156.322 23.66 148.898 23.66H137.338V60.38ZM339.578 64.035C339.578 72.9883 338.02 81.3183 334.903 89.025C331.843 96.7317 327.508 103.447 321.898 109.17C316.288 114.837 309.517 119.285 301.583 122.515C293.707 125.745 284.952 127.36 275.318 127.36C265.685 127.36 256.902 125.745 248.968 122.515C241.035 119.285 234.235 114.837 228.568 109.17C222.958 103.447 218.595 96.7317 215.478 89.025C212.418 81.3183 210.888 72.9883 210.888 64.035C210.888 55.0817 212.418 46.7517 215.478 39.045C218.595 31.3383 222.958 24.6517 228.568 18.985C234.235 13.3183 241.035 8.86999 248.968 5.64C256.902 2.41 265.685 0.794996 275.318 0.794996C284.952 0.794996 293.707 2.43833 301.583 5.72499C309.517 8.955 316.288 13.4033 321.898 19.07C327.508 24.7367 331.843 31.4233 334.903 39.13C338.02 46.8367 339.578 55.1383 339.578 64.035ZM310.168 64.035C310.168 57.915 309.375 52.4183 307.788 47.545C306.202 42.615 303.907 38.45 300.903 35.05C297.957 31.65 294.33 29.0433 290.023 27.23C285.717 25.4167 280.815 24.51 275.318 24.51C269.765 24.51 264.807 25.4167 260.443 27.23C256.137 29.0433 252.482 31.65 249.478 35.05C246.532 38.45 244.265 42.615 242.678 47.545C241.092 52.4183 240.298 57.915 240.298 64.035C240.298 70.2117 241.092 75.765 242.678 80.695C244.265 85.5683 246.532 89.705 249.478 93.105C252.482 96.505 256.137 99.1117 260.443 100.925C264.807 102.682 269.765 103.56 275.318 103.56C280.815 103.56 285.717 102.682 290.023 100.925C294.33 99.1117 297.957 96.505 300.903 93.105C303.907 89.705 306.202 85.5683 307.788 80.695C309.375 75.765 310.168 70.2117 310.168 64.035ZM406.015 81.12C406.015 88.0333 405.137 94.3233 403.38 99.99C401.68 105.657 399.074 110.53 395.56 114.61C392.104 118.633 387.74 121.778 382.47 124.045C377.2 126.255 370.995 127.36 363.855 127.36C360.625 127.36 357.424 127.19 354.25 126.85C351.134 126.51 347.875 125.943 344.475 125.15L346.005 108.405C346.119 106.932 346.685 105.742 347.705 104.835C348.782 103.928 350.255 103.475 352.125 103.475C353.089 103.475 354.279 103.645 355.695 103.985C357.112 104.268 358.812 104.41 360.795 104.41C363.572 104.41 365.98 104.042 368.02 103.305C370.117 102.512 371.845 101.237 373.205 99.48C374.565 97.6667 375.585 95.315 376.265 92.425C376.945 89.535 377.285 85.965 377.285 81.715V2.155H406.015V81.12ZM506.092 2.155V24.255H455.262V53.155H494.192V74.405H455.262V103.9H506.092V126H426.362V2.155H506.092ZM605.7 93.955C606.38 93.955 607.06 94.0967 607.74 94.38C608.42 94.6067 609.072 95.0317 609.695 95.655L621.085 107.64C616.098 114.157 609.837 119.087 602.3 122.43C594.82 125.717 585.952 127.36 575.695 127.36C566.288 127.36 557.845 125.773 550.365 122.6C542.942 119.37 536.623 114.95 531.41 109.34C526.253 103.673 522.287 96.9867 519.51 89.28C516.733 81.5167 515.345 73.1017 515.345 64.035C515.345 54.7983 516.932 46.3267 520.105 38.62C523.278 30.8567 527.698 24.17 533.365 18.56C539.088 12.95 545.917 8.58666 553.85 5.46999C561.783 2.35333 570.538 0.794996 580.115 0.794996C584.762 0.794996 589.125 1.22 593.205 2.06999C597.342 2.86332 601.195 3.99666 604.765 5.46999C608.335 6.88666 611.622 8.615 614.625 10.655C617.628 12.6383 620.292 14.8483 622.615 17.285L612.925 30.29C612.302 31.0833 611.565 31.82 610.715 32.5C609.865 33.1233 608.675 33.435 607.145 33.435C606.125 33.435 605.162 33.2083 604.255 32.755C603.348 32.3017 602.385 31.7633 601.365 31.14C600.345 30.46 599.212 29.7517 597.965 29.015C596.775 28.2217 595.33 27.5133 593.63 26.89C591.987 26.21 590.032 25.6433 587.765 25.19C585.555 24.7367 582.948 24.51 579.945 24.51C574.732 24.51 569.972 25.445 565.665 27.315C561.358 29.1283 557.647 31.7633 554.53 35.22C551.47 38.62 549.062 42.7567 547.305 47.63C545.605 52.5033 544.755 57.9717 544.755 64.035C544.755 70.3817 545.605 76.02 547.305 80.95C549.062 85.88 551.413 90.045 554.36 93.445C557.363 96.7883 560.848 99.3383 564.815 101.095C568.782 102.852 573.032 103.73 577.565 103.73C580.172 103.73 582.552 103.617 584.705 103.39C586.858 103.107 588.842 102.653 590.655 102.03C592.525 101.407 594.282 100.613 595.925 99.65C597.625 98.63 599.325 97.3833 601.025 95.91C601.705 95.3433 602.442 94.89 603.235 94.55C604.028 94.1533 604.85 93.955 605.7 93.955ZM724.144 2.155V24.935H689.294V126H660.564V24.935H625.714V2.155H724.144ZM805.001 27.315C804.151 28.675 803.245 29.695 802.281 30.375C801.375 31.055 800.185 31.395 798.711 31.395C797.408 31.395 795.991 30.9983 794.461 30.205C792.988 29.355 791.288 28.42 789.361 27.4C787.491 26.38 785.338 25.4733 782.901 24.68C780.465 23.83 777.688 23.405 774.571 23.405C769.188 23.405 765.165 24.5667 762.501 26.89C759.895 29.1567 758.591 32.245 758.591 36.155C758.591 38.6483 759.385 40.7167 760.971 42.36C762.558 44.0033 764.626 45.42 767.176 46.61C769.783 47.8 772.73 48.905 776.016 49.925C779.36 50.8883 782.76 51.9933 786.216 53.24C789.673 54.43 793.045 55.8467 796.331 57.49C799.675 59.1333 802.621 61.23 805.171 63.78C807.778 66.33 809.875 69.4467 811.461 73.13C813.048 76.7567 813.841 81.1483 813.841 86.305C813.841 92.0283 812.85 97.3833 810.866 102.37C808.883 107.357 805.993 111.72 802.196 115.46C798.456 119.143 793.81 122.062 788.256 124.215C782.76 126.312 776.498 127.36 769.471 127.36C765.618 127.36 761.68 126.963 757.656 126.17C753.69 125.377 749.836 124.272 746.096 122.855C742.356 121.382 738.843 119.653 735.556 117.67C732.27 115.687 729.408 113.477 726.971 111.04L735.471 97.61C736.095 96.59 736.973 95.7683 738.106 95.145C739.24 94.5217 740.458 94.21 741.761 94.21C743.461 94.21 745.161 94.7483 746.861 95.825C748.618 96.9017 750.573 98.0917 752.726 99.395C754.936 100.698 757.458 101.888 760.291 102.965C763.125 104.042 766.468 104.58 770.321 104.58C775.535 104.58 779.586 103.447 782.476 101.18C785.366 98.8567 786.811 95.2017 786.811 90.215C786.811 87.325 786.018 84.9733 784.431 83.16C782.845 81.3467 780.748 79.845 778.141 78.655C775.591 77.465 772.673 76.4167 769.386 75.51C766.1 74.6033 762.728 73.6117 759.271 72.535C755.815 71.4017 752.443 70.0417 749.156 68.455C745.87 66.8117 742.923 64.6867 740.316 62.08C737.766 59.4167 735.698 56.13 734.111 52.22C732.525 48.2533 731.731 43.38 731.731 37.6C731.731 32.9533 732.666 28.42 734.536 24C736.406 19.58 739.155 15.6417 742.781 12.185C746.408 8.72832 750.856 5.97999 756.126 3.93999C761.396 1.84333 767.431 0.794996 774.231 0.794996C778.028 0.794996 781.711 1.10666 785.281 1.73C788.908 2.29667 792.336 3.175 795.566 4.36499C798.796 5.49833 801.8 6.88666 804.576 8.52999C807.41 10.1167 809.931 11.93 812.141 13.97L805.001 27.315Z" fill="#323232"/>
</svg>
