<?xml version="1.0" encoding="UTF-8" standalone="no"?>
<svg
   xmlns:dc="http://purl.org/dc/elements/1.1/"
   xmlns:cc="http://creativecommons.org/ns#"
   xmlns:rdf="http://www.w3.org/1999/02/22-rdf-syntax-ns#"
   xmlns:svg="http://www.w3.org/2000/svg"
   xmlns="http://www.w3.org/2000/svg"
   xmlns:sodipodi="http://sodipodi.sourceforge.net/DTD/sodipodi-0.dtd"
   xmlns:inkscape="http://www.inkscape.org/namespaces/inkscape"
   width="810"
   height="132"
   viewBox="0 0 810 132"
   fill="none"
   version="1.1"
   id="svg12"
   sodipodi:docname="line-light.svg"
   inkscape:version="1.0.1 (c497b03c, 2020-09-10)">
  <metadata
     id="metadata18">
    <rdf:RDF>
      <cc:Work
         rdf:about="">
        <dc:format>image/svg+xml</dc:format>
        <dc:type
           rdf:resource="http://purl.org/dc/dcmitype/StillImage" />
        <dc:title></dc:title>
      </cc:Work>
    </rdf:RDF>
  </metadata>
  <defs
     id="defs16" />
  <sodipodi:namedview
     pagecolor="#ffffff"
     bordercolor="#666666"
     borderopacity="1"
     objecttolerance="10"
     gridtolerance="10"
     guidetolerance="10"
     inkscape:pageopacity="0"
     inkscape:pageshadow="2"
     inkscape:window-width="742"
     inkscape:window-height="480"
     id="namedview14"
     showgrid="false"
     inkscape:zoom="1.3"
     inkscape:cx="405"
     inkscape:cy="66"
     inkscape:window-x="3048"
     inkscape:window-y="68"
     inkscape:window-maximized="0"
     inkscape:current-layer="svg12" />
  <path
     d="m 19.895,81.44 v -3 h -3 v 3 z m 0,45.56 v 3 h 3 v -3 z M 3.49,127 H 0.490001 v 3 H 3.49 Z m 0,-121.80501 v -3 H 0.490001 v 3 z m 56.015,2.72001 -0.914301,2.8573 0.017,0.0054 0.017,0.0052 z m 14.194999,7.565 -1.9803,2.2535 v 0 z m 8.329997,11.9 -2.794697,1.0906 0.0057,0.0148 0.0059,0.0146 z m -8.924997,43.265 -1.9849,-2.2495 -0.0082,0.0073 -0.0083,0.0073 z M 58.91,78.635 l 0.940099,2.8489 0.0128,-0.0042 0.0128,-0.0044 z M 19.895,68.35 h -3 v 3 h 3 z m 31.96,-1.87 -0.975201,-2.8371 -0.0069,0.0024 -0.0069,0.0024 z m 9.095,-5.185 2.0154,2.2222 0.0141,-0.0128 0.0138,-0.0128 z m 5.524999,-8.075 2.7854,1.1142 z m -5.355,-28.475 -2.0272,2.2115 0.0065,0.0059 0.0066,0.006 z M 19.895,18.2 v -3 h -3 v 3 z m -3,63.24 V 127 h 6 V 81.44 Z m 3,42.56 H 3.49 v 6 H 19.895 Z M 6.49,127 V 5.19499 H 0.490001 V 127 Z M 3.49,8.19499 h 35.954999 v -6 H 3.49 Z m 35.954999,0 c 7.482901,0 13.847,0.8817 19.1457,2.57731 L 60.4193,5.05773 C 54.384699,3.12663 47.3755,2.19499 39.444999,2.19499 Z m 19.1797,2.58791 c 5.3981,1.6569 9.7319,3.9952 13.095,6.9506 l 3.9607,-4.507 c -4.117,-3.61791 -9.2465,-6.32295 -15.2951,-8.17945 z m 13.095,6.9506 c 3.3787,2.9692 5.8764,6.5368 7.5156,10.7371 l 5.589398,-2.1812 c -1.987501,-5.093 -5.043098,-9.4587 -9.144298,-13.0629 z m 7.5272,10.7665 c 1.7078,4.2435 2.5881,9.0412 2.5881,14.435 h 6.000002 c 0,-6.0528 -0.9897,-11.6252 -3.021902,-16.675 z m 2.5881,14.435 c 0,5.3105 -0.9278,10.0936 -2.7393,14.3893 l 5.528602,2.3314 c 2.1552,-5.111 3.2107,-10.6978 3.2107,-16.7207 z m -2.7393,14.3893 c -1.807,4.2852 -4.4578,7.9672 -7.9756,11.0712 l 3.9698,4.499 c 4.1888,-3.6961 7.374703,-8.1174 9.534402,-13.2388 z m -7.9921,11.0858 c -3.447899,3.0878 -7.8093,5.5656 -13.159299,7.3846 l 1.931399,5.6806 c 5.9834,-2.0343 11.0853,-4.8832 15.2307,-8.5955 z m -13.1337,7.376 c -5.304,1.7503 -11.465099,2.6539 -18.5249,2.6539 v 6 c 7.5602,0 14.3758,-0.9664 20.4051,-2.9561 z M 39.444999,78.44 H 19.895 v 6 H 39.444999 Z M 19.895,71.35 h 19.549999 v -6 H 19.895 Z m 19.549999,0 C 44.4063,71.35 48.8894,70.6933 52.844,69.3123 l -1.978001,-5.6646 c -3.1854,1.1124 -6.9756,1.7023 -11.421,1.7023 z m 13.3852,-2.0329 c 3.9485,-1.3573 7.3514,-3.275 10.135201,-5.7999 l -4.030801,-4.4444 c -2.0895,1.8951 -4.7499,3.4341 -8.0548,4.5701 z M 62.9933,63.4916 c 2.763799,-2.571 4.857499,-5.6333 6.267099,-9.1574 L 63.6896,52.1058 c -1.083701,2.7092 -2.673401,5.0303 -4.782901,6.9926 z m 6.267099,-9.1574 c 1.4038,-3.5093 2.0846,-7.3211 2.0846,-11.3992 H 65.345 c 0,3.4018 -0.565801,6.4468 -1.6554,9.1708 z m 2.0846,-11.3992 c 0,-8.4309 -2.6447,-15.3711 -8.2109,-20.4134 l -4.0282,4.4468 c 4.0672,3.6843 6.239101,8.8709 6.239101,15.9666 z m -8.1978,-20.4015 C 57.6128,17.4604 49.519,15.2 39.444999,15.2 v 6 c 9.306001,0 15.662201,2.103 19.6478,5.7565 z M 39.444999,15.2 H 19.895 v 6 H 39.444999 Z M 16.895,18.2 v 50.15 h 6 V 18.2 Z m 106.926,57.97 v -3 h -3 v 3 z m 0,50.83 v 3 h 3 v -3 z m -16.405,0 h -3 v 3 h 3 z m 0,-121.80501 v -3 h -3 v 3 z m 54.4,2.38 -0.817,2.88681 0.014,0.0038 0.013,0.0037 z m 13.855,6.71501 -1.892,2.3283 0.009,0.0072 0.009,0.0071 z m 8.16,10.71 -2.767,1.1591 0.003,0.0068 0.002,0.0067 z m 0.595,26.01 -2.82,-1.0252 v 0 z m -5.95,10.115 -2.266,-1.9664 -0.003,0.0033 z m -9.435,7.565 -1.467,-2.6168 -0.009,0.0047 -0.008,0.0049 z m -12.58,4.76 -0.67,-2.9244 -7.395,1.693 6.553,3.8227 z m 5.43999,5.185 -2.45799,1.7204 0.02,0.0281 0.02,0.0276 z M 197.431,127 v 3 h 5.926 l -3.508,-4.776 z m -21.25,-3.485 2.561,-1.562 -0.063,-0.103 -0.071,-0.098 z m -31.62,-43.52 -2.448,1.734 0.01,0.0148 0.011,0.0146 z m -3.145,-2.89 -1.446,2.6286 0.052,0.0284 0.052,0.0263 z m -17.595,-12.92 h -3 v 3 h 3 z m 29.91999,-1.7 0.89501,2.8634 0.013,-0.0043 0.014,-0.0044 z m 9.18001,-4.93 1.957,2.274 0.004,-0.0035 z m 5.61,-7.65 -2.763,-1.1689 z m -5.355,-26.18 -1.836,2.3726 0.007,0.0053 0.006,0.0052 z M 123.821,18.2 v -3 h -3 v 3 z m -3,57.97 V 127 h 6 V 76.17 Z m 3,47.83 h -16.405 v 6 h 16.405 z m -13.405,3 V 5.19499 h -6 V 127 Z m -3,-118.80501 h 34.425 v -6 h -34.425 z m 34.425,0 c 7.513,0 13.883,0.77489 19.158,2.26681 l 1.633,-5.77357 C 156.687,3.00677 149.741,2.19499 141.841,2.19499 Z m 19.185,2.27431 c 5.303,1.4462 9.519,3.5217 12.753,6.149 l 3.784,-4.6567 c -4.02,-3.26594 -9.041,-5.66709 -14.958,-7.2809 z m 12.771,6.1633 c 3.306,2.6453 5.711,5.8139 7.267,9.5265 l 5.534,-2.3183 c -1.958,-4.674 -4.993,-8.6454 -9.053,-11.8934 z m 7.272,9.54 c 1.578,3.7151 2.397,7.9547 2.397,12.7674 h 6 c 0,-5.5006 -0.938,-10.5544 -2.874,-15.1126 z m 2.397,12.7674 c 0,3.9858 -0.629,7.6594 -1.86,11.0448 l 5.63899,2.0504 C 188.734,47.9406 189.466,43.5675 189.466,38.94 Z m -1.86,11.0448 c -1.234,3.3953 -3.03,6.4479 -5.396,9.1738 l 4.531,3.9328 c 2.848,-3.2807 5.019,-6.9715 6.50399,-11.0562 z m -5.399,9.1771 c -2.301,2.6589 -5.166,4.9675 -8.633,6.9113 l 2.934,5.2336 c 4.012,-2.2495 7.437,-4.9843 10.236,-8.2187 z m -8.65,6.9209 c -3.397,1.9333 -7.309,3.4227 -11.766,4.4428 l 1.339,5.8488 c 4.95,-1.1332 9.425,-2.8172 13.395,-5.0772 z m -12.608,9.9585 c 1.607,0.9372 3.114,2.3423 4.494,4.3141 l 4.915,-3.4408 c -1.793,-2.5615 -3.912,-4.6131 -6.386,-6.0559 z m 4.534,4.3698 35.53,48.3649 4.836,-3.552 -35.53,-48.3651 z M 197.431,124 h -14.62 v 6 h 14.62 z m -14.62,0 c -2.087,0 -3.261,-0.722 -4.069,-2.047 l -5.123,3.124 c 2.026,3.322 5.272,4.923 9.192,4.923 z m -4.20301,-2.248 -31.61999,-43.5204 -4.854,3.5268 31.62,43.5196 z M 147.009,78.2609 c -1.162,-1.64 -2.56,-2.9933 -4.252,-3.8392 l -2.683,5.3666 c 0.575,0.2874 1.27399,0.8608 2.039,1.9407 z m -4.147,-3.7846 C 141.066,73.489 138.759,73.17 136.316,73.17 v 6 c 2.09,0 3.182,0.3043 3.654,0.5636 z M 136.316,73.17 h -12.495 v 6 h 12.495 z m -12.495,-5.985 h 17.255 v -6 h -17.255 z m 17.255,0 c 5.043,0 9.578,-0.5923 13.56,-1.8366 l -1.79,-5.7268 c -3.272,1.0223 -7.18,1.5634 -11.77,1.5634 z m 13.587,-1.8453 c 3.988,-1.2883 7.42,-3.1061 10.215,-5.5107 l -3.914,-4.548 c -2.079,1.7887 -4.766,3.2575 -8.146,4.3493 z m 10.219,-5.5142 c 2.831,-2.445 4.98,-5.3683 6.412,-8.7516 l -5.526,-2.3378 c -1.062,2.51 -2.652,4.6867 -4.808,6.5484 z m 6.412,-8.7516 c 1.42,-3.3571 2.107,-7.0189 2.107,-10.9439 h -6.00001 c 0,3.215 -0.55999,6.0698 -1.63299,8.6061 z M 173.401,40.13 c 0,-7.9822 -2.695,-14.4229 -8.403,-18.7881 l -3.645,4.7662 c 3.926,3.0015 6.04799,7.4974 6.04799,14.0219 z M 165.012,21.3524 C 159.501,17.088 151.613,15.2 141.841,15.2 v 6 c 9.155,0 15.49,1.7953 19.499,4.8976 z M 141.841,15.2 h -18.02 v 6 h 18.02 z m -21.02,3 v 45.985 h 6 V 18.2 Z m 199.115,73.1 2.804,1.0671 0.002,-0.0069 z m -31.28,32.47 1.132,2.778 0.011,-0.004 z m -48.96,0 -1.151,2.77 0.009,0.004 0.009,0.004 z m -18.955,-12.835 -2.16601,2.076 z m -12.24,-19.635 -2.807,1.0602 0.003,0.0069 z m 0,-50.235 2.804,1.0671 0.002,-0.0069 z m 12.24,-19.72 2.165,2.0762 0.006,-0.0056 0.005,-0.0055 z m 18.955,-12.92001 1.151,2.77051 z m 48.96,0 -1.15101,2.77051 0.007,0.0031 z m 19.04,12.92001 -2.176,2.0651 0.005,0.0055 0.005,0.0056 z m 12.24,19.72 -2.807,1.0602 0.003,0.0069 z m -24.31,-10.115 -2.226,2.0119 0.007,0.0077 0.007,0.0076 z m -13.6,-9.52 1.14899,-2.771 z m -35.615,0 -1.15,-2.771 z m -13.685,9.52 -2.21,-2.0285 -0.002,0.0013 z m -8.67,15.045 -2.838,-0.973 z m 0,40.29 -2.838,0.973 0.003,0.0083 z m 8.67,15.045 -2.22601,2.012 0.015,0.016 0.014,0.016 z m 13.685,9.435 -1.15,2.771 0.013,0.005 0.012,0.005 z m 35.615,0 1.124,2.781 0.013,-0.005 0.012,-0.005 z m 13.6,-9.435 2.211,2.027 0.007,-0.007 0.007,-0.008 z m 8.67,-15.045 2.83499,0.9813 0.003,-0.0083 z M 321.271,66.14 c 0,8.8028 -1.39401,16.8255 -4.142,24.0998 l 5.61299,2.1204 C 325.774,84.3345 327.271,75.5838 327.271,66.14 Z m -4.139,24.0929 c -2.75701,7.2431 -6.62801,13.4381 -11.602,18.6261 l 4.331,4.152 c 5.56699,-5.806 9.855,-12.7 12.879,-20.6439 z M 305.53,108.859 c -4.96601,5.179 -10.958,9.228 -18.01801,12.137 l 2.28701,5.548 c 7.787,-3.21 14.488,-7.719 20.062,-13.533 z m -18.00701,12.133 c -6.965,2.839 -14.73399,4.283 -23.34699,4.283 v 6 c 9.293,0 17.844,-1.56 25.612,-4.727 z m -23.34699,4.283 c -8.614,0 -16.383,-1.444 -23.348,-4.283 l -2.265,5.556 c 7.769,3.167 16.31999,4.727 25.613,4.727 z M 240.847,121 c -7.00301,-2.909 -12.97101,-6.958 -17.941,-12.141 l -4.33101,4.152 c 5.57,5.81 12.23901,10.318 19.97001,13.529 z m -17.941,-12.141 c -4.973,-5.188 -8.845,-11.383 -11.601,-18.6261 l -5.608,2.1342 c 3.023,7.9439 7.312,14.8379 12.87799,20.6439 z M 211.307,90.2398 c -2.748,-7.2743 -4.141,-15.297 -4.141,-24.0998 h -6.00001 c 0,9.4438 1.49601,18.1945 4.52801,26.2202 z M 207.166,66.14 c 0,-8.8032 1.393,-16.7947 4.139,-24.0079 l -5.608,-2.1342 c -3.035,7.9734 -4.53101,16.6986 -4.53101,26.1421 z m 4.141,-24.0148 c 2.758,-7.2999 6.62899,-13.5204 11.599,-18.704 l -4.33101,-4.1524 C 213.005,25.0785 208.717,32.0047 205.694,40.0048 Z m 11.61,-18.7151 c 4.969,-5.2364 10.93399,-9.3086 17.93,-12.2146 l -2.302,-5.541 c -7.737,3.21398 -14.41,7.7551 -19.98,13.6254 z m 17.93,-12.2146 c 6.959,-2.89103 14.722,-4.36051 23.329,-4.36051 V 0.834991 c -9.3,0 -17.85801,1.590519 -25.631,4.819509 z m 23.329,-4.36051 c 8.606,0 16.369,1.46948 23.32899,4.36051 l 2.302,-5.541 C 282.033,2.42551 273.47599,0.834991 264.176,0.834991 Z m 23.33599,4.36361 C 294.565,14.1057 300.554,18.1778 305.52,23.4101 l 4.35199,-4.1302 C 304.297,13.4055 297.593,8.86426 289.799,5.6514 Z M 305.53,23.4212 c 4.97,5.1836 8.842,11.4041 11.599,18.704 l 5.61299,-2.1204 C 319.72,32.0047 315.431,25.0785 309.861,19.2688 Z m 11.602,18.7109 c 2.74499,7.2132 4.139,15.2047 4.139,24.0079 h 6 c 0,-9.4435 -1.497,-18.1687 -4.531,-26.1421 z M 310.356,66.14 c 0,-7.7501 -1.057,-14.802 -3.222,-21.118 l -5.676,1.946 c 1.914,5.584 2.89799,11.9621 2.89799,19.172 z m -3.222,-21.118 c -2.156,-6.2876 -5.24201,-11.6758 -9.297,-16.0992 l -4.423,4.0544 c 3.425,3.7366 6.12,8.3784 8.044,13.9908 z m -9.283,-16.0839 c -4.048,-4.4776 -8.95301,-7.9048 -14.67601,-10.2791 l -2.29899,5.542 c 4.931,2.0457 9.09299,4.9652 12.524,8.7609 z M 283.17499,18.659 C 277.437,16.2781 271.089,15.115 264.176,15.115 v 6 c 6.233,0 11.785,1.0468 16.7,3.086 z M 264.176,15.115 c -6.86001,0 -13.179,1.1644 -18.915,3.544 l 2.299,5.542 c 4.918,-2.0404 10.443,-3.086 16.616,-3.086 z m -18.915,3.544 c -5.71901,2.3727 -10.64501,5.7952 -14.745,10.2625 l 4.42,4.057 c 3.493,-3.8061 7.69,-6.7302 12.624,-8.7775 z m -14.747,10.2638 c -4.055,4.4234 -7.14,9.8116 -9.296,16.0992 l 5.676,1.946 c 1.924,-5.6124 4.618,-10.2542 8.043,-13.9908 z m -9.296,16.0992 c -2.166,6.316 -3.222,13.3679 -3.222,21.118 h 6 c 0,-7.2099 0.983,-13.588 2.898,-19.172 z m -3.222,21.118 c 0,7.7501 1.056,14.802 3.222,21.118 l 5.676,-1.946 c -1.915,-5.584 -2.898,-11.9621 -2.898,-19.172 z m 3.225,21.1263 c 2.156,6.2293 5.239,11.6064 9.27899,16.0757 l 4.45101,-4.0239 c -3.439,-3.8042 -6.137,-8.457 -8.06,-14.0144 z m 9.308,16.1077 c 4.1,4.405 9.023,7.793 14.732,10.162 l 2.299,-5.542 c -4.944,-2.051 -9.144,-4.953 -12.63801,-8.7077 z m 14.757,10.172 c 5.729,2.316 12.03899,3.449 18.89,3.449 v -6 c -6.183,0 -11.716,-1.021 -16.641,-3.011 z m 18.89,3.449 c 6.903,0 13.242,-1.132 18.974,-3.449 l -2.249,-5.562 c -4.921,1.989 -10.482,3.011 -16.725,3.011 z m 18.99899,-3.459 c 5.714,-2.37 10.61401,-5.763 14.66201,-10.179 l -4.423,-4.0542 c -3.432,3.7442 -7.598,6.6412 -12.538,8.6912 z M 297.851,103.342 c 4.04099,-4.4693 7.123,-9.8464 9.27999,-16.0757 L 301.461,85.3037 c -1.924,5.5574 -4.621,10.2102 -8.061,14.0144 z m 9.283,-16.084 c 2.165,-6.316 3.222,-13.3679 3.222,-21.118 h -6.00001 c 0,7.2099 -0.98399,13.588 -2.89799,19.172 z m 82.901,15.942 -2.86,-0.903 -0.005,0.013 -0.004,0.014 z m -7.395,13.685 -2.253,-1.98 -0.002,0.002 z m -11.98501,8.5 -1.15299,-2.769 z m -33.57499,0.595 -2.992,-0.206 -0.171,2.467 2.38999,0.638 z m 0.425,-4.845 2.983,0.32 0.002,-0.011 z m 0.51,-4.845 -2.97901,-0.351 -0.002,0.016 -0.001,0.015 z m 1.01999,-2.295 -2.12099,-2.121 z m 6.80001,-0.17 -0.862,2.873 v 0 z m 16.745,-0.935 -1.076,-2.8 -0.01,0.003 -0.009,0.004 z m 7.395,-5.27 -2.27701,-1.952 -0.014,0.015 -0.013,0.016 z m 4.59,-9.095 -2.882,-0.8299 -0.005,0.0146 -0.004,0.0147 z m 1.61499,-93.33001 v -3 h -3 v 3 z m 16.405,0 h 3 v -3 h -3 z M 389.585,84.925 c 0,6.5541 -0.819,12.3331 -2.41,17.372 l 5.72099,1.806 c 1.809,-5.7278 2.689,-12.1321 2.689,-19.178 z m -2.419,17.399 c -1.535,5.029 -3.808,9.2 -6.779,12.581 l 4.507,3.96 c 3.603,-4.099 6.259,-9.051 8.01099,-14.789 z m -6.781,12.583 c -2.912,3.321 -6.52301,5.892 -10.883,7.709 l 2.307,5.538 c 5.16,-2.15 9.539,-5.245 13.08699,-9.291 z m -10.883,7.709 c -4.33,1.804 -9.394,2.744 -15.25201,2.744 v 6 c 6.49601,0 12.36901,-1.043 17.55901,-3.206 z m -15.25201,2.744 c -5.20599,0 -10.66899,-0.751 -16.397,-2.279 l -1.546,5.798 c 6.173,1.646 12.157,2.481 17.943,2.481 z m -14.17699,0.826 c 0.111,-1.606 0.25,-3.184 0.415,-4.731 l -5.96501,-0.64 c -0.17499,1.626 -0.32,3.279 -0.43499,4.959 z m 0.417,-4.742 c 0.169,-1.64 0.339,-3.251 0.508,-4.834 l -5.965,-0.64 c -0.171,1.591 -0.341,3.209 -0.512,4.856 z m 0.50499,-4.803 c 0.027,-0.229 0.072,-0.362 0.10201,-0.429 0.027,-0.061 0.048,-0.084 0.06,-0.096 l -4.24299,-4.242 c -1.13801,1.138 -1.703,2.578 -1.87801,4.065 z m 0.162,-0.525 c -0.039,0.039 -0.059,0.036 10e-4,0.015 0.074,-0.026 0.257,-0.071 0.597,-0.071 v -6 c -1.699,0 -3.48,0.453 -4.841,1.814 z m 0.59801,-0.056 c 0.58999,0 1.624,0.16 3.218,0.638 l 1.725,-5.746 c -1.806,-0.542 -3.492,-0.892 -4.943,-0.892 z m 3.218,0.638 c 2.09599,0.629 4.689,0.892 7.662,0.892 v -6 c -2.693,0 -4.633,-0.247 -5.937,-0.638 z m 7.662,0.892 c 4.04,0 7.73799,-0.612 11.041,-1.907 l -2.19101,-5.586 c -2.47699,0.972 -5.41,1.493 -8.84999,1.493 z m 11.022,-1.9 c 3.415,-1.313 6.306,-3.369 8.62299,-6.149 l -4.609,-3.842 c -1.64999,1.98 -3.68899,3.438 -6.16699,4.391 z m 8.59599,-6.118 c 2.383,-2.779 4.091,-6.23 5.20401,-10.2464 l -5.783,-1.6012 c -0.927,3.3506 -2.27901,5.9626 -3.97601,7.9436 z M 377.448,99.3549 c 1.17399,-4.0784 1.73199,-8.7908 1.73199,-14.0899 h -6 c 0,4.9009 -0.51799,9.0285 -1.49699,12.4301 z M 379.17999,85.265 V 5.19499 h -6 V 85.265 Z m -3,-77.07001 h 16.405 v -6 h -16.405 z m 13.40501,-3 V 84.925 h 5.99999 V 5.19499 Z m 107.778,0 h 3 v -3 h -3 z m 0,13.43001 v 3 h 3 v -3 z m -58.48001,0 v -3 h -3 v 3 z m 0,40.46 h -3 v 3 h 3 z m 47.34501,0 h 3 v -3 h -3 z m 0,12.92 v 3 h 3 v -3 z m -47.34501,0 v -3 h -3 v 3 z m 0,41.565 h -3 v 3 h 3 z m 58.48001,0 h 3 v -3 h -3 z m 0,13.43 v 3 h 3 v -3 z m -75.055,0 h -3 v 3 h 3 z m 0,-121.80501 v -3 h -3 v 3 z m 72.055,0 V 18.625 h 6 V 5.19499 Z m 3,10.43001 h -58.48001 v 6 H 497.363 Z m -61.48001,3 v 40.46 h 6 v -40.46 z m 3,43.46 H 486.228 v -6 h -47.34501 z m 44.34501,-3 v 12.92 h 6 v -12.92 z m 3,9.92 h -47.34501 v 6 H 486.228 Z m -50.34501,3 v 41.565 h 6 V 72.005 Z m 3,44.565 H 497.363 v -6 h -58.48001 z m 55.48001,-3 V 127 h 6 v -13.43 z m 3,10.43 h -75.055 v 6 h 75.055 z m -72.055,3 V 5.19499 h -6 V 127 Z m -3,-118.80501 h 75.055 v -6 h -75.055 z m 187.094,94.75001 2.212,-2.026 -0.044,-0.049 -0.047,-0.046 z m 6.45999,7.055 2.27101,1.96 1.742,-2.019 -1.80101,-1.967 z m -18.19,13.515 -1.23699,-2.733 -0.008,0.003 z m -49.555,0.34 -1.18199,2.757 0.009,0.004 0.01,0.004 z m -18.275,-12.75 -2.21099,2.028 0.006,0.006 0.005,0.006 z m -11.72999,-19.72 2.82,-1.0235 z m 0.25499,-50.49 -2.793,-1.0963 -0.003,0.009 -0.004,0.009 z m 12.58,-19.72 2.143,2.0991 z m 19.295,-12.75001 1.118,2.78401 0.01,-0.0044 z m 48.02501,-0.425 -1.18501,2.75621 0.009,0.0037 z m 17.33999,11.30501 2.448,1.7333 1.506,-2.1266 -1.895,-1.7884 z m -5.35499,7.565 -2.44901,-1.7333 -0.004,0.0064 -0.005,0.0065 z m -1.36001,1.445 1.66401,2.4962 0.091,-0.0608 0.087,-0.0673 z m -4.58999,-0.255 -1.744,2.4412 0.098,0.0696 0.102,0.0617 z m -2.89001,-2.04 1.72001,-2.4577 v 0 z m -3.995,-2.55 -1.53,2.5809 v 0 z m -5.43999,-2.55 -1.062,2.8059 v 0 z m -7.31001,-1.955 -0.59999,2.9394 0.029,0.0059 0.029,0.0053 z m -27.53999,2.55 1.139,2.7752 0.007,-0.0029 0.008,-0.0031 z m -13.94001,9.52 -2.17999,-2.0608 v 10e-5 z m -9.18,15.13 -2.812,-1.0446 -0.005,0.0118 -0.004,0.0119 z m 0,40.29 -2.821,1.0209 0.004,0.0118 0.005,0.0119 z m 8.92501,15.13 -2.22501,2.012 0.014,0.016 0.015,0.016 z m 13.43,9.35 1.15599,-2.768 z m 26.43499,2.635 0.40801,2.972 0.028,-0.004 0.029,-0.004 z m 7.99,-2.04 -1.025,-2.819 -0.011,0.003 -0.01,0.004 z m 6.885,-3.4 1.63201,2.517 0.009,-0.005 0.008,-0.006 z m 6.46,-5.015 -1.985,-2.25 -0.008,0.007 -0.008,0.007 z m 2.805,1.725 c 0.033,0 0.047,0.004 0.069,0.014 0.03,0.013 0.124,0.062 0.275,0.212 l 4.242,-4.242 c -1.20799,-1.2086 -2.764,-1.984 -4.586,-1.984 z m 0.252,0.131 6.46,7.055 4.425,-4.052 -6.45999,-7.055 z m 6.40101,3.069 c -4.69401,5.441 -10.40101,9.686 -17.155,12.742 l 2.473,5.466 c 7.52699,-3.404 13.946,-8.169 19.225,-14.288 z m -17.16301,12.745 c -6.59699,3.009 -14.706,4.575 -24.42499,4.575 v 6 c 10.33999,0 19.345,-1.664 26.915,-5.115 z M 572.002,125.36 c -8.43701,0 -15.996,-1.441 -22.722,-4.27 l -2.32601,5.53 c 7.55401,3.178 15.91801,4.74 25.04801,4.74 z m -22.70301,-4.262 C 542.526,118.195 536.786,114.183 532.042,109.065 l -4.4,4.08 c 5.34199,5.762 11.786,10.25 19.293,13.467 z m -17.247,-12.021 C 527.3,103.897 523.58599,97.6737 520.932,90.3615 l -5.64,2.0471 c 2.899,7.9874 7.00499,14.9114 12.339,20.7244 z M 520.932,90.3615 C 518.28899,83.0787 516.94699,75.0152 516.94699,66.14 H 510.947 c 0,9.4848 1.435,18.2513 4.345,26.2686 z M 516.94699,66.14 c 0,-8.8552 1.42,-16.8995 4.21901,-24.1667 l -5.599,-2.1566 c -3.09401,8.0328 -4.62,16.8185 -4.62,26.3233 z M 521.159,41.9913 c 2.867,-7.3015 6.848,-13.5271 11.93099,-18.7172 L 528.804,19.0759 c -5.68401,5.8032 -10.089,12.7242 -13.23001,20.7228 z m 11.93099,-18.7172 c 5.079,-5.1857 11.157,-9.2091 18.27,-12.0651 l -2.236,-5.56798 C 541.277,8.79164 534.49099,13.2683 528.804,19.0759 Z m 18.28,-12.0695 c 7.14,-2.89865 15.053,-4.36961 23.777,-4.36961 V 0.834991 c -9.409,0 -18.1,1.589039 -26.03399,4.810369 z m 23.777,-4.36961 c 8.653,0 15.937,1.34287 21.935,3.92121 l 2.37,-5.51239 C 592.52999,2.26879 584.4,0.834991 575.14699,0.834991 Z m 21.944,3.92491 c 6.197,2.6407 11.677,6.2155 16.457,10.7268 l 4.118,-4.3634 c -5.30699,-5.0087 -11.387,-8.97057 -18.223,-11.88322 z m 16.06701,6.8118 -5.35501,7.565 4.89801,3.4666 5.35399,-7.565 z m -5.36401,7.5779 c -0.237,0.3386 -0.48699,0.5971 -0.74399,0.7973 l 3.684,4.7362 c 0.76199,-0.5932 1.41899,-1.2979 1.976,-2.0927 z m -0.56599,0.6692 c 0.10699,-0.0717 0.14899,-0.0664 0.054,-0.0445 -0.096,0.0223 -0.28701,0.0507 -0.60001,0.0507 v 6 c 1.244,0 2.664,-0.2069 3.87401,-1.0138 z m -0.54601,0.0062 c -0.036,0 -0.297,-0.0137 -0.837,-0.3375 l -3.087,5.145 c 1.161,0.6962 2.48701,1.1925 3.924,1.1925 z M 606.046,25.6188 c -0.80401,-0.574 -1.77601,-1.2598 -2.914,-2.0565 l -3.441,4.9154 c 1.12899,0.7899 2.084,1.4641 2.867,2.0235 z m -2.914,-2.0565 c -1.21001,-0.847 -2.608,-1.7381 -4.186,-2.6732 l -3.05901,5.1618 c 1.483,0.8783 2.748,1.6871 3.805,2.4268 z m -4.186,-2.6732 c -1.71101,-1.0143 -3.688,-1.9353 -5.907,-2.775 l -2.124,5.6118 c 1.97399,0.747 3.62399,1.526 4.97199,2.325 z m -5.907,-2.775 c -2.302,-0.871 -4.92001,-1.5651 -7.83001,-2.0997 l -1.08399,5.9012 c 2.64299,0.4854 4.899,1.0946 6.79,1.8103 z m -7.77201,-2.0885 c -3.02,-0.6163 -6.42999,-0.9106 -10.205,-0.9106 v 6 c 3.47801,0 6.472,0.2724 9.00501,0.7894 z m -10.205,-0.9106 c -6.871,0 -13.24699,1.1964 -19.08899,3.6308 l 2.30799,5.5384 C 563.318,22.1853 568.899,21.115 575.06199,21.115 Z M 555.988,18.7398 c -5.76801,2.3679 -10.772,5.7814 -14.981,10.2344 l 4.35999,4.1215 C 548.978,29.2754 553.268,26.3423 558.266,24.2902 Z m -14.981,10.2345 c -4.217,4.4614 -7.478,9.8619 -9.81201,16.1461 l 5.62401,2.0892 c 2.08599,-5.6158 4.945,-10.302 8.54799,-14.1139 z m -9.82101,16.1698 C 528.896,51.4703 527.777,58.4813 527.777,66.14 h 6 c 0,-7.0746 1.03399,-13.3803 3.051,-18.9541 z M 527.777,66.14 c 0,7.8738 1.116,15.0005 3.40899,21.3359 L 536.828,85.4341 C 534.814,79.8695 533.777,73.4529 533.777,66.14 Z m 3.41799,21.3596 c 2.324,6.2578 5.484,11.6421 9.512,16.0974 l 4.45001,-4.0239 c -3.452,-3.8181 -6.242,-8.5205 -8.338,-14.1627 z m 9.541,16.1294 c 4.08801,4.393 8.92001,7.757 14.47,10.074 l 2.312,-5.536 c -4.76299,-1.989 -8.885,-4.859 -12.38999,-8.6257 z m 14.47,10.074 c 5.546,2.316 11.495,3.462 17.81601,3.462 v -6 c -5.579,0 -10.737,-1.008 -15.50401,-2.998 z m 17.81601,3.462 c 3.73199,0 7.12999,-0.204 10.183,-0.623 l -0.81601,-5.944 c -2.727,0.374 -5.846,0.567 -9.36699,0.567 z m 10.23999,-0.631 c 3.06401,-0.481 5.925,-1.208 8.57101,-2.192 l -2.09201,-5.624 c -2.22699,0.829 -4.69299,1.462 -7.40899,1.888 z m 8.55,-2.185 c 2.69401,-0.979 5.194,-2.211 7.49201,-3.702 l -3.265,-5.034 c -1.895,1.229 -3.98401,2.264 -6.27701,3.098 z m 7.509,-3.713 c 2.291,-1.507 4.561,-3.272 6.81101,-5.285 l -4.001,-4.472 c -2.055,1.84 -4.09201,3.419 -6.108,4.745 z m 6.796,-5.271 c 0.642,-0.567 0.89901,-0.525 0.82,-0.525 v -6 c -1.89199,0 -3.505,0.8919 -4.79,2.025 z M 720.42399,5.19499 h 3 v -3 h -3 z m 0,13.85501 v 3 h 3 v -3 z m -39.355,0 v -3 h -3 v 3 z m 0,107.95 v 3 h 3 v -3 z m -16.49,0 h -3 v 3 h 3 z m 0,-107.95 h 3.00001 v -3 h -3.00001 z m -39.525,0 h -3 v 3 h 3 z m 0,-13.85501 v -3 h -3 v 3 z m 92.37,0 V 19.05 h 6 V 5.19499 Z m 3,10.85501 h -39.355 v 6 h 39.355 z m -42.355,3 V 127 h 6 V 19.05 Z m 3,104.95 h -16.49 v 6 h 16.49 z M 667.579,127 V 19.05 h -6.00001 V 127 Z M 664.57899,16.05 h -39.525 v 6 h 39.525 z m -36.525,3 V 5.19499 h -6 V 19.05 Z m -3,-10.85501 h 95.37 v -6 h -95.37 z m 175.073,16.04001 2.573,1.5435 0.052,-0.0877 0.047,-0.091 z m -1.615,1.955 1.721,2.4577 0.078,-0.0551 0.075,-0.06 z m -5.60999,-0.85 -1.834,2.3738 0.025,0.0197 0.026,0.019 z m -4.84501,-3.145 -1.576,2.5524 0.043,0.0269 0.045,0.0254 z m -7.055,-3.23 -1.001,2.8279 0.009,0.0032 0.009,0.0032 z m -19.72,0.085 0.966,2.8403 0.025,-0.0086 0.025,-0.009 z m -7.14,3.995 -1.985,-2.2495 -0.016,0.0147 -0.017,0.015 z m -4.25,6.035 2.761,1.1734 0.005,-0.0122 0.006,-0.0122 z m 1.02,15.895 -2.429,1.7609 0.025,0.0345 0.026,0.0337 z m 6.63,5.695 -1.511,2.5913 0.011,0.0068 0.012,0.0066 z m 9.35,4.165 -0.976,2.8366 0.027,0.0095 0.028,0.009 z m 10.71,3.57 -0.97499,2.8371 0.007,0.0023 0.007,0.0022 z m 10.71,4.25 -1.251,2.7265 0.027,0.0123 0.026,0.0117 z m 9.35,5.865 -1.975,2.2577 0.011,0.0101 0.012,0.01 z m 6.63,8.755 -2.709,1.2881 0.008,0.018 0.009,0.0179 z m -0.17,27.795 2.795,1.091 0.004,-0.012 z m -7.99,12.155 -2.104,-2.138 -0.008,0.008 -0.009,0.009 z m -12.835,8.16 -1.087,-2.796 -0.011,0.004 z m -38.845,-1.275 -1.225,2.738 0.015,0.007 0.014,0.006 z m -16.575,-11.645 -2.562,-1.56 -1.189,1.953 1.567,1.664 z m 4.76,-7.82 -2.426,-1.765 -0.072,0.1 -0.064,0.105 z m 1.61501,-1.53 1.611,2.531 0.027,-0.017 0.026,-0.018 z m 6.29,1.275 -1.94501,2.284 0.025,0.021 0.025,0.021 z m 5.69499,4.165 -1.678,2.487 0.014,0.009 0.014,0.01 z m 8.33,4.25 -1.122,2.782 0.029,0.012 0.029,0.011 z m 22.44,0.255 0.996,2.83 z m 7.73501,-4.505 2.03,2.209 0.003,-0.002 z m 4.92999,-7.055 -2.769,-1.154 v 0 z m -0.84999,-18.105 -2.46801,1.7046 0.023,0.0338 0.024,0.0331 z m -6.54501,-5.95 -1.511,2.5913 z m -9.35,-3.995 -0.934,2.8507 0.027,0.0091 0.028,0.0085 z m -10.71,-3.4 -0.935,2.8505 0.026,0.0086 0.027,0.0082 z m -10.71,-4.08 -1.21399,2.7433 0.008,0.0036 0.008,0.0036 z m -9.265,-5.95 2.002,-2.2345 z m -6.63,-9.095 -2.739,1.2223 0.011,0.0256 0.012,0.0254 z m 0,-26.095 -2.763,-1.1677 -0.007,0.0166 -0.007,0.0167 z m 7.31,-10.71 -2.102,-2.1404 v 10e-5 z m 11.73001,-7.48 -1.10801,-2.78777 -0.012,0.00468 z m 34.76499,0.425 -1.075,2.80076 z m 14.705,9.35 2.672,1.3648 1.007,-1.9713 -1.587,-1.5437 z m -6.567,6.2765 c -0.389,0.6486 -0.71,0.9904 -0.917,1.1559 l 3.748,4.6852 c 0.927,-0.7412 1.683,-1.7027 2.314,-2.7541 z m -0.763,1.0408 c 0.073,-0.0513 -0.009,0.0527 -0.49,0.0527 v 6 c 1.333,0 2.724,-0.2926 3.931,-1.1373 z m -0.49,0.0527 c 0.017,0 -0.104,0.003 -0.399,-0.1222 -0.295,-0.1254 -0.69899,-0.3522 -1.218,-0.7353 l -3.566,4.825 c 1.501,1.1093 3.271,2.0325 5.183,2.0325 z m -1.565,-0.8189 c -1.39399,-1.0766 -3.136,-2.2013 -5.191,-3.3758 l -2.977,5.2094 c 1.91101,1.0922 3.399,2.0641 4.49901,2.9141 z m -5.103,-3.3235 c -2.159,-1.3336 -4.722,-2.4966 -7.648,-3.5119 l -1.967,5.6686 c 2.627,0.9114 4.76801,1.9017 6.462,2.9481 z m -7.63,-3.5055 c -3.133,-1.1097 -6.809,-1.6171 -10.947,-1.6171 v 6 c 3.68201,0 6.637,0.4559 8.944,1.2729 z m -10.947,-1.6171 c -3.955,0 -7.56799,0.5471 -10.791,1.7073 l 2.032,5.6454 c 2.444,-0.8798 5.348,-1.3527 8.759,-1.3527 z m -10.74,1.6897 c -3.148,1.0702 -5.891,2.5839 -8.16,4.5858 l 3.97,4.499 c 1.585,-1.3981 3.602,-2.5477 6.121,-3.4042 z m -8.193,4.6155 c -2.195,1.9956 -3.86999,4.3724 -5.003,7.1057 l 5.543,2.2981 c 0.79301,-1.9132 1.951,-3.5598 3.496,-4.9642 z m -4.99299,7.0814 c -1.13301,2.6671 -1.68401,5.535 -1.68401,8.5684 h 6 c 0,-2.2933 0.413,-4.3554 1.206,-6.2216 z m -1.68401,8.5684 c 0,3.8941 0.94801,7.3805 3.036,10.2609 l 4.858,-3.5218 c -1.198,-1.6529 -1.894,-3.8332 -1.894,-6.7391 z m 3.087,10.3291 c 1.96601,2.5551 4.48401,4.7001 7.497,6.4572 l 3.023,-5.1826 c -2.428,-1.4163 -4.329,-3.0679 -5.764,-4.9328 z m 7.52001,6.4706 c 2.96099,1.6919 6.25199,3.1543 9.86199,4.3969 l 1.953,-5.6732 c -3.30399,-1.1374 -6.246,-2.4517 -8.83799,-3.9331 z m 9.91699,4.4154 c 3.495,1.1273 7.047,2.3112 10.65601,3.552 l 1.951,-5.6742 c -3.64401,-1.2526 -7.23301,-2.4486 -10.76501,-3.588 z m 10.67,3.5565 c 3.586,1.2141 7.06,2.5926 10.42,4.1349 l 2.503,-5.453 c -3.554,-1.631 -7.22,-3.0859 -11,-4.3652 z m 10.47301,4.1589 c 3.24799,1.4142 6.09899,3.2075 8.57299,5.3722 l 3.951,-4.5154 c -2.966,-2.5953 -6.34899,-4.712 -10.128,-6.3578 z m 8.59599,5.3923 c 2.443,2.094 4.401,4.6698 5.873,7.7653 l 5.419,-2.5762 C 805.187,72.1691 802.725,68.9082 799.615,66.2422 Z m 5.89,7.8012 c 1.445,2.9376 2.242,6.7053 2.242,11.426 h 6.00001 c 0,-5.366 -0.90201,-10.0983 -2.85801,-14.074 z m 2.242,11.426 c 0,4.9788 -0.846,9.626 -2.51899,13.966 l 5.59799,2.158 c 1.954,-5.067 2.92101,-10.4495 2.92101,-16.124 z m -2.514,13.954 c -1.662,4.258 -4.092,7.951 -7.3,11.108 l 4.208,4.276 c 3.819,-3.757 6.716,-8.167 8.681,-13.202 z m -7.317,11.125 c -3.129,3.129 -7.042,5.634 -11.801,7.485 l 2.175,5.592 c 5.441,-2.116 10.084,-5.051 13.869,-8.835 z m -11.81199,7.489 c -4.63301,1.822 -10.00201,2.767 -16.15701,2.767 v 6 c 6.765,0 12.9,-1.039 18.353,-3.183 z m -16.15701,2.767 c -7.51,0 -14.29299,-1.349 -20.39399,-4.001 l -2.392,5.502 c 6.93299,3.015 14.54299,4.499 22.78599,4.499 z M 745.677,121.372 c -6.11901,-2.738 -11.31301,-6.395 -15.61601,-10.964 l -4.368,4.114 c 4.877,5.178 10.734,9.284 17.534,12.326 z m -15.23701,-7.347 4.76,-7.82 -5.12499,-3.12 -4.76001,7.82 z m 4.623,-7.615 c 0.24201,-0.333 0.508,-0.578 0.80001,-0.764 l -3.22101,-5.062 c -0.955,0.607 -1.766,1.382 -2.431,2.296 z m 0.853,-0.799 c 0.203,-0.135 0.364,-0.176 0.54601,-0.176 v -6 c -1.40401,0 -2.71701,0.4125 -3.87401,1.184 z m 0.54601,-0.176 c 0.128,0 0.80399,0.105 2.13499,1.239 l 3.891,-4.568 c -1.729,-1.473 -3.774,-2.671 -6.02599,-2.671 z m 2.185,1.281 c 1.62099,1.32 3.59699,2.763 5.91199,4.326 l 3.357,-4.974 c -2.218,-1.497 -4.03899,-2.831 -5.479,-4.004 z m 5.93999,4.345 c 2.525,1.662 5.487,3.166 8.858,4.526 l 2.245,-5.564 c -3.09,-1.247 -5.681,-2.576 -7.80299,-3.974 z m 8.916,4.549 c 3.72,1.411 8.09801,2.065 13.04901,2.065 v -6 c -4.45501,0 -8.06701,-0.593 -10.92101,-1.675 z m 13.04901,2.065 c 4.18199,0 8.01299,-0.575 11.45099,-1.785 l -1.991,-5.66 c -2.683,0.944 -5.82099,1.445 -9.45999,1.445 z m 11.45099,-1.785 c 3.39,-1.193 6.335,-2.889 8.76901,-5.126 l -4.06,-4.418 c -1.75801,1.616 -3.97101,2.924 -6.70001,3.884 z m 8.772,-5.128 c 2.474,-2.279 4.368,-4.991 5.667,-8.108 l -5.539,-2.308 c -0.968,2.323 -2.361,4.315 -4.19299,6.002 z m 5.667,-8.108 c 1.30401,-3.1318 1.93,-6.5627 1.93,-10.249 H 788.372 c 0,3.0003 -0.50701,5.6328 -1.46901,7.941 z m 1.93,-10.249 c 0,-4.1416 -0.959,-7.8165 -3.129,-10.7815 l -4.842,3.543 c 1.231,1.6817 1.97101,4.0134 1.97101,7.2385 z m -3.081,-10.7146 c -1.915,-2.7734 -4.43599,-5.0482 -7.502,-6.8367 l -3.023,5.1826 c 2.374,1.3849 4.216,3.0767 5.588,5.0633 z m -7.502,-6.8367 c -2.949,-1.7205 -6.284,-3.1386 -9.983,-4.272 l -1.758,5.7366 c 3.328,1.02 6.227,2.2652 8.718,3.718 z m -9.927,-4.2544 c -3.475,-1.1394 -7.063,-2.2782 -10.76199,-3.4166 l -1.76501,5.7346 c 3.667,1.1283 7.219,2.2561 10.658,3.3834 z m -10.709,-3.3998 c -3.538,-1.1607 -7.02,-2.4873 -10.448,-3.98 l -2.396,5.501 c 3.599,1.5673 7.25701,2.9606 10.973,4.18 z M 752.721,63.2267 c -3.17901,-1.4072 -5.99901,-3.2217 -8.47701,-5.4412 l -4.003,4.469 c 2.962,2.6538 6.318,4.806 10.05201,6.4588 z m -8.47701,-5.4412 c -2.392,-2.1425 -4.37,-4.8368 -5.915,-8.1338 l -5.433,2.5466 c 1.854,3.9563 4.296,7.3254 7.345,10.0562 z M 738.352,49.7027 c -1.42501,-3.1929 -2.20501,-7.2818 -2.20501,-12.3777 H 730.147 c 0,5.6708 0.86299,10.6485 2.72599,14.8223 z M 736.14699,37.325 c 0,-3.9141 0.745,-7.694 2.243,-11.3606 l -5.555,-2.2688 c -1.789,4.3801 -2.68799,8.9301 -2.68799,13.6294 z m 2.229,-11.3273 c 1.543,-3.6519 3.752,-6.8929 6.648,-9.7374 l -4.204,-4.2806 c -3.45,3.3888 -6.114,7.2878 -7.971,11.6826 z m 6.648,-9.7374 c 2.858,-2.807 6.422,-5.0962 10.748,-6.83722 l -2.24,-5.56617 c -4.967,1.99894 -9.22299,4.69644 -12.712,8.12269 z m 10.737,-6.83256 c 4.288,-1.705 9.284,-2.59275 15.041,-2.59275 V 0.834991 c -6.369,0 -12.13999,0.982249 -17.258,3.017269 z m 15.041,-2.59275 c 6.481,0 12.315,1.0253 17.54,3.03077 l 2.15,-5.60153 c -5.995,-2.3012 -12.57,-3.429239 -19.69,-3.429239 z m 17.54,3.03077 c 5.241,2.01164 9.794,4.91074 13.688,8.69944 l 4.184,-4.3004 c -4.492,-4.37128 -9.74299,-7.70557 -15.722,-10.00057 z m 13.109,5.18444 -3.995,7.82 5.343,2.7296 3.995,-7.82 z"
     fill="#464646"
     id="path10"
     style="fill:#b3b3b3;stroke-width:1" />
</svg>
