<?xml version="1.0" encoding="UTF-8" standalone="no"?>
<svg
   xmlns:dc="http://purl.org/dc/elements/1.1/"
   xmlns:cc="http://creativecommons.org/ns#"
   xmlns:rdf="http://www.w3.org/1999/02/22-rdf-syntax-ns#"
   xmlns:svg="http://www.w3.org/2000/svg"
   xmlns="http://www.w3.org/2000/svg"
   xmlns:sodipodi="http://sodipodi.sourceforge.net/DTD/sodipodi-0.dtd"
   xmlns:inkscape="http://www.inkscape.org/namespaces/inkscape"
   width="810"
   height="132"
   viewBox="0 0 810 132"
   fill="none"
   version="1.1"
   id="svg12"
   sodipodi:docname="line.svg"
   inkscape:version="1.0.1 (c497b03c, 2020-09-10)">
  <metadata
     id="metadata18">
    <rdf:RDF>
      <cc:Work
         rdf:about="">
        <dc:format>image/svg+xml</dc:format>
        <dc:type
           rdf:resource="http://purl.org/dc/dcmitype/StillImage" />
      </cc:Work>
    </rdf:RDF>
  </metadata>
  <defs
     id="defs16" />
  <sodipodi:namedview
     pagecolor="#ffffff"
     bordercolor="#666666"
     borderopacity="1"
     objecttolerance="10"
     gridtolerance="10"
     guidetolerance="10"
     inkscape:pageopacity="0"
     inkscape:pageshadow="2"
     inkscape:window-width="705"
     inkscape:window-height="480"
     id="namedview14"
     showgrid="false"
     inkscape:zoom="1.3"
     inkscape:cx="405"
     inkscape:cy="66"
     inkscape:window-x="3048"
     inkscape:window-y="68"
     inkscape:window-maximized="0"
     inkscape:current-layer="svg12" />
  <path
     d="M19.895 81.44V78.44H16.895V81.44H19.895ZM19.895 127V130H22.895V127H19.895ZM3.49 127H0.490001V130H3.49V127ZM3.49 5.19499V2.19499H0.490001V5.19499H3.49ZM59.505 7.915L58.5907 10.7723L58.6077 10.7777L58.6247 10.7829L59.505 7.915ZM73.7 15.48L71.7197 17.7335V17.7335L73.7 15.48ZM82.03 27.38L79.2353 28.4706L79.241 28.4854L79.2469 28.5L82.03 27.38ZM73.105 70.645L71.1201 68.3955L71.1119 68.4028L71.1036 68.4101L73.105 70.645ZM58.91 78.635L59.8501 81.4839L59.8629 81.4797L59.8757 81.4753L58.91 78.635ZM19.895 68.35H16.895V71.35H19.895V68.35ZM51.855 66.48L50.8798 63.6429L50.8729 63.6453L50.866 63.6477L51.855 66.48ZM60.95 61.295L62.9654 63.5172L62.9795 63.5044L62.9933 63.4916L60.95 61.295ZM66.475 53.22L69.2604 54.3342L66.475 53.22ZM61.12 24.745L59.0928 26.9565L59.0993 26.9624L59.1059 26.9684L61.12 24.745ZM19.895 18.2V15.2H16.895V18.2H19.895ZM16.895 81.44V127H22.895V81.44H16.895ZM19.895 124H3.49V130H19.895V124ZM6.49 127V5.19499H0.490001V127H6.49ZM3.49 8.19499H39.445V2.19499H3.49V8.19499ZM39.445 8.19499C46.9279 8.19499 53.292 9.07669 58.5907 10.7723L60.4193 5.05773C54.3847 3.12663 47.3755 2.19499 39.445 2.19499V8.19499ZM58.6247 10.7829C64.0228 12.4398 68.3566 14.7781 71.7197 17.7335L75.6804 13.2265C71.5634 9.60859 66.4339 6.90355 60.3853 5.04705L58.6247 10.7829ZM71.7197 17.7335C75.0984 20.7027 77.5961 24.2703 79.2353 28.4706L84.8247 26.2894C82.8372 21.1964 79.7816 16.8307 75.6804 13.2265L71.7197 17.7335ZM79.2469 28.5C80.9547 32.7435 81.835 37.5412 81.835 42.935H87.835C87.835 36.8822 86.8453 31.3098 84.8131 26.26L79.2469 28.5ZM81.835 42.935C81.835 48.2455 80.9072 53.0286 79.0957 57.3243L84.6243 59.6557C86.7795 54.5447 87.835 48.9579 87.835 42.935H81.835ZM79.0957 57.3243C77.2887 61.6095 74.6379 65.2915 71.1201 68.3955L75.0899 72.8945C79.2787 69.1984 82.4646 64.7771 84.6243 59.6557L79.0957 57.3243ZM71.1036 68.4101C67.6557 71.4979 63.2943 73.9757 57.9443 75.7947L59.8757 81.4753C65.8591 79.441 70.961 76.5921 75.1064 72.8798L71.1036 68.4101ZM57.9699 75.7861C52.6659 77.5364 46.5048 78.44 39.445 78.44V84.44C47.0052 84.44 53.8208 83.4736 59.8501 81.4839L57.9699 75.7861ZM39.445 78.44H19.895V84.44H39.445V78.44ZM19.895 71.35H39.445V65.35H19.895V71.35ZM39.445 71.35C44.4063 71.35 48.8894 70.6933 52.844 69.3123L50.866 63.6477C47.6806 64.7601 43.8904 65.35 39.445 65.35V71.35ZM52.8302 69.3171C56.7787 67.9598 60.1816 66.0421 62.9654 63.5172L58.9346 59.0728C56.8451 60.9679 54.1847 62.5069 50.8798 63.6429L52.8302 69.3171ZM62.9933 63.4916C65.7571 60.9206 67.8508 57.8583 69.2604 54.3342L63.6896 52.1058C62.6059 54.815 61.0162 57.1361 58.9067 59.0984L62.9933 63.4916ZM69.2604 54.3342C70.6642 50.8249 71.345 47.0131 71.345 42.935H65.345C65.345 46.3368 64.7792 49.3818 63.6896 52.1058L69.2604 54.3342ZM71.345 42.935C71.345 34.5041 68.7003 27.5639 63.1341 22.5216L59.1059 26.9684C63.1731 30.6527 65.345 35.8393 65.345 42.935H71.345ZM63.1472 22.5335C57.6128 17.4604 49.519 15.2 39.445 15.2V21.2C48.751 21.2 55.1072 23.303 59.0928 26.9565L63.1472 22.5335ZM39.445 15.2H19.895V21.2H39.445V15.2ZM16.895 18.2V68.35H22.895V18.2H16.895ZM123.821 76.17V73.17H120.821V76.17H123.821ZM123.821 127V130H126.821V127H123.821ZM107.416 127H104.416V130H107.416V127ZM107.416 5.19499V2.19499H104.416V5.19499H107.416ZM161.816 7.57499L160.999 10.4618L161.013 10.4656L161.026 10.4693L161.816 7.57499ZM175.671 14.29L173.779 16.6183L173.788 16.6255L173.797 16.6326L175.671 14.29ZM183.831 25L181.064 26.1591L181.067 26.1659L181.069 26.1726L183.831 25ZM184.426 51.01L181.606 49.9848V49.9848L184.426 51.01ZM178.476 61.125L176.21 59.1586L176.207 59.1619L178.476 61.125ZM169.041 68.69L167.574 66.0732L167.565 66.0779L167.557 66.0828L169.041 68.69ZM156.461 73.45L155.791 70.5256L148.396 72.2186L154.949 76.0413L156.461 73.45ZM161.901 78.635L159.443 80.3554L159.463 80.3835L159.483 80.4111L161.901 78.635ZM197.431 127V130H203.357L199.849 125.224L197.431 127ZM176.181 123.515L178.742 121.953L178.679 121.85L178.608 121.752L176.181 123.515ZM144.561 79.995L142.113 81.729L142.123 81.7438L142.134 81.7584L144.561 79.995ZM141.416 77.105L139.97 79.7336L140.022 79.762L140.074 79.7883L141.416 77.105ZM123.821 64.185H120.821V67.185H123.821V64.185ZM153.741 62.485L154.636 65.3484L154.649 65.3441L154.663 65.3397L153.741 62.485ZM162.921 57.555L164.878 59.829L164.882 59.8255L162.921 57.555ZM168.531 49.905L165.768 48.7361L168.531 49.905ZM163.176 23.725L161.34 26.0976L161.347 26.1029L161.353 26.1081L163.176 23.725ZM123.821 18.2V15.2H120.821V18.2H123.821ZM120.821 76.17V127H126.821V76.17H120.821ZM123.821 124H107.416V130H123.821V124ZM110.416 127V5.19499H104.416V127H110.416ZM107.416 8.19499H141.841V2.19499H107.416V8.19499ZM141.841 8.19499C149.354 8.19499 155.724 8.96988 160.999 10.4618L162.632 4.68823C156.687 3.00677 149.741 2.19499 141.841 2.19499V8.19499ZM161.026 10.4693C166.329 11.9155 170.545 13.991 173.779 16.6183L177.563 11.9616C173.543 8.69566 168.522 6.29451 162.605 4.6807L161.026 10.4693ZM173.797 16.6326C177.103 19.2779 179.508 22.4465 181.064 26.1591L186.598 23.8408C184.64 19.1668 181.605 15.1954 177.545 11.9474L173.797 16.6326ZM181.069 26.1726C182.647 29.8877 183.466 34.1273 183.466 38.94H189.466C189.466 33.4394 188.528 28.3856 186.592 23.8274L181.069 26.1726ZM183.466 38.94C183.466 42.9258 182.837 46.5994 181.606 49.9848L187.245 52.0352C188.734 47.9406 189.466 43.5675 189.466 38.94H183.466ZM181.606 49.9848C180.372 53.3801 178.576 56.4327 176.21 59.1586L180.741 63.0914C183.589 59.8107 185.76 56.1199 187.245 52.0352L181.606 49.9848ZM176.207 59.1619C173.906 61.8208 171.041 64.1294 167.574 66.0732L170.508 71.3068C174.52 69.0573 177.945 66.3225 180.744 63.0881L176.207 59.1619ZM167.557 66.0828C164.16 68.0161 160.248 69.5055 155.791 70.5256L157.13 76.3744C162.08 75.2412 166.555 73.5572 170.525 71.2972L167.557 66.0828ZM154.949 76.0413C156.556 76.9785 158.063 78.3836 159.443 80.3554L164.358 76.9146C162.565 74.3531 160.446 72.3015 157.972 70.8587L154.949 76.0413ZM159.483 80.4111L195.013 128.776L199.849 125.224L164.319 76.8589L159.483 80.4111ZM197.431 124H182.811V130H197.431V124ZM182.811 124C180.724 124 179.55 123.278 178.742 121.953L173.619 125.077C175.645 128.399 178.891 130 182.811 130V124ZM178.608 121.752L146.988 78.2316L142.134 81.7584L173.754 125.278L178.608 121.752ZM147.009 78.2609C145.847 76.6209 144.449 75.2676 142.757 74.4217L140.074 79.7883C140.649 80.0757 141.348 80.6491 142.113 81.729L147.009 78.2609ZM142.862 74.4763C141.066 73.489 138.759 73.17 136.316 73.17V79.17C138.406 79.17 139.498 79.4743 139.97 79.7336L142.862 74.4763ZM136.316 73.17H123.821V79.17H136.316V73.17ZM123.821 67.185H141.076V61.185H123.821V67.185ZM141.076 67.185C146.119 67.185 150.654 66.5927 154.636 65.3484L152.846 59.6216C149.574 60.6439 145.666 61.185 141.076 61.185V67.185ZM154.663 65.3397C158.651 64.0514 162.083 62.2336 164.878 59.829L160.964 55.281C158.885 57.0697 156.198 58.5385 152.818 59.6303L154.663 65.3397ZM164.882 59.8255C167.713 57.3805 169.862 54.4572 171.294 51.0739L165.768 48.7361C164.706 51.2461 163.116 53.4228 160.96 55.2845L164.882 59.8255ZM171.294 51.0739C172.714 47.7168 173.401 44.055 173.401 40.13H167.401C167.401 43.345 166.841 46.1998 165.768 48.7361L171.294 51.0739ZM173.401 40.13C173.401 32.1478 170.706 25.7071 164.998 21.3419L161.353 26.1081C165.279 29.1096 167.401 33.6055 167.401 40.13H173.401ZM165.012 21.3524C159.501 17.088 151.613 15.2 141.841 15.2V21.2C150.996 21.2 157.331 22.9953 161.34 26.0976L165.012 21.3524ZM141.841 15.2H123.821V21.2H141.841V15.2ZM120.821 18.2V64.185H126.821V18.2H120.821ZM319.936 91.3L322.74 92.3671L322.742 92.3602L319.936 91.3ZM288.656 123.77L289.788 126.548L289.799 126.544L288.656 123.77ZM239.696 123.77L238.545 126.54L238.554 126.544L238.563 126.548L239.696 123.77ZM220.741 110.935L218.575 113.011L220.741 110.935ZM208.501 91.3L205.694 92.3602L205.697 92.3671L208.501 91.3ZM208.501 41.065L211.305 42.1321L211.307 42.1252L208.501 41.065ZM220.741 21.345L222.906 23.4212L222.912 23.4156L222.917 23.4101L220.741 21.345ZM239.696 8.42499L240.847 11.1955L239.696 8.42499ZM288.656 8.42499L287.505 11.1955L287.512 11.1986L288.656 8.42499ZM307.696 21.345L305.52 23.4101L305.525 23.4156L305.53 23.4212L307.696 21.345ZM319.936 41.065L317.129 42.1252L317.132 42.1321L319.936 41.065ZM295.626 30.95L293.4 32.9619L293.407 32.9696L293.414 32.9772L295.626 30.95ZM282.026 21.43L283.175 18.659L282.026 21.43ZM246.411 21.43L245.261 18.659L246.411 21.43ZM232.726 30.95L230.516 28.9215L230.514 28.9228L232.726 30.95ZM224.056 45.995L221.218 45.022L224.056 45.995ZM224.056 86.285L221.218 87.258L221.221 87.2663L224.056 86.285ZM232.726 101.33L230.5 103.342L230.515 103.358L230.529 103.374L232.726 101.33ZM246.411 110.765L245.261 113.536L245.274 113.541L245.286 113.546L246.411 110.765ZM282.026 110.765L283.15 113.546L283.163 113.541L283.175 113.536L282.026 110.765ZM295.626 101.33L297.837 103.357L297.844 103.35L297.851 103.342L295.626 101.33ZM304.296 86.285L307.131 87.2663L307.134 87.258L304.296 86.285ZM321.271 66.14C321.271 74.9428 319.877 82.9655 317.129 90.2398L322.742 92.3602C325.774 84.3345 327.271 75.5838 327.271 66.14H321.271ZM317.132 90.2329C314.375 97.476 310.504 103.671 305.53 108.859L309.861 113.011C315.428 107.205 319.716 100.311 322.74 92.3671L317.132 90.2329ZM305.53 108.859C300.564 114.038 294.572 118.087 287.512 120.996L289.799 126.544C297.586 123.334 304.287 118.825 309.861 113.011L305.53 108.859ZM287.523 120.992C280.558 123.831 272.789 125.275 264.176 125.275V131.275C273.469 131.275 282.02 129.715 289.788 126.548L287.523 120.992ZM264.176 125.275C255.562 125.275 247.793 123.831 240.828 120.992L238.563 126.548C246.332 129.715 254.883 131.275 264.176 131.275V125.275ZM240.847 121C233.844 118.091 227.876 114.042 222.906 108.859L218.575 113.011C224.145 118.821 230.814 123.329 238.545 126.54L240.847 121ZM222.906 108.859C217.933 103.671 214.061 97.476 211.305 90.2329L205.697 92.3671C208.72 100.311 213.009 107.205 218.575 113.011L222.906 108.859ZM211.307 90.2398C208.559 82.9655 207.166 74.9428 207.166 66.14H201.166C201.166 75.5838 202.662 84.3345 205.694 92.3602L211.307 90.2398ZM207.166 66.14C207.166 57.3368 208.559 49.3453 211.305 42.1321L205.697 39.9979C202.662 47.9713 201.166 56.6965 201.166 66.14H207.166ZM211.307 42.1252C214.065 34.8253 217.936 28.6048 222.906 23.4212L218.575 19.2688C213.005 25.0785 208.717 32.0047 205.694 40.0048L211.307 42.1252ZM222.917 23.4101C227.886 18.1737 233.851 14.1015 240.847 11.1955L238.545 5.6545C230.808 8.86848 224.135 13.4096 218.565 19.2799L222.917 23.4101ZM240.847 11.1955C247.806 8.30447 255.569 6.83499 264.176 6.83499V0.834991C254.876 0.834991 246.318 2.42551 238.545 5.6545L240.847 11.1955ZM264.176 6.83499C272.782 6.83499 280.545 8.30447 287.505 11.1955L289.807 5.6545C282.033 2.42551 273.476 0.834991 264.176 0.834991V6.83499ZM287.512 11.1986C294.565 14.1057 300.554 18.1778 305.52 23.4101L309.872 19.2799C304.297 13.4055 297.593 8.86426 289.799 5.6514L287.512 11.1986ZM305.53 23.4212C310.5 28.6048 314.372 34.8253 317.129 42.1252L322.742 40.0048C319.72 32.0047 315.431 25.0785 309.861 19.2688L305.53 23.4212ZM317.132 42.1321C319.877 49.3453 321.271 57.3368 321.271 66.14H327.271C327.271 56.6965 325.774 47.9713 322.74 39.9979L317.132 42.1321ZM310.356 66.14C310.356 58.3899 309.299 51.338 307.134 45.022L301.458 46.968C303.372 52.552 304.356 58.9301 304.356 66.14H310.356ZM307.134 45.022C304.978 38.7344 301.892 33.3462 297.837 28.9228L293.414 32.9772C296.839 36.7138 299.534 41.3556 301.458 46.968L307.134 45.022ZM297.851 28.9381C293.803 24.4605 288.898 21.0333 283.175 18.659L280.876 24.201C285.807 26.2467 289.969 29.1662 293.4 32.9619L297.851 28.9381ZM283.175 18.659C277.437 16.2781 271.089 15.115 264.176 15.115V21.115C270.409 21.115 275.961 22.1618 280.876 24.201L283.175 18.659ZM264.176 15.115C257.316 15.115 250.997 16.2794 245.261 18.659L247.56 24.201C252.478 22.1606 258.003 21.115 264.176 21.115V15.115ZM245.261 18.659C239.542 21.0317 234.616 24.4542 230.516 28.9215L234.936 32.9785C238.429 29.1724 242.626 26.2483 247.56 24.201L245.261 18.659ZM230.514 28.9228C226.459 33.3462 223.374 38.7344 221.218 45.022L226.894 46.968C228.818 41.3556 231.512 36.7138 234.937 32.9772L230.514 28.9228ZM221.218 45.022C219.052 51.338 217.996 58.3899 217.996 66.14H223.996C223.996 58.9301 224.979 52.552 226.894 46.968L221.218 45.022ZM217.996 66.14C217.996 73.8901 219.052 80.942 221.218 87.258L226.894 85.312C224.979 79.728 223.996 73.3499 223.996 66.14H217.996ZM221.221 87.2663C223.377 93.4956 226.46 98.8727 230.5 103.342L234.951 99.3181C231.512 95.5139 228.814 90.8611 226.891 85.3037L221.221 87.2663ZM230.529 103.374C234.629 107.779 239.552 111.167 245.261 113.536L247.56 107.994C242.616 105.943 238.416 103.041 234.922 99.2863L230.529 103.374ZM245.286 113.546C251.015 115.862 257.325 116.995 264.176 116.995V110.995C257.993 110.995 252.46 109.974 247.535 107.984L245.286 113.546ZM264.176 116.995C271.079 116.995 277.418 115.863 283.15 113.546L280.901 107.984C275.98 109.973 270.419 110.995 264.176 110.995V116.995ZM283.175 113.536C288.889 111.166 293.789 107.773 297.837 103.357L293.414 99.3028C289.982 103.047 285.816 105.944 280.876 107.994L283.175 113.536ZM297.851 103.342C301.892 98.8727 304.974 93.4956 307.131 87.2663L301.461 85.3037C299.537 90.8611 296.84 95.5139 293.4 99.3181L297.851 103.342ZM307.134 87.258C309.299 80.942 310.356 73.8901 310.356 66.14H304.356C304.356 73.3499 303.372 79.728 301.458 85.312L307.134 87.258ZM390.035 103.2L387.175 102.297L387.17 102.31L387.166 102.324L390.035 103.2ZM382.64 116.885L380.387 114.905L380.385 114.907L382.64 116.885ZM370.655 125.385L369.502 122.616L370.655 125.385ZM337.08 125.98L334.088 125.774L333.917 128.241L336.307 128.879L337.08 125.98ZM337.505 121.135L340.488 121.455L340.49 121.444L337.505 121.135ZM338.015 116.29L335.036 115.939L335.034 115.955L335.033 115.97L338.015 116.29ZM339.035 113.995L336.914 111.874L339.035 113.995ZM345.835 113.825L344.973 116.698V116.698L345.835 113.825ZM362.58 112.89L361.504 110.09L361.494 110.093L361.485 110.097L362.58 112.89ZM369.975 107.62L367.698 105.668L367.684 105.683L367.671 105.699L369.975 107.62ZM374.565 98.525L371.683 97.6951L371.678 97.7097L371.674 97.7244L374.565 98.525ZM376.18 5.19499V2.19499H373.18V5.19499H376.18ZM392.585 5.19499H395.585V2.19499H392.585V5.19499ZM389.585 84.925C389.585 91.4791 388.766 97.2581 387.175 102.297L392.896 104.103C394.705 98.3752 395.585 91.9709 395.585 84.925H389.585ZM387.166 102.324C385.631 107.353 383.358 111.524 380.387 114.905L384.894 118.865C388.497 114.766 391.153 109.814 392.905 104.076L387.166 102.324ZM380.385 114.907C377.473 118.228 373.862 120.799 369.502 122.616L371.809 128.154C376.969 126.004 381.348 122.909 384.896 118.863L380.385 114.907ZM369.502 122.616C365.172 124.42 360.108 125.36 354.25 125.36V131.36C360.746 131.36 366.619 130.317 371.809 128.154L369.502 122.616ZM354.25 125.36C349.044 125.36 343.581 124.609 337.853 123.081L336.307 128.879C342.48 130.525 348.464 131.36 354.25 131.36V125.36ZM340.073 126.186C340.184 124.58 340.323 123.002 340.488 121.455L334.523 120.815C334.348 122.441 334.203 124.094 334.088 125.774L340.073 126.186ZM340.49 121.444C340.659 119.804 340.829 118.193 340.998 116.61L335.033 115.97C334.862 117.561 334.692 119.179 334.521 120.826L340.49 121.444ZM340.995 116.641C341.022 116.412 341.067 116.279 341.097 116.212C341.124 116.151 341.145 116.128 341.157 116.116L336.914 111.874C335.776 113.012 335.211 114.452 335.036 115.939L340.995 116.641ZM341.157 116.116C341.118 116.155 341.098 116.152 341.158 116.131C341.232 116.105 341.415 116.06 341.755 116.06V110.06C340.056 110.06 338.275 110.513 336.914 111.874L341.157 116.116ZM341.755 116.06C342.345 116.06 343.379 116.22 344.973 116.698L346.698 110.952C344.892 110.41 343.206 110.06 341.755 110.06V116.06ZM344.973 116.698C347.069 117.327 349.662 117.59 352.635 117.59V111.59C349.942 111.59 348.002 111.343 346.698 110.952L344.973 116.698ZM352.635 117.59C356.675 117.59 360.373 116.978 363.676 115.683L361.485 110.097C359.008 111.069 356.075 111.59 352.635 111.59V117.59ZM363.657 115.69C367.072 114.377 369.963 112.321 372.28 109.541L367.671 105.699C366.021 107.679 363.982 109.137 361.504 110.09L363.657 115.69ZM372.253 109.572C374.636 106.793 376.344 103.342 377.457 99.3256L371.674 97.7244C370.747 101.075 369.395 103.687 367.698 105.668L372.253 109.572ZM377.448 99.3549C378.622 95.2765 379.18 90.5641 379.18 85.265H373.18C373.18 90.1659 372.662 94.2935 371.683 97.6951L377.448 99.3549ZM379.18 85.265V5.19499H373.18V85.265H379.18ZM376.18 8.19499H392.585V2.19499H376.18V8.19499ZM389.585 5.19499V84.925H395.585V5.19499H389.585ZM497.363 5.19499H500.363V2.19499H497.363V5.19499ZM497.363 18.625V21.625H500.363V18.625H497.363ZM438.883 18.625V15.625H435.883V18.625H438.883ZM438.883 59.085H435.883V62.085H438.883V59.085ZM486.228 59.085H489.228V56.085H486.228V59.085ZM486.228 72.005V75.005H489.228V72.005H486.228ZM438.883 72.005V69.005H435.883V72.005H438.883ZM438.883 113.57H435.883V116.57H438.883V113.57ZM497.363 113.57H500.363V110.57H497.363V113.57ZM497.363 127V130H500.363V127H497.363ZM422.308 127H419.308V130H422.308V127ZM422.308 5.19499V2.19499H419.308V5.19499H422.308ZM494.363 5.19499V18.625H500.363V5.19499H494.363ZM497.363 15.625H438.883V21.625H497.363V15.625ZM435.883 18.625V59.085H441.883V18.625H435.883ZM438.883 62.085H486.228V56.085H438.883V62.085ZM483.228 59.085V72.005H489.228V59.085H483.228ZM486.228 69.005H438.883V75.005H486.228V69.005ZM435.883 72.005V113.57H441.883V72.005H435.883ZM438.883 116.57H497.363V110.57H438.883V116.57ZM494.363 113.57V127H500.363V113.57H494.363ZM497.363 124H422.308V130H497.363V124ZM425.308 127V5.19499H419.308V127H425.308ZM422.308 8.19499H497.363V2.19499H422.308V8.19499ZM609.402 102.945L611.614 100.919L611.57 100.87L611.523 100.824L609.402 102.945ZM615.862 110L618.133 111.96L619.875 109.941L618.074 107.974L615.862 110ZM597.672 123.515L596.435 120.782L596.427 120.785L597.672 123.515ZM548.117 123.855L546.935 126.612L546.944 126.616L546.954 126.62L548.117 123.855ZM529.842 111.105L527.631 113.133L527.637 113.139L527.642 113.145L529.842 111.105ZM518.112 91.385L520.932 90.3615L518.112 91.385ZM518.367 40.895L515.574 39.7987L515.571 39.8077L515.567 39.8167L518.367 40.895ZM530.947 21.175L533.09 23.2741L530.947 21.175ZM550.242 8.42499L551.36 11.209L551.37 11.2046L550.242 8.42499ZM598.267 7.99999L597.082 10.7562L597.091 10.7599L598.267 7.99999ZM615.607 19.305L618.055 21.0383L619.561 18.9117L617.666 17.1233L615.607 19.305ZM610.252 26.87L607.803 25.1367L607.799 25.1431L607.794 25.1496L610.252 26.87ZM608.892 28.315L610.556 30.8112L610.647 30.7504L610.734 30.6831L608.892 28.315ZM604.302 28.06L602.558 30.5012L602.656 30.5708L602.758 30.6325L604.302 28.06ZM601.412 26.02L603.132 23.5623V23.5623L601.412 26.02ZM597.417 23.47L595.887 26.0509V26.0509L597.417 23.47ZM591.977 20.92L590.915 23.7259V23.7259L591.977 20.92ZM584.667 18.965L584.067 21.9044L584.096 21.9103L584.125 21.9156L584.667 18.965ZM557.127 21.515L558.266 24.2902L558.273 24.2873L558.281 24.2842L557.127 21.515ZM543.187 31.035L541.007 28.9742V28.9743L543.187 31.035ZM534.007 46.165L531.195 45.1204L531.19 45.1322L531.186 45.1441L534.007 46.165ZM534.007 86.455L531.186 87.4759L531.19 87.4877L531.195 87.4996L534.007 86.455ZM542.932 101.585L540.707 103.597L540.721 103.613L540.736 103.629L542.932 101.585ZM556.362 110.935L557.518 108.167L556.362 110.935ZM582.797 113.57L583.205 116.542L583.233 116.538L583.262 116.534L582.797 113.57ZM590.787 111.53L589.762 108.711L589.751 108.714L589.741 108.718L590.787 111.53ZM597.672 108.13L599.304 110.647L599.313 110.642L599.321 110.636L597.672 108.13ZM604.132 103.115L602.147 100.865L602.139 100.872L602.131 100.879L604.132 103.115ZM606.937 104.84C606.97 104.84 606.984 104.844 607.006 104.854C607.036 104.867 607.13 104.916 607.281 105.066L611.523 100.824C610.315 99.6154 608.759 98.84 606.937 98.84V104.84ZM607.189 104.971L613.649 112.026L618.074 107.974L611.614 100.919L607.189 104.971ZM613.59 108.04C608.896 113.481 603.189 117.726 596.435 120.782L598.908 126.248C606.435 122.844 612.854 118.079 618.133 111.96L613.59 108.04ZM596.427 120.785C589.83 123.794 581.721 125.36 572.002 125.36V131.36C582.342 131.36 591.347 129.696 598.917 126.245L596.427 120.785ZM572.002 125.36C563.565 125.36 556.006 123.919 549.28 121.09L546.954 126.62C554.508 129.798 562.872 131.36 572.002 131.36V125.36ZM549.299 121.098C542.526 118.195 536.786 114.183 532.042 109.065L527.642 113.145C532.984 118.907 539.428 123.395 546.935 126.612L549.299 121.098ZM532.052 109.077C527.3 103.897 523.586 97.6737 520.932 90.3615L515.292 92.4086C518.191 100.396 522.297 107.32 527.631 113.133L532.052 109.077ZM520.932 90.3615C518.289 83.0787 516.947 75.0152 516.947 66.14H510.947C510.947 75.6248 512.382 84.3913 515.292 92.4086L520.932 90.3615ZM516.947 66.14C516.947 57.2848 518.367 49.2405 521.166 41.9733L515.567 39.8167C512.473 47.8495 510.947 56.6352 510.947 66.14H516.947ZM521.159 41.9913C524.026 34.6898 528.007 28.4642 533.09 23.2741L528.804 19.0759C523.12 24.8791 518.715 31.8001 515.574 39.7987L521.159 41.9913ZM533.09 23.2741C538.169 18.0884 544.247 14.065 551.36 11.209L549.124 5.64102C541.277 8.79164 534.491 13.2683 528.804 19.0759L533.09 23.2741ZM551.37 11.2046C558.51 8.30595 566.423 6.83499 575.147 6.83499V0.834991C565.738 0.834991 557.047 2.42403 549.113 5.64536L551.37 11.2046ZM575.147 6.83499C583.8 6.83499 591.084 8.17786 597.082 10.7562L599.452 5.24381C592.53 2.26879 584.4 0.834991 575.147 0.834991V6.83499ZM597.091 10.7599C603.288 13.4006 608.768 16.9754 613.548 21.4867L617.666 17.1233C612.359 12.1146 606.279 8.15273 599.443 5.24008L597.091 10.7599ZM613.158 17.5717L607.803 25.1367L612.701 28.6033L618.055 21.0383L613.158 17.5717ZM607.794 25.1496C607.557 25.4882 607.307 25.7467 607.05 25.9469L610.734 30.6831C611.496 30.0899 612.153 29.3852 612.71 28.5904L607.794 25.1496ZM607.228 25.8188C607.335 25.7471 607.377 25.7524 607.282 25.7743C607.186 25.7966 606.995 25.825 606.682 25.825V31.825C607.926 31.825 609.346 31.6181 610.556 30.8112L607.228 25.8188ZM606.682 25.825C606.646 25.825 606.385 25.8113 605.845 25.4875L602.758 30.6325C603.919 31.3287 605.245 31.825 606.682 31.825V25.825ZM606.046 25.6188C605.242 25.0448 604.27 24.359 603.132 23.5623L599.691 28.4777C600.82 29.2676 601.775 29.9418 602.558 30.5012L606.046 25.6188ZM603.132 23.5623C601.922 22.7153 600.524 21.8242 598.946 20.8891L595.887 26.0509C597.37 26.9292 598.635 27.738 599.692 28.4777L603.132 23.5623ZM598.946 20.8891C597.235 19.8748 595.258 18.9538 593.039 18.1141L590.915 23.7259C592.889 24.4729 594.539 25.2519 595.887 26.0509L598.946 20.8891ZM593.039 18.1141C590.737 17.2431 588.119 16.549 585.209 16.0144L584.125 21.9156C586.768 22.401 589.024 23.0102 590.915 23.7259L593.039 18.1141ZM585.267 16.0256C582.247 15.4093 578.837 15.115 575.062 15.115V21.115C578.54 21.115 581.534 21.3874 584.067 21.9044L585.267 16.0256ZM575.062 15.115C568.191 15.115 561.815 16.3114 555.973 18.7458L558.281 24.2842C563.318 22.1853 568.899 21.115 575.062 21.115V15.115ZM555.988 18.7398C550.22 21.1077 545.216 24.5212 541.007 28.9742L545.367 33.0957C548.978 29.2754 553.268 26.3423 558.266 24.2902L555.988 18.7398ZM541.007 28.9743C536.79 33.4357 533.529 38.8362 531.195 45.1204L536.819 47.2096C538.905 41.5938 541.764 36.9076 545.367 33.0957L541.007 28.9743ZM531.186 45.1441C528.896 51.4703 527.777 58.4813 527.777 66.14H533.777C533.777 59.0654 534.811 52.7597 536.828 47.1859L531.186 45.1441ZM527.777 66.14C527.777 74.0138 528.893 81.1405 531.186 87.4759L536.828 85.4341C534.814 79.8695 533.777 73.4529 533.777 66.14H527.777ZM531.195 87.4996C533.519 93.7574 536.679 99.1417 540.707 103.597L545.157 99.5731C541.705 95.755 538.915 91.0526 536.819 85.4104L531.195 87.4996ZM540.736 103.629C544.824 108.022 549.656 111.386 555.206 113.703L557.518 108.167C552.755 106.178 548.633 103.308 545.128 99.5413L540.736 103.629ZM555.206 113.703C560.752 116.019 566.701 117.165 573.022 117.165V111.165C567.443 111.165 562.285 110.157 557.518 108.167L555.206 113.703ZM573.022 117.165C576.754 117.165 580.152 116.961 583.205 116.542L582.389 110.598C579.662 110.972 576.543 111.165 573.022 111.165V117.165ZM583.262 116.534C586.326 116.053 589.187 115.326 591.833 114.342L589.741 108.718C587.514 109.547 585.048 110.18 582.332 110.606L583.262 116.534ZM591.812 114.349C594.506 113.37 597.006 112.138 599.304 110.647L596.039 105.613C594.144 106.842 592.055 107.877 589.762 108.711L591.812 114.349ZM599.321 110.636C601.612 109.129 603.882 107.364 606.132 105.351L602.131 100.879C600.076 102.719 598.039 104.298 596.023 105.624L599.321 110.636ZM606.117 105.365C606.759 104.798 607.016 104.84 606.937 104.84V98.84C605.045 98.84 603.432 99.7319 602.147 100.865L606.117 105.365ZM720.424 5.19499H723.424V2.19499H720.424V5.19499ZM720.424 19.05V22.05H723.424V19.05H720.424ZM681.069 19.05V16.05H678.069V19.05H681.069ZM681.069 127V130H684.069V127H681.069ZM664.579 127H661.579V130H664.579V127ZM664.579 19.05H667.579V16.05H664.579V19.05ZM625.054 19.05H622.054V22.05H625.054V19.05ZM625.054 5.19499V2.19499H622.054V5.19499H625.054ZM717.424 5.19499V19.05H723.424V5.19499H717.424ZM720.424 16.05H681.069V22.05H720.424V16.05ZM678.069 19.05V127H684.069V19.05H678.069ZM681.069 124H664.579V130H681.069V124ZM667.579 127V19.05H661.579V127H667.579ZM664.579 16.05H625.054V22.05H664.579V16.05ZM628.054 19.05V5.19499H622.054V19.05H628.054ZM625.054 8.19499H720.424V2.19499H625.054V8.19499ZM800.127 24.235L802.7 25.7785L802.752 25.6908L802.799 25.5998L800.127 24.235ZM798.512 26.19L800.233 28.6477L800.311 28.5926L800.386 28.5326L798.512 26.19ZM792.902 25.34L791.068 27.7138L791.093 27.7335L791.119 27.7525L792.902 25.34ZM788.057 22.195L786.481 24.7474L786.524 24.7743L786.569 24.7997L788.057 22.195ZM781.002 18.965L780.001 21.7929L780.01 21.7961L780.019 21.7993L781.002 18.965ZM761.282 19.05L762.248 21.8903L762.273 21.8817L762.298 21.8727L761.282 19.05ZM754.142 23.045L752.157 20.7955L752.141 20.8102L752.124 20.8252L754.142 23.045ZM749.892 29.08L752.653 30.2534L752.658 30.2412L752.664 30.229L749.892 29.08ZM750.912 44.975L748.483 46.7359L748.508 46.7704L748.534 46.8041L750.912 44.975ZM757.542 50.67L756.031 53.2613L756.042 53.2681L756.054 53.2747L757.542 50.67ZM766.892 54.835L765.916 57.6716L765.943 57.6811L765.971 57.6901L766.892 54.835ZM777.602 58.405L776.627 61.2421L776.634 61.2444L776.641 61.2466L777.602 58.405ZM788.312 62.655L787.061 65.3815L787.088 65.3938L787.114 65.4055L788.312 62.655ZM797.662 68.52L795.687 70.7777L795.698 70.7878L795.71 70.7978L797.662 68.52ZM804.292 77.275L801.583 78.5631L801.591 78.5811L801.6 78.599L804.292 77.275ZM804.122 105.07L806.917 106.161L806.921 106.149L804.122 105.07ZM796.132 117.225L794.028 115.087L794.02 115.095L794.011 115.104L796.132 117.225ZM783.297 125.385L782.21 122.589L782.199 122.593L783.297 125.385ZM744.452 124.11L743.227 126.848L743.242 126.855L743.256 126.861L744.452 124.11ZM727.877 112.465L725.315 110.905L724.126 112.858L725.693 114.522L727.877 112.465ZM732.637 104.645L730.211 102.88L730.139 102.98L730.075 103.085L732.637 104.645ZM734.252 103.115L735.863 105.646L735.89 105.629L735.916 105.611L734.252 103.115ZM740.542 104.39L738.597 106.674L738.622 106.695L738.647 106.716L740.542 104.39ZM746.237 108.555L744.559 111.042L744.573 111.051L744.587 111.061L746.237 108.555ZM754.567 112.805L753.445 115.587L753.474 115.599L753.503 115.61L754.567 112.805ZM777.007 113.06L778.003 115.89L777.007 113.06ZM784.742 108.555L786.772 110.764L786.775 110.762L784.742 108.555ZM789.672 101.5L786.903 100.346V100.346L789.672 101.5ZM788.822 83.395L786.354 85.0996L786.377 85.1334L786.401 85.1665L788.822 83.395ZM782.277 77.445L780.766 80.0363L782.277 77.445ZM772.927 73.45L771.993 76.3007L772.02 76.3098L772.048 76.3183L772.927 73.45ZM762.217 70.05L761.282 72.9005L761.308 72.9091L761.335 72.9173L762.217 70.05ZM751.507 65.97L750.293 68.7133L750.301 68.7169L750.309 68.7205L751.507 65.97ZM742.242 60.02L744.244 57.7855L742.242 60.02ZM735.612 50.925L732.873 52.1473L732.884 52.1729L732.896 52.1983L735.612 50.925ZM735.612 24.83L732.849 23.6623L732.842 23.6789L732.835 23.6956L735.612 24.83ZM742.922 14.12L740.82 11.9796V11.9797L742.922 14.12ZM754.652 6.64L753.544 3.85223L753.532 3.85691L754.652 6.64ZM789.417 7.065L788.342 9.86576L789.417 7.065ZM804.122 16.415L806.794 17.7798L807.801 15.8085L806.214 14.2648L804.122 16.415ZM797.555 22.6915C797.166 23.3401 796.845 23.6819 796.638 23.8474L800.386 28.5326C801.313 27.7914 802.069 26.8299 802.7 25.7785L797.555 22.6915ZM796.792 23.7323C796.865 23.681 796.783 23.785 796.302 23.785V29.785C797.635 29.785 799.026 29.4924 800.233 28.6477L796.792 23.7323ZM796.302 23.785C796.319 23.785 796.198 23.788 795.903 23.6628C795.608 23.5374 795.204 23.3106 794.685 22.9275L791.119 27.7525C792.62 28.8618 794.39 29.785 796.302 29.785V23.785ZM794.737 22.9661C793.343 21.8895 791.601 20.7648 789.546 19.5903L786.569 24.7997C788.48 25.8919 789.968 26.8638 791.068 27.7138L794.737 22.9661ZM789.634 19.6426C787.475 18.309 784.912 17.146 781.986 16.1307L780.019 21.7993C782.646 22.7107 784.787 23.701 786.481 24.7474L789.634 19.6426ZM782.004 16.1371C778.871 15.0274 775.195 14.52 771.057 14.52V20.52C774.739 20.52 777.694 20.9759 780.001 21.7929L782.004 16.1371ZM771.057 14.52C767.102 14.52 763.489 15.0671 760.266 16.2273L762.298 21.8727C764.742 20.9929 767.646 20.52 771.057 20.52V14.52ZM760.317 16.2097C757.169 17.2799 754.426 18.7936 752.157 20.7955L756.127 25.2945C757.712 23.8964 759.729 22.7468 762.248 21.8903L760.317 16.2097ZM752.124 20.8252C749.929 22.8208 748.254 25.1976 747.121 27.9309L752.664 30.229C753.457 28.3158 754.615 26.6692 756.16 25.2648L752.124 20.8252ZM747.131 27.9066C745.998 30.5737 745.447 33.4416 745.447 36.475H751.447C751.447 34.1817 751.86 32.1196 752.653 30.2534L747.131 27.9066ZM745.447 36.475C745.447 40.3691 746.395 43.8555 748.483 46.7359L753.341 43.2141C752.143 41.5612 751.447 39.3809 751.447 36.475H745.447ZM748.534 46.8041C750.5 49.3592 753.018 51.5042 756.031 53.2613L759.054 48.0787C756.626 46.6624 754.725 45.0108 753.29 43.1459L748.534 46.8041ZM756.054 53.2747C759.015 54.9666 762.306 56.429 765.916 57.6716L767.869 51.9984C764.565 50.861 761.623 49.5467 759.031 48.0653L756.054 53.2747ZM765.971 57.6901C769.466 58.8174 773.018 60.0013 776.627 61.2421L778.578 55.5679C774.934 54.3153 771.345 53.1193 767.813 51.9799L765.971 57.6901ZM776.641 61.2466C780.227 62.4607 783.701 63.8392 787.061 65.3815L789.564 59.9285C786.01 58.2975 782.344 56.8426 778.564 55.5633L776.641 61.2466ZM787.114 65.4055C790.362 66.8197 793.213 68.613 795.687 70.7777L799.638 66.2623C796.672 63.667 793.289 61.5503 789.51 59.9045L787.114 65.4055ZM795.71 70.7978C798.153 72.8918 800.111 75.4676 801.583 78.5631L807.002 75.9869C805.187 72.1691 802.725 68.9082 799.615 66.2422L795.71 70.7978ZM801.6 78.599C803.045 81.5366 803.842 85.3043 803.842 90.025H809.842C809.842 84.659 808.94 79.9267 806.984 75.951L801.6 78.599ZM803.842 90.025C803.842 95.0038 802.996 99.651 801.323 103.991L806.921 106.149C808.875 101.082 809.842 95.6995 809.842 90.025H803.842ZM801.328 103.979C799.666 108.237 797.236 111.93 794.028 115.087L798.236 119.363C802.055 115.606 804.952 111.196 806.917 106.161L801.328 103.979ZM794.011 115.104C790.882 118.233 786.969 120.738 782.21 122.589L784.385 128.181C789.826 126.065 794.469 123.13 798.254 119.346L794.011 115.104ZM782.199 122.593C777.566 124.415 772.197 125.36 766.042 125.36V131.36C772.807 131.36 778.942 130.321 784.395 128.177L782.199 122.593ZM766.042 125.36C758.532 125.36 751.749 124.011 745.648 121.359L743.256 126.861C750.189 129.876 757.799 131.36 766.042 131.36V125.36ZM745.677 121.372C739.558 118.634 734.364 114.977 730.061 110.408L725.693 114.522C730.57 119.7 736.427 123.806 743.227 126.848L745.677 121.372ZM730.44 114.025L735.2 106.205L730.075 103.085L725.315 110.905L730.44 114.025ZM735.063 106.41C735.305 106.077 735.571 105.832 735.863 105.646L732.642 100.584C731.687 101.191 730.876 101.966 730.211 102.88L735.063 106.41ZM735.916 105.611C736.119 105.476 736.28 105.435 736.462 105.435V99.435C735.058 99.435 733.745 99.8475 732.588 100.619L735.916 105.611ZM736.462 105.435C736.59 105.435 737.266 105.54 738.597 106.674L742.488 102.106C740.759 100.633 738.714 99.435 736.462 99.435V105.435ZM738.647 106.716C740.268 108.036 742.244 109.479 744.559 111.042L747.916 106.068C745.698 104.571 743.877 103.237 742.437 102.064L738.647 106.716ZM744.587 111.061C747.112 112.723 750.074 114.227 753.445 115.587L755.69 110.023C752.6 108.776 750.009 107.447 747.887 106.049L744.587 111.061ZM753.503 115.61C757.223 117.021 761.601 117.675 766.552 117.675V111.675C762.097 111.675 758.485 111.082 755.631 110L753.503 115.61ZM766.552 117.675C770.734 117.675 774.565 117.1 778.003 115.89L776.012 110.23C773.329 111.174 770.191 111.675 766.552 111.675V117.675ZM778.003 115.89C781.393 114.697 784.338 113.001 786.772 110.764L782.712 106.346C780.954 107.962 778.741 109.27 776.012 110.23L778.003 115.89ZM786.775 110.762C789.249 108.483 791.143 105.771 792.442 102.654L786.903 100.346C785.935 102.669 784.542 104.661 782.71 106.348L786.775 110.762ZM792.442 102.654C793.746 99.5222 794.372 96.0913 794.372 92.405H788.372C788.372 95.4053 787.865 98.0378 786.903 100.346L792.442 102.654ZM794.372 92.405C794.372 88.2634 793.413 84.5885 791.243 81.6235L786.401 85.1665C787.632 86.8482 788.372 89.1799 788.372 92.405H794.372ZM791.291 81.6904C789.376 78.917 786.855 76.6422 783.789 74.8537L780.766 80.0363C783.14 81.4212 784.982 83.113 786.354 85.0996L791.291 81.6904ZM783.789 74.8537C780.84 73.1332 777.505 71.7151 773.806 70.5817L772.048 76.3183C775.376 77.3383 778.275 78.5835 780.766 80.0363L783.789 74.8537ZM773.862 70.5993C770.387 69.4599 766.799 68.3211 763.1 67.1827L761.335 72.9173C765.002 74.0456 768.554 75.1734 771.993 76.3007L773.862 70.5993ZM763.153 67.1995C759.615 66.0388 756.133 64.7122 752.705 63.2195L750.309 68.7205C753.908 70.2878 757.566 71.6811 761.282 72.9005L763.153 67.1995ZM752.721 63.2267C749.542 61.8195 746.722 60.005 744.244 57.7855L740.241 62.2545C743.203 64.9083 746.559 67.0605 750.293 68.7133L752.721 63.2267ZM744.244 57.7855C741.852 55.643 739.874 52.9487 738.329 49.6517L732.896 52.1983C734.75 56.1546 737.192 59.5237 740.241 62.2545L744.244 57.7855ZM738.352 49.7027C736.927 46.5098 736.147 42.4209 736.147 37.325H730.147C730.147 42.9958 731.01 47.9735 732.873 52.1473L738.352 49.7027ZM736.147 37.325C736.147 33.4109 736.892 29.631 738.39 25.9644L732.835 23.6956C731.046 28.0757 730.147 32.6257 730.147 37.325H736.147ZM738.376 25.9977C739.919 22.3458 742.128 19.1048 745.024 16.2603L740.82 11.9797C737.37 15.3685 734.706 19.2675 732.849 23.6623L738.376 25.9977ZM745.024 16.2603C747.882 13.4533 751.446 11.1641 755.772 9.42308L753.532 3.85691C748.565 5.85585 744.309 8.55335 740.82 11.9796L745.024 16.2603ZM755.761 9.42774C760.049 7.72274 765.045 6.83499 770.802 6.83499V0.834991C764.433 0.834991 758.662 1.81724 753.544 3.85226L755.761 9.42774ZM770.802 6.83499C777.283 6.83499 783.117 7.86029 788.342 9.86576L790.492 4.26423C784.497 1.96303 777.922 0.834991 770.802 0.834991V6.83499ZM788.342 9.86576C793.583 11.8774 798.136 14.7765 802.03 18.5652L806.214 14.2648C801.722 9.89352 796.471 6.55923 790.492 4.26423L788.342 9.86576ZM801.451 15.0502L797.456 22.8702L802.799 25.5998L806.794 17.7798L801.451 15.0502Z"
     fill="#464646"
     id="path10"
     style="fill:#4d4d4d" />
</svg>
