<svg width="1574" height="128" viewBox="0 0 1574 128" fill="none" xmlns="http://www.w3.org/2000/svg">
<path d="M78.22 27.315C77.37 28.675 76.4633 29.695 75.5 30.375C74.5933 31.055 73.4033 31.395 71.93 31.395C70.6267 31.395 69.21 30.9983 67.68 30.205C66.2067 29.355 64.5067 28.42 62.58 27.4C60.71 26.38 58.5567 25.4733 56.12 24.68C53.6833 23.83 50.9067 23.405 47.79 23.405C42.4067 23.405 38.3833 24.5667 35.72 26.89C33.1133 29.1567 31.81 32.245 31.81 36.155C31.81 38.6483 32.6033 40.7167 34.19 42.36C35.7767 44.0033 37.845 45.42 40.395 46.61C43.0017 47.8 45.9483 48.905 49.235 49.925C52.5783 50.8883 55.9783 51.9933 59.435 53.24C62.8917 54.43 66.2633 55.8467 69.55 57.49C72.8933 59.1333 75.84 61.23 78.39 63.78C80.9967 66.33 83.0933 69.4467 84.68 73.13C86.2667 76.7567 87.06 81.1483 87.06 86.305C87.06 92.0283 86.0683 97.3833 84.085 102.37C82.1017 107.357 79.2117 111.72 75.415 115.46C71.675 119.143 67.0283 122.062 61.475 124.215C55.9783 126.312 49.7167 127.36 42.69 127.36C38.8367 127.36 34.8983 126.963 30.875 126.17C26.9083 125.377 23.055 124.272 19.315 122.855C15.575 121.382 12.0617 119.653 8.775 117.67C5.48833 115.687 2.62667 113.477 0.19 111.04L8.69 97.61C9.31333 96.59 10.1917 95.7683 11.325 95.145C12.4583 94.5217 13.6767 94.21 14.98 94.21C16.68 94.21 18.38 94.7483 20.08 95.825C21.8367 96.9017 23.7917 98.0917 25.945 99.395C28.155 100.698 30.6767 101.888 33.51 102.965C36.3433 104.042 39.6867 104.58 43.54 104.58C48.7533 104.58 52.805 103.447 55.695 101.18C58.585 98.8567 60.03 95.2017 60.03 90.215C60.03 87.325 59.2367 84.9733 57.65 83.16C56.0633 81.3467 53.9667 79.845 51.36 78.655C48.81 77.465 45.8917 76.4167 42.605 75.51C39.3183 74.6033 35.9467 73.6117 32.49 72.535C29.0333 71.4017 25.6617 70.0417 22.375 68.455C19.0883 66.8117 16.1417 64.6867 13.535 62.08C10.985 59.4167 8.91667 56.13 7.33 52.22C5.74333 48.2533 4.95 43.38 4.95 37.6C4.95 32.9533 5.885 28.42 7.755 24C9.625 19.58 12.3733 15.6417 16 12.185C19.6267 8.72832 24.075 5.97999 29.345 3.93999C34.615 1.84333 40.65 0.794996 47.45 0.794996C51.2467 0.794996 54.93 1.10666 58.5 1.73C62.1267 2.29667 65.555 3.175 68.785 4.36499C72.015 5.49833 75.0183 6.88666 77.795 8.52999C80.6283 10.1167 83.15 11.93 85.36 13.97L78.22 27.315ZM130.069 84.605V126H101.339V2.155H145.029C153.755 2.155 161.235 3.20333 167.469 5.29999C173.759 7.33999 178.915 10.1733 182.939 13.8C187.019 17.4267 190.022 21.705 191.949 26.635C193.875 31.565 194.839 36.8917 194.839 42.615C194.839 48.7917 193.847 54.4583 191.864 59.615C189.88 64.7717 186.849 69.1917 182.769 72.875C178.689 76.5583 173.504 79.4483 167.214 81.545C160.98 83.585 153.585 84.605 145.029 84.605H130.069ZM130.069 62.93H145.029C152.509 62.93 157.892 61.145 161.179 57.575C164.465 54.005 166.109 49.0183 166.109 42.615C166.109 39.7817 165.684 37.2033 164.834 34.88C163.984 32.5567 162.68 30.5733 160.924 28.93C159.224 27.23 157.042 25.9267 154.379 25.02C151.772 24.1133 148.655 23.66 145.029 23.66H130.069V62.93ZM331.977 64.035C331.977 72.9883 330.419 81.3183 327.302 89.025C324.242 96.7317 319.907 103.447 314.297 109.17C308.687 114.837 301.915 119.285 293.982 122.515C286.105 125.745 277.35 127.36 267.717 127.36C258.084 127.36 249.3 125.745 241.367 122.515C233.434 119.285 226.634 114.837 220.967 109.17C215.357 103.447 210.994 96.7317 207.877 89.025C204.817 81.3183 203.287 72.9883 203.287 64.035C203.287 55.0817 204.817 46.7517 207.877 39.045C210.994 31.3383 215.357 24.6517 220.967 18.985C226.634 13.3183 233.434 8.86999 241.367 5.64C249.3 2.41 258.084 0.794996 267.717 0.794996C277.35 0.794996 286.105 2.43833 293.982 5.72499C301.915 8.955 308.687 13.4033 314.297 19.07C319.907 24.7367 324.242 31.4233 327.302 39.13C330.419 46.8367 331.977 55.1383 331.977 64.035ZM302.567 64.035C302.567 57.915 301.774 52.4183 300.187 47.545C298.6 42.615 296.305 38.45 293.302 35.05C290.355 31.65 286.729 29.0433 282.422 27.23C278.115 25.4167 273.214 24.51 267.717 24.51C262.164 24.51 257.205 25.4167 252.842 27.23C248.535 29.0433 244.88 31.65 241.877 35.05C238.93 38.45 236.664 42.615 235.077 47.545C233.49 52.4183 232.697 57.915 232.697 64.035C232.697 70.2117 233.49 75.765 235.077 80.695C236.664 85.5683 238.93 89.705 241.877 93.105C244.88 96.505 248.535 99.1117 252.842 100.925C257.205 102.682 262.164 103.56 267.717 103.56C273.214 103.56 278.115 102.682 282.422 100.925C286.729 99.1117 290.355 96.505 293.302 93.105C296.305 89.705 298.6 85.5683 300.187 80.695C301.774 75.765 302.567 70.2117 302.567 64.035ZM430.497 2.155V24.935H395.647V126H366.917V24.935H332.067V2.155H430.497ZM473.785 126H444.885V2.155H473.785V126ZM576.518 2.155V24.255H525.688V55.62H568.018V77.805H525.688V126H496.788V2.155H576.518ZM653.127 78.91V126H624.397V78.91L579.517 2.155H604.847C607.34 2.155 609.323 2.75 610.797 3.93999C612.27 5.07333 613.46 6.54666 614.367 8.35999L631.877 44.4C633.293 47.29 634.597 49.9533 635.787 52.39C636.977 54.8267 638.025 57.235 638.932 59.615C639.782 57.1783 640.802 54.7417 641.992 52.305C643.182 49.8683 644.457 47.2333 645.817 44.4L663.157 8.35999C663.497 7.62333 663.95 6.88666 664.517 6.14999C665.14 5.41333 665.82 4.76166 666.557 4.19499C667.35 3.57166 668.228 3.08999 669.192 2.75C670.212 2.35333 671.317 2.155 672.507 2.155H698.007L653.127 78.91ZM768.067 84.605V126H739.337V2.155H783.027C791.753 2.155 799.233 3.20333 805.467 5.29999C811.757 7.33999 816.913 10.1733 820.937 13.8C825.017 17.4267 828.02 21.705 829.947 26.635C831.873 31.565 832.837 36.8917 832.837 42.615C832.837 48.7917 831.845 54.4583 829.862 59.615C827.878 64.7717 824.847 69.1917 820.767 72.875C816.687 76.5583 811.502 79.4483 805.212 81.545C798.978 83.585 791.583 84.605 783.027 84.605H768.067ZM768.067 62.93H783.027C790.507 62.93 795.89 61.145 799.177 57.575C802.463 54.005 804.107 49.0183 804.107 42.615C804.107 39.7817 803.682 37.2033 802.832 34.88C801.982 32.5567 800.678 30.5733 798.922 28.93C797.222 27.23 795.04 25.9267 792.377 25.02C789.77 24.1133 786.653 23.66 783.027 23.66H768.067V62.93ZM876.475 103.05H922.375V126H847.745V2.155H876.475V103.05ZM1051.16 126H1028.89C1026.4 126 1024.33 125.433 1022.68 124.3C1021.1 123.11 1019.99 121.608 1019.37 119.795L1012.06 98.205H964.969L957.659 119.795C957.093 121.382 955.988 122.827 954.344 124.13C952.701 125.377 950.689 126 948.309 126H925.869L973.809 2.155H1003.22L1051.16 126ZM971.599 78.655H1005.43L994.039 44.74C993.303 42.5867 992.424 40.065 991.404 37.175C990.441 34.2283 989.478 31.055 988.514 27.655C987.608 31.1117 986.673 34.3133 985.709 37.26C984.746 40.2067 983.839 42.7567 982.989 44.91L971.599 78.655ZM1106.02 78.91V126H1077.29V78.91L1032.41 2.155H1057.74C1060.23 2.155 1062.21 2.75 1063.69 3.93999C1065.16 5.07333 1066.35 6.54666 1067.26 8.35999L1084.77 44.4C1086.18 47.29 1087.49 49.9533 1088.68 52.39C1089.87 54.8267 1090.92 57.235 1091.82 59.615C1092.67 57.1783 1093.69 54.7417 1094.88 52.305C1096.07 49.8683 1097.35 47.2333 1098.71 44.4L1116.05 8.35999C1116.39 7.62333 1116.84 6.88666 1117.41 6.14999C1118.03 5.41333 1118.71 4.76166 1119.45 4.19499C1120.24 3.57166 1121.12 3.08999 1122.08 2.75C1123.1 2.35333 1124.21 2.155 1125.4 2.155H1150.9L1106.02 78.91ZM1188.09 103.05H1233.99V126H1159.36V2.155H1188.09V103.05ZM1278.96 126H1250.06V2.155H1278.96V126ZM1370.98 27.315C1370.13 28.675 1369.23 29.695 1368.26 30.375C1367.36 31.055 1366.17 31.395 1364.69 31.395C1363.39 31.395 1361.97 30.9983 1360.44 30.205C1358.97 29.355 1357.27 28.42 1355.34 27.4C1353.47 26.38 1351.32 25.4733 1348.88 24.68C1346.45 23.83 1343.67 23.405 1340.55 23.405C1335.17 23.405 1331.15 24.5667 1328.48 26.89C1325.88 29.1567 1324.57 32.245 1324.57 36.155C1324.57 38.6483 1325.37 40.7167 1326.95 42.36C1328.54 44.0033 1330.61 45.42 1333.16 46.61C1335.77 47.8 1338.71 48.905 1342 49.925C1345.34 50.8883 1348.74 51.9933 1352.2 53.24C1355.66 54.43 1359.03 55.8467 1362.31 57.49C1365.66 59.1333 1368.6 61.23 1371.15 63.78C1373.76 66.33 1375.86 69.4467 1377.44 73.13C1379.03 76.7567 1379.82 81.1483 1379.82 86.305C1379.82 92.0283 1378.83 97.3833 1376.85 102.37C1374.87 107.357 1371.98 111.72 1368.18 115.46C1364.44 119.143 1359.79 122.062 1354.24 124.215C1348.74 126.312 1342.48 127.36 1335.45 127.36C1331.6 127.36 1327.66 126.963 1323.64 126.17C1319.67 125.377 1315.82 124.272 1312.08 122.855C1308.34 121.382 1304.83 119.653 1301.54 117.67C1298.25 115.687 1295.39 113.477 1292.95 111.04L1301.45 97.61C1302.08 96.59 1302.96 95.7683 1304.09 95.145C1305.22 94.5217 1306.44 94.21 1307.74 94.21C1309.44 94.21 1311.14 94.7483 1312.84 95.825C1314.6 96.9017 1316.56 98.0917 1318.71 99.395C1320.92 100.698 1323.44 101.888 1326.27 102.965C1329.11 104.042 1332.45 104.58 1336.3 104.58C1341.52 104.58 1345.57 103.447 1348.46 101.18C1351.35 98.8567 1352.79 95.2017 1352.79 90.215C1352.79 87.325 1352 84.9733 1350.41 83.16C1348.83 81.3467 1346.73 79.845 1344.12 78.655C1341.57 77.465 1338.66 76.4167 1335.37 75.51C1332.08 74.6033 1328.71 73.6117 1325.25 72.535C1321.8 71.4017 1318.43 70.0417 1315.14 68.455C1311.85 66.8117 1308.91 64.6867 1306.3 62.08C1303.75 59.4167 1301.68 56.13 1300.09 52.22C1298.51 48.2533 1297.71 43.38 1297.71 37.6C1297.71 32.9533 1298.65 28.42 1300.52 24C1302.39 19.58 1305.14 15.6417 1308.76 12.185C1312.39 8.72832 1316.84 5.97999 1322.11 3.93999C1327.38 1.84333 1333.41 0.794996 1340.21 0.794996C1344.01 0.794996 1347.69 1.10666 1351.26 1.73C1354.89 2.29667 1358.32 3.175 1361.55 4.36499C1364.78 5.49833 1367.78 6.88666 1370.56 8.52999C1373.39 10.1167 1375.91 11.93 1378.12 13.97L1370.98 27.315ZM1484.03 2.155V24.935H1449.18V126H1420.45V24.935H1385.6V2.155H1484.03ZM1564.89 27.315C1564.04 28.675 1563.13 29.695 1562.17 30.375C1561.26 31.055 1560.07 31.395 1558.6 31.395C1557.3 31.395 1555.88 30.9983 1554.35 30.205C1552.88 29.355 1551.18 28.42 1549.25 27.4C1547.38 26.38 1545.23 25.4733 1542.79 24.68C1540.35 23.83 1537.58 23.405 1534.46 23.405C1529.08 23.405 1525.05 24.5667 1522.39 26.89C1519.78 29.1567 1518.48 32.245 1518.48 36.155C1518.48 38.6483 1519.27 40.7167 1520.86 42.36C1522.45 44.0033 1524.51 45.42 1527.06 46.61C1529.67 47.8 1532.62 48.905 1535.9 49.925C1539.25 50.8883 1542.65 51.9933 1546.1 53.24C1549.56 54.43 1552.93 55.8467 1556.22 57.49C1559.56 59.1333 1562.51 61.23 1565.06 63.78C1567.67 66.33 1569.76 69.4467 1571.35 73.13C1572.94 76.7567 1573.73 81.1483 1573.73 86.305C1573.73 92.0283 1572.74 97.3833 1570.75 102.37C1568.77 107.357 1565.88 111.72 1562.08 115.46C1558.34 119.143 1553.7 122.062 1548.14 124.215C1542.65 126.312 1536.39 127.36 1529.36 127.36C1525.51 127.36 1521.57 126.963 1517.54 126.17C1513.58 125.377 1509.72 124.272 1505.98 122.855C1502.24 121.382 1498.73 119.653 1495.44 117.67C1492.16 115.687 1489.3 113.477 1486.86 111.04L1495.36 97.61C1495.98 96.59 1496.86 95.7683 1497.99 95.145C1499.13 94.5217 1500.35 94.21 1501.65 94.21C1503.35 94.21 1505.05 94.7483 1506.75 95.825C1508.51 96.9017 1510.46 98.0917 1512.61 99.395C1514.82 100.698 1517.35 101.888 1520.18 102.965C1523.01 104.042 1526.36 104.58 1530.21 104.58C1535.42 104.58 1539.47 103.447 1542.36 101.18C1545.25 98.8567 1546.7 95.2017 1546.7 90.215C1546.7 87.325 1545.91 84.9733 1544.32 83.16C1542.73 81.3467 1540.64 79.845 1538.03 78.655C1535.48 77.465 1532.56 76.4167 1529.27 75.51C1525.99 74.6033 1522.62 73.6117 1519.16 72.535C1515.7 71.4017 1512.33 70.0417 1509.04 68.455C1505.76 66.8117 1502.81 64.6867 1500.2 62.08C1497.65 59.4167 1495.59 56.13 1494 52.22C1492.41 48.2533 1491.62 43.38 1491.62 37.6C1491.62 32.9533 1492.55 28.42 1494.42 24C1496.29 19.58 1499.04 15.6417 1502.67 12.185C1506.3 8.72832 1510.74 5.97999 1516.01 3.93999C1521.28 1.84333 1527.32 0.794996 1534.12 0.794996C1537.92 0.794996 1541.6 1.10666 1545.17 1.73C1548.8 2.29667 1552.22 3.175 1555.45 4.36499C1558.68 5.49833 1561.69 6.88666 1564.46 8.52999C1567.3 10.1167 1569.82 11.93 1572.03 13.97L1564.89 27.315Z" fill="#E1E0E0"/>
</svg>
