<?xml version="1.0" encoding="UTF-8" standalone="no"?>
<svg
   xmlns:dc="http://purl.org/dc/elements/1.1/"
   xmlns:cc="http://creativecommons.org/ns#"
   xmlns:rdf="http://www.w3.org/1999/02/22-rdf-syntax-ns#"
   xmlns:svg="http://www.w3.org/2000/svg"
   xmlns="http://www.w3.org/2000/svg"
   xmlns:sodipodi="http://sodipodi.sourceforge.net/DTD/sodipodi-0.dtd"
   xmlns:inkscape="http://www.inkscape.org/namespaces/inkscape"
   width="1526"
   height="132"
   viewBox="0 0 1526 132"
   fill="none"
   version="1.1"
   id="svg12"
   sodipodi:docname="line-dark.svg"
   inkscape:version="1.0.1 (c497b03c, 2020-09-10)">
  <metadata
     id="metadata18">
    <rdf:RDF>
      <cc:Work
         rdf:about="">
        <dc:format>image/svg+xml</dc:format>
        <dc:type
           rdf:resource="http://purl.org/dc/dcmitype/StillImage" />
        <dc:title></dc:title>
      </cc:Work>
    </rdf:RDF>
  </metadata>
  <defs
     id="defs16" />
  <sodipodi:namedview
     pagecolor="#ffffff"
     bordercolor="#666666"
     borderopacity="1"
     objecttolerance="10"
     gridtolerance="10"
     guidetolerance="10"
     inkscape:pageopacity="0"
     inkscape:pageshadow="2"
     inkscape:window-width="752"
     inkscape:window-height="480"
     id="namedview14"
     showgrid="false"
     inkscape:zoom="0.69003932"
     inkscape:cx="763"
     inkscape:cy="66"
     inkscape:window-x="2849"
     inkscape:window-y="59"
     inkscape:window-maximized="0"
     inkscape:current-layer="svg12" />
  <path
     d="m 76.179999,24.235 2.572499,1.5435 0.0526,-0.0877 0.0465,-0.091 z m -1.615,1.955 1.7204,2.4577 0.0787,-0.0551 0.075,-0.06 z m -5.61,-0.85 -1.834301,2.3738 0.0253,0.0197 0.0258,0.019 z m -4.845,-3.145 -1.5765,2.5524 0.0436,0.0269 0.0445,0.0254 z m -7.055,-3.23 -1.0015,2.8279 0.0091,0.0032 0.0091,0.0032 z m -19.72,0.085 0.9657,2.8403 0.0253,-0.0086 0.0252,-0.009 z m -7.14,3.995 -1.9849,-2.2495 -0.0166,0.0147 -0.0165,0.015 z M 25.945,29.08 l 2.760999,1.1734 0.0052,-0.0122 0.005,-0.0122 z m 1.019999,15.895 -2.428799,1.7609 0.025,0.0345 0.0259,0.0337 z m 6.63,5.695 -1.511599,2.5913 0.0116,0.0068 0.0116,0.0066 z m 9.35,4.165 -0.976501,2.8366 0.0276,0.0095 0.0279,0.009 z m 10.709999,3.57 -0.975199,2.8371 0.0067,0.0023 0.0067,0.0022 z m 10.710001,4.25 -1.2515,2.7265 0.0267,0.0123 0.027,0.0117 z m 9.35,5.865 -1.9755,2.2577 0.0115,0.0101 0.0116,0.01 z m 6.629999,8.755 -2.709399,1.2881 0.0086,0.018 0.0088,0.0179 z m -0.169999,27.795 2.7948,1.091 0.0044,-0.012 z m -7.99,12.155 -2.104,-2.138 -0.0087,0.008 -0.0086,0.009 z m -12.835,8.16 -1.087301,-2.796 -0.0106,0.004 z M 20.505,124.11 l -1.225101,2.738 0.0144,0.007 0.0145,0.006 z M 3.9299999,112.465 1.3674,110.905 l -1.188572,1.953 1.567322,1.664 z m 4.7599999,-7.82 -2.42621,-1.765 -0.07239,0.1 -0.06399,0.105 z m 1.6150002,-1.53 1.6106,2.531 0.0269,-0.017 0.0266,-0.018 z m 6.29,1.275 -1.9454,2.284 0.025,0.021 0.0254,0.021 z m 5.694999,4.165 -1.6784,2.487 0.0142,0.009 0.0142,0.01 z m 8.330001,4.25 -1.122601,2.782 0.0292,0.012 0.0294,0.011 z m 22.439999,0.255 0.9957,2.83 z m 7.734999,-4.505 2.029901,2.209 0.0025,-0.002 z m 4.930001,-7.055 -2.769201,-1.154 v 0 z m -0.850001,-18.105 -2.4687,1.7046 0.0234,0.0338 0.0242,0.0331 z m -6.545,-5.95 -1.511599,2.5913 v 0 z m -9.35,-3.995 -0.934699,2.8507 0.0278,0.0091 0.0279,0.0085 z m -10.709999,-3.4 -0.935299,2.8505 0.0264,0.0086 0.0266,0.0082 z M 27.56,65.97 l -1.2142,2.7433 0.0082,0.0036 0.0082,0.0036 z m -9.265001,-5.95 2.0017,-2.2345 z M 11.665,50.925 l -2.7396901,1.2223 0.01142,0.0256 0.01189,0.0254 z m 0,-26.095 -2.7634401,-1.1677 -0.00701,0.0166 -0.00681,0.0167 z m 7.31,-10.71 -2.102101,-2.1404 v 10e-5 z M 30.705,6.64 29.596599,3.85223 29.585,3.85691 Z m 34.764998,0.425 -1.074999,2.80076 v 0 z m 14.705001,9.35 2.671599,1.3648 1.007,-1.9713 -1.586499,-1.5437 z m -6.567501,6.2765 c -0.3891,0.6486 -0.709699,0.9904 -0.9166,1.1559 l 3.7482,4.6852 c 0.9265,-0.7412 1.682501,-1.7027 2.3134,-2.7541 z m -0.7629,1.0408 c 0.0733,-0.0513 -0.0089,0.0527 -0.489599,0.0527 v 6 c 1.332599,0 2.723699,-0.2926 3.9304,-1.1373 z m -0.489599,0.0527 c 0.0169,0 -0.104401,0.003 -0.399101,-0.1222 -0.294899,-0.1254 -0.6993,-0.3522 -1.2177,-0.7353 l -3.5664,4.825 c 1.500801,1.1093 3.2708,2.0325 5.183201,2.0325 z m -1.565701,-0.8189 c -1.3932,-1.0766 -3.135499,-2.2013 -5.190899,-3.3758 l -2.976801,5.2094 c 1.911301,1.0922 3.399,2.0641 4.4991,2.9141 z m -5.1028,-3.3235 c -2.1592,-1.3336 -4.721899,-2.4966 -7.648199,-3.5119 l -1.9666,5.6686 c 2.627,0.9114 4.767699,1.9017 6.4618,2.9481 z M 58.056499,16.1371 C 54.923299,15.0274 51.248198,14.52 47.109999,14.52 v 6 c 3.6818,0 6.6367,0.4559 8.9435,1.2729 z M 47.109999,14.52 c -3.955099,0 -7.5683,0.5471 -10.7912,1.7073 L 38.3512,21.8727 C 40.794999,20.9929 43.698399,20.52 47.109999,20.52 Z m -10.7407,1.6897 c -3.1477,1.0702 -5.8903,2.5839 -8.1592,4.5858 l 3.9698,4.499 c 1.5845,-1.3981 3.6018,-2.5477 6.1208,-3.4042 z M 28.177,20.8252 c -2.195201,1.9956 -3.8699,4.3724 -5.0032,7.1057 l 5.5424,2.2981 c 0.793299,-1.9132 1.951999,-3.5598 3.4968,-4.9642 z m -4.993001,7.0814 C 22.050499,30.5737 21.5,33.4416 21.5,36.475 h 6 c 0,-2.2933 0.412799,-4.3554 1.205999,-6.2216 z M 21.5,36.475 c 0,3.8941 0.947799,7.3805 3.0362,10.2609 l 4.857599,-3.5218 C 28.195499,41.5612 27.5,39.3809 27.5,36.475 Z m 3.087099,10.3291 c 1.9654,2.5551 4.484101,4.7001 7.496301,6.4572 l 3.023199,-5.1826 c -2.4278,-1.4163 -4.3291,-3.0679 -5.763699,-4.9328 z m 7.5195,6.4706 c 2.960801,1.6919 6.252399,3.1543 9.861899,4.3969 L 43.9215,51.9984 C 40.617699,50.861 37.675899,49.5467 35.0834,48.0653 Z m 9.9174,4.4154 c 3.4945,1.1273 7.0464,2.3112 10.6558,3.552 l 1.9504,-5.6742 c -3.6439,-1.2526 -7.232001,-2.4486 -10.7642,-3.588 z m 10.6692,3.5565 c 3.587,1.2141 7.0602,2.5926 10.4203,4.1349 l 2.503,-5.453 c -3.553301,-1.631 -7.2201,-3.0859 -10.9997,-4.3652 z m 10.473999,4.1589 c 3.2474,1.4142 6.0983,3.2075 8.572301,5.3722 l 3.951,-4.5154 c -2.966001,-2.5953 -6.3484,-4.712 -10.127701,-6.3578 z m 8.595401,5.3923 c 2.443,2.094 4.4014,4.6698 5.873,7.7653 l 5.418799,-2.5762 c -1.815,-3.8178 -4.2767,-7.0787 -7.386999,-9.7447 z m 5.8904,7.8012 c 1.444699,2.9376 2.241999,6.7053 2.241999,11.426 h 6 c 0,-5.366 -0.9027,-10.0983 -2.858,-14.074 z m 2.241999,11.426 c 0,4.9788 -0.845999,9.626 -2.519199,13.966 l 5.598399,2.158 c 1.9535,-5.067 2.9208,-10.4495 2.9208,-16.124 z m -2.5147,13.954 c -1.6615,4.258 -4.0912,7.951 -7.299299,11.108 l 4.208,4.276 c 3.8186,-3.757 6.715499,-8.167 8.680699,-13.202 z m -7.3166,11.125 c -3.129299,3.129 -7.0424,5.634 -11.801,7.485 l 2.174601,5.592 c 5.4414,-2.116 10.0849,-5.051 13.868999,-8.835 z m -11.811599,7.489 c -4.633501,1.822 -10.002301,2.767 -16.1571,2.767 v 6 c 6.765199,0 12.899699,-1.039 18.3529,-3.183 z m -16.1571,2.767 c -7.5099,0 -14.293599,-1.349 -20.3938,-4.001 l -2.3924,5.502 c 6.9332,3.015 14.542801,4.499 22.7862,4.499 z M 21.7301,121.372 C 15.6106,118.634 10.4171,114.977 6.1138499,110.408 L 1.74615,114.522 c 4.8767798,5.178 10.73325,9.284 17.533749,12.326 z M 6.4925998,114.025 11.2526,106.205 6.1274099,103.085 1.3674,110.905 Z M 11.1162,106.41 c 0.2417,-0.333 0.5073,-0.578 0.7994,-0.764 l -3.2212301,-5.062 c -0.9545,0.607 -1.7655801,1.382 -2.4305801,2.296 z m 0.8529,-0.799 c 0.203,-0.135 0.3635,-0.176 0.5459,-0.176 v -6 c -1.4043,0 -2.7170503,0.4125 -3.8741002,1.184 z m 0.5459,-0.176 c 0.1279,0 0.8036,0.105 2.1346,1.239 l 3.890799,-4.568 C 16.8114,100.633 14.7671,99.435 12.515,99.435 Z m 2.185,1.281 c 1.620499,1.32 3.596399,2.763 5.911599,4.326 l 3.356801,-4.974 c -2.218201,-1.497 -4.038901,-2.831 -5.478401,-4.004 z m 5.939999,4.345 c 2.524901,1.662 5.4868,3.166 8.8574,4.526 l 2.245201,-5.564 c -3.0894,-1.247 -5.680901,-2.576 -7.8026,-3.974 z m 8.916,4.549 c 3.7201,1.411 8.0976,2.065 13.048999,2.065 v -6 c -4.455299,0 -8.067699,-0.593 -10.920999,-1.675 z m 13.048999,2.065 c 4.181601,0 8.012801,-0.575 11.450701,-1.785 l -1.991401,-5.66 c -2.6821,0.944 -5.820899,1.445 -9.4593,1.445 z m 11.450701,-1.785 c 3.3901,-1.193 6.3345,-2.889 8.7692,-5.126 l -4.0598,-4.418 c -1.758701,1.616 -3.9709,2.924 -6.700801,3.884 z m 8.7717,-5.128 c 2.474299,-2.279 4.367999,-4.991 5.6668,-8.108 l -5.538401,-2.308 c -0.967799,2.323 -2.360799,4.315 -4.193199,6.002 z m 5.6668,-8.108 c 1.3049,-3.1318 1.9308,-6.5627 1.9308,-10.249 h -6 c 0,3.0003 -0.507401,5.6328 -1.469201,7.941 z m 1.9308,-10.249 c 0,-4.1416 -0.9594,-7.8165 -3.1289,-10.7815 l -4.8422,3.543 c 1.230499,1.6817 1.9711,4.0134 1.9711,7.2385 z m -3.0813,-10.7146 c -1.915,-2.7734 -4.4361,-5.0482 -7.5021,-6.8367 l -3.0232,5.1826 c 2.373999,1.3849 4.2163,3.0767 5.587899,5.0633 z m -7.5021,-6.8367 c -2.949301,-1.7205 -6.2841,-3.1386 -9.9826,-4.272 l -1.758,5.7366 c 3.3282,1.02 6.226699,2.2652 8.7174,3.718 z m -9.927,-4.2544 c -3.475,-1.1394 -7.062499,-2.2782 -10.7623,-3.4166 l -1.7646,5.7346 c 3.666901,1.1283 7.219399,2.2561 10.6576,3.3834 z M 39.2053,67.1995 c -3.537301,-1.1607 -7.019701,-2.4873 -10.447501,-3.98 l -2.3956,5.501 c 3.598901,1.5673 7.256501,2.9606 10.972501,4.18 z M 28.7742,63.2267 C 25.594899,61.8195 22.7744,60.005 20.296699,57.7855 l -4.003399,4.469 c 2.9623,2.6538 6.318499,4.806 10.0525,6.4588 z M 20.296699,57.7855 C 17.9051,55.643 15.9269,52.9487 14.3814,49.6517 L 8.9486198,52.1983 C 10.8031,56.1546 13.2449,59.5237 16.2933,62.2545 Z M 14.4047,49.7027 C 12.9802,46.5098 12.2,42.4209 12.2,37.325 H 6.1999998 c 0,5.6708 0.86315,10.6485 2.7253101,14.8223 z M 12.2,37.325 c 0,-3.9141 0.7446,-7.694 2.2423,-11.3606 L 8.8877398,23.6956 c -1.78904,4.3801 -2.68774,8.9301 -2.68774,13.6294 z m 2.2284,-11.3273 c 1.5431,-3.6519 3.7525,-6.8929 6.6487,-9.7374 L 16.872899,11.9797 C 13.4224,15.3685 10.7585,19.2675 8.9015599,23.6623 Z m 6.6487,-9.7374 c 2.858099,-2.807 6.4217,-5.0962 10.7479,-6.83722 L 29.585,3.85691 C 24.6179,5.85585 20.361499,8.55335 16.872899,11.9796 Z M 31.813399,9.42774 c 4.288301,-1.705 9.2844,-2.59275 15.0416,-2.59275 V 0.834991 c -6.3695,0 -12.14,0.982249 -17.2584,3.017269 z m 15.0416,-2.59275 c 6.480499,0 12.3152,1.0253 17.54,3.03077 L 66.545098,4.26423 C 60.549799,1.96303 53.974498,0.834991 46.854999,0.834991 Z m 17.54,3.03077 c 5.240899,2.01164 9.793999,4.91074 13.6879,8.69944 l 4.1842,-4.3004 C 77.774298,9.89352 72.524098,6.55923 66.544999,4.26423 Z m 13.1084,5.18444 -3.995,7.82 5.3432,2.7296 3.994999,-7.82 z M 122.041,81.44 v -3 h -3 v 3 z m 0,45.56 v 3 h 3 v -3 z m -16.405,0 h -3 v 3 h 3 z m 0,-121.80501 v -3 h -3 v 3 z m 56.015,2.72001 -0.914,2.8573 0.017,0.0054 0.017,0.0052 z m 14.19499,7.565 -1.97999,2.2535 v 0 z m 8.33,11.9 -2.794,1.0906 0.005,0.0148 0.006,0.0146 z m -8.92499,43.265 -1.98401,-2.2495 -0.009,0.0073 -0.008,0.0073 z m -14.195,7.99 0.941,2.8489 0.012,-0.0042 0.013,-0.0044 z M 122.041,68.35 h -3 v 3 h 3 z m 31.96,-1.87 -0.97501,-2.8371 -0.007,0.0024 -0.007,0.0024 z m 9.095,-5.185 2.016,2.2222 0.014,-0.0128 0.014,-0.0128 z m 5.525,-8.075 2.78599,1.1142 z m -5.355,-28.475 -2.027,2.2115 0.007,0.0059 0.006,0.006 z M 122.041,18.2 v -3 h -3 v 3 z m -3,63.24 V 127 h 6 V 81.44 Z m 3,42.56 h -16.405 v 6 h 16.405 z m -13.405,3 V 5.19499 h -6 V 127 Z m -3,-118.80501 h 35.955 v -6 h -35.955 z m 35.955,0 c 7.483,0 13.84699,0.8817 19.146,2.57731 l 1.82899,-5.71457 C 156.53099,3.12663 149.522,2.19499 141.591,2.19499 Z m 19.18,2.58791 c 5.39799,1.6569 9.732,3.9952 13.095,6.9506 l 3.96099,-4.507 C 173.71,9.60859 168.58,6.90355 162.53199,5.04705 Z m 13.095,6.9506 c 3.37899,2.9692 5.877,6.5368 7.51599,10.7371 l 5.589,-2.1812 c -1.98699,-5.093 -5.04299,-9.4587 -9.144,-13.0629 z M 181.39299,28.5 c 1.70801,4.2435 2.58801,9.0412 2.58801,14.435 h 6 c 0,-6.0528 -0.989,-11.6252 -3.021,-16.675 z m 2.58801,14.435 c 0,5.3105 -0.92701,10.0936 -2.73901,14.3893 l 5.529,2.3314 C 188.926,54.5447 189.981,48.9579 189.981,42.935 Z m -2.73901,14.3893 c -1.807,4.2852 -4.45799,7.9672 -7.975,11.0712 l 3.969,4.499 c 4.18901,-3.6961 7.37501,-8.1174 9.535,-13.2388 z M 173.25,68.4101 c -3.448,3.0878 -7.809,5.5656 -13.159,7.3846 l 1.931,5.6806 c 5.98399,-2.0343 11.08499,-4.8832 15.231,-8.5955 z m -13.134,7.376 c -5.304,1.7503 -11.465,2.6539 -18.525,2.6539 v 6 c 7.561,0 14.37599,-0.9664 20.406,-2.9561 z M 141.591,78.44 h -19.55 v 6 h 19.55 z m -19.55,-7.09 h 19.55 v -6 h -19.55 z m 19.55,0 c 4.962,0 9.445,-0.6567 13.4,-2.0377 l -1.979,-5.6646 c -3.185,1.1124 -6.975,1.7023 -11.421,1.7023 z m 13.386,-2.0329 c 3.948,-1.3573 7.35099,-3.275 10.135,-5.7999 l -4.031,-4.4444 c -2.089,1.8951 -4.75001,3.4341 -8.05501,4.5701 z m 10.163,-5.8255 c 2.764,-2.571 4.857,-5.6333 6.26699,-9.1574 L 165.836,52.1058 c -1.084,2.7092 -2.673,5.0303 -4.783,6.9926 z m 6.26699,-9.1574 c 1.404,-3.5093 2.084,-7.3211 2.084,-11.3992 H 167.491 c 0,3.4018 -0.565,6.4468 -1.655,9.1708 z m 2.084,-11.3992 c 0,-8.4309 -2.64399,-15.3711 -8.20999,-20.4134 l -4.029,4.4468 c 4.068,3.6843 6.239,8.8709 6.239,15.9666 z m -8.197,-20.4015 C 159.759,17.4604 151.666,15.2 141.591,15.2 v 6 c 9.306,0 15.663,2.103 19.648,5.7565 z M 141.591,15.2 h -19.55 v 6 h 19.55 z m -22.55,3 v 50.15 h 6 V 18.2 Z m 197.62099,73.1 2.804,1.0671 0.003,-0.0069 z m -31.28,32.47 1.133,2.778 0.011,-0.004 z m -48.95999,0 -1.15101,2.77 0.01,0.004 0.009,0.004 z m -18.955,-12.835 -2.165,2.076 z m -12.24,-19.635 -2.806,1.0602 0.002,0.0069 z m 0,-50.235 2.80399,1.0671 0.003,-0.0069 z m 12.24,-19.72 2.166,2.0762 0.005,-0.0056 0.005,-0.0055 z m 18.955,-12.92001 1.15099,2.77051 z m 48.95999,0 -1.15099,2.77051 0.008,0.0031 z m 19.04,12.92001 -2.176,2.0651 0.005,0.0055 0.006,0.0056 z m 12.24,19.72 -2.806,1.0602 0.002,0.0069 z m -24.31,-10.115 -2.225,2.0119 0.007,0.0077 0.007,0.0076 z m -13.59999,-9.52 1.15,-2.771 z m -35.61501,0 -1.14899,-2.771 z m -13.685,9.52 -2.20999,-2.0285 -10e-4,0.0013 z m -8.67,15.045 -2.838,-0.973 z m 0,40.29 -2.838,0.973 0.003,0.0083 z m 8.67,15.045 -2.225,2.012 0.014,0.016 0.015,0.016 z m 13.685,9.435 -1.14899,2.771 0.012,0.005 0.013,0.005 z m 35.61501,0 1.125,2.781 0.012,-0.005 0.013,-0.005 z m 13.59999,-9.435 2.212,2.027 0.007,-0.007 0.007,-0.008 z m 8.67001,-15.045 2.83499,0.9813 0.003,-0.0083 z M 317.99699,66.14 c 0,8.8028 -1.39299,16.8255 -4.141,24.0998 l 5.61301,2.1204 c 3.03199,-8.0257 4.528,-16.7764 4.528,-26.2202 z M 313.858,90.2329 c -2.756,7.2431 -6.62801,13.4381 -11.60101,18.6261 l 4.33101,4.152 c 5.56599,-5.806 9.85499,-12.7 12.87799,-20.6439 z m -11.60101,18.6261 c -4.96599,5.179 -10.959,9.228 -18.018,12.137 l 2.28701,5.548 c 7.787,-3.21 14.48799,-7.719 20.062,-13.533 z m -18.007,12.133 c -6.965,2.839 -14.734,4.283 -23.348,4.283 v 6 c 9.29301,0 17.844,-1.56 25.613,-4.727 z m -23.348,4.283 c -8.613,0 -16.382,-1.444 -23.347,-4.283 l -2.265,5.556 c 7.76801,3.167 16.319,4.727 25.612,4.727 z M 237.57299,121 c -7.00299,-2.909 -12.97,-6.958 -17.93999,-12.141 l -4.331,4.152 c 5.56999,5.81 12.23899,10.318 19.96899,13.529 z M 219.633,108.859 c -4.974,-5.188 -8.845,-11.383 -11.60201,-18.6261 l -5.60799,2.1342 c 3.024,7.9439 7.31199,14.8379 12.879,20.6439 z M 208.03399,90.2398 c -2.74799,-7.2743 -4.142,-15.297 -4.142,-24.0998 H 197.892 c 0,9.4438 1.49699,18.1945 4.529,26.2202 z m -4.142,-24.0998 c 0,-8.8032 1.39401,-16.7947 4.139,-24.0079 L 202.423,39.9979 c -3.03401,7.9734 -4.531,16.6986 -4.531,26.1421 z m 4.142,-24.0148 c 2.757,-7.2999 6.62901,-13.5204 11.59901,-18.704 l -4.331,-4.1524 c -5.57,5.8097 -9.85901,12.7359 -12.881,20.736 z M 219.643,23.4101 c 4.97,-5.2364 10.934,-9.3086 17.92999,-12.2146 l -2.302,-5.541 c -7.737,3.21398 -14.409,7.7551 -19.97999,13.6254 z m 17.92999,-12.2146 c 6.96001,-2.89103 14.723,-4.36051 23.329,-4.36051 V 0.834991 c -9.3,0 -17.857,1.590519 -25.631,4.819509 z m 23.329,-4.36051 c 8.607,0 16.37001,1.46948 23.32901,4.36051 l 2.302,-5.541 C 278.75999,2.42551 270.202,0.834991 260.90199,0.834991 Z m 23.337,4.36361 c 7.052,2.9071 13.042,6.9792 18.007,12.2115 l 4.352,-4.1302 C 301.024,13.4055 294.32,8.86426 286.526,5.6514 Z m 18.018,12.2226 c 4.97001,5.1836 8.84101,11.4041 11.599,18.704 l 5.61301,-2.1204 c -3.023,-8.0001 -7.311,-14.9263 -12.881,-20.736 z M 313.858,42.1321 c 2.746,7.2132 4.13899,15.2047 4.13899,24.0079 h 6.00001 c 0,-9.4435 -1.49601,-18.1687 -4.53101,-26.1421 z M 307.08199,66.14 c 0,-7.7501 -1.056,-14.802 -3.22199,-21.118 l -5.676,1.946 c 1.915,5.584 2.89799,11.9621 2.89799,19.172 z M 303.86,45.022 c -2.15601,-6.2876 -5.241,-11.6758 -9.29601,-16.0992 l -4.423,4.0544 c 3.425,3.7366 6.11901,8.3784 8.04301,13.9908 z M 294.57799,28.9381 C 290.529,24.4605 285.62499,21.0333 279.902,18.659 l -2.29901,5.542 c 4.93,2.0457 9.09201,4.9652 12.524,8.7609 z M 279.902,18.659 c -5.73901,-2.3809 -12.087,-3.544 -19.00001,-3.544 v 6 c 6.234,0 11.786,1.0468 16.701,3.086 z m -19.00001,-3.544 c -6.86,0 -13.17899,1.1644 -18.91399,3.544 l 2.29899,5.542 c 4.91801,-2.0404 10.442,-3.086 16.615,-3.086 z M 241.988,18.659 c -5.719,2.3727 -10.646,5.7952 -14.746,10.2625 l 4.41999,4.057 c 3.49401,-3.8061 7.69001,-6.7302 12.625,-8.7775 z m -14.74701,10.2638 c -4.05499,4.4234 -7.141,9.8116 -9.297,16.0992 l 5.676,1.946 c 1.924,-5.6124 4.61901,-10.2542 8.044,-13.9908 z m -9.297,16.0992 c -2.16499,6.316 -3.222,13.3679 -3.222,21.118 h 6.00001 c 0,-7.2099 0.984,-13.588 2.89799,-19.172 z m -3.222,21.118 c 0,7.7501 1.05701,14.802 3.222,21.118 l 5.676,-1.946 C 221.706,79.728 220.722,73.3499 220.722,66.14 Z m 3.225,21.1263 c 2.157,6.2293 5.23901,11.6064 9.28,16.0757 l 4.451,-4.0239 c -3.44,-3.8042 -6.13699,-8.457 -8.06099,-14.0144 z m 9.30901,16.1077 c 4.1,4.405 9.022,7.793 14.732,10.162 l 2.29899,-5.542 c -4.94399,-2.051 -9.14499,-4.953 -12.639,-8.7077 z m 14.757,10.172 c 5.729,2.316 12.039,3.449 18.88899,3.449 v -6 c -6.182,0 -11.716,-1.021 -16.64,-3.011 z m 18.88899,3.449 c 6.90401,0 13.243,-1.132 18.97501,-3.449 l -2.24901,-5.562 c -4.922,1.989 -10.483,3.011 -16.726,3.011 z m 19.00001,-3.459 c 5.71299,-2.37 10.614,-5.763 14.66199,-10.179 l -4.423,-4.0542 c -3.43199,3.7442 -7.59799,6.6412 -12.538,8.6912 z m 14.67599,-10.194 c 4.04,-4.4693 7.123,-9.8464 9.279,-16.0757 l -5.67,-1.9626 c -1.923,5.5574 -4.621,10.2102 -8.06,14.0144 z M 303.86,87.258 c 2.16599,-6.316 3.22199,-13.3679 3.22199,-21.118 h -6 c 0,7.2099 -0.98299,13.588 -2.89799,19.172 z M 418.15599,5.19499 h 2.99999 v -3 h -2.99999 z m 0,13.85501 v 3 h 2.99999 v -3 z m -39.35499,0 v -3 h -3.00001 v 3 z m 0,107.95 v 3 h 3 v -3 z m -16.49001,0 H 359.311 v 3 h 2.99999 z m 0,-107.95 h 3 v -3 h -3 z m -39.52499,0 h -3.00001 v 3 h 3.00001 z m 0,-13.85501 v -3 h -3.00001 v 3 z m 92.36999,0 V 19.05 h 5.99999 V 5.19499 Z m 3,10.85501 H 378.801 v 6 h 39.35499 z m -42.355,3 V 127 H 381.801 V 19.05 Z M 378.801,124 h -16.49001 v 6 H 378.801 Z m -13.49001,3 V 19.05 H 359.311 V 127 Z m -3,-110.95 H 322.786 v 6 h 39.52499 z m -36.52499,3 V 5.19499 h -6.00001 V 19.05 Z m -3,-10.85501 h 95.36999 v -6 H 322.786 Z M 455.01998,127 v 3 H 458.02 v -3 z m -16.48999,0 h -3 v 3 h 3 z m 0,-121.80501 v -3 h -3 v 3 z m 16.48999,0 H 458.02 v -3 h -3.00002 z m 0,118.80501 h -16.48999 v 6 h 16.48999 z m -13.48999,3 V 5.19499 h -6 V 127 Z m -3,-118.80501 h 16.48999 v -6 h -16.48999 z m 13.49,-3 V 127 H 458.02 V 5.19499 Z m 110.634,0 h 3 v -3 h -3 z m 0,13.43001 v 3 h 3 v -3 z m -58.48,0 v -3 h -3 v 3 z m 0,42.585 h -3 v 3 h 3 z m 49.98,0 h 3 v -3 h -3 z m 0,13.43 v 3 h 3 v -3 z m -49.98,0 v -3 h -3 v 3 z m 0,52.36 v 3 h 3 v -3 z m -16.57499,0 h -3.00002 v 3 h 3.00002 z m 0,-121.80501 v -3 h -3.00002 v 3 z m 72.05498,0 V 18.625 h 6.00001 V 5.19499 Z m 3.00001,10.43001 h -58.48 v 6 h 58.48 z m -61.48,3 V 61.21 h 6 V 18.625 Z m 3,45.585 h 49.98 v -6 h -49.98 z m 46.98001,-3 v 13.43 h 5.99999 V 61.21 Z m 2.99999,10.43 h -49.98 v 6 h 49.98 z m -52.98,3 V 127 h 6 V 74.64 Z m 3,49.36 H 487.599 v 6 h 16.57499 z m -13.575,3 V 5.19499 h -6.00001 V 127 Z M 487.599,8.19499 h 75.05499 v -6 H 487.599 Z M 630.80799,78.55 l -2.56201,-1.5614 -0.43799,0.7192 V 78.55 Z m 0,48.45 v 3 h 3 v -3 z m -16.40501,0 h -2.99999 v 3 h 2.99999 z m 0,-48.45 h 3 v -0.8408 l -0.437,-0.7184 z m -44.625,-73.35501 v -3 h -5.337 l 2.774,4.55918 z m 20.14501,3.82501 -2.597,1.5031 0.006,0.0096 0.006,0.0096 z m 27.88,47.345 2.604,-1.4884 -0.009,-0.017 -0.01,-0.0169 z m 2.805,5.61 -2.767,1.1602 0.016,0.0375 0.017,0.0371 z m 2.12499,5.185 -2.817,1.0328 2.863,7.8078 2.78101,-7.8374 z m 2.04001,-5.27 2.766,1.1602 z m 2.805,-5.525 2.58499,1.5211 0.002,-0.0023 z m 27.795,-47.345 2.58699,1.5188 0.014,-0.0239 0.013,-0.0241 z m 2.04,-2.55001 2.04699,2.19317 0.004,-0.00455 z m 18.10499,-1.275 2.561,1.56135 2.78001,-4.56135 h -5.34101 z M 627.80799,78.55 V 127 h 6 V 78.55 Z m 3,45.45 h -16.40501 v 6 h 16.40501 z m -13.40501,3 V 78.55 h -5.99999 V 127 Z m -0.437,-50.0092 -44.625,-73.35499 -5.126,3.11836 44.625,73.35503 z m -47.188,-68.79581 h 14.45 v -6 h -14.45 z m 14.45,0 c 0.97901,0 1.36601,0.23849 1.52001,0.37207 l 3.92899,-4.53413 c -1.54499,-1.33976 -3.48199,-1.83794 -5.449,-1.83794 z m 1.52001,0.37207 c 0.573,0.49695 1.104,1.13693 1.578,1.95604 l 5.193,-3.0062 c -0.772,-1.33423 -1.71501,-2.50759 -2.84201,-3.48397 z m 1.59,1.97524 27.87999,47.345 5.17001,-3.0446 -27.88001,-47.34498 z m 27.86,47.3111 c 1.084,1.8975 1.96199,3.6572 2.643,5.2818 l 5.53299,-2.3204 c -0.792,-1.8888 -1.784,-3.869 -2.96699,-5.9382 z m 2.676,5.3564 c 0.765,1.6945 1.445,3.3555 2.04199,4.983 l 5.63301,-2.0656 c -0.65,-1.7725 -1.386,-3.5682 -2.20701,-5.387 z m 7.686,4.9534 c 0.60399,-1.7026 1.26399,-3.407 1.979,-5.113 l -5.533,-2.3204 c -0.758,1.8073 -1.45801,3.6163 -2.101,5.427 z m 1.979,-5.113 c 0.67699,-1.6134 1.54799,-3.3342 2.62399,-5.1641 l -5.17099,-3.0422 c -1.19,2.0235 -2.189,3.9859 -2.986,5.8859 z m 2.62599,-5.1664 27.795,-47.345 -5.174,-3.03763 -27.795,47.34503 z m 27.822,-47.393 c 0.34301,-0.60864 0.82201,-1.22008 1.473,-1.82765 l -4.09399,-4.38632 c -1.049,0.9791 -1.93001,2.06766 -2.60801,3.27239 z m 1.47701,-1.83219 c 0.27299,-0.25517 0.664,-0.46362 1.434,-0.46362 v -6 c -2.064,0 -3.99601,0.64156 -5.537,2.08639 z m 1.434,-0.46362 h 14.61999 v -6 h -14.61999 z m 12.058,-4.56135 -44.71001,73.35496 5.12301,3.1227 44.70999,-73.35496 z M 741.77798,81.44 v -3 h -3 v 3 z m 0,45.56 v 3 h 3.00001 v -3 z m -16.40499,0 h -3 v 3 h 3 z m 0,-121.80501 v -3 h -3 v 3 z m 56.015,2.72001 -0.914,2.8573 0.016,0.0054 0.018,0.0052 z m 14.19499,7.565 -1.981,2.2535 v 0 z m 8.33,11.9 -2.79499,1.0906 0.006,0.0148 0.006,0.0146 z m -8.925,43.265 -1.98499,-2.2495 -0.008,0.0073 -0.009,0.0073 z m -14.19499,7.99 0.93999,2.8489 0.013,-0.0042 0.013,-0.0044 z M 741.77798,68.35 h -3 v 3 h 3 z m 31.96001,-1.87 -0.97501,-2.8371 -0.007,0.0024 -0.007,0.0024 z m 9.09499,-5.185 2.015,2.2222 0.014,-0.0128 0.014,-0.0128 z m 5.52501,-8.075 2.785,1.1142 z m -5.355,-28.475 -2.027,2.2115 0.006,0.0059 0.007,0.006 z M 741.77798,18.2 v -3 h -3 v 3 z m -3,63.24 V 127 h 6.00001 V 81.44 Z m 3,42.56 h -16.40499 v 6 h 16.40499 z m -13.405,3 V 5.19499 h -5.99999 V 127 Z M 725.37299,8.19499 h 35.95499 v -6 h -35.95499 z m 35.95499,0 c 7.48301,0 13.847,0.8817 19.14601,2.57731 l 1.828,-5.71457 c -6.035,-1.9311 -13.044,-2.86274 -20.97401,-2.86274 z m 19.18,2.58791 c 5.398,1.6569 9.731,3.9952 13.094,6.9506 l 3.96101,-4.507 c -4.11701,-3.61791 -9.246,-6.32295 -15.295,-8.17945 z m 13.094,6.9506 c 3.379,2.9692 5.877,6.5368 7.51601,10.7371 l 5.58999,-2.1812 c -1.988,-5.093 -5.044,-9.4587 -9.14499,-13.0629 z m 7.528,10.7665 c 1.707,4.2435 2.58801,9.0412 2.58801,14.435 h 5.99999 c 0,-6.0528 -0.99,-11.6252 -3.022,-16.675 z m 2.58801,14.435 c 0,5.3105 -0.928,10.0936 -2.73901,14.3893 l 5.528,2.3314 c 2.155,-5.111 3.211,-10.6978 3.211,-16.7207 z m -2.73901,14.3893 c -1.807,4.2852 -4.45799,7.9672 -7.97599,11.0712 l 3.96999,4.499 c 4.18901,-3.6961 7.374,-8.1174 9.534,-13.2388 z m -7.993,11.0858 c -3.447,3.0878 -7.80899,5.5656 -13.159,7.3846 l 1.93201,5.6806 c 5.983,-2.0343 11.08499,-4.8832 15.22999,-8.5955 z m -13.133,7.376 c -5.30399,1.7503 -11.46499,2.6539 -18.525,2.6539 v 6 c 7.56,0 14.376,-0.9664 20.405,-2.9561 z m -18.525,2.6539 h -19.55 v 6 h 19.55 z m -19.55,-7.09 h 19.55 v -6 h -19.55 z m 19.55,0 c 4.961,0 9.44401,-0.6567 13.399,-2.0377 l -1.97799,-5.6646 c -3.186,1.1124 -6.97601,1.7023 -11.42101,1.7023 z m 13.385,-2.0329 c 3.948,-1.3573 7.35101,-3.275 10.135,-5.7999 l -4.031,-4.4444 c -2.089,1.8951 -4.74899,3.4341 -8.054,4.5701 z m 10.163,-5.8255 c 2.764,-2.571 4.858,-5.6333 6.26701,-9.1574 l -5.57101,-2.2284 c -1.083,2.7092 -2.673,5.0303 -4.783,6.9926 z m 6.26701,-9.1574 c 1.404,-3.5093 2.08499,-7.3211 2.08499,-11.3992 h -6 c 0,3.4018 -0.566,6.4468 -1.656,9.1708 z m 2.08499,-11.3992 c 0,-8.4309 -2.645,-15.3711 -8.211,-20.4134 l -4.028,4.4468 c 4.067,3.6843 6.239,8.8709 6.239,15.9666 z M 785.02999,22.5335 C 779.49599,17.4604 771.40199,15.2 761.32798,15.2 v 6 c 9.306,0 15.662,2.103 19.64801,5.7565 z M 761.32798,15.2 h -19.55 v 6 h 19.55 z m -22.55,3 v 50.15 h 6.00001 V 18.2 Z m 105.31101,94.945 h -3.00002 v 3 h 3.00002 z m 52.69999,0 h 3 v -3 h -3 z m 0,13.855 v 3 h 3 v -3 z m -69.19,0 h -3 v 3 h 3 z m 0,-121.80501 v -3 h -3 v 3 z m 16.49001,0 h 2.99999 v -3 h -2.99999 z m 0,110.95001 h 52.69999 v -6 h -52.69999 z m 49.69999,-3 V 127 h 6 v -13.855 z m 3,10.855 h -69.19 v 6 h 69.19 z m -66.19,3 V 5.19499 h -6 V 127 Z m -3,-118.80501 h 16.49001 v -6 h -16.49001 z m 13.48999,-3 V 113.145 h 6.00001 V 5.19499 Z M 1015.14,127 v 3 h 4.43 l -1.65,-4.114 z m -16.32203,-1.105 -1.892,2.328 z m -2.03999,-2.805 -2.79799,1.083 0.006,0.016 0.006,0.015 z m -11.39,-29.41 2.797,-1.0834 -0.74199,-1.9166 h -2.05501 z m -54.655,0 v -3 h -2.055 l -0.74299,1.9166 z m -11.39,29.41 2.796,1.087 0.001,-0.004 z m -18.36,3.91 -2.786,-1.114 -1.64501,4.114 h 4.43101 z M 949.68797,5.19499 v -3 h -2.03198 l -0.75401,1.88616 z m 16.74502,0 2.785,-1.11384 -0.75401,-1.88616 h -2.03099 z M 935.32298,81.78 l -2.798,-1.0818 -1.57799,4.0818 h 4.37599 z m 45.475,0 v 3 h 4.37301 l -1.57401,-4.0802 z m -19.125,-49.555 2.799,-1.0802 -0.01,-0.0259 -0.011,-0.0258 z m -3.65499,-11.475 2.904,-0.7529 -2.85401,-11.00947 -2.948,10.98497 z m -1.87001,6.46 -2.86201,-0.8995 -0.008,0.0264 -0.008,0.0266 z m -1.7,5.1 2.79801,1.0818 0.002,-0.0049 z M 1015.14,124 h -12.75 v 6 h 12.75 z m -12.75,0 c -0.97,0 -1.44,-0.235 -1.68,-0.433 l -3.78403,4.656 c 1.569,1.275 3.48403,1.777 5.46403,1.777 z m -1.68,-0.433 c -0.49,-0.4 -0.87402,-0.91 -1.14702,-1.591 l -5.57101,2.228 c 0.63501,1.586 1.61301,2.946 2.934,4.019 z m -1.13502,-1.56 -11.39,-29.4104 -5.59501,2.1668 11.39002,29.4096 z m -14.187,-31.327 h -54.655 v 6 h 54.655 z m -57.45299,1.9166 -11.39,29.4104 5.59499,2.166 11.39,-29.4096 z m -11.388,29.4064 c -0.18601,0.477 -0.52801,0.978 -1.15101,1.491 l 3.814,4.632 c 1.303,-1.074 2.32101,-2.386 2.929,-3.949 z m -1.15101,1.491 c -0.354,0.292 -0.843,0.506 -1.663,0.506 v 6 c 2.01299,0 3.904,-0.579 5.477,-1.874 z m -1.663,0.506 h -12.75 v 6 h 12.75 z m -9.965,4.114 L 952.47297,6.30883 946.90198,4.08115 898.19698,125.886 Z M 949.68797,8.19499 h 16.74502 v -6 H 949.68797 Z M 963.64698,6.30883 1012.35,128.114 1017.92,125.886 969.21799,4.08115 Z M 935.32298,84.78 h 45.475 v -6 h -45.475 z m 48.274,-4.0802 -19.125,-49.555 -5.598,2.1604 19.125,49.555 z m -19.146,-49.6067 c -1.18,-2.8963 -2.36,-6.5846 -3.52899,-11.096 l -5.80802,1.5058 c 1.21001,4.6686 2.46701,8.6303 3.78102,11.854 z m -9.331,-11.1205 c -0.614,2.2886 -1.22499,4.4007 -1.83401,6.3379 l 5.724,1.799 c 0.63801,-2.0295 1.27302,-4.224 1.90501,-6.5821 z m -1.85001,6.3909 c -0.54998,1.8686 -1.09099,3.489 -1.62198,4.8696 l 5.59999,2.1538 c 0.602,-1.5661 1.19399,-3.3457 1.77799,-5.3304 z m -1.61999,4.8647 -19.125,49.47 5.59599,2.1636 19.12502,-49.47 z M 1063.44,78.55 l -2.56,-1.5614 -0.44,0.7192 V 78.55 Z m 0,48.45 v 3 h 3 v -3 z m -16.4,0 h -3 v 3 h 3 z m 0,-48.45 h 3 v -0.8408 l -0.44,-0.7184 z M 1002.41,5.19499 v -3 h -5.33202 l 2.77299,4.55918 z m 20.15,3.82501 -2.6,1.5031 0.01,0.0096 v 0.0096 z m 27.88,47.345 2.6,-1.4884 -0.01,-0.017 -0.01,-0.0169 z m 2.8,5.61 -2.76,1.1602 0.01,0.0375 0.02,0.0371 z m 2.13,5.185 -2.82,1.0328 2.87,7.8078 2.78,-7.8374 z m 2.04,-5.27 2.77,1.1602 z m 2.8,-5.525 2.59,1.5211 v -0.0023 z m 27.8,-47.345 2.59,1.5188 0.01,-0.0239 0.01,-0.0241 z m 2.04,-2.55001 2.05,2.19317 V 8.65861 Z m 18.1,-1.275 2.57,1.56135 2.78,-4.56135 h -5.35 z M 1060.44,78.55 V 127 h 6 V 78.55 Z m 3,45.45 h -16.4 v 6 h 16.4 z m -13.4,3 V 78.55 h -6 V 127 Z M 1049.6,76.9908 1004.98,3.63581 999.85097,6.75417 1044.48,80.1092 Z M 1002.41,8.19499 h 14.45 v -6 h -14.45 z m 14.45,0 c 0.98,0 1.37,0.23849 1.52,0.37207 l 3.93,-4.53413 c -1.54,-1.33976 -3.48,-1.83794 -5.45,-1.83794 z m 1.52,0.37207 c 0.58,0.49695 1.11,1.13693 1.58,1.95604 l 5.2,-3.0062 c -0.78,-1.33423 -1.72,-2.50759 -2.85,-3.48397 z m 1.59,1.97524 27.88,47.345 5.17,-3.0446 -27.88,-47.34498 z m 27.86,47.3111 c 1.09,1.8975 1.97,3.6572 2.65,5.2818 l 5.53,-2.3204 c -0.79,-1.8888 -1.78,-3.869 -2.97,-5.9382 z m 2.68,5.3564 c 0.77,1.6945 1.45,3.3555 2.04,4.983 l 5.64,-2.0656 c -0.65,-1.7725 -1.39,-3.5682 -2.21,-5.387 z m 7.69,4.9534 c 0.6,-1.7026 1.26,-3.407 1.98,-5.113 l -5.54,-2.3204 c -0.76,1.8073 -1.46,3.6163 -2.1,5.427 z m 1.98,-5.113 c 0.67,-1.6134 1.54,-3.3342 2.62,-5.1641 l -5.17,-3.0422 c -1.19,2.0235 -2.19,3.9859 -2.99,5.8859 z m 2.62,-5.1664 27.8,-47.345 -5.18,-3.03763 -27.79,47.34503 z m 27.82,-47.393 c 0.35,-0.60864 0.83,-1.22008 1.48,-1.82765 L 1088,4.27683 c -1.05,0.9791 -1.93,2.06766 -2.61,3.27239 z m 1.48,-1.83219 c 0.27,-0.25517 0.67,-0.46362 1.43,-0.46362 v -6 c -2.06,0 -3.99,0.64156 -5.53,2.08639 z m 1.43,-0.46362 h 14.62 v -6 h -14.62 z m 12.06,-4.56135 -44.71,73.35496 5.13,3.1227 44.71,-73.35496 z m 34.34,109.51136 h -3 v 3 h 3 z m 52.7,0 h 3 v -3 h -3 z m 0,13.855 v 3 h 3 v -3 z m -69.19,0 h -3 v 3 h 3 z m 0,-121.80501 v -3 h -3 v 3 z m 16.49,0 h 3 v -3 h -3 z m 0,110.95001 h 52.7 v -6 h -52.7 z m 49.7,-3 V 127 h 6 v -13.855 z m 3,10.855 h -69.19 v 6 h 69.19 z m -66.19,3 V 5.19499 h -6 V 127 Z m -3,-118.80501 h 16.49 v -6 h -16.49 z m 13.49,-3 V 113.145 h 6 V 5.19499 Z M 1230.31,127 v 3 h 3 v -3 z m -16.49,0 h -3 v 3 h 3 z m 0,-121.80501 v -3 h -3 v 3 z m 16.49,0 h 3 v -3 h -3 z m 0,118.80501 h -16.49 v 6 h 16.49 z m -13.49,3 V 5.19499 h -6 V 127 Z m -3,-118.80501 h 16.49 v -6 h -16.49 z m 13.49,-3 V 127 h 6 V 5.19499 Z m 97.97,19.04001 2.57,1.5435 0.06,-0.0877 0.04,-0.091 z m -1.61,1.955 1.72,2.4577 0.08,-0.0551 0.07,-0.06 z m -5.61,-0.85 -1.84,2.3738 0.03,0.0197 0.02,0.019 z m -4.85,-3.145 -1.57,2.5524 0.04,0.0269 0.04,0.0254 z m -7.05,-3.23 -1,2.8279 v 0.0032 l 0.01,0.0032 z m -19.72,0.085 0.96,2.8403 0.03,-0.0086 0.02,-0.009 z m -7.14,3.995 -1.99,-2.2495 -0.01,0.0147 -0.02,0.015 z m -4.25,6.035 2.76,1.1734 v -0.0122 l 0.01,-0.0122 z m 1.02,15.895 -2.43,1.7609 0.02,0.0345 0.03,0.0337 z m 6.63,5.695 -1.52,2.5913 0.02,0.0068 0.01,0.0066 z m 9.35,4.165 -0.98,2.8366 0.03,0.0095 0.03,0.009 z m 10.71,3.57 -0.98,2.8371 0.01,0.0023 v 0.0022 z m 10.71,4.25 -1.25,2.7265 0.02,0.0123 0.03,0.0117 z m 9.35,5.865 -1.98,2.2577 0.01,0.0101 0.01,0.01 z m 6.63,8.755 -2.71,1.2881 0.01,0.018 v 0.0179 z m -0.17,27.795 2.79,1.091 0.01,-0.012 z m -7.99,12.155 -2.11,-2.138 -0.01,0.008 v 0.009 z m -12.84,8.16 -1.09,-2.796 -0.01,0.004 z m -38.84,-1.275 -1.23,2.738 0.02,0.007 0.01,0.006 z m -16.58,-11.645 -2.56,-1.56 -1.19,1.953 1.57,1.664 z m 4.76,-7.82 -2.42,-1.765 -0.08,0.1 -0.06,0.105 z m 1.62,-1.53 1.61,2.531 0.02,-0.017 0.03,-0.018 z m 6.29,1.275 -1.95,2.284 0.03,0.021 0.02,0.021 z m 5.69,4.165 -1.68,2.487 0.02,0.009 0.01,0.01 z m 8.33,4.25 -1.12,2.782 0.03,0.012 0.03,0.011 z m 22.44,0.255 1,2.83 z m 7.74,-4.505 2.03,2.209 v -0.002 z m 4.93,-7.055 -2.77,-1.154 v 0 z m -0.85,-18.105 -2.47,1.7046 0.02,0.0338 0.03,0.0331 z m -6.55,-5.95 -1.51,2.5913 z m -9.35,-3.995 -0.93,2.8507 0.02,0.0091 0.03,0.0085 z m -10.71,-3.4 -0.93,2.8505 0.02,0.0086 0.03,0.0082 z m -10.71,-4.08 -1.21,2.7433 0.01,0.0036 v 0.0036 z m -9.26,-5.95 2,-2.2345 z m -6.63,-9.095 -2.74,1.2223 0.01,0.0256 0.01,0.0254 z m 0,-26.095 -2.77,-1.1677 v 0.0166 l -0.01,0.0167 z m 7.31,-10.71 -2.11,-2.1404 v 10e-5 z m 11.73,-7.48 -1.11,-2.78777 -0.01,0.00468 z m 34.76,0.425 -1.07,2.80076 z m 14.71,9.35 2.67,1.3648 1.01,-1.9713 -1.59,-1.5437 z m -6.57,6.2765 c -0.39,0.6486 -0.71,0.9904 -0.92,1.1559 l 3.75,4.6852 c 0.93,-0.7412 1.68,-1.7027 2.31,-2.7541 z m -0.76,1.0408 c 0.07,-0.0513 -0.01,0.0527 -0.49,0.0527 v 6 c 1.33,0 2.72,-0.2926 3.93,-1.1373 z m -0.49,0.0527 c 0.01,0 -0.11,0.003 -0.4,-0.1222 -0.3,-0.1254 -0.7,-0.3522 -1.22,-0.7353 l -3.57,4.825 c 1.5,1.1093 3.27,2.0325 5.19,2.0325 z m -1.57,-0.8189 c -1.39,-1.0766 -3.13,-2.2013 -5.19,-3.3758 l -2.98,5.2094 c 1.91,1.0922 3.4,2.0641 4.5,2.9141 z m -5.1,-3.3235 c -2.16,-1.3336 -4.72,-2.4966 -7.65,-3.5119 l -1.97,5.6686 c 2.63,0.9114 4.77,1.9017 6.47,2.9481 z m -7.63,-3.5055 c -3.14,-1.1097 -6.81,-1.6171 -10.95,-1.6171 v 6 c 3.68,0 6.64,0.4559 8.95,1.2729 z M 1296.21,14.52 c -3.95,0 -7.57,0.5471 -10.79,1.7073 l 2.03,5.6454 c 2.45,-0.8798 5.35,-1.3527 8.76,-1.3527 z m -10.74,1.6897 c -3.15,1.0702 -5.89,2.5839 -8.16,4.5858 l 3.97,4.499 c 1.59,-1.3981 3.6,-2.5477 6.12,-3.4042 z m -8.19,4.6155 c -2.2,1.9956 -3.87,4.3724 -5,7.1057 l 5.54,2.2981 c 0.79,-1.9132 1.95,-3.5598 3.49,-4.9642 z m -4.99,7.0814 c -1.14,2.6671 -1.69,5.535 -1.69,8.5684 h 6 c 0,-2.2933 0.41,-4.3554 1.21,-6.2216 z m -1.69,8.5684 c 0,3.8941 0.95,7.3805 3.04,10.2609 l 4.86,-3.5218 c -1.2,-1.6529 -1.9,-3.8332 -1.9,-6.7391 z m 3.09,10.3291 c 1.96,2.5551 4.48,4.7001 7.49,6.4572 l 3.03,-5.1826 c -2.43,-1.4163 -4.33,-3.0679 -5.77,-4.9328 z m 7.52,6.4706 c 2.96,1.6919 6.25,3.1543 9.86,4.3969 l 1.95,-5.6732 c -3.3,-1.1374 -6.24,-2.4517 -8.84,-3.9331 z m 9.92,4.4154 c 3.49,1.1273 7.04,2.3112 10.65,3.552 l 1.95,-5.6742 c -3.64,-1.2526 -7.23,-2.4486 -10.76,-3.588 z m 10.66,3.5565 c 3.59,1.2141 7.06,2.5926 10.43,4.1349 l 2.5,-5.453 c -3.56,-1.631 -7.22,-3.0859 -11,-4.3652 z m 10.48,4.1589 c 3.25,1.4142 6.1,3.2075 8.57,5.3722 l 3.95,-4.5154 c -2.96,-2.5953 -6.35,-4.712 -10.13,-6.3578 z m 8.59,5.3923 c 2.45,2.094 4.41,4.6698 5.88,7.7653 l 5.42,-2.5762 c -1.82,-3.8178 -4.28,-7.0787 -7.39,-9.7447 z m 5.89,7.8012 c 1.45,2.9376 2.25,6.7053 2.25,11.426 h 6 c 0,-5.366 -0.91,-10.0983 -2.86,-14.074 z m 2.25,11.426 c 0,4.9788 -0.85,9.626 -2.52,13.966 l 5.6,2.158 c 1.95,-5.067 2.92,-10.4495 2.92,-16.124 z m -2.52,13.954 c -1.66,4.258 -4.09,7.951 -7.3,11.108 l 4.21,4.276 c 3.82,-3.757 6.72,-8.167 8.68,-13.202 z m -7.31,11.125 c -3.13,3.129 -7.05,5.634 -11.81,7.485 l 2.18,5.592 c 5.44,-2.116 10.08,-5.051 13.87,-8.835 z m -11.82,7.489 c -4.63,1.822 -10,2.767 -16.15,2.767 v 6 c 6.76,0 12.9,-1.039 18.35,-3.183 z m -16.15,2.767 c -7.51,0 -14.3,-1.349 -20.4,-4.001 l -2.39,5.502 c 6.93,3.015 14.54,4.499 22.79,4.499 z m -20.37,-3.988 c -6.12,-2.738 -11.31,-6.395 -15.61,-10.964 l -4.37,4.114 c 4.87,5.178 10.73,9.284 17.53,12.326 z m -15.24,-7.347 4.76,-7.82 -5.12,-3.12 -4.76,7.82 z m 4.63,-7.615 c 0.24,-0.333 0.5,-0.578 0.8,-0.764 l -3.22,-5.062 c -0.96,0.607 -1.77,1.382 -2.43,2.296 z m 0.85,-0.799 c 0.2,-0.135 0.36,-0.176 0.55,-0.176 v -6 c -1.41,0 -2.72,0.4125 -3.88,1.184 z m 0.55,-0.176 c 0.12,0 0.8,0.105 2.13,1.239 l 3.89,-4.568 c -1.73,-1.473 -3.77,-2.671 -6.02,-2.671 z m 2.18,1.281 c 1.62,1.32 3.6,2.763 5.91,4.326 l 3.36,-4.974 c -2.22,-1.497 -4.04,-2.831 -5.48,-4.004 z m 5.94,4.345 c 2.53,1.662 5.49,3.166 8.86,4.526 l 2.24,-5.564 c -3.09,-1.247 -5.68,-2.576 -7.8,-3.974 z m 8.92,4.549 c 3.72,1.411 8.1,2.065 13.05,2.065 v -6 c -4.46,0 -8.07,-0.593 -10.92,-1.675 z m 13.05,2.065 c 4.18,0 8.01,-0.575 11.45,-1.785 l -1.99,-5.66 c -2.69,0.944 -5.83,1.445 -9.46,1.445 z m 11.45,-1.785 c 3.39,-1.193 6.33,-2.889 8.77,-5.126 l -4.06,-4.418 c -1.76,1.616 -3.97,2.924 -6.7,3.884 z m 8.77,-5.128 c 2.47,-2.279 4.37,-4.991 5.67,-8.108 l -5.54,-2.308 c -0.97,2.323 -2.36,4.315 -4.2,6.002 z m 5.67,-8.108 c 1.3,-3.1318 1.93,-6.5627 1.93,-10.249 h -6 c 0,3.0003 -0.51,5.6328 -1.47,7.941 z m 1.93,-10.249 c 0,-4.1416 -0.96,-7.8165 -3.13,-10.7815 l -4.84,3.543 c 1.23,1.6817 1.97,4.0134 1.97,7.2385 z m -3.08,-10.7146 c -1.92,-2.7734 -4.44,-5.0482 -7.51,-6.8367 l -3.02,5.1826 c 2.37,1.3849 4.22,3.0767 5.59,5.0633 z m -7.51,-6.8367 c -2.95,-1.7205 -6.28,-3.1386 -9.98,-4.272 l -1.76,5.7366 c 3.33,1.02 6.23,2.2652 8.72,3.718 z m -9.92,-4.2544 c -3.48,-1.1394 -7.07,-2.2782 -10.77,-3.4166 l -1.76,5.7346 c 3.67,1.1283 7.22,2.2561 10.66,3.3834 z m -10.71,-3.3998 c -3.54,-1.1607 -7.02,-2.4873 -10.45,-3.98 l -2.4,5.501 c 3.6,1.5673 7.26,2.9606 10.98,4.18 z m -10.43,-3.9728 c -3.18,-1.4072 -6,-3.2217 -8.48,-5.4412 l -4.01,4.469 c 2.97,2.6538 6.32,4.806 10.06,6.4588 z m -8.48,-5.4412 c -2.39,-2.1425 -4.37,-4.8368 -5.92,-8.1338 l -5.43,2.5466 c 1.85,3.9563 4.3,7.3254 7.34,10.0562 z m -5.89,-8.0828 c -1.43,-3.1929 -2.21,-7.2818 -2.21,-12.3777 h -6 c 0,5.6708 0.86,10.6485 2.73,14.8223 z M 1261.3,37.325 c 0,-3.9141 0.75,-7.694 2.24,-11.3606 l -5.55,-2.2688 c -1.79,4.3801 -2.69,8.9301 -2.69,13.6294 z m 2.23,-11.3273 c 1.54,-3.6519 3.75,-6.8929 6.65,-9.7374 l -4.21,-4.2806 c -3.45,3.3888 -6.11,7.2878 -7.97,11.6826 z m 6.65,-9.7374 c 2.86,-2.807 6.42,-5.0962 10.75,-6.83722 l -2.24,-5.56617 c -4.97,1.99894 -9.23,4.69644 -12.72,8.12269 z m 10.73,-6.83256 c 4.29,-1.705 9.29,-2.59275 15.05,-2.59275 V 0.834991 c -6.37,0 -12.14,0.982249 -17.26,3.017269 z m 15.05,-2.59275 c 6.48,0 12.31,1.0253 17.54,3.03077 l 2.15,-5.60153 c -6,-2.3012 -12.57,-3.429239 -19.69,-3.429239 z m 17.54,3.03077 c 5.24,2.01164 9.79,4.91074 13.68,8.69944 l 4.19,-4.3004 c -4.49,-4.37128 -9.74,-7.70557 -15.72,-10.00057 z m 13.1,5.18444 -3.99,7.82 5.34,2.7296 4,-7.82 z M 1436,5.19499 h 3 v -3 h -3 z m 0,13.85501 v 3 h 3 v -3 z m -39.36,0 v -3 h -3 v 3 z m 0,107.95 v 3 h 3 v -3 z m -16.49,0 h -3 v 3 h 3 z m 0,-107.95 h 3 v -3 h -3 z m -39.52,0 h -3 v 3 h 3 z m 0,-13.85501 v -3 h -3 v 3 z m 92.37,0 V 19.05 h 6 V 5.19499 Z m 3,10.85501 h -39.36 v 6 H 1436 Z m -42.36,3 V 127 h 6 V 19.05 Z m 3,104.95 h -16.49 v 6 h 16.49 z m -13.49,3 V 19.05 h -6 V 127 Z m -3,-110.95 h -39.52 v 6 h 39.52 z m -36.52,3 V 5.19499 h -6 V 19.05 Z m -3,-10.85501 H 1436 v -6 h -95.37 z m 175.07,16.04001 2.57,1.5435 0.06,-0.0877 0.04,-0.091 z m -1.61,1.955 1.72,2.4577 0.08,-0.0551 0.07,-0.06 z m -5.61,-0.85 -1.84,2.3738 0.03,0.0197 0.02,0.019 z m -4.85,-3.145 -1.57,2.5524 0.04,0.0269 0.04,0.0254 z m -7.05,-3.23 -1.01,2.8279 0.01,0.0032 0.01,0.0032 z m -19.72,0.085 0.96,2.8403 0.03,-0.0086 0.02,-0.009 z m -7.14,3.995 -1.99,-2.2495 -0.02,0.0147 -0.01,0.015 z m -4.25,6.035 2.76,1.1734 v -0.0122 l 0.01,-0.0122 z m 1.02,15.895 -2.43,1.7609 0.02,0.0345 0.03,0.0337 z m 6.63,5.695 -1.52,2.5913 0.02,0.0068 0.01,0.0066 z m 9.35,4.165 -0.98,2.8366 0.03,0.0095 0.03,0.009 z m 10.71,3.57 -0.98,2.8371 0.01,0.0023 v 0.0022 z m 10.71,4.25 -1.25,2.7265 0.02,0.0123 0.03,0.0117 z m 9.35,5.865 -1.98,2.2577 0.01,0.0101 0.01,0.01 z m 6.63,8.755 -2.71,1.2881 0.01,0.018 v 0.0179 z m -0.17,27.795 2.79,1.091 0.01,-0.012 z m -7.99,12.155 -2.11,-2.138 -0.01,0.008 v 0.009 z m -12.84,8.16 -1.09,-2.796 -0.01,0.004 z m -38.84,-1.275 -1.23,2.738 0.02,0.007 0.01,0.006 z m -16.58,-11.645 -2.56,-1.56 -1.19,1.953 1.57,1.664 z m 4.76,-7.82 -2.42,-1.765 -0.08,0.1 -0.06,0.105 z m 1.62,-1.53 1.61,2.531 0.02,-0.017 0.03,-0.018 z m 6.29,1.275 -1.95,2.284 0.03,0.021 0.02,0.021 z m 5.69,4.165 -1.68,2.487 0.02,0.009 0.01,0.01 z m 8.33,4.25 -1.12,2.782 0.03,0.012 0.03,0.011 z m 22.44,0.255 1,2.83 z m 7.74,-4.505 2.03,2.209 v -0.002 z m 4.93,-7.055 -2.77,-1.154 v 0 z m -0.85,-18.105 -2.47,1.7046 0.02,0.0338 0.03,0.0331 z m -6.55,-5.95 -1.51,2.5913 z m -9.35,-3.995 -0.93,2.8507 0.02,0.0091 0.03,0.0085 z m -10.71,-3.4 -0.93,2.8505 0.02,0.0086 0.03,0.0082 z m -10.71,-4.08 -1.21,2.7433 0.01,0.0036 v 0.0036 z m -9.26,-5.95 2,-2.2345 z m -6.63,-9.095 -2.74,1.2223 0.01,0.0256 0.01,0.0254 z m 0,-26.095 -2.77,-1.1677 v 0.0166 l -0.01,0.0167 z m 7.31,-10.71 -2.11,-2.1404 v 10e-5 z m 11.73,-7.48 -1.11,-2.78777 -0.01,0.00468 z m 34.76,0.425 -1.07,2.80076 z m 14.71,9.35 2.67,1.3648 1.01,-1.9713 -1.59,-1.5437 z m -6.57,6.2765 c -0.39,0.6486 -0.71,0.9904 -0.92,1.1559 l 3.75,4.6852 c 0.93,-0.7412 1.68,-1.7027 2.31,-2.7541 z m -0.76,1.0408 c 0.07,-0.0513 -0.01,0.0527 -0.49,0.0527 v 6 c 1.33,0 2.72,-0.2926 3.93,-1.1373 z m -0.49,0.0527 c 0.01,0 -0.11,0.003 -0.4,-0.1222 -0.3,-0.1254 -0.7,-0.3522 -1.22,-0.7353 l -3.57,4.825 c 1.5,1.1093 3.27,2.0325 5.19,2.0325 z m -1.57,-0.8189 c -1.39,-1.0766 -3.13,-2.2013 -5.19,-3.3758 l -2.98,5.2094 c 1.91,1.0922 3.4,2.0641 4.5,2.9141 z m -5.1,-3.3235 c -2.16,-1.3336 -4.72,-2.4966 -7.65,-3.5119 l -1.97,5.6686 c 2.63,0.9114 4.77,1.9017 6.47,2.9481 z m -7.63,-3.5055 c -3.14,-1.1097 -6.81,-1.6171 -10.95,-1.6171 v 6 c 3.68,0 6.64,0.4559 8.94,1.2729 z M 1486.63,14.52 c -3.95,0 -7.57,0.5471 -10.79,1.7073 l 2.03,5.6454 c 2.45,-0.8798 5.35,-1.3527 8.76,-1.3527 z m -10.74,1.6897 c -3.15,1.0702 -5.89,2.5839 -8.16,4.5858 l 3.97,4.499 c 1.59,-1.3981 3.6,-2.5477 6.12,-3.4042 z m -8.19,4.6155 c -2.2,1.9956 -3.87,4.3724 -5,7.1057 l 5.54,2.2981 c 0.79,-1.9132 1.95,-3.5598 3.49,-4.9642 z m -4.99,7.0814 c -1.14,2.6671 -1.69,5.535 -1.69,8.5684 h 6 c 0,-2.2933 0.41,-4.3554 1.21,-6.2216 z m -1.69,8.5684 c 0,3.8941 0.95,7.3805 3.04,10.2609 l 4.86,-3.5218 c -1.2,-1.6529 -1.9,-3.8332 -1.9,-6.7391 z m 3.09,10.3291 c 1.96,2.5551 4.48,4.7001 7.49,6.4572 l 3.03,-5.1826 c -2.43,-1.4163 -4.33,-3.0679 -5.77,-4.9328 z m 7.52,6.4706 c 2.96,1.6919 6.25,3.1543 9.86,4.3969 l 1.95,-5.6732 c -3.3,-1.1374 -6.24,-2.4517 -8.84,-3.9331 z m 9.92,4.4154 c 3.49,1.1273 7.04,2.3112 10.65,3.552 l 1.95,-5.6742 c -3.64,-1.2526 -7.23,-2.4486 -10.76,-3.588 z m 10.66,3.5565 c 3.59,1.2141 7.06,2.5926 10.43,4.1349 l 2.5,-5.453 c -3.56,-1.631 -7.22,-3.0859 -11,-4.3652 z m 10.48,4.1589 c 3.25,1.4142 6.1,3.2075 8.57,5.3722 l 3.95,-4.5154 c -2.96,-2.5953 -6.35,-4.712 -10.13,-6.3578 z m 8.59,5.3923 c 2.45,2.094 4.41,4.6698 5.88,7.7653 l 5.42,-2.5762 c -1.82,-3.8178 -4.28,-7.0787 -7.39,-9.7447 z m 5.89,7.8012 c 1.45,2.9376 2.25,6.7053 2.25,11.426 h 6 c 0,-5.366 -0.91,-10.0983 -2.86,-14.074 z m 2.25,11.426 c 0,4.9788 -0.85,9.626 -2.52,13.966 l 5.6,2.158 c 1.95,-5.067 2.92,-10.4495 2.92,-16.124 z m -2.52,13.954 c -1.66,4.258 -4.09,7.951 -7.3,11.108 l 4.21,4.276 c 3.82,-3.757 6.72,-8.167 8.68,-13.202 z m -7.31,11.125 c -3.13,3.129 -7.05,5.634 -11.81,7.485 l 2.18,5.592 c 5.44,-2.116 10.08,-5.051 13.87,-8.835 z m -11.82,7.489 c -4.63,1.822 -10,2.767 -16.15,2.767 v 6 c 6.76,0 12.9,-1.039 18.35,-3.183 z m -16.15,2.767 c -7.51,0 -14.3,-1.349 -20.4,-4.001 l -2.39,5.502 c 6.93,3.015 14.54,4.499 22.79,4.499 z m -20.37,-3.988 c -6.12,-2.738 -11.31,-6.395 -15.61,-10.964 l -4.37,4.114 c 4.87,5.178 10.73,9.284 17.53,12.326 z m -15.24,-7.347 4.76,-7.82 -5.12,-3.12 -4.76,7.82 z m 4.63,-7.615 c 0.24,-0.333 0.5,-0.578 0.8,-0.764 l -3.22,-5.062 c -0.96,0.607 -1.77,1.382 -2.43,2.296 z m 0.85,-0.799 c 0.2,-0.135 0.36,-0.176 0.55,-0.176 v -6 c -1.41,0 -2.72,0.4125 -3.88,1.184 z m 0.55,-0.176 c 0.12,0 0.8,0.105 2.13,1.239 l 3.89,-4.568 c -1.73,-1.473 -3.77,-2.671 -6.02,-2.671 z m 2.18,1.281 c 1.62,1.32 3.6,2.763 5.91,4.326 l 3.36,-4.974 c -2.22,-1.497 -4.04,-2.831 -5.48,-4.004 z m 5.94,4.345 c 2.53,1.662 5.49,3.166 8.86,4.526 l 2.24,-5.564 c -3.09,-1.247 -5.68,-2.576 -7.8,-3.974 z m 8.92,4.549 c 3.72,1.411 8.1,2.065 13.05,2.065 v -6 c -4.46,0 -8.07,-0.593 -10.92,-1.675 z m 13.05,2.065 c 4.18,0 8.01,-0.575 11.45,-1.785 l -1.99,-5.66 c -2.69,0.944 -5.83,1.445 -9.46,1.445 z m 11.45,-1.785 c 3.39,-1.193 6.33,-2.889 8.77,-5.126 l -4.06,-4.418 c -1.76,1.616 -3.97,2.924 -6.7,3.884 z m 8.77,-5.128 c 2.47,-2.279 4.37,-4.991 5.67,-8.108 l -5.54,-2.308 c -0.97,2.323 -2.36,4.315 -4.2,6.002 z m 5.67,-8.108 c 1.3,-3.1318 1.93,-6.5627 1.93,-10.249 h -6 c 0,3.0003 -0.51,5.6328 -1.47,7.941 z m 1.93,-10.249 c 0,-4.1416 -0.96,-7.8165 -3.13,-10.7815 l -4.84,3.543 c 1.23,1.6817 1.97,4.0134 1.97,7.2385 z m -3.08,-10.7146 c -1.92,-2.7734 -4.44,-5.0482 -7.51,-6.8367 l -3.02,5.1826 c 2.37,1.3849 4.22,3.0767 5.59,5.0633 z m -7.51,-6.8367 c -2.95,-1.7205 -6.28,-3.1386 -9.98,-4.272 l -1.76,5.7366 c 3.33,1.02 6.23,2.2652 8.72,3.718 z m -9.92,-4.2544 c -3.48,-1.1394 -7.07,-2.2782 -10.77,-3.4166 l -1.76,5.7346 c 3.67,1.1283 7.22,2.2561 10.66,3.3834 z m -10.71,-3.3998 c -3.54,-1.1607 -7.02,-2.4873 -10.45,-3.98 l -2.4,5.501 c 3.6,1.5673 7.26,2.9606 10.98,4.18 z m -10.43,-3.9728 c -3.18,-1.4072 -6,-3.2217 -8.48,-5.4412 l -4.01,4.469 c 2.97,2.6538 6.32,4.806 10.06,6.4588 z m -8.48,-5.4412 c -2.39,-2.1425 -4.37,-4.8368 -5.92,-8.1338 l -5.43,2.5466 c 1.85,3.9563 4.3,7.3254 7.34,10.0562 z m -5.89,-8.0828 c -1.43,-3.1929 -2.21,-7.2818 -2.21,-12.3777 h -6 c 0,5.6708 0.86,10.6485 2.73,14.8223 z m -2.21,-12.3777 c 0,-3.9141 0.75,-7.694 2.24,-11.3606 l -5.55,-2.2688 c -1.79,4.3801 -2.69,8.9301 -2.69,13.6294 z m 2.23,-11.3273 c 1.54,-3.6519 3.75,-6.8929 6.65,-9.7374 l -4.21,-4.2806 c -3.45,3.3888 -6.11,7.2878 -7.97,11.6826 z m 6.65,-9.7374 c 2.86,-2.807 6.42,-5.0962 10.75,-6.83722 l -2.24,-5.56617 c -4.97,1.99894 -9.23,4.69644 -12.72,8.12269 z m 10.73,-6.83256 c 4.29,-1.705 9.29,-2.59275 15.05,-2.59275 V 0.834991 c -6.37,0 -12.14,0.982249 -17.26,3.017269 z m 15.05,-2.59275 c 6.48,0 12.31,1.0253 17.54,3.03077 l 2.15,-5.60153 c -6,-2.3012 -12.57,-3.429239 -19.69,-3.429239 z m 17.54,3.03077 c 5.24,2.01164 9.79,4.91074 13.68,8.69944 l 4.19,-4.3004 c -4.49,-4.37128 -9.74,-7.70557 -15.72,-10.00057 z m 13.1,5.18444 -3.99,7.82 5.34,2.7296 4,-7.82 z"
     fill="#aeaeae"
     id="path10"
     style="stroke-width:1;fill:#4d4d4d" />
</svg>
