<?xml version="1.0" encoding="UTF-8" standalone="no"?>
<svg
   xmlns:dc="http://purl.org/dc/elements/1.1/"
   xmlns:cc="http://creativecommons.org/ns#"
   xmlns:rdf="http://www.w3.org/1999/02/22-rdf-syntax-ns#"
   xmlns:svg="http://www.w3.org/2000/svg"
   xmlns="http://www.w3.org/2000/svg"
   xmlns:sodipodi="http://sodipodi.sourceforge.net/DTD/sodipodi-0.dtd"
   xmlns:inkscape="http://www.inkscape.org/namespaces/inkscape"
   width="1526"
   height="132"
   viewBox="0 0 1526 132"
   fill="none"
   version="1.1"
   id="svg12"
   sodipodi:docname="line-light.svg"
   inkscape:version="1.0.1 (c497b03c, 2020-09-10)">
  <metadata
     id="metadata18">
    <rdf:RDF>
      <cc:Work
         rdf:about="">
        <dc:format>image/svg+xml</dc:format>
        <dc:type
           rdf:resource="http://purl.org/dc/dcmitype/StillImage" />
      </cc:Work>
    </rdf:RDF>
  </metadata>
  <defs
     id="defs16" />
  <sodipodi:namedview
     pagecolor="#ffffff"
     bordercolor="#666666"
     borderopacity="1"
     objecttolerance="10"
     gridtolerance="10"
     guidetolerance="10"
     inkscape:pageopacity="0"
     inkscape:pageshadow="2"
     inkscape:window-width="709"
     inkscape:window-height="480"
     id="namedview14"
     showgrid="false"
     inkscape:zoom="0.69003932"
     inkscape:cx="763"
     inkscape:cy="66"
     inkscape:window-x="1792"
     inkscape:window-y="23"
     inkscape:window-maximized="0"
     inkscape:current-layer="svg12" />
  <path
     d="M76.18 24.235L78.7525 25.7785L78.8051 25.6908L78.8516 25.5998L76.18 24.235ZM74.565 26.19L76.2854 28.6477L76.3641 28.5926L76.4391 28.5326L74.565 26.19ZM68.955 25.34L67.1207 27.7138L67.146 27.7335L67.1718 27.7525L68.955 25.34ZM64.11 22.195L62.5335 24.7474L62.5771 24.7743L62.6216 24.7997L64.11 22.195ZM57.055 18.965L56.0535 21.7929L56.0626 21.7961L56.0717 21.7993L57.055 18.965ZM37.335 19.05L38.3007 21.8903L38.326 21.8817L38.3512 21.8727L37.335 19.05ZM30.195 23.045L28.2101 20.7955L28.1935 20.8102L28.177 20.8252L30.195 23.045ZM25.945 29.08L28.706 30.2534L28.7112 30.2412L28.7162 30.229L25.945 29.08ZM26.965 44.975L24.5362 46.7359L24.5612 46.7704L24.5871 46.8041L26.965 44.975ZM33.595 50.67L32.0834 53.2613L32.095 53.2681L32.1066 53.2747L33.595 50.67ZM42.945 54.835L41.9685 57.6716L41.9961 57.6811L42.024 57.6901L42.945 54.835ZM53.655 58.405L52.6798 61.2421L52.6865 61.2444L52.6932 61.2466L53.655 58.405ZM64.365 62.655L63.1135 65.3815L63.1402 65.3938L63.1672 65.4055L64.365 62.655ZM73.715 68.52L71.7395 70.7777L71.751 70.7878L71.7626 70.7978L73.715 68.52ZM80.345 77.275L77.6356 78.5631L77.6442 78.5811L77.653 78.599L80.345 77.275ZM80.175 105.07L82.9698 106.161L82.9742 106.149L80.175 105.07ZM72.185 117.225L70.081 115.087L70.0723 115.095L70.0637 115.104L72.185 117.225ZM59.35 125.385L58.2627 122.589L58.2521 122.593L59.35 125.385ZM20.505 124.11L19.2799 126.848L19.2943 126.855L19.3088 126.861L20.505 124.11ZM3.93 112.465L1.3674 110.905L0.178828 112.858L1.74615 114.522L3.93 112.465ZM8.69 104.645L6.26379 102.88L6.1914 102.98L6.12741 103.085L8.69 104.645ZM10.305 103.115L11.9156 105.646L11.9425 105.629L11.9691 105.611L10.305 103.115ZM16.595 104.39L14.6496 106.674L14.6746 106.695L14.7 106.716L16.595 104.39ZM22.29 108.555L20.6116 111.042L20.6258 111.051L20.64 111.061L22.29 108.555ZM30.62 112.805L29.4974 115.587L29.5266 115.599L29.556 115.61L30.62 112.805ZM53.06 113.06L54.0557 115.89L53.06 113.06ZM60.795 108.555L62.8249 110.764L62.8274 110.762L60.795 108.555ZM65.725 101.5L62.9558 100.346V100.346L65.725 101.5ZM64.875 83.395L62.4063 85.0996L62.4297 85.1334L62.4539 85.1665L64.875 83.395ZM58.33 77.445L56.8184 80.0363H56.8184L58.33 77.445ZM48.98 73.45L48.0453 76.3007L48.0731 76.3098L48.101 76.3183L48.98 73.45ZM38.27 70.05L37.3347 72.9005L37.3611 72.9091L37.3877 72.9173L38.27 70.05ZM27.56 65.97L26.3458 68.7133L26.354 68.7169L26.3622 68.7205L27.56 65.97ZM18.295 60.02L20.2967 57.7855L18.295 60.02ZM11.665 50.925L8.92531 52.1473L8.93673 52.1729L8.94862 52.1983L11.665 50.925ZM11.665 24.83L8.90156 23.6623L8.89455 23.6789L8.88774 23.6956L11.665 24.83ZM18.975 14.12L16.8729 11.9796L16.8729 11.9797L18.975 14.12ZM30.705 6.64L29.5966 3.85223L29.585 3.85691L30.705 6.64ZM65.47 7.065L64.395 9.86576H64.395L65.47 7.065ZM80.175 16.415L82.8466 17.7798L83.8536 15.8085L82.2671 14.2648L80.175 16.415ZM73.6075 22.6915C73.2184 23.3401 72.8978 23.6819 72.6909 23.8474L76.4391 28.5326C77.3656 27.7914 78.1216 26.8299 78.7525 25.7785L73.6075 22.6915ZM72.8446 23.7323C72.9179 23.681 72.8357 23.785 72.355 23.785V29.785C73.6876 29.785 75.0787 29.4924 76.2854 28.6477L72.8446 23.7323ZM72.355 23.785C72.3719 23.785 72.2506 23.788 71.9559 23.6628C71.661 23.5374 71.2566 23.3106 70.7382 22.9275L67.1718 27.7525C68.6726 28.8618 70.4426 29.785 72.355 29.785V23.785ZM70.7893 22.9661C69.3961 21.8895 67.6538 20.7648 65.5984 19.5903L62.6216 24.7997C64.5329 25.8919 66.0206 26.8638 67.1207 27.7138L70.7893 22.9661ZM65.6865 19.6426C63.5273 18.309 60.9646 17.146 58.0383 16.1307L56.0717 21.7993C58.6987 22.7107 60.8394 23.701 62.5335 24.7474L65.6865 19.6426ZM58.0565 16.1371C54.9233 15.0274 51.2482 14.52 47.11 14.52V20.52C50.7918 20.52 53.7467 20.9759 56.0535 21.7929L58.0565 16.1371ZM47.11 14.52C43.1549 14.52 39.5417 15.0671 36.3188 16.2273L38.3512 21.8727C40.795 20.9929 43.6984 20.52 47.11 20.52V14.52ZM36.3693 16.2097C33.2216 17.2799 30.479 18.7936 28.2101 20.7955L32.1799 25.2945C33.7644 23.8964 35.7817 22.7468 38.3007 21.8903L36.3693 16.2097ZM28.177 20.8252C25.9818 22.8208 24.3071 25.1976 23.1738 27.9309L28.7162 30.229C29.5095 28.3158 30.6682 26.6692 32.213 25.2648L28.177 20.8252ZM23.184 27.9066C22.0505 30.5737 21.5 33.4416 21.5 36.475H27.5C27.5 34.1817 27.9128 32.1196 28.706 30.2534L23.184 27.9066ZM21.5 36.475C21.5 40.3691 22.4478 43.8555 24.5362 46.7359L29.3938 43.2141C28.1955 41.5612 27.5 39.3809 27.5 36.475H21.5ZM24.5871 46.8041C26.5525 49.3592 29.0712 51.5042 32.0834 53.2613L35.1066 48.0787C32.6788 46.6624 30.7775 45.0108 29.3429 43.1459L24.5871 46.8041ZM32.1066 53.2747C35.0674 54.9666 38.359 56.429 41.9685 57.6716L43.9215 51.9984C40.6177 50.861 37.6759 49.5467 35.0834 48.0653L32.1066 53.2747ZM42.024 57.6901C45.5185 58.8174 49.0704 60.0013 52.6798 61.2421L54.6302 55.5679C50.9863 54.3153 47.3982 53.1193 43.866 51.9799L42.024 57.6901ZM52.6932 61.2466C56.2802 62.4607 59.7534 63.8392 63.1135 65.3815L65.6165 59.9285C62.0632 58.2975 58.3964 56.8426 54.6168 55.5633L52.6932 61.2466ZM63.1672 65.4055C66.4146 66.8197 69.2655 68.613 71.7395 70.7777L75.6905 66.2623C72.7245 63.667 69.3421 61.5503 65.5628 59.9045L63.1672 65.4055ZM71.7626 70.7978C74.2056 72.8918 76.164 75.4676 77.6356 78.5631L83.0544 75.9869C81.2394 72.1691 78.7777 68.9082 75.6674 66.2422L71.7626 70.7978ZM77.653 78.599C79.0977 81.5366 79.895 85.3043 79.895 90.025H85.895C85.895 84.659 84.9923 79.9267 83.037 75.951L77.653 78.599ZM79.895 90.025C79.895 95.0038 79.049 99.651 77.3758 103.991L82.9742 106.149C84.9277 101.082 85.895 95.6995 85.895 90.025H79.895ZM77.3803 103.979C75.7188 108.237 73.2891 111.93 70.081 115.087L74.289 119.363C78.1076 115.606 81.0045 111.196 82.9697 106.161L77.3803 103.979ZM70.0637 115.104C66.9344 118.233 63.0213 120.738 58.2627 122.589L60.4373 128.181C65.8787 126.065 70.5222 123.13 74.3063 119.346L70.0637 115.104ZM58.2521 122.593C53.6186 124.415 48.2498 125.36 42.095 125.36V131.36C48.8602 131.36 54.9947 130.321 60.4479 128.177L58.2521 122.593ZM42.095 125.36C34.5851 125.36 27.8014 124.011 21.7012 121.359L19.3088 126.861C26.242 129.876 33.8516 131.36 42.095 131.36V125.36ZM21.7301 121.372C15.6106 118.634 10.4171 114.977 6.11385 110.408L1.74615 114.522C6.62293 119.7 12.4794 123.806 19.2799 126.848L21.7301 121.372ZM6.4926 114.025L11.2526 106.205L6.12741 103.085L1.3674 110.905L6.4926 114.025ZM11.1162 106.41C11.3579 106.077 11.6235 105.832 11.9156 105.646L8.69437 100.584C7.73987 101.191 6.92879 101.966 6.26379 102.88L11.1162 106.41ZM11.9691 105.611C12.1721 105.476 12.3326 105.435 12.515 105.435V99.435C11.1107 99.435 9.79795 99.8475 8.6409 100.619L11.9691 105.611ZM12.515 105.435C12.6429 105.435 13.3186 105.54 14.6496 106.674L18.5404 102.106C16.8114 100.633 14.7671 99.435 12.515 99.435V105.435ZM14.7 106.716C16.3205 108.036 18.2964 109.479 20.6116 111.042L23.9684 106.068C21.7502 104.571 19.9295 103.237 18.49 102.064L14.7 106.716ZM20.64 111.061C23.1649 112.723 26.1268 114.227 29.4974 115.587L31.7426 110.023C28.6532 108.776 26.0617 107.447 23.94 106.049L20.64 111.061ZM29.556 115.61C33.2761 117.021 37.6536 117.675 42.605 117.675V111.675C38.1497 111.675 34.5373 111.082 31.684 110L29.556 115.61ZM42.605 117.675C46.7866 117.675 50.6178 117.1 54.0557 115.89L52.0643 110.23C49.3822 111.174 46.2434 111.675 42.605 111.675V117.675ZM54.0557 115.89C57.4458 114.697 60.3902 113.001 62.8249 110.764L58.7651 106.346C57.0064 107.962 54.7942 109.27 52.0643 110.23L54.0557 115.89ZM62.8274 110.762C65.3017 108.483 67.1954 105.771 68.4942 102.654L62.9558 100.346C61.988 102.669 60.595 104.661 58.7626 106.348L62.8274 110.762ZM68.4942 102.654C69.7991 99.5222 70.425 96.0913 70.425 92.405H64.425C64.425 95.4053 63.9176 98.0378 62.9558 100.346L68.4942 102.654ZM70.425 92.405C70.425 88.2634 69.4656 84.5885 67.2961 81.6235L62.4539 85.1665C63.6844 86.8482 64.425 89.1799 64.425 92.405H70.425ZM67.3437 81.6904C65.4287 78.917 62.9076 76.6422 59.8416 74.8537L56.8184 80.0363C59.1924 81.4212 61.0347 83.113 62.4063 85.0996L67.3437 81.6904ZM59.8416 74.8537C56.8923 73.1332 53.5575 71.7151 49.859 70.5817L48.101 76.3183C51.4292 77.3383 54.3277 78.5835 56.8184 80.0363L59.8416 74.8537ZM49.9146 70.5993C46.4396 69.4599 42.8521 68.3211 39.1523 67.1827L37.3877 72.9173C41.0546 74.0456 44.6071 75.1734 48.0453 76.3007L49.9146 70.5993ZM39.2053 67.1995C35.668 66.0388 32.1856 64.7122 28.7578 63.2195L26.3622 68.7205C29.9611 70.2878 33.6187 71.6811 37.3347 72.9005L39.2053 67.1995ZM28.7742 63.2267C25.5949 61.8195 22.7744 60.005 20.2967 57.7855L16.2933 62.2545C19.2556 64.9083 22.6118 67.0605 26.3458 68.7133L28.7742 63.2267ZM20.2967 57.7855C17.9051 55.643 15.9269 52.9487 14.3814 49.6517L8.94862 52.1983C10.8031 56.1546 13.2449 59.5237 16.2933 62.2545L20.2967 57.7855ZM14.4047 49.7027C12.9802 46.5098 12.2 42.4209 12.2 37.325H6.2C6.2 42.9958 7.06315 47.9735 8.92531 52.1473L14.4047 49.7027ZM12.2 37.325C12.2 33.4109 12.9446 29.631 14.4423 25.9644L8.88774 23.6956C7.0987 28.0757 6.2 32.6257 6.2 37.325H12.2ZM14.4284 25.9977C15.9715 22.3458 18.1809 19.1048 21.0771 16.2603L16.8729 11.9797C13.4224 15.3685 10.7585 19.2675 8.90156 23.6623L14.4284 25.9977ZM21.0771 16.2603C23.9352 13.4533 27.4988 11.1641 31.825 9.42308L29.585 3.85691C24.6179 5.85585 20.3615 8.55335 16.8729 11.9796L21.0771 16.2603ZM31.8134 9.42774C36.1017 7.72274 41.0978 6.83499 46.855 6.83499V0.834991C40.4855 0.834991 34.715 1.81724 29.5966 3.85226L31.8134 9.42774ZM46.855 6.83499C53.3355 6.83499 59.1702 7.86029 64.395 9.86576L66.5451 4.26423C60.5498 1.96303 53.9745 0.834991 46.855 0.834991V6.83499ZM64.395 9.86576C69.6359 11.8774 74.189 14.7765 78.0829 18.5652L82.2671 14.2648C77.7743 9.89352 72.5241 6.55923 66.545 4.26423L64.395 9.86576ZM77.5034 15.0502L73.5084 22.8702L78.8516 25.5998L82.8466 17.7798L77.5034 15.0502ZM122.041 81.44V78.44H119.041V81.44H122.041ZM122.041 127V130H125.041V127H122.041ZM105.636 127H102.636V130H105.636V127ZM105.636 5.19499V2.19499H102.636V5.19499H105.636ZM161.651 7.915L160.737 10.7723L160.754 10.7777L160.771 10.7829L161.651 7.915ZM175.846 15.48L173.866 17.7335V17.7335L175.846 15.48ZM184.176 27.38L181.382 28.4706L181.387 28.4854L181.393 28.5L184.176 27.38ZM175.251 70.645L173.267 68.3955L173.258 68.4028L173.25 68.4101L175.251 70.645ZM161.056 78.635L161.997 81.4839L162.009 81.4797L162.022 81.4753L161.056 78.635ZM122.041 68.35H119.041V71.35H122.041V68.35ZM154.001 66.48L153.026 63.6429L153.019 63.6453L153.012 63.6477L154.001 66.48ZM163.096 61.295L165.112 63.5172L165.126 63.5044L165.14 63.4916L163.096 61.295ZM168.621 53.22L171.407 54.3342L168.621 53.22ZM163.266 24.745L161.239 26.9565L161.246 26.9624L161.252 26.9684L163.266 24.745ZM122.041 18.2V15.2H119.041V18.2H122.041ZM119.041 81.44V127H125.041V81.44H119.041ZM122.041 124H105.636V130H122.041V124ZM108.636 127V5.19499H102.636V127H108.636ZM105.636 8.19499H141.591V2.19499H105.636V8.19499ZM141.591 8.19499C149.074 8.19499 155.438 9.07669 160.737 10.7723L162.566 5.05773C156.531 3.12663 149.522 2.19499 141.591 2.19499V8.19499ZM160.771 10.7829C166.169 12.4398 170.503 14.7781 173.866 17.7335L177.827 13.2265C173.71 9.60859 168.58 6.90355 162.532 5.04705L160.771 10.7829ZM173.866 17.7335C177.245 20.7027 179.743 24.2703 181.382 28.4706L186.971 26.2894C184.984 21.1964 181.928 16.8307 177.827 13.2265L173.866 17.7335ZM181.393 28.5C183.101 32.7435 183.981 37.5412 183.981 42.935H189.981C189.981 36.8822 188.992 31.3098 186.96 26.26L181.393 28.5ZM183.981 42.935C183.981 48.2455 183.054 53.0286 181.242 57.3243L186.771 59.6557C188.926 54.5447 189.981 48.9579 189.981 42.935H183.981ZM181.242 57.3243C179.435 61.6095 176.784 65.2915 173.267 68.3955L177.236 72.8945C181.425 69.1984 184.611 64.7771 186.771 59.6557L181.242 57.3243ZM173.25 68.4101C169.802 71.4979 165.441 73.9757 160.091 75.7947L162.022 81.4753C168.006 79.441 173.107 76.5921 177.253 72.8798L173.25 68.4101ZM160.116 75.7861C154.812 77.5364 148.651 78.44 141.591 78.44V84.44C149.152 84.44 155.967 83.4736 161.997 81.4839L160.116 75.7861ZM141.591 78.44H122.041V84.44H141.591V78.44ZM122.041 71.35H141.591V65.35H122.041V71.35ZM141.591 71.35C146.553 71.35 151.036 70.6933 154.991 69.3123L153.012 63.6477C149.827 64.7601 146.037 65.35 141.591 65.35V71.35ZM154.977 69.3171C158.925 67.9598 162.328 66.0421 165.112 63.5172L161.081 59.0728C158.992 60.9679 156.331 62.5069 153.026 63.6429L154.977 69.3171ZM165.14 63.4916C167.904 60.9206 169.997 57.8583 171.407 54.3342L165.836 52.1058C164.752 54.815 163.163 57.1361 161.053 59.0984L165.14 63.4916ZM171.407 54.3342C172.811 50.8249 173.491 47.0131 173.491 42.935H167.491C167.491 46.3368 166.926 49.3818 165.836 52.1058L171.407 54.3342ZM173.491 42.935C173.491 34.5041 170.847 27.5639 165.281 22.5216L161.252 26.9684C165.32 30.6527 167.491 35.8393 167.491 42.935H173.491ZM165.294 22.5335C159.759 17.4604 151.666 15.2 141.591 15.2V21.2C150.897 21.2 157.254 23.303 161.239 26.9565L165.294 22.5335ZM141.591 15.2H122.041V21.2H141.591V15.2ZM119.041 18.2V68.35H125.041V18.2H119.041ZM316.662 91.3L319.466 92.3671L319.469 92.3602L316.662 91.3ZM285.382 123.77L286.515 126.548L286.526 126.544L285.382 123.77ZM236.422 123.77L235.271 126.54L235.281 126.544L235.29 126.548L236.422 123.77ZM217.467 110.935L215.302 113.011L217.467 110.935ZM205.227 91.3L202.421 92.3602L202.423 92.3671L205.227 91.3ZM205.227 41.065L208.031 42.1321L208.034 42.1252L205.227 41.065ZM217.467 21.345L219.633 23.4212L219.638 23.4156L219.643 23.4101L217.467 21.345ZM236.422 8.42499L237.573 11.1955L236.422 8.42499ZM285.382 8.42499L284.231 11.1955L284.239 11.1986L285.382 8.42499ZM304.422 21.345L302.246 23.4101L302.251 23.4156L302.257 23.4212L304.422 21.345ZM316.662 41.065L313.856 42.1252L313.858 42.1321L316.662 41.065ZM292.352 30.95L290.127 32.9619L290.134 32.9696L290.141 32.9772L292.352 30.95ZM278.752 21.43L279.902 18.659L278.752 21.43ZM243.137 21.43L241.988 18.659L243.137 21.43ZM229.452 30.95L227.242 28.9215L227.241 28.9228L229.452 30.95ZM220.782 45.995L217.944 45.022L220.782 45.995ZM220.782 86.285L217.944 87.258L217.947 87.2663L220.782 86.285ZM229.452 101.33L227.227 103.342L227.241 103.358L227.256 103.374L229.452 101.33ZM243.137 110.765L241.988 113.536L242 113.541L242.013 113.546L243.137 110.765ZM278.752 110.765L279.877 113.546L279.889 113.541L279.902 113.536L278.752 110.765ZM292.352 101.33L294.564 103.357L294.571 103.35L294.578 103.342L292.352 101.33ZM301.022 86.285L303.857 87.2663L303.86 87.258L301.022 86.285ZM317.997 66.14C317.997 74.9428 316.604 82.9655 313.856 90.2398L319.469 92.3602C322.501 84.3345 323.997 75.5838 323.997 66.14H317.997ZM313.858 90.2329C311.102 97.476 307.23 103.671 302.257 108.859L306.588 113.011C312.154 107.205 316.443 100.311 319.466 92.3671L313.858 90.2329ZM302.257 108.859C297.291 114.038 291.298 118.087 284.239 120.996L286.526 126.544C294.313 123.334 301.014 118.825 306.588 113.011L302.257 108.859ZM284.25 120.992C277.285 123.831 269.516 125.275 260.902 125.275V131.275C270.195 131.275 278.746 129.715 286.515 126.548L284.25 120.992ZM260.902 125.275C252.289 125.275 244.52 123.831 237.555 120.992L235.29 126.548C243.058 129.715 251.609 131.275 260.902 131.275V125.275ZM237.573 121C230.57 118.091 224.603 114.042 219.633 108.859L215.302 113.011C220.872 118.821 227.541 123.329 235.271 126.54L237.573 121ZM219.633 108.859C214.659 103.671 210.788 97.476 208.031 90.2329L202.423 92.3671C205.447 100.311 209.735 107.205 215.302 113.011L219.633 108.859ZM208.034 90.2398C205.286 82.9655 203.892 74.9428 203.892 66.14H197.892C197.892 75.5838 199.389 84.3345 202.421 92.3602L208.034 90.2398ZM203.892 66.14C203.892 57.3368 205.286 49.3453 208.031 42.1321L202.423 39.9979C199.389 47.9713 197.892 56.6965 197.892 66.14H203.892ZM208.034 42.1252C210.791 34.8253 214.663 28.6048 219.633 23.4212L215.302 19.2688C209.732 25.0785 205.443 32.0047 202.421 40.0048L208.034 42.1252ZM219.643 23.4101C224.613 18.1737 230.577 14.1015 237.573 11.1955L235.271 5.6545C227.534 8.86848 220.862 13.4096 215.291 19.2799L219.643 23.4101ZM237.573 11.1955C244.533 8.30447 252.296 6.83499 260.902 6.83499V0.834991C251.602 0.834991 243.045 2.42551 235.271 5.6545L237.573 11.1955ZM260.902 6.83499C269.509 6.83499 277.272 8.30447 284.231 11.1955L286.533 5.6545C278.76 2.42551 270.202 0.834991 260.902 0.834991V6.83499ZM284.239 11.1986C291.291 14.1057 297.281 18.1778 302.246 23.4101L306.598 19.2799C301.024 13.4055 294.32 8.86426 286.526 5.6514L284.239 11.1986ZM302.257 23.4212C307.227 28.6048 311.098 34.8253 313.856 42.1252L319.469 40.0048C316.446 32.0047 312.158 25.0785 306.588 19.2688L302.257 23.4212ZM313.858 42.1321C316.604 49.3453 317.997 57.3368 317.997 66.14H323.997C323.997 56.6965 322.501 47.9713 319.466 39.9979L313.858 42.1321ZM307.082 66.14C307.082 58.3899 306.026 51.338 303.86 45.022L298.184 46.968C300.099 52.552 301.082 58.9301 301.082 66.14H307.082ZM303.86 45.022C301.704 38.7344 298.619 33.3462 294.564 28.9228L290.141 32.9772C293.566 36.7138 296.26 41.3556 298.184 46.968L303.86 45.022ZM294.578 28.9381C290.529 24.4605 285.625 21.0333 279.902 18.659L277.603 24.201C282.533 26.2467 286.695 29.1662 290.127 32.9619L294.578 28.9381ZM279.902 18.659C274.163 16.2781 267.815 15.115 260.902 15.115V21.115C267.136 21.115 272.688 22.1618 277.603 24.201L279.902 18.659ZM260.902 15.115C254.042 15.115 247.723 16.2794 241.988 18.659L244.287 24.201C249.205 22.1606 254.729 21.115 260.902 21.115V15.115ZM241.988 18.659C236.269 21.0317 231.342 24.4542 227.242 28.9215L231.662 32.9785C235.156 29.1724 239.352 26.2483 244.287 24.201L241.988 18.659ZM227.241 28.9228C223.186 33.3462 220.1 38.7344 217.944 45.022L223.62 46.968C225.544 41.3556 228.239 36.7138 231.664 32.9772L227.241 28.9228ZM217.944 45.022C215.779 51.338 214.722 58.3899 214.722 66.14H220.722C220.722 58.9301 221.706 52.552 223.62 46.968L217.944 45.022ZM214.722 66.14C214.722 73.8901 215.779 80.942 217.944 87.258L223.62 85.312C221.706 79.728 220.722 73.3499 220.722 66.14H214.722ZM217.947 87.2663C220.104 93.4956 223.186 98.8727 227.227 103.342L231.678 99.3181C228.238 95.5139 225.541 90.8611 223.617 85.3037L217.947 87.2663ZM227.256 103.374C231.356 107.779 236.278 111.167 241.988 113.536L244.287 107.994C239.343 105.943 235.142 103.041 231.648 99.2863L227.256 103.374ZM242.013 113.546C247.742 115.862 254.052 116.995 260.902 116.995V110.995C254.72 110.995 249.186 109.974 244.262 107.984L242.013 113.546ZM260.902 116.995C267.806 116.995 274.145 115.863 279.877 113.546L277.628 107.984C272.706 109.973 267.145 110.995 260.902 110.995V116.995ZM279.902 113.536C285.615 111.166 290.516 107.773 294.564 103.357L290.141 99.3028C286.709 103.047 282.543 105.944 277.603 107.994L279.902 113.536ZM294.578 103.342C298.618 98.8727 301.701 93.4956 303.857 87.2663L298.187 85.3037C296.264 90.8611 293.566 95.5139 290.127 99.3181L294.578 103.342ZM303.86 87.258C306.026 80.942 307.082 73.8901 307.082 66.14H301.082C301.082 73.3499 300.099 79.728 298.184 85.312L303.86 87.258ZM418.156 5.19499H421.156V2.19499H418.156V5.19499ZM418.156 19.05V22.05H421.156V19.05H418.156ZM378.801 19.05V16.05H375.801V19.05H378.801ZM378.801 127V130H381.801V127H378.801ZM362.311 127H359.311V130H362.311V127ZM362.311 19.05H365.311V16.05H362.311V19.05ZM322.786 19.05H319.786V22.05H322.786V19.05ZM322.786 5.19499V2.19499H319.786V5.19499H322.786ZM415.156 5.19499V19.05H421.156V5.19499H415.156ZM418.156 16.05H378.801V22.05H418.156V16.05ZM375.801 19.05V127H381.801V19.05H375.801ZM378.801 124H362.311V130H378.801V124ZM365.311 127V19.05H359.311V127H365.311ZM362.311 16.05H322.786V22.05H362.311V16.05ZM325.786 19.05V5.19499H319.786V19.05H325.786ZM322.786 8.19499H418.156V2.19499H322.786V8.19499ZM455.02 127V130H458.02V127H455.02ZM438.53 127H435.53V130H438.53V127ZM438.53 5.19499V2.19499H435.53V5.19499H438.53ZM455.02 5.19499H458.02V2.19499H455.02V5.19499ZM455.02 124H438.53V130H455.02V124ZM441.53 127V5.19499H435.53V127H441.53ZM438.53 8.19499H455.02V2.19499H438.53V8.19499ZM452.02 5.19499V127H458.02V5.19499H452.02ZM562.654 5.19499H565.654V2.19499H562.654V5.19499ZM562.654 18.625V21.625H565.654V18.625H562.654ZM504.174 18.625V15.625H501.174V18.625H504.174ZM504.174 61.21H501.174V64.21H504.174V61.21ZM554.154 61.21H557.154V58.21H554.154V61.21ZM554.154 74.64V77.64H557.154V74.64H554.154ZM504.174 74.64V71.64H501.174V74.64H504.174ZM504.174 127V130H507.174V127H504.174ZM487.599 127H484.599V130H487.599V127ZM487.599 5.19499V2.19499H484.599V5.19499H487.599ZM559.654 5.19499V18.625H565.654V5.19499H559.654ZM562.654 15.625H504.174V21.625H562.654V15.625ZM501.174 18.625V61.21H507.174V18.625H501.174ZM504.174 64.21H554.154V58.21H504.174V64.21ZM551.154 61.21V74.64H557.154V61.21H551.154ZM554.154 71.64H504.174V77.64H554.154V71.64ZM501.174 74.64V127H507.174V74.64H501.174ZM504.174 124H487.599V130H504.174V124ZM490.599 127V5.19499H484.599V127H490.599ZM487.599 8.19499H562.654V2.19499H487.599V8.19499ZM630.808 78.55L628.246 76.9886L627.808 77.7078V78.55H630.808ZM630.808 127V130H633.808V127H630.808ZM614.403 127H611.403V130H614.403V127ZM614.403 78.55H617.403V77.7092L616.966 76.9908L614.403 78.55ZM569.778 5.19499V2.19499H564.441L567.215 6.75417L569.778 5.19499ZM589.923 9.02L587.326 10.5231L587.332 10.5327L587.338 10.5423L589.923 9.02ZM617.803 56.365L620.407 54.8766L620.398 54.8596L620.388 54.8427L617.803 56.365ZM620.608 61.975L617.841 63.1352L617.857 63.1727L617.874 63.2098L620.608 61.975ZM622.733 67.16L619.916 68.1928L622.779 76.0006L625.56 68.1632L622.733 67.16ZM624.773 61.89L627.539 63.0502L624.773 61.89ZM627.578 56.365L630.163 57.8861L630.165 57.8838L627.578 56.365ZM655.373 9.02L657.96 10.5388L657.974 10.5149L657.987 10.4908L655.373 9.02ZM657.413 6.46999L659.46 8.66316L659.464 8.65861L657.413 6.46999ZM675.518 5.19499L678.079 6.75634L680.859 2.19499H675.518V5.19499ZM627.808 78.55V127H633.808V78.55H627.808ZM630.808 124H614.403V130H630.808V124ZM617.403 127V78.55H611.403V127H617.403ZM616.966 76.9908L572.341 3.63581L567.215 6.75417L611.84 80.1092L616.966 76.9908ZM569.778 8.19499H584.228V2.19499H569.778V8.19499ZM584.228 8.19499C585.207 8.19499 585.594 8.43348 585.748 8.56706L589.677 4.03293C588.132 2.69317 586.195 2.19499 584.228 2.19499V8.19499ZM585.748 8.56706C586.321 9.06401 586.852 9.70399 587.326 10.5231L592.519 7.5169C591.747 6.18267 590.804 5.00931 589.677 4.03293L585.748 8.56706ZM587.338 10.5423L615.218 57.8873L620.388 54.8427L592.508 7.49772L587.338 10.5423ZM615.198 57.8534C616.282 59.7509 617.16 61.5106 617.841 63.1352L623.374 60.8148C622.582 58.926 621.59 56.9458 620.407 54.8766L615.198 57.8534ZM617.874 63.2098C618.639 64.9043 619.319 66.5653 619.916 68.1928L625.549 66.1272C624.899 64.3547 624.163 62.559 623.342 60.7402L617.874 63.2098ZM625.56 68.1632C626.164 66.4606 626.824 64.7562 627.539 63.0502L622.006 60.7298C621.248 62.5371 620.548 64.3461 619.905 66.1568L625.56 68.1632ZM627.539 63.0502C628.216 61.4368 629.087 59.716 630.163 57.8861L624.992 54.8439C623.802 56.8674 622.803 58.8298 622.006 60.7298L627.539 63.0502ZM630.165 57.8838L657.96 10.5388L652.786 7.50117L624.991 54.8462L630.165 57.8838ZM657.987 10.4908C658.33 9.88216 658.809 9.27072 659.46 8.66315L655.366 4.27683C654.317 5.25593 653.436 6.34449 652.758 7.54922L657.987 10.4908ZM659.464 8.65861C659.737 8.40344 660.128 8.19499 660.898 8.19499V2.19499C658.834 2.19499 656.902 2.83655 655.361 4.28138L659.464 8.65861ZM660.898 8.19499H675.518V2.19499H660.898V8.19499ZM672.956 3.63364L628.246 76.9886L633.369 80.1113L678.079 6.75634L672.956 3.63364ZM741.778 81.44V78.44H738.778V81.44H741.778ZM741.778 127V130H744.778V127H741.778ZM725.373 127H722.373V130H725.373V127ZM725.373 5.19499V2.19499H722.373V5.19499H725.373ZM781.388 7.915L780.474 10.7723L780.49 10.7777L780.508 10.7829L781.388 7.915ZM795.583 15.48L793.602 17.7335V17.7335L795.583 15.48ZM803.913 27.38L801.118 28.4706L801.124 28.4854L801.13 28.5L803.913 27.38ZM794.988 70.645L793.003 68.3955L792.995 68.4028L792.986 68.4101L794.988 70.645ZM780.793 78.635L781.733 81.4839L781.746 81.4797L781.759 81.4753L780.793 78.635ZM741.778 68.35H738.778V71.35H741.778V68.35ZM773.738 66.48L772.763 63.6429L772.756 63.6453L772.749 63.6477L773.738 66.48ZM782.833 61.295L784.848 63.5172L784.862 63.5044L784.876 63.4916L782.833 61.295ZM788.358 53.22L791.143 54.3342L788.358 53.22ZM783.003 24.745L780.976 26.9565L780.982 26.9624L780.989 26.9684L783.003 24.745ZM741.778 18.2V15.2H738.778V18.2H741.778ZM738.778 81.44V127H744.778V81.44H738.778ZM741.778 124H725.373V130H741.778V124ZM728.373 127V5.19499H722.373V127H728.373ZM725.373 8.19499H761.328V2.19499H725.373V8.19499ZM761.328 8.19499C768.811 8.19499 775.175 9.07669 780.474 10.7723L782.302 5.05773C776.267 3.12663 769.258 2.19499 761.328 2.19499V8.19499ZM780.508 10.7829C785.906 12.4398 790.239 14.7781 793.602 17.7335L797.563 13.2265C793.446 9.60859 788.317 6.90355 782.268 5.04705L780.508 10.7829ZM793.602 17.7335C796.981 20.7027 799.479 24.2703 801.118 28.4706L806.708 26.2894C804.72 21.1964 801.664 16.8307 797.563 13.2265L793.602 17.7335ZM801.13 28.5C802.837 32.7435 803.718 37.5412 803.718 42.935H809.718C809.718 36.8822 808.728 31.3098 806.696 26.26L801.13 28.5ZM803.718 42.935C803.718 48.2455 802.79 53.0286 800.979 57.3243L806.507 59.6557C808.662 54.5447 809.718 48.9579 809.718 42.935H803.718ZM800.979 57.3243C799.172 61.6095 796.521 65.2915 793.003 68.3955L796.973 72.8945C801.162 69.1984 804.347 64.7771 806.507 59.6557L800.979 57.3243ZM792.986 68.4101C789.539 71.4979 785.177 73.9757 779.827 75.7947L781.759 81.4753C787.742 79.441 792.844 76.5921 796.989 72.8798L792.986 68.4101ZM779.853 75.7861C774.549 77.5364 768.388 78.44 761.328 78.44V84.44C768.888 84.44 775.704 83.4736 781.733 81.4839L779.853 75.7861ZM761.328 78.44H741.778V84.44H761.328V78.44ZM741.778 71.35H761.328V65.35H741.778V71.35ZM761.328 71.35C766.289 71.35 770.772 70.6933 774.727 69.3123L772.749 63.6477C769.563 64.7601 765.773 65.35 761.328 65.35V71.35ZM774.713 69.3171C778.661 67.9598 782.064 66.0421 784.848 63.5172L780.817 59.0728C778.728 60.9679 776.068 62.5069 772.763 63.6429L774.713 69.3171ZM784.876 63.4916C787.64 60.9206 789.734 57.8583 791.143 54.3342L785.572 52.1058C784.489 54.815 782.899 57.1361 780.789 59.0984L784.876 63.4916ZM791.143 54.3342C792.547 50.8249 793.228 47.0131 793.228 42.935H787.228C787.228 46.3368 786.662 49.3818 785.572 52.1058L791.143 54.3342ZM793.228 42.935C793.228 34.5041 790.583 27.5639 785.017 22.5216L780.989 26.9684C785.056 30.6527 787.228 35.8393 787.228 42.935H793.228ZM785.03 22.5335C779.496 17.4604 771.402 15.2 761.328 15.2V21.2C770.634 21.2 776.99 23.303 780.976 26.9565L785.03 22.5335ZM761.328 15.2H741.778V21.2H761.328V15.2ZM738.778 18.2V68.35H744.778V18.2H738.778ZM844.089 113.145H841.089V116.145H844.089V113.145ZM896.789 113.145H899.789V110.145H896.789V113.145ZM896.789 127V130H899.789V127H896.789ZM827.599 127H824.599V130H827.599V127ZM827.599 5.19499V2.19499H824.599V5.19499H827.599ZM844.089 5.19499H847.089V2.19499H844.089V5.19499ZM844.089 116.145H896.789V110.145H844.089V116.145ZM893.789 113.145V127H899.789V113.145H893.789ZM896.789 124H827.599V130H896.789V124ZM830.599 127V5.19499H824.599V127H830.599ZM827.599 8.19499H844.089V2.19499H827.599V8.19499ZM841.089 5.19499V113.145H847.089V5.19499H841.089ZM1015.14 127V130H1019.57L1017.92 125.886L1015.14 127ZM998.818 125.895L996.926 128.223L998.818 125.895ZM996.778 123.09L993.98 124.173L993.986 124.189L993.992 124.204L996.778 123.09ZM985.388 93.68L988.185 92.5966L987.443 90.68H985.388V93.68ZM930.733 93.68V90.68H928.678L927.935 92.5966L930.733 93.68ZM919.343 123.09L922.139 124.177L922.14 124.173L919.343 123.09ZM900.983 127L898.197 125.886L896.552 130H900.983V127ZM949.688 5.19499V2.19499H947.656L946.902 4.08115L949.688 5.19499ZM966.433 5.19499L969.218 4.08115L968.464 2.19499H966.433V5.19499ZM935.323 81.78L932.525 80.6982L930.947 84.78H935.323V81.78ZM980.798 81.78V84.78H985.171L983.597 80.6998L980.798 81.78ZM961.673 32.225L964.472 31.1448L964.462 31.1189L964.451 31.0931L961.673 32.225ZM958.018 20.75L960.922 19.9971L958.068 8.98763L955.12 19.9726L958.018 20.75ZM956.148 27.21L953.286 26.3105L953.278 26.3369L953.27 26.3635L956.148 27.21ZM954.448 32.31L957.246 33.3918L957.248 33.3869L954.448 32.31ZM1015.14 124H1002.39V130H1015.14V124ZM1002.39 124C1001.42 124 1000.95 123.765 1000.71 123.567L996.926 128.223C998.495 129.498 1000.41 130 1002.39 130V124ZM1000.71 123.567C1000.22 123.167 999.836 122.657 999.563 121.976L993.992 124.204C994.627 125.79 995.605 127.15 996.926 128.223L1000.71 123.567ZM999.575 122.007L988.185 92.5966L982.59 94.7634L993.98 124.173L999.575 122.007ZM985.388 90.68H930.733V96.68H985.388V90.68ZM927.935 92.5966L916.545 122.007L922.14 124.173L933.53 94.7634L927.935 92.5966ZM916.547 122.003C916.361 122.48 916.019 122.981 915.396 123.494L919.21 128.126C920.513 127.052 921.531 125.74 922.139 124.177L916.547 122.003ZM915.396 123.494C915.042 123.786 914.553 124 913.733 124V130C915.746 130 917.637 129.421 919.21 128.126L915.396 123.494ZM913.733 124H900.983V130H913.733V124ZM903.768 128.114L952.473 6.30883L946.902 4.08115L898.197 125.886L903.768 128.114ZM949.688 8.19499H966.433V2.19499H949.688V8.19499ZM963.647 6.30883L1012.35 128.114L1017.92 125.886L969.218 4.08115L963.647 6.30883ZM935.323 84.78H980.798V78.78H935.323V84.78ZM983.597 80.6998L964.472 31.1448L958.874 33.3052L977.999 82.8602L983.597 80.6998ZM964.451 31.0931C963.271 28.1968 962.091 24.5085 960.922 19.9971L955.114 21.5029C956.324 26.1715 957.581 30.1332 958.895 33.3569L964.451 31.0931ZM955.12 19.9726C954.506 22.2612 953.895 24.3733 953.286 26.3105L959.01 28.1095C959.648 26.08 960.283 23.8855 960.915 21.5274L955.12 19.9726ZM953.27 26.3635C952.72 28.2321 952.179 29.8525 951.648 31.2331L957.248 33.3869C957.85 31.8208 958.442 30.0412 959.026 28.0565L953.27 26.3635ZM951.65 31.2282L932.525 80.6982L938.121 82.8618L957.246 33.3918L951.65 31.2282ZM1063.44 78.55L1060.88 76.9886L1060.44 77.7078V78.55H1063.44ZM1063.44 127V130H1066.44V127H1063.44ZM1047.04 127H1044.04V130H1047.04V127ZM1047.04 78.55H1050.04V77.7092L1049.6 76.9908L1047.04 78.55ZM1002.41 5.19499V2.19499H997.078L999.851 6.75417L1002.41 5.19499ZM1022.56 9.02L1019.96 10.5231L1019.97 10.5327L1019.97 10.5423L1022.56 9.02ZM1050.44 56.365L1053.04 54.8766L1053.03 54.8596L1053.02 54.8427L1050.44 56.365ZM1053.24 61.975L1050.48 63.1352L1050.49 63.1727L1050.51 63.2098L1053.24 61.975ZM1055.37 67.16L1052.55 68.1928L1055.42 76.0006L1058.2 68.1632L1055.37 67.16ZM1057.41 61.89L1060.18 63.0502L1057.41 61.89ZM1060.21 56.365L1062.8 57.8861L1062.8 57.8838L1060.21 56.365ZM1088.01 9.02L1090.6 10.5388L1090.61 10.5149L1090.62 10.4908L1088.01 9.02ZM1090.05 6.46999L1092.1 8.66316L1092.1 8.65861L1090.05 6.46999ZM1108.15 5.19499L1110.72 6.75634L1113.5 2.19499H1108.15V5.19499ZM1060.44 78.55V127H1066.44V78.55H1060.44ZM1063.44 124H1047.04V130H1063.44V124ZM1050.04 127V78.55H1044.04V127H1050.04ZM1049.6 76.9908L1004.98 3.63581L999.851 6.75417L1044.48 80.1092L1049.6 76.9908ZM1002.41 8.19499H1016.86V2.19499H1002.41V8.19499ZM1016.86 8.19499C1017.84 8.19499 1018.23 8.43348 1018.38 8.56706L1022.31 4.03293C1020.77 2.69317 1018.83 2.19499 1016.86 2.19499V8.19499ZM1018.38 8.56706C1018.96 9.06401 1019.49 9.70399 1019.96 10.5231L1025.16 7.5169C1024.38 6.18267 1023.44 5.00931 1022.31 4.03293L1018.38 8.56706ZM1019.97 10.5423L1047.85 57.8873L1053.02 54.8427L1025.14 7.49772L1019.97 10.5423ZM1047.83 57.8534C1048.92 59.7509 1049.8 61.5106 1050.48 63.1352L1056.01 60.8148C1055.22 58.926 1054.23 56.9458 1053.04 54.8766L1047.83 57.8534ZM1050.51 63.2098C1051.28 64.9043 1051.96 66.5653 1052.55 68.1928L1058.19 66.1272C1057.54 64.3547 1056.8 62.559 1055.98 60.7402L1050.51 63.2098ZM1058.2 68.1632C1058.8 66.4606 1059.46 64.7562 1060.18 63.0502L1054.64 60.7298C1053.88 62.5371 1053.18 64.3461 1052.54 66.1568L1058.2 68.1632ZM1060.18 63.0502C1060.85 61.4368 1061.72 59.716 1062.8 57.8861L1057.63 54.8439C1056.44 56.8674 1055.44 58.8298 1054.64 60.7298L1060.18 63.0502ZM1062.8 57.8838L1090.6 10.5388L1085.42 7.50117L1057.63 54.8462L1062.8 57.8838ZM1090.62 10.4908C1090.97 9.88216 1091.45 9.27072 1092.1 8.66315L1088 4.27683C1086.95 5.25593 1086.07 6.34449 1085.39 7.54922L1090.62 10.4908ZM1092.1 8.65861C1092.37 8.40344 1092.77 8.19499 1093.53 8.19499V2.19499C1091.47 2.19499 1089.54 2.83655 1088 4.28138L1092.1 8.65861ZM1093.53 8.19499H1108.15V2.19499H1093.53V8.19499ZM1105.59 3.63364L1060.88 76.9886L1066.01 80.1113L1110.72 6.75634L1105.59 3.63364ZM1139.93 113.145H1136.93V116.145H1139.93V113.145ZM1192.63 113.145H1195.63V110.145H1192.63V113.145ZM1192.63 127V130H1195.63V127H1192.63ZM1123.44 127H1120.44V130H1123.44V127ZM1123.44 5.19499V2.19499H1120.44V5.19499H1123.44ZM1139.93 5.19499H1142.93V2.19499H1139.93V5.19499ZM1139.93 116.145H1192.63V110.145H1139.93V116.145ZM1189.63 113.145V127H1195.63V113.145H1189.63ZM1192.63 124H1123.44V130H1192.63V124ZM1126.44 127V5.19499H1120.44V127H1126.44ZM1123.44 8.19499H1139.93V2.19499H1123.44V8.19499ZM1136.93 5.19499V113.145H1142.93V5.19499H1136.93ZM1230.31 127V130H1233.31V127H1230.31ZM1213.82 127H1210.82V130H1213.82V127ZM1213.82 5.19499V2.19499H1210.82V5.19499H1213.82ZM1230.31 5.19499H1233.31V2.19499H1230.31V5.19499ZM1230.31 124H1213.82V130H1230.31V124ZM1216.82 127V5.19499H1210.82V127H1216.82ZM1213.82 8.19499H1230.31V2.19499H1213.82V8.19499ZM1227.31 5.19499V127H1233.31V5.19499H1227.31ZM1325.28 24.235L1327.85 25.7785L1327.91 25.6908L1327.95 25.5998L1325.28 24.235ZM1323.67 26.19L1325.39 28.6477L1325.47 28.5926L1325.54 28.5326L1323.67 26.19ZM1318.06 25.34L1316.22 27.7138L1316.25 27.7335L1316.27 27.7525L1318.06 25.34ZM1313.21 22.195L1311.64 24.7474L1311.68 24.7743L1311.72 24.7997L1313.21 22.195ZM1306.16 18.965L1305.16 21.7929L1305.16 21.7961L1305.17 21.7993L1306.16 18.965ZM1286.44 19.05L1287.4 21.8903L1287.43 21.8817L1287.45 21.8727L1286.44 19.05ZM1279.3 23.045L1277.31 20.7955L1277.3 20.8102L1277.28 20.8252L1279.3 23.045ZM1275.05 29.08L1277.81 30.2534L1277.81 30.2412L1277.82 30.229L1275.05 29.08ZM1276.07 44.975L1273.64 46.7359L1273.66 46.7704L1273.69 46.8041L1276.07 44.975ZM1282.7 50.67L1281.18 53.2613L1281.2 53.2681L1281.21 53.2747L1282.7 50.67ZM1292.05 54.835L1291.07 57.6716L1291.1 57.6811L1291.13 57.6901L1292.05 54.835ZM1302.76 58.405L1301.78 61.2421L1301.79 61.2444L1301.79 61.2466L1302.76 58.405ZM1313.47 62.655L1312.22 65.3815L1312.24 65.3938L1312.27 65.4055L1313.47 62.655ZM1322.82 68.52L1320.84 70.7777L1320.85 70.7878L1320.86 70.7978L1322.82 68.52ZM1329.45 77.275L1326.74 78.5631L1326.75 78.5811L1326.75 78.599L1329.45 77.275ZM1329.28 105.07L1332.07 106.161L1332.08 106.149L1329.28 105.07ZM1321.29 117.225L1319.18 115.087L1319.17 115.095L1319.17 115.104L1321.29 117.225ZM1308.45 125.385L1307.36 122.589L1307.35 122.593L1308.45 125.385ZM1269.61 124.11L1268.38 126.848L1268.4 126.855L1268.41 126.861L1269.61 124.11ZM1253.03 112.465L1250.47 110.905L1249.28 112.858L1250.85 114.522L1253.03 112.465ZM1257.79 104.645L1255.37 102.88L1255.29 102.98L1255.23 103.085L1257.79 104.645ZM1259.41 103.115L1261.02 105.646L1261.04 105.629L1261.07 105.611L1259.41 103.115ZM1265.7 104.39L1263.75 106.674L1263.78 106.695L1263.8 106.716L1265.7 104.39ZM1271.39 108.555L1269.71 111.042L1269.73 111.051L1269.74 111.061L1271.39 108.555ZM1279.72 112.805L1278.6 115.587L1278.63 115.599L1278.66 115.61L1279.72 112.805ZM1302.16 113.06L1303.16 115.89L1302.16 113.06ZM1309.9 108.555L1311.93 110.764L1311.93 110.762L1309.9 108.555ZM1314.83 101.5L1312.06 100.346V100.346L1314.83 101.5ZM1313.98 83.395L1311.51 85.0996L1311.53 85.1334L1311.56 85.1665L1313.98 83.395ZM1307.43 77.445L1305.92 80.0363L1307.43 77.445ZM1298.08 73.45L1297.15 76.3007L1297.17 76.3098L1297.2 76.3183L1298.08 73.45ZM1287.37 70.05L1286.44 72.9005L1286.46 72.9091L1286.49 72.9173L1287.37 70.05ZM1276.66 65.97L1275.45 68.7133L1275.46 68.7169L1275.46 68.7205L1276.66 65.97ZM1267.4 60.02L1269.4 57.7855L1267.4 60.02ZM1260.77 50.925L1258.03 52.1473L1258.04 52.1729L1258.05 52.1983L1260.77 50.925ZM1260.77 24.83L1258 23.6623L1258 23.6789L1257.99 23.6956L1260.77 24.83ZM1268.08 14.12L1265.97 11.9796V11.9797L1268.08 14.12ZM1279.81 6.64L1278.7 3.85223L1278.69 3.85691L1279.81 6.64ZM1314.57 7.065L1313.5 9.86576L1314.57 7.065ZM1329.28 16.415L1331.95 17.7798L1332.96 15.8085L1331.37 14.2648L1329.28 16.415ZM1322.71 22.6915C1322.32 23.3401 1322 23.6819 1321.79 23.8474L1325.54 28.5326C1326.47 27.7914 1327.22 26.8299 1327.85 25.7785L1322.71 22.6915ZM1321.95 23.7323C1322.02 23.681 1321.94 23.785 1321.46 23.785V29.785C1322.79 29.785 1324.18 29.4924 1325.39 28.6477L1321.95 23.7323ZM1321.46 23.785C1321.47 23.785 1321.35 23.788 1321.06 23.6628C1320.76 23.5374 1320.36 23.3106 1319.84 22.9275L1316.27 27.7525C1317.77 28.8618 1319.54 29.785 1321.46 29.785V23.785ZM1319.89 22.9661C1318.5 21.8895 1316.76 20.7648 1314.7 19.5903L1311.72 24.7997C1313.63 25.8919 1315.12 26.8638 1316.22 27.7138L1319.89 22.9661ZM1314.79 19.6426C1312.63 18.309 1310.07 17.146 1307.14 16.1307L1305.17 21.7993C1307.8 22.7107 1309.94 23.701 1311.64 24.7474L1314.79 19.6426ZM1307.16 16.1371C1304.02 15.0274 1300.35 14.52 1296.21 14.52V20.52C1299.89 20.52 1302.85 20.9759 1305.16 21.7929L1307.16 16.1371ZM1296.21 14.52C1292.26 14.52 1288.64 15.0671 1285.42 16.2273L1287.45 21.8727C1289.9 20.9929 1292.8 20.52 1296.21 20.52V14.52ZM1285.47 16.2097C1282.32 17.2799 1279.58 18.7936 1277.31 20.7955L1281.28 25.2945C1282.87 23.8964 1284.88 22.7468 1287.4 21.8903L1285.47 16.2097ZM1277.28 20.8252C1275.08 22.8208 1273.41 25.1976 1272.28 27.9309L1277.82 30.229C1278.61 28.3158 1279.77 26.6692 1281.31 25.2648L1277.28 20.8252ZM1272.29 27.9066C1271.15 30.5737 1270.6 33.4416 1270.6 36.475H1276.6C1276.6 34.1817 1277.01 32.1196 1277.81 30.2534L1272.29 27.9066ZM1270.6 36.475C1270.6 40.3691 1271.55 43.8555 1273.64 46.7359L1278.5 43.2141C1277.3 41.5612 1276.6 39.3809 1276.6 36.475H1270.6ZM1273.69 46.8041C1275.65 49.3592 1278.17 51.5042 1281.18 53.2613L1284.21 48.0787C1281.78 46.6624 1279.88 45.0108 1278.44 43.1459L1273.69 46.8041ZM1281.21 53.2747C1284.17 54.9666 1287.46 56.429 1291.07 57.6716L1293.02 51.9984C1289.72 50.861 1286.78 49.5467 1284.18 48.0653L1281.21 53.2747ZM1291.13 57.6901C1294.62 58.8174 1298.17 60.0013 1301.78 61.2421L1303.73 55.5679C1300.09 54.3153 1296.5 53.1193 1292.97 51.9799L1291.13 57.6901ZM1301.79 61.2466C1305.38 62.4607 1308.85 63.8392 1312.22 65.3815L1314.72 59.9285C1311.16 58.2975 1307.5 56.8426 1303.72 55.5633L1301.79 61.2466ZM1312.27 65.4055C1315.52 66.8197 1318.37 68.613 1320.84 70.7777L1324.79 66.2623C1321.83 63.667 1318.44 61.5503 1314.66 59.9045L1312.27 65.4055ZM1320.86 70.7978C1323.31 72.8918 1325.27 75.4676 1326.74 78.5631L1332.16 75.9869C1330.34 72.1691 1327.88 68.9082 1324.77 66.2422L1320.86 70.7978ZM1326.75 78.599C1328.2 81.5366 1329 85.3043 1329 90.025H1335C1335 84.659 1334.09 79.9267 1332.14 75.951L1326.75 78.599ZM1329 90.025C1329 95.0038 1328.15 99.651 1326.48 103.991L1332.08 106.149C1334.03 101.082 1335 95.6995 1335 90.025H1329ZM1326.48 103.979C1324.82 108.237 1322.39 111.93 1319.18 115.087L1323.39 119.363C1327.21 115.606 1330.11 111.196 1332.07 106.161L1326.48 103.979ZM1319.17 115.104C1316.04 118.233 1312.12 120.738 1307.36 122.589L1309.54 128.181C1314.98 126.065 1319.62 123.13 1323.41 119.346L1319.17 115.104ZM1307.35 122.593C1302.72 124.415 1297.35 125.36 1291.2 125.36V131.36C1297.96 131.36 1304.1 130.321 1309.55 128.177L1307.35 122.593ZM1291.2 125.36C1283.69 125.36 1276.9 124.011 1270.8 121.359L1268.41 126.861C1275.34 129.876 1282.95 131.36 1291.2 131.36V125.36ZM1270.83 121.372C1264.71 118.634 1259.52 114.977 1255.22 110.408L1250.85 114.522C1255.72 119.7 1261.58 123.806 1268.38 126.848L1270.83 121.372ZM1255.59 114.025L1260.35 106.205L1255.23 103.085L1250.47 110.905L1255.59 114.025ZM1260.22 106.41C1260.46 106.077 1260.72 105.832 1261.02 105.646L1257.8 100.584C1256.84 101.191 1256.03 101.966 1255.37 102.88L1260.22 106.41ZM1261.07 105.611C1261.27 105.476 1261.43 105.435 1261.62 105.435V99.435C1260.21 99.435 1258.9 99.8475 1257.74 100.619L1261.07 105.611ZM1261.62 105.435C1261.74 105.435 1262.42 105.54 1263.75 106.674L1267.64 102.106C1265.91 100.633 1263.87 99.435 1261.62 99.435V105.435ZM1263.8 106.716C1265.42 108.036 1267.4 109.479 1269.71 111.042L1273.07 106.068C1270.85 104.571 1269.03 103.237 1267.59 102.064L1263.8 106.716ZM1269.74 111.061C1272.27 112.723 1275.23 114.227 1278.6 115.587L1280.84 110.023C1277.75 108.776 1275.16 107.447 1273.04 106.049L1269.74 111.061ZM1278.66 115.61C1282.38 117.021 1286.76 117.675 1291.71 117.675V111.675C1287.25 111.675 1283.64 111.082 1280.79 110L1278.66 115.61ZM1291.71 117.675C1295.89 117.675 1299.72 117.1 1303.16 115.89L1301.17 110.23C1298.48 111.174 1295.34 111.675 1291.71 111.675V117.675ZM1303.16 115.89C1306.55 114.697 1309.49 113.001 1311.93 110.764L1307.87 106.346C1306.11 107.962 1303.9 109.27 1301.17 110.23L1303.16 115.89ZM1311.93 110.762C1314.4 108.483 1316.3 105.771 1317.6 102.654L1312.06 100.346C1311.09 102.669 1309.7 104.661 1307.86 106.348L1311.93 110.762ZM1317.6 102.654C1318.9 99.5222 1319.53 96.0913 1319.53 92.405H1313.53C1313.53 95.4053 1313.02 98.0378 1312.06 100.346L1317.6 102.654ZM1319.53 92.405C1319.53 88.2634 1318.57 84.5885 1316.4 81.6235L1311.56 85.1665C1312.79 86.8482 1313.53 89.1799 1313.53 92.405H1319.53ZM1316.45 81.6904C1314.53 78.917 1312.01 76.6422 1308.94 74.8537L1305.92 80.0363C1308.29 81.4212 1310.14 83.113 1311.51 85.0996L1316.45 81.6904ZM1308.94 74.8537C1305.99 73.1332 1302.66 71.7151 1298.96 70.5817L1297.2 76.3183C1300.53 77.3383 1303.43 78.5835 1305.92 80.0363L1308.94 74.8537ZM1299.02 70.5993C1295.54 69.4599 1291.95 68.3211 1288.25 67.1827L1286.49 72.9173C1290.16 74.0456 1293.71 75.1734 1297.15 76.3007L1299.02 70.5993ZM1288.31 67.1995C1284.77 66.0388 1281.29 64.7122 1277.86 63.2195L1275.46 68.7205C1279.06 70.2878 1282.72 71.6811 1286.44 72.9005L1288.31 67.1995ZM1277.88 63.2267C1274.7 61.8195 1271.88 60.005 1269.4 57.7855L1265.39 62.2545C1268.36 64.9083 1271.71 67.0605 1275.45 68.7133L1277.88 63.2267ZM1269.4 57.7855C1267.01 55.643 1265.03 52.9487 1263.48 49.6517L1258.05 52.1983C1259.9 56.1546 1262.35 59.5237 1265.39 62.2545L1269.4 57.7855ZM1263.51 49.7027C1262.08 46.5098 1261.3 42.4209 1261.3 37.325H1255.3C1255.3 42.9958 1256.16 47.9735 1258.03 52.1473L1263.51 49.7027ZM1261.3 37.325C1261.3 33.4109 1262.05 29.631 1263.54 25.9644L1257.99 23.6956C1256.2 28.0757 1255.3 32.6257 1255.3 37.325H1261.3ZM1263.53 25.9977C1265.07 22.3458 1267.28 19.1048 1270.18 16.2603L1265.97 11.9797C1262.52 15.3685 1259.86 19.2675 1258 23.6623L1263.53 25.9977ZM1270.18 16.2603C1273.04 13.4533 1276.6 11.1641 1280.93 9.42308L1278.69 3.85691C1273.72 5.85585 1269.46 8.55335 1265.97 11.9796L1270.18 16.2603ZM1280.91 9.42774C1285.2 7.72274 1290.2 6.83499 1295.96 6.83499V0.834991C1289.59 0.834991 1283.82 1.81724 1278.7 3.85226L1280.91 9.42774ZM1295.96 6.83499C1302.44 6.83499 1308.27 7.86029 1313.5 9.86576L1315.65 4.26423C1309.65 1.96303 1303.08 0.834991 1295.96 0.834991V6.83499ZM1313.5 9.86576C1318.74 11.8774 1323.29 14.7765 1327.18 18.5652L1331.37 14.2648C1326.88 9.89352 1321.63 6.55923 1315.65 4.26423L1313.5 9.86576ZM1326.6 15.0502L1322.61 22.8702L1327.95 25.5998L1331.95 17.7798L1326.6 15.0502ZM1436 5.19499H1439V2.19499H1436V5.19499ZM1436 19.05V22.05H1439V19.05H1436ZM1396.64 19.05V16.05H1393.64V19.05H1396.64ZM1396.64 127V130H1399.64V127H1396.64ZM1380.15 127H1377.15V130H1380.15V127ZM1380.15 19.05H1383.15V16.05H1380.15V19.05ZM1340.63 19.05H1337.63V22.05H1340.63V19.05ZM1340.63 5.19499V2.19499H1337.63V5.19499H1340.63ZM1433 5.19499V19.05H1439V5.19499H1433ZM1436 16.05H1396.64V22.05H1436V16.05ZM1393.64 19.05V127H1399.64V19.05H1393.64ZM1396.64 124H1380.15V130H1396.64V124ZM1383.15 127V19.05H1377.15V127H1383.15ZM1380.15 16.05H1340.63V22.05H1380.15V16.05ZM1343.63 19.05V5.19499H1337.63V19.05H1343.63ZM1340.63 8.19499H1436V2.19499H1340.63V8.19499ZM1515.7 24.235L1518.27 25.7785L1518.33 25.6908L1518.37 25.5998L1515.7 24.235ZM1514.09 26.19L1515.81 28.6477L1515.89 28.5926L1515.96 28.5326L1514.09 26.19ZM1508.48 25.34L1506.64 27.7138L1506.67 27.7335L1506.69 27.7525L1508.48 25.34ZM1503.63 22.195L1502.06 24.7474L1502.1 24.7743L1502.14 24.7997L1503.63 22.195ZM1496.58 18.965L1495.57 21.7929L1495.58 21.7961L1495.59 21.7993L1496.58 18.965ZM1476.86 19.05L1477.82 21.8903L1477.85 21.8817L1477.87 21.8727L1476.86 19.05ZM1469.72 23.045L1467.73 20.7955L1467.71 20.8102L1467.7 20.8252L1469.72 23.045ZM1465.47 29.08L1468.23 30.2534L1468.23 30.2412L1468.24 30.229L1465.47 29.08ZM1466.49 44.975L1464.06 46.7359L1464.08 46.7704L1464.11 46.8041L1466.49 44.975ZM1473.12 50.67L1471.6 53.2613L1471.62 53.2681L1471.63 53.2747L1473.12 50.67ZM1482.47 54.835L1481.49 57.6716L1481.52 57.6811L1481.55 57.6901L1482.47 54.835ZM1493.18 58.405L1492.2 61.2421L1492.21 61.2444L1492.21 61.2466L1493.18 58.405ZM1503.89 62.655L1502.64 65.3815L1502.66 65.3938L1502.69 65.4055L1503.89 62.655ZM1513.24 68.52L1511.26 70.7777L1511.27 70.7878L1511.28 70.7978L1513.24 68.52ZM1519.87 77.275L1517.16 78.5631L1517.17 78.5811L1517.17 78.599L1519.87 77.275ZM1519.7 105.07L1522.49 106.161L1522.5 106.149L1519.7 105.07ZM1511.71 117.225L1509.6 115.087L1509.59 115.095L1509.59 115.104L1511.71 117.225ZM1498.87 125.385L1497.78 122.589L1497.77 122.593L1498.87 125.385ZM1460.03 124.11L1458.8 126.848L1458.82 126.855L1458.83 126.861L1460.03 124.11ZM1443.45 112.465L1440.89 110.905L1439.7 112.858L1441.27 114.522L1443.45 112.465ZM1448.21 104.645L1445.79 102.88L1445.71 102.98L1445.65 103.085L1448.21 104.645ZM1449.83 103.115L1451.44 105.646L1451.46 105.629L1451.49 105.611L1449.83 103.115ZM1456.12 104.39L1454.17 106.674L1454.2 106.695L1454.22 106.716L1456.12 104.39ZM1461.81 108.555L1460.13 111.042L1460.15 111.051L1460.16 111.061L1461.81 108.555ZM1470.14 112.805L1469.02 115.587L1469.05 115.599L1469.08 115.61L1470.14 112.805ZM1492.58 113.06L1493.58 115.89L1492.58 113.06ZM1500.32 108.555L1502.35 110.764L1502.35 110.762L1500.32 108.555ZM1505.25 101.5L1502.48 100.346V100.346L1505.25 101.5ZM1504.4 83.395L1501.93 85.0996L1501.95 85.1334L1501.98 85.1665L1504.4 83.395ZM1497.85 77.445L1496.34 80.0363L1497.85 77.445ZM1488.5 73.45L1487.57 76.3007L1487.59 76.3098L1487.62 76.3183L1488.5 73.45ZM1477.79 70.05L1476.86 72.9005L1476.88 72.9091L1476.91 72.9173L1477.79 70.05ZM1467.08 65.97L1465.87 68.7133L1465.88 68.7169L1465.88 68.7205L1467.08 65.97ZM1457.82 60.02L1459.82 57.7855L1457.82 60.02ZM1451.19 50.925L1448.45 52.1473L1448.46 52.1729L1448.47 52.1983L1451.19 50.925ZM1451.19 24.83L1448.42 23.6623L1448.42 23.6789L1448.41 23.6956L1451.19 24.83ZM1458.5 14.12L1456.39 11.9796V11.9797L1458.5 14.12ZM1470.23 6.64L1469.12 3.85223L1469.11 3.85691L1470.23 6.64ZM1504.99 7.065L1503.92 9.86576L1504.99 7.065ZM1519.7 16.415L1522.37 17.7798L1523.38 15.8085L1521.79 14.2648L1519.7 16.415ZM1513.13 22.6915C1512.74 23.3401 1512.42 23.6819 1512.21 23.8474L1515.96 28.5326C1516.89 27.7914 1517.64 26.8299 1518.27 25.7785L1513.13 22.6915ZM1512.37 23.7323C1512.44 23.681 1512.36 23.785 1511.88 23.785V29.785C1513.21 29.785 1514.6 29.4924 1515.81 28.6477L1512.37 23.7323ZM1511.88 23.785C1511.89 23.785 1511.77 23.788 1511.48 23.6628C1511.18 23.5374 1510.78 23.3106 1510.26 22.9275L1506.69 27.7525C1508.19 28.8618 1509.96 29.785 1511.88 29.785V23.785ZM1510.31 22.9661C1508.92 21.8895 1507.18 20.7648 1505.12 19.5903L1502.14 24.7997C1504.05 25.8919 1505.54 26.8638 1506.64 27.7138L1510.31 22.9661ZM1505.21 19.6426C1503.05 18.309 1500.49 17.146 1497.56 16.1307L1495.59 21.7993C1498.22 22.7107 1500.36 23.701 1502.06 24.7474L1505.21 19.6426ZM1497.58 16.1371C1494.44 15.0274 1490.77 14.52 1486.63 14.52V20.52C1490.31 20.52 1493.27 20.9759 1495.57 21.7929L1497.58 16.1371ZM1486.63 14.52C1482.68 14.52 1479.06 15.0671 1475.84 16.2273L1477.87 21.8727C1480.32 20.9929 1483.22 20.52 1486.63 20.52V14.52ZM1475.89 16.2097C1472.74 17.2799 1470 18.7936 1467.73 20.7955L1471.7 25.2945C1473.29 23.8964 1475.3 22.7468 1477.82 21.8903L1475.89 16.2097ZM1467.7 20.8252C1465.5 22.8208 1463.83 25.1976 1462.7 27.9309L1468.24 30.229C1469.03 28.3158 1470.19 26.6692 1471.73 25.2648L1467.7 20.8252ZM1462.71 27.9066C1461.57 30.5737 1461.02 33.4416 1461.02 36.475H1467.02C1467.02 34.1817 1467.43 32.1196 1468.23 30.2534L1462.71 27.9066ZM1461.02 36.475C1461.02 40.3691 1461.97 43.8555 1464.06 46.7359L1468.92 43.2141C1467.72 41.5612 1467.02 39.3809 1467.02 36.475H1461.02ZM1464.11 46.8041C1466.07 49.3592 1468.59 51.5042 1471.6 53.2613L1474.63 48.0787C1472.2 46.6624 1470.3 45.0108 1468.86 43.1459L1464.11 46.8041ZM1471.63 53.2747C1474.59 54.9666 1477.88 56.429 1481.49 57.6716L1483.44 51.9984C1480.14 50.861 1477.2 49.5467 1474.6 48.0653L1471.63 53.2747ZM1481.55 57.6901C1485.04 58.8174 1488.59 60.0013 1492.2 61.2421L1494.15 55.5679C1490.51 54.3153 1486.92 53.1193 1483.39 51.9799L1481.55 57.6901ZM1492.21 61.2466C1495.8 62.4607 1499.27 63.8392 1502.64 65.3815L1505.14 59.9285C1501.58 58.2975 1497.92 56.8426 1494.14 55.5633L1492.21 61.2466ZM1502.69 65.4055C1505.94 66.8197 1508.79 68.613 1511.26 70.7777L1515.21 66.2623C1512.25 63.667 1508.86 61.5503 1505.08 59.9045L1502.69 65.4055ZM1511.28 70.7978C1513.73 72.8918 1515.69 75.4676 1517.16 78.5631L1522.58 75.9869C1520.76 72.1691 1518.3 68.9082 1515.19 66.2422L1511.28 70.7978ZM1517.17 78.599C1518.62 81.5366 1519.42 85.3043 1519.42 90.025H1525.42C1525.42 84.659 1524.51 79.9267 1522.56 75.951L1517.17 78.599ZM1519.42 90.025C1519.42 95.0038 1518.57 99.651 1516.9 103.991L1522.5 106.149C1524.45 101.082 1525.42 95.6995 1525.42 90.025H1519.42ZM1516.9 103.979C1515.24 108.237 1512.81 111.93 1509.6 115.087L1513.81 119.363C1517.63 115.606 1520.53 111.196 1522.49 106.161L1516.9 103.979ZM1509.59 115.104C1506.46 118.233 1502.54 120.738 1497.78 122.589L1499.96 128.181C1505.4 126.065 1510.04 123.13 1513.83 119.346L1509.59 115.104ZM1497.77 122.593C1493.14 124.415 1487.77 125.36 1481.62 125.36V131.36C1488.38 131.36 1494.52 130.321 1499.97 128.177L1497.77 122.593ZM1481.62 125.36C1474.11 125.36 1467.32 124.011 1461.22 121.359L1458.83 126.861C1465.76 129.876 1473.37 131.36 1481.62 131.36V125.36ZM1461.25 121.372C1455.13 118.634 1449.94 114.977 1445.64 110.408L1441.27 114.522C1446.14 119.7 1452 123.806 1458.8 126.848L1461.25 121.372ZM1446.01 114.025L1450.77 106.205L1445.65 103.085L1440.89 110.905L1446.01 114.025ZM1450.64 106.41C1450.88 106.077 1451.14 105.832 1451.44 105.646L1448.22 100.584C1447.26 101.191 1446.45 101.966 1445.79 102.88L1450.64 106.41ZM1451.49 105.611C1451.69 105.476 1451.85 105.435 1452.04 105.435V99.435C1450.63 99.435 1449.32 99.8475 1448.16 100.619L1451.49 105.611ZM1452.04 105.435C1452.16 105.435 1452.84 105.54 1454.17 106.674L1458.06 102.106C1456.33 100.633 1454.29 99.435 1452.04 99.435V105.435ZM1454.22 106.716C1455.84 108.036 1457.82 109.479 1460.13 111.042L1463.49 106.068C1461.27 104.571 1459.45 103.237 1458.01 102.064L1454.22 106.716ZM1460.16 111.061C1462.69 112.723 1465.65 114.227 1469.02 115.587L1471.26 110.023C1468.17 108.776 1465.58 107.447 1463.46 106.049L1460.16 111.061ZM1469.08 115.61C1472.8 117.021 1477.18 117.675 1482.13 117.675V111.675C1477.67 111.675 1474.06 111.082 1471.21 110L1469.08 115.61ZM1482.13 117.675C1486.31 117.675 1490.14 117.1 1493.58 115.89L1491.59 110.23C1488.9 111.174 1485.76 111.675 1482.13 111.675V117.675ZM1493.58 115.89C1496.97 114.697 1499.91 113.001 1502.35 110.764L1498.29 106.346C1496.53 107.962 1494.32 109.27 1491.59 110.23L1493.58 115.89ZM1502.35 110.762C1504.82 108.483 1506.72 105.771 1508.02 102.654L1502.48 100.346C1501.51 102.669 1500.12 104.661 1498.28 106.348L1502.35 110.762ZM1508.02 102.654C1509.32 99.5222 1509.95 96.0913 1509.95 92.405H1503.95C1503.95 95.4053 1503.44 98.0378 1502.48 100.346L1508.02 102.654ZM1509.95 92.405C1509.95 88.2634 1508.99 84.5885 1506.82 81.6235L1501.98 85.1665C1503.21 86.8482 1503.95 89.1799 1503.95 92.405H1509.95ZM1506.87 81.6904C1504.95 78.917 1502.43 76.6422 1499.36 74.8537L1496.34 80.0363C1498.71 81.4212 1500.56 83.113 1501.93 85.0996L1506.87 81.6904ZM1499.36 74.8537C1496.41 73.1332 1493.08 71.7151 1489.38 70.5817L1487.62 76.3183C1490.95 77.3383 1493.85 78.5835 1496.34 80.0363L1499.36 74.8537ZM1489.44 70.5993C1485.96 69.4599 1482.37 68.3211 1478.67 67.1827L1476.91 72.9173C1480.58 74.0456 1484.13 75.1734 1487.57 76.3007L1489.44 70.5993ZM1478.73 67.1995C1475.19 66.0388 1471.71 64.7122 1468.28 63.2195L1465.88 68.7205C1469.48 70.2878 1473.14 71.6811 1476.86 72.9005L1478.73 67.1995ZM1468.3 63.2267C1465.12 61.8195 1462.3 60.005 1459.82 57.7855L1455.81 62.2545C1458.78 64.9083 1462.13 67.0605 1465.87 68.7133L1468.3 63.2267ZM1459.82 57.7855C1457.43 55.643 1455.45 52.9487 1453.9 49.6517L1448.47 52.1983C1450.32 56.1546 1452.77 59.5237 1455.81 62.2545L1459.82 57.7855ZM1453.93 49.7027C1452.5 46.5098 1451.72 42.4209 1451.72 37.325H1445.72C1445.72 42.9958 1446.58 47.9735 1448.45 52.1473L1453.93 49.7027ZM1451.72 37.325C1451.72 33.4109 1452.47 29.631 1453.96 25.9644L1448.41 23.6956C1446.62 28.0757 1445.72 32.6257 1445.72 37.325H1451.72ZM1453.95 25.9977C1455.49 22.3458 1457.7 19.1048 1460.6 16.2603L1456.39 11.9797C1452.94 15.3685 1450.28 19.2675 1448.42 23.6623L1453.95 25.9977ZM1460.6 16.2603C1463.46 13.4533 1467.02 11.1641 1471.35 9.42308L1469.11 3.85691C1464.14 5.85585 1459.88 8.55335 1456.39 11.9796L1460.6 16.2603ZM1471.33 9.42774C1475.62 7.72274 1480.62 6.83499 1486.38 6.83499V0.834991C1480.01 0.834991 1474.24 1.81724 1469.12 3.85226L1471.33 9.42774ZM1486.38 6.83499C1492.86 6.83499 1498.69 7.86029 1503.92 9.86576L1506.07 4.26423C1500.07 1.96303 1493.5 0.834991 1486.38 0.834991V6.83499ZM1503.92 9.86576C1509.16 11.8774 1513.71 14.7765 1517.6 18.5652L1521.79 14.2648C1517.3 9.89352 1512.05 6.55923 1506.07 4.26423L1503.92 9.86576ZM1517.02 15.0502L1513.03 22.8702L1518.37 25.5998L1522.37 17.7798L1517.02 15.0502Z"
     fill="#AEAEAE"
     id="path10"
     style="fill:#b3b3b3" />
</svg>
