<svg id="Layer_1" data-name="Layer 1" xmlns="http://www.w3.org/2000/svg" viewBox="0 0 900 600"><defs><style>.cls-1{fill:#fff;}.cls-2{fill:#ef3340;fill-rule:evenodd;}</style></defs><rect id="WhiteBackground" class="cls-1" width="900" height="600"/><g id="Sun"><path class="cls-2" d="M310.58,180c1.51-1.74,3.17-3.36,4.86-5.08s3.42-3.51,5.42-5.28c-.77.55-1.63,1.16-2.52,1.86s-1.78,1.53-2.72,2.38a73.29,73.29,0,0,0-5.73,5.6c-1.83,2-3.69,4-5.16,6s-2.77,3.8-3.69,5.29l4.84-5.62Z" transform="translate(0)"/><path class="cls-2" d="M319,170.15c4.9-4.37,11.79-10,16.24-13.79C330.21,159,322.42,166,319,170.15Z" transform="translate(0)"/><path class="cls-2" d="M349.14,150.23c.4-1.4-7.42,3.41-6,3.65C346.19,152.19,346.16,152.08,349.14,150.23Z" transform="translate(0)"/><path class="cls-2" d="M363.1,142.69l2.75-1.17c1.6-.7,2.64-1.26,2.67-1.8-1.93.68-5.09,2.63-8.86,4l.28.57C361,143.7,362.1,143.16,363.1,142.69Z" transform="translate(0)"/><path class="cls-2" d="M369.88,136.43c1-.4,2-.79,2.82-1.15,1.61-.72,2.55-1.36,2-1.8-2.73,1.19-5.29,2.29-8.22,3.71l.24.58Z" transform="translate(0)"/><path class="cls-2" d="M382.51,131.39c2.34-.88,4.54-1.79,5-2.32,2.07-.49,3.37-.56,6.17-1.43,4.08-1.8,9.9-3.18,16-4.14,3.05-.56,6.18-.82,9.19-1.27s5.93-.66,8.56-1.14c-2.27-.06-4.4-.07-6.42,0s-3.91.23-5.74.39a84,84,0,0,0-10.4,1.62c-3.39.65-6.75,1.69-10.48,2.65l-5.84,1.8c-2.06.6-4.22,1.33-6.54,2.15,1.09,1-6.41,2.72-5.39,3.78C377.64,133,380.17,132.28,382.51,131.39Z" transform="translate(0)"/><path class="cls-2" d="M447.44,120c-2.76.09-6.3.12-9.66.13a57.91,57.91,0,0,0-8.56.85c2.57-.15,6.55-.27,10.16-.27S446.25,120.57,447.44,120Z" transform="translate(0)"/><path class="cls-2" d="M462.05,120.94c-3.23-.36-7.31-1-7.34-.21C457.29,121.47,461.64,121.58,462.05,120.94Z" transform="translate(0)"/><path class="cls-2" d="M479.28,123.61c-5.59-.83-12.27-2.85-14.53-2.11,1.74.42,4.75.94,7.65,1.33A42.65,42.65,0,0,0,479.28,123.61Z" transform="translate(0)"/><path class="cls-2" d="M505.83,131.13c-3.18-1-7.17-2.66-9.67-3C498.62,128.84,504.58,131.87,505.83,131.13Z" transform="translate(0)"/><path class="cls-2" d="M525.1,140c3.26,1.56,4.44,3,6.44,3.58C533,143.29,524.56,138.62,525.1,140Z" transform="translate(0)"/><path class="cls-2" d="M576.9,178.21a73.72,73.72,0,0,0-6.84-6.26C571.94,174.67,575.9,178.16,576.9,178.21Z" transform="translate(0)"/><path class="cls-2" d="M629.8,294.87c-.17-3.08-.55-6-.88-8.6.34-.14.74-4.14-.16-3.8-.22,3.89-1.56,5.08-1.19,11.45.51.85.78,2.77.93,5.22.07,1.22.13,2.58.13,4s-.09,2.91-.14,4.4-.12,3-.18,4.39-.19,2.77-.24,4a16,16,0,0,0,.31,5.32c.37-2.19.73-4.82,1-7.7s.41-6,.54-9.18S629.91,298,629.8,294.87Z" transform="translate(0)"/><path class="cls-2" d="M616.64,366.81c5.94-16.31,9-30.32,8.16-42.17-.35,1.71-.51,3.42-.71,5.23a50.13,50.13,0,0,1-1.11,5.78c-.09,1.29.77.28.51,2a57,57,0,0,0-1.55,6.63c-.23,1.23-.45,2.44-.65,3.51s-.47,2-.68,2.61-1.27,2.26-1.59,3.44c-.48,2-1,4-1.52,6.17a61.1,61.1,0,0,1-1.85,6.47A183.37,183.37,0,0,1,605,389.66c-2,3.64-3.89,7.13-5.56,10.17a58.64,58.64,0,0,0-3.75,7.9c-7.63,11.34-16.56,20.41-22.24,26.61-.21.88,1.51.45,0,2.68a54.38,54.38,0,0,1,5.24-6.33,71,71,0,0,0,5.42-6.92c1.9-1.18,4-4.24,6.27-7.15s4.23-6,6.11-7.18c5-9.12,10-17.13,14.42-28.69,1.81-3,2.39-3.87,3.24-3.75,3.43-9,6.34-11.75,9-25-1.92,2.6-3.37,8.94-5.92,16C617.19,367.46,615.88,368.71,616.64,366.81Z" transform="translate(0)"/><path class="cls-2" d="M626.82,330.57c-.17.72-.36,1.06-.57.87-.55,3.09-1,6.2-1.66,9.27.48.24,1,.38,1.43-1.65C625.38,336.42,627.3,332,626.82,330.57Z" transform="translate(0)"/><path class="cls-2" d="M564.14,443.57c1.38-.3,6.13-5.73,7.82-6.76l-.6-.6C569.24,438.51,563.68,442.89,564.14,443.57Z" transform="translate(0)"/><path class="cls-2" d="M578.09,424.73a5.51,5.51,0,0,1,.72-1.81,11.13,11.13,0,0,0,3.65-3c10.07-13.14,18.64-26.33,25.23-40.33s11.45-28.67,13.42-44.31c.72-.73,1.29-3,1.71-5.53s.47-5.37.53-7.18a56,56,0,0,0,1.28-10.56c0-1.79,0-3.62,0-5.52s-.06-3.89-.21-6c.86.88.6-2.69.73-4.64,0-1.53-.59-.49-.68-1.82a48.53,48.53,0,0,0-.14-8.09c-.28-2.94-.83-5.92-1.2-8.48.17-1.12.86-.93.27-3.78-.72-3.74-1.39-7.22-2-10.56-.32-1.67-.62-3.3-.92-4.9s-.69-3.15-1-4.69-.65-3.07-1-4.57-.84-3-1.27-4.44a61.91,61.91,0,0,0-3.21-8.69c-.83-.26-.69.94-1.05,1.39.93,2.6,1.86,5.32,1.6,6.29A141.6,141.6,0,0,0,607,227c-2.57-4.9-5.24-9.67-8.7-15.49a105.87,105.87,0,0,0-5.58-9.7c-1.1-1.66-2.3-3.32-3.49-5s-2.42-3.33-3.76-4.88-2.61-3.11-3.9-4.6-2.69-2.81-4-4.11a70.17,70.17,0,0,0-7.27-6.48,55.39,55.39,0,0,0-4.86-5.1c-1.75-1.62-3.5-3.27-5.33-4.82l-10.79-8.81c-1.06.23-3.73-1.63-6.89-3.61-1.57-1-3.2-2.12-4.76-3.08a43.45,43.45,0,0,0-4.23-2.21,34.47,34.47,0,0,0-3.9-3.11c-1.54-1-3.25-2.14-5-3.23-1.77-.31-5.69-2.11-8.56-3.16a28.11,28.11,0,0,0-6.4-3.28c-1.1-.42-2.21-.8-3.33-1.17l-3.47-.94a96.6,96.6,0,0,1-15.58-5.16c-.18.29-.09.72-1.91.13.65-.54-.4-1.46-2.39-1.5-3.16-.66,2,1.64-1.18,1-2.9-.74-5.84-1.31-8.75-2-1.34.33,2.16,1.56-.25,1.23-2.44-.67-2.83-1.33-4.17-2-2.85.65-15-2.39-18.75-1.18.76-.67-1.28-.89-.8-1.52-7.39,0-19.23,1-27.73,1.41,2.15,1.55-7.22,1.67-10.42,2.74-.94-.13-1-.62-1.91-.75-4.05.9-5.37.59-8,1-2.2.76-4.19,1.4-6.1,2s-3.68,1.26-5.52,1.82-3.68,1.13-5.66,1.79-4.12,1.25-6.45,2.11c-.51.88,2.85-.73,2.79-.09-2.65,1.44-5.16,3.3-8.21,5-1.51.91-3.13,1.89-5,2.8-.92.47-1.88.93-2.92,1.38s-2.08,1-3.23,1.46c0,.35.62.56-.41,1.13-7.43,2.69-11.86,7.07-19.43,11.38-.46.79,2.52-.89.47.7a55.41,55.41,0,0,0-4.91,2.79c-1.21.74-2.26,1.45-4,2.53.56-1.34.73-2.61,2.26-4.27C326.5,165.9,319,173.2,312.22,180.8s-12.81,15.58-18.81,22.77a108.21,108.21,0,0,0-10.57,18.92c1.22-1.45,1.87-1.14,1.89,0,5.55-9.16,9.8-17.3,13.89-21.57,1-1.67,2.22-3.6,3.63-5.68s3.15-4.18,4.9-6.41a121.16,121.16,0,0,1,11.72-12.36l-3.44,4.2a46.25,46.25,0,0,0-2.85,4.08,28.33,28.33,0,0,0-5.38,5.76l-2.72,3.54c-1,1.21-1.86,2.51-2.9,3.74.37,1.16,2.89-2.47,3-.84-4.5,5.95-7.4,11-10.73,14.13-1.17,1.93-2.06,3.6-2.82,5.12s-1.27,3-1.85,4.32-1.18,2.66-1.91,4a36.49,36.49,0,0,1-2.62,4.56,12.84,12.84,0,0,1-.65,2.72c-.3,1-.69,2-1.15,3.14-.92,2.21-2.19,4.58-3.25,7.12-2.29,5-4.32,10.47-4.26,14.82-1.5,2.32-1,4-1.71,7.31-.43,1.24-.91,1.07-1.33,3.13a122.27,122.27,0,0,0-2.27,19.07,135.22,135.22,0,0,0,.84,20.73c-.67,3.09-.22,7.07.47,10.82a71.34,71.34,0,0,0,2.76,9.49,43.62,43.62,0,0,0,1.49,8c.79,2.62,1.61,5.09,2.36,7a6.05,6.05,0,0,1,.23,2.46c1.68,5,5,15.84,7.33,14.66,0,0,0,.05,0,.08a161,161,0,0,0,37.24,57.54,163.58,163.58,0,0,0,14.57,12.82c-.22,0-.36.08-.34.29,1,.61,2,1.19,3,1.73a162.72,162.72,0,0,0,103.57,32.38c.58,1.34,0,2.43-5.95,2.65,2.05.86-1.34,1.44,0,1.89,11.94-.3,24.08-1.93,35.42-3.57-2.15,1.44-6.9,2.71-13.77,3.41-.49.71-2.76,1.21-5.33,1.49a40.38,40.38,0,0,1-7.13-.13,156.57,156.57,0,0,1-22.69.12c-2-.07-3.9-.24-5.78-.44s-3.74-.31-5.51-.52c-3.52-.5-6.79-.75-9.52-1.17-1.42-.92-6.7-2-6.68-1,1.94,1.12,4.14.37,5.77,1.28-2.39.4,2.4.94,1.36,1.8-1.49-.19-2.79-.38-4.43-.7-.82-.16-1.73-.34-2.77-.6l-3.63-1c-.21.34-.73.53-1.87.36-7-3.13-15.35-5.94-23.36-9.58s-15.86-7.63-21.65-12.47c-1.14-.69-.85.1-2.39-1,.46-.27.26-.76-.93-1.66-3.06-2.22-6.31-4.06-9.37-6.26a46.2,46.2,0,0,1-8.8-7.49c-1.66.48,3.48,4.42.28,3.54,2.69,3,6.54,5.73,10.72,8.55l-.87,1.18c-3-2.62-1.77,0-5.19-3.19-.52,1.26-3,.27-6.21-2.07-1,0,2,2.1,1.48,2.36-1.13.29-4.86-2.42-8.11-4.83s-6-4.59-5.58-2.61a209.66,209.66,0,0,0,25.65,16.32c9.58,5.3,20.42,10.83,34.08,16.74,1.85.81,1.13-.2,2.69.37.73.88,2.45,1.61,4.64,2.38s4.92,1.39,7.63,2.32c7.64,3.41,17.09,5.25,25.74,6.23s16.54,1.38,21.68,2.9c4.49-.23,12.57-.22,13.18-1.57,2.61-.18,1.18.9,2.71,1.06,2.41-.24,4.75-.38,7-.7l6.59-.9c2.13-.33,4.18-.73,6.18-1.07s3.94-.71,5.82-1.13l5.49-1.15,5.18-1.25c3.4-.72,6.56-1.67,9.66-2.38.65-.59,1.34-1.17,4-2.06a63.29,63.29,0,0,0,8.87-3Q510,465,512.19,464c1.44-.66,2.86-1.43,4.31-2.17s3-1.49,4.44-2.32l4.56-2.6c3.17-1.71,6.34-3.82,9.92-5.84,0-.28-.44-.39.39-1,.32.26.87.26,1.92-.31,1.25-1,2.89-2.1,4.72-3.34s3.74-2.74,5.68-4.19a59.24,59.24,0,0,0,5.39-4.52,29.88,29.88,0,0,0,3.93-4.21c.35.2.89.12,1.85-.6a77.35,77.35,0,0,0,7-7c1.13-1.25,2.28-2.51,3.47-3.76s2.33-2.59,3.58-3.85c1.08-1.28-.12-.91,1.25-2.41,2.38-1.63,4.81-4.75,7.44-8.49,1.25-1.93,2.53-4,3.86-6.2s2.53-4.56,3.88-6.88c.21.87,1.34-1,1.55-.1,2.18-3.44,1.44-3.94,2.15-5.89l1.54-3c.46-1,.91-2,1.36-3,.87-1.95,1.75-3.81,2.52-5.65,1.45-3.72,3-7.17,4.1-10.66.6-1.74,1.19-3.45,1.79-5.16s1-3.47,1.57-5.22c.26-.87.53-1.75.79-2.63s.46-1.79.69-2.7c.46-1.82.93-3.67,1.42-5.57.27,0,.52-1,.8-.7.63-4.32.56-4.67,1.92-6.77a22.81,22.81,0,0,1,.65-5.67c.22-1.08.46-2.24.71-3.45s.36-2.53.47-3.9c-1.18-1.7,0-4.63.27-9.64.31-3.48-.33-7.25-.26-8.73,0,.1.65-2.94.69-2.72.31-7.4-1.06-13.42-2.4-21.55-.95-6.44-2.24-13.13-3.63-19.43-.74-3.14-1.58-6.16-2.35-9s-1.79-5.45-2.65-7.8c-.89-1.18-1.54-.18-2.49-1.87.53-.33,2.28,1.86,1.27-1.38-1.21-1-3.13-4.81-5.2-8.78-1-2-2-4.08-2.85-5.9a36.41,36.41,0,0,1-1.88-4.57c-2.78-4.29-4.82-7.93-7.33-11.77l-1.89-3c-.66-1-1.41-2-2.18-3.12-1.54-2.17-3.22-4.57-5.41-7.11a42.93,42.93,0,0,1-4.44-4c-1.7-1.63-3.5-3.53-5.26-5.49s-3.64-3.81-5.22-5.61-3.09-3.33-4.11-4.61c.22-.16,1,.55,1.05.14-5.38-4.56-13.35-10.69-21.22-16.32-2-1.42-3.9-2.86-5.84-4.15L525,153.92a101.17,101.17,0,0,1-8.75-6.69c.36-.32,1.88,0,3.65.75a27,27,0,0,1,5.21,3c1.89-.34,7.41,3.31,10,3.86,8,6,14.1,10.09,22.09,16.16a37.28,37.28,0,0,0,5.09,5.67l6.09,5.69a70.71,70.71,0,0,1,5.82,6,26.81,26.81,0,0,1,4.3,6.19q1.61,1.86,3.07,3.59l2.75,3.47,2.62,3.31c.82,1.11,1.6,2.24,2.39,3.37a65,65,0,0,1,4.48,7.17c.7,1.3,1.41,2.64,2.1,4s1.29,2.94,1.93,4.53a5.56,5.56,0,0,1,1.36,1.31c.07,2.55,3.57,8.27,5.25,11.27A91.37,91.37,0,0,0,608,247.22c.62,1.71,1.37,3.52,2,5.76s1.39,4.88,2.07,8.17c.86,1.07.49-2.62,1.22-.3.47,2.23.45,3.45,0,3.67.54,2.1.84,3.23,1.12,4.34s.49,2.24,1,4.3a41.48,41.48,0,0,0,.17,5.23c.12,1.89.36,3.89.64,5.88s.48,4,.74,5.86.51,3.63.6,5.15c1-1,1.13,2.58,1.58,4.42-.2.88-.3,2.12-.44,3.19s-.42,2-.8,2.17c-.27,14.42-1.75,25.32-2.3,35.67a26.76,26.76,0,0,0-1.58,5.16c.16,1.86-.58,5.65-1.77,9.55a67.91,67.91,0,0,1-4.13,10.23c-1.19.65,1.12-6-.75-2.18-.21,1.26-1.92,5-4,9-1,2-2,4-2.81,5.88a18.38,18.38,0,0,0-1.69,4.79c-1.15,2.05-2.32,2.18-3,4.46.27,1,2.07-1.5.67,1.37-1.68,2.14-2.59,1.64-4.52,4.61.11.93,2.32-1.76,1.27.75-.56-.5-2.24,2.32-3.27,3.23.09.68,1.76-.21.77,1.54-.75.83-1.47,1.73-2.17,2.68s-1.46,1.89-2.16,2.89c-1.42,2-2.66,4.18-4.1,6.23s-2.77,4.17-4.18,6.1a52.52,52.52,0,0,1-4.47,5.11c.21.35.14.91-.55,1.92-2.12,1.56-3.19,3.56-5.11,5.07l-1.39,2.08-1.6,2.09c-1.12,1.41-2.33,2.87-3.63,4.31a44.2,44.2,0,0,1-4.34,4.06,33.13,33.13,0,0,1-4.92,3.53c-.56.93-.22,1.45-3.08,3.44-1.36,1-.88-.22-2,.44-3.32,2.2-2,2.31-4.83,4.2-.91.39-.67-.48-2.6,1-2.79,2.22-5.69,4.08-8.62,6-3,1.74-6.12,3.57-9.57,5.25l-5.4,2.58c-1.87.91-3.9,1.68-6,2.59l-3.23,1.37-3.47,1.31c-2.38.88-4.86,1.91-7.57,2.76-1.11.64-.58,1.14-.41,1.67,2.47-.82,3.52-1.52,5.94-2.48a55.7,55.7,0,0,0,9.23-2.85c1.55-.62,3.11-1.27,4.66-2s3.05-1.49,4.56-2.25,3-1.51,4.46-2.3l4.25-2.38c2.82-1.49,5.43-3,7.91-4.26-.47-.27-.22-.79,1.12-1.68a59.33,59.33,0,0,0,9.64-5.34c1.73-1.17,3.47-2.5,5.27-3.85l2.72-2.1,2.67-2.28c1.77-1.56,3.63-3.08,5.36-4.74l5.21-5c1.71-1.64,3.31-3.36,4.95-5l2.42-2.37Zm-22.45-5.45c-1.1,1.11-2.25,2.07-3.22,2.88-2,1.6-3.46,2.43-3.9,1.62a37.47,37.47,0,0,0,5.06-5,26.16,26.16,0,0,1,4.77-4.76c.78.23.64,1,.67,1.73Zm41-61.52c-.67,1.94-1.46,3.72-2.2,5.48l-1.11,2.64c-.4.86-.78,1.73-1.16,2.62a55.83,55.83,0,0,0-2,5.66c-1.7.55-3.38,6.41-5.08,7.67-.22-1.27,1.93-5.67,2.6-8.83-.61-.12-2.18,3.27-1.27,3-1.55,2.71-1,.16-1.68.08,3.08-5,6.13-12.79,8.54-18.49,2.22-5.76,4.08-9.44,5-6.16A54.45,54.45,0,0,1,596.65,357.76Z" transform="translate(0)"/></g></svg>