<svg width="1769" height="128" viewBox="0 0 1769 128" fill="none" xmlns="http://www.w3.org/2000/svg">
<path d="M63.525 69.39C64.6583 71.5433 65.735 73.7817 66.755 76.105C67.8317 78.4283 68.8517 80.8083 69.815 83.245C70.7783 80.7517 71.7983 78.3433 72.875 76.02C73.9517 73.64 75.0567 71.345 76.19 69.135L107.98 6.57499C108.547 5.49833 109.113 4.67666 109.68 4.11C110.303 3.48666 110.983 3.03333 111.72 2.75C112.457 2.46666 113.278 2.29666 114.185 2.23999C115.148 2.18333 116.253 2.155 117.5 2.155H139.43V126H114.1V54.77C114.1 51.3133 114.27 47.5733 114.61 43.55L81.8 107.215C80.78 109.198 79.3917 110.7 77.635 111.72C75.935 112.74 73.98 113.25 71.77 113.25H67.86C65.65 113.25 63.6667 112.74 61.91 111.72C60.21 110.7 58.85 109.198 57.83 107.215L24.85 43.465C25.0767 45.4483 25.2467 47.4317 25.36 49.415C25.4733 51.3417 25.53 53.1267 25.53 54.77V126H0.2V2.155H22.13C23.3767 2.155 24.4533 2.18333 25.36 2.23999C26.3233 2.29666 27.1733 2.46666 27.91 2.75C28.6467 3.03333 29.2983 3.48666 29.865 4.11C30.4883 4.67666 31.0833 5.49833 31.65 6.57499L63.525 69.39ZM221.617 78.91V126H192.887V78.91L148.007 2.155H173.337C175.83 2.155 177.814 2.75 179.287 3.93999C180.76 5.07333 181.95 6.54666 182.857 8.35999L200.367 44.4C201.784 47.29 203.087 49.9533 204.277 52.39C205.467 54.8267 206.515 57.235 207.422 59.615C208.272 57.1783 209.292 54.7417 210.482 52.305C211.672 49.8683 212.947 47.2333 214.307 44.4L231.647 8.35999C231.987 7.62333 232.44 6.88666 233.007 6.14999C233.63 5.41333 234.31 4.76166 235.047 4.19499C235.84 3.57166 236.719 3.08999 237.682 2.75C238.702 2.35333 239.807 2.155 240.997 2.155H266.497L221.617 78.91ZM387.557 2.155V24.255H336.727V55.62H379.057V77.805H336.727V126H307.827V2.155H387.557ZM504.103 126H481.833C479.339 126 477.271 125.433 475.628 124.3C474.041 123.11 472.936 121.608 472.313 119.795L465.003 98.205H417.913L410.603 119.795C410.036 121.382 408.931 122.827 407.288 124.13C405.644 125.377 403.633 126 401.253 126H378.813L426.753 2.155H456.163L504.103 126ZM424.543 78.655H458.373L446.983 44.74C446.246 42.5867 445.368 40.065 444.348 37.175C443.384 34.2283 442.421 31.055 441.458 27.655C440.551 31.1117 439.616 34.3133 438.653 37.26C437.689 40.2067 436.783 42.7567 435.933 44.91L424.543 78.655ZM487.051 2.155H510.171C512.664 2.155 514.704 2.72166 516.291 3.855C517.877 4.98833 519.011 6.49 519.691 8.35999L543.661 74.66C544.737 77.55 545.814 80.695 546.891 84.095C548.024 87.495 549.072 91.065 550.036 94.805C550.829 91.065 551.736 87.495 552.756 84.095C553.832 80.695 554.881 77.55 555.901 74.66L579.701 8.35999C580.267 6.77333 581.372 5.35666 583.016 4.11C584.659 2.80667 586.671 2.155 589.051 2.155H612.341L562.701 126H536.691L487.051 2.155ZM739.676 64.035C739.676 72.9883 738.118 81.3183 735.001 89.025C731.941 96.7317 727.606 103.447 721.996 109.17C716.386 114.837 709.614 119.285 701.681 122.515C693.804 125.745 685.049 127.36 675.416 127.36C665.783 127.36 656.999 125.745 649.066 122.515C641.133 119.285 634.333 114.837 628.666 109.17C623.056 103.447 618.693 96.7317 615.576 89.025C612.516 81.3183 610.986 72.9883 610.986 64.035C610.986 55.0817 612.516 46.7517 615.576 39.045C618.693 31.3383 623.056 24.6517 628.666 18.985C634.333 13.3183 641.133 8.86999 649.066 5.64C656.999 2.41 665.783 0.794996 675.416 0.794996C685.049 0.794996 693.804 2.43833 701.681 5.72499C709.614 8.955 716.386 13.4033 721.996 19.07C727.606 24.7367 731.941 31.4233 735.001 39.13C738.118 46.8367 739.676 55.1383 739.676 64.035ZM710.266 64.035C710.266 57.915 709.473 52.4183 707.886 47.545C706.299 42.615 704.004 38.45 701.001 35.05C698.054 31.65 694.428 29.0433 690.121 27.23C685.814 25.4167 680.913 24.51 675.416 24.51C669.863 24.51 664.904 25.4167 660.541 27.23C656.234 29.0433 652.579 31.65 649.576 35.05C646.629 38.45 644.363 42.615 642.776 47.545C641.189 52.4183 640.396 57.915 640.396 64.035C640.396 70.2117 641.189 75.765 642.776 80.695C644.363 85.5683 646.629 89.705 649.576 93.105C652.579 96.505 656.234 99.1117 660.541 100.925C664.904 102.682 669.863 103.56 675.416 103.56C680.913 103.56 685.814 102.682 690.121 100.925C694.428 99.1117 698.054 96.505 701.001 93.105C704.004 89.705 706.299 85.5683 707.886 80.695C709.473 75.765 710.266 70.2117 710.266 64.035ZM782.143 80.185V126H753.413V2.155H793.703C802.656 2.155 810.278 3.09 816.568 4.96C822.915 6.77333 828.071 9.32333 832.038 12.61C836.061 15.8967 838.98 19.7783 840.793 24.255C842.606 28.7317 843.513 33.605 843.513 38.875C843.513 42.8983 842.975 46.695 841.898 50.265C840.821 53.835 839.206 57.15 837.053 60.21C834.956 63.2133 832.35 65.905 829.233 68.285C826.173 70.665 822.631 72.62 818.608 74.15C820.535 75.1133 822.32 76.3033 823.963 77.72C825.663 79.1367 827.136 80.865 828.383 82.905L854.733 126H828.723C823.906 126 820.45 124.187 818.353 120.56L797.783 84.605C796.876 83.0183 795.8 81.885 794.553 81.205C793.363 80.525 791.663 80.185 789.453 80.185H782.143ZM782.143 60.38H793.703C797.613 60.38 800.928 59.8983 803.648 58.935C806.425 57.915 808.691 56.5267 810.448 54.77C812.205 53.0133 813.48 50.9733 814.273 48.65C815.066 46.27 815.463 43.72 815.463 41C815.463 35.56 813.678 31.31 810.108 28.25C806.595 25.19 801.126 23.66 793.703 23.66H782.143V60.38ZM897.92 126H869.02V2.155H897.92V126ZM1010.85 2.155V24.935H976.003V126H947.273V24.935H912.423V2.155H1010.85ZM1102.42 2.155V24.255H1051.59V53.155H1090.52V74.405H1051.59V103.9H1102.42V126H1022.69V2.155H1102.42ZM1220.7 27.315C1219.85 28.675 1218.95 29.695 1217.98 30.375C1217.08 31.055 1215.89 31.395 1214.41 31.395C1213.11 31.395 1211.69 30.9983 1210.16 30.205C1208.69 29.355 1206.99 28.42 1205.06 27.4C1203.19 26.38 1201.04 25.4733 1198.6 24.68C1196.17 23.83 1193.39 23.405 1190.27 23.405C1184.89 23.405 1180.87 24.5667 1178.2 26.89C1175.6 29.1567 1174.29 32.245 1174.29 36.155C1174.29 38.6483 1175.09 40.7167 1176.67 42.36C1178.26 44.0033 1180.33 45.42 1182.88 46.61C1185.49 47.8 1188.43 48.905 1191.72 49.925C1195.06 50.8883 1198.46 51.9933 1201.92 53.24C1205.38 54.43 1208.75 55.8467 1212.03 57.49C1215.38 59.1333 1218.32 61.23 1220.87 63.78C1223.48 66.33 1225.58 69.4467 1227.16 73.13C1228.75 76.7567 1229.54 81.1483 1229.54 86.305C1229.54 92.0283 1228.55 97.3833 1226.57 102.37C1224.59 107.357 1221.7 111.72 1217.9 115.46C1214.16 119.143 1209.51 122.062 1203.96 124.215C1198.46 126.312 1192.2 127.36 1185.17 127.36C1181.32 127.36 1177.38 126.963 1173.36 126.17C1169.39 125.377 1165.54 124.272 1161.8 122.855C1158.06 121.382 1154.55 119.653 1151.26 117.67C1147.97 115.687 1145.11 113.477 1142.67 111.04L1151.17 97.61C1151.8 96.59 1152.68 95.7683 1153.81 95.145C1154.94 94.5217 1156.16 94.21 1157.46 94.21C1159.16 94.21 1160.86 94.7483 1162.56 95.825C1164.32 96.9017 1166.28 98.0917 1168.43 99.395C1170.64 100.698 1173.16 101.888 1175.99 102.965C1178.83 104.042 1182.17 104.58 1186.02 104.58C1191.24 104.58 1195.29 103.447 1198.18 101.18C1201.07 98.8567 1202.51 95.2017 1202.51 90.215C1202.51 87.325 1201.72 84.9733 1200.13 83.16C1198.55 81.3467 1196.45 79.845 1193.84 78.655C1191.29 77.465 1188.38 76.4167 1185.09 75.51C1181.8 74.6033 1178.43 73.6117 1174.97 72.535C1171.52 71.4017 1168.15 70.0417 1164.86 68.455C1161.57 66.8117 1158.63 64.6867 1156.02 62.08C1153.47 59.4167 1151.4 56.13 1149.81 52.22C1148.23 48.2533 1147.43 43.38 1147.43 37.6C1147.43 32.9533 1148.37 28.42 1150.24 24C1152.11 19.58 1154.86 15.6417 1158.48 12.185C1162.11 8.72832 1166.56 5.97999 1171.83 3.93999C1177.1 1.84333 1183.13 0.794996 1189.93 0.794996C1193.73 0.794996 1197.41 1.10666 1200.98 1.73C1204.61 2.29667 1208.04 3.175 1211.27 4.36499C1214.5 5.49833 1217.5 6.88666 1220.28 8.52999C1223.11 10.1167 1225.63 11.93 1227.84 13.97L1220.7 27.315ZM1351.94 126H1323.04V73.64H1272.72V126H1243.82V2.155H1272.72V53.92H1323.04V2.155H1351.94V126ZM1494.55 64.035C1494.55 72.9883 1492.99 81.3183 1489.87 89.025C1486.81 96.7317 1482.48 103.447 1476.87 109.17C1471.26 114.837 1464.49 119.285 1456.55 122.515C1448.68 125.745 1439.92 127.36 1430.29 127.36C1420.66 127.36 1411.87 125.745 1403.94 122.515C1396.01 119.285 1389.21 114.837 1383.54 109.17C1377.93 103.447 1373.57 96.7317 1370.45 89.025C1367.39 81.3183 1365.86 72.9883 1365.86 64.035C1365.86 55.0817 1367.39 46.7517 1370.45 39.045C1373.57 31.3383 1377.93 24.6517 1383.54 18.985C1389.21 13.3183 1396.01 8.86999 1403.94 5.64C1411.87 2.41 1420.66 0.794996 1430.29 0.794996C1439.92 0.794996 1448.68 2.43833 1456.55 5.72499C1464.49 8.955 1471.26 13.4033 1476.87 19.07C1482.48 24.7367 1486.81 31.4233 1489.87 39.13C1492.99 46.8367 1494.55 55.1383 1494.55 64.035ZM1465.14 64.035C1465.14 57.915 1464.35 52.4183 1462.76 47.545C1461.17 42.615 1458.88 38.45 1455.87 35.05C1452.93 31.65 1449.3 29.0433 1444.99 27.23C1440.69 25.4167 1435.79 24.51 1430.29 24.51C1424.74 24.51 1419.78 25.4167 1415.41 27.23C1411.11 29.0433 1407.45 31.65 1404.45 35.05C1401.5 38.45 1399.24 42.615 1397.65 47.545C1396.06 52.4183 1395.27 57.915 1395.27 64.035C1395.27 70.2117 1396.06 75.765 1397.65 80.695C1399.24 85.5683 1401.5 89.705 1404.45 93.105C1407.45 96.505 1411.11 99.1117 1415.41 100.925C1419.78 102.682 1424.74 103.56 1430.29 103.56C1435.79 103.56 1440.69 102.682 1444.99 100.925C1449.3 99.1117 1452.93 96.505 1455.87 93.105C1458.88 89.705 1461.17 85.5683 1462.76 80.695C1464.35 75.765 1465.14 70.2117 1465.14 64.035ZM1498.94 2.155H1523.08C1525.57 2.155 1527.64 2.72166 1529.28 3.855C1530.98 4.98833 1532.09 6.49 1532.6 8.35999L1549.6 72.96C1550.16 75.0567 1550.73 77.295 1551.3 79.675C1551.86 82.055 1552.29 84.5483 1552.57 87.155C1553.14 84.4917 1553.76 81.9983 1554.44 79.675C1555.12 77.295 1555.77 75.0567 1556.4 72.96L1576.46 8.35999C1576.97 6.77333 1578.04 5.35666 1579.69 4.11C1581.39 2.80667 1583.43 2.155 1585.81 2.155H1594.31C1596.8 2.155 1598.84 2.72166 1600.43 3.855C1602.07 4.93166 1603.2 6.43333 1603.83 8.35999L1623.72 72.96C1624.34 74.9433 1624.99 77.0683 1625.67 79.335C1626.35 81.545 1626.95 83.925 1627.46 86.475C1627.91 83.9817 1628.36 81.6017 1628.82 79.335C1629.33 77.0683 1629.84 74.9433 1630.35 72.96L1647.35 8.35999C1647.8 6.71666 1648.88 5.27166 1650.58 4.02499C1652.28 2.77833 1654.32 2.155 1656.7 2.155H1679.31L1641.06 126H1615.05L1591.76 49.245C1591.36 48.055 1590.93 46.7517 1590.48 45.335C1590.08 43.9183 1589.69 42.4167 1589.29 40.83C1588.89 42.4167 1588.47 43.9183 1588.02 45.335C1587.62 46.7517 1587.22 48.055 1586.83 49.245L1563.2 126H1537.19L1498.94 2.155ZM1759.43 27.315C1758.58 28.675 1757.67 29.695 1756.71 30.375C1755.8 31.055 1754.61 31.395 1753.14 31.395C1751.83 31.395 1750.42 30.9983 1748.89 30.205C1747.41 29.355 1745.71 28.42 1743.79 27.4C1741.92 26.38 1739.76 25.4733 1737.33 24.68C1734.89 23.83 1732.11 23.405 1729 23.405C1723.61 23.405 1719.59 24.5667 1716.93 26.89C1714.32 29.1567 1713.02 32.245 1713.02 36.155C1713.02 38.6483 1713.81 40.7167 1715.4 42.36C1716.98 44.0033 1719.05 45.42 1721.6 46.61C1724.21 47.8 1727.15 48.905 1730.44 49.925C1733.78 50.8883 1737.18 51.9933 1740.64 53.24C1744.1 54.43 1747.47 55.8467 1750.76 57.49C1754.1 59.1333 1757.05 61.23 1759.6 63.78C1762.2 66.33 1764.3 69.4467 1765.89 73.13C1767.47 76.7567 1768.27 81.1483 1768.27 86.305C1768.27 92.0283 1767.27 97.3833 1765.29 102.37C1763.31 107.357 1760.42 111.72 1756.62 115.46C1752.88 119.143 1748.23 122.062 1742.68 124.215C1737.18 126.312 1730.92 127.36 1723.9 127.36C1720.04 127.36 1716.1 126.963 1712.08 126.17C1708.11 125.377 1704.26 124.272 1700.52 122.855C1696.78 121.382 1693.27 119.653 1689.98 117.67C1686.69 115.687 1683.83 113.477 1681.4 111.04L1689.9 97.61C1690.52 96.59 1691.4 95.7683 1692.53 95.145C1693.66 94.5217 1694.88 94.21 1696.19 94.21C1697.89 94.21 1699.59 94.7483 1701.29 95.825C1703.04 96.9017 1705 98.0917 1707.15 99.395C1709.36 100.698 1711.88 101.888 1714.72 102.965C1717.55 104.042 1720.89 104.58 1724.75 104.58C1729.96 104.58 1734.01 103.447 1736.9 101.18C1739.79 98.8567 1741.24 95.2017 1741.24 90.215C1741.24 87.325 1740.44 84.9733 1738.86 83.16C1737.27 81.3467 1735.17 79.845 1732.57 78.655C1730.02 77.465 1727.1 76.4167 1723.81 75.51C1720.52 74.6033 1717.15 73.6117 1713.7 72.535C1710.24 71.4017 1706.87 70.0417 1703.58 68.455C1700.29 66.8117 1697.35 64.6867 1694.74 62.08C1692.19 59.4167 1690.12 56.13 1688.54 52.22C1686.95 48.2533 1686.16 43.38 1686.16 37.6C1686.16 32.9533 1687.09 28.42 1688.96 24C1690.83 19.58 1693.58 15.6417 1697.21 12.185C1700.83 8.72832 1705.28 5.97999 1710.55 3.93999C1715.82 1.84333 1721.86 0.794996 1728.66 0.794996C1732.45 0.794996 1736.14 1.10666 1739.71 1.73C1743.33 2.29667 1746.76 3.175 1749.99 4.36499C1753.22 5.49833 1756.22 6.88666 1759 8.52999C1761.83 10.1167 1764.36 11.93 1766.57 13.97L1759.43 27.315Z" fill="#E1E0E0"/>
</svg>
