<?xml version="1.0" encoding="UTF-8" standalone="no"?>
<svg
   xmlns:dc="http://purl.org/dc/elements/1.1/"
   xmlns:cc="http://creativecommons.org/ns#"
   xmlns:rdf="http://www.w3.org/1999/02/22-rdf-syntax-ns#"
   xmlns:svg="http://www.w3.org/2000/svg"
   xmlns="http://www.w3.org/2000/svg"
   xmlns:sodipodi="http://sodipodi.sourceforge.net/DTD/sodipodi-0.dtd"
   xmlns:inkscape="http://www.inkscape.org/namespaces/inkscape"
   width="1729"
   height="132"
   viewBox="0 0 1729 132"
   fill="none"
   version="1.1"
   id="svg12"
   sodipodi:docname="line.svg"
   inkscape:version="1.0.1 (c497b03c, 2020-09-10)">
  <metadata
     id="metadata18">
    <rdf:RDF>
      <cc:Work
         rdf:about="">
        <dc:format>image/svg+xml</dc:format>
        <dc:type
           rdf:resource="http://purl.org/dc/dcmitype/StillImage" />
      </cc:Work>
    </rdf:RDF>
  </metadata>
  <defs
     id="defs16" />
  <sodipodi:namedview
     pagecolor="#ffffff"
     bordercolor="#666666"
     borderopacity="1"
     objecttolerance="10"
     gridtolerance="10"
     guidetolerance="10"
     inkscape:pageopacity="0"
     inkscape:pageshadow="2"
     inkscape:window-width="705"
     inkscape:window-height="480"
     id="namedview14"
     showgrid="false"
     inkscape:zoom="0.60902256"
     inkscape:cx="864.5"
     inkscape:cy="66"
     inkscape:window-x="3506"
     inkscape:window-y="51"
     inkscape:window-maximized="0"
     inkscape:current-layer="svg12" />
  <path
     d="M63.715 82.97L61.0989 84.4382L61.1111 84.46L61.1237 84.4816L63.715 82.97ZM65.755 87.305L62.9418 88.3469L62.9655 88.411L62.9921 88.4739L65.755 87.305ZM67.54 91.81L64.7268 92.8519L67.5913 100.586L70.3652 92.819L67.54 91.81ZM69.325 87.305L72.0709 88.5132L72.0796 88.4936L72.0879 88.4739L69.325 87.305ZM71.45 82.885L68.8219 81.4382L68.8152 81.4504L68.8086 81.4627L71.45 82.885ZM112.675 7.99999L110.063 6.52382L110.055 6.53847L110.047 6.5532L112.675 7.99999ZM114.97 5.61999L115.979 8.44522L115.979 8.44522L114.97 5.61999ZM130.525 5.19499H133.525V2.19499H130.525V5.19499ZM130.525 127V130H133.525V127H130.525ZM116.075 127H113.075V130H116.075V127ZM116.16 33.67L113.163 33.5451V33.5451L116.16 33.67ZM116.415 29.505L119.405 29.7442L113.784 28.0633L116.415 29.505ZM74.68 105.665L77.3025 107.122L77.3067 107.114L77.3109 107.107L74.68 105.665ZM60.4 105.665L63.0225 104.208L63.0193 104.202L60.4 105.665ZM17.73 29.25L20.3493 27.7874L14.7498 29.5939L17.73 29.25ZM18.07 33.585L15.0724 33.7049L15.0748 33.7646L15.0796 33.8242L18.07 33.585ZM18.24 127V130H21.24V127H18.24ZM3.79 127H0.790001V130H3.79V127ZM3.79 5.19499V2.19499H0.790001V5.19499H3.79ZM21.64 7.99999L24.2562 6.53174L24.2517 6.52382L21.64 7.99999ZM61.1237 84.4816C61.8265 85.6864 62.4332 86.9737 62.9418 88.3469L68.5683 86.2631C67.9435 84.5763 67.1902 82.9735 66.3063 81.4584L61.1237 84.4816ZM62.9921 88.4739C63.5973 89.9045 64.1756 91.3638 64.7268 92.8519L70.3532 90.7681C69.7711 89.1962 69.1593 87.6522 68.5179 86.1361L62.9921 88.4739ZM70.3652 92.819C70.9099 91.2938 71.4788 89.859 72.0709 88.5132L66.5791 86.0968C65.9245 87.5843 65.3034 89.1528 64.7148 90.801L70.3652 92.819ZM72.0879 88.4739C72.6731 87.0907 73.3405 85.7019 74.0914 84.3073L68.8086 81.4627C67.9728 83.0148 67.2236 84.5726 66.5621 86.1361L72.0879 88.4739ZM74.0781 84.3318L115.303 9.44678L110.047 6.5532L68.8219 81.4382L74.0781 84.3318ZM115.287 9.47617C115.572 8.97192 115.804 8.67259 115.961 8.5099C116.117 8.34751 116.131 8.39095 115.979 8.44522L113.961 2.79477C112.13 3.4487 110.907 5.03199 110.063 6.52382L115.287 9.47617ZM115.979 8.44522C116.293 8.33314 117.023 8.19499 118.37 8.19499V2.19499C116.77 2.19499 115.234 2.34018 113.961 2.79477L115.979 8.44522ZM118.37 8.19499H130.525V2.19499H118.37V8.19499ZM127.525 5.19499V127H133.525V5.19499H127.525ZM130.525 124H116.075V130H130.525V124ZM119.075 127V37.495H113.075V127H119.075ZM119.075 37.495C119.075 36.352 119.102 35.119 119.157 33.7949L113.163 33.5451C113.104 34.9409 113.075 36.258 113.075 37.495H119.075ZM119.157 33.7949C119.212 32.4747 119.295 31.1245 119.405 29.7442L113.425 29.2658C113.308 30.7188 113.221 32.1453 113.163 33.5451L119.157 33.7949ZM113.784 28.0633L72.0491 104.223L77.3109 107.107L119.046 30.9467L113.784 28.0633ZM72.0575 104.208C71.078 105.971 70.0134 106.49 68.73 106.49V112.49C72.5466 112.49 75.4487 110.459 77.3025 107.122L72.0575 104.208ZM68.73 106.49H66.35V112.49H68.73V106.49ZM66.35 106.49C65.0666 106.49 64.002 105.971 63.0225 104.208L57.7775 107.122C59.6313 110.459 62.5334 112.49 66.35 112.49V106.49ZM63.0193 104.202L20.3493 27.7874L15.1107 30.7126L57.7807 107.128L63.0193 104.202ZM14.7498 29.5939C14.9116 30.9962 15.0189 32.3664 15.0724 33.7049L21.0676 33.4651C21.0078 31.9702 20.8884 30.4505 20.7102 28.9061L14.7498 29.5939ZM15.0796 33.8242C15.1877 35.176 15.24 36.3984 15.24 37.495H21.24C21.24 36.2116 21.179 34.8273 21.0604 33.3458L15.0796 33.8242ZM15.24 37.495V127H21.24V37.495H15.24ZM18.24 124H3.79V130H18.24V124ZM6.79 127V5.19499H0.790001V127H6.79ZM3.79 8.19499H15.945V2.19499H3.79V8.19499ZM15.945 8.19499C17.2919 8.19499 18.0222 8.33314 18.336 8.44522L20.354 2.79477C19.0812 2.34018 17.5448 2.19499 15.945 2.19499V8.19499ZM18.336 8.44522C18.184 8.39094 18.1976 8.34751 18.3542 8.5099C18.5111 8.67259 18.7433 8.97192 19.0283 9.47616L24.2517 6.52382C23.4085 5.03199 22.185 3.44871 20.354 2.79477L18.336 8.44522ZM19.0238 9.46824L61.0989 84.4382L66.3312 81.5018L24.2562 6.53174L19.0238 9.46824ZM207.097 78.55L204.535 76.9886L204.097 77.7078V78.55H207.097ZM207.097 127V130H210.097V127H207.097ZM190.692 127H187.692V130H190.692V127ZM190.692 78.55H193.692V77.7092L193.255 76.9908L190.692 78.55ZM146.067 5.19499V2.19499H140.73L143.504 6.75417L146.067 5.19499ZM166.212 9.02L163.615 10.5231L163.621 10.5327L163.627 10.5423L166.212 9.02ZM194.092 56.365L196.696 54.8766L196.687 54.8596L196.677 54.8427L194.092 56.365ZM196.897 61.975L194.13 63.1352L194.146 63.1727L194.163 63.2098L196.897 61.975ZM199.022 67.16L196.205 68.1928L199.068 76.0006L201.849 68.1632L199.022 67.16ZM201.062 61.89L203.828 63.0502L201.062 61.89ZM203.867 56.365L206.453 57.8861L206.454 57.8838L203.867 56.365ZM231.662 9.02L234.249 10.5388L234.263 10.5149L234.276 10.4908L231.662 9.02ZM233.702 6.46999L235.749 8.66316L235.754 8.65861L233.702 6.46999ZM251.807 5.19499L254.368 6.75634L257.149 2.19499H251.807V5.19499ZM204.097 78.55V127H210.097V78.55H204.097ZM207.097 124H190.692V130H207.097V124ZM193.692 127V78.55H187.692V127H193.692ZM193.255 76.9908L148.63 3.63581L143.504 6.75417L188.129 80.1092L193.255 76.9908ZM146.067 8.19499H160.517V2.19499H146.067V8.19499ZM160.517 8.19499C161.496 8.19499 161.883 8.43348 162.037 8.56706L165.967 4.03293C164.421 2.69317 162.484 2.19499 160.517 2.19499V8.19499ZM162.037 8.56706C162.61 9.06401 163.141 9.70399 163.615 10.5231L168.808 7.5169C168.036 6.18267 167.093 5.00931 165.967 4.03293L162.037 8.56706ZM163.627 10.5423L191.507 57.8873L196.677 54.8427L168.797 7.49772L163.627 10.5423ZM191.487 57.8534C192.571 59.7509 193.449 61.5106 194.13 63.1352L199.663 60.8148C198.871 58.926 197.879 56.9458 196.696 54.8766L191.487 57.8534ZM194.163 63.2098C194.928 64.9043 195.608 66.5653 196.205 68.1928L201.838 66.1272C201.188 64.3547 200.452 62.559 199.631 60.7402L194.163 63.2098ZM201.849 68.1632C202.453 66.4606 203.113 64.7562 203.828 63.0502L198.295 60.7298C197.537 62.5371 196.837 64.3461 196.194 66.1568L201.849 68.1632ZM203.828 63.0502C204.505 61.4368 205.376 59.716 206.453 57.8861L201.281 54.8439C200.091 56.8674 199.092 58.8298 198.295 60.7298L203.828 63.0502ZM206.454 57.8838L234.249 10.5388L229.075 7.50117L201.28 54.8462L206.454 57.8838ZM234.276 10.4908C234.619 9.88216 235.098 9.27072 235.749 8.66315L231.655 4.27683C230.606 5.25593 229.725 6.34449 229.047 7.54922L234.276 10.4908ZM235.754 8.65861C236.026 8.40344 236.417 8.19499 237.187 8.19499V2.19499C235.123 2.19499 233.191 2.83655 231.65 4.28138L235.754 8.65861ZM237.187 8.19499H251.807V2.19499H237.187V8.19499ZM249.245 3.63364L204.535 76.9886L209.658 80.1113L254.368 6.75634L249.245 3.63364ZM375.017 5.19499H378.017V2.19499H375.017V5.19499ZM375.017 18.625V21.625H378.017V18.625H375.017ZM316.537 18.625V15.625H313.537V18.625H316.537ZM316.537 61.21H313.537V64.21H316.537V61.21ZM366.517 61.21H369.517V58.21H366.517V61.21ZM366.517 74.64V77.64H369.517V74.64H366.517ZM316.537 74.64V71.64H313.537V74.64H316.537ZM316.537 127V130H319.537V127H316.537ZM299.962 127H296.962V130H299.962V127ZM299.962 5.19499V2.19499H296.962V5.19499H299.962ZM372.017 5.19499V18.625H378.017V5.19499H372.017ZM375.017 15.625H316.537V21.625H375.017V15.625ZM313.537 18.625V61.21H319.537V18.625H313.537ZM316.537 64.21H366.517V58.21H316.537V64.21ZM363.517 61.21V74.64H369.517V61.21H363.517ZM366.517 71.64H316.537V77.64H366.517V71.64ZM313.537 74.64V127H319.537V74.64H313.537ZM316.537 124H299.962V130H316.537V124ZM302.962 127V5.19499H296.962V127H302.962ZM299.962 8.19499H375.017V2.19499H299.962V8.19499ZM485.177 127V130H489.607L487.962 125.886L485.177 127ZM468.857 125.895L466.965 128.223L468.857 125.895ZM466.817 123.09L464.019 124.173L464.025 124.189L464.031 124.204L466.817 123.09ZM455.427 93.68L458.224 92.5966L457.482 90.68H455.427V93.68ZM400.772 93.68V90.68H398.717L397.974 92.5966L400.772 93.68ZM389.382 123.09L392.178 124.177L392.179 124.173L389.382 123.09ZM371.022 127L368.236 125.886L366.591 130H371.022V127ZM419.727 5.19499V2.19499H417.696L416.941 4.08115L419.727 5.19499ZM436.472 5.19499L439.257 4.08115L438.503 2.19499H436.472V5.19499ZM405.362 81.78L402.564 80.6982L400.986 84.78H405.362V81.78ZM450.837 81.78V84.78H455.21L453.636 80.6998L450.837 81.78ZM431.712 32.225L434.511 31.1448L434.501 31.1189L434.49 31.0931L431.712 32.225ZM428.057 20.75L430.961 19.9971L428.107 8.98763L425.159 19.9726L428.057 20.75ZM426.187 27.21L423.325 26.3105L423.317 26.3369L423.309 26.3635L426.187 27.21ZM424.487 32.31L427.285 33.3918L427.287 33.3869L424.487 32.31ZM485.177 124H472.427V130H485.177V124ZM472.427 124C471.459 124 470.993 123.765 470.749 123.567L466.965 128.223C468.534 129.498 470.448 130 472.427 130V124ZM470.749 123.567C470.256 123.167 469.875 122.657 469.602 121.976L464.031 124.204C464.666 125.79 465.644 127.15 466.965 128.223L470.749 123.567ZM469.614 122.007L458.224 92.5966L452.629 94.7634L464.019 124.173L469.614 122.007ZM455.427 90.68H400.772V96.68H455.427V90.68ZM397.974 92.5966L386.584 122.007L392.179 124.173L403.569 94.7634L397.974 92.5966ZM386.586 122.003C386.4 122.48 386.058 122.981 385.435 123.494L389.249 128.126C390.553 127.052 391.57 125.74 392.178 124.177L386.586 122.003ZM385.435 123.494C385.081 123.786 384.592 124 383.772 124V130C385.785 130 387.676 129.421 389.249 128.126L385.435 123.494ZM383.772 124H371.022V130H383.772V124ZM373.807 128.114L422.512 6.30883L416.941 4.08115L368.236 125.886L373.807 128.114ZM419.727 8.19499H436.472V2.19499H419.727V8.19499ZM433.686 6.30883L482.391 128.114L487.962 125.886L439.257 4.08115L433.686 6.30883ZM405.362 84.78H450.837V78.78H405.362V84.78ZM453.636 80.6998L434.511 31.1448L428.913 33.3052L448.038 82.8602L453.636 80.6998ZM434.49 31.0931C433.31 28.1968 432.13 24.5085 430.961 19.9971L425.153 21.5029C426.363 26.1715 427.62 30.1332 428.934 33.3569L434.49 31.0931ZM425.159 19.9726C424.545 22.2612 423.934 24.3733 423.325 26.3105L429.049 28.1095C429.687 26.08 430.322 23.8855 430.954 21.5274L425.159 19.9726ZM423.309 26.3635C422.759 28.2321 422.218 29.8525 421.687 31.2331L427.287 33.3869C427.889 31.8208 428.481 30.0412 429.065 28.0565L423.309 26.3635ZM421.689 31.2282L402.564 80.6982L408.16 82.8618L427.285 33.3918L421.689 31.2282ZM474.778 5.19499V2.19499H470.315L472 6.32719L474.778 5.19499ZM493.563 9.10499L490.777 10.2192L490.778 10.2206L493.563 9.10499ZM527.988 95.04L525.203 96.1556L525.208 96.1689L525.214 96.1823L527.988 95.04ZM530.113 101.33L527.22 102.125L527.229 102.159L527.239 102.192L530.113 101.33ZM532.068 108.385L529.161 109.128L535.004 109L532.068 108.385ZM533.683 101.33L530.79 100.535L530.781 100.568L530.772 100.602L533.683 101.33ZM535.808 95.04L538.582 96.1823L538.588 96.1666L538.594 96.1508L535.808 95.04ZM570.063 9.10499L567.289 7.96275L567.282 7.97841L567.276 7.99415L570.063 9.10499ZM572.103 6.46999L574.01 8.78577L574.049 8.7533L574.088 8.71951L572.103 6.46999ZM588.933 5.19499L591.711 6.32719L593.395 2.19499H588.933V5.19499ZM539.293 127V130H541.31L542.071 128.132L539.293 127ZM524.418 127L521.64 128.132L522.401 130H524.418V127ZM474.778 8.19499H487.953V2.19499H474.778V8.19499ZM487.953 8.19499C488.921 8.19499 489.386 8.4295 489.631 8.62833L493.414 3.97165C491.846 2.69715 489.931 2.19499 487.953 2.19499V8.19499ZM489.631 8.62833C490.123 9.02826 490.505 9.53793 490.777 10.2192L496.348 7.99082C495.714 6.40539 494.736 5.04506 493.414 3.97165L489.631 8.62833ZM490.778 10.2206L525.203 96.1556L530.773 93.9244L496.348 7.9894L490.778 10.2206ZM525.214 96.1823C525.955 97.9826 526.625 99.962 527.22 102.125L533.005 100.535C532.354 98.1646 531.607 95.9507 530.762 93.8978L525.214 96.1823ZM527.239 102.192C527.907 104.417 528.547 106.729 529.161 109.128L534.974 107.641C534.341 105.168 533.679 102.776 532.986 100.468L527.239 102.192ZM535.004 109C535.507 106.598 536.036 104.284 536.593 102.058L530.772 100.602C530.196 102.909 529.649 105.298 529.131 107.77L535.004 109ZM536.575 102.125C537.17 99.962 537.84 97.9826 538.582 96.1823L533.034 93.8978C532.188 95.9507 531.442 98.1646 530.79 100.535L536.575 102.125ZM538.594 96.1508L572.849 10.2158L567.276 7.99415L533.021 93.9292L538.594 96.1508ZM572.837 10.2472C573.012 9.82264 573.353 9.32705 574.01 8.78577L570.196 4.15421C568.926 5.19961 567.907 6.46069 567.289 7.96275L572.837 10.2472ZM574.088 8.71951C574.445 8.40409 574.906 8.19499 575.673 8.19499V2.19499C573.606 2.19499 571.687 2.8359 570.118 4.22047L574.088 8.71951ZM575.673 8.19499H588.933V2.19499H575.673V8.19499ZM586.155 4.06279L536.515 125.868L542.071 128.132L591.711 6.32719L586.155 4.06279ZM539.293 124H524.418V130H539.293V124ZM527.196 125.868L477.556 4.06279L472 6.32719L521.64 128.132L527.196 125.868ZM708.752 91.3L711.556 92.3671L711.559 92.3602L708.752 91.3ZM677.472 123.77L678.605 126.548L678.615 126.544L677.472 123.77ZM628.512 123.77L627.361 126.54L627.37 126.544L627.38 126.548L628.512 123.77ZM609.557 110.935L607.392 113.011L609.557 110.935ZM597.317 91.3L594.511 92.3602L594.513 92.3671L597.317 91.3ZM597.317 41.065L600.121 42.1321L600.124 42.1252L597.317 41.065ZM609.557 21.345L611.723 23.4212L611.728 23.4156L611.733 23.4101L609.557 21.345ZM628.512 8.42499L629.663 11.1955L628.512 8.42499ZM677.472 8.42499L676.321 11.1955L676.329 11.1986L677.472 8.42499ZM696.512 21.345L694.336 23.4101L694.341 23.4156L694.347 23.4212L696.512 21.345ZM708.752 41.065L705.946 42.1252L705.948 42.1321L708.752 41.065ZM684.442 30.95L682.217 32.9619L682.224 32.9696L682.231 32.9772L684.442 30.95ZM670.842 21.43L671.992 18.659L670.842 21.43ZM635.227 21.43L634.077 18.659L635.227 21.43ZM621.542 30.95L619.332 28.9215L619.331 28.9228L621.542 30.95ZM612.872 45.995L610.034 45.022L612.872 45.995ZM612.872 86.285L610.034 87.258L610.037 87.2663L612.872 86.285ZM621.542 101.33L619.317 103.342L619.331 103.358L619.346 103.374L621.542 101.33ZM635.227 110.765L634.077 113.536L634.09 113.541L634.103 113.546L635.227 110.765ZM670.842 110.765L671.966 113.546L671.979 113.541L671.992 113.536L670.842 110.765ZM684.442 101.33L686.654 103.357L686.661 103.35L686.667 103.342L684.442 101.33ZM693.112 86.285L695.947 87.2663L695.95 87.258L693.112 86.285ZM710.087 66.14C710.087 74.9428 708.694 82.9655 705.946 90.2398L711.559 92.3602C714.59 84.3345 716.087 75.5838 716.087 66.14H710.087ZM705.948 90.2329C703.192 97.476 699.32 103.671 694.347 108.859L698.678 113.011C704.244 107.205 708.533 100.311 711.556 92.3671L705.948 90.2329ZM694.347 108.859C689.381 114.038 683.388 118.087 676.329 120.996L678.615 126.544C686.403 123.334 693.103 118.825 698.678 113.011L694.347 108.859ZM676.34 120.992C669.375 123.831 661.606 125.275 652.992 125.275V131.275C662.285 131.275 670.836 129.715 678.605 126.548L676.34 120.992ZM652.992 125.275C644.379 125.275 636.609 123.831 629.645 120.992L627.38 126.548C635.148 129.715 643.699 131.275 652.992 131.275V125.275ZM629.663 121C622.66 118.091 616.692 114.042 611.723 108.859L607.392 113.011C612.962 118.821 619.631 123.329 627.361 126.54L629.663 121ZM611.723 108.859C606.749 103.671 602.878 97.476 600.121 90.2329L594.513 92.3671C597.537 100.311 601.825 107.205 607.392 113.011L611.723 108.859ZM600.124 90.2398C597.375 82.9655 595.982 74.9428 595.982 66.14H589.982C589.982 75.5838 591.479 84.3345 594.511 92.3602L600.124 90.2398ZM595.982 66.14C595.982 57.3368 597.376 49.3453 600.121 42.1321L594.513 39.9979C591.479 47.9713 589.982 56.6965 589.982 66.14H595.982ZM600.124 42.1252C602.881 34.8253 606.753 28.6048 611.723 23.4212L607.392 19.2688C601.821 25.0785 597.533 32.0047 594.511 40.0048L600.124 42.1252ZM611.733 23.4101C616.702 18.1737 622.667 14.1015 629.663 11.1955L627.361 5.6545C619.624 8.86848 612.952 13.4096 607.381 19.2799L611.733 23.4101ZM629.663 11.1955C636.623 8.30447 644.385 6.83499 652.992 6.83499V0.834991C643.692 0.834991 635.135 2.42551 627.361 5.6545L629.663 11.1955ZM652.992 6.83499C661.599 6.83499 669.361 8.30447 676.321 11.1955L678.623 5.6545C670.849 2.42551 662.292 0.834991 652.992 0.834991V6.83499ZM676.329 11.1986C683.381 14.1057 689.371 18.1778 694.336 23.4101L698.688 19.2799C693.114 13.4055 686.41 8.86426 678.615 5.6514L676.329 11.1986ZM694.347 23.4212C699.316 28.6048 703.188 34.8253 705.946 42.1252L711.559 40.0048C708.536 32.0047 704.248 25.0785 698.678 19.2688L694.347 23.4212ZM705.948 42.1321C708.694 49.3453 710.087 57.3368 710.087 66.14H716.087C716.087 56.6965 714.591 47.9713 711.556 39.9979L705.948 42.1321ZM699.172 66.14C699.172 58.3899 698.115 51.338 695.95 45.022L690.274 46.968C692.189 52.552 693.172 58.9301 693.172 66.14H699.172ZM695.95 45.022C693.794 38.7344 690.708 33.3462 686.654 28.9228L682.231 32.9772C685.656 36.7138 688.35 41.3556 690.274 46.968L695.95 45.022ZM686.667 28.9381C682.619 24.4605 677.714 21.0333 671.992 18.659L669.692 24.201C674.623 26.2467 678.785 29.1662 682.217 32.9619L686.667 28.9381ZM671.992 18.659C666.253 16.2781 659.905 15.115 652.992 15.115V21.115C659.226 21.115 664.778 22.1618 669.692 24.201L671.992 18.659ZM652.992 15.115C646.132 15.115 639.813 16.2794 634.077 18.659L636.377 24.201C641.295 22.1606 646.819 21.115 652.992 21.115V15.115ZM634.077 18.659C628.359 21.0317 623.432 24.4542 619.332 28.9215L623.752 32.9785C627.246 29.1724 631.442 26.2483 636.377 24.201L634.077 18.659ZM619.331 28.9228C615.276 33.3462 612.19 38.7344 610.034 45.022L615.71 46.968C617.634 41.3556 620.328 36.7138 623.754 32.9772L619.331 28.9228ZM610.034 45.022C607.869 51.338 606.812 58.3899 606.812 66.14H612.812C612.812 58.9301 613.795 52.552 615.71 46.968L610.034 45.022ZM606.812 66.14C606.812 73.8901 607.869 80.942 610.034 87.258L615.71 85.312C613.795 79.728 612.812 73.3499 612.812 66.14H606.812ZM610.037 87.2663C612.193 93.4956 615.276 98.8727 619.317 103.342L623.767 99.3181C620.328 95.5139 617.631 90.8611 615.707 85.3037L610.037 87.2663ZM619.346 103.374C623.446 107.779 628.368 111.167 634.077 113.536L636.377 107.994C631.433 105.943 627.232 103.041 623.738 99.2863L619.346 103.374ZM634.103 113.546C639.831 115.862 646.141 116.995 652.992 116.995V110.995C646.809 110.995 641.276 109.974 636.352 107.984L634.103 113.546ZM652.992 116.995C659.896 116.995 666.235 115.863 671.966 113.546L669.718 107.984C664.796 109.973 659.235 110.995 652.992 110.995V116.995ZM671.992 113.536C677.705 111.166 682.606 107.773 686.654 103.357L682.231 99.3028C678.799 103.047 674.633 105.944 669.692 107.994L671.992 113.536ZM686.667 103.342C690.708 98.8727 693.791 93.4956 695.947 87.2663L690.277 85.3037C688.353 90.8611 685.656 95.5139 682.217 99.3181L686.667 103.342ZM695.95 87.258C698.115 80.942 699.172 73.8901 699.172 66.14H693.172C693.172 73.3499 692.189 79.728 690.274 85.312L695.95 87.258ZM753.692 76.17V73.17H750.692V76.17H753.692ZM753.692 127V130H756.692V127H753.692ZM737.287 127H734.287V130H737.287V127ZM737.287 5.19499V2.19499H734.287V5.19499H737.287ZM791.687 7.57499L790.87 10.4618L790.884 10.4656L790.898 10.4693L791.687 7.57499ZM805.542 14.29L803.65 16.6183L803.659 16.6255L803.668 16.6326L805.542 14.29ZM813.702 25L810.935 26.1591L810.938 26.1659L810.941 26.1726L813.702 25ZM814.297 51.01L811.477 49.9848V49.9848L814.297 51.01ZM808.347 61.125L806.081 59.1586L806.078 59.1619L808.347 61.125ZM798.912 68.69L797.445 66.0732L797.436 66.0779L797.428 66.0828L798.912 68.69ZM786.332 73.45L785.662 70.5256L778.267 72.2186L784.82 76.0413L786.332 73.45ZM791.772 78.635L789.314 80.3554L789.334 80.3835L789.354 80.4111L791.772 78.635ZM827.302 127V130H833.228L829.72 125.224L827.302 127ZM806.052 123.515L808.613 121.953L808.55 121.85L808.479 121.752L806.052 123.515ZM774.432 79.995L771.984 81.729L771.994 81.7438L772.005 81.7584L774.432 79.995ZM771.287 77.105L769.841 79.7336L769.893 79.762L769.945 79.7883L771.287 77.105ZM753.692 64.185H750.692V67.185H753.692V64.185ZM783.612 62.485L784.507 65.3484L784.52 65.3441L784.534 65.3397L783.612 62.485ZM792.792 57.555L794.749 59.829L794.753 59.8255L792.792 57.555ZM798.402 49.905L795.639 48.7361L798.402 49.905ZM793.047 23.725L791.211 26.0976L791.218 26.1029L791.225 26.1081L793.047 23.725ZM753.692 18.2V15.2H750.692V18.2H753.692ZM750.692 76.17V127H756.692V76.17H750.692ZM753.692 124H737.287V130H753.692V124ZM740.287 127V5.19499H734.287V127H740.287ZM737.287 8.19499H771.712V2.19499H737.287V8.19499ZM771.712 8.19499C779.225 8.19499 785.596 8.96988 790.87 10.4618L792.503 4.68823C786.558 3.00677 779.612 2.19499 771.712 2.19499V8.19499ZM790.898 10.4693C796.2 11.9155 800.416 13.991 803.65 16.6183L807.434 11.9616C803.414 8.69566 798.393 6.29451 792.476 4.6807L790.898 10.4693ZM803.668 16.6326C806.974 19.2779 809.38 22.4465 810.935 26.1591L816.469 23.8408C814.511 19.1668 811.476 15.1954 807.416 11.9474L803.668 16.6326ZM810.941 26.1726C812.518 29.8877 813.337 34.1273 813.337 38.94H819.337C819.337 33.4394 818.399 28.3856 816.463 23.8274L810.941 26.1726ZM813.337 38.94C813.337 42.9258 812.709 46.5994 811.477 49.9848L817.116 52.0352C818.605 47.9406 819.337 43.5675 819.337 38.94H813.337ZM811.477 49.9848C810.243 53.3801 808.447 56.4327 806.081 59.1586L810.613 63.0914C813.46 59.8107 815.631 56.1199 817.116 52.0352L811.477 49.9848ZM806.078 59.1619C803.777 61.8208 800.912 64.1294 797.445 66.0732L800.379 71.3068C804.392 69.0573 807.816 66.3225 810.615 63.0881L806.078 59.1619ZM797.428 66.0828C794.031 68.0161 790.119 69.5055 785.662 70.5256L787.001 76.3744C791.951 75.2412 796.426 73.5572 800.396 71.2972L797.428 66.0828ZM784.82 76.0413C786.427 76.9785 787.934 78.3836 789.314 80.3554L794.23 76.9146C792.437 74.3531 790.317 72.3015 787.844 70.8587L784.82 76.0413ZM789.354 80.4111L824.884 128.776L829.72 125.224L794.19 76.8589L789.354 80.4111ZM827.302 124H812.682V130H827.302V124ZM812.682 124C810.595 124 809.421 123.278 808.613 121.953L803.49 125.077C805.516 128.399 808.762 130 812.682 130V124ZM808.479 121.752L776.859 78.2316L772.005 81.7584L803.625 125.278L808.479 121.752ZM776.88 78.2609C775.718 76.6209 774.32 75.2676 772.629 74.4217L769.945 79.7883C770.52 80.0757 771.219 80.6491 771.984 81.729L776.88 78.2609ZM772.733 74.4763C770.938 73.489 768.63 73.17 766.187 73.17V79.17C768.277 79.17 769.37 79.4743 769.841 79.7336L772.733 74.4763ZM766.187 73.17H753.692V79.17H766.187V73.17ZM753.692 67.185H770.947V61.185H753.692V67.185ZM770.947 67.185C775.99 67.185 780.525 66.5927 784.507 65.3484L782.717 59.6216C779.445 60.6439 775.537 61.185 770.947 61.185V67.185ZM784.534 65.3397C788.522 64.0514 791.954 62.2336 794.749 59.829L790.835 55.281C788.756 57.0697 786.069 58.5385 782.69 59.6303L784.534 65.3397ZM794.753 59.8255C797.584 57.3805 799.733 54.4572 801.165 51.0739L795.639 48.7361C794.577 51.2461 792.987 53.4228 790.831 55.2845L794.753 59.8255ZM801.165 51.0739C802.585 47.7168 803.272 44.055 803.272 40.13H797.272C797.272 43.345 796.712 46.1998 795.639 48.7361L801.165 51.0739ZM803.272 40.13C803.272 32.1478 800.578 25.7071 794.869 21.3419L791.225 26.1081C795.15 29.1096 797.272 33.6055 797.272 40.13H803.272ZM794.883 21.3524C789.372 17.088 781.484 15.2 771.712 15.2V21.2C780.867 21.2 787.202 22.9953 791.211 26.0976L794.883 21.3524ZM771.712 15.2H753.692V21.2H771.712V15.2ZM750.692 18.2V64.185H756.692V18.2H750.692ZM864.541 127V130H867.541V127H864.541ZM848.051 127H845.051V130H848.051V127ZM848.051 5.19499V2.19499H845.051V5.19499H848.051ZM864.541 5.19499H867.541V2.19499H864.541V5.19499ZM864.541 124H848.051V130H864.541V124ZM851.051 127V5.19499H845.051V127H851.051ZM848.051 8.19499H864.541V2.19499H848.051V8.19499ZM861.541 5.19499V127H867.541V5.19499H861.541ZM980.08 5.19499H983.08V2.19499H980.08V5.19499ZM980.08 19.05V22.05H983.08V19.05H980.08ZM940.725 19.05V16.05H937.725V19.05H940.725ZM940.725 127V130H943.725V127H940.725ZM924.235 127H921.235V130H924.235V127ZM924.235 19.05H927.235V16.05H924.235V19.05ZM884.71 19.05H881.71V22.05H884.71V19.05ZM884.71 5.19499V2.19499H881.71V5.19499H884.71ZM977.08 5.19499V19.05H983.08V5.19499H977.08ZM980.08 16.05H940.725V22.05H980.08V16.05ZM937.725 19.05V127H943.725V19.05H937.725ZM940.725 124H924.235V130H940.725V124ZM927.235 127V19.05H921.235V127H927.235ZM924.235 16.05H884.71V22.05H924.235V16.05ZM887.71 19.05V5.19499H881.71V19.05H887.71ZM884.71 8.19499H980.08V2.19499H884.71V8.19499ZM1072.45 5.19499H1075.45V2.19499H1072.45V5.19499ZM1072.45 18.625V21.625H1075.45V18.625H1072.45ZM1013.97 18.625V15.625H1010.97V18.625H1013.97ZM1013.97 59.085H1010.97V62.085H1013.97V59.085ZM1061.31 59.085H1064.31V56.085H1061.31V59.085ZM1061.31 72.005V75.005H1064.31V72.005H1061.31ZM1013.97 72.005V69.005H1010.97V72.005H1013.97ZM1013.97 113.57H1010.97V116.57H1013.97V113.57ZM1072.45 113.57H1075.45V110.57H1072.45V113.57ZM1072.45 127V130H1075.45V127H1072.45ZM997.393 127H994.393V130H997.393V127ZM997.393 5.19499V2.19499H994.393V5.19499H997.393ZM1069.45 5.19499V18.625H1075.45V5.19499H1069.45ZM1072.45 15.625H1013.97V21.625H1072.45V15.625ZM1010.97 18.625V59.085H1016.97V18.625H1010.97ZM1013.97 62.085H1061.31V56.085H1013.97V62.085ZM1058.31 59.085V72.005H1064.31V59.085H1058.31ZM1061.31 69.005H1013.97V75.005H1061.31V69.005ZM1010.97 72.005V113.57H1016.97V72.005H1010.97ZM1013.97 116.57H1072.45V110.57H1013.97V116.57ZM1069.45 113.57V127H1075.45V113.57H1069.45ZM1072.45 124H997.393V130H1072.45V124ZM1000.39 127V5.19499H994.393V127H1000.39ZM997.393 8.19499H1072.45V2.19499H997.393V8.19499ZM1191.43 24.235L1194.01 25.7785L1194.06 25.6908L1194.11 25.5998L1191.43 24.235ZM1189.82 26.19L1191.54 28.6477L1191.62 28.5926L1191.69 28.5326L1189.82 26.19ZM1184.21 25.34L1182.37 27.7138L1182.4 27.7335L1182.43 27.7525L1184.21 25.34ZM1179.36 22.195L1177.79 24.7474L1177.83 24.7743L1177.88 24.7997L1179.36 22.195ZM1172.31 18.965L1171.31 21.7929L1171.32 21.7961L1171.33 21.7993L1172.31 18.965ZM1152.59 19.05L1153.55 21.8903L1153.58 21.8817L1153.61 21.8727L1152.59 19.05ZM1145.45 23.045L1143.46 20.7955L1143.45 20.8102L1143.43 20.8252L1145.45 23.045ZM1141.2 29.08L1143.96 30.2534L1143.97 30.2412L1143.97 30.229L1141.2 29.08ZM1142.22 44.975L1139.79 46.7359L1139.82 46.7704L1139.84 46.8041L1142.22 44.975ZM1148.85 50.67L1147.34 53.2613L1147.35 53.2681L1147.36 53.2747L1148.85 50.67ZM1158.2 54.835L1157.22 57.6716L1157.25 57.6811L1157.28 57.6901L1158.2 54.835ZM1168.91 58.405L1167.93 61.2421L1167.94 61.2444L1167.95 61.2466L1168.91 58.405ZM1179.62 62.655L1178.37 65.3815L1178.39 65.3938L1178.42 65.4055L1179.62 62.655ZM1188.97 68.52L1186.99 70.7777L1187 70.7878L1187.02 70.7978L1188.97 68.52ZM1195.6 77.275L1192.89 78.5631L1192.9 78.5811L1192.91 78.599L1195.6 77.275ZM1195.43 105.07L1198.22 106.161L1198.23 106.149L1195.43 105.07ZM1187.44 117.225L1185.33 115.087L1185.33 115.095L1185.32 115.104L1187.44 117.225ZM1174.6 125.385L1173.52 122.589L1173.51 122.593L1174.6 125.385ZM1135.76 124.11L1134.53 126.848L1134.55 126.855L1134.56 126.861L1135.76 124.11ZM1119.18 112.465L1116.62 110.905L1115.43 112.858L1117 114.522L1119.18 112.465ZM1123.94 104.645L1121.52 102.88L1121.45 102.98L1121.38 103.085L1123.94 104.645ZM1125.56 103.115L1127.17 105.646L1127.2 105.629L1127.22 105.611L1125.56 103.115ZM1131.85 104.39L1129.9 106.674L1129.93 106.695L1129.95 106.716L1131.85 104.39ZM1137.54 108.555L1135.87 111.042L1135.88 111.051L1135.89 111.061L1137.54 108.555ZM1145.87 112.805L1144.75 115.587L1144.78 115.599L1144.81 115.61L1145.87 112.805ZM1168.31 113.06L1169.31 115.89L1168.31 113.06ZM1176.05 108.555L1178.08 110.764L1178.08 110.762L1176.05 108.555ZM1180.98 101.5L1178.21 100.346V100.346L1180.98 101.5ZM1180.13 83.395L1177.66 85.0996L1177.68 85.1334L1177.71 85.1665L1180.13 83.395ZM1173.58 77.445L1172.07 80.0363L1173.58 77.445ZM1164.23 73.45L1163.3 76.3007L1163.33 76.3098L1163.35 76.3183L1164.23 73.45ZM1153.52 70.05L1152.59 72.9005L1152.61 72.9091L1152.64 72.9173L1153.52 70.05ZM1142.81 65.97L1141.6 68.7133L1141.61 68.7169L1141.62 68.7205L1142.81 65.97ZM1133.55 60.02L1135.55 57.7855L1133.55 60.02ZM1126.92 50.925L1124.18 52.1473L1124.19 52.1729L1124.2 52.1983L1126.92 50.925ZM1126.92 24.83L1124.16 23.6623L1124.15 23.6789L1124.14 23.6956L1126.92 24.83ZM1134.23 14.12L1132.13 11.9796V11.9797L1134.23 14.12ZM1145.96 6.64L1144.85 3.85223L1144.84 3.85691L1145.96 6.64ZM1180.72 7.065L1179.65 9.86576L1180.72 7.065ZM1195.43 16.415L1198.1 17.7798L1199.11 15.8085L1197.52 14.2648L1195.43 16.415ZM1188.86 22.6915C1188.47 23.3401 1188.15 23.6819 1187.94 23.8474L1191.69 28.5326C1192.62 27.7914 1193.38 26.8299 1194.01 25.7785L1188.86 22.6915ZM1188.1 23.7323C1188.17 23.681 1188.09 23.785 1187.61 23.785V29.785C1188.94 29.785 1190.33 29.4924 1191.54 28.6477L1188.1 23.7323ZM1187.61 23.785C1187.63 23.785 1187.5 23.788 1187.21 23.6628C1186.91 23.5374 1186.51 23.3106 1185.99 22.9275L1182.43 27.7525C1183.93 28.8618 1185.7 29.785 1187.61 29.785V23.785ZM1186.04 22.9661C1184.65 21.8895 1182.91 20.7648 1180.85 19.5903L1177.88 24.7997C1179.79 25.8919 1181.27 26.8638 1182.37 27.7138L1186.04 22.9661ZM1180.94 19.6426C1178.78 18.309 1176.22 17.146 1173.29 16.1307L1171.33 21.7993C1173.95 22.7107 1176.09 23.701 1177.79 24.7474L1180.94 19.6426ZM1173.31 16.1371C1170.18 15.0274 1166.5 14.52 1162.36 14.52V20.52C1166.05 20.52 1169 20.9759 1171.31 21.7929L1173.31 16.1371ZM1162.36 14.52C1158.41 14.52 1154.8 15.0671 1151.57 16.2273L1153.61 21.8727C1156.05 20.9929 1158.95 20.52 1162.36 20.52V14.52ZM1151.62 16.2097C1148.48 17.2799 1145.73 18.7936 1143.46 20.7955L1147.43 25.2945C1149.02 23.8964 1151.04 22.7468 1153.55 21.8903L1151.62 16.2097ZM1143.43 20.8252C1141.24 22.8208 1139.56 25.1976 1138.43 27.9309L1143.97 30.229C1144.76 28.3158 1145.92 26.6692 1147.47 25.2648L1143.43 20.8252ZM1138.44 27.9066C1137.3 30.5737 1136.75 33.4416 1136.75 36.475H1142.75C1142.75 34.1817 1143.17 32.1196 1143.96 30.2534L1138.44 27.9066ZM1136.75 36.475C1136.75 40.3691 1137.7 43.8555 1139.79 46.7359L1144.65 43.2141C1143.45 41.5612 1142.75 39.3809 1142.75 36.475H1136.75ZM1139.84 46.8041C1141.81 49.3592 1144.33 51.5042 1147.34 53.2613L1150.36 48.0787C1147.93 46.6624 1146.03 45.0108 1144.6 43.1459L1139.84 46.8041ZM1147.36 53.2747C1150.32 54.9666 1153.61 56.429 1157.22 57.6716L1159.18 51.9984C1155.87 50.861 1152.93 49.5467 1150.34 48.0653L1147.36 53.2747ZM1157.28 57.6901C1160.77 58.8174 1164.32 60.0013 1167.93 61.2421L1169.88 55.5679C1166.24 54.3153 1162.65 53.1193 1159.12 51.9799L1157.28 57.6901ZM1167.95 61.2466C1171.53 62.4607 1175.01 63.8392 1178.37 65.3815L1180.87 59.9285C1177.32 58.2975 1173.65 56.8426 1169.87 55.5633L1167.95 61.2466ZM1178.42 65.4055C1181.67 66.8197 1184.52 68.613 1186.99 70.7777L1190.94 66.2623C1187.98 63.667 1184.6 61.5503 1180.82 59.9045L1178.42 65.4055ZM1187.02 70.7978C1189.46 72.8918 1191.42 75.4676 1192.89 78.5631L1198.31 75.9869C1196.49 72.1691 1194.03 68.9082 1190.92 66.2422L1187.02 70.7978ZM1192.91 78.599C1194.35 81.5366 1195.15 85.3043 1195.15 90.025H1201.15C1201.15 84.659 1200.25 79.9267 1198.29 75.951L1192.91 78.599ZM1195.15 90.025C1195.15 95.0038 1194.3 99.651 1192.63 103.991L1198.23 106.149C1200.18 101.082 1201.15 95.6995 1201.15 90.025H1195.15ZM1192.63 103.979C1190.97 108.237 1188.54 111.93 1185.33 115.087L1189.54 119.363C1193.36 115.606 1196.26 111.196 1198.22 106.161L1192.63 103.979ZM1185.32 115.104C1182.19 118.233 1178.28 120.738 1173.52 122.589L1175.69 128.181C1181.13 126.065 1185.78 123.13 1189.56 119.346L1185.32 115.104ZM1173.51 122.593C1168.87 124.415 1163.5 125.36 1157.35 125.36V131.36C1164.11 131.36 1170.25 130.321 1175.7 128.177L1173.51 122.593ZM1157.35 125.36C1149.84 125.36 1143.06 124.011 1136.96 121.359L1134.56 126.861C1141.5 129.876 1149.11 131.36 1157.35 131.36V125.36ZM1136.98 121.372C1130.86 118.634 1125.67 114.977 1121.37 110.408L1117 114.522C1121.88 119.7 1127.73 123.806 1134.53 126.848L1136.98 121.372ZM1121.75 114.025L1126.51 106.205L1121.38 103.085L1116.62 110.905L1121.75 114.025ZM1126.37 106.41C1126.61 106.077 1126.88 105.832 1127.17 105.646L1123.95 100.584C1122.99 101.191 1122.18 101.966 1121.52 102.88L1126.37 106.41ZM1127.22 105.611C1127.43 105.476 1127.59 105.435 1127.77 105.435V99.435C1126.36 99.435 1125.05 99.8475 1123.89 100.619L1127.22 105.611ZM1127.77 105.435C1127.9 105.435 1128.57 105.54 1129.9 106.674L1133.79 102.106C1132.07 100.633 1130.02 99.435 1127.77 99.435V105.435ZM1129.95 106.716C1131.57 108.036 1133.55 109.479 1135.87 111.042L1139.22 106.068C1137 104.571 1135.18 103.237 1133.74 102.064L1129.95 106.716ZM1135.89 111.061C1138.42 112.723 1141.38 114.227 1144.75 115.587L1147 110.023C1143.91 108.776 1141.32 107.447 1139.19 106.049L1135.89 111.061ZM1144.81 115.61C1148.53 117.021 1152.91 117.675 1157.86 117.675V111.675C1153.4 111.675 1149.79 111.082 1146.94 110L1144.81 115.61ZM1157.86 117.675C1162.04 117.675 1165.87 117.1 1169.31 115.89L1167.32 110.23C1164.64 111.174 1161.5 111.675 1157.86 111.675V117.675ZM1169.31 115.89C1172.7 114.697 1175.64 113.001 1178.08 110.764L1174.02 106.346C1172.26 107.962 1170.05 109.27 1167.32 110.23L1169.31 115.89ZM1178.08 110.762C1180.56 108.483 1182.45 105.771 1183.75 102.654L1178.21 100.346C1177.24 102.669 1175.85 104.661 1174.02 106.348L1178.08 110.762ZM1183.75 102.654C1185.05 99.5222 1185.68 96.0913 1185.68 92.405H1179.68C1179.68 95.4053 1179.17 98.0378 1178.21 100.346L1183.75 102.654ZM1185.68 92.405C1185.68 88.2634 1184.72 84.5885 1182.55 81.6235L1177.71 85.1665C1178.94 86.8482 1179.68 89.1799 1179.68 92.405H1185.68ZM1182.6 81.6904C1180.68 78.917 1178.16 76.6422 1175.1 74.8537L1172.07 80.0363C1174.45 81.4212 1176.29 83.113 1177.66 85.0996L1182.6 81.6904ZM1175.1 74.8537C1172.15 73.1332 1168.81 71.7151 1165.11 70.5817L1163.35 76.3183C1166.68 77.3383 1169.58 78.5835 1172.07 80.0363L1175.1 74.8537ZM1165.17 70.5993C1161.69 69.4599 1158.11 68.3211 1154.41 67.1827L1152.64 72.9173C1156.31 74.0456 1159.86 75.1734 1163.3 76.3007L1165.17 70.5993ZM1154.46 67.1995C1150.92 66.0388 1147.44 64.7122 1144.01 63.2195L1141.62 68.7205C1145.21 70.2878 1148.87 71.6811 1152.59 72.9005L1154.46 67.1995ZM1144.03 63.2267C1140.85 61.8195 1138.03 60.005 1135.55 57.7855L1131.55 62.2545C1134.51 64.9083 1137.87 67.0605 1141.6 68.7133L1144.03 63.2267ZM1135.55 57.7855C1133.16 55.643 1131.18 52.9487 1129.64 49.6517L1124.2 52.1983C1126.06 56.1546 1128.5 59.5237 1131.55 62.2545L1135.55 57.7855ZM1129.66 49.7027C1128.23 46.5098 1127.45 42.4209 1127.45 37.325H1121.45C1121.45 42.9958 1122.32 47.9735 1124.18 52.1473L1129.66 49.7027ZM1127.45 37.325C1127.45 33.4109 1128.2 29.631 1129.7 25.9644L1124.14 23.6956C1122.35 28.0757 1121.45 32.6257 1121.45 37.325H1127.45ZM1129.68 25.9977C1131.23 22.3458 1133.43 19.1048 1136.33 16.2603L1132.13 11.9797C1128.68 15.3685 1126.01 19.2675 1124.16 23.6623L1129.68 25.9977ZM1136.33 16.2603C1139.19 13.4533 1142.75 11.1641 1147.08 9.42308L1144.84 3.85691C1139.87 5.85585 1135.62 8.55335 1132.13 11.9796L1136.33 16.2603ZM1147.07 9.42774C1151.36 7.72274 1156.35 6.83499 1162.11 6.83499V0.834991C1155.74 0.834991 1149.97 1.81724 1144.85 3.85226L1147.07 9.42774ZM1162.11 6.83499C1168.59 6.83499 1174.42 7.86029 1179.65 9.86576L1181.8 4.26423C1175.8 1.96303 1169.23 0.834991 1162.11 0.834991V6.83499ZM1179.65 9.86576C1184.89 11.8774 1189.44 14.7765 1193.34 18.5652L1197.52 14.2648C1193.03 9.89352 1187.78 6.55923 1181.8 4.26423L1179.65 9.86576ZM1192.76 15.0502L1188.76 22.8702L1194.11 25.5998L1198.1 17.7798L1192.76 15.0502ZM1317.96 127V130H1320.96V127H1317.96ZM1301.39 127H1298.39V130H1301.39V127ZM1301.39 71.58H1304.39V68.58H1301.39V71.58ZM1235.77 71.58V68.58H1232.77V71.58H1235.77ZM1235.77 127V130H1238.77V127H1235.77ZM1219.19 127H1216.19V130H1219.19V127ZM1219.19 5.19499V2.19499H1216.19V5.19499H1219.19ZM1235.77 5.19499H1238.77V2.19499H1235.77V5.19499ZM1235.77 59.51H1232.77V62.51H1235.77V59.51ZM1301.39 59.51V62.51H1304.39V59.51H1301.39ZM1301.39 5.19499V2.19499H1298.39V5.19499H1301.39ZM1317.96 5.19499H1320.96V2.19499H1317.96V5.19499ZM1317.96 124H1301.39V130H1317.96V124ZM1304.39 127V71.58H1298.39V127H1304.39ZM1301.39 68.58H1235.77V74.58H1301.39V68.58ZM1232.77 71.58V127H1238.77V71.58H1232.77ZM1235.77 124H1219.19V130H1235.77V124ZM1222.19 127V5.19499H1216.19V127H1222.19ZM1219.19 8.19499H1235.77V2.19499H1219.19V8.19499ZM1232.77 5.19499V59.51H1238.77V5.19499H1232.77ZM1235.77 62.51H1301.39V56.51H1235.77V62.51ZM1304.39 59.51V5.19499H1298.39V59.51H1304.39ZM1301.39 8.19499H1317.96V2.19499H1301.39V8.19499ZM1314.96 5.19499V127H1320.96V5.19499H1314.96ZM1456.49 91.3L1459.29 92.3671L1459.29 92.3602L1456.49 91.3ZM1425.21 123.77L1426.34 126.548L1426.35 126.544L1425.21 123.77ZM1376.25 123.77L1375.1 126.54L1375.1 126.544L1375.11 126.548L1376.25 123.77ZM1357.29 110.935L1355.13 113.011L1357.29 110.935ZM1345.05 91.3L1342.25 92.3602L1342.25 92.3671L1345.05 91.3ZM1345.05 41.065L1347.86 42.1321L1347.86 42.1252L1345.05 41.065ZM1357.29 21.345L1359.46 23.4212L1359.46 23.4156L1359.47 23.4101L1357.29 21.345ZM1376.25 8.42499L1377.4 11.1955L1376.25 8.42499ZM1425.21 8.42499L1424.06 11.1955L1424.06 11.1986L1425.21 8.42499ZM1444.25 21.345L1442.07 23.4101L1442.08 23.4156L1442.08 23.4212L1444.25 21.345ZM1456.49 41.065L1453.68 42.1252L1453.68 42.1321L1456.49 41.065ZM1432.18 30.95L1429.95 32.9619L1429.96 32.9696L1429.97 32.9772L1432.18 30.95ZM1418.58 21.43L1419.73 18.659L1418.58 21.43ZM1382.96 21.43L1381.81 18.659L1382.96 21.43ZM1369.28 30.95L1367.07 28.9215L1367.07 28.9228L1369.28 30.95ZM1360.61 45.995L1357.77 45.022L1360.61 45.995ZM1360.61 86.285L1357.77 87.258L1357.77 87.2663L1360.61 86.285ZM1369.28 101.33L1367.05 103.342L1367.07 103.358L1367.08 103.374L1369.28 101.33ZM1382.96 110.765L1381.81 113.536L1381.82 113.541L1381.84 113.546L1382.96 110.765ZM1418.58 110.765L1419.7 113.546L1419.71 113.541L1419.73 113.536L1418.58 110.765ZM1432.18 101.33L1434.39 103.357L1434.39 103.35L1434.4 103.342L1432.18 101.33ZM1440.85 86.285L1443.68 87.2663L1443.68 87.258L1440.85 86.285ZM1457.82 66.14C1457.82 74.9428 1456.43 82.9655 1453.68 90.2398L1459.29 92.3602C1462.32 84.3345 1463.82 75.5838 1463.82 66.14H1457.82ZM1453.68 90.2329C1450.93 97.476 1447.05 103.671 1442.08 108.859L1446.41 113.011C1451.98 107.205 1456.27 100.311 1459.29 92.3671L1453.68 90.2329ZM1442.08 108.859C1437.12 114.038 1431.12 118.087 1424.06 120.996L1426.35 126.544C1434.14 123.334 1440.84 118.825 1446.41 113.011L1442.08 108.859ZM1424.07 120.992C1417.11 123.831 1409.34 125.275 1400.73 125.275V131.275C1410.02 131.275 1418.57 129.715 1426.34 126.548L1424.07 120.992ZM1400.73 125.275C1392.11 125.275 1384.34 123.831 1377.38 120.992L1375.11 126.548C1382.88 129.715 1391.43 131.275 1400.73 131.275V125.275ZM1377.4 121C1370.39 118.091 1364.43 114.042 1359.46 108.859L1355.13 113.011C1360.7 118.821 1367.36 123.329 1375.1 126.54L1377.4 121ZM1359.46 108.859C1354.48 103.671 1350.61 97.476 1347.86 90.2329L1342.25 92.3671C1345.27 100.311 1349.56 107.205 1355.13 113.011L1359.46 108.859ZM1347.86 90.2398C1345.11 82.9655 1343.72 74.9428 1343.72 66.14H1337.72C1337.72 75.5838 1339.21 84.3345 1342.25 92.3602L1347.86 90.2398ZM1343.72 66.14C1343.72 57.3368 1345.11 49.3453 1347.86 42.1321L1342.25 39.9979C1339.21 47.9713 1337.72 56.6965 1337.72 66.14H1343.72ZM1347.86 42.1252C1350.62 34.8253 1354.49 28.6048 1359.46 23.4212L1355.13 19.2688C1349.56 25.0785 1345.27 32.0047 1342.25 40.0048L1347.86 42.1252ZM1359.47 23.4101C1364.44 18.1737 1370.4 14.1015 1377.4 11.1955L1375.1 5.6545C1367.36 8.86848 1360.69 13.4096 1355.12 19.2799L1359.47 23.4101ZM1377.4 11.1955C1384.36 8.30447 1392.12 6.83499 1400.73 6.83499V0.834991C1391.43 0.834991 1382.87 2.42551 1375.1 5.6545L1377.4 11.1955ZM1400.73 6.83499C1409.33 6.83499 1417.1 8.30447 1424.06 11.1955L1426.36 5.6545C1418.58 2.42551 1410.03 0.834991 1400.73 0.834991V6.83499ZM1424.06 11.1986C1431.12 14.1057 1437.11 18.1778 1442.07 23.4101L1446.42 19.2799C1440.85 13.4055 1434.14 8.86426 1426.35 5.6514L1424.06 11.1986ZM1442.08 23.4212C1447.05 28.6048 1450.92 34.8253 1453.68 42.1252L1459.29 40.0048C1456.27 32.0047 1451.98 25.0785 1446.41 19.2688L1442.08 23.4212ZM1453.68 42.1321C1456.43 49.3453 1457.82 57.3368 1457.82 66.14H1463.82C1463.82 56.6965 1462.32 47.9713 1459.29 39.9979L1453.68 42.1321ZM1446.91 66.14C1446.91 58.3899 1445.85 51.338 1443.68 45.022L1438.01 46.968C1439.92 52.552 1440.91 58.9301 1440.91 66.14H1446.91ZM1443.68 45.022C1441.53 38.7344 1438.44 33.3462 1434.39 28.9228L1429.97 32.9772C1433.39 36.7138 1436.08 41.3556 1438.01 46.968L1443.68 45.022ZM1434.4 28.9381C1430.35 24.4605 1425.45 21.0333 1419.73 18.659L1417.43 24.201C1422.36 26.2467 1426.52 29.1662 1429.95 32.9619L1434.4 28.9381ZM1419.73 18.659C1413.99 16.2781 1407.64 15.115 1400.73 15.115V21.115C1406.96 21.115 1412.51 22.1618 1417.43 24.201L1419.73 18.659ZM1400.73 15.115C1393.87 15.115 1387.55 16.2794 1381.81 18.659L1384.11 24.201C1389.03 22.1606 1394.55 21.115 1400.73 21.115V15.115ZM1381.81 18.659C1376.09 21.0317 1371.17 24.4542 1367.07 28.9215L1371.49 32.9785C1374.98 29.1724 1379.18 26.2483 1384.11 24.201L1381.81 18.659ZM1367.07 28.9228C1363.01 33.3462 1359.92 38.7344 1357.77 45.022L1363.44 46.968C1365.37 41.3556 1368.06 36.7138 1371.49 32.9772L1367.07 28.9228ZM1357.77 45.022C1355.6 51.338 1354.55 58.3899 1354.55 66.14H1360.55C1360.55 58.9301 1361.53 52.552 1363.44 46.968L1357.77 45.022ZM1354.55 66.14C1354.55 73.8901 1355.6 80.942 1357.77 87.258L1363.44 85.312C1361.53 79.728 1360.55 73.3499 1360.55 66.14H1354.55ZM1357.77 87.2663C1359.93 93.4956 1363.01 98.8727 1367.05 103.342L1371.5 99.3181C1368.06 95.5139 1365.37 90.8611 1363.44 85.3037L1357.77 87.2663ZM1367.08 103.374C1371.18 107.779 1376.1 111.167 1381.81 113.536L1384.11 107.994C1379.17 105.943 1374.97 103.041 1371.47 99.2863L1367.08 103.374ZM1381.84 113.546C1387.57 115.862 1393.88 116.995 1400.73 116.995V110.995C1394.54 110.995 1389.01 109.974 1384.09 107.984L1381.84 113.546ZM1400.73 116.995C1407.63 116.995 1413.97 115.863 1419.7 113.546L1417.45 107.984C1412.53 109.973 1406.97 110.995 1400.73 110.995V116.995ZM1419.73 113.536C1425.44 111.166 1430.34 107.773 1434.39 103.357L1429.97 99.3028C1426.53 103.047 1422.37 105.944 1417.43 107.994L1419.73 113.536ZM1434.4 103.342C1438.44 98.8727 1441.53 93.4956 1443.68 87.2663L1438.01 85.3037C1436.09 90.8611 1433.39 95.5139 1429.95 99.3181L1434.4 103.342ZM1443.68 87.258C1445.85 80.942 1446.91 73.8901 1446.91 66.14H1440.91C1440.91 73.3499 1439.92 79.728 1438.01 85.312L1443.68 87.258ZM1469.72 5.19499V2.19499H1465.64L1466.86 6.08834L1469.72 5.19499ZM1489.02 9.10499L1491.89 8.25037L1491.89 8.24295L1489.02 9.10499ZM1514.18 93.765L1517.05 92.9127L1517.05 92.9104L1514.18 93.765ZM1515.37 98.695L1512.42 99.2651L1512.43 99.3106L1512.44 99.3558L1515.37 98.695ZM1516.47 104.22L1513.52 104.741L1519.41 104.825L1516.47 104.22ZM1517.66 98.695L1520.59 99.3558L1520.59 99.3459L1520.59 99.3361L1517.66 98.695ZM1519.02 93.765L1521.86 94.7463L1521.86 94.7364L1521.86 94.7265L1519.02 93.765ZM1547.67 9.10499L1544.84 8.10653L1544.83 8.12497L1544.82 8.14348L1547.67 9.10499ZM1549.62 6.46999L1551.53 8.78578L1551.54 8.78024L1551.54 8.77466L1549.62 6.46999ZM1561.61 6.3L1559.71 8.62834L1559.75 8.65622L1559.78 8.68307L1561.61 6.3ZM1563.65 9.10499L1566.49 8.14861L1566.48 8.13124L1566.48 8.11395L1563.65 9.10499ZM1592.12 93.765L1589.28 94.7214L1589.28 94.7339L1589.29 94.7463L1592.12 93.765ZM1594.84 103.88L1591.9 104.494L1597.79 104.417L1594.84 103.88ZM1596.88 93.765L1599.75 94.6473L1599.75 94.6348L1599.76 94.6223L1596.88 93.765ZM1622.13 9.10499L1625 9.96227L1625.01 9.93517L1625.02 9.90792L1622.13 9.10499ZM1624 6.385L1622.15 4.01694L1622.12 4.04262L1622.09 4.0692L1624 6.385ZM1640.49 5.19499L1643.35 6.08834L1644.56 2.19499H1640.49V5.19499ZM1602.49 127V130H1604.7L1605.36 127.893L1602.49 127ZM1587.7 127L1584.85 127.946L1585.54 130H1587.7V127ZM1556.85 34.095L1559.69 33.1494L1559.68 33.1205L1559.67 33.0918L1556.85 34.095ZM1555.15 27.975L1558.08 27.3318L1552.24 27.2474L1555.15 27.975ZM1554.3 31.29L1551.4 30.5265L1551.38 30.5826L1551.37 30.6392L1554.3 31.29ZM1553.53 34.095L1556.38 35.0452L1556.38 35.0437L1553.53 34.095ZM1522.51 127V130H1524.67L1525.35 127.95L1522.51 127ZM1507.72 127L1504.85 127.893L1505.51 130H1507.72V127ZM1469.72 8.19499H1483.41V2.19499H1469.72V8.19499ZM1483.41 8.19499C1484.37 8.19499 1484.9 8.42666 1485.24 8.68307L1488.88 3.91692C1487.29 2.69999 1485.39 2.19499 1483.41 2.19499V8.19499ZM1485.24 8.68307C1485.71 9.04627 1485.99 9.45469 1486.14 9.96704L1491.89 8.24295C1491.36 6.48864 1490.34 5.02705 1488.88 3.91692L1485.24 8.68307ZM1486.14 9.95962L1511.3 94.6196L1517.05 92.9104L1491.89 8.25037L1486.14 9.95962ZM1511.3 94.6173C1511.72 96.044 1512.1 97.5923 1512.42 99.2651L1518.31 98.1249C1517.96 96.2843 1517.54 94.546 1517.05 92.9127L1511.3 94.6173ZM1512.44 99.3558C1512.83 101.062 1513.18 102.857 1513.52 104.741L1519.43 103.699C1519.08 101.729 1518.7 99.8409 1518.29 98.0342L1512.44 99.3558ZM1519.41 104.825C1519.8 102.915 1520.2 101.092 1520.59 99.3558L1514.73 98.0342C1514.33 99.8111 1513.93 101.671 1513.53 103.615L1519.41 104.825ZM1520.59 99.3361C1520.97 97.617 1521.39 96.0896 1521.86 94.7463L1516.19 92.7837C1515.63 94.387 1515.15 96.1463 1514.73 98.0539L1520.59 99.3361ZM1521.86 94.7265L1550.51 10.0665L1544.82 8.14348L1516.18 92.8035L1521.86 94.7265ZM1550.5 10.1035C1550.62 9.7581 1550.89 9.30891 1551.53 8.78578L1547.71 4.15421C1546.42 5.21774 1545.4 6.52522 1544.84 8.10653L1550.5 10.1035ZM1551.54 8.77466C1551.98 8.40537 1552.51 8.19499 1553.28 8.19499V2.19499C1551.21 2.19499 1549.3 2.83461 1547.7 4.16533L1551.54 8.77466ZM1553.28 8.19499H1558.04V2.19499H1553.28V8.19499ZM1558.04 8.19499C1559 8.19499 1559.47 8.4295 1559.71 8.62834L1563.5 3.97165C1561.93 2.69715 1560.01 2.19499 1558.04 2.19499V8.19499ZM1559.78 8.68307C1560.29 9.06791 1560.61 9.52108 1560.81 10.096L1566.48 8.11395C1565.89 6.42224 1564.85 5.00541 1563.43 3.91692L1559.78 8.68307ZM1560.8 10.0614L1589.28 94.7214L1594.96 92.8086L1566.49 8.14861L1560.8 10.0614ZM1589.29 94.7463C1590.26 97.5479 1591.13 100.793 1591.9 104.494L1597.78 103.266C1596.96 99.3738 1596.03 95.8754 1594.96 92.7837L1589.29 94.7463ZM1597.79 104.417C1598.14 102.534 1598.45 100.734 1598.74 99.0182L1592.82 98.0318C1592.54 99.7159 1592.23 101.486 1591.89 103.343L1597.79 104.417ZM1598.74 99.0182C1599 97.4347 1599.34 95.9792 1599.75 94.6473L1594.01 92.8827C1593.52 94.4974 1593.12 96.2153 1592.82 98.0318L1598.74 99.0182ZM1599.76 94.6223L1625 9.96227L1619.25 8.24772L1594.01 92.9077L1599.76 94.6223ZM1625.02 9.90792C1625.11 9.58146 1625.33 9.17453 1625.9 8.7008L1622.09 4.0692C1620.74 5.18213 1619.71 6.58852 1619.24 8.30206L1625.02 9.90792ZM1625.84 8.75305C1626.28 8.40928 1626.83 8.19499 1627.65 8.19499V2.19499C1625.64 2.19499 1623.75 2.77404 1622.15 4.01694L1625.84 8.75305ZM1627.65 8.19499H1640.49V2.19499H1627.65V8.19499ZM1637.62 4.30165L1599.63 126.107L1605.36 127.893L1643.35 6.08834L1637.62 4.30165ZM1602.49 124H1587.7V130H1602.49V124ZM1590.55 126.054L1559.69 33.1494L1554 35.0406L1584.85 127.946L1590.55 126.054ZM1559.67 33.0918C1559.1 31.4798 1558.57 29.5646 1558.08 27.3318L1552.22 28.6182C1552.75 31.0321 1553.34 33.1969 1554.02 35.0982L1559.67 33.0918ZM1552.24 27.2474C1551.96 28.3693 1551.68 29.4624 1551.4 30.5265L1557.2 32.0535C1557.48 30.9643 1557.77 29.8473 1558.06 28.7026L1552.24 27.2474ZM1551.37 30.6392C1551.16 31.5746 1550.93 32.4086 1550.69 33.1463L1556.38 35.0437C1556.7 34.0814 1556.98 33.0454 1557.22 31.9408L1551.37 30.6392ZM1550.69 33.1448L1519.66 126.05L1525.35 127.95L1556.38 35.0452L1550.69 33.1448ZM1522.51 124H1507.72V130H1522.51V124ZM1510.58 126.107L1472.59 4.30165L1466.86 6.08834L1504.85 127.893L1510.58 126.107ZM1718.87 24.235L1721.44 25.7785L1721.49 25.6908L1721.54 25.5998L1718.87 24.235ZM1717.25 26.19L1718.97 28.6477L1719.05 28.5926L1719.12 28.5326L1717.25 26.19ZM1711.64 25.34L1709.81 27.7138L1709.83 27.7335L1709.86 27.7525L1711.64 25.34ZM1706.8 22.195L1705.22 24.7474L1705.26 24.7743L1705.31 24.7997L1706.8 22.195ZM1699.74 18.965L1698.74 21.7929L1698.75 21.7961L1698.76 21.7993L1699.74 18.965ZM1680.02 19.05L1680.99 21.8903L1681.01 21.8817L1681.04 21.8727L1680.02 19.05ZM1672.88 23.045L1670.9 20.7955L1670.88 20.8102L1670.86 20.8252L1672.88 23.045ZM1668.63 29.08L1671.39 30.2534L1671.4 30.2412L1671.4 30.229L1668.63 29.08ZM1669.65 44.975L1667.22 46.7359L1667.25 46.7704L1667.27 46.8041L1669.65 44.975ZM1676.28 50.67L1674.77 53.2613L1674.78 53.2681L1674.79 53.2747L1676.28 50.67ZM1685.63 54.835L1684.65 57.6716L1684.68 57.6811L1684.71 57.6901L1685.63 54.835ZM1696.34 58.405L1695.37 61.2421L1695.37 61.2444L1695.38 61.2466L1696.34 58.405ZM1707.05 62.655L1705.8 65.3815L1705.83 65.3938L1705.85 65.4055L1707.05 62.655ZM1716.4 68.52L1714.43 70.7777L1714.44 70.7878L1714.45 70.7978L1716.4 68.52ZM1723.03 77.275L1720.32 78.5631L1720.33 78.5811L1720.34 78.599L1723.03 77.275ZM1722.86 105.07L1725.66 106.161L1725.66 106.149L1722.86 105.07ZM1714.87 117.225L1712.77 115.087L1712.76 115.095L1712.75 115.104L1714.87 117.225ZM1702.04 125.385L1700.95 122.589L1700.94 122.593L1702.04 125.385ZM1663.19 124.11L1661.97 126.848L1661.98 126.855L1661.99 126.861L1663.19 124.11ZM1646.62 112.465L1644.05 110.905L1642.86 112.858L1644.43 114.522L1646.62 112.465ZM1651.38 104.645L1648.95 102.88L1648.88 102.98L1648.81 103.085L1651.38 104.645ZM1652.99 103.115L1654.6 105.646L1654.63 105.629L1654.65 105.611L1652.99 103.115ZM1659.28 104.39L1657.34 106.674L1657.36 106.695L1657.39 106.716L1659.28 104.39ZM1664.98 108.555L1663.3 111.042L1663.31 111.051L1663.33 111.061L1664.98 108.555ZM1673.31 112.805L1672.18 115.587L1672.21 115.599L1672.24 115.61L1673.31 112.805ZM1695.75 113.06L1696.74 115.89L1695.75 113.06ZM1703.48 108.555L1705.51 110.764L1705.51 110.762L1703.48 108.555ZM1708.41 101.5L1705.64 100.346V100.346L1708.41 101.5ZM1707.56 83.395L1705.09 85.0996L1705.12 85.1334L1705.14 85.1665L1707.56 83.395ZM1701.02 77.445L1699.5 80.0363L1701.02 77.445ZM1691.67 73.45L1690.73 76.3007L1690.76 76.3098L1690.79 76.3183L1691.67 73.45ZM1680.96 70.05L1680.02 72.9005L1680.05 72.9091L1680.07 72.9173L1680.96 70.05ZM1670.25 65.97L1669.03 68.7133L1669.04 68.7169L1669.05 68.7205L1670.25 65.97ZM1660.98 60.02L1662.98 57.7855L1660.98 60.02ZM1654.35 50.925L1651.61 52.1473L1651.62 52.1729L1651.63 52.1983L1654.35 50.925ZM1654.35 24.83L1651.59 23.6623L1651.58 23.6789L1651.57 23.6956L1654.35 24.83ZM1661.66 14.12L1659.56 11.9796V11.9797L1661.66 14.12ZM1673.39 6.64L1672.28 3.85223L1672.27 3.85691L1673.39 6.64ZM1708.16 7.065L1707.08 9.86576L1708.16 7.065ZM1722.86 16.415L1725.53 17.7798L1726.54 15.8085L1724.95 14.2648L1722.86 16.415ZM1716.29 22.6915C1715.9 23.3401 1715.58 23.6819 1715.38 23.8474L1719.12 28.5326C1720.05 27.7914 1720.81 26.8299 1721.44 25.7785L1716.29 22.6915ZM1715.53 23.7323C1715.6 23.681 1715.52 23.785 1715.04 23.785V29.785C1716.37 29.785 1717.76 29.4924 1718.97 28.6477L1715.53 23.7323ZM1715.04 23.785C1715.06 23.785 1714.94 23.788 1714.64 23.6628C1714.35 23.5374 1713.94 23.3106 1713.42 22.9275L1709.86 27.7525C1711.36 28.8618 1713.13 29.785 1715.04 29.785V23.785ZM1713.47 22.9661C1712.08 21.8895 1710.34 20.7648 1708.28 19.5903L1705.31 24.7997C1707.22 25.8919 1708.71 26.8638 1709.81 27.7138L1713.47 22.9661ZM1708.37 19.6426C1706.21 18.309 1703.65 17.146 1700.72 16.1307L1698.76 21.7993C1701.38 22.7107 1703.52 23.701 1705.22 24.7474L1708.37 19.6426ZM1700.74 16.1371C1697.61 15.0274 1693.93 14.52 1689.8 14.52V20.52C1693.48 20.52 1696.43 20.9759 1698.74 21.7929L1700.74 16.1371ZM1689.8 14.52C1685.84 14.52 1682.23 15.0671 1679 16.2273L1681.04 21.8727C1683.48 20.9929 1686.38 20.52 1689.8 20.52V14.52ZM1679.05 16.2097C1675.91 17.2799 1673.16 18.7936 1670.9 20.7955L1674.87 25.2945C1676.45 23.8964 1678.47 22.7468 1680.99 21.8903L1679.05 16.2097ZM1670.86 20.8252C1668.67 22.8208 1666.99 25.1976 1665.86 27.9309L1671.4 30.229C1672.2 28.3158 1673.35 26.6692 1674.9 25.2648L1670.86 20.8252ZM1665.87 27.9066C1664.74 30.5737 1664.19 33.4416 1664.19 36.475H1670.19C1670.19 34.1817 1670.6 32.1196 1671.39 30.2534L1665.87 27.9066ZM1664.19 36.475C1664.19 40.3691 1665.13 43.8555 1667.22 46.7359L1672.08 43.2141C1670.88 41.5612 1670.19 39.3809 1670.19 36.475H1664.19ZM1667.27 46.8041C1669.24 49.3592 1671.76 51.5042 1674.77 53.2613L1677.79 48.0787C1675.36 46.6624 1673.46 45.0108 1672.03 43.1459L1667.27 46.8041ZM1674.79 53.2747C1677.75 54.9666 1681.04 56.429 1684.65 57.6716L1686.61 51.9984C1683.3 50.861 1680.36 49.5467 1677.77 48.0653L1674.79 53.2747ZM1684.71 57.6901C1688.2 58.8174 1691.76 60.0013 1695.37 61.2421L1697.32 55.5679C1693.67 54.3153 1690.08 53.1193 1686.55 51.9799L1684.71 57.6901ZM1695.38 61.2466C1698.97 62.4607 1702.44 63.8392 1705.8 65.3815L1708.3 59.9285C1704.75 58.2975 1701.08 56.8426 1697.3 55.5633L1695.38 61.2466ZM1705.85 65.4055C1709.1 66.8197 1711.95 68.613 1714.43 70.7777L1718.38 66.2623C1715.41 63.667 1712.03 61.5503 1708.25 59.9045L1705.85 65.4055ZM1714.45 70.7978C1716.89 72.8918 1718.85 75.4676 1720.32 78.5631L1725.74 75.9869C1723.92 72.1691 1721.46 68.9082 1718.35 66.2422L1714.45 70.7978ZM1720.34 78.599C1721.78 81.5366 1722.58 85.3043 1722.58 90.025H1728.58C1728.58 84.659 1727.68 79.9267 1725.72 75.951L1720.34 78.599ZM1722.58 90.025C1722.58 95.0038 1721.73 99.651 1720.06 103.991L1725.66 106.149C1727.61 101.082 1728.58 95.6995 1728.58 90.025H1722.58ZM1720.07 103.979C1718.4 108.237 1715.97 111.93 1712.77 115.087L1716.97 119.363C1720.79 115.606 1723.69 111.196 1725.66 106.161L1720.07 103.979ZM1712.75 115.104C1709.62 118.233 1705.71 120.738 1700.95 122.589L1703.12 128.181C1708.56 126.065 1713.21 123.13 1716.99 119.346L1712.75 115.104ZM1700.94 122.593C1696.3 124.415 1690.94 125.36 1684.78 125.36V131.36C1691.55 131.36 1697.68 130.321 1703.13 128.177L1700.94 122.593ZM1684.78 125.36C1677.27 125.36 1670.49 124.011 1664.39 121.359L1661.99 126.861C1668.93 129.876 1676.54 131.36 1684.78 131.36V125.36ZM1664.42 121.372C1658.3 118.634 1653.1 114.977 1648.8 110.408L1644.43 114.522C1649.31 119.7 1655.16 123.806 1661.97 126.848L1664.42 121.372ZM1649.18 114.025L1653.94 106.205L1648.81 103.085L1644.05 110.905L1649.18 114.025ZM1653.8 106.41C1654.04 106.077 1654.31 105.832 1654.6 105.646L1651.38 100.584C1650.43 101.191 1649.61 101.966 1648.95 102.88L1653.8 106.41ZM1654.65 105.611C1654.86 105.476 1655.02 105.435 1655.2 105.435V99.435C1653.8 99.435 1652.48 99.8475 1651.33 100.619L1654.65 105.611ZM1655.2 105.435C1655.33 105.435 1656 105.54 1657.34 106.674L1661.23 102.106C1659.5 100.633 1657.45 99.435 1655.2 99.435V105.435ZM1657.39 106.716C1659.01 108.036 1660.98 109.479 1663.3 111.042L1666.65 106.068C1664.44 104.571 1662.62 103.237 1661.18 102.064L1657.39 106.716ZM1663.33 111.061C1665.85 112.723 1668.81 114.227 1672.18 115.587L1674.43 110.023C1671.34 108.776 1668.75 107.447 1666.63 106.049L1663.33 111.061ZM1672.24 115.61C1675.96 117.021 1680.34 117.675 1685.29 117.675V111.675C1680.84 111.675 1677.22 111.082 1674.37 110L1672.24 115.61ZM1685.29 117.675C1689.47 117.675 1693.3 117.1 1696.74 115.89L1694.75 110.23C1692.07 111.174 1688.93 111.675 1685.29 111.675V117.675ZM1696.74 115.89C1700.13 114.697 1703.08 113.001 1705.51 110.764L1701.45 106.346C1699.69 107.962 1697.48 109.27 1694.75 110.23L1696.74 115.89ZM1705.51 110.762C1707.99 108.483 1709.88 105.771 1711.18 102.654L1705.64 100.346C1704.67 102.669 1703.28 104.661 1701.45 106.348L1705.51 110.762ZM1711.18 102.654C1712.48 99.5222 1713.11 96.0913 1713.11 92.405H1707.11C1707.11 95.4053 1706.6 98.0378 1705.64 100.346L1711.18 102.654ZM1713.11 92.405C1713.11 88.2634 1712.15 84.5885 1709.98 81.6235L1705.14 85.1665C1706.37 86.8482 1707.11 89.1799 1707.11 92.405H1713.11ZM1710.03 81.6904C1708.11 78.917 1705.59 76.6422 1702.53 74.8537L1699.5 80.0363C1701.88 81.4212 1703.72 83.113 1705.09 85.0996L1710.03 81.6904ZM1702.53 74.8537C1699.58 73.1332 1696.24 71.7151 1692.54 70.5817L1690.79 76.3183C1694.11 77.3383 1697.01 78.5835 1699.5 80.0363L1702.53 74.8537ZM1692.6 70.5993C1689.13 69.4599 1685.54 68.3211 1681.84 67.1827L1680.07 72.9173C1683.74 74.0456 1687.29 75.1734 1690.73 76.3007L1692.6 70.5993ZM1681.89 67.1995C1678.35 66.0388 1674.87 64.7122 1671.44 63.2195L1669.05 68.7205C1672.65 70.2878 1676.3 71.6811 1680.02 72.9005L1681.89 67.1995ZM1671.46 63.2267C1668.28 61.8195 1665.46 60.005 1662.98 57.7855L1658.98 62.2545C1661.94 64.9083 1665.3 67.0605 1669.03 68.7133L1671.46 63.2267ZM1662.98 57.7855C1660.59 55.643 1658.61 52.9487 1657.07 49.6517L1651.63 52.1983C1653.49 56.1546 1655.93 59.5237 1658.98 62.2545L1662.98 57.7855ZM1657.09 49.7027C1655.67 46.5098 1654.89 42.4209 1654.89 37.325H1648.89C1648.89 42.9958 1649.75 47.9735 1651.61 52.1473L1657.09 49.7027ZM1654.89 37.325C1654.89 33.4109 1655.63 29.631 1657.13 25.9644L1651.57 23.6956C1649.78 28.0757 1648.89 32.6257 1648.89 37.325H1654.89ZM1657.11 25.9977C1658.66 22.3458 1660.87 19.1048 1663.76 16.2603L1659.56 11.9797C1656.11 15.3685 1653.44 19.2675 1651.59 23.6623L1657.11 25.9977ZM1663.76 16.2603C1666.62 13.4533 1670.18 11.1641 1674.51 9.42308L1672.27 3.85691C1667.3 5.85585 1663.05 8.55335 1659.56 11.9796L1663.76 16.2603ZM1674.5 9.42774C1678.79 7.72274 1683.78 6.83499 1689.54 6.83499V0.834991C1683.17 0.834991 1677.4 1.81724 1672.28 3.85226L1674.5 9.42774ZM1689.54 6.83499C1696.02 6.83499 1701.86 7.86029 1707.08 9.86576L1709.23 4.26423C1703.24 1.96303 1696.66 0.834991 1689.54 0.834991V6.83499ZM1707.08 9.86576C1712.32 11.8774 1716.87 14.7765 1720.77 18.5652L1724.95 14.2648C1720.46 9.89352 1715.21 6.55923 1709.23 4.26423L1707.08 9.86576ZM1720.19 15.0502L1716.19 22.8702L1721.54 25.5998L1725.53 17.7798L1720.19 15.0502Z"
     fill="#AEAEAE"
     id="path10"
     style="fill:#b3b3b3" />
</svg>
