<?xml version="1.0" encoding="UTF-8" standalone="no"?>
<svg
   xmlns:dc="http://purl.org/dc/elements/1.1/"
   xmlns:cc="http://creativecommons.org/ns#"
   xmlns:rdf="http://www.w3.org/1999/02/22-rdf-syntax-ns#"
   xmlns:svg="http://www.w3.org/2000/svg"
   xmlns="http://www.w3.org/2000/svg"
   xmlns:sodipodi="http://sodipodi.sourceforge.net/DTD/sodipodi-0.dtd"
   xmlns:inkscape="http://www.inkscape.org/namespaces/inkscape"
   width="27"
   height="27"
   viewBox="0 0 27 27"
   fill="none"
   version="1.1"
   id="svg835"
   sodipodi:docname="spotify.svg"
   inkscape:version="1.0.1 (c497b03c, 2020-09-10)">
  <metadata
     id="metadata841">
    <rdf:RDF>
      <cc:Work
         rdf:about="">
        <dc:format>image/svg+xml</dc:format>
        <dc:type
           rdf:resource="http://purl.org/dc/dcmitype/StillImage" />
        <dc:title></dc:title>
      </cc:Work>
    </rdf:RDF>
  </metadata>
  <defs
     id="defs839" />
  <sodipodi:namedview
     pagecolor="#ffffff"
     bordercolor="#666666"
     borderopacity="1"
     objecttolerance="10"
     gridtolerance="10"
     guidetolerance="10"
     inkscape:pageopacity="0"
     inkscape:pageshadow="2"
     inkscape:window-width="820"
     inkscape:window-height="480"
     id="namedview837"
     showgrid="false"
     inkscape:zoom="30.037037"
     inkscape:cx="15.54092"
     inkscape:cy="1.5147965"
     inkscape:window-x="3007"
     inkscape:window-y="41"
     inkscape:window-maximized="0"
     inkscape:current-layer="svg835" />
  <path
     d="M13.5007 0C6.07537 0 0 6.07537 0 13.5007C0 20.9246 6.07537 27 13.5007 27C20.9246 27 27 20.9246 27 13.5007C27 6.07537 20.9922 0 13.5007 0ZM19.7098 19.5071C19.4409 19.9112 18.968 20.0476 18.5612 19.7787C15.3871 17.8194 11.4048 17.414 6.6794 18.4937C6.20915 18.6315 5.80376 18.2937 5.66864 17.8869C5.53216 17.414 5.86998 17.0113 6.27671 16.8748C11.4048 15.7262 15.8614 16.2005 19.3707 18.3612C19.8436 18.5626 19.9112 19.1017 19.7098 19.5071ZM21.3314 15.7952C20.9922 16.2668 20.3855 16.4694 19.9112 16.1316C16.2668 13.9074 10.7332 13.2291 6.48076 14.5804C5.94295 14.7168 5.33217 14.4452 5.19839 13.9074C5.06191 13.3642 5.33352 12.7561 5.87268 12.621C10.7995 11.1373 16.8762 11.8805 21.0598 14.4466C21.4651 14.6479 21.6678 15.3222 21.3314 15.7952ZM21.4651 12.0129C17.1451 9.44953 9.92248 9.17927 5.80376 10.4643C5.12947 10.6643 4.45248 10.2603 4.25249 9.65357C4.0498 8.97523 4.45248 8.30094 5.06191 8.09824C9.85491 6.68075 17.7532 6.94965 22.7489 9.92383C23.3556 10.2603 23.5583 11.0711 23.2205 11.6778C22.8826 12.1507 22.0732 12.3507 21.4651 12.0129Z"
     fill="#F0F0F0"
     id="path833"
     style="fill:#2bc9af;fill-opacity:1" />
</svg>
