<svg width="27" height="27" viewBox="0 0 27 27" fill="none" xmlns="http://www.w3.org/2000/svg">
<path d="M25.5 0H1.5C0.6705 0 0 0.672 0 1.5V25.5C0 26.328 0.6705 27 1.5 27H25.5C26.3295 27 27 26.328 27 25.5V1.5C27 0.672 26.3295 0 25.5 0ZM8.0085 23.0055H4.0005V10.1205H8.0085V23.0055ZM6.0045 8.361C4.7205 8.361 3.6825 7.32 3.6825 6.039C3.6825 4.758 4.719 3.717 6.0045 3.717C7.2855 3.717 8.3265 4.7565 8.3265 6.039C8.3265 7.3215 7.2855 8.361 6.0045 8.361ZM23.007 23.0055H19.0035V16.74C19.0035 15.246 18.9765 13.3245 16.9215 13.3245C14.8365 13.3245 14.52 14.9535 14.52 16.635V23.007H10.5195V10.122H14.3595V11.883H14.415C14.9475 10.8705 16.2555 9.8025 18.201 9.8025C22.257 9.8025 23.0055 12.4695 23.0055 15.9405V23.0055H23.007Z" fill="#F0F0F0"/>
</svg>
