<?xml version="1.0" standalone="no"?>
<!DOCTYPE svg PUBLIC "-//W3C//DTD SVG 20010904//EN"
 "http://www.w3.org/TR/2001/REC-SVG-20010904/DTD/svg10.dtd">
<svg version="1.0" xmlns="http://www.w3.org/2000/svg"
 width="378.000000pt" height="378.000000pt" viewBox="0 0 378.000000 378.000000"
 preserveAspectRatio="xMidYMid meet">
<metadata>
Created by potrace 1.11, written by Peter Selinger 2001-2013
</metadata>
<g transform="translate(0.000000,378.000000) scale(0.100000,-0.100000)"
fill="#000000" stroke="none">
<path d="M7 3222 c-3 -6 -2 -2609 2 -2646 2 -23 1040 -16 1164 8 175 33 336
95 467 181 146 95 277 238 375 409 7 12 10 -83 10 -300 l0 -318 80 1 c44 1
103 2 132 2 l51 1 0 611 c0 336 3 613 6 616 2 3 284 4 625 4 l621 -1 1 28 c0
15 2 64 2 110 l2 82 -40 1 c-22 0 -305 1 -628 2 l-589 2 1 415 c0 228 0 447 1
487 l0 71 735 0 c405 0 738 1 741 4 4 4 8 156 5 213 -1 20 -7 20 -863 18 -475
-1 -868 -2 -873 -2 -7 -1 -10 -102 -10 -301 0 -165 -2 -300 -5 -300 -3 0 -18
23 -33 50 -38 68 -134 185 -197 243 -178 162 -385 256 -665 303 -57 9 -1113
15 -1118 6z m976 -233 c84 -3 192 -22 277 -50 401 -132 643 -502 654 -999 4
-173 -10 -288 -51 -430 -51 -177 -124 -308 -238 -426 -162 -167 -337 -250
-590 -280 -33 -4 -220 -7 -415 -7 l-355 0 0 1096 0 1096 55 3 c55 3 537 1 663
-3z"/>
</g>
</svg>
