<svg width="471" height="44" viewBox="0 0 471 44" fill="none" xmlns="http://www.w3.org/2000/svg">
<path d="M0.692985 43H0.392985V43.3H0.692985V43ZM0.692985 1.066V0.765997H0.392985V1.066H0.692985ZM22.182 1.849L22.1038 2.13863L22.1045 2.13882L22.182 1.849ZM26.967 4.082L26.7823 4.31841L26.7841 4.31979L26.967 4.082ZM30.157 15.073L30.4422 15.166L30.4428 15.1642L30.157 15.073ZM28.794 17.596L28.5575 17.4114L28.5569 17.4122L28.794 17.596ZM26.474 19.713L26.3064 19.4642L26.304 19.4658L26.474 19.713ZM23.139 21.337L23.0416 21.0533L22.0394 21.3973L23.0732 21.6297L23.139 21.337ZM30.766 35.605L31.0397 35.7278L31.0397 35.7278L30.766 35.605ZM27.808 39.52L28.0004 39.7502L28.0024 39.7485L27.808 39.52ZM23.023 42.072L23.1161 42.3572L23.1161 42.3572L23.023 42.072ZM8.49398 24.614V24.314H8.19398V24.614H8.49398ZM8.49398 36.91H8.19398V37.21H8.49398V36.91ZM20.036 36.388L19.9361 36.1051L19.9344 36.1057L20.036 36.388ZM22.385 34.996L22.1763 34.7804L22.1729 34.7839L22.385 34.996ZM23.661 32.966L23.3778 32.8669L23.3757 32.8733L23.661 32.966ZM23.632 28.065L23.3529 28.1752L23.354 28.1777L23.632 28.065ZM22.269 26.209L22.0755 26.4383L22.0798 26.4418L22.269 26.209ZM8.49398 19.22H8.19398V19.52H8.49398V19.22ZM20.761 17.77L20.5883 17.5247L20.5883 17.5247L20.761 17.77ZM8.49398 7.098V6.798H8.19398V7.098H8.49398ZM0.992985 43V1.066H0.392985V43H0.992985ZM0.692985 1.366H15.164V0.765997H0.692985V1.366ZM15.164 1.366C17.8919 1.366 20.2034 1.62552 22.1038 2.13863L22.2602 1.55937C20.2939 1.02847 17.9267 0.765997 15.164 0.765997V1.366ZM22.1045 2.13882C24.0289 2.65327 25.5845 3.3826 26.7823 4.31841L27.1517 3.84559C25.8748 2.84807 24.2404 2.08873 22.2595 1.55918L22.1045 2.13882ZM26.7841 4.31979C28.0024 5.25695 28.8871 6.38589 29.4456 7.70776L29.9983 7.47423C29.3969 6.05077 28.4449 4.84038 27.1499 3.84421L26.7841 4.31979ZM29.4456 7.70776C30.0078 9.03821 30.292 10.5443 30.292 12.231H30.892C30.892 10.4764 30.5962 8.88912 29.9983 7.47423L29.4456 7.70776ZM30.292 12.231C30.292 13.1871 30.1515 14.1036 29.8712 14.9818L30.4428 15.1642C30.7425 14.2251 30.892 13.2469 30.892 12.231H30.292ZM29.8718 14.98C29.5934 15.8338 29.1563 16.6441 28.5575 17.4114L29.0305 17.7806C29.669 16.9625 30.1406 16.0909 30.4422 15.166L29.8718 14.98ZM28.5569 17.4122C27.9801 18.1565 27.2316 18.8411 26.3064 19.4642L26.6416 19.9618C27.6111 19.3089 28.4092 18.5822 29.0311 17.7798L28.5569 17.4122ZM26.304 19.4658C25.4027 20.0855 24.3165 20.6156 23.0416 21.0533L23.2364 21.6207C24.5521 21.1691 25.6893 20.6165 26.6439 19.9602L26.304 19.4658ZM23.0732 21.6297C25.9171 22.2691 28.0145 23.3494 29.4003 24.8468C30.7811 26.3387 31.481 28.2724 31.481 30.675H32.081C32.081 28.1476 31.3406 26.0599 29.8407 24.4392C28.3458 22.8239 26.1222 21.7002 23.2048 21.0443L23.0732 21.6297ZM31.481 30.675C31.481 32.4146 31.1503 34.0157 30.4923 35.4822L31.0397 35.7278C31.735 34.1783 32.081 32.4927 32.081 30.675H31.481ZM30.4923 35.4822C29.8344 36.9483 28.876 38.2175 27.6136 39.2915L28.0024 39.7485C29.3307 38.6185 30.3442 37.2777 31.0397 35.7278L30.4923 35.4822ZM27.6156 39.2898C26.3543 40.344 24.7947 41.1779 22.9299 41.7868L23.1161 42.3572C25.0406 41.7288 26.671 40.8613 28.0004 39.7502L27.6156 39.2898ZM22.9299 41.7868C21.0711 42.3938 18.9381 42.7 16.527 42.7V43.3C18.9878 43.3 21.1856 42.9876 23.1161 42.3572L22.9299 41.7868ZM16.527 42.7H0.692985V43.3H16.527V42.7ZM8.19398 24.614V36.91H8.79399V24.614H8.19398ZM8.49398 37.21H16.411V36.61H8.49398V37.21ZM16.411 37.21C17.8825 37.21 19.1279 37.0337 20.1376 36.6703L19.9344 36.1057C19.0107 36.4383 17.8395 36.61 16.411 36.61V37.21ZM20.1358 36.6709C21.1528 36.312 21.978 35.8273 22.5971 35.2081L22.1729 34.7839C21.632 35.3247 20.8911 35.768 19.9361 36.1051L20.1358 36.6709ZM22.5936 35.2116C23.2272 34.5984 23.6794 33.8799 23.9463 33.0587L23.3757 32.8733C23.1399 33.5988 22.7414 34.2336 22.1764 34.7804L22.5936 35.2116ZM23.9441 33.0651C24.2266 32.258 24.367 31.4026 24.367 30.501H23.767C23.767 31.3394 23.6367 32.1273 23.3778 32.8669L23.9441 33.0651ZM24.367 30.501C24.367 29.5604 24.2169 28.7092 23.91 27.9523L23.354 28.1777C23.6271 28.8515 23.767 29.6242 23.767 30.501H24.367ZM23.911 27.9548C23.6019 27.1718 23.1164 26.511 22.4582 25.9762L22.0798 26.4418C22.6589 26.9123 23.082 27.4889 23.3529 28.1751L23.911 27.9548ZM22.4624 25.9797C21.8041 25.4242 20.9702 25.0107 19.9719 24.7311L19.8101 25.3089C20.7451 25.5707 21.4966 25.9498 22.0755 26.4383L22.4624 25.9797ZM19.9719 24.7311C18.9712 24.4509 17.7727 24.314 16.382 24.314V24.914C17.7366 24.914 18.8774 25.0477 19.8101 25.3089L19.9719 24.7311ZM16.382 24.314H8.49398V24.914H16.382V24.314ZM8.49398 19.52H14.729V18.92H8.49398V19.52ZM14.729 19.52C17.4065 19.52 19.4889 19.0327 20.9337 18.0153L20.5883 17.5247C19.2877 18.4406 17.3488 18.92 14.729 18.92V19.52ZM20.9337 18.0153C22.4066 16.9781 23.12 15.336 23.12 13.159H22.52C22.52 15.1966 21.8608 16.6286 20.5883 17.5247L20.9337 18.0153ZM23.12 13.159C23.12 10.9212 22.4847 9.25556 21.144 8.25L20.784 8.73C21.9179 9.58044 22.52 11.0274 22.52 13.159H23.12ZM21.144 8.25C19.8294 7.26409 17.8172 6.798 15.164 6.798V7.398C17.7694 7.398 19.6239 7.85991 20.784 8.73L21.144 8.25ZM15.164 6.798H8.49398V7.398H15.164V6.798ZM8.19398 7.098V19.22H8.79399V7.098H8.19398ZM75.3313 43V43.3H75.7714L75.6105 42.8903L75.3313 43ZM67.6173 42.507L67.4273 42.7392L67.433 42.7439L67.439 42.7483L67.6173 42.507ZM66.6893 41.231L66.4075 41.3341L66.4093 41.3387L66.6893 41.231ZM63.5573 32.676L63.839 32.5729L63.7669 32.376H63.5573V32.676ZM46.1863 32.676V32.376H45.9766L45.9046 32.5729L46.1863 32.676ZM43.0543 41.231L42.7725 41.1279L42.7709 41.1324L43.0543 41.231ZM42.1263 42.449L41.94 42.2137L41.9352 42.2177L42.1263 42.449ZM34.4123 43L34.1331 42.8903L33.9721 43.3H34.4123V43ZM50.8843 1.066V0.765997H50.6798L50.6051 0.956313L50.8843 1.066ZM58.8593 1.066L59.1385 0.956313L59.0638 0.765997H58.8593V1.066ZM48.1873 27.166L47.9057 27.0625L47.7574 27.466H48.1873V27.166ZM61.5563 27.166V27.466H61.9855L61.838 27.0629L61.5563 27.166ZM56.4523 13.217L56.734 13.1139L56.7332 13.1117L56.4523 13.217ZM55.6693 11.042L55.3833 11.133L55.386 11.1408L55.6693 11.042ZM54.8573 8.287L55.1466 8.20758L54.8573 7.15371L54.568 8.20758L54.8573 8.287ZM54.0453 11.042L53.7593 10.951L53.7576 10.957L54.0453 11.042ZM53.2913 13.275L53.0121 13.165L53.0097 13.1715L53.2913 13.275ZM75.3313 42.7H69.2993V43.3H75.3313V42.7ZM69.2993 42.7C68.6722 42.7 68.178 42.5484 67.7956 42.2657L67.439 42.7483C67.9459 43.123 68.5731 43.3 69.2993 43.3V42.7ZM67.8073 42.2748C67.4214 41.9591 67.1435 41.5763 66.9693 41.1233L66.4093 41.3387C66.6217 41.891 66.9625 42.3589 67.4273 42.7392L67.8073 42.2748ZM66.971 41.1279L63.839 32.5729L63.2756 32.7791L66.4076 41.3341L66.971 41.1279ZM63.5573 32.376H46.1863V32.976H63.5573V32.376ZM45.9046 32.5729L42.7726 41.1279L43.336 41.3341L46.468 32.7791L45.9046 32.5729ZM42.7709 41.1324C42.6393 41.511 42.3708 41.8728 41.9401 42.2138L42.3125 42.6842C42.8098 42.2905 43.16 41.8404 43.3376 41.3296L42.7709 41.1324ZM41.9352 42.2177C41.5518 42.5345 41.0712 42.7 40.4733 42.7V43.3C41.1901 43.3 41.8115 43.0982 42.3173 42.6803L41.9352 42.2177ZM40.4733 42.7H34.4123V43.3H40.4733V42.7ZM34.6915 43.1097L51.1635 1.17568L50.6051 0.956313L34.1331 42.8903L34.6915 43.1097ZM50.8843 1.366H58.8593V0.765997H50.8843V1.366ZM58.5801 1.17568L75.0521 43.1097L75.6105 42.8903L59.1385 0.956313L58.5801 1.17568ZM48.1873 27.466H61.5563V26.866H48.1873V27.466ZM61.838 27.0629L56.734 13.1139L56.1705 13.3201L61.2745 27.2691L61.838 27.0629ZM56.7332 13.1117C56.5022 12.4957 56.242 11.773 55.9525 10.9432L55.386 11.1408C55.6766 11.9737 55.9384 12.7009 56.1714 13.3223L56.7332 13.1117ZM55.9552 10.951C55.6859 10.1047 55.4163 9.19026 55.1466 8.20758L54.568 8.36641C54.8396 9.35574 55.1114 10.278 55.3834 11.133L55.9552 10.951ZM54.568 8.20758C54.2982 9.19026 54.0287 10.1047 53.7594 10.951L54.3312 11.133C54.6032 10.278 54.875 9.35574 55.1466 8.36641L54.568 8.20758ZM53.7576 10.957C53.5081 11.8015 53.2595 12.5372 53.0122 13.165L53.5704 13.385C53.8257 12.7368 54.0798 11.9838 54.333 11.127L53.7576 10.957ZM53.0097 13.1715L47.9057 27.0625L48.4689 27.2695L53.5729 13.3785L53.0097 13.1715ZM108.105 33.604L108.326 33.4007L108.324 33.3984L108.105 33.604ZM111.179 36.939L111.413 37.1275L111.575 36.926L111.4 36.7357L111.179 36.939ZM104.886 41.782L104.763 41.5084L104.763 41.5087L104.886 41.782ZM87.5444 41.869L87.4259 42.1446L87.4267 42.145L87.5444 41.869ZM81.1934 37.432L80.9735 37.6361L80.9735 37.6361L81.1934 37.432ZM77.1334 30.646L76.8505 30.7458L76.8511 30.7477L77.1334 30.646ZM77.3074 13.391L77.5859 13.5024L77.5862 13.5017L77.3074 13.391ZM81.7154 6.605L81.5032 6.39286L81.5032 6.39286L81.7154 6.605ZM88.5014 2.197L88.6121 2.47583L88.6131 2.4754L88.5014 2.197ZM105.408 2.11L105.289 2.38528L105.292 2.38645L105.408 2.11ZM111.411 6.054L111.655 6.22929L111.805 6.02103L111.622 5.84063L111.411 6.054ZM108.801 9.679L108.558 9.50359L108.552 9.51259L108.801 9.679ZM108.192 10.288L108.021 10.0412L108.012 10.048L108.192 10.288ZM105.843 10.027L105.663 10.267L105.663 10.267L105.843 10.027ZM104.074 8.896L103.926 9.15691L103.926 9.15691L104.074 8.896ZM101.348 7.765L101.257 8.05061L101.258 8.05107L101.348 7.765ZM91.7494 8.287L91.8636 8.56441L91.8652 8.56373L91.7494 8.287ZM87.4864 11.216L87.2677 11.0106L87.266 11.0124L87.4864 11.216ZM84.7024 15.885L84.4209 15.7813L84.4202 15.783L84.7024 15.885ZM84.7024 28.326L84.4199 28.4271L84.4209 28.4297L84.7024 28.326ZM91.4594 35.866L91.3391 36.1409L91.342 36.1421L91.4594 35.866ZM99.3184 36.678L99.2787 36.3806L99.2778 36.3808L99.3184 36.678ZM101.696 36.127L101.599 35.8431L101.597 35.844L101.696 36.127ZM103.755 35.17L103.911 35.4266L103.913 35.4252L103.755 35.17ZM105.698 33.691L105.498 33.468L105.497 33.469L105.698 33.691ZM106.307 33.285L106.432 33.5581L106.441 33.5536L106.451 33.5484L106.307 33.285ZM107.003 33.411C107.34 33.411 107.63 33.5371 107.887 33.8096L108.324 33.3984C107.962 33.0136 107.517 32.811 107.003 32.811V33.411ZM107.885 33.8073L110.959 37.1423L111.4 36.7357L108.326 33.4007L107.885 33.8073ZM110.946 36.7505C109.275 38.8209 107.215 40.4062 104.763 41.5084L105.009 42.0556C107.546 40.9152 109.682 39.2718 111.413 37.1275L110.946 36.7505ZM104.763 41.5087C102.336 42.6082 99.4032 43.164 95.9544 43.164V43.764C99.4655 43.764 102.487 43.1984 105.01 42.0553L104.763 41.5087ZM95.9544 43.164C92.8762 43.164 90.1137 42.6383 87.662 41.593L87.4267 42.145C89.963 43.2263 92.8072 43.764 95.9544 43.764V43.164ZM87.6628 41.5934C85.2249 40.5458 83.1429 39.0906 81.4132 37.2279L80.9735 37.6361C82.7625 39.5627 84.9145 41.0655 87.4259 42.1446L87.6628 41.5934ZM81.4132 37.2279C79.6835 35.3651 78.3504 33.1387 77.4156 30.5443L76.8511 30.7477C77.811 33.4119 79.1845 35.7095 80.9735 37.6361L81.4132 37.2279ZM77.4163 30.5462C76.5008 27.9524 76.0414 25.1156 76.0414 22.033H75.4414C75.4414 25.1758 75.9099 28.0809 76.8505 30.7458L77.4163 30.5462ZM76.0414 22.033C76.0414 18.9152 76.5577 16.0729 77.5859 13.5024L77.0288 13.2796C75.969 15.9291 75.4414 18.8481 75.4414 22.033H76.0414ZM77.5862 13.5017C78.616 10.9082 80.0633 8.68129 81.9275 6.81713L81.5032 6.39286C79.5781 8.31804 78.0868 10.6151 77.0285 13.2803L77.5862 13.5017ZM81.9275 6.81713C83.7917 4.95297 86.0186 3.50559 88.6121 2.47582L88.3907 1.91817C85.7255 2.9764 83.4284 4.46769 81.5032 6.39286L81.9275 6.81713ZM88.6131 2.4754C91.2223 1.42792 94.1032 0.902 97.2594 0.902V0.302C94.0356 0.302 91.0777 0.839412 88.3896 1.9186L88.6131 2.4754ZM97.2594 0.902C100.34 0.902 103.014 1.39955 105.289 2.38526L105.528 1.83473C103.162 0.809777 100.404 0.302 97.2594 0.302V0.902ZM105.292 2.38645C107.599 3.3589 109.567 4.6531 111.2 6.26737L111.622 5.84063C109.93 4.16823 107.896 2.8331 105.525 1.83355L105.292 2.38645ZM111.168 5.87871L108.558 9.50371L109.045 9.85429L111.655 6.22929L111.168 5.87871ZM108.552 9.51259C108.42 9.7102 108.245 9.8868 108.022 10.0413L108.363 10.5347C108.643 10.3412 108.873 10.1118 109.051 9.84541L108.552 9.51259ZM108.012 10.048C107.852 10.1686 107.596 10.249 107.206 10.249V10.849C107.668 10.849 108.069 10.7554 108.372 10.528L108.012 10.048ZM107.206 10.249C106.844 10.249 106.451 10.1079 106.023 9.787L105.663 10.267C106.163 10.6421 106.679 10.849 107.206 10.849V10.249ZM106.023 9.787C105.546 9.42894 104.945 9.04501 104.222 8.63509L103.926 9.15691C104.635 9.55899 105.213 9.92906 105.663 10.267L106.023 9.787ZM104.222 8.63509C103.483 8.21547 102.553 7.83093 101.439 7.47892L101.258 8.05107C102.347 8.39507 103.235 8.76453 103.926 9.15691L104.222 8.63509ZM101.44 7.47939C100.317 7.11847 98.9011 6.943 97.2014 6.943V7.543C98.8656 7.543 100.214 7.71553 101.257 8.05061L101.44 7.47939ZM97.2014 6.943C95.1933 6.943 93.3362 7.29752 91.6335 8.01027L91.8652 8.56373C93.4879 7.88448 95.2654 7.543 97.2014 7.543V6.943ZM91.6351 8.0096C89.9529 8.70229 88.4961 9.70294 87.2677 11.0106L87.705 11.4214C88.8739 10.1771 90.2592 9.22504 91.8636 8.5644L91.6351 8.0096ZM87.266 11.0124C86.0568 12.3208 85.1094 13.9123 84.4209 15.7813L84.9839 15.9887C85.6486 14.1844 86.5573 12.6632 87.7067 11.4196L87.266 11.0124ZM84.4202 15.783C83.7492 17.6383 83.4164 19.723 83.4164 22.033H84.0164C84.0164 19.7803 84.3409 17.7663 84.9845 15.987L84.4202 15.783ZM83.4164 22.033C83.4164 24.4191 83.7488 26.552 84.4199 28.4271L84.9848 28.2249C84.3412 26.4267 84.0164 24.3642 84.0164 22.033H83.4164ZM84.4209 28.4297C85.1088 30.297 86.036 31.8784 87.2062 33.1676L87.6505 32.7644C86.5394 31.5403 85.6492 30.0283 84.9839 28.2223L84.4209 28.4297ZM87.2062 33.1676C88.3752 34.4554 89.7535 35.4471 91.3391 36.1408L91.5796 35.5912C90.0719 34.9315 88.7629 33.9899 87.6505 32.7644L87.2062 33.1676ZM91.342 36.1421C92.9279 36.8161 94.6308 37.152 96.4474 37.152V36.552C94.7066 36.552 93.0841 36.2306 91.5767 35.5899L91.342 36.1421ZM96.4474 37.152C97.5212 37.152 98.4921 37.0935 99.3589 36.9752L99.2778 36.3808C98.4433 36.4945 97.5002 36.552 96.4474 36.552V37.152ZM99.358 36.9754C100.245 36.8571 101.058 36.6691 101.796 36.41L101.597 35.844C100.904 36.0875 100.131 36.2669 99.2787 36.3806L99.358 36.9754ZM101.793 36.4108C102.548 36.1528 103.254 35.8248 103.911 35.4266L103.6 34.9134C102.981 35.2885 102.314 35.5985 101.599 35.8432L101.793 36.4108ZM103.913 35.4252C104.588 35.0085 105.25 34.504 105.9 33.913L105.497 33.469C104.871 34.038 104.238 34.5195 103.598 34.9148L103.913 35.4252ZM105.899 33.914C106.072 33.7582 106.25 33.6407 106.432 33.5581L106.183 33.0119C105.94 33.1226 105.711 33.2758 105.498 33.468L105.899 33.914ZM106.451 33.5484C106.618 33.4573 106.8 33.411 107.003 33.411V32.811C106.704 32.811 106.422 32.8807 106.164 33.0216L106.451 33.5484ZM125.151 18.64H124.851V18.94H125.151V18.64ZM128.805 18.35L128.917 18.6287L128.926 18.6246L128.805 18.35ZM130.052 17.364L129.817 17.178L129.816 17.1791L130.052 17.364ZM141.623 2.719L141.859 2.90499L141.86 2.90369L141.623 2.719ZM143.131 1.443L143.253 1.71718L143.258 1.7151L143.131 1.443ZM151.889 1.066L152.123 1.25487L152.519 0.765997H151.889V1.066ZM137.766 18.495L137.998 18.6854L138 18.6839L137.766 18.495ZM136.49 19.858L136.692 20.0805L136.692 20.0805L136.49 19.858ZM135.185 20.757L135.051 20.4887L134.427 20.8006L135.083 21.0389L135.185 20.757ZM136.896 21.743L136.703 21.9721L136.707 21.9756L136.896 21.743ZM138.404 23.367L138.163 23.5447L138.163 23.5457L138.404 23.367ZM152.962 43V43.3H153.558L153.203 42.8213L152.962 43ZM143.972 42.623L143.816 42.8793L143.823 42.8832L143.83 42.8868L143.972 42.623ZM142.841 41.463L143.097 41.3058L143.089 41.2927L143.08 41.2806L142.841 41.463ZM130.98 25.977L131.219 25.7946L131.218 25.7941L130.98 25.977ZM129.675 24.904L129.546 25.1746L129.555 25.1786L129.675 24.904ZM125.151 24.556V24.256H124.851V24.556H125.151ZM125.151 43V43.3H125.451V43H125.151ZM117.35 43H117.05V43.3H117.35V43ZM117.35 1.037V0.736999H117.05V1.037H117.35ZM125.151 1.037H125.451V0.736999H125.151V1.037ZM125.151 18.94H126.978V18.34H125.151V18.94ZM126.978 18.94C127.737 18.94 128.387 18.8406 128.917 18.6285L128.694 18.0715C128.258 18.2461 127.689 18.34 126.978 18.34V18.94ZM128.926 18.6246C129.458 18.3906 129.912 18.0297 130.289 17.5489L129.816 17.1791C129.497 17.5876 129.12 17.884 128.685 18.0754L128.926 18.6246ZM130.288 17.55L141.859 2.90498L141.388 2.53301L129.817 17.178L130.288 17.55ZM141.86 2.90369C142.324 2.30999 142.79 1.9231 143.253 1.71714L143.01 1.16885C142.429 1.4269 141.89 1.89067 141.387 2.53431L141.86 2.90369ZM143.258 1.7151C143.748 1.48751 144.378 1.366 145.161 1.366V0.765997C144.321 0.765997 143.598 0.895814 143.005 1.17089L143.258 1.7151ZM145.161 1.366H151.889V0.765997H145.161V1.366ZM151.656 0.877126L137.533 18.3061L138 18.6839L152.123 1.25487L151.656 0.877126ZM137.535 18.3046C137.097 18.8375 136.682 19.2804 136.289 19.6355L136.692 20.0805C137.111 19.7009 137.547 19.2352 137.998 18.6854L137.535 18.3046ZM136.289 19.6355C135.902 19.9856 135.49 20.2695 135.051 20.4887L135.32 21.0253C135.809 20.7805 136.267 20.465 136.692 20.0805L136.289 19.6355ZM135.083 21.0389C135.689 21.2592 136.228 21.5703 136.703 21.972L137.09 21.514C136.56 21.065 135.958 20.7188 135.288 20.4751L135.083 21.0389ZM136.707 21.9756C137.206 22.3819 137.691 22.9037 138.163 23.5447L138.646 23.1893C138.151 22.5157 137.631 21.9547 137.086 21.5104L136.707 21.9756ZM138.163 23.5457L152.721 43.1787L153.203 42.8213L138.645 23.1883L138.163 23.5457ZM152.962 42.7H146.06V43.3H152.962V42.7ZM146.06 42.7C145.15 42.7 144.514 42.575 144.115 42.3592L143.83 42.8868C144.359 43.1737 145.115 43.3 146.06 43.3V42.7ZM144.128 42.3667C143.729 42.1239 143.385 41.7735 143.097 41.3058L142.586 41.6202C142.917 42.1579 143.326 42.5808 143.816 42.8793L144.128 42.3667ZM143.08 41.2806L131.219 25.7946L130.742 26.1594L142.603 41.6454L143.08 41.2806ZM131.218 25.7941C130.807 25.2595 130.334 24.866 129.796 24.6294L129.555 25.1786C129.984 25.3673 130.381 25.6891 130.743 26.1599L131.218 25.7941ZM129.805 24.6335C129.263 24.3733 128.525 24.256 127.616 24.256V24.856C128.487 24.856 129.121 24.9707 129.546 25.1745L129.805 24.6335ZM127.616 24.256H125.151V24.856H127.616V24.256ZM124.851 24.556V43H125.451V24.556H124.851ZM125.151 42.7H117.35V43.3H125.151V42.7ZM117.65 43V1.037H117.05V43H117.65ZM117.35 1.337H125.151V0.736999H117.35V1.337ZM124.851 1.037V18.64H125.451V1.037H124.851ZM184.036 1.066H184.336V0.765997H184.036V1.066ZM184.036 7.272V7.572H184.336V7.272H184.036ZM165.447 7.272V6.972H165.147V7.272H165.447ZM165.447 18.901H165.147V19.201H165.447V18.901ZM180.092 18.901H180.392V18.601H180.092V18.901ZM180.092 24.904V25.204H180.392V24.904H180.092ZM165.447 24.904V24.604H165.147V24.904H165.447ZM165.447 36.765H165.147V37.065H165.447V36.765ZM184.036 36.765H184.336V36.465H184.036V36.765ZM184.036 43V43.3H184.336V43H184.036ZM157.588 43H157.288V43.3H157.588V43ZM157.588 1.066V0.765997H157.288V1.066H157.588ZM183.736 1.066V7.272H184.336V1.066H183.736ZM184.036 6.972H165.447V7.572H184.036V6.972ZM165.147 7.272V18.901H165.747V7.272H165.147ZM165.447 19.201H180.092V18.601H165.447V19.201ZM179.792 18.901V24.904H180.392V18.901H179.792ZM180.092 24.604H165.447V25.204H180.092V24.604ZM165.147 24.904V36.765H165.747V24.904H165.147ZM165.447 37.065H184.036V36.465H165.447V37.065ZM183.736 36.765V43H184.336V36.765H183.736ZM184.036 42.7H157.588V43.3H184.036V42.7ZM157.888 43V1.066H157.288V43H157.888ZM157.588 1.366H184.036V0.765997H157.588V1.366ZM195.738 1.124L195.689 1.41991L195.701 1.42194L195.713 1.42296L195.738 1.124ZM196.347 1.298L196.201 1.56024L196.218 1.56948L196.236 1.57654L196.347 1.298ZM196.898 1.675L196.686 1.88713L196.692 1.89336L196.699 1.89922L196.898 1.675ZM197.478 2.313L197.714 2.12777L197.714 2.12765L197.478 2.313ZM219.489 30.356L219.253 30.5412L219.907 31.375L219.787 30.3219L219.489 30.356ZM219.315 28.384L219.015 28.3928L219.015 28.4021L219.315 28.384ZM219.286 1.066V0.765997H218.986V1.066H219.286ZM226.159 1.066H226.459V0.765997H226.159V1.066ZM226.159 43V43.3H226.459V43H226.159ZM219.402 41.666L219.64 41.4831L219.638 41.4808L219.402 41.666ZM197.478 13.739L197.714 13.5537L197.084 12.7514L197.179 13.767L197.478 13.739ZM197.594 15.595L197.294 15.6044L197.295 15.6143L197.594 15.595ZM197.652 43V43.3H197.952V43H197.652ZM190.779 43H190.479V43.3H190.779V43ZM190.779 1.066V0.765997H190.479V1.066H190.779ZM194.868 1.366C195.206 1.366 195.479 1.38492 195.689 1.41991L195.787 0.828078C195.533 0.785741 195.225 0.765997 194.868 0.765997V1.366ZM195.713 1.42296C195.91 1.43935 196.07 1.48746 196.201 1.56024L196.493 1.03575C196.276 0.915206 196.03 0.847307 195.763 0.825033L195.713 1.42296ZM196.236 1.57654C196.385 1.6363 196.535 1.73672 196.686 1.88713L197.11 1.46287C196.912 1.26528 196.696 1.11436 196.458 1.01946L196.236 1.57654ZM196.699 1.89922C196.855 2.03788 197.036 2.23573 197.242 2.49834L197.714 2.12765C197.495 1.84894 197.289 1.62144 197.097 1.45078L196.699 1.89922ZM197.242 2.49822L219.253 30.5412L219.725 30.1708L197.714 2.12777L197.242 2.49822ZM219.787 30.3219C219.71 29.6502 219.653 28.9982 219.614 28.3659L219.015 28.4021C219.054 29.0458 219.113 29.7084 219.191 30.3901L219.787 30.3219ZM219.615 28.3752C219.596 27.7203 219.586 27.1143 219.586 26.557H218.986C218.986 27.1211 218.996 27.733 219.015 28.3928L219.615 28.3752ZM219.586 26.557V1.066H218.986V26.557H219.586ZM219.286 1.366H226.159V0.765997H219.286V1.366ZM225.859 1.066V43H226.459V1.066H225.859ZM226.159 42.7H222.128V43.3H226.159V42.7ZM222.128 42.7C221.538 42.7 221.073 42.6075 220.72 42.4391L220.462 42.9809C220.92 43.1992 221.48 43.3 222.128 43.3V42.7ZM220.72 42.4391C220.37 42.2727 220.009 41.9627 219.64 41.4831L219.164 41.8489C219.569 42.3746 219.999 42.7606 220.462 42.9809L220.72 42.4391ZM219.638 41.4808L197.714 13.5537L197.242 13.9242L219.166 41.8512L219.638 41.4808ZM197.179 13.767C197.237 14.3795 197.275 14.9919 197.294 15.6044L197.894 15.5856C197.874 14.9607 197.835 14.3358 197.777 13.711L197.179 13.767ZM197.295 15.6143C197.333 16.2084 197.352 16.7529 197.352 17.248H197.952C197.952 16.7378 197.932 16.1803 197.893 15.5757L197.295 15.6143ZM197.352 17.248V43H197.952V17.248H197.352ZM197.652 42.7H190.779V43.3H197.652V42.7ZM191.079 43V1.066H190.479V43H191.079ZM190.779 1.366H194.868V0.765997H190.779V1.366ZM270.318 30.501L270.039 30.3899L270.039 30.3899L270.318 30.501ZM265.997 37.142L265.785 36.9299L265.785 36.9299L265.997 37.142ZM259.298 41.463L259.188 41.1837L259.188 41.1837L259.298 41.463ZM234.619 43H234.319V43.3H234.619V43ZM234.619 1.066V0.765997H234.319V1.066H234.619ZM259.298 2.632L259.186 2.91055L259.188 2.91125L259.298 2.632ZM265.997 6.953L265.785 7.16513L265.786 7.16624L265.997 6.953ZM270.318 13.565L270.596 13.4539L270.596 13.4539L270.318 13.565ZM262.952 15.856L262.667 15.9518L262.668 15.9527L262.952 15.856ZM260.313 11.216L260.089 11.4159L260.091 11.4176L260.313 11.216ZM256.137 8.287L256.021 8.56392L256.023 8.5644L256.137 8.287ZM242.478 7.272V6.972H242.178V7.272H242.478ZM242.478 36.794H242.178V37.094H242.478V36.794ZM256.137 35.779L256.023 35.5016L256.021 35.5021L256.137 35.779ZM260.313 32.879L260.535 33.0806L260.536 33.0789L260.313 32.879ZM262.952 28.239L263.236 28.3357L263.236 28.3348L262.952 28.239ZM271.555 22.033C271.555 25.0732 271.048 27.8576 270.039 30.3899L270.596 30.6121C271.637 28.0017 272.155 25.1408 272.155 22.033H271.555ZM270.039 30.3899C269.029 32.9255 267.61 35.1042 265.785 36.9299L266.209 37.3541C268.095 35.4678 269.558 33.2192 270.596 30.6121L270.039 30.3899ZM265.785 36.9299C263.96 38.7547 261.762 40.1731 259.188 41.1837L259.407 41.7423C262.053 40.7035 264.322 39.2413 266.209 37.3541L265.785 36.9299ZM259.188 41.1837C256.617 42.193 253.765 42.7 250.627 42.7V43.3C253.83 43.3 256.758 42.7823 259.407 41.7423L259.188 41.1837ZM250.627 42.7H234.619V43.3H250.627V42.7ZM234.919 43V1.066H234.319V43H234.919ZM234.619 1.366H250.627V0.765997H234.619V1.366ZM250.627 1.366C253.764 1.366 256.616 1.88241 259.186 2.91054L259.409 2.35345C256.76 1.29358 253.831 0.765997 250.627 0.765997V1.366ZM259.188 2.91125C261.762 3.92188 263.96 5.34027 265.785 7.16513L266.209 6.74087C264.322 4.85372 262.053 3.39145 259.407 2.35275L259.188 2.91125ZM265.786 7.16624C267.611 8.97214 269.029 11.1407 270.039 13.6761L270.596 13.4539C269.557 10.8466 268.095 8.60719 266.208 6.73976L265.786 7.16624ZM270.039 13.6761C271.048 16.2084 271.555 18.9928 271.555 22.033H272.155C272.155 18.9252 271.637 16.0643 270.596 13.4539L270.039 13.6761ZM264.18 22.033C264.18 19.7058 263.867 17.6133 263.236 15.7593L262.668 15.9527C263.274 17.7334 263.58 19.7589 263.58 22.033H264.18ZM263.236 15.7602C262.606 13.8899 261.707 12.3057 260.535 11.0144L260.091 11.4176C261.2 12.6396 262.06 14.1488 262.667 15.9518L263.236 15.7602ZM260.536 11.0161C259.364 9.705 257.935 8.70282 256.251 8.0096L256.023 8.5644C257.626 9.22451 258.98 10.175 260.089 11.4159L260.536 11.0161ZM256.252 8.01008C254.586 7.31588 252.709 6.972 250.627 6.972V7.572C252.643 7.572 254.439 7.90479 256.021 8.56392L256.252 8.01008ZM250.627 6.972H242.478V7.572H250.627V6.972ZM242.178 7.272V36.794H242.778V7.272H242.178ZM242.478 37.094H250.627V36.494H242.478V37.094ZM250.627 37.094C252.709 37.094 254.586 36.7501 256.252 36.0559L256.021 35.5021C254.439 36.1612 252.643 36.494 250.627 36.494V37.094ZM256.251 36.0564C257.933 35.3636 259.363 34.3718 260.535 33.0806L260.091 32.6774C258.981 33.8995 257.627 34.8411 256.023 35.5016L256.251 36.0564ZM260.536 33.0789C261.707 31.7695 262.606 30.1865 263.236 28.3357L262.668 28.1423C262.061 29.9262 261.2 31.4365 260.089 32.6791L260.536 33.0789ZM263.236 28.3348C263.867 26.4621 264.18 24.3603 264.18 22.033H263.58C263.58 24.307 263.274 26.3426 262.667 28.1432L263.236 28.3348ZM285.278 1.066V0.765997H284.87L284.991 1.15496L285.278 1.066ZM293.514 1.559L293.335 1.80025L293.341 1.80458L293.347 1.80861L293.514 1.559ZM294.442 2.835L294.73 2.75293L294.73 2.75258L294.442 2.835ZM301.576 27.92L301.864 27.8388L301.864 27.8379L301.576 27.92ZM302.04 29.95L301.745 30.0044L301.746 30.0134L302.04 29.95ZM302.475 32.241L302.179 32.2903L302.769 32.2971L302.475 32.241ZM302.968 29.95L302.678 29.8736L302.676 29.8791L302.968 29.95ZM303.577 27.92L303.86 28.0175L303.862 28.0136L303.577 27.92ZM311.813 2.835L311.529 2.73643L311.528 2.74141L311.813 2.835ZM312.712 1.617L312.525 1.38173L312.521 1.38571L312.712 1.617ZM318.367 1.559L318.188 1.80035L318.195 1.80527L318.367 1.559ZM319.295 2.835L319.009 2.9268L319.009 2.92798L319.295 2.835ZM327.473 27.92L327.187 28.013L327.189 28.0175L327.473 27.92ZM328.575 32.038L328.281 32.0983L328.87 32.091L328.575 32.038ZM328.981 29.863L328.688 29.7979L328.686 29.8057L328.981 29.863ZM329.445 27.92L329.156 27.8379L329.154 27.845L329.445 27.92ZM336.579 2.835L336.867 2.91706L336.868 2.91589L336.579 2.835ZM337.478 1.588L337.298 1.348L337.298 1.348L337.478 1.588ZM345.279 1.066L345.565 1.15496L345.686 0.765997H345.279V1.066ZM332.258 43V43.3H332.479L332.544 43.089L332.258 43ZM325.211 43L324.925 43.0914L324.992 43.3H325.211V43ZM316.047 14.348L315.761 14.4383L315.761 14.4394L316.047 14.348ZM315.67 13.159L315.38 13.238L315.384 13.25L315.67 13.159ZM315.322 11.796L315.613 11.726L315.03 11.726L315.322 11.796ZM314.945 13.159L314.659 13.068L314.655 13.0801L314.945 13.159ZM314.597 14.348L314.882 14.4402L314.883 14.4383L314.597 14.348ZM305.346 43V43.3H305.564L305.631 43.0922L305.346 43ZM298.299 43L298.012 43.089L298.078 43.3H298.299V43ZM285.278 1.366H291.832V0.765997H285.278V1.366ZM291.832 1.366C292.459 1.366 292.953 1.51762 293.335 1.80025L293.692 1.31775C293.185 0.943046 292.558 0.765997 291.832 0.765997V1.366ZM293.347 1.80861C293.751 2.07805 294.018 2.44381 294.153 2.91741L294.73 2.75258C294.556 2.14352 294.204 1.65862 293.68 1.30938L293.347 1.80861ZM294.153 2.91706L301.287 28.0021L301.864 27.8379L294.73 2.75293L294.153 2.91706ZM301.287 28.0012C301.458 28.6097 301.611 29.2773 301.745 30.0043L302.335 29.8957C302.198 29.1533 302.041 28.4676 301.864 27.8388L301.287 28.0012ZM301.746 30.0134C301.9 30.7235 302.044 31.4825 302.179 32.2903L302.771 32.1917C302.635 31.3755 302.489 30.6071 302.333 29.8866L301.746 30.0134ZM302.769 32.2971C302.923 31.4895 303.087 30.7308 303.259 30.0209L302.676 29.8791C302.501 30.5999 302.335 31.3685 302.18 32.1849L302.769 32.2971ZM303.258 30.0263C303.45 29.2977 303.65 28.6282 303.86 28.0175L303.293 27.8225C303.078 28.4491 302.872 29.133 302.678 29.8737L303.258 30.0263ZM303.862 28.0136L312.098 2.92858L311.528 2.74141L303.292 27.8264L303.862 28.0136ZM312.096 2.93355C312.229 2.55128 312.491 2.18852 312.903 1.84829L312.521 1.38571C312.043 1.78015 311.706 2.22938 311.529 2.73644L312.096 2.93355ZM312.898 1.85221C313.303 1.53151 313.796 1.366 314.394 1.366V0.765997C313.677 0.765997 313.048 0.967822 312.525 1.38179L312.898 1.85221ZM314.394 1.366H316.685V0.765997H314.394V1.366ZM316.685 1.366C317.312 1.366 317.806 1.51762 318.188 1.80025L318.545 1.31775C318.038 0.943046 317.411 0.765997 316.685 0.765997V1.366ZM318.195 1.80527C318.583 2.07508 318.854 2.44476 319.009 2.9268L319.58 2.74319C319.387 2.14257 319.039 1.66158 318.538 1.31273L318.195 1.80527ZM319.009 2.92798L327.187 28.013L327.758 27.827L319.58 2.74201L319.009 2.92798ZM327.189 28.0175C327.609 29.2408 327.974 30.6008 328.281 32.0983L328.869 31.9777C328.557 30.4592 328.187 29.0739 327.756 27.8225L327.189 28.0175ZM328.87 32.091C329.005 31.3383 329.14 30.6147 329.275 29.9203L328.686 29.8057C328.551 30.5033 328.415 31.2297 328.279 31.985L328.87 32.091ZM329.274 29.9281C329.428 29.2349 329.581 28.5906 329.735 27.995L329.154 27.845C328.999 28.4481 328.843 29.0991 328.688 29.7979L329.274 29.9281ZM329.733 28.0021L336.867 2.91706L336.29 2.75293L329.156 27.8379L329.733 28.0021ZM336.868 2.91589C336.982 2.50572 337.238 2.14281 337.658 1.828L337.298 1.348C336.789 1.72918 336.446 2.1976 336.29 2.75411L336.868 2.91589ZM337.658 1.828C338.063 1.52405 338.558 1.366 339.16 1.366V0.765997C338.447 0.765997 337.82 0.955946 337.298 1.348L337.658 1.828ZM339.16 1.366H345.279V0.765997H339.16V1.366ZM344.992 0.977034L331.971 42.911L332.544 43.089L345.565 1.15496L344.992 0.977034ZM332.258 42.7H325.211V43.3H332.258V42.7ZM325.496 42.9086L316.332 14.2566L315.761 14.4394L324.925 43.0914L325.496 42.9086ZM316.333 14.2577C316.217 13.8901 316.091 13.4935 315.956 13.068L315.384 13.25C315.519 13.6751 315.645 14.0712 315.761 14.4383L316.333 14.2577ZM315.959 13.0801C315.844 12.658 315.729 12.2067 315.613 11.726L315.03 11.866C315.147 12.352 315.263 12.8093 315.38 13.2379L315.959 13.0801ZM315.03 11.726C314.915 12.203 314.792 12.6503 314.659 13.068L315.231 13.25C315.368 12.817 315.496 12.3556 315.613 11.866L315.03 11.726ZM314.655 13.0801C314.54 13.5021 314.425 13.8946 314.311 14.2577L314.883 14.4383C315 14.0667 315.117 13.6666 315.234 13.2379L314.655 13.0801ZM314.311 14.2558L305.06 42.9078L305.631 43.0922L314.882 14.4402L314.311 14.2558ZM305.346 42.7H298.299V43.3H305.346V42.7ZM298.585 42.911L285.564 0.977034L284.991 1.15496L298.012 43.089L298.585 42.911ZM388.568 30.588L388.848 30.6976L388.848 30.6969L388.568 30.588ZM384.247 37.374L384.463 37.5828L384.463 37.5828L384.247 37.374ZM377.548 41.869L377.662 42.1468L377.663 42.1461L377.548 41.869ZM360.177 41.869L360.062 42.1461L360.065 42.1471L360.177 41.869ZM353.449 37.374L353.234 37.5828L353.235 37.584L353.449 37.374ZM349.128 30.588L348.849 30.6969L348.849 30.6976L349.128 30.588ZM349.128 13.507L349.408 13.6166L349.408 13.6159L349.128 13.507ZM353.449 6.692L353.235 6.48204L353.234 6.48315L353.449 6.692ZM360.177 2.226L360.291 2.50383L360.292 2.5034L360.177 2.226ZM384.247 6.721L384.032 6.92985L384.033 6.93093L384.247 6.721ZM388.568 13.507L388.289 13.6159L388.289 13.6166L388.568 13.507ZM381.173 15.856L380.888 15.9491L380.889 15.9527L381.173 15.856ZM378.563 11.187L378.787 10.9871L378.787 10.9871L378.563 11.187ZM374.387 8.258L374.272 8.53492L374.273 8.5354L374.387 8.258ZM363.338 8.258L363.224 7.98059L363.224 7.98059L363.338 8.258ZM359.133 11.187L358.911 10.9852L358.91 10.9871L359.133 11.187ZM356.494 15.856L356.778 15.9527L356.779 15.9518L356.494 15.856ZM356.494 28.239L356.21 28.3348L356.21 28.3357L356.494 28.239ZM359.133 32.879L358.91 33.079L358.913 33.0825L359.133 32.879ZM363.338 35.779L363.224 36.0564L363.224 36.0564L363.338 35.779ZM374.387 35.779L374.273 35.5016L374.272 35.5021L374.387 35.779ZM378.563 32.879L378.786 33.0806L378.787 33.0789L378.563 32.879ZM381.173 28.239L380.889 28.1432L380.889 28.145L381.173 28.239ZM389.805 22.033C389.805 25.0731 389.299 27.8874 388.289 30.4791L388.848 30.6969C389.887 28.0299 390.405 25.1409 390.405 22.033H389.805ZM388.289 30.4784C387.278 33.0533 385.859 35.2811 384.032 37.1652L384.463 37.5828C386.348 35.6389 387.809 33.3427 388.848 30.6976L388.289 30.4784ZM384.032 37.1652C382.206 39.0481 380.008 40.5239 377.433 41.5919L377.663 42.1461C380.309 41.0487 382.577 39.5279 384.463 37.5828L384.032 37.1652ZM377.435 41.5912C374.865 42.6381 372.014 43.164 368.877 43.164V43.764C372.082 43.764 375.011 43.2265 377.662 42.1468L377.435 41.5912ZM368.877 43.164C365.741 43.164 362.88 42.6382 360.29 41.5909L360.065 42.1471C362.734 43.2265 365.673 43.764 368.877 43.764V43.164ZM360.292 41.5919C357.718 40.5238 355.509 39.0476 353.664 37.164L353.235 37.584C355.14 39.5284 357.417 41.0488 360.062 42.1461L360.292 41.5919ZM353.665 37.1652C351.838 35.2811 350.419 33.0533 349.408 30.4784L348.849 30.6976C349.888 33.3427 351.349 35.6389 353.234 37.5828L353.665 37.1652ZM349.408 30.4791C348.398 27.8874 347.891 25.0731 347.891 22.033H347.291C347.291 25.1409 347.81 28.0299 348.849 30.6969L349.408 30.4791ZM347.891 22.033C347.891 18.9929 348.398 16.1885 349.408 13.6166L348.849 13.3974C347.81 16.0455 347.291 18.9251 347.291 22.033H347.891ZM349.408 13.6159C350.419 11.0216 351.838 8.78449 353.665 6.90084L353.234 6.48315C351.349 8.42751 349.887 10.7337 348.849 13.3981L349.408 13.6159ZM353.664 6.90195C355.509 5.01876 357.717 3.5525 360.291 2.50383L360.064 1.94817C357.418 3.02616 355.141 4.53724 353.235 6.48204L353.664 6.90195ZM360.292 2.5034C362.881 1.43728 365.741 0.902 368.877 0.902V0.302C365.672 0.302 362.733 0.849385 360.063 1.9486L360.292 2.5034ZM368.877 0.902C372.013 0.902 374.864 1.43729 377.433 2.5031L377.663 1.94889C375.013 0.849374 372.083 0.302 368.877 0.302V0.902ZM377.433 2.5031C380.008 3.57105 382.206 5.04694 384.032 6.92984L384.463 6.51215C382.577 4.56706 380.309 3.04628 377.663 1.94889L377.433 2.5031ZM384.033 6.93093C385.859 8.79486 387.278 11.0219 388.289 13.6159L388.848 13.3981C387.81 10.7335 386.348 8.43647 384.462 6.51106L384.033 6.93093ZM388.289 13.6166C389.299 16.1885 389.805 18.9929 389.805 22.033H390.405C390.405 18.9251 389.887 16.0455 388.848 13.3974L388.289 13.6166ZM382.401 22.033C382.401 19.7058 382.089 17.6133 381.457 15.7593L380.889 15.9527C381.496 17.7334 381.801 19.7589 381.801 22.033H382.401ZM381.459 15.7629C380.848 13.8919 379.959 12.2978 378.787 10.9871L378.34 11.3869C379.449 12.6282 380.3 14.1468 380.888 15.9491L381.459 15.7629ZM378.787 10.9871C377.615 9.676 376.185 8.67381 374.502 7.98059L374.273 8.5354C375.876 9.19551 377.23 10.146 378.34 11.3869L378.787 10.9871ZM374.503 7.98107C372.837 7.28688 370.96 6.943 368.877 6.943V7.543C370.894 7.543 372.69 7.87579 374.272 8.53492L374.503 7.98107ZM368.877 6.943C366.795 6.943 364.909 7.2869 363.224 7.98059L363.453 8.5354C365.055 7.87576 366.861 7.543 368.877 7.543V6.943ZM363.224 7.98059C361.541 8.67364 360.102 9.67531 358.911 10.9852L359.355 11.3888C360.485 10.1467 361.849 9.19569 363.453 8.5354L363.224 7.98059ZM358.91 10.9871C357.739 12.2971 356.84 13.8902 356.21 15.7602L356.779 15.9518C357.386 14.1485 358.247 12.6289 359.357 11.3869L358.91 10.9871ZM356.21 15.7593C355.579 17.6133 355.266 19.7058 355.266 22.033H355.866C355.866 19.7589 356.172 17.7334 356.778 15.9527L356.21 15.7593ZM355.266 22.033C355.266 24.3603 355.579 26.4621 356.21 28.3348L356.779 28.1432C356.172 26.3426 355.866 24.307 355.866 22.033H355.266ZM356.21 28.3357C356.841 30.1865 357.739 31.7695 358.91 33.0789L359.357 32.6791C358.246 31.4365 357.386 29.9262 356.778 28.1423L356.21 28.3357ZM358.913 33.0825C360.104 34.3725 361.542 35.3638 363.224 36.0564L363.453 35.5016C361.848 34.8409 360.483 33.8988 359.354 32.6755L358.913 33.0825ZM363.224 36.0564C364.909 36.7501 366.795 37.094 368.877 37.094V36.494C366.861 36.494 365.055 36.1612 363.453 35.5016L363.224 36.0564ZM368.877 37.094C370.96 37.094 372.837 36.7501 374.503 36.0559L374.272 35.5021C372.69 36.1612 370.894 36.494 368.877 36.494V37.094ZM374.502 36.0564C376.184 35.3636 377.614 34.3718 378.786 33.0806L378.341 32.6774C377.232 33.8995 375.877 34.8411 374.273 35.5016L374.502 36.0564ZM378.787 33.0789C379.958 31.7688 380.848 30.1848 381.458 28.333L380.889 28.145C380.301 29.9278 379.45 31.4372 378.34 32.6791L378.787 33.0789ZM381.458 28.3348C382.089 26.4621 382.401 24.3603 382.401 22.033H381.801C381.801 24.307 381.496 26.3426 380.889 28.1432L381.458 28.3348ZM404.333 26.615V26.315H404.033V26.615H404.333ZM404.333 43V43.3H404.633V43H404.333ZM396.532 43H396.232V43.3H396.532V43ZM396.532 1.066V0.765997H396.232V1.066H396.532ZM416.658 1.965L416.573 2.25274L416.576 2.25366L416.658 1.965ZM421.675 4.43L421.485 4.66188L421.486 4.66325L421.675 4.43ZM424.546 8.258L424.268 8.37005L424.27 8.37441L424.546 8.258ZM424.836 17.132L424.552 17.0358L424.551 17.0398L424.836 17.132ZM423.038 20.554L422.801 20.3704L422.799 20.3733L423.038 20.554ZM420.138 23.251L419.972 23.0014L419.97 23.0027L420.138 23.251ZM416.223 25.107L416.133 24.8209L415.477 25.028L416.075 25.3678L416.223 25.107ZM418.775 27.514L419.023 27.3457L419.023 27.3444L418.775 27.514ZM429.273 43V43.3H429.839L429.521 42.8317L429.273 43ZM420.515 42.594L420.364 42.8532L420.369 42.8558L420.515 42.594ZM419.326 41.434L419.577 41.2698L419.577 41.2693L419.326 41.434ZM410.51 28.007L410.259 28.1712L410.259 28.1717L410.51 28.007ZM409.408 26.934L409.264 27.1969L409.269 27.1997L409.408 26.934ZM404.333 21.018H404.033V21.318H404.333V21.018ZM413.033 20.467L412.938 20.1824L412.937 20.1829L413.033 20.467ZM415.73 18.959L415.933 19.1801L415.933 19.1799L415.73 18.959ZM415.73 8.809L415.54 9.04105L415.542 9.04232L415.73 8.809ZM404.333 7.098V6.798H404.033V7.098H404.333ZM404.033 26.615V43H404.633V26.615H404.033ZM404.333 42.7H396.532V43.3H404.333V42.7ZM396.832 43V1.066H396.232V43H396.832ZM396.532 1.366H409.321V0.765997H396.532V1.366ZM409.321 1.366C412.163 1.366 414.578 1.66382 416.573 2.25272L416.743 1.67728C414.678 1.06751 412.202 0.765997 409.321 0.765997V1.366ZM416.576 2.25366C418.596 2.82535 420.229 3.63082 421.485 4.66188L421.865 4.19812C420.531 3.10251 418.819 2.26465 416.74 1.67634L416.576 2.25366ZM421.486 4.66325C422.764 5.69625 423.689 6.93131 424.268 8.37004L424.824 8.14596C424.205 6.60735 423.216 5.29041 421.864 4.19675L421.486 4.66325ZM424.27 8.37441C424.871 9.80286 425.174 11.3867 425.174 13.13H425.774C425.774 11.316 425.458 9.6518 424.823 8.14158L424.27 8.37441ZM425.174 13.13C425.174 14.5107 424.966 15.8121 424.552 17.0358L425.12 17.2282C425.557 15.9386 425.774 14.5719 425.774 13.13H425.174ZM424.551 17.0398C424.155 18.2641 423.572 19.3737 422.801 20.3704L423.275 20.7376C424.09 19.6849 424.705 18.5132 425.122 17.2242L424.551 17.0398ZM422.799 20.3733C422.047 21.3688 421.106 22.2451 419.972 23.0014L420.305 23.5006C421.49 22.7102 422.482 21.7885 423.278 20.7347L422.799 20.3733ZM419.97 23.0027C418.856 23.7579 417.578 24.3647 416.133 24.8209L416.313 25.3931C417.807 24.9213 419.139 24.2907 420.306 23.4993L419.97 23.0027ZM416.075 25.3678C417.017 25.9035 417.835 26.6727 418.528 27.6836L419.023 27.3444C418.285 26.2673 417.401 25.4319 416.371 24.8462L416.075 25.3678ZM418.527 27.6823L429.025 43.1683L429.521 42.8317L419.023 27.3457L418.527 27.6823ZM429.273 42.7H422.255V43.3H429.273V42.7ZM422.255 42.7C421.618 42.7 421.091 42.5728 420.662 42.3322L420.369 42.8558C420.906 43.1565 421.538 43.3 422.255 43.3V42.7ZM420.666 42.3349C420.247 42.0903 419.883 41.7382 419.577 41.2698L419.075 41.5982C419.426 42.1352 419.855 42.5564 420.364 42.8531L420.666 42.3349ZM419.577 41.2693L410.761 27.8423L410.259 28.1717L419.075 41.5987L419.577 41.2693ZM410.761 27.8428C410.413 27.3102 410.011 26.9109 409.547 26.6682L409.269 27.1997C409.618 27.3824 409.95 27.6985 410.259 28.1712L410.761 27.8428ZM409.553 26.6711C409.1 26.4221 408.459 26.315 407.668 26.315V26.915C408.424 26.915 408.943 27.0206 409.264 27.1969L409.553 26.6711ZM407.668 26.315H404.333V26.915H407.668V26.315ZM404.333 21.318H409.205V20.718H404.333V21.318ZM409.205 21.318C410.698 21.318 412.008 21.1315 413.129 20.7511L412.937 20.1829C411.893 20.5372 410.651 20.718 409.205 20.718V21.318ZM413.128 20.7516C414.261 20.3739 415.199 19.8524 415.933 19.1801L415.527 18.7379C414.869 19.3416 414.009 19.8254 412.938 20.1824L413.128 20.7516ZM415.933 19.1799C416.681 18.4922 417.24 17.6809 417.604 16.7483L417.046 16.5297C416.715 17.3757 416.209 18.1111 415.527 18.7381L415.933 19.1799ZM417.604 16.7483C417.968 15.8204 418.147 14.8065 418.147 13.71H417.547C417.547 14.7402 417.379 15.6789 417.046 16.5297L417.604 16.7483ZM418.147 13.71C418.147 11.5101 417.413 9.78341 415.919 8.57568L415.542 9.04232C416.87 10.1159 417.547 11.6565 417.547 13.71H418.147ZM415.92 8.57696C414.451 7.37275 412.232 6.798 409.321 6.798V7.398C412.171 7.398 414.226 7.96391 415.54 9.04104L415.92 8.57696ZM409.321 6.798H404.333V7.398H409.321V6.798ZM404.033 7.098V21.018H404.633V7.098H404.033ZM442.339 18.64H442.039V18.94H442.339V18.64ZM445.993 18.35L446.104 18.6287L446.114 18.6246L445.993 18.35ZM447.24 17.364L447.005 17.178L447.004 17.1791L447.24 17.364ZM458.811 2.719L459.046 2.90499L459.047 2.90369L458.811 2.719ZM460.319 1.443L460.441 1.71718L460.445 1.7151L460.319 1.443ZM469.077 1.066L469.31 1.25487L469.706 0.765997H469.077V1.066ZM454.954 18.495L455.186 18.6854L455.187 18.6839L454.954 18.495ZM453.678 19.858L453.879 20.0805L453.879 20.0805L453.678 19.858ZM452.373 20.757L452.239 20.4887L451.615 20.8006L452.27 21.0389L452.373 20.757ZM454.084 21.743L453.89 21.9721L453.894 21.9756L454.084 21.743ZM455.592 23.367L455.35 23.5447L455.351 23.5457L455.592 23.367ZM470.15 43V43.3H470.746L470.391 42.8213L470.15 43ZM461.16 42.623L461.004 42.8793L461.01 42.8832L461.017 42.8868L461.16 42.623ZM460.029 41.463L460.284 41.3058L460.276 41.2927L460.267 41.2806L460.029 41.463ZM448.168 25.977L448.406 25.7946L448.406 25.7941L448.168 25.977ZM446.863 24.904L446.733 25.1746L446.742 25.1786L446.863 24.904ZM442.339 24.556V24.256H442.039V24.556H442.339ZM442.339 43V43.3H442.639V43H442.339ZM434.538 43H434.238V43.3H434.538V43ZM434.538 1.037V0.736999H434.238V1.037H434.538ZM442.339 1.037H442.639V0.736999H442.339V1.037ZM442.339 18.94H444.166V18.34H442.339V18.94ZM444.166 18.94C444.924 18.94 445.574 18.8406 446.104 18.6285L445.882 18.0715C445.445 18.2461 444.877 18.34 444.166 18.34V18.94ZM446.114 18.6246C446.646 18.3906 447.1 18.0297 447.476 17.5489L447.004 17.1791C446.684 17.5876 446.307 17.884 445.872 18.0754L446.114 18.6246ZM447.475 17.55L459.046 2.90498L458.576 2.53301L447.005 17.178L447.475 17.55ZM459.047 2.90369C459.511 2.30999 459.977 1.9231 460.441 1.71714L460.197 1.16885C459.617 1.4269 459.077 1.89067 458.575 2.53431L459.047 2.90369ZM460.445 1.7151C460.935 1.48751 461.566 1.366 462.349 1.366V0.765997C461.508 0.765997 460.785 0.895814 460.193 1.17089L460.445 1.7151ZM462.349 1.366H469.077V0.765997H462.349V1.366ZM468.844 0.877126L454.721 18.3061L455.187 18.6839L469.31 1.25487L468.844 0.877126ZM454.722 18.3046C454.284 18.8375 453.869 19.2804 453.477 19.6355L453.879 20.0805C454.299 19.7009 454.734 19.2352 455.186 18.6854L454.722 18.3046ZM453.477 19.6355C453.09 19.9856 452.677 20.2695 452.239 20.4887L452.507 21.0253C452.997 20.7805 453.454 20.465 453.879 20.0805L453.477 19.6355ZM452.27 21.0389C452.876 21.2592 453.415 21.5703 453.89 21.972L454.278 21.514C453.747 21.065 453.146 20.7188 452.475 20.4751L452.27 21.0389ZM453.894 21.9756C454.393 22.3819 454.879 22.9037 455.35 23.5447L455.834 23.1893C455.338 22.5157 454.819 21.9547 454.273 21.5104L453.894 21.9756ZM455.351 23.5457L469.909 43.1787L470.391 42.8213L455.833 23.1883L455.351 23.5457ZM470.15 42.7H463.248V43.3H470.15V42.7ZM463.248 42.7C462.337 42.7 461.701 42.575 461.303 42.3592L461.017 42.8868C461.547 43.1737 462.303 43.3 463.248 43.3V42.7ZM461.316 42.3667C460.917 42.1239 460.572 41.7735 460.284 41.3058L459.773 41.6202C460.104 42.1579 460.514 42.5808 461.004 42.8793L461.316 42.3667ZM460.267 41.2806L448.406 25.7946L447.93 26.1594L459.791 41.6454L460.267 41.2806ZM448.406 25.7941C447.995 25.2595 447.522 24.866 446.984 24.6294L446.742 25.1786C447.171 25.3673 447.568 25.6891 447.93 26.1599L448.406 25.7941ZM446.993 24.6335C446.451 24.3733 445.712 24.256 444.804 24.256V24.856C445.674 24.856 446.309 24.9707 446.733 25.1745L446.993 24.6335ZM444.804 24.256H442.339V24.856H444.804V24.256ZM442.039 24.556V43H442.639V24.556H442.039ZM442.339 42.7H434.538V43.3H442.339V42.7ZM434.838 43V1.037H434.238V43H434.838ZM434.538 1.337H442.339V0.736999H434.538V1.337ZM442.039 1.037V18.64H442.639V1.037H442.039Z" fill="#353535"/>
</svg>
