<svg width="406" height="44" viewBox="0 0 406 44" fill="none" xmlns="http://www.w3.org/2000/svg">
<path d="M1.08166 43H0.781657V43.3H1.08166V43ZM1.08166 1.066V0.765997H0.781657V1.066H1.08166ZM22.5707 1.849L22.4925 2.13863L22.4932 2.13882L22.5707 1.849ZM27.3557 4.082L27.171 4.31841L27.1727 4.31979L27.3557 4.082ZM30.5457 15.073L30.8309 15.166L30.8315 15.1642L30.5457 15.073ZM29.1827 17.596L28.9462 17.4114L28.9455 17.4122L29.1827 17.596ZM26.8627 19.713L26.6951 19.4642L26.6927 19.4658L26.8627 19.713ZM23.5277 21.337L23.4303 21.0533L22.4281 21.3973L23.4618 21.6297L23.5277 21.337ZM31.1547 35.605L31.4284 35.7278L31.4284 35.7278L31.1547 35.605ZM28.1967 39.52L28.3891 39.7502L28.3911 39.7485L28.1967 39.52ZM23.4117 42.072L23.5048 42.3572L23.5048 42.3572L23.4117 42.072ZM8.88266 24.614V24.314H8.58266V24.614H8.88266ZM8.88266 36.91H8.58266V37.21H8.88266V36.91ZM20.4247 36.388L20.3248 36.1051L20.323 36.1057L20.4247 36.388ZM22.7737 34.996L22.565 34.7804L22.5615 34.7839L22.7737 34.996ZM24.0497 32.966L23.7664 32.8669L23.7643 32.8733L24.0497 32.966ZM24.0207 28.065L23.7416 28.1752L23.7426 28.1777L24.0207 28.065ZM22.6577 26.209L22.4642 26.4383L22.4685 26.4418L22.6577 26.209ZM8.88266 19.22H8.58266V19.52H8.88266V19.22ZM21.1497 17.77L20.9769 17.5247L20.9769 17.5247L21.1497 17.77ZM8.88266 7.098V6.798H8.58266V7.098H8.88266ZM1.38166 43V1.066H0.781657V43H1.38166ZM1.08166 1.366H15.5527V0.765997H1.08166V1.366ZM15.5527 1.366C18.2806 1.366 20.5921 1.62552 22.4925 2.13863L22.6489 1.55937C20.6826 1.02847 18.3154 0.765997 15.5527 0.765997V1.366ZM22.4932 2.13882C24.4176 2.65327 25.9731 3.3826 27.171 4.31841L27.5404 3.84559C26.2635 2.84807 24.629 2.08873 22.6481 1.55918L22.4932 2.13882ZM27.1727 4.31979C28.3911 5.25695 29.2758 6.38589 29.8343 7.70776L30.387 7.47423C29.7855 6.05077 28.8336 4.84038 27.5386 3.84421L27.1727 4.31979ZM29.8343 7.70776C30.3965 9.03821 30.6807 10.5443 30.6807 12.231H31.2807C31.2807 10.4764 30.9848 8.88912 30.387 7.47423L29.8343 7.70776ZM30.6807 12.231C30.6807 13.1871 30.5401 14.1036 30.2599 14.9818L30.8315 15.1642C31.1312 14.2251 31.2807 13.2469 31.2807 12.231H30.6807ZM30.2604 14.98C29.982 15.8338 29.545 16.6441 28.9462 17.4114L29.4192 17.7806C30.0576 16.9625 30.5293 16.0909 30.8309 15.166L30.2604 14.98ZM28.9455 17.4122C28.3687 18.1565 27.6202 18.8411 26.6951 19.4642L27.0302 19.9618C27.9997 19.3089 28.7979 18.5822 29.4198 17.7798L28.9455 17.4122ZM26.6927 19.4658C25.7913 20.0855 24.7052 20.6156 23.4303 21.0533L23.6251 21.6207C24.9408 21.1691 26.078 20.6165 27.0326 19.9602L26.6927 19.4658ZM23.4618 21.6297C26.3058 22.2691 28.4032 23.3494 29.789 24.8468C31.1697 26.3387 31.8697 28.2724 31.8697 30.675H32.4697C32.4697 28.1476 31.7292 26.0599 30.2293 24.4392C28.7344 22.8239 26.5109 21.7002 23.5935 21.0443L23.4618 21.6297ZM31.8697 30.675C31.8697 32.4146 31.539 34.0157 30.881 35.4822L31.4284 35.7278C32.1237 34.1783 32.4697 32.4927 32.4697 30.675H31.8697ZM30.881 35.4822C30.2231 36.9483 29.2646 38.2175 28.0023 39.2915L28.3911 39.7485C29.7193 38.6185 30.7329 37.2777 31.4284 35.7278L30.881 35.4822ZM28.0043 39.2898C26.743 40.344 25.1833 41.1779 23.3185 41.7868L23.5048 42.3572C25.4293 41.7288 27.0596 40.8613 28.3891 39.7502L28.0043 39.2898ZM23.3185 41.7868C21.4598 42.3938 19.3268 42.7 16.9157 42.7V43.3C19.3765 43.3 21.5742 42.9876 23.5048 42.3572L23.3185 41.7868ZM16.9157 42.7H1.08166V43.3H16.9157V42.7ZM8.58266 24.614V36.91H9.18266V24.614H8.58266ZM8.88266 37.21H16.7997V36.61H8.88266V37.21ZM16.7997 37.21C18.2712 37.21 19.5166 37.0337 20.5263 36.6703L20.323 36.1057C19.3994 36.4383 18.2281 36.61 16.7997 36.61V37.21ZM20.5245 36.6709C21.5415 36.312 22.3666 35.8273 22.9858 35.2081L22.5615 34.7839C22.0207 35.3247 21.2798 35.768 20.3248 36.1051L20.5245 36.6709ZM22.9823 35.2116C23.6159 34.5984 24.0681 33.8799 24.335 33.0587L23.7643 32.8733C23.5286 33.5988 23.1301 34.2336 22.565 34.7804L22.9823 35.2116ZM24.3328 33.0651C24.6153 32.258 24.7557 31.4026 24.7557 30.501H24.1557C24.1557 31.3394 24.0253 32.1273 23.7665 32.8669L24.3328 33.0651ZM24.7557 30.501C24.7557 29.5604 24.6055 28.7092 24.2987 27.9523L23.7426 28.1777C24.0158 28.8515 24.1557 29.6242 24.1557 30.501H24.7557ZM24.2997 27.9548C23.9906 27.1718 23.5051 26.511 22.8468 25.9762L22.4685 26.4418C23.0475 26.9123 23.4707 27.4889 23.7416 28.1751L24.2997 27.9548ZM22.8511 25.9797C22.1927 25.4242 21.3589 25.0107 20.3605 24.7311L20.1988 25.3089C21.1337 25.5707 21.8852 25.9498 22.4642 26.4383L22.8511 25.9797ZM20.3605 24.7311C19.3599 24.4509 18.1614 24.314 16.7707 24.314V24.914C18.1253 24.914 19.2661 25.0477 20.1988 25.3089L20.3605 24.7311ZM16.7707 24.314H8.88266V24.914H16.7707V24.314ZM8.88266 19.52H15.1177V18.92H8.88266V19.52ZM15.1177 19.52C17.7951 19.52 19.8776 19.0327 21.3224 18.0153L20.9769 17.5247C19.6764 18.4406 17.7375 18.92 15.1177 18.92V19.52ZM21.3224 18.0153C22.7952 16.9781 23.5087 15.336 23.5087 13.159H22.9087C22.9087 15.1966 22.2494 16.6286 20.9769 17.5247L21.3224 18.0153ZM23.5087 13.159C23.5087 10.9212 22.8734 9.25556 21.5327 8.25L21.1727 8.73C22.3066 9.58044 22.9087 11.0274 22.9087 13.159H23.5087ZM21.5327 8.25C20.2181 7.26409 18.2059 6.798 15.5527 6.798V7.398C18.1581 7.398 20.0125 7.85991 21.1727 8.73L21.5327 8.25ZM15.5527 6.798H8.88266V7.398H15.5527V6.798ZM8.58266 7.098V19.22H9.18266V7.098H8.58266ZM75.72 43V43.3H76.1601L75.9992 42.8903L75.72 43ZM68.006 42.507L67.816 42.7392L67.8217 42.7439L67.8276 42.7483L68.006 42.507ZM67.078 41.231L66.7962 41.3341L66.798 41.3387L67.078 41.231ZM63.946 32.676L64.2277 32.5729L64.1556 32.376H63.946V32.676ZM46.575 32.676V32.376H46.3653L46.2932 32.5729L46.575 32.676ZM43.443 41.231L43.1612 41.1279L43.1596 41.1324L43.443 41.231ZM42.515 42.449L42.3287 42.2137L42.3239 42.2177L42.515 42.449ZM34.801 43L34.5217 42.8903L34.3608 43.3H34.801V43ZM51.273 1.066V0.765997H51.0685L50.9937 0.956313L51.273 1.066ZM59.248 1.066L59.5272 0.956313L59.4524 0.765997H59.248V1.066ZM48.576 27.166L48.2944 27.0625L48.1461 27.466H48.576V27.166ZM61.945 27.166V27.466H62.3742L62.2267 27.0629L61.945 27.166ZM56.841 13.217L57.1227 13.1139L57.1219 13.1117L56.841 13.217ZM56.058 11.042L55.772 11.133L55.7747 11.1408L56.058 11.042ZM55.246 8.287L55.5353 8.20758L55.246 7.15371L54.9567 8.20758L55.246 8.287ZM54.434 11.042L54.148 10.951L54.1462 10.957L54.434 11.042ZM53.68 13.275L53.4008 13.165L53.3984 13.1715L53.68 13.275ZM75.72 42.7H69.688V43.3H75.72V42.7ZM69.688 42.7C69.0608 42.7 68.5667 42.5484 68.1843 42.2657L67.8276 42.7483C68.3346 43.123 68.9617 43.3 69.688 43.3V42.7ZM68.1959 42.2748C67.81 41.9591 67.5322 41.5763 67.358 41.1233L66.798 41.3387C67.0104 41.891 67.3512 42.3589 67.816 42.7392L68.1959 42.2748ZM67.3597 41.1279L64.2277 32.5729L63.6642 32.7791L66.7962 41.3341L67.3597 41.1279ZM63.946 32.376H46.575V32.976H63.946V32.376ZM46.2932 32.5729L43.1612 41.1279L43.7247 41.3341L46.8567 32.7791L46.2932 32.5729ZM43.1596 41.1324C43.0279 41.511 42.7595 41.8728 42.3287 42.2138L42.7012 42.6842C43.1984 42.2905 43.5486 41.8404 43.7263 41.3296L43.1596 41.1324ZM42.3239 42.2177C41.9404 42.5345 41.4599 42.7 40.862 42.7V43.3C41.5787 43.3 42.2001 43.0982 42.706 42.6803L42.3239 42.2177ZM40.862 42.7H34.801V43.3H40.862V42.7ZM35.0802 43.1097L51.5522 1.17568L50.9937 0.956313L34.5217 42.8903L35.0802 43.1097ZM51.273 1.366H59.248V0.765997H51.273V1.366ZM58.9687 1.17568L75.4407 43.1097L75.9992 42.8903L59.5272 0.956313L58.9687 1.17568ZM48.576 27.466H61.945V26.866H48.576V27.466ZM62.2267 27.0629L57.1227 13.1139L56.5592 13.3201L61.6632 27.2691L62.2267 27.0629ZM57.1219 13.1117C56.8909 12.4957 56.6307 11.773 56.3412 10.9432L55.7747 11.1408C56.0652 11.9737 56.327 12.7009 56.5601 13.3223L57.1219 13.1117ZM56.3438 10.951C56.0745 10.1047 55.805 9.19026 55.5353 8.20758L54.9567 8.36641C55.2282 9.35574 55.5 10.278 55.7721 11.133L56.3438 10.951ZM54.9567 8.20758C54.6869 9.19026 54.4174 10.1047 54.1481 10.951L54.7198 11.133C54.9919 10.278 55.2637 9.35574 55.5353 8.36641L54.9567 8.20758ZM54.1462 10.957C53.8967 11.8015 53.6482 12.5372 53.4008 13.165L53.9591 13.385C54.2144 12.7368 54.4685 11.9838 54.7217 11.127L54.1462 10.957ZM53.3984 13.1715L48.2944 27.0625L48.8575 27.2695L53.9615 13.3785L53.3984 13.1715ZM108.494 33.604L108.715 33.4007L108.712 33.3984L108.494 33.604ZM111.568 36.939L111.801 37.1275L111.964 36.926L111.789 36.7357L111.568 36.939ZM105.275 41.782L105.152 41.5084L105.151 41.5087L105.275 41.782ZM87.933 41.869L87.8146 42.1446L87.8154 42.145L87.933 41.869ZM81.582 37.432L81.3622 37.6361L81.3622 37.6361L81.582 37.432ZM77.522 30.646L77.2391 30.7458L77.2398 30.7477L77.522 30.646ZM77.696 13.391L77.9746 13.5024L77.9749 13.5017L77.696 13.391ZM82.104 6.605L81.8919 6.39286L81.8919 6.39286L82.104 6.605ZM88.89 2.197L89.0007 2.47583L89.0018 2.4754L88.89 2.197ZM105.797 2.11L105.678 2.38528L105.681 2.38645L105.797 2.11ZM111.8 6.054L112.043 6.22929L112.193 6.02103L112.011 5.84063L111.8 6.054ZM109.19 9.679L108.946 9.50359L108.94 9.51259L109.19 9.679ZM108.581 10.288L108.41 10.0412L108.401 10.048L108.581 10.288ZM106.232 10.027L106.052 10.267L106.052 10.267L106.232 10.027ZM104.463 8.896L104.315 9.15691L104.315 9.15691L104.463 8.896ZM101.737 7.765L101.645 8.05061L101.647 8.05107L101.737 7.765ZM92.138 8.287L92.2523 8.56441L92.2539 8.56373L92.138 8.287ZM87.875 11.216L87.6564 11.0106L87.6547 11.0124L87.875 11.216ZM85.091 15.885L84.8095 15.7813L84.8089 15.783L85.091 15.885ZM85.091 28.326L84.8086 28.4271L84.8095 28.4297L85.091 28.326ZM91.848 35.866L91.7278 36.1409L91.7307 36.1421L91.848 35.866ZM99.707 36.678L99.6674 36.3806L99.6665 36.3808L99.707 36.678ZM102.085 36.127L101.988 35.8431L101.986 35.844L102.085 36.127ZM104.144 35.17L104.3 35.4266L104.302 35.4252L104.144 35.17ZM106.087 33.691L105.886 33.468L105.885 33.469L106.087 33.691ZM106.696 33.285L106.82 33.5581L106.83 33.5536L106.84 33.5484L106.696 33.285ZM107.392 33.411C107.729 33.411 108.019 33.5371 108.276 33.8096L108.712 33.3984C108.35 33.0136 107.906 32.811 107.392 32.811V33.411ZM108.273 33.8073L111.347 37.1423L111.789 36.7357L108.715 33.4007L108.273 33.8073ZM111.335 36.7505C109.663 38.8209 107.603 40.4062 105.152 41.5084L105.398 42.0556C107.935 40.9152 110.07 39.2718 111.801 37.1275L111.335 36.7505ZM105.151 41.5087C102.725 42.6082 99.7919 43.164 96.343 43.164V43.764C99.8542 43.764 102.876 43.1984 105.399 42.0553L105.151 41.5087ZM96.343 43.164C93.2649 43.164 90.5024 42.6383 88.0507 41.593L87.8154 42.145C90.3517 43.2263 93.1959 43.764 96.343 43.764V43.164ZM88.0515 41.5934C85.6136 40.5458 83.5316 39.0906 81.8019 37.2279L81.3622 37.6361C83.1512 39.5627 85.3032 41.0655 87.8146 42.1446L88.0515 41.5934ZM81.8019 37.2279C80.0722 35.3651 78.739 33.1387 77.8043 30.5443L77.2398 30.7477C78.1997 33.4119 79.5732 35.7095 81.3622 37.6361L81.8019 37.2279ZM77.8049 30.5462C76.8895 27.9524 76.43 25.1156 76.43 22.033H75.83C75.83 25.1758 76.2986 28.0809 77.2391 30.7458L77.8049 30.5462ZM76.43 22.033C76.43 18.9152 76.9464 16.0729 77.9746 13.5024L77.4175 13.2796C76.3577 15.9291 75.83 18.8481 75.83 22.033H76.43ZM77.9749 13.5017C79.0046 10.9082 80.452 8.68129 82.3162 6.81713L81.8919 6.39286C79.9667 8.31804 78.4754 10.6151 77.4172 13.2803L77.9749 13.5017ZM82.3162 6.81713C84.1803 4.95297 86.4072 3.50559 89.0007 2.47582L88.7793 1.91817C86.1141 2.9764 83.8171 4.46769 81.8919 6.39286L82.3162 6.81713ZM89.0018 2.4754C91.611 1.42792 94.4918 0.902 97.648 0.902V0.302C94.4242 0.302 91.4664 0.839412 88.7783 1.9186L89.0018 2.4754ZM97.648 0.902C100.729 0.902 103.403 1.39955 105.678 2.38526L105.916 1.83473C103.551 0.809777 100.793 0.302 97.648 0.302V0.902ZM105.681 2.38645C107.988 3.3589 109.956 4.6531 111.589 6.26737L112.011 5.84063C110.319 4.16823 108.285 2.8331 105.914 1.83355L105.681 2.38645ZM111.557 5.87871L108.947 9.50371L109.433 9.85429L112.043 6.22929L111.557 5.87871ZM108.94 9.51259C108.809 9.7102 108.633 9.8868 108.41 10.0413L108.752 10.5347C109.031 10.3412 109.262 10.1118 109.44 9.84541L108.94 9.51259ZM108.401 10.048C108.24 10.1686 107.984 10.249 107.595 10.249V10.849C108.056 10.849 108.458 10.7554 108.761 10.528L108.401 10.048ZM107.595 10.249C107.233 10.249 106.84 10.1079 106.412 9.787L106.052 10.267C106.552 10.6421 107.068 10.849 107.595 10.849V10.249ZM106.412 9.787C105.935 9.42894 105.333 9.04501 104.611 8.63509L104.315 9.15691C105.023 9.55899 105.601 9.92906 106.052 10.267L106.412 9.787ZM104.611 8.63509C103.872 8.21547 102.942 7.83093 101.827 7.47892L101.647 8.05107C102.736 8.39507 103.624 8.76453 104.315 9.15691L104.611 8.63509ZM101.829 7.47939C100.706 7.11847 99.2898 6.943 97.59 6.943V7.543C99.2543 7.543 100.603 7.71553 101.645 8.05061L101.829 7.47939ZM97.59 6.943C95.582 6.943 93.7249 7.29752 92.0222 8.01027L92.2539 8.56373C93.8765 7.88448 95.654 7.543 97.59 7.543V6.943ZM92.0238 8.0096C90.3415 8.70229 88.8848 9.70294 87.6564 11.0106L88.0937 11.4214C89.2626 10.1771 90.6479 9.22504 92.2523 8.5644L92.0238 8.0096ZM87.6547 11.0124C86.4454 12.3208 85.4981 13.9123 84.8095 15.7813L85.3725 15.9887C86.0373 14.1844 86.946 12.6632 88.0953 11.4196L87.6547 11.0124ZM84.8089 15.783C84.1378 17.6383 83.805 19.723 83.805 22.033H84.405C84.405 19.7803 84.7296 17.7663 85.3731 15.987L84.8089 15.783ZM83.805 22.033C83.805 24.4191 84.1375 26.552 84.8086 28.4271L85.3735 28.2249C84.7299 26.4267 84.405 24.3642 84.405 22.033H83.805ZM84.8095 28.4297C85.4975 30.297 86.4247 31.8784 87.5949 33.1676L88.0392 32.7644C86.9281 31.5403 86.0379 30.0283 85.3725 28.2223L84.8095 28.4297ZM87.5949 33.1676C88.7638 34.4554 90.1422 35.4471 91.7278 36.1408L91.9683 35.5912C90.4606 34.9315 89.1516 33.9899 88.0392 32.7644L87.5949 33.1676ZM91.7307 36.1421C93.3166 36.8161 95.0194 37.152 96.836 37.152V36.552C95.0953 36.552 93.4728 36.2306 91.9654 35.5899L91.7307 36.1421ZM96.836 37.152C97.9099 37.152 98.8807 37.0935 99.7476 36.9752L99.6665 36.3808C98.832 36.4945 97.8889 36.552 96.836 36.552V37.152ZM99.7467 36.9754C100.634 36.8571 101.447 36.6691 102.184 36.41L101.986 35.844C101.292 36.0875 100.52 36.2669 99.6674 36.3806L99.7467 36.9754ZM102.182 36.4108C102.936 36.1528 103.642 35.8248 104.3 35.4266L103.989 34.9134C103.37 35.2885 102.703 35.5985 101.988 35.8432L102.182 36.4108ZM104.302 35.4252C104.976 35.0085 105.639 34.504 106.289 33.913L105.885 33.469C105.259 34.038 104.626 34.5195 103.986 34.9148L104.302 35.4252ZM106.288 33.914C106.461 33.7582 106.638 33.6407 106.82 33.5581L106.572 33.0119C106.328 33.1226 106.1 33.2758 105.886 33.468L106.288 33.914ZM106.84 33.5484C107.007 33.4573 107.189 33.411 107.392 33.411V32.811C107.092 32.811 106.811 32.8807 106.552 33.0216L106.84 33.5484ZM125.54 18.64H125.24V18.94H125.54V18.64ZM129.194 18.35L129.306 18.6287L129.315 18.6246L129.194 18.35ZM130.441 17.364L130.206 17.178L130.205 17.1791L130.441 17.364ZM142.012 2.719L142.248 2.90499L142.249 2.90369L142.012 2.719ZM143.52 1.443L143.642 1.71718L143.646 1.7151L143.52 1.443ZM152.278 1.066L152.511 1.25487L152.907 0.765997H152.278V1.066ZM138.155 18.495L138.387 18.6854L138.388 18.6839L138.155 18.495ZM136.879 19.858L137.08 20.0805L137.08 20.0805L136.879 19.858ZM135.574 20.757L135.44 20.4887L134.816 20.8006L135.472 21.0389L135.574 20.757ZM137.285 21.743L137.091 21.9721L137.096 21.9756L137.285 21.743ZM138.793 23.367L138.551 23.5447L138.552 23.5457L138.793 23.367ZM153.351 43V43.3H153.947L153.592 42.8213L153.351 43ZM144.361 42.623L144.205 42.8793L144.212 42.8832L144.218 42.8868L144.361 42.623ZM143.23 41.463L143.486 41.3058L143.478 41.2927L143.468 41.2806L143.23 41.463ZM131.369 25.977L131.607 25.7946L131.607 25.7941L131.369 25.977ZM130.064 24.904L129.934 25.1746L129.943 25.1786L130.064 24.904ZM125.54 24.556V24.256H125.24V24.556H125.54ZM125.54 43V43.3H125.84V43H125.54ZM117.739 43H117.439V43.3H117.739V43ZM117.739 1.037V0.736999H117.439V1.037H117.739ZM125.54 1.037H125.84V0.736999H125.54V1.037ZM125.54 18.94H127.367V18.34H125.54V18.94ZM127.367 18.94C128.125 18.94 128.775 18.8406 129.306 18.6285L129.083 18.0715C128.646 18.2461 128.078 18.34 127.367 18.34V18.94ZM129.315 18.6246C129.847 18.3906 130.301 18.0297 130.677 17.5489L130.205 17.1791C129.885 17.5876 129.508 17.884 129.073 18.0754L129.315 18.6246ZM130.677 17.55L142.248 2.90498L141.777 2.53301L130.206 17.178L130.677 17.55ZM142.249 2.90369C142.712 2.30999 143.179 1.9231 143.642 1.71714L143.398 1.16885C142.818 1.4269 142.279 1.89067 141.776 2.53431L142.249 2.90369ZM143.646 1.7151C144.137 1.48751 144.767 1.366 145.55 1.366V0.765997C144.709 0.765997 143.986 0.895814 143.394 1.17089L143.646 1.7151ZM145.55 1.366H152.278V0.765997H145.55V1.366ZM152.045 0.877126L137.922 18.3061L138.388 18.6839L152.511 1.25487L152.045 0.877126ZM137.923 18.3046C137.486 18.8375 137.07 19.2804 136.678 19.6355L137.08 20.0805C137.5 19.7009 137.935 19.2352 138.387 18.6854L137.923 18.3046ZM136.678 19.6355C136.291 19.9856 135.878 20.2695 135.44 20.4887L135.708 21.0253C136.198 20.7805 136.655 20.465 137.08 20.0805L136.678 19.6355ZM135.472 21.0389C136.077 21.2592 136.617 21.5703 137.091 21.972L137.479 21.514C136.948 21.065 136.347 20.7188 135.677 20.4751L135.472 21.0389ZM137.096 21.9756C137.594 22.3819 138.08 22.9037 138.551 23.5447L139.035 23.1893C138.54 22.5157 138.02 21.9547 137.475 21.5104L137.096 21.9756ZM138.552 23.5457L153.11 43.1787L153.592 42.8213L139.034 23.1883L138.552 23.5457ZM153.351 42.7H146.449V43.3H153.351V42.7ZM146.449 42.7C145.538 42.7 144.902 42.575 144.504 42.3592L144.218 42.8868C144.748 43.1737 145.504 43.3 146.449 43.3V42.7ZM144.517 42.3667C144.118 42.1239 143.773 41.7735 143.486 41.3058L142.975 41.6202C143.305 42.1579 143.715 42.5808 144.205 42.8793L144.517 42.3667ZM143.468 41.2806L131.607 25.7946L131.131 26.1594L142.992 41.6454L143.468 41.2806ZM131.607 25.7941C131.196 25.2595 130.723 24.866 130.185 24.6294L129.943 25.1786C130.372 25.3673 130.769 25.6891 131.131 26.1599L131.607 25.7941ZM130.194 24.6335C129.652 24.3733 128.913 24.256 128.005 24.256V24.856C128.875 24.856 129.51 24.9707 129.934 25.1745L130.194 24.6335ZM128.005 24.256H125.54V24.856H128.005V24.256ZM125.24 24.556V43H125.84V24.556H125.24ZM125.54 42.7H117.739V43.3H125.54V42.7ZM118.039 43V1.037H117.439V43H118.039ZM117.739 1.337H125.54V0.736999H117.739V1.337ZM125.24 1.037V18.64H125.84V1.037H125.24ZM180.965 36.794L181.034 37.0858L181.037 37.085L180.965 36.794ZM184.706 35.46L184.834 35.7309L185.006 35.6496V35.46H184.706ZM184.706 27.833H185.006V27.533H184.706V27.833ZM178.268 27.427L178.055 27.6393L178.063 27.6463L178.268 27.427ZM177.833 21.975V21.675H177.533V21.975H177.833ZM191.782 21.975H192.082V21.675H191.782V21.975ZM191.782 38.94L191.958 39.1826L192.082 39.0928V38.94H191.782ZM188.447 40.97L188.579 41.2392L188.581 41.2383L188.447 40.97ZM184.764 42.362L184.683 42.0731L184.682 42.0734L184.764 42.362ZM180.588 43.174L180.553 42.876L180.549 42.8765L180.588 43.174ZM167.335 41.869L167.22 42.1462L167.22 42.1462L167.335 41.869ZM160.665 37.432L160.451 37.643L160.451 37.643L160.665 37.432ZM156.257 30.646L155.978 30.7567L155.978 30.7585L156.257 30.646ZM156.228 13.362L155.948 13.2531L155.948 13.2531L156.228 13.362ZM160.578 6.576L160.365 6.36386L160.364 6.36496L160.578 6.576ZM167.451 2.168L167.342 1.88836L167.342 1.88836L167.451 2.168ZM185.373 2.139L185.259 2.4165L185.261 2.41754L185.373 2.139ZM191.753 6.083L192.005 6.2446L192.14 6.03413L191.957 5.86368L191.753 6.083ZM189.491 9.621L189.238 9.45939L189.236 9.46262L189.491 9.621ZM186.301 10.23L186.462 9.97718L186.454 9.97204L186.301 10.23ZM184.387 9.128L184.237 9.38801L184.24 9.38988L184.387 9.128ZM182.241 8.171L182.141 8.45416L182.144 8.4549L182.241 8.171ZM179.602 7.504L179.548 7.79925L179.549 7.79943L179.602 7.504ZM170.612 8.287L170.497 8.00979L170.496 8.01027L170.612 8.287ZM166.349 11.274L166.127 11.072L166.127 11.072L166.349 11.274ZM163.623 15.943L163.34 15.8436L163.34 15.8436L163.623 15.943ZM163.681 28.5L163.398 28.6009L163.398 28.6018L163.681 28.5ZM166.523 33.256L166.304 33.4615L166.523 33.256ZM170.873 36.243L170.758 36.5202L170.761 36.5213L170.873 36.243ZM176.383 37.558C178.158 37.558 179.71 37.402 181.034 37.0858L180.895 36.5022C179.628 36.8047 178.125 36.958 176.383 36.958V37.558ZM181.037 37.085C182.371 36.7517 183.636 36.3005 184.834 35.7309L184.577 35.1891C183.416 35.7409 182.188 36.1789 180.892 36.503L181.037 37.085ZM185.006 35.46V27.833H184.406V35.46H185.006ZM184.706 27.533H179.457V28.133H184.706V27.533ZM179.457 27.533C179.009 27.533 178.693 27.4137 178.472 27.2077L178.063 27.6463C178.422 27.9816 178.899 28.133 179.457 28.133V27.533ZM178.48 27.2149C178.245 26.9805 178.133 26.7085 178.133 26.383H177.533C177.533 26.8695 177.71 27.2935 178.055 27.6391L178.48 27.2149ZM178.133 26.383V21.975H177.533V26.383H178.133ZM177.833 22.275H191.782V21.675H177.833V22.275ZM191.482 21.975V38.94H192.082V21.975H191.482ZM191.605 38.6974C190.555 39.4611 189.457 40.1292 188.312 40.7017L188.581 41.2383C189.756 40.6508 190.882 39.9655 191.958 39.1826L191.605 38.6974ZM188.314 40.7008C187.191 41.2527 185.981 41.7103 184.683 42.0731L184.844 42.6509C186.175 42.279 187.421 41.8086 188.579 41.2392L188.314 40.7008ZM184.682 42.0734C183.403 42.4359 182.027 42.7037 180.553 42.876L180.622 43.472C182.125 43.2963 183.533 43.0228 184.845 42.6506L184.682 42.0734ZM180.549 42.8765C179.075 43.0679 177.483 43.164 175.774 43.164V43.764C177.505 43.764 179.123 43.6667 180.626 43.4715L180.549 42.8765ZM175.774 43.164C172.754 43.164 169.981 42.6387 167.449 41.5918L167.22 42.1462C169.831 43.226 172.683 43.764 175.774 43.764V43.164ZM167.449 41.5918C164.913 40.543 162.724 39.086 160.878 37.221L160.451 37.643C162.356 39.5674 164.613 41.0683 167.22 42.1462L167.449 41.5918ZM160.878 37.221C159.032 35.3563 157.584 33.1284 156.535 30.5335L155.978 30.7585C157.056 33.4222 158.546 35.7184 160.451 37.643L160.878 37.221ZM156.535 30.5353C155.507 27.9446 154.991 25.1116 154.991 22.033H154.391C154.391 25.1798 154.918 28.0888 155.978 30.7567L156.535 30.5353ZM154.991 22.033C154.991 18.9146 155.497 16.0617 156.507 13.4709L155.948 13.2531C154.908 15.9209 154.391 18.8487 154.391 22.033H154.991ZM156.507 13.4709C157.518 10.8775 158.946 8.65087 160.791 6.78704L160.364 6.36496C158.459 8.29046 156.987 10.5878 155.948 13.2531L156.507 13.4709ZM160.79 6.78813C162.653 4.92509 164.908 3.47772 167.559 2.44764L167.342 1.88836C164.619 2.94627 162.292 4.43757 160.365 6.36387L160.79 6.78813ZM167.559 2.44764C170.207 1.41907 173.185 0.902 176.499 0.902V0.302C173.123 0.302 170.069 0.828931 167.342 1.88836L167.559 2.44764ZM176.499 0.902C179.892 0.902 182.809 1.4101 185.259 2.41649L185.487 1.86151C182.948 0.818566 179.95 0.302 176.499 0.302V0.902ZM185.261 2.41754C187.745 3.41095 189.839 4.7069 191.548 6.30232L191.957 5.86368C190.187 4.2111 188.027 2.87771 185.484 1.86046L185.261 2.41754ZM191.5 5.9214L189.238 9.4594L189.743 9.7826L192.005 6.2446L191.5 5.9214ZM189.236 9.46262C188.836 10.1051 188.336 10.394 187.722 10.394V10.994C188.577 10.994 189.255 10.5675 189.745 9.77938L189.236 9.46262ZM187.722 10.394C187.327 10.394 186.909 10.2631 186.462 9.97732L186.139 10.4827C186.659 10.8156 187.188 10.994 187.722 10.994V10.394ZM186.454 9.97204C185.833 9.60331 185.192 9.23467 184.533 8.86611L184.24 9.38988C184.895 9.75599 185.531 10.122 186.147 10.488L186.454 9.97204ZM184.536 8.86801C183.879 8.48981 183.146 8.16318 182.338 7.88709L182.144 8.4549C182.92 8.72015 183.618 9.03152 184.237 9.38798L184.536 8.86801ZM182.34 7.88784C181.548 7.6108 180.652 7.38479 179.654 7.20856L179.549 7.79943C180.523 7.97121 181.386 8.18987 182.141 8.45415L182.34 7.88784ZM179.655 7.20874C178.666 7.03081 177.526 6.943 176.238 6.943V7.543C177.501 7.543 178.604 7.62918 179.548 7.79925L179.655 7.20874ZM176.238 6.943C174.135 6.943 172.22 7.29683 170.497 8.00979L170.726 8.5642C172.367 7.88517 174.203 7.543 176.238 7.543V6.943ZM170.496 8.01027C168.794 8.72266 167.336 9.7434 166.127 11.072L166.57 11.476C167.719 10.2139 169.104 9.24334 170.727 8.56373L170.496 8.01027ZM166.127 11.072C164.918 12.3999 163.99 13.9921 163.34 15.8436L163.906 16.0424C164.532 14.2592 165.421 12.7387 166.57 11.476L166.127 11.072ZM163.34 15.8436C162.689 17.6977 162.366 19.7619 162.366 22.033H162.966C162.966 19.8187 163.281 17.823 163.906 16.0424L163.34 15.8436ZM162.366 22.033C162.366 24.4773 162.708 26.6681 163.398 28.6009L163.963 28.3991C163.3 26.5426 162.966 24.422 162.966 22.033H162.366ZM163.398 28.6018C164.087 30.511 165.055 32.1329 166.304 33.4615L166.741 33.0505C165.554 31.7884 164.627 30.2396 163.963 28.3982L163.398 28.6018ZM166.304 33.4615C167.552 34.7886 169.038 35.8083 170.758 36.5202L170.987 35.9658C169.344 35.2857 167.929 34.3141 166.741 33.0505L166.304 33.4615ZM170.761 36.5213C172.482 37.2137 174.357 37.558 176.383 37.558V36.958C174.426 36.958 172.628 36.6257 170.985 35.9647L170.761 36.5213ZM207.103 26.615V26.315H206.803V26.615H207.103ZM207.103 43V43.3H207.403V43H207.103ZM199.302 43H199.002V43.3H199.302V43ZM199.302 1.066V0.765997H199.002V1.066H199.302ZM219.428 1.965L219.343 2.25274L219.346 2.25366L219.428 1.965ZM224.445 4.43L224.254 4.66188L224.256 4.66325L224.445 4.43ZM227.316 8.258L227.037 8.37005L227.039 8.37441L227.316 8.258ZM227.606 17.132L227.321 17.0358L227.32 17.0398L227.606 17.132ZM225.808 20.554L225.57 20.3704L225.568 20.3733L225.808 20.554ZM222.908 23.251L222.741 23.0014L222.739 23.0027L222.908 23.251ZM218.993 25.107L218.902 24.8209L218.247 25.028L218.844 25.3678L218.993 25.107ZM221.545 27.514L221.793 27.3457L221.792 27.3444L221.545 27.514ZM232.043 43V43.3H232.608L232.291 42.8317L232.043 43ZM223.285 42.594L223.133 42.8532L223.138 42.8558L223.285 42.594ZM222.096 41.434L222.347 41.2698L222.346 41.2693L222.096 41.434ZM213.28 28.007L213.029 28.1712L213.029 28.1717L213.28 28.007ZM212.178 26.934L212.033 27.1969L212.038 27.1997L212.178 26.934ZM207.103 21.018H206.803V21.318H207.103V21.018ZM215.803 20.467L215.708 20.1824L215.706 20.1829L215.803 20.467ZM218.5 18.959L218.702 19.1801L218.703 19.1799L218.5 18.959ZM218.5 8.809L218.309 9.04105L218.311 9.04232L218.5 8.809ZM207.103 7.098V6.798H206.803V7.098H207.103ZM206.803 26.615V43H207.403V26.615H206.803ZM207.103 42.7H199.302V43.3H207.103V42.7ZM199.602 43V1.066H199.002V43H199.602ZM199.302 1.366H212.091V0.765997H199.302V1.366ZM212.091 1.366C214.933 1.366 217.348 1.66382 219.343 2.25272L219.513 1.67728C217.447 1.06751 214.971 0.765997 212.091 0.765997V1.366ZM219.346 2.25366C221.366 2.82535 222.998 3.63082 224.254 4.66188L224.635 4.19812C223.3 3.10251 221.588 2.26465 219.509 1.67634L219.346 2.25366ZM224.256 4.66325C225.533 5.69625 226.458 6.93131 227.037 8.37004L227.594 8.14596C226.974 6.60735 225.985 5.29041 224.633 4.19675L224.256 4.66325ZM227.039 8.37441C227.641 9.80286 227.944 11.3867 227.944 13.13H228.544C228.544 11.316 228.228 9.6518 227.592 8.14158L227.039 8.37441ZM227.944 13.13C227.944 14.5107 227.736 15.8121 227.321 17.0358L227.89 17.2282C228.326 15.9386 228.544 14.5719 228.544 13.13H227.944ZM227.32 17.0398C226.925 18.2641 226.341 19.3737 225.57 20.3704L226.045 20.7376C226.859 19.6849 227.475 18.5132 227.891 17.2242L227.32 17.0398ZM225.568 20.3733C224.817 21.3688 223.876 22.2451 222.741 23.0014L223.074 23.5006C224.26 22.7102 225.252 21.7885 226.047 20.7347L225.568 20.3733ZM222.739 23.0027C221.625 23.7579 220.347 24.3647 218.902 24.8209L219.083 25.3931C220.577 24.9213 221.909 24.2907 223.076 23.4993L222.739 23.0027ZM218.844 25.3678C219.786 25.9035 220.605 26.6727 221.297 27.6836L221.792 27.3444C221.054 26.2673 220.171 25.4319 219.141 24.8462L218.844 25.3678ZM221.296 27.6823L231.794 43.1683L232.291 42.8317L221.793 27.3457L221.296 27.6823ZM232.043 42.7H225.025V43.3H232.043V42.7ZM225.025 42.7C224.388 42.7 223.861 42.5728 223.431 42.3322L223.138 42.8558C223.675 43.1565 224.308 43.3 225.025 43.3V42.7ZM223.436 42.3349C223.017 42.0903 222.653 41.7382 222.347 41.2698L221.845 41.5982C222.196 42.1352 222.625 42.5564 223.133 42.8531L223.436 42.3349ZM222.346 41.2693L213.53 27.8423L213.029 28.1717L221.845 41.5987L222.346 41.2693ZM213.531 27.8428C213.182 27.3102 212.78 26.9109 212.317 26.6682L212.038 27.1997C212.387 27.3824 212.719 27.6985 213.029 28.1712L213.531 27.8428ZM212.322 26.6711C211.869 26.4221 211.229 26.315 210.438 26.315V26.915C211.193 26.915 211.713 27.0206 212.033 27.1969L212.322 26.6711ZM210.438 26.315H207.103V26.915H210.438V26.315ZM207.103 21.318H211.975V20.718H207.103V21.318ZM211.975 21.318C213.468 21.318 214.778 21.1315 215.899 20.7511L215.706 20.1829C214.662 20.5372 213.42 20.718 211.975 20.718V21.318ZM215.898 20.7516C217.031 20.3739 217.969 19.8524 218.702 19.1801L218.297 18.7379C217.638 19.3416 216.779 19.8254 215.708 20.1824L215.898 20.7516ZM218.703 19.1799C219.451 18.4922 220.009 17.6809 220.374 16.7483L219.815 16.5297C219.484 17.3757 218.979 18.1111 218.297 18.7381L218.703 19.1799ZM220.374 16.7483C220.737 15.8204 220.917 14.8065 220.917 13.71H220.317C220.317 14.7402 220.148 15.6789 219.815 16.5297L220.374 16.7483ZM220.917 13.71C220.917 11.5101 220.183 9.78341 218.688 8.57568L218.311 9.04232C219.639 10.1159 220.317 11.6565 220.317 13.71H220.917ZM218.69 8.57696C217.22 7.37275 215.002 6.798 212.091 6.798V7.398C214.941 7.398 216.995 7.96391 218.309 9.04104L218.69 8.57696ZM212.091 6.798H207.103V7.398H212.091V6.798ZM206.803 7.098V21.018H207.403V7.098H206.803ZM274.316 30.588L274.596 30.6976L274.596 30.6969L274.316 30.588ZM269.995 37.374L270.211 37.5828L270.211 37.5828L269.995 37.374ZM263.296 41.869L263.41 42.1468L263.411 42.1461L263.296 41.869ZM245.925 41.869L245.811 42.1461L245.813 42.1471L245.925 41.869ZM239.197 37.374L238.982 37.5828L238.983 37.584L239.197 37.374ZM234.876 30.588L234.597 30.6969L234.597 30.6976L234.876 30.588ZM234.876 13.507L235.156 13.6166L235.156 13.6159L234.876 13.507ZM239.197 6.692L238.983 6.48204L238.982 6.48315L239.197 6.692ZM245.925 2.226L246.039 2.50383L246.04 2.5034L245.925 2.226ZM269.995 6.721L269.78 6.92985L269.781 6.93093L269.995 6.721ZM274.316 13.507L274.037 13.6159L274.037 13.6166L274.316 13.507ZM266.921 15.856L266.636 15.9491L266.637 15.9527L266.921 15.856ZM264.311 11.187L264.535 10.9871L264.535 10.9871L264.311 11.187ZM260.135 8.258L260.02 8.53492L260.021 8.5354L260.135 8.258ZM249.086 8.258L248.972 7.98059L248.972 7.98059L249.086 8.258ZM244.881 11.187L244.659 10.9852L244.658 10.9871L244.881 11.187ZM242.242 15.856L242.526 15.9527L242.527 15.9518L242.242 15.856ZM242.242 28.239L241.958 28.3348L241.958 28.3357L242.242 28.239ZM244.881 32.879L244.658 33.079L244.661 33.0825L244.881 32.879ZM249.086 35.779L248.972 36.0564L248.972 36.0564L249.086 35.779ZM260.135 35.779L260.021 35.5016L260.02 35.5021L260.135 35.779ZM264.311 32.879L264.534 33.0806L264.535 33.0789L264.311 32.879ZM266.921 28.239L266.637 28.1432L266.637 28.145L266.921 28.239ZM275.553 22.033C275.553 25.0731 275.047 27.8874 274.037 30.4791L274.596 30.6969C275.635 28.0299 276.153 25.1409 276.153 22.033H275.553ZM274.037 30.4784C273.026 33.0533 271.607 35.2811 269.78 37.1652L270.211 37.5828C272.096 35.6389 273.557 33.3427 274.596 30.6976L274.037 30.4784ZM269.78 37.1652C267.954 39.0481 265.756 40.5239 263.182 41.5919L263.411 42.1461C266.057 41.0487 268.325 39.5279 270.211 37.5828L269.78 37.1652ZM263.183 41.5912C260.613 42.6381 257.762 43.164 254.625 43.164V43.764C257.83 43.764 260.76 43.2265 263.41 42.1468L263.183 41.5912ZM254.625 43.164C251.489 43.164 248.628 42.6382 246.038 41.5909L245.813 42.1471C248.482 43.2265 251.421 43.764 254.625 43.764V43.164ZM246.04 41.5919C243.466 40.5238 241.257 39.0476 239.412 37.164L238.983 37.584C240.888 39.5284 243.165 41.0488 245.811 42.1461L246.04 41.5919ZM239.413 37.1652C237.586 35.2811 236.167 33.0533 235.156 30.4784L234.597 30.6976C235.636 33.3427 237.097 35.6389 238.982 37.5828L239.413 37.1652ZM235.156 30.4791C234.146 27.8874 233.639 25.0731 233.639 22.033H233.039C233.039 25.1409 233.558 28.0299 234.597 30.6969L235.156 30.4791ZM233.639 22.033C233.639 18.9929 234.146 16.1885 235.156 13.6166L234.597 13.3974C233.558 16.0455 233.039 18.9251 233.039 22.033H233.639ZM235.156 13.6159C236.167 11.0216 237.586 8.78449 239.413 6.90084L238.982 6.48315C237.097 8.42751 235.635 10.7337 234.597 13.3981L235.156 13.6159ZM239.412 6.90195C241.257 5.01876 243.465 3.5525 246.039 2.50383L245.812 1.94817C243.166 3.02616 240.889 4.53724 238.983 6.48204L239.412 6.90195ZM246.04 2.5034C248.629 1.43728 251.489 0.902 254.625 0.902V0.302C251.42 0.302 248.481 0.849385 245.811 1.9486L246.04 2.5034ZM254.625 0.902C257.762 0.902 260.612 1.43729 263.182 2.5031L263.411 1.94889C260.761 0.849374 257.831 0.302 254.625 0.302V0.902ZM263.182 2.5031C265.756 3.57105 267.954 5.04694 269.78 6.92984L270.211 6.51215C268.325 4.56706 266.057 3.04628 263.411 1.94889L263.182 2.5031ZM269.781 6.93093C271.607 8.79486 273.026 11.0219 274.037 13.6159L274.596 13.3981C273.558 10.7335 272.096 8.43647 270.21 6.51106L269.781 6.93093ZM274.037 13.6166C275.047 16.1885 275.553 18.9929 275.553 22.033H276.153C276.153 18.9251 275.635 16.0455 274.596 13.3974L274.037 13.6166ZM268.149 22.033C268.149 19.7058 267.837 17.6133 267.205 15.7593L266.637 15.9527C267.244 17.7334 267.549 19.7589 267.549 22.033H268.149ZM267.207 15.7629C266.596 13.8919 265.707 12.2978 264.535 10.9871L264.088 11.3869C265.197 12.6282 266.048 14.1468 266.636 15.9491L267.207 15.7629ZM264.535 10.9871C263.363 9.676 261.933 8.67381 260.25 7.98059L260.021 8.5354C261.624 9.19551 262.978 10.146 264.088 11.3869L264.535 10.9871ZM260.251 7.98107C258.585 7.28688 256.708 6.943 254.625 6.943V7.543C256.642 7.543 258.438 7.87579 260.02 8.53492L260.251 7.98107ZM254.625 6.943C252.543 6.943 250.657 7.2869 248.972 7.98059L249.201 8.5354C250.803 7.87576 252.609 7.543 254.625 7.543V6.943ZM248.972 7.98059C247.289 8.67364 245.85 9.67531 244.66 10.9852L245.103 11.3888C246.233 10.1467 247.597 9.19569 249.201 8.5354L248.972 7.98059ZM244.658 10.9871C243.487 12.2971 242.588 13.8902 241.958 15.7602L242.527 15.9518C243.134 14.1485 243.995 12.6289 245.105 11.3869L244.658 10.9871ZM241.958 15.7593C241.327 17.6133 241.014 19.7058 241.014 22.033H241.614C241.614 19.7589 241.92 17.7334 242.526 15.9527L241.958 15.7593ZM241.014 22.033C241.014 24.3603 241.327 26.4621 241.958 28.3348L242.527 28.1432C241.92 26.3426 241.614 24.307 241.614 22.033H241.014ZM241.958 28.3357C242.589 30.1865 243.487 31.7695 244.658 33.0789L245.105 32.6791C243.994 31.4365 243.134 29.9262 242.526 28.1423L241.958 28.3357ZM244.661 33.0825C245.852 34.3725 247.29 35.3638 248.972 36.0564L249.201 35.5016C247.596 34.8409 246.231 33.8988 245.102 32.6755L244.661 33.0825ZM248.972 36.0564C250.657 36.7501 252.543 37.094 254.625 37.094V36.494C252.609 36.494 250.803 36.1612 249.201 35.5016L248.972 36.0564ZM254.625 37.094C256.708 37.094 258.585 36.7501 260.251 36.0559L260.02 35.5021C258.438 36.1612 256.642 36.494 254.625 36.494V37.094ZM260.25 36.0564C261.932 35.3636 263.362 34.3718 264.534 33.0806L264.089 32.6774C262.98 33.8995 261.625 34.8411 260.021 35.5016L260.25 36.0564ZM264.535 33.0789C265.706 31.7688 266.596 30.1848 267.206 28.333L266.637 28.145C266.049 29.9278 265.198 31.4372 264.088 32.6791L264.535 33.0789ZM267.206 28.3348C267.837 26.4621 268.149 24.3603 268.149 22.033H267.549C267.549 24.307 267.244 26.3426 266.637 28.1432L267.206 28.3348ZM302.928 35.953L302.812 35.6763L302.811 35.677L302.928 35.953ZM305.944 33.836L305.723 33.6335L305.72 33.6361L305.944 33.836ZM307.829 30.53L307.545 30.4326L307.544 30.4364L307.829 30.53ZM308.496 1.066V0.765997H308.196V1.066H308.496ZM316.297 1.066H316.597V0.765997H316.297V1.066ZM315.079 33.111L314.799 33.004L314.798 33.0054L315.079 33.111ZM311.628 38.592L311.842 38.8028L311.843 38.8014L311.628 38.592ZM306.147 42.188L306.258 42.4669L306.26 42.466L306.147 42.188ZM291.647 42.188L291.534 42.466L291.537 42.4669L291.647 42.188ZM286.166 38.592L285.95 38.8001L285.953 38.8028L286.166 38.592ZM282.715 33.111L282.434 33.2158L282.435 33.2189L282.715 33.111ZM281.526 1.066V0.765997H281.226V1.066H281.526ZM289.327 1.066H289.627V0.765997H289.327V1.066ZM289.965 30.501L289.68 30.5946L289.681 30.5984L289.965 30.501ZM291.85 33.836L291.624 34.0336L291.626 34.0359L291.85 33.836ZM294.837 35.953L294.72 36.229L294.721 36.2297L294.837 35.953ZM298.897 37.007C300.439 37.007 301.823 36.75 303.046 36.229L302.811 35.677C301.674 36.1613 300.372 36.407 298.897 36.407V37.007ZM303.044 36.2297C304.281 35.7109 305.324 34.98 306.168 34.0359L305.72 33.6361C304.94 34.5093 303.972 35.1898 302.812 35.6763L303.044 36.2297ZM306.166 34.0385C307.028 33.0952 307.677 31.955 308.114 30.6236L307.544 30.4364C307.131 31.6957 306.523 32.7594 305.723 33.6335L306.166 34.0385ZM308.113 30.6274C308.57 29.2959 308.796 27.8122 308.796 26.18H308.196C308.196 27.7571 307.978 29.1735 307.545 30.4326L308.113 30.6274ZM308.796 26.18V1.066H308.196V26.18H308.796ZM308.496 1.366H316.297V0.765997H308.496V1.366ZM315.997 1.066V26.18H316.597V1.066H315.997ZM315.997 26.18C315.997 28.6409 315.597 30.9146 314.799 33.004L315.359 33.218C316.186 31.0541 316.597 28.7071 316.597 26.18H315.997ZM314.798 33.0054C314.02 35.0756 312.891 36.8668 311.413 38.3826L311.843 38.8014C313.381 37.2238 314.553 35.3611 315.36 33.2166L314.798 33.0054ZM311.415 38.3812C309.938 39.8773 308.146 41.0541 306.034 41.91L306.26 42.466C308.441 41.5819 310.303 40.3614 311.842 38.8028L311.415 38.3812ZM306.037 41.9091C303.931 42.7437 301.553 43.164 298.897 43.164V43.764C301.616 43.764 304.071 43.3336 306.258 42.4669L306.037 41.9091ZM298.897 43.164C296.242 43.164 293.863 42.7437 291.758 41.9091L291.537 42.4669C293.723 43.3336 296.178 43.764 298.897 43.764V43.164ZM291.76 41.91C289.649 41.0541 287.857 39.8773 286.38 38.3812L285.953 38.8028C287.492 40.3614 289.354 41.5819 291.534 42.466L291.76 41.91ZM286.382 38.384C284.923 36.8676 283.793 35.0751 282.995 33.0031L282.435 33.2189C283.261 35.3615 284.432 37.2231 285.95 38.8L286.382 38.384ZM282.996 33.0062C282.217 30.9162 281.826 28.6418 281.826 26.18H281.226C281.226 28.7062 281.628 31.0524 282.434 33.2158L282.996 33.0062ZM281.826 26.18V1.066H281.226V26.18H281.826ZM281.526 1.366H289.327V0.765997H281.526V1.366ZM289.027 1.066V26.151H289.627V1.066H289.027ZM289.027 26.151C289.027 27.782 289.243 29.2642 289.68 30.5946L290.25 30.4074C289.836 29.1471 289.627 27.7294 289.627 26.151H289.027ZM289.681 30.5984C290.137 31.9265 290.784 33.0732 291.624 34.0336L292.076 33.6384C291.292 32.7428 290.682 31.6662 290.249 30.4036L289.681 30.5984ZM291.626 34.0359C292.469 34.9791 293.502 35.71 294.72 36.229L294.955 35.677C293.814 35.1907 292.855 34.5102 292.074 33.6361L291.626 34.0359ZM294.721 36.2297C295.962 36.75 297.356 37.007 298.897 37.007V36.407C297.423 36.407 296.11 36.1613 294.953 35.6763L294.721 36.2297ZM329.175 1.124L329.126 1.41991L329.138 1.42194L329.151 1.42296L329.175 1.124ZM329.784 1.298L329.639 1.56024L329.655 1.56948L329.673 1.57654L329.784 1.298ZM330.335 1.675L330.123 1.88713L330.13 1.89336L330.136 1.89922L330.335 1.675ZM330.915 2.313L331.151 2.12777L331.151 2.12765L330.915 2.313ZM352.926 30.356L352.69 30.5412L353.345 31.375L353.224 30.3219L352.926 30.356ZM352.752 28.384L352.452 28.3928L352.453 28.4021L352.752 28.384ZM352.723 1.066V0.765997H352.423V1.066H352.723ZM359.596 1.066H359.896V0.765997H359.596V1.066ZM359.596 43V43.3H359.896V43H359.596ZM352.839 41.666L353.077 41.4831L353.075 41.4808L352.839 41.666ZM330.915 13.739L331.151 13.5537L330.522 12.7514L330.617 13.767L330.915 13.739ZM331.031 15.595L330.731 15.6044L330.732 15.6143L331.031 15.595ZM331.089 43V43.3H331.389V43H331.089ZM324.216 43H323.916V43.3H324.216V43ZM324.216 1.066V0.765997H323.916V1.066H324.216ZM328.305 1.366C328.644 1.366 328.916 1.38492 329.126 1.41991L329.225 0.828078C328.971 0.785741 328.663 0.765997 328.305 0.765997V1.366ZM329.151 1.42296C329.347 1.43935 329.508 1.48746 329.639 1.56024L329.93 1.03575C329.713 0.915206 329.468 0.847307 329.2 0.825033L329.151 1.42296ZM329.673 1.57654C329.822 1.6363 329.973 1.73672 330.123 1.88713L330.548 1.46287C330.35 1.26528 330.133 1.11436 329.896 1.01946L329.673 1.57654ZM330.136 1.89922C330.292 2.03788 330.473 2.23573 330.68 2.49834L331.151 2.12765C330.932 1.84894 330.727 1.62144 330.535 1.45078L330.136 1.89922ZM330.679 2.49822L352.69 30.5412L353.162 30.1708L331.151 2.12777L330.679 2.49822ZM353.224 30.3219C353.148 29.6502 353.09 28.9982 353.052 28.3659L352.453 28.4021C352.492 29.0458 352.55 29.7084 352.628 30.3901L353.224 30.3219ZM353.052 28.3752C353.033 27.7203 353.023 27.1143 353.023 26.557H352.423C352.423 27.1211 352.433 27.733 352.453 28.3928L353.052 28.3752ZM353.023 26.557V1.066H352.423V26.557H353.023ZM352.723 1.366H359.596V0.765997H352.723V1.366ZM359.296 1.066V43H359.896V1.066H359.296ZM359.596 42.7H355.565V43.3H359.596V42.7ZM355.565 42.7C354.976 42.7 354.511 42.6075 354.157 42.4391L353.899 42.9809C354.358 43.1992 354.918 43.3 355.565 43.3V42.7ZM354.157 42.4391C353.808 42.2727 353.446 41.9627 353.077 41.4831L352.602 41.8489C353.006 42.3746 353.437 42.7606 353.899 42.9809L354.157 42.4391ZM353.075 41.4808L331.151 13.5537L330.679 13.9242L352.603 41.8512L353.075 41.4808ZM330.617 13.767C330.674 14.3795 330.712 14.9919 330.732 15.6044L331.331 15.5856C331.312 14.9607 331.273 14.3358 331.214 13.711L330.617 13.767ZM330.732 15.6143C330.77 16.2084 330.789 16.7529 330.789 17.248H331.389C331.389 16.7378 331.37 16.1803 331.331 15.5757L330.732 15.6143ZM330.789 17.248V43H331.389V17.248H330.789ZM331.089 42.7H324.216V43.3H331.089V42.7ZM324.516 43V1.066H323.916V43H324.516ZM324.216 1.366H328.305V0.765997H324.216V1.366ZM403.755 30.501L403.477 30.3899L403.477 30.3899L403.755 30.501ZM399.434 37.142L399.222 36.9299L399.222 36.9299L399.434 37.142ZM392.735 41.463L392.626 41.1837L392.626 41.1837L392.735 41.463ZM368.056 43H367.756V43.3H368.056V43ZM368.056 1.066V0.765997H367.756V1.066H368.056ZM392.735 2.632L392.624 2.91055L392.626 2.91125L392.735 2.632ZM399.434 6.953L399.222 7.16513L399.223 7.16624L399.434 6.953ZM403.755 13.565L404.034 13.4539L404.034 13.4539L403.755 13.565ZM396.389 15.856L396.105 15.9518L396.105 15.9527L396.389 15.856ZM393.75 11.216L393.527 11.4159L393.528 11.4176L393.75 11.216ZM389.574 8.287L389.459 8.56392L389.46 8.5644L389.574 8.287ZM375.915 7.272V6.972H375.615V7.272H375.915ZM375.915 36.794H375.615V37.094H375.915V36.794ZM389.574 35.779L389.46 35.5016L389.459 35.5021L389.574 35.779ZM393.75 32.879L393.972 33.0806L393.974 33.0789L393.75 32.879ZM396.389 28.239L396.673 28.3357L396.674 28.3348L396.389 28.239ZM404.992 22.033C404.992 25.0732 404.486 27.8576 403.477 30.3899L404.034 30.6121C405.074 28.0017 405.592 25.1408 405.592 22.033H404.992ZM403.477 30.3899C402.466 32.9255 401.048 35.1042 399.222 36.9299L399.646 37.3541C401.533 35.4678 402.995 33.2192 404.034 30.6121L403.477 30.3899ZM399.222 36.9299C397.397 38.7547 395.2 40.1731 392.626 41.1837L392.845 41.7423C395.491 40.7035 397.759 39.2413 399.646 37.3541L399.222 36.9299ZM392.626 41.1837C390.055 42.193 387.202 42.7 384.064 42.7V43.3C387.268 43.3 390.196 42.7823 392.845 41.7423L392.626 41.1837ZM384.064 42.7H368.056V43.3H384.064V42.7ZM368.356 43V1.066H367.756V43H368.356ZM368.056 1.366H384.064V0.765997H368.056V1.366ZM384.064 1.366C387.202 1.366 390.054 1.88241 392.624 2.91054L392.847 2.35345C390.197 1.29358 387.268 0.765997 384.064 0.765997V1.366ZM392.626 2.91125C395.2 3.92188 397.397 5.34027 399.222 7.16513L399.646 6.74087C397.759 4.85372 395.491 3.39145 392.845 2.35275L392.626 2.91125ZM399.223 7.16624C401.048 8.97214 402.466 11.1407 403.477 13.6761L404.034 13.4539C402.995 10.8466 401.532 8.60719 399.645 6.73976L399.223 7.16624ZM403.477 13.6761C404.486 16.2084 404.992 18.9928 404.992 22.033H405.592C405.592 18.9252 405.074 16.0643 404.034 13.4539L403.477 13.6761ZM397.617 22.033C397.617 19.7058 397.304 17.6133 396.673 15.7593L396.105 15.9527C396.711 17.7334 397.017 19.7589 397.017 22.033H397.617ZM396.674 15.7602C396.044 13.8899 395.145 12.3057 393.972 11.0144L393.528 11.4176C394.637 12.6396 395.498 14.1488 396.105 15.9518L396.674 15.7602ZM393.974 11.0161C392.802 9.705 391.372 8.70282 389.688 8.0096L389.46 8.5644C391.063 9.22451 392.417 10.175 393.527 11.4159L393.974 11.0161ZM389.69 8.01008C388.024 7.31588 386.147 6.972 384.064 6.972V7.572C386.08 7.572 387.877 7.90479 389.459 8.56392L389.69 8.01008ZM384.064 6.972H375.915V7.572H384.064V6.972ZM375.615 7.272V36.794H376.215V7.272H375.615ZM375.915 37.094H384.064V36.494H375.915V37.094ZM384.064 37.094C386.147 37.094 388.024 36.7501 389.69 36.0559L389.459 35.5021C387.877 36.1612 386.08 36.494 384.064 36.494V37.094ZM389.688 36.0564C391.371 35.3636 392.8 34.3718 393.972 33.0806L393.528 32.6774C392.419 33.8995 391.064 34.8411 389.46 35.5016L389.688 36.0564ZM393.974 33.0789C395.145 31.7695 396.043 30.1865 396.673 28.3357L396.105 28.1423C395.498 29.9262 394.637 31.4365 393.527 32.6791L393.974 33.0789ZM396.674 28.3348C397.304 26.4621 397.617 24.3603 397.617 22.033H397.017C397.017 24.307 396.711 26.3426 396.105 28.1432L396.674 28.3348Z" fill="#DFDFDF"/>
</svg>
