<svg width="517" height="44" viewBox="0 0 517 44" fill="none" xmlns="http://www.w3.org/2000/svg">
<path d="M0.988883 43H0.688883V43.3H0.988883V43ZM0.988883 1.066V0.765997H0.688883V1.066H0.988883ZM22.4779 1.849L22.3997 2.13863L22.4004 2.13882L22.4779 1.849ZM27.2629 4.082L27.0782 4.31841L27.08 4.31979L27.2629 4.082ZM30.4529 15.073L30.7381 15.166L30.7387 15.1642L30.4529 15.073ZM29.0899 17.596L28.8534 17.4114L28.8528 17.4122L29.0899 17.596ZM26.7699 19.713L26.6023 19.4642L26.5999 19.4658L26.7699 19.713ZM23.4349 21.337L23.3375 21.0533L22.3353 21.3973L23.3691 21.6297L23.4349 21.337ZM31.0619 35.605L31.3356 35.7278L31.3356 35.7278L31.0619 35.605ZM28.1039 39.52L28.2963 39.7502L28.2983 39.7485L28.1039 39.52ZM23.3189 42.072L23.412 42.3572L23.412 42.3572L23.3189 42.072ZM8.78988 24.614V24.314H8.48988V24.614H8.78988ZM8.78988 36.91H8.48988V37.21H8.78988V36.91ZM20.3319 36.388L20.232 36.1051L20.2303 36.1057L20.3319 36.388ZM22.6809 34.996L22.4722 34.7804L22.4688 34.7839L22.6809 34.996ZM23.9569 32.966L23.6737 32.8669L23.6716 32.8733L23.9569 32.966ZM23.9279 28.065L23.6488 28.1752L23.6499 28.1777L23.9279 28.065ZM22.5649 26.209L22.3714 26.4383L22.3757 26.4418L22.5649 26.209ZM8.78988 19.22H8.48988V19.52H8.78988V19.22ZM21.0569 17.77L20.8842 17.5247L20.8842 17.5247L21.0569 17.77ZM8.78988 7.098V6.798H8.48988V7.098H8.78988ZM1.28888 43V1.066H0.688883V43H1.28888ZM0.988883 1.366H15.4599V0.765997H0.988883V1.366ZM15.4599 1.366C18.1878 1.366 20.4993 1.62552 22.3997 2.13863L22.5561 1.55937C20.5898 1.02847 18.2226 0.765997 15.4599 0.765997V1.366ZM22.4004 2.13882C24.3248 2.65327 25.8804 3.3826 27.0782 4.31841L27.4476 3.84559C26.1707 2.84807 24.5363 2.08873 22.5554 1.55918L22.4004 2.13882ZM27.08 4.31979C28.2983 5.25695 29.183 6.38589 29.7415 7.70776L30.2942 7.47423C29.6928 6.05077 28.7408 4.84038 27.4458 3.84421L27.08 4.31979ZM29.7415 7.70776C30.3037 9.03821 30.5879 10.5443 30.5879 12.231H31.1879C31.1879 10.4764 30.8921 8.88912 30.2942 7.47423L29.7415 7.70776ZM30.5879 12.231C30.5879 13.1871 30.4474 14.1036 30.1671 14.9818L30.7387 15.1642C31.0384 14.2251 31.1879 13.2469 31.1879 12.231H30.5879ZM30.1677 14.98C29.8893 15.8338 29.4522 16.6441 28.8534 17.4114L29.3264 17.7806C29.9649 16.9625 30.4365 16.0909 30.7381 15.166L30.1677 14.98ZM28.8528 17.4122C28.276 18.1565 27.5275 18.8411 26.6023 19.4642L26.9375 19.9618C27.907 19.3089 28.7051 18.5822 29.327 17.7798L28.8528 17.4122ZM26.5999 19.4658C25.6986 20.0855 24.6124 20.6156 23.3375 21.0533L23.5323 21.6207C24.848 21.1691 25.9852 20.6165 26.9398 19.9602L26.5999 19.4658ZM23.3691 21.6297C26.213 22.2691 28.3104 23.3494 29.6962 24.8468C31.077 26.3387 31.7769 28.2724 31.7769 30.675H32.3769C32.3769 28.1476 31.6365 26.0599 30.1366 24.4392C28.6417 22.8239 26.4181 21.7002 23.5007 21.0443L23.3691 21.6297ZM31.7769 30.675C31.7769 32.4146 31.4462 34.0157 30.7882 35.4822L31.3356 35.7278C32.0309 34.1783 32.3769 32.4927 32.3769 30.675H31.7769ZM30.7882 35.4822C30.1303 36.9483 29.1719 38.2175 27.9095 39.2915L28.2983 39.7485C29.6266 38.6185 30.6401 37.2777 31.3356 35.7278L30.7882 35.4822ZM27.9115 39.2898C26.6502 40.344 25.0906 41.1779 23.2258 41.7868L23.412 42.3572C25.3365 41.7288 26.9669 40.8613 28.2963 39.7502L27.9115 39.2898ZM23.2258 41.7868C21.367 42.3938 19.234 42.7 16.8229 42.7V43.3C19.2837 43.3 21.4815 42.9876 23.412 42.3572L23.2258 41.7868ZM16.8229 42.7H0.988883V43.3H16.8229V42.7ZM8.48988 24.614V36.91H9.08988V24.614H8.48988ZM8.78988 37.21H16.7069V36.61H8.78988V37.21ZM16.7069 37.21C18.1784 37.21 19.4238 37.0337 20.4335 36.6703L20.2303 36.1057C19.3066 36.4383 18.1354 36.61 16.7069 36.61V37.21ZM20.4317 36.6709C21.4487 36.312 22.2739 35.8273 22.893 35.2081L22.4688 34.7839C21.9279 35.3247 21.187 35.768 20.232 36.1051L20.4317 36.6709ZM22.8895 35.2116C23.5231 34.5984 23.9753 33.8799 24.2422 33.0587L23.6716 32.8733C23.4358 33.5988 23.0373 34.2336 22.4723 34.7804L22.8895 35.2116ZM24.24 33.0651C24.5225 32.258 24.6629 31.4026 24.6629 30.501H24.0629C24.0629 31.3394 23.9326 32.1273 23.6737 32.8669L24.24 33.0651ZM24.6629 30.501C24.6629 29.5604 24.5128 28.7092 24.2059 27.9523L23.6499 28.1777C23.923 28.8515 24.0629 29.6242 24.0629 30.501H24.6629ZM24.2069 27.9548C23.8978 27.1718 23.4123 26.511 22.7541 25.9762L22.3757 26.4418C22.9548 26.9123 23.3779 27.4889 23.6488 28.1751L24.2069 27.9548ZM22.7583 25.9797C22.1 25.4242 21.2661 25.0107 20.2678 24.7311L20.106 25.3089C21.041 25.5707 21.7925 25.9498 22.3714 26.4383L22.7583 25.9797ZM20.2678 24.7311C19.2671 24.4509 18.0686 24.314 16.6779 24.314V24.914C18.0325 24.914 19.1733 25.0477 20.106 25.3089L20.2678 24.7311ZM16.6779 24.314H8.78988V24.914H16.6779V24.314ZM8.78988 19.52H15.0249V18.92H8.78988V19.52ZM15.0249 19.52C17.7024 19.52 19.7848 19.0327 21.2296 18.0153L20.8842 17.5247C19.5836 18.4406 17.6447 18.92 15.0249 18.92V19.52ZM21.2296 18.0153C22.7025 16.9781 23.4159 15.336 23.4159 13.159H22.8159C22.8159 15.1966 22.1566 16.6286 20.8842 17.5247L21.2296 18.0153ZM23.4159 13.159C23.4159 10.9212 22.7806 9.25556 21.4399 8.25L21.0799 8.73C22.2138 9.58044 22.8159 11.0274 22.8159 13.159H23.4159ZM21.4399 8.25C20.1253 7.26409 18.1131 6.798 15.4599 6.798V7.398C18.0653 7.398 19.9198 7.85991 21.0799 8.73L21.4399 8.25ZM15.4599 6.798H8.78988V7.398H15.4599V6.798ZM8.48988 7.098V19.22H9.08988V7.098H8.48988ZM46.5692 36.562H46.2692V36.862H46.5692V36.562ZM63.3602 36.562H63.6602V36.262H63.3602V36.562ZM63.3602 43V43.3H63.6602V43H63.3602ZM38.7682 43H38.4682V43.3H38.7682V43ZM38.7682 1.066V0.765997H38.4682V1.066H38.7682ZM46.5692 1.066H46.8692V0.765997H46.5692V1.066ZM46.5692 36.862H63.3602V36.262H46.5692V36.862ZM63.0602 36.562V43H63.6602V36.562H63.0602ZM63.3602 42.7H38.7682V43.3H63.3602V42.7ZM39.0682 43V1.066H38.4682V43H39.0682ZM38.7682 1.366H46.5692V0.765997H38.7682V1.366ZM46.2692 1.066V36.562H46.8692V1.066H46.2692ZM105.095 30.588L105.374 30.6976L105.374 30.6969L105.095 30.588ZM100.774 37.374L100.989 37.5828L100.989 37.5828L100.774 37.374ZM94.0748 41.869L94.188 42.1468L94.1898 42.1461L94.0748 41.869ZM76.7038 41.869L76.5889 42.1461L76.5913 42.1471L76.7038 41.869ZM69.9758 37.374L69.7604 37.5828L69.7615 37.584L69.9758 37.374ZM65.6548 30.588L65.3753 30.6969L65.3756 30.6976L65.6548 30.588ZM65.6548 13.507L65.9341 13.6166L65.9343 13.6159L65.6548 13.507ZM69.9758 6.692L69.7615 6.48204L69.7604 6.48315L69.9758 6.692ZM76.7038 2.226L76.817 2.50383L76.818 2.5034L76.7038 2.226ZM100.774 6.721L100.558 6.92985L100.559 6.93093L100.774 6.721ZM105.095 13.507L104.815 13.6159L104.816 13.6166L105.095 13.507ZM97.6998 15.856L97.4146 15.9491L97.4158 15.9527L97.6998 15.856ZM95.0898 11.187L95.3135 10.9871L95.3135 10.9871L95.0898 11.187ZM90.9138 8.258L90.7984 8.53492L90.7996 8.5354L90.9138 8.258ZM79.8648 8.258L79.7506 7.98059L79.7506 7.98059L79.8648 8.258ZM75.6598 11.187L75.4378 10.9852L75.4361 10.9871L75.6598 11.187ZM73.0208 15.856L73.3048 15.9527L73.3051 15.9518L73.0208 15.856ZM73.0208 28.239L72.7365 28.3348L72.7368 28.3357L73.0208 28.239ZM75.6598 32.879L75.4361 33.079L75.4394 33.0825L75.6598 32.879ZM79.8648 35.779L79.7506 36.0564L79.7506 36.0564L79.8648 35.779ZM90.9138 35.779L90.7996 35.5016L90.7984 35.5021L90.9138 35.779ZM95.0898 32.879L95.312 33.0806L95.3135 33.0789L95.0898 32.879ZM97.6998 28.239L97.4155 28.1432L97.4149 28.145L97.6998 28.239ZM106.332 22.033C106.332 25.0731 105.825 27.8874 104.815 30.4791L105.374 30.6969C106.414 28.0299 106.932 25.1409 106.932 22.033H106.332ZM104.816 30.4784C103.805 33.0533 102.385 35.2811 100.558 37.1652L100.989 37.5828C102.874 35.6389 104.336 33.3427 105.374 30.6976L104.816 30.4784ZM100.558 37.1652C98.7326 39.0481 96.5344 40.5239 93.9599 41.5919L94.1898 42.1461C96.8352 41.0487 99.103 39.5279 100.989 37.5828L100.558 37.1652ZM93.9616 41.5912C91.3918 42.6381 88.5405 43.164 85.4038 43.164V43.764C88.6084 43.764 91.5378 43.2265 94.188 42.1468L93.9616 41.5912ZM85.4038 43.164C82.2672 43.164 79.4059 42.6382 76.8163 41.5909L76.5913 42.1471C79.2604 43.2265 82.1991 43.764 85.4038 43.764V43.164ZM76.8188 41.5919C74.244 40.5238 72.0356 39.0476 70.1901 37.164L69.7615 37.584C71.6666 39.5284 73.9436 41.0488 76.5889 42.1461L76.8188 41.5919ZM70.1912 37.1652C68.3642 35.2811 66.945 33.0533 65.9341 30.4784L65.3756 30.6976C66.414 33.3427 67.8754 35.6389 69.7604 37.5828L70.1912 37.1652ZM65.9343 30.4791C64.9244 27.8874 64.4178 25.0731 64.4178 22.033H63.8178C63.8178 25.1409 64.3359 28.0299 65.3753 30.6969L65.9343 30.4791ZM64.4178 22.033C64.4178 18.9929 64.9244 16.1885 65.9341 13.6166L65.3756 13.3974C64.3359 16.0455 63.8178 18.9251 63.8178 22.033H64.4178ZM65.9343 13.6159C66.9453 11.0216 68.3646 8.78449 70.1912 6.90084L69.7604 6.48315C67.875 8.42751 66.4136 10.7337 65.3753 13.3981L65.9343 13.6159ZM70.1901 6.90195C72.0352 5.01876 74.243 3.5525 76.817 2.50383L76.5906 1.94817C73.9446 3.02616 71.667 4.53724 69.7615 6.48204L70.1901 6.90195ZM76.818 2.5034C79.4072 1.43728 82.2678 0.902 85.4038 0.902V0.302C82.1985 0.302 79.2591 0.849385 76.5896 1.9486L76.818 2.5034ZM85.4038 0.902C88.5398 0.902 91.3905 1.43729 93.9599 2.5031L94.1898 1.94889C91.5391 0.849374 88.6091 0.302 85.4038 0.302V0.902ZM93.9599 2.5031C96.5344 3.57105 98.7326 5.04694 100.558 6.92984L100.989 6.51215C99.103 4.56706 96.8352 3.04628 94.1898 1.94889L93.9599 2.5031ZM100.559 6.93093C102.385 8.79486 103.804 11.0219 104.815 13.6159L105.374 13.3981C104.336 10.7335 102.874 8.43647 100.988 6.51106L100.559 6.93093ZM104.816 13.6166C105.825 16.1885 106.332 18.9929 106.332 22.033H106.932C106.932 18.9251 106.414 16.0455 105.374 13.3974L104.816 13.6166ZM98.9278 22.033C98.9278 19.7058 98.6149 17.6133 97.9838 15.7593L97.4158 15.9527C98.022 17.7334 98.3278 19.7589 98.3278 22.033H98.9278ZM97.985 15.7629C97.3744 13.8919 96.4852 12.2978 95.3135 10.9871L94.8661 11.3869C95.9758 12.6282 96.8265 14.1468 97.4146 15.9491L97.985 15.7629ZM95.3135 10.9871C94.1415 9.676 92.7116 8.67381 91.028 7.98059L90.7996 8.5354C92.4027 9.19551 93.7568 10.146 94.8661 11.3869L95.3135 10.9871ZM91.0292 7.98107C89.3631 7.28688 87.4863 6.943 85.4038 6.943V7.543C87.42 7.543 89.2165 7.87579 90.7984 8.53492L91.0292 7.98107ZM85.4038 6.943C83.3212 6.943 81.4353 7.2869 79.7506 7.98059L79.979 8.5354C81.581 7.87576 83.3877 7.543 85.4038 7.543V6.943ZM79.7506 7.98059C78.0675 8.67364 76.6286 9.67531 75.4378 10.9852L75.8818 11.3888C77.011 10.1467 78.3755 9.19569 79.979 8.5354L79.7506 7.98059ZM75.4361 10.9871C74.2651 12.2971 73.3664 13.8902 72.7365 15.7602L73.3051 15.9518C73.9125 14.1485 74.7732 12.6289 75.8835 11.3869L75.4361 10.9871ZM72.7368 15.7593C72.1057 17.6133 71.7928 19.7058 71.7928 22.033H72.3928C72.3928 19.7589 72.6986 17.7334 73.3048 15.9527L72.7368 15.7593ZM71.7928 22.033C71.7928 24.3603 72.1057 26.4621 72.7365 28.3348L73.3051 28.1432C72.6986 26.3426 72.3928 24.307 72.3928 22.033H71.7928ZM72.7368 28.3357C73.3669 30.1865 74.2656 31.7695 75.4361 33.0789L75.8835 32.6791C74.7727 31.4365 73.9121 29.9262 73.3048 28.1423L72.7368 28.3357ZM75.4394 33.0825C76.6301 34.3725 78.0685 35.3638 79.7506 36.0564L79.979 35.5016C78.3744 34.8409 77.0095 33.8988 75.8802 32.6755L75.4394 33.0825ZM79.7506 36.0564C81.4353 36.7501 83.3212 37.094 85.4038 37.094V36.494C83.3877 36.494 81.581 36.1612 79.979 35.5016L79.7506 36.0564ZM85.4038 37.094C87.4863 37.094 89.3631 36.7501 91.0292 36.0559L90.7984 35.5021C89.2165 36.1612 87.42 36.494 85.4038 36.494V37.094ZM91.028 36.0564C92.7105 35.3636 94.14 34.3718 95.3119 33.0806L94.8677 32.6774C93.7583 33.8995 92.4038 34.8411 90.7996 35.5016L91.028 36.0564ZM95.3135 33.0789C96.4847 31.7688 97.374 30.1848 97.9847 28.333L97.4149 28.145C96.827 29.9278 95.9763 31.4372 94.8661 32.6791L95.3135 33.0789ZM97.9841 28.3348C98.6149 26.4621 98.9278 24.3603 98.9278 22.033H98.3278C98.3278 24.307 98.022 26.3426 97.4155 28.1432L97.9841 28.3348ZM136.635 36.794L136.705 37.0858L136.708 37.085L136.635 36.794ZM140.376 35.46L140.505 35.7309L140.676 35.6496V35.46H140.376ZM140.376 27.833H140.676V27.533H140.376V27.833ZM133.938 27.427L133.726 27.6393L133.734 27.6463L133.938 27.427ZM133.503 21.975V21.675H133.203V21.975H133.503ZM147.452 21.975H147.752V21.675H147.452V21.975ZM147.452 38.94L147.629 39.1826L147.752 39.0928V38.94H147.452ZM144.117 40.97L144.25 41.2392L144.252 41.2383L144.117 40.97ZM140.434 42.362L140.354 42.0731L140.353 42.0734L140.434 42.362ZM136.258 43.174L136.224 42.876L136.22 42.8765L136.258 43.174ZM123.005 41.869L122.891 42.1462L122.891 42.1462L123.005 41.869ZM116.335 37.432L116.122 37.643L116.122 37.643L116.335 37.432ZM111.927 30.646L111.649 30.7567L111.649 30.7585L111.927 30.646ZM111.898 13.362L111.619 13.2531L111.619 13.2531L111.898 13.362ZM116.248 6.576L116.036 6.36386L116.035 6.36496L116.248 6.576ZM123.121 2.168L123.013 1.88836L123.013 1.88836L123.121 2.168ZM141.043 2.139L140.929 2.4165L140.932 2.41754L141.043 2.139ZM147.423 6.083L147.676 6.2446L147.811 6.03413L147.628 5.86368L147.423 6.083ZM145.161 9.621L144.909 9.45939L144.907 9.46262L145.161 9.621ZM141.971 10.23L142.133 9.97718L142.125 9.97204L141.971 10.23ZM140.057 9.128L139.908 9.38801L139.911 9.38988L140.057 9.128ZM137.911 8.171L137.812 8.45416L137.815 8.4549L137.911 8.171ZM135.272 7.504L135.219 7.79925L135.22 7.79943L135.272 7.504ZM126.282 8.287L126.168 8.00979L126.167 8.01027L126.282 8.287ZM122.019 11.274L121.798 11.072L121.798 11.072L122.019 11.274ZM119.293 15.943L119.01 15.8436L119.01 15.8436L119.293 15.943ZM119.351 28.5L119.069 28.6009L119.069 28.6018L119.351 28.5ZM122.193 33.256L121.975 33.4615L122.193 33.256ZM126.543 36.243L126.429 36.5202L126.432 36.5213L126.543 36.243ZM132.053 37.558C133.829 37.558 135.381 37.402 136.705 37.0858L136.566 36.5022C135.299 36.8047 133.796 36.958 132.053 36.958V37.558ZM136.708 37.085C138.041 36.7517 139.307 36.3005 140.505 35.7309L140.248 35.1891C139.087 35.7409 137.859 36.1789 136.563 36.503L136.708 37.085ZM140.676 35.46V27.833H140.076V35.46H140.676ZM140.376 27.533H135.127V28.133H140.376V27.533ZM135.127 27.533C134.68 27.533 134.364 27.4137 134.143 27.2077L133.734 27.6463C134.093 27.9816 134.57 28.133 135.127 28.133V27.533ZM134.151 27.2149C133.916 26.9805 133.803 26.7085 133.803 26.383H133.203C133.203 26.8695 133.381 27.2935 133.726 27.6391L134.151 27.2149ZM133.803 26.383V21.975H133.203V26.383H133.803ZM133.503 22.275H147.452V21.675H133.503V22.275ZM147.152 21.975V38.94H147.752V21.975H147.152ZM147.276 38.6974C146.226 39.4611 145.128 40.1292 143.983 40.7017L144.252 41.2383C145.427 40.6508 146.552 39.9655 147.629 39.1826L147.276 38.6974ZM143.985 40.7008C142.862 41.2527 141.652 41.7103 140.354 42.0731L140.515 42.6509C141.846 42.279 143.091 41.8086 144.25 41.2392L143.985 40.7008ZM140.353 42.0734C139.074 42.4359 137.698 42.7037 136.224 42.876L136.293 43.472C137.796 43.2963 139.204 43.0228 140.516 42.6506L140.353 42.0734ZM136.22 42.8765C134.746 43.0679 133.154 43.164 131.444 43.164V43.764C133.176 43.764 134.794 43.6667 136.297 43.4715L136.22 42.8765ZM131.444 43.164C128.425 43.164 125.652 42.6387 123.12 41.5918L122.891 42.1462C125.502 43.226 128.354 43.764 131.444 43.764V43.164ZM123.12 41.5918C120.584 40.543 118.395 39.086 116.549 37.221L116.122 37.643C118.027 39.5674 120.284 41.0683 122.891 42.1462L123.12 41.5918ZM116.549 37.221C114.703 35.3563 113.255 33.1284 112.206 30.5335L111.649 30.7585C112.727 33.4222 114.217 35.7184 116.122 37.643L116.549 37.221ZM112.206 30.5353C111.178 27.9446 110.661 25.1116 110.661 22.033H110.061C110.061 25.1798 110.589 28.0888 111.649 30.7567L112.206 30.5353ZM110.661 22.033C110.661 18.9146 111.168 16.0617 112.178 13.4709L111.619 13.2531C110.579 15.9209 110.061 18.8487 110.061 22.033H110.661ZM112.178 13.4709C113.189 10.8775 114.617 8.65087 116.462 6.78704L116.035 6.36496C114.129 8.29046 112.658 10.5878 111.619 13.2531L112.178 13.4709ZM116.461 6.78813C118.324 4.92509 120.579 3.47772 123.23 2.44764L123.013 1.88836C120.29 2.94627 117.963 4.43757 116.036 6.36387L116.461 6.78813ZM123.23 2.44764C125.878 1.41907 128.856 0.902 132.169 0.902V0.302C128.794 0.302 125.74 0.828931 123.013 1.88836L123.23 2.44764ZM132.169 0.902C135.562 0.902 138.48 1.4101 140.929 2.41649L141.157 1.86151C138.619 0.818566 135.62 0.302 132.169 0.302V0.902ZM140.932 2.41754C143.416 3.41095 145.509 4.7069 147.219 6.30232L147.628 5.86368C145.858 4.2111 143.698 2.87771 141.155 1.86046L140.932 2.41754ZM147.171 5.9214L144.909 9.4594L145.414 9.7826L147.676 6.2446L147.171 5.9214ZM144.907 9.46262C144.507 10.1051 144.007 10.394 143.392 10.394V10.994C144.248 10.994 144.926 10.5675 145.416 9.77938L144.907 9.46262ZM143.392 10.394C142.998 10.394 142.58 10.2631 142.133 9.97732L141.81 10.4827C142.33 10.8156 142.859 10.994 143.392 10.994V10.394ZM142.125 9.97204C141.504 9.60331 140.863 9.23467 140.204 8.86611L139.911 9.38988C140.566 9.75599 141.202 10.122 141.818 10.488L142.125 9.97204ZM140.207 8.86801C139.55 8.48981 138.817 8.16318 138.008 7.88709L137.815 8.4549C138.591 8.72015 139.289 9.03152 139.908 9.38798L140.207 8.86801ZM138.011 7.88784C137.219 7.6108 136.323 7.38479 135.325 7.20856L135.22 7.79943C136.194 7.97121 137.057 8.18987 137.812 8.45415L138.011 7.88784ZM135.326 7.20874C134.337 7.03081 133.197 6.943 131.908 6.943V7.543C133.172 7.543 134.274 7.62918 135.219 7.79925L135.326 7.20874ZM131.908 6.943C129.806 6.943 127.891 7.29683 126.168 8.00979L126.397 8.5642C128.038 7.88517 129.874 7.543 131.908 7.543V6.943ZM126.167 8.01027C124.465 8.72266 123.007 9.7434 121.798 11.072L122.241 11.476C123.39 10.2139 124.775 9.24334 126.398 8.56373L126.167 8.01027ZM121.798 11.072C120.589 12.3999 119.66 13.9921 119.01 15.8436L119.577 16.0424C120.203 14.2592 121.092 12.7387 122.241 11.476L121.798 11.072ZM119.01 15.8436C118.36 17.6977 118.036 19.7619 118.036 22.033H118.636C118.636 19.8187 118.951 17.823 119.577 16.0424L119.01 15.8436ZM118.036 22.033C118.036 24.4773 118.379 26.6681 119.069 28.6009L119.634 28.3991C118.971 26.5426 118.636 24.422 118.636 22.033H118.036ZM119.069 28.6018C119.758 30.511 120.726 32.1329 121.975 33.4615L122.412 33.0505C121.225 31.7884 120.298 30.2396 119.634 28.3982L119.069 28.6018ZM121.975 33.4615C123.223 34.7886 124.708 35.8083 126.429 36.5202L126.658 35.9658C125.015 35.2857 123.6 34.3141 122.412 33.0505L121.975 33.4615ZM126.432 36.5213C128.152 37.2137 130.028 37.558 132.053 37.558V36.958C130.097 36.958 128.299 36.6257 126.655 35.9647L126.432 36.5213ZM202.785 43V43.3H203.226L203.065 42.8903L202.785 43ZM195.071 42.507L194.881 42.7392L194.887 42.7439L194.893 42.7483L195.071 42.507ZM194.143 41.231L193.862 41.3341L193.863 41.3387L194.143 41.231ZM191.011 32.676L191.293 32.5729L191.221 32.376H191.011V32.676ZM173.64 32.676V32.376H173.431L173.359 32.5729L173.64 32.676ZM170.508 41.231L170.227 41.1279L170.225 41.1324L170.508 41.231ZM169.58 42.449L169.394 42.2137L169.389 42.2177L169.58 42.449ZM161.866 43L161.587 42.8903L161.426 43.3H161.866V43ZM178.338 1.066V0.765997H178.134L178.059 0.956313L178.338 1.066ZM186.313 1.066L186.593 0.956313L186.518 0.765997H186.313V1.066ZM175.641 27.166L175.36 27.0625L175.212 27.466H175.641V27.166ZM189.01 27.166V27.466H189.44L189.292 27.0629L189.01 27.166ZM183.906 13.217L184.188 13.1139L184.187 13.1117L183.906 13.217ZM183.123 11.042L182.837 11.133L182.84 11.1408L183.123 11.042ZM182.311 8.287L182.601 8.20758L182.311 7.15371L182.022 8.20758L182.311 8.287ZM181.499 11.042L181.213 10.951L181.212 10.957L181.499 11.042ZM180.745 13.275L180.466 13.165L180.464 13.1715L180.745 13.275ZM202.785 42.7H196.753V43.3H202.785V42.7ZM196.753 42.7C196.126 42.7 195.632 42.5484 195.25 42.2657L194.893 42.7483C195.4 43.123 196.027 43.3 196.753 43.3V42.7ZM195.261 42.2748C194.875 41.9591 194.598 41.5763 194.423 41.1233L193.863 41.3387C194.076 41.891 194.417 42.3589 194.881 42.7392L195.261 42.2748ZM194.425 41.1279L191.293 32.5729L190.73 32.7791L193.862 41.3341L194.425 41.1279ZM191.011 32.376H173.64V32.976H191.011V32.376ZM173.359 32.5729L170.227 41.1279L170.79 41.3341L173.922 32.7791L173.359 32.5729ZM170.225 41.1324C170.093 41.511 169.825 41.8728 169.394 42.2138L169.767 42.6842C170.264 42.2905 170.614 41.8404 170.792 41.3296L170.225 41.1324ZM169.389 42.2177C169.006 42.5345 168.525 42.7 167.927 42.7V43.3C168.644 43.3 169.266 43.0982 169.771 42.6803L169.389 42.2177ZM167.927 42.7H161.866V43.3H167.927V42.7ZM162.146 43.1097L178.618 1.17568L178.059 0.956313L161.587 42.8903L162.146 43.1097ZM178.338 1.366H186.313V0.765997H178.338V1.366ZM186.034 1.17568L202.506 43.1097L203.065 42.8903L186.593 0.956313L186.034 1.17568ZM175.641 27.466H189.01V26.866H175.641V27.466ZM189.292 27.0629L184.188 13.1139L183.625 13.3201L188.729 27.2691L189.292 27.0629ZM184.187 13.1117C183.956 12.4957 183.696 11.773 183.407 10.9432L182.84 11.1408C183.131 11.9737 183.392 12.7009 183.625 13.3223L184.187 13.1117ZM183.409 10.951C183.14 10.1047 182.87 9.19026 182.601 8.20758L182.022 8.36641C182.294 9.35574 182.565 10.278 182.838 11.133L183.409 10.951ZM182.022 8.20758C181.752 9.19026 181.483 10.1047 181.214 10.951L181.785 11.133C182.057 10.278 182.329 9.35574 182.601 8.36641L182.022 8.20758ZM181.212 10.957C180.962 11.8015 180.714 12.5372 180.466 13.165L181.025 13.385C181.28 12.7368 181.534 11.9838 181.787 11.127L181.212 10.957ZM180.464 13.1715L175.36 27.0625L175.923 27.2695L181.027 13.3785L180.464 13.1715ZM212.063 1.124L212.014 1.41991L212.026 1.42194L212.038 1.42296L212.063 1.124ZM212.672 1.298L212.526 1.56024L212.543 1.56948L212.561 1.57654L212.672 1.298ZM213.223 1.675L213.011 1.88713L213.017 1.89336L213.024 1.89922L213.223 1.675ZM213.803 2.313L214.039 2.12777L214.039 2.12765L213.803 2.313ZM235.814 30.356L235.578 30.5412L236.233 31.375L236.112 30.3219L235.814 30.356ZM235.64 28.384L235.34 28.3928L235.341 28.4021L235.64 28.384ZM235.611 1.066V0.765997H235.311V1.066H235.611ZM242.484 1.066H242.784V0.765997H242.484V1.066ZM242.484 43V43.3H242.784V43H242.484ZM235.727 41.666L235.965 41.4831L235.963 41.4808L235.727 41.666ZM213.803 13.739L214.039 13.5537L213.409 12.7514L213.504 13.767L213.803 13.739ZM213.919 15.595L213.619 15.6044L213.62 15.6143L213.919 15.595ZM213.977 43V43.3H214.277V43H213.977ZM207.104 43H206.804V43.3H207.104V43ZM207.104 1.066V0.765997H206.804V1.066H207.104ZM211.193 1.366C211.532 1.366 211.804 1.38492 212.014 1.41991L212.112 0.828078C211.858 0.785741 211.551 0.765997 211.193 0.765997V1.366ZM212.038 1.42296C212.235 1.43935 212.395 1.48746 212.526 1.56024L212.818 1.03575C212.601 0.915206 212.355 0.847307 212.088 0.825033L212.038 1.42296ZM212.561 1.57654C212.71 1.6363 212.861 1.73672 213.011 1.88713L213.435 1.46287C213.238 1.26528 213.021 1.11436 212.784 1.01946L212.561 1.57654ZM213.024 1.89922C213.18 2.03788 213.361 2.23573 213.567 2.49834L214.039 2.12765C213.82 1.84894 213.614 1.62144 213.422 1.45078L213.024 1.89922ZM213.567 2.49822L235.578 30.5412L236.05 30.1708L214.039 2.12777L213.567 2.49822ZM236.112 30.3219C236.035 29.6502 235.978 28.9982 235.94 28.3659L235.341 28.4021C235.38 29.0458 235.438 29.7084 235.516 30.3901L236.112 30.3219ZM235.94 28.3752C235.921 27.7203 235.911 27.1143 235.911 26.557H235.311C235.311 27.1211 235.321 27.733 235.34 28.3928L235.94 28.3752ZM235.911 26.557V1.066H235.311V26.557H235.911ZM235.611 1.366H242.484V0.765997H235.611V1.366ZM242.184 1.066V43H242.784V1.066H242.184ZM242.484 42.7H238.453V43.3H242.484V42.7ZM238.453 42.7C237.863 42.7 237.399 42.6075 237.045 42.4391L236.787 42.9809C237.246 43.1992 237.806 43.3 238.453 43.3V42.7ZM237.045 42.4391C236.696 42.2727 236.334 41.9627 235.965 41.4831L235.489 41.8489C235.894 42.3746 236.325 42.7606 236.787 42.9809L237.045 42.4391ZM235.963 41.4808L214.039 13.5537L213.567 13.9242L235.491 41.8512L235.963 41.4808ZM213.504 13.767C213.562 14.3795 213.6 14.9919 213.619 15.6044L214.219 15.5856C214.199 14.9607 214.16 14.3358 214.102 13.711L213.504 13.767ZM213.62 15.6143C213.658 16.2084 213.677 16.7529 213.677 17.248H214.277C214.277 16.7378 214.257 16.1803 214.218 15.5757L213.62 15.6143ZM213.677 17.248V43H214.277V17.248H213.677ZM213.977 42.7H207.104V43.3H213.977V42.7ZM207.404 43V1.066H206.804V43H207.404ZM207.104 1.366H211.193V0.765997H207.104V1.366ZM286.643 30.501L286.364 30.3899L286.364 30.3899L286.643 30.501ZM282.322 37.142L282.11 36.9299L282.11 36.9299L282.322 37.142ZM275.623 41.463L275.513 41.1837L275.513 41.1837L275.623 41.463ZM250.944 43H250.644V43.3H250.944V43ZM250.944 1.066V0.765997H250.644V1.066H250.944ZM275.623 2.632L275.512 2.91055L275.513 2.91125L275.623 2.632ZM282.322 6.953L282.11 7.16513L282.111 7.16624L282.322 6.953ZM286.643 13.565L286.922 13.4539L286.922 13.4539L286.643 13.565ZM279.277 15.856L278.993 15.9518L278.993 15.9527L279.277 15.856ZM276.638 11.216L276.414 11.4159L276.416 11.4176L276.638 11.216ZM272.462 8.287L272.347 8.56392L272.348 8.5644L272.462 8.287ZM258.803 7.272V6.972H258.503V7.272H258.803ZM258.803 36.794H258.503V37.094H258.803V36.794ZM272.462 35.779L272.348 35.5016L272.347 35.5021L272.462 35.779ZM276.638 32.879L276.86 33.0806L276.862 33.0789L276.638 32.879ZM279.277 28.239L279.561 28.3357L279.561 28.3348L279.277 28.239ZM287.88 22.033C287.88 25.0732 287.373 27.8576 286.364 30.3899L286.922 30.6121C287.962 28.0017 288.48 25.1408 288.48 22.033H287.88ZM286.364 30.3899C285.354 32.9255 283.935 35.1042 282.11 36.9299L282.534 37.3541C284.42 35.4678 285.883 33.2192 286.922 30.6121L286.364 30.3899ZM282.11 36.9299C280.285 38.7547 278.088 40.1731 275.513 41.1837L275.733 41.7423C278.378 40.7035 280.647 39.2413 282.534 37.3541L282.11 36.9299ZM275.513 41.1837C272.943 42.193 270.09 42.7 266.952 42.7V43.3C270.155 43.3 273.083 42.7823 275.733 41.7423L275.513 41.1837ZM266.952 42.7H250.944V43.3H266.952V42.7ZM251.244 43V1.066H250.644V43H251.244ZM250.944 1.366H266.952V0.765997H250.944V1.366ZM266.952 1.366C270.089 1.366 272.941 1.88241 275.512 2.91054L275.734 2.35345C273.085 1.29358 270.156 0.765997 266.952 0.765997V1.366ZM275.513 2.91125C278.088 3.92188 280.285 5.34027 282.11 7.16513L282.534 6.74087C280.647 4.85372 278.378 3.39145 275.733 2.35275L275.513 2.91125ZM282.111 7.16624C283.936 8.97214 285.354 11.1407 286.364 13.6761L286.922 13.4539C285.883 10.8466 284.42 8.60719 282.533 6.73976L282.111 7.16624ZM286.364 13.6761C287.373 16.2084 287.88 18.9928 287.88 22.033H288.48C288.48 18.9252 287.962 16.0643 286.922 13.4539L286.364 13.6761ZM280.505 22.033C280.505 19.7058 280.192 17.6133 279.561 15.7593L278.993 15.9527C279.599 17.7334 279.905 19.7589 279.905 22.033H280.505ZM279.561 15.7602C278.931 13.8899 278.032 12.3057 276.86 11.0144L276.416 11.4176C277.525 12.6396 278.385 14.1488 278.993 15.9518L279.561 15.7602ZM276.862 11.0161C275.69 9.705 274.26 8.70282 272.576 8.0096L272.348 8.5644C273.951 9.22451 275.305 10.175 276.414 11.4159L276.862 11.0161ZM272.577 8.01008C270.911 7.31588 269.034 6.972 266.952 6.972V7.572C268.968 7.572 270.765 7.90479 272.347 8.56392L272.577 8.01008ZM266.952 6.972H258.803V7.572H266.952V6.972ZM258.503 7.272V36.794H259.103V7.272H258.503ZM258.803 37.094H266.952V36.494H258.803V37.094ZM266.952 37.094C269.034 37.094 270.911 36.7501 272.577 36.0559L272.347 35.5021C270.765 36.1612 268.968 36.494 266.952 36.494V37.094ZM272.576 36.0564C274.259 35.3636 275.688 34.3718 276.86 33.0806L276.416 32.6774C275.306 33.8995 273.952 34.8411 272.348 35.5016L272.576 36.0564ZM276.862 33.0789C278.032 31.7695 278.931 30.1865 279.561 28.3357L278.993 28.1423C278.386 29.9262 277.525 31.4365 276.414 32.6791L276.862 33.0789ZM279.561 28.3348C280.192 26.4621 280.505 24.3603 280.505 22.033H279.905C279.905 24.307 279.599 26.3426 278.993 28.1432L279.561 28.3348ZM331.937 1.066H332.237V0.765997H331.937V1.066ZM331.937 7.272V7.572H332.237V7.272H331.937ZM313.348 7.272V6.972H313.048V7.272H313.348ZM313.348 18.901H313.048V19.201H313.348V18.901ZM327.993 18.901H328.293V18.601H327.993V18.901ZM327.993 24.904V25.204H328.293V24.904H327.993ZM313.348 24.904V24.604H313.048V24.904H313.348ZM313.348 36.765H313.048V37.065H313.348V36.765ZM331.937 36.765H332.237V36.465H331.937V36.765ZM331.937 43V43.3H332.237V43H331.937ZM305.489 43H305.189V43.3H305.489V43ZM305.489 1.066V0.765997H305.189V1.066H305.489ZM331.637 1.066V7.272H332.237V1.066H331.637ZM331.937 6.972H313.348V7.572H331.937V6.972ZM313.048 7.272V18.901H313.648V7.272H313.048ZM313.348 19.201H327.993V18.601H313.348V19.201ZM327.693 18.901V24.904H328.293V18.901H327.693ZM327.993 24.604H313.348V25.204H327.993V24.604ZM313.048 24.904V36.765H313.648V24.904H313.048ZM313.348 37.065H331.937V36.465H313.348V37.065ZM331.637 36.765V43H332.237V36.765H331.637ZM331.937 42.7H305.489V43.3H331.937V42.7ZM305.789 43V1.066H305.189V43H305.789ZM305.489 1.366H331.937V0.765997H305.489V1.366ZM334.562 1.066V0.765997H334.118L334.284 1.17834L334.562 1.066ZM342.508 1.559L342.325 1.79638L342.325 1.79639L342.508 1.559ZM343.465 2.835L343.745 2.72707L343.743 2.72181L343.465 2.835ZM353.325 28.413L353.045 28.5209L353.046 28.5233L353.325 28.413ZM354.253 31.168L353.965 31.2512L353.967 31.2578L354.253 31.168ZM355.123 34.3L354.832 34.3716L355.417 34.3588L355.123 34.3ZM356.776 28.413L357.056 28.5211L357.056 28.5206L356.776 28.413ZM366.607 2.835L366.328 2.72568L366.327 2.72737L366.607 2.835ZM367.535 1.617L367.726 1.84829L367.726 1.84829L367.535 1.617ZM375.481 1.066L375.759 1.17834L375.926 0.765997H375.481V1.066ZM358.545 43V43.3H358.748L358.823 43.1123L358.545 43ZM351.498 43L351.22 43.1123L351.296 43.3H351.498V43ZM334.562 1.366H340.855V0.765997H334.562V1.366ZM340.855 1.366C341.483 1.366 341.964 1.51783 342.325 1.79638L342.692 1.32161C342.202 0.94283 341.581 0.765997 340.855 0.765997V1.366ZM342.325 1.79639C342.706 2.0911 342.994 2.4727 343.187 2.94819L343.743 2.72181C343.511 2.15329 343.161 1.68423 342.692 1.32161L342.325 1.79639ZM343.185 2.9429L353.045 28.5209L353.605 28.3051L343.745 2.72709L343.185 2.9429ZM353.046 28.5233C353.371 29.3444 353.677 30.2535 353.965 31.2511L354.542 31.0849C354.249 30.0718 353.937 29.1443 353.604 28.3027L353.046 28.5233ZM353.967 31.2578C354.274 32.2372 354.563 33.2751 354.832 34.3716L355.415 34.2284C355.143 33.1209 354.851 32.0708 354.54 31.0782L353.967 31.2578ZM355.417 34.3588C355.86 32.1484 356.406 30.2032 357.056 28.5211L356.496 28.3049C355.832 30.0255 355.276 32.0049 354.829 34.2412L355.417 34.3588ZM357.056 28.5206L366.887 2.94263L366.327 2.72737L356.496 28.3054L357.056 28.5206ZM366.887 2.94432C367.039 2.5561 367.313 2.18986 367.726 1.84829L367.344 1.38571C366.868 1.7788 366.524 2.22456 366.328 2.72568L366.887 2.94432ZM367.726 1.84829C368.11 1.53151 368.59 1.366 369.188 1.366V0.765997C368.472 0.765997 367.85 0.967814 367.344 1.38571L367.726 1.84829ZM369.188 1.366H375.481V0.765997H369.188V1.366ZM375.203 0.953652L358.267 42.8877L358.823 43.1123L375.759 1.17834L375.203 0.953652ZM358.545 42.7H351.498V43.3H358.545V42.7ZM351.776 42.8877L334.84 0.953652L334.284 1.17834L351.22 43.1123L351.776 42.8877ZM406.306 1.066H406.606V0.765997H406.306V1.066ZM406.306 7.272V7.572H406.606V7.272H406.306ZM387.717 7.272V6.972H387.417V7.272H387.717ZM387.717 18.901H387.417V19.201H387.717V18.901ZM402.362 18.901H402.662V18.601H402.362V18.901ZM402.362 24.904V25.204H402.662V24.904H402.362ZM387.717 24.904V24.604H387.417V24.904H387.717ZM387.717 36.765H387.417V37.065H387.717V36.765ZM406.306 36.765H406.606V36.465H406.306V36.765ZM406.306 43V43.3H406.606V43H406.306ZM379.858 43H379.558V43.3H379.858V43ZM379.858 1.066V0.765997H379.558V1.066H379.858ZM406.006 1.066V7.272H406.606V1.066H406.006ZM406.306 6.972H387.717V7.572H406.306V6.972ZM387.417 7.272V18.901H388.017V7.272H387.417ZM387.717 19.201H402.362V18.601H387.717V19.201ZM402.062 18.901V24.904H402.662V18.901H402.062ZM402.362 24.604H387.717V25.204H402.362V24.604ZM387.417 24.904V36.765H388.017V24.904H387.417ZM387.717 37.065H406.306V36.465H387.717V37.065ZM406.006 36.765V43H406.606V36.765H406.006ZM406.306 42.7H379.858V43.3H406.306V42.7ZM380.158 43V1.066H379.558V43H380.158ZM379.858 1.366H406.306V0.765997H379.858V1.366ZM418.008 1.124L417.959 1.41991L417.971 1.42194L417.984 1.42296L418.008 1.124ZM418.617 1.298L418.472 1.56024L418.488 1.56948L418.506 1.57654L418.617 1.298ZM419.168 1.675L418.956 1.88713L418.963 1.89336L418.969 1.89922L419.168 1.675ZM419.748 2.313L419.984 2.12777L419.984 2.12765L419.748 2.313ZM441.759 30.356L441.523 30.5412L442.178 31.375L442.057 30.3219L441.759 30.356ZM441.585 28.384L441.285 28.3928L441.286 28.4021L441.585 28.384ZM441.556 1.066V0.765997H441.256V1.066H441.556ZM448.429 1.066H448.729V0.765997H448.429V1.066ZM448.429 43V43.3H448.729V43H448.429ZM441.672 41.666L441.91 41.4831L441.908 41.4808L441.672 41.666ZM419.748 13.739L419.984 13.5537L419.355 12.7514L419.45 13.767L419.748 13.739ZM419.864 15.595L419.564 15.6044L419.565 15.6143L419.864 15.595ZM419.922 43V43.3H420.222V43H419.922ZM413.049 43H412.749V43.3H413.049V43ZM413.049 1.066V0.765997H412.749V1.066H413.049ZM417.138 1.366C417.477 1.366 417.749 1.38492 417.959 1.41991L418.058 0.828078C417.804 0.785741 417.496 0.765997 417.138 0.765997V1.366ZM417.984 1.42296C418.18 1.43935 418.341 1.48746 418.472 1.56024L418.763 1.03575C418.546 0.915206 418.301 0.847307 418.033 0.825033L417.984 1.42296ZM418.506 1.57654C418.655 1.6363 418.806 1.73672 418.956 1.88713L419.381 1.46287C419.183 1.26528 418.966 1.11436 418.729 1.01946L418.506 1.57654ZM418.969 1.89922C419.125 2.03788 419.306 2.23573 419.513 2.49834L419.984 2.12765C419.765 1.84894 419.56 1.62144 419.368 1.45078L418.969 1.89922ZM419.512 2.49822L441.523 30.5412L441.995 30.1708L419.984 2.12777L419.512 2.49822ZM442.057 30.3219C441.981 29.6502 441.923 28.9982 441.885 28.3659L441.286 28.4021C441.325 29.0458 441.383 29.7084 441.461 30.3901L442.057 30.3219ZM441.885 28.3752C441.866 27.7203 441.856 27.1143 441.856 26.557H441.256C441.256 27.1211 441.266 27.733 441.286 28.3928L441.885 28.3752ZM441.856 26.557V1.066H441.256V26.557H441.856ZM441.556 1.366H448.429V0.765997H441.556V1.366ZM448.129 1.066V43H448.729V1.066H448.129ZM448.429 42.7H444.398V43.3H448.429V42.7ZM444.398 42.7C443.809 42.7 443.344 42.6075 442.99 42.4391L442.732 42.9809C443.191 43.1992 443.751 43.3 444.398 43.3V42.7ZM442.99 42.4391C442.641 42.2727 442.279 41.9627 441.91 41.4831L441.435 41.8489C441.839 42.3746 442.27 42.7606 442.732 42.9809L442.99 42.4391ZM441.908 41.4808L419.984 13.5537L419.512 13.9242L441.436 41.8512L441.908 41.4808ZM419.45 13.767C419.507 14.3795 419.545 14.9919 419.565 15.6044L420.164 15.5856C420.145 14.9607 420.106 14.3358 420.047 13.711L419.45 13.767ZM419.565 15.6143C419.603 16.2084 419.622 16.7529 419.622 17.248H420.222C420.222 16.7378 420.203 16.1803 420.164 15.5757L419.565 15.6143ZM419.622 17.248V43H420.222V17.248H419.622ZM419.922 42.7H413.049V43.3H419.922V42.7ZM413.349 43V1.066H412.749V43H413.349ZM413.049 1.366H417.138V0.765997H413.049V1.366ZM486.44 1.066H486.74V0.765997H486.44V1.066ZM486.44 7.475V7.775H486.74V7.475H486.44ZM473.825 7.475V7.175H473.525V7.475H473.825ZM473.825 43V43.3H474.125V43H473.825ZM466.024 43H465.724V43.3H466.024V43ZM466.024 7.475H466.324V7.175H466.024V7.475ZM453.351 7.475H453.051V7.775H453.351V7.475ZM453.351 1.066V0.765997H453.051V1.066H453.351ZM486.14 1.066V7.475H486.74V1.066H486.14ZM486.44 7.175H473.825V7.775H486.44V7.175ZM473.525 7.475V43H474.125V7.475H473.525ZM473.825 42.7H466.024V43.3H473.825V42.7ZM466.324 43V7.475H465.724V43H466.324ZM466.024 7.175H453.351V7.775H466.024V7.175ZM453.651 7.475V1.066H453.051V7.475H453.651ZM453.351 1.366H486.44V0.765997H453.351V1.366ZM513.858 8.693L513.592 8.55464L513.59 8.55883L513.858 8.693ZM513.104 9.592L512.95 9.33463L512.942 9.33964L513.104 9.592ZM510.813 9.418L510.652 9.67078L510.659 9.67524L510.813 9.418ZM509.102 8.403L509.249 8.14111L509.249 8.14111L509.102 8.403ZM506.782 7.417L506.682 7.69976L506.689 7.70222L506.782 7.417ZM500.837 7.359L500.928 7.645L500.932 7.6436L500.837 7.359ZM498.807 8.432L498.616 8.20085L498.612 8.20422L498.807 8.432ZM497.589 10.114L497.866 10.2312L497.867 10.2282L497.589 10.114ZM497.995 14.696L497.764 14.8867L497.767 14.8907L497.995 14.696ZM503.302 17.625L503.393 17.339L503.393 17.339L503.302 17.625ZM506.84 18.814L506.74 19.0968L506.746 19.0986L506.84 18.814ZM510.407 20.264L510.277 20.5341L510.281 20.5359L510.407 20.264ZM513.51 22.352L513.305 22.571L513.308 22.5733L513.51 22.352ZM515.685 25.426L515.411 25.5479L515.413 25.5514L515.685 25.426ZM515.54 35.199L515.261 35.0887L515.261 35.0904L515.54 35.199ZM512.698 39.52L512.909 39.7338L512.909 39.7338L512.698 39.52ZM508.145 42.42L508.254 42.6998L508.256 42.6987L508.145 42.42ZM498.024 43.058L498.086 42.7643L498.082 42.7635L498.024 43.058ZM494.283 41.956L494.17 42.2336L494.171 42.2342L494.283 41.956ZM490.948 40.216L490.783 40.4663L490.785 40.4677L490.948 40.216ZM488.193 37.954L487.937 37.7988L487.817 37.9975L487.979 38.1636L488.193 37.954ZM490.455 34.213L490.22 34.0277L490.208 34.0421L490.199 34.0578L490.455 34.213ZM491.209 33.546L491.364 33.8033L491.368 33.8004L491.209 33.546ZM493.79 33.865L493.614 34.108L493.62 34.112L493.79 33.865ZM495.762 35.17L495.601 35.4226L495.603 35.4244L495.762 35.17ZM498.459 36.504L498.349 36.783L498.355 36.7853L498.459 36.504ZM507.362 35.518L507.558 35.7458L507.56 35.744L507.362 35.518ZM508.348 28.268L508.112 28.4522L508.115 28.4562L508.348 28.268ZM506.173 26.528L506.033 26.7929L506.037 26.7952L506.173 26.528ZM503.07 25.31L502.989 25.5986L502.989 25.5986L503.07 25.31ZM499.532 24.237L499.44 24.5225L499.44 24.5225L499.532 24.237ZM492.891 20.728L492.684 20.9447L492.684 20.9447L492.891 20.728ZM490.687 17.48L490.41 17.5942L490.412 17.5992L490.687 17.48ZM490.774 8.171L490.498 8.05326L490.497 8.0564L490.774 8.171ZM493.442 4.314L493.236 4.09658L493.234 4.0983L493.442 4.314ZM510.436 1.762L510.332 2.04332L510.332 2.04332L510.436 1.762ZM515.772 5.01L516.039 5.14834L516.143 4.94771L515.979 4.79221L515.772 5.01ZM513.59 8.55883C513.393 8.95297 513.175 9.19974 512.95 9.33475L513.259 9.84925C513.614 9.63626 513.898 9.28369 514.127 8.82716L513.59 8.55883ZM512.942 9.33964C512.729 9.47675 512.459 9.553 512.118 9.553V10.153C512.551 10.153 512.939 10.0552 513.267 9.84435L512.942 9.33964ZM512.118 9.553C511.806 9.553 511.425 9.4348 510.968 9.16075L510.659 9.67524C511.169 9.9812 511.658 10.153 512.118 10.153V9.553ZM510.975 9.16531C510.485 8.85195 509.91 8.51052 509.249 8.14111L508.956 8.66488C509.61 9.03014 510.175 9.36538 510.652 9.67068L510.975 9.16531ZM509.249 8.14111C508.571 7.76234 507.779 7.42643 506.875 7.13178L506.689 7.70222C507.564 7.98757 508.319 8.30899 508.956 8.66488L509.249 8.14111ZM506.883 7.13433C505.973 6.81068 504.903 6.653 503.679 6.653V7.253C504.854 7.253 505.852 7.40465 506.682 7.69966L506.883 7.13433ZM503.679 6.653C502.573 6.653 501.592 6.79124 500.743 7.07439L500.932 7.6436C501.707 7.38542 502.621 7.253 503.679 7.253V6.653ZM500.747 7.07303C499.923 7.33436 499.21 7.70905 498.616 8.20088L498.999 8.66312C499.526 8.22695 500.167 7.8863 500.928 7.64497L500.747 7.07303ZM498.612 8.20422C498.035 8.69896 497.601 9.2985 497.312 9.99977L497.867 10.2282C498.119 9.61483 498.497 9.09304 499.003 8.65978L498.612 8.20422ZM497.313 9.99683C497.025 10.676 496.883 11.4221 496.883 12.231H497.483C497.483 11.4933 497.612 10.828 497.866 10.2312L497.313 9.99683ZM496.883 12.231C496.883 13.275 497.171 14.1674 497.764 14.8867L498.227 14.5053C497.737 13.91 497.483 13.159 497.483 12.231H496.883ZM497.767 14.8907C498.358 15.5829 499.125 16.1665 500.063 16.6452L500.336 16.1108C499.456 15.6615 498.755 15.1238 498.224 14.5013L497.767 14.8907ZM500.063 16.6452C500.989 17.118 502.039 17.5396 503.212 17.911L503.393 17.339C502.246 16.9757 501.227 16.566 500.336 16.1108L500.063 16.6452ZM503.212 17.911C504.368 18.2773 505.545 18.6725 506.74 19.0967L506.941 18.5313C505.739 18.1048 504.556 17.7074 503.393 17.339L503.212 17.911ZM506.746 19.0986C507.951 19.5005 509.128 19.979 510.277 20.5341L510.538 19.9939C509.366 19.4277 508.166 18.9395 506.935 18.5294L506.746 19.0986ZM510.281 20.5359C511.413 21.0642 512.42 21.7426 513.305 22.571L513.715 22.133C512.783 21.2601 511.722 20.5465 510.534 19.9921L510.281 20.5359ZM513.308 22.5733C514.184 23.3746 514.885 24.3644 515.411 25.5478L515.96 25.3042C515.403 24.0516 514.654 22.9921 513.713 22.1307L513.308 22.5733ZM515.413 25.5514C515.951 26.7202 516.226 28.1539 516.226 29.863H516.826C516.826 28.0921 516.541 26.5678 515.958 25.3006L515.413 25.5514ZM516.226 29.863C516.226 31.7222 515.904 33.4632 515.261 35.0887L515.819 35.3093C516.491 33.6095 516.826 31.7931 516.826 29.863H516.226ZM515.261 35.0904C514.638 36.6942 513.714 38.0987 512.488 39.3062L512.909 39.7338C514.196 38.4667 515.167 36.9905 515.82 35.3076L515.261 35.0904ZM512.488 39.3062C511.282 40.4931 509.8 41.439 508.035 42.1413L508.256 42.6987C510.087 41.9703 511.64 40.9829 512.909 39.7338L512.488 39.3062ZM508.037 42.1402C506.28 42.8204 504.259 43.164 501.968 43.164V43.764C504.318 43.764 506.415 43.4116 508.254 42.6998L508.037 42.1402ZM501.968 43.164C500.655 43.164 499.361 43.0308 498.086 42.7643L497.963 43.3517C499.279 43.6266 500.614 43.764 501.968 43.764V43.164ZM498.082 42.7635C496.805 42.5157 495.576 42.1538 494.396 41.6778L494.171 42.2342C495.388 42.7249 496.654 43.0976 497.967 43.3525L498.082 42.7635ZM494.397 41.6784C493.235 41.202 492.14 40.6305 491.112 39.9643L490.785 40.4677C491.845 41.1548 492.974 41.7434 494.17 42.2336L494.397 41.6784ZM491.114 39.9657C490.106 39.3001 489.204 38.5596 488.408 37.7444L487.979 38.1636C488.807 39.0111 489.742 39.7786 490.783 40.4663L491.114 39.9657ZM488.45 38.1092L490.712 34.3682L490.199 34.0578L487.937 37.7988L488.45 38.1092ZM490.691 34.3983C490.882 34.1559 491.106 33.9581 491.364 33.8032L491.055 33.2888C490.733 33.4819 490.454 33.7288 490.22 34.0277L490.691 34.3983ZM491.368 33.8004C491.63 33.6371 491.913 33.556 492.224 33.556V32.956C491.801 32.956 491.408 33.0682 491.05 33.2916L491.368 33.8004ZM492.224 33.556C492.623 33.556 493.084 33.7236 493.614 34.108L493.966 33.622C493.376 33.1944 492.793 32.956 492.224 32.956V33.556ZM493.62 34.112C494.184 34.501 494.845 34.9379 495.601 35.4226L495.924 34.9174C495.172 34.4354 494.518 34.0023 493.961 33.618L493.62 34.112ZM495.603 35.4244C496.395 35.9191 497.311 36.3715 498.349 36.7829L498.57 36.2251C497.559 35.8244 496.677 35.3876 495.921 34.9156L495.603 35.4244ZM498.355 36.7853C499.441 37.1874 500.725 37.384 502.2 37.384V36.784C500.776 36.784 499.566 36.5939 498.564 36.2227L498.355 36.7853ZM502.2 37.384C504.468 37.384 506.267 36.8516 507.558 35.7458L507.167 35.2902C506.021 36.2724 504.38 36.784 502.2 36.784V37.384ZM507.56 35.744C508.857 34.6114 509.489 33.0029 509.489 30.965H508.889C508.889 32.8711 508.304 34.298 507.165 35.292L507.56 35.744ZM509.489 30.965C509.489 29.8109 509.195 28.8406 508.582 28.0798L508.115 28.4562C508.623 29.0874 508.889 29.9151 508.889 30.965H509.489ZM508.585 28.0838C508.013 27.3481 507.252 26.7417 506.31 26.2608L506.037 26.7952C506.913 27.2423 507.601 27.7959 508.112 28.4522L508.585 28.0838ZM506.314 26.2631C505.384 25.7683 504.329 25.3549 503.152 25.0214L502.989 25.5986C504.132 25.9225 505.146 26.3211 506.033 26.7929L506.314 26.2631ZM503.152 25.0214C501.996 24.6937 500.82 24.3371 499.625 23.9515L499.44 24.5225C500.642 24.9102 501.825 25.2689 502.989 25.5986L503.152 25.0214ZM499.625 23.9515C498.438 23.5687 497.27 23.1093 496.121 22.5731L495.868 23.1169C497.039 23.6634 498.23 24.132 499.44 24.5225L499.625 23.9515ZM496.121 22.5731C494.99 22.0454 493.983 21.3582 493.099 20.5113L492.684 20.9447C493.617 21.8378 494.678 22.5619 495.868 23.1169L496.121 22.5731ZM493.099 20.5113C492.222 19.6722 491.509 18.6239 490.963 17.3608L490.412 17.5992C490.987 18.9267 491.743 20.0438 492.684 20.9447L493.099 20.5113ZM490.965 17.3658C490.443 16.0975 490.175 14.5246 490.175 12.637H489.575C489.575 14.5774 489.85 16.2331 490.41 17.5942L490.965 17.3658ZM490.175 12.637C490.175 11.1501 490.467 9.70027 491.052 8.28559L490.497 8.0564C489.883 9.54173 489.575 11.0693 489.575 12.637H490.175ZM491.05 8.28873C491.653 6.87643 492.519 5.62387 493.651 4.52969L493.234 4.0983C492.046 5.2468 491.133 6.56557 490.498 8.05327L491.05 8.28873ZM493.649 4.53141C494.797 3.43955 496.204 2.56004 497.874 1.89576L497.653 1.33824C495.92 2.02729 494.446 2.94578 493.236 4.09659L493.649 4.53141ZM497.874 1.89576C499.534 1.23555 501.439 0.902 503.592 0.902V0.302C501.377 0.302 499.395 0.645112 497.653 1.33824L497.874 1.89576ZM503.592 0.902C506.035 0.902 508.281 1.28364 510.332 2.04332L510.541 1.48067C508.416 0.69369 506.099 0.302 503.592 0.302V0.902ZM510.332 2.04332C512.386 2.804 514.129 3.86631 515.566 5.22778L515.979 4.79221C514.477 3.36968 512.663 2.26666 510.541 1.48067L510.332 2.04332ZM515.506 4.87166L513.592 8.55466L514.125 8.83134L516.039 5.14834L515.506 4.87166Z" fill="#DFDFDF"/>
</svg>
