<svg width="598" height="44" viewBox="0 0 598 44" fill="none" xmlns="http://www.w3.org/2000/svg">
<path d="M21.8564 25.6L22.1213 25.4593L22.1206 25.4579L21.8564 25.6ZM22.7554 27.543L22.4766 27.6545L22.4809 27.6641L22.7554 27.543ZM23.5964 29.544L23.3178 29.6554L23.6003 30.3616L23.876 29.6527L23.5964 29.544ZM24.4374 27.485L24.1616 27.3668L24.1616 27.3668L24.4374 27.485ZM25.3654 25.542L25.1008 25.4006L25.1004 25.4013L25.3654 25.542ZM37.7774 2.313L38.042 2.45438L38.0421 2.45417L37.7774 2.313ZM38.2414 1.617L38.0292 1.40487L38.023 1.4111L38.0171 1.41769L38.2414 1.617ZM38.7924 1.24L38.6898 0.957919L38.6809 0.961455L38.7924 1.24ZM39.4884 1.095L39.5114 1.39411L39.5114 1.39411L39.4884 1.095ZM46.2744 1.066H46.5744V0.765997H46.2744V1.066ZM46.2744 43V43.3H46.5744V43H46.2744ZM39.4014 43H39.1014V43.3H39.4014V43ZM39.4304 14.261L39.1308 14.2417L39.1305 14.2513L39.4304 14.261ZM39.5754 12.434L39.8741 12.462L39.3106 12.2929L39.5754 12.434ZM26.9024 36.214L27.1668 36.3557L27.1671 36.3551L26.9024 36.214ZM25.7714 37.49L25.9304 37.7445L25.9378 37.7396L25.7714 37.49ZM21.4504 37.49L21.2839 37.7397L21.2914 37.7444L21.4504 37.49ZM20.3194 36.214L20.5838 36.0723L20.5835 36.0718L20.3194 36.214ZM7.47236 12.347L7.73652 12.2048L7.17454 12.3831L7.47236 12.347ZM7.61736 14.232L7.31734 14.2414L7.31798 14.2513L7.61736 14.232ZM7.67536 43V43.3H7.97536V43H7.67536ZM0.80236 43H0.50236V43.3H0.80236V43ZM0.80236 1.066V0.765997H0.50236V1.066H0.80236ZM7.58836 1.095L7.56535 1.39411L7.56535 1.39411L7.58836 1.095ZM8.25536 1.24L8.14389 1.51868L8.15284 1.52194L8.25536 1.24ZM8.83536 1.617L8.62323 1.82913L8.62323 1.82913L8.83536 1.617ZM9.32836 2.313L9.06365 2.45417L9.06417 2.45513L9.32836 2.313ZM21.5914 25.7407C21.9148 26.3495 22.21 26.9874 22.4768 27.6544L23.0339 27.4316C22.7594 26.7453 22.4552 26.0878 22.1213 25.4593L21.5914 25.7407ZM22.4809 27.6641C22.7695 28.3182 23.0484 28.982 23.3178 29.6554L23.8749 29.4326C23.603 28.7527 23.3213 28.0825 23.0298 27.4219L22.4809 27.6641ZM23.876 29.6527C24.1454 28.9599 24.4245 28.2767 24.7131 27.6032L24.1616 27.3668C23.8703 28.0467 23.5886 28.7361 23.3168 29.4353L23.876 29.6527ZM24.7131 27.6032C25 26.9338 25.3057 26.2937 25.6303 25.6827L25.1004 25.4013C24.7677 26.0277 24.4547 26.6829 24.1616 27.3668L24.7131 27.6032ZM25.63 25.6834L38.042 2.45438L37.5128 2.17161L25.1008 25.4006L25.63 25.6834ZM38.0421 2.45417C38.1898 2.17725 38.3316 1.96701 38.4656 1.81631L38.0171 1.41769C37.8418 1.61499 37.6743 1.86874 37.5127 2.17182L38.0421 2.45417ZM38.4535 1.82913C38.6039 1.67872 38.7544 1.5783 38.9038 1.51854L38.6809 0.961455C38.4437 1.05636 38.2268 1.20728 38.0292 1.40487L38.4535 1.82913ZM38.8949 1.52194C39.0792 1.4549 39.2841 1.41159 39.5114 1.39411L39.4654 0.795882C39.1899 0.817069 38.9308 0.870426 38.6898 0.958061L38.8949 1.52194ZM39.5114 1.39411C39.7528 1.37554 40.0444 1.366 40.3874 1.366V0.765997C40.0343 0.765997 39.7266 0.775786 39.4653 0.795882L39.5114 1.39411ZM40.3874 1.366H46.2744V0.765997H40.3874V1.366ZM45.9744 1.066V43H46.5744V1.066H45.9744ZM46.2744 42.7H39.4014V43.3H46.2744V42.7ZM39.7014 43V15.914H39.1014V43H39.7014ZM39.7014 15.914C39.7014 15.4151 39.711 14.8674 39.7302 14.2707L39.1305 14.2513C39.1111 14.8533 39.1014 15.4076 39.1014 15.914H39.7014ZM39.7297 14.2803C39.7682 13.684 39.8163 13.0779 39.8741 12.462L39.2767 12.406C39.2184 13.0275 39.1698 13.6394 39.131 14.2417L39.7297 14.2803ZM39.3106 12.2929L26.6376 36.0729L27.1671 36.3551L39.8401 12.5751L39.3106 12.2929ZM26.6379 36.0723C26.3688 36.5747 26.0238 36.9611 25.605 37.2404L25.9378 37.7396C26.4469 37.4002 26.8559 36.936 27.1668 36.3557L26.6379 36.0723ZM25.6124 37.2356C25.2021 37.492 24.7173 37.625 24.1474 37.625V38.225C24.8147 38.225 25.4127 38.068 25.9304 37.7444L25.6124 37.2356ZM24.1474 37.625H23.0744V38.225H24.1474V37.625ZM23.0744 37.625C22.5044 37.625 22.0197 37.492 21.6094 37.2356L21.2914 37.7444C21.8091 38.068 22.407 38.225 23.0744 38.225V37.625ZM21.6168 37.2404C21.1979 36.9611 20.8529 36.5747 20.5838 36.0723L20.0549 36.3557C20.3658 36.936 20.7748 37.4002 21.284 37.7396L21.6168 37.2404ZM20.5835 36.0718L7.73652 12.2048L7.2082 12.4892L20.0552 36.3562L20.5835 36.0718ZM7.17454 12.3831C7.25084 13.0126 7.29846 13.632 7.31751 14.2414L7.91721 14.2226C7.89759 13.5947 7.84855 12.9574 7.77018 12.3109L7.17454 12.3831ZM7.31798 14.2513C7.35629 14.8451 7.37536 15.3993 7.37536 15.914H7.97536C7.97536 15.3847 7.95576 14.8175 7.91674 14.2127L7.31798 14.2513ZM7.37536 15.914V43H7.97536V15.914H7.37536ZM7.67536 42.7H0.80236V43.3H7.67536V42.7ZM1.10236 43V1.066H0.50236V43H1.10236ZM0.80236 1.366H6.68936V0.765997H0.80236V1.366ZM6.68936 1.366C7.03234 1.366 7.32393 1.37554 7.56535 1.39411L7.61137 0.795882C7.35013 0.775786 7.04238 0.765997 6.68936 0.765997V1.366ZM7.56535 1.39411C7.7925 1.41159 7.98408 1.4546 8.14394 1.51854L8.36678 0.961456C8.13997 0.870732 7.88688 0.817074 7.61137 0.795882L7.56535 1.39411ZM8.15284 1.52194C8.3208 1.58301 8.47748 1.68338 8.62323 1.82913L9.04749 1.40487C8.84524 1.20262 8.61525 1.05165 8.35788 0.95806L8.15284 1.52194ZM8.62323 1.82913C8.77062 1.97653 8.91856 2.18211 9.06365 2.45417L9.59307 2.17182C9.42883 1.86388 9.24809 1.60547 9.04749 1.40487L8.62323 1.82913ZM9.06417 2.45513L21.5922 25.7421L22.1206 25.4579L9.59255 2.17086L9.06417 2.45513ZM73.3712 26.702L73.1134 26.5486L73.0712 26.6195V26.702H73.3712ZM73.3712 43V43.3H73.6712V43H73.3712ZM65.5702 43H65.2702V43.3H65.5702V43ZM65.5702 26.702H65.8702V26.6194L65.8279 26.5484L65.5702 26.702ZM50.2872 1.066V0.765997H49.7591L50.0296 1.21962L50.2872 1.066ZM58.7552 1.559L58.5609 1.78765L58.5665 1.79217L58.7552 1.559ZM59.7702 2.806L59.5061 2.94823L59.5072 2.9503L59.7702 2.806ZM67.4552 16.813L67.7198 16.6715L67.7182 16.6687L67.4552 16.813ZM68.6152 19.191L68.3402 19.3109L68.3414 19.3135L68.6152 19.191ZM69.5142 21.366L69.2336 21.4722L69.5284 22.2513L69.7981 21.4631L69.5142 21.366ZM70.3552 19.162L70.0802 19.0421L70.0787 19.0456L70.3552 19.162ZM71.5152 16.813L71.7784 16.9571L71.7787 16.9565L71.5152 16.813ZM79.1422 2.806L79.4059 2.94955L79.4106 2.94016L79.1422 2.806ZM80.0992 1.617L80.2953 1.84405L80.2953 1.84405L80.0992 1.617ZM88.6252 1.066L88.883 1.2194L89.1528 0.765997H88.6252V1.066ZM73.0712 26.702V43H73.6712V26.702H73.0712ZM73.3712 42.7H65.5702V43.3H73.3712V42.7ZM65.8702 43V26.702H65.2702V43H65.8702ZM65.8279 26.5484L50.5449 0.912378L50.0296 1.21962L65.3126 26.8556L65.8279 26.5484ZM50.2872 1.366H57.1602V0.765997H50.2872V1.366ZM57.1602 1.366C57.7897 1.366 58.2443 1.51846 58.5609 1.78758L58.9495 1.33042C58.4928 0.942203 57.8841 0.765997 57.1602 0.765997V1.366ZM58.5665 1.79217C58.9388 2.09358 59.2525 2.4773 59.5061 2.94823L60.0344 2.66377C59.7466 2.12937 59.3837 1.68175 58.944 1.32583L58.5665 1.79217ZM59.5072 2.9503L67.1922 16.9573L67.7182 16.6687L60.0332 2.6617L59.5072 2.9503ZM67.1907 16.9545C67.6321 17.7798 68.0152 18.5652 68.3402 19.3109L68.8902 19.0711C68.558 18.3088 68.1677 17.5089 67.7198 16.6715L67.1907 16.9545ZM68.3414 19.3135C68.6678 20.0431 68.9652 20.7626 69.2336 21.4722L69.7948 21.2598C69.522 20.5387 69.22 19.8083 68.8891 19.0685L68.3414 19.3135ZM69.7981 21.4631C70.0471 20.7351 70.325 20.0069 70.6317 19.2784L70.0787 19.0456C69.7668 19.7864 69.484 20.5275 69.2304 21.2689L69.7981 21.4631ZM70.6302 19.2819C70.9549 18.5371 71.3375 17.7622 71.7784 16.9571L71.2521 16.6689C70.8036 17.4878 70.4129 18.2789 70.0802 19.0421L70.6302 19.2819ZM71.7787 16.9565L79.4057 2.94946L78.8788 2.66253L71.2518 16.6695L71.7787 16.9565ZM79.4106 2.94016C79.6026 2.55608 79.8946 2.19012 80.2953 1.84405L79.9031 1.38995C79.4532 1.77854 79.1072 2.20525 78.8739 2.67183L79.4106 2.94016ZM80.2953 1.84405C80.6571 1.53156 81.125 1.366 81.7232 1.366V0.765997C81.0068 0.765997 80.392 0.967764 79.9031 1.38995L80.2953 1.84405ZM81.7232 1.366H88.6252V0.765997H81.7232V1.366ZM88.3674 0.912593L73.1134 26.5486L73.629 26.8554L88.883 1.2194L88.3674 0.912593ZM130.336 1.066H130.636V0.765997H130.336V1.066ZM130.336 7.272V7.572H130.636V7.272H130.336ZM111.747 7.272V6.972H111.447V7.272H111.747ZM111.747 19.684H111.447V19.984H111.747V19.684ZM127.436 19.684H127.736V19.384H127.436V19.684ZM127.436 25.919V26.219H127.736V25.919H127.436ZM111.747 25.919V25.619H111.447V25.919H111.747ZM111.747 43V43.3H112.047V43H111.747ZM103.888 43H103.588V43.3H103.888V43ZM103.888 1.066V0.765997H103.588V1.066H103.888ZM130.036 1.066V7.272H130.636V1.066H130.036ZM130.336 6.972H111.747V7.572H130.336V6.972ZM111.447 7.272V19.684H112.047V7.272H111.447ZM111.747 19.984H127.436V19.384H111.747V19.984ZM127.136 19.684V25.919H127.736V19.684H127.136ZM127.436 25.619H111.747V26.219H127.436V25.619ZM111.447 25.919V43H112.047V25.919H111.447ZM111.747 42.7H103.888V43.3H111.747V42.7ZM104.188 43V1.066H103.588V43H104.188ZM103.888 1.366H130.336V0.765997H103.888V1.366ZM169.068 43V43.3H169.508L169.347 42.8903L169.068 43ZM161.354 42.507L161.164 42.7392L161.169 42.7439L161.175 42.7483L161.354 42.507ZM160.426 41.231L160.144 41.3341L160.146 41.3387L160.426 41.231ZM157.294 32.676L157.575 32.5729L157.503 32.376H157.294V32.676ZM139.923 32.676V32.376H139.713L139.641 32.5729L139.923 32.676ZM136.791 41.231L136.509 41.1279L136.507 41.1324L136.791 41.231ZM135.863 42.449L135.676 42.2137L135.672 42.2177L135.863 42.449ZM128.149 43L127.869 42.8903L127.708 43.3H128.149V43ZM144.621 1.066V0.765997H144.416L144.341 0.956313L144.621 1.066ZM152.596 1.066L152.875 0.956313L152.8 0.765997H152.596V1.066ZM141.924 27.166L141.642 27.0625L141.494 27.466H141.924V27.166ZM155.293 27.166V27.466H155.722L155.574 27.0629L155.293 27.166ZM150.189 13.217L150.47 13.1139L150.47 13.1117L150.189 13.217ZM149.406 11.042L149.12 11.133L149.122 11.1408L149.406 11.042ZM148.594 8.287L148.883 8.20758L148.594 7.15371L148.304 8.20758L148.594 8.287ZM147.782 11.042L147.496 10.951L147.494 10.957L147.782 11.042ZM147.028 13.275L146.748 13.165L146.746 13.1715L147.028 13.275ZM169.068 42.7H163.036V43.3H169.068V42.7ZM163.036 42.7C162.408 42.7 161.914 42.5484 161.532 42.2657L161.175 42.7483C161.682 43.123 162.309 43.3 163.036 43.3V42.7ZM161.544 42.2748C161.158 41.9591 160.88 41.5763 160.706 41.1233L160.146 41.3387C160.358 41.891 160.699 42.3589 161.164 42.7392L161.544 42.2748ZM160.707 41.1279L157.575 32.5729L157.012 32.7791L160.144 41.3341L160.707 41.1279ZM157.294 32.376H139.923V32.976H157.294V32.376ZM139.641 32.5729L136.509 41.1279L137.072 41.3341L140.204 32.7791L139.641 32.5729ZM136.507 41.1324C136.376 41.511 136.107 41.8728 135.676 42.2138L136.049 42.6842C136.546 42.2905 136.896 41.8404 137.074 41.3296L136.507 41.1324ZM135.672 42.2177C135.288 42.5345 134.808 42.7 134.21 42.7V43.3C134.926 43.3 135.548 43.0982 136.054 42.6803L135.672 42.2177ZM134.21 42.7H128.149V43.3H134.21V42.7ZM128.428 43.1097L144.9 1.17568L144.341 0.956313L127.869 42.8903L128.428 43.1097ZM144.621 1.366H152.596V0.765997H144.621V1.366ZM152.316 1.17568L168.788 43.1097L169.347 42.8903L152.875 0.956313L152.316 1.17568ZM141.924 27.466H155.293V26.866H141.924V27.466ZM155.574 27.0629L150.47 13.1139L149.907 13.3201L155.011 27.2691L155.574 27.0629ZM150.47 13.1117C150.239 12.4957 149.978 11.773 149.689 10.9432L149.122 11.1408C149.413 11.9737 149.675 12.7009 149.908 13.3223L150.47 13.1117ZM149.691 10.951C149.422 10.1047 149.153 9.19026 148.883 8.20758L148.304 8.36641C148.576 9.35574 148.848 10.278 149.12 11.133L149.691 10.951ZM148.304 8.20758C148.035 9.19026 147.765 10.1047 147.496 10.951L148.067 11.133C148.34 10.278 148.611 9.35574 148.883 8.36641L148.304 8.20758ZM147.494 10.957C147.244 11.8015 146.996 12.5372 146.748 13.165L147.307 13.385C147.562 12.7368 147.816 11.9838 148.069 11.127L147.494 10.957ZM146.746 13.1715L141.642 27.0625L142.205 27.2695L147.309 13.3785L146.746 13.1715ZM164.341 1.066V0.765997H163.896L164.062 1.17834L164.341 1.066ZM172.287 1.559L172.103 1.79638L172.103 1.79639L172.287 1.559ZM173.244 2.835L173.524 2.72707L173.521 2.72181L173.244 2.835ZM183.104 28.413L182.824 28.5209L182.825 28.5233L183.104 28.413ZM184.032 31.168L183.743 31.2512L183.745 31.2578L184.032 31.168ZM184.902 34.3L184.61 34.3716L185.196 34.3588L184.902 34.3ZM186.555 28.413L186.834 28.5211L186.835 28.5206L186.555 28.413ZM196.386 2.835L196.106 2.72568L196.106 2.72737L196.386 2.835ZM197.314 1.617L197.505 1.84829L197.505 1.84829L197.314 1.617ZM205.26 1.066L205.538 1.17834L205.704 0.765997H205.26V1.066ZM188.324 43V43.3H188.526L188.602 43.1123L188.324 43ZM181.277 43L180.998 43.1123L181.074 43.3H181.277V43ZM164.341 1.366H170.634V0.765997H164.341V1.366ZM170.634 1.366C171.261 1.366 171.743 1.51783 172.103 1.79638L172.47 1.32161C171.98 0.94283 171.359 0.765997 170.634 0.765997V1.366ZM172.103 1.79639C172.485 2.0911 172.772 2.4727 172.966 2.94819L173.521 2.72181C173.29 2.15329 172.939 1.68423 172.47 1.32161L172.103 1.79639ZM172.964 2.9429L182.824 28.5209L183.384 28.3051L173.524 2.72709L172.964 2.9429ZM182.825 28.5233C183.149 29.3444 183.456 30.2535 183.743 31.2511L184.32 31.0849C184.028 30.0718 183.715 29.1443 183.383 28.3027L182.825 28.5233ZM183.745 31.2578C184.053 32.2372 184.341 33.2751 184.61 34.3716L185.193 34.2284C184.921 33.1209 184.629 32.0708 184.318 31.0782L183.745 31.2578ZM185.196 34.3588C185.638 32.1484 186.185 30.2032 186.834 28.5211L186.275 28.3049C185.61 30.0255 185.055 32.0049 184.607 34.2412L185.196 34.3588ZM186.835 28.5206L196.666 2.94263L196.106 2.72737L186.275 28.3054L186.835 28.5206ZM196.665 2.94432C196.817 2.5561 197.091 2.18986 197.505 1.84829L197.123 1.38571C196.647 1.7788 196.302 2.22456 196.106 2.72568L196.665 2.94432ZM197.505 1.84829C197.888 1.53151 198.369 1.366 198.967 1.366V0.765997C198.25 0.765997 197.628 0.967814 197.123 1.38571L197.505 1.84829ZM198.967 1.366H205.26V0.765997H198.967V1.366ZM204.981 0.953652L188.045 42.8877L188.602 43.1123L205.538 1.17834L204.981 0.953652ZM188.324 42.7H181.277V43.3H188.324V42.7ZM181.555 42.8877L164.619 0.953652L164.062 1.17834L180.998 43.1123L181.555 42.8877ZM246.68 30.588L246.959 30.6976L246.959 30.6969L246.68 30.588ZM242.359 37.374L242.574 37.5828L242.574 37.5828L242.359 37.374ZM235.66 41.869L235.773 42.1468L235.775 42.1461L235.66 41.869ZM218.289 41.869L218.174 42.1461L218.176 42.1471L218.289 41.869ZM211.561 37.374L211.345 37.5828L211.346 37.584L211.561 37.374ZM207.24 30.588L206.96 30.6969L206.961 30.6976L207.24 30.588ZM207.24 13.507L207.519 13.6166L207.519 13.6159L207.24 13.507ZM211.561 6.692L211.346 6.48204L211.345 6.48315L211.561 6.692ZM218.289 2.226L218.402 2.50383L218.403 2.5034L218.289 2.226ZM242.359 6.721L242.143 6.92985L242.144 6.93093L242.359 6.721ZM246.68 13.507L246.4 13.6159L246.401 13.6166L246.68 13.507ZM239.285 15.856L239 15.9491L239.001 15.9527L239.285 15.856ZM236.675 11.187L236.898 10.9871L236.898 10.9871L236.675 11.187ZM232.499 8.258L232.383 8.53492L232.385 8.5354L232.499 8.258ZM221.45 8.258L221.336 7.98059L221.336 7.98059L221.45 8.258ZM217.245 11.187L217.023 10.9852L217.021 10.9871L217.245 11.187ZM214.606 15.856L214.89 15.9527L214.89 15.9518L214.606 15.856ZM214.606 28.239L214.321 28.3348L214.322 28.3357L214.606 28.239ZM217.245 32.879L217.021 33.079L217.024 33.0825L217.245 32.879ZM221.45 35.779L221.336 36.0564L221.336 36.0564L221.45 35.779ZM232.499 35.779L232.385 35.5016L232.383 35.5021L232.499 35.779ZM236.675 32.879L236.897 33.0806L236.898 33.0789L236.675 32.879ZM239.285 28.239L239 28.1432L239 28.145L239.285 28.239ZM247.917 22.033C247.917 25.0731 247.41 27.8874 246.4 30.4791L246.959 30.6969C247.999 28.0299 248.517 25.1409 248.517 22.033H247.917ZM246.401 30.4784C245.39 33.0533 243.97 35.2811 242.143 37.1652L242.574 37.5828C244.459 35.6389 245.921 33.3427 246.959 30.6976L246.401 30.4784ZM242.143 37.1652C240.318 39.0481 238.119 40.5239 235.545 41.5919L235.775 42.1461C238.42 41.0487 240.688 39.5279 242.574 37.5828L242.143 37.1652ZM235.547 41.5912C232.977 42.6381 230.125 43.164 226.989 43.164V43.764C230.193 43.764 233.123 43.2265 235.773 42.1468L235.547 41.5912ZM226.989 43.164C223.852 43.164 220.991 42.6382 218.401 41.5909L218.176 42.1471C220.845 43.2265 223.784 43.764 226.989 43.764V43.164ZM218.404 41.5919C215.829 40.5238 213.621 39.0476 211.775 37.164L211.346 37.584C213.252 39.5284 215.529 41.0488 218.174 42.1461L218.404 41.5919ZM211.776 37.1652C209.949 35.2811 208.53 33.0533 207.519 30.4784L206.961 30.6976C207.999 33.3427 209.46 35.6389 211.345 37.5828L211.776 37.1652ZM207.519 30.4791C206.509 27.8874 206.003 25.0731 206.003 22.033H205.403C205.403 25.1409 205.921 28.0299 206.96 30.6969L207.519 30.4791ZM206.003 22.033C206.003 18.9929 206.509 16.1885 207.519 13.6166L206.961 13.3974C205.921 16.0455 205.403 18.9251 205.403 22.033H206.003ZM207.519 13.6159C208.53 11.0216 209.95 8.78449 211.776 6.90084L211.345 6.48315C209.46 8.42751 207.999 10.7337 206.96 13.3981L207.519 13.6159ZM211.775 6.90195C213.62 5.01876 215.828 3.5525 218.402 2.50383L218.176 1.94817C215.53 3.02616 213.252 4.53724 211.346 6.48204L211.775 6.90195ZM218.403 2.5034C220.992 1.43728 223.853 0.902 226.989 0.902V0.302C223.783 0.302 220.844 0.849385 218.175 1.9486L218.403 2.5034ZM226.989 0.902C230.125 0.902 232.975 1.43729 235.545 2.5031L235.775 1.94889C233.124 0.849374 230.194 0.302 226.989 0.302V0.902ZM235.545 2.5031C238.119 3.57105 240.318 5.04694 242.143 6.92984L242.574 6.51215C240.688 4.56706 238.42 3.04628 235.775 1.94889L235.545 2.5031ZM242.144 6.93093C243.97 8.79486 245.389 11.0219 246.4 13.6159L246.959 13.3981C245.921 10.7335 244.459 8.43647 242.573 6.51106L242.144 6.93093ZM246.401 13.6166C247.41 16.1885 247.917 18.9929 247.917 22.033H248.517C248.517 18.9251 247.999 16.0455 246.959 13.3974L246.401 13.6166ZM240.513 22.033C240.513 19.7058 240.2 17.6133 239.569 15.7593L239.001 15.9527C239.607 17.7334 239.913 19.7589 239.913 22.033H240.513ZM239.57 15.7629C238.959 13.8919 238.07 12.2978 236.898 10.9871L236.451 11.3869C237.561 12.6282 238.411 14.1468 239 15.9491L239.57 15.7629ZM236.898 10.9871C235.726 9.676 234.297 8.67381 232.613 7.98059L232.385 8.5354C233.988 9.19551 235.342 10.146 236.451 11.3869L236.898 10.9871ZM232.614 7.98107C230.948 7.28688 229.071 6.943 226.989 6.943V7.543C229.005 7.543 230.801 7.87579 232.383 8.53492L232.614 7.98107ZM226.989 6.943C224.906 6.943 223.02 7.2869 221.336 7.98059L221.564 8.5354C223.166 7.87576 224.973 7.543 226.989 7.543V6.943ZM221.336 7.98059C219.652 8.67364 218.214 9.67531 217.023 10.9852L217.467 11.3888C218.596 10.1467 219.96 9.19569 221.564 8.5354L221.336 7.98059ZM217.021 10.9871C215.85 12.2971 214.951 13.8902 214.321 15.7602L214.89 15.9518C215.497 14.1485 216.358 12.6289 217.468 11.3869L217.021 10.9871ZM214.322 15.7593C213.691 17.6133 213.378 19.7058 213.378 22.033H213.978C213.978 19.7589 214.284 17.7334 214.89 15.9527L214.322 15.7593ZM213.378 22.033C213.378 24.3603 213.691 26.4621 214.321 28.3348L214.89 28.1432C214.284 26.3426 213.978 24.307 213.978 22.033H213.378ZM214.322 28.3357C214.952 30.1865 215.851 31.7695 217.021 33.0789L217.468 32.6791C216.358 31.4365 215.497 29.9262 214.89 28.1423L214.322 28.3357ZM217.024 33.0825C218.215 34.3725 219.653 35.3638 221.336 36.0564L221.564 35.5016C219.959 34.8409 218.594 33.8988 217.465 32.6755L217.024 33.0825ZM221.336 36.0564C223.02 36.7501 224.906 37.094 226.989 37.094V36.494C224.973 36.494 223.166 36.1612 221.564 35.5016L221.336 36.0564ZM226.989 37.094C229.071 37.094 230.948 36.7501 232.614 36.0559L232.383 35.5021C230.801 36.1612 229.005 36.494 226.989 36.494V37.094ZM232.613 36.0564C234.295 35.3636 235.725 34.3718 236.897 33.0806L236.453 32.6774C235.343 33.8995 233.989 34.8411 232.385 35.5016L232.613 36.0564ZM236.898 33.0789C238.07 31.7688 238.959 30.1848 239.57 28.333L239 28.145C238.412 29.9278 237.561 31.4372 236.451 32.6791L236.898 33.0789ZM239.569 28.3348C240.2 26.4621 240.513 24.3603 240.513 22.033H239.913C239.913 24.307 239.607 26.3426 239 28.1432L239.569 28.3348ZM262.444 26.615V26.315H262.144V26.615H262.444ZM262.444 43V43.3H262.744V43H262.444ZM254.643 43H254.343V43.3H254.643V43ZM254.643 1.066V0.765997H254.343V1.066H254.643ZM274.769 1.965L274.684 2.25274L274.688 2.25366L274.769 1.965ZM279.786 4.43L279.596 4.66188L279.598 4.66325L279.786 4.43ZM282.657 8.258L282.379 8.37005L282.381 8.37441L282.657 8.258ZM282.947 17.132L282.663 17.0358L282.662 17.0398L282.947 17.132ZM281.149 20.554L280.912 20.3704L280.91 20.3733L281.149 20.554ZM278.249 23.251L278.083 23.0014L278.081 23.0027L278.249 23.251ZM274.334 25.107L274.244 24.8209L273.589 25.028L274.186 25.3678L274.334 25.107ZM276.886 27.514L277.135 27.3457L277.134 27.3444L276.886 27.514ZM287.384 43V43.3H287.95L287.633 42.8317L287.384 43ZM278.626 42.594L278.475 42.8532L278.48 42.8558L278.626 42.594ZM277.437 41.434L277.689 41.2698L277.688 41.2693L277.437 41.434ZM268.621 28.007L268.37 28.1712L268.371 28.1717L268.621 28.007ZM267.519 26.934L267.375 27.1969L267.38 27.1997L267.519 26.934ZM262.444 21.018H262.144V21.318H262.444V21.018ZM271.144 20.467L271.05 20.1824L271.048 20.1829L271.144 20.467ZM273.841 18.959L274.044 19.1801L274.044 19.1799L273.841 18.959ZM273.841 8.809L273.651 9.04105L273.653 9.04232L273.841 8.809ZM262.444 7.098V6.798H262.144V7.098H262.444ZM262.144 26.615V43H262.744V26.615H262.144ZM262.444 42.7H254.643V43.3H262.444V42.7ZM254.943 43V1.066H254.343V43H254.943ZM254.643 1.366H267.432V0.765997H254.643V1.366ZM267.432 1.366C270.274 1.366 272.69 1.66382 274.684 2.25272L274.854 1.67728C272.789 1.06751 270.313 0.765997 267.432 0.765997V1.366ZM274.688 2.25366C276.708 2.82535 278.34 3.63082 279.596 4.66188L279.977 4.19812C278.642 3.10251 276.93 2.26465 274.851 1.67634L274.688 2.25366ZM279.598 4.66325C280.875 5.69625 281.8 6.93131 282.379 8.37004L282.936 8.14596C282.316 6.60735 281.327 5.29041 279.975 4.19675L279.598 4.66325ZM282.381 8.37441C282.982 9.80286 283.285 11.3867 283.285 13.13H283.885C283.885 11.316 283.57 9.6518 282.934 8.14158L282.381 8.37441ZM283.285 13.13C283.285 14.5107 283.077 15.8121 282.663 17.0358L283.232 17.2282C283.668 15.9386 283.885 14.5719 283.885 13.13H283.285ZM282.662 17.0398C282.266 18.2641 281.683 19.3737 280.912 20.3704L281.387 20.7376C282.201 19.6849 282.816 18.5132 283.233 17.2242L282.662 17.0398ZM280.91 20.3733C280.159 21.3688 279.217 22.2451 278.083 23.0014L278.416 23.5006C279.601 22.7102 280.594 21.7885 281.389 20.7347L280.91 20.3733ZM278.081 23.0027C276.967 23.7579 275.689 24.3647 274.244 24.8209L274.425 25.3931C275.919 24.9213 277.25 24.2907 278.418 23.4993L278.081 23.0027ZM274.186 25.3678C275.128 25.9035 275.946 26.6727 276.639 27.6836L277.134 27.3444C276.396 26.2673 275.513 25.4319 274.483 24.8462L274.186 25.3678ZM276.638 27.6823L287.136 43.1683L287.633 42.8317L277.135 27.3457L276.638 27.6823ZM287.384 42.7H280.366V43.3H287.384V42.7ZM280.366 42.7C279.73 42.7 279.203 42.5728 278.773 42.3322L278.48 42.8558C279.017 43.1565 279.65 43.3 280.366 43.3V42.7ZM278.778 42.3349C278.358 42.0903 277.995 41.7382 277.689 41.2698L277.186 41.5982C277.537 42.1352 277.967 42.5564 278.475 42.8531L278.778 42.3349ZM277.688 41.2693L268.872 27.8423L268.371 28.1717L277.187 41.5987L277.688 41.2693ZM268.873 27.8428C268.524 27.3102 268.122 26.9109 267.659 26.6682L267.38 27.1997C267.729 27.3824 268.061 27.6985 268.37 28.1712L268.873 27.8428ZM267.664 26.6711C267.211 26.4221 266.57 26.315 265.779 26.315V26.915C266.535 26.915 267.054 27.0206 267.375 27.1969L267.664 26.6711ZM265.779 26.315H262.444V26.915H265.779V26.315ZM262.444 21.318H267.316V20.718H262.444V21.318ZM267.316 21.318C268.81 21.318 270.12 21.1315 271.241 20.7511L271.048 20.1829C270.004 20.5372 268.762 20.718 267.316 20.718V21.318ZM271.239 20.7516C272.372 20.3739 273.311 19.8524 274.044 19.1801L273.639 18.7379C272.98 19.3416 272.121 19.8254 271.05 20.1824L271.239 20.7516ZM274.044 19.1799C274.793 18.4922 275.351 17.6809 275.716 16.7483L275.157 16.5297C274.826 17.3757 274.321 18.1111 273.638 18.7381L274.044 19.1799ZM275.716 16.7483C276.079 15.8204 276.258 14.8065 276.258 13.71H275.658C275.658 14.7402 275.49 15.6789 275.157 16.5297L275.716 16.7483ZM276.258 13.71C276.258 11.5101 275.524 9.78341 274.03 8.57568L273.653 9.04232C274.981 10.1159 275.658 11.6565 275.658 13.71H276.258ZM274.032 8.57696C272.562 7.37275 270.343 6.798 267.432 6.798V7.398C270.283 7.398 272.337 7.96391 273.651 9.04104L274.032 8.57696ZM267.432 6.798H262.444V7.398H267.432V6.798ZM262.144 7.098V21.018H262.744V7.098H262.144ZM301.175 43V43.3H301.475V43H301.175ZM293.345 43H293.045V43.3H293.345V43ZM293.345 1.066V0.765997H293.045V1.066H293.345ZM301.175 1.066H301.475V0.765997H301.175V1.066ZM301.175 42.7H293.345V43.3H301.175V42.7ZM293.645 43V1.066H293.045V43H293.645ZM293.345 1.366H301.175V0.765997H293.345V1.366ZM300.875 1.066V43H301.475V1.066H300.875ZM340.178 1.066H340.478V0.765997H340.178V1.066ZM340.178 7.475V7.775H340.478V7.475H340.178ZM327.563 7.475V7.175H327.263V7.475H327.563ZM327.563 43V43.3H327.863V43H327.563ZM319.762 43H319.462V43.3H319.762V43ZM319.762 7.475H320.062V7.175H319.762V7.475ZM307.089 7.475H306.789V7.775H307.089V7.475ZM307.089 1.066V0.765997H306.789V1.066H307.089ZM339.878 1.066V7.475H340.478V1.066H339.878ZM340.178 7.175H327.563V7.775H340.178V7.175ZM327.263 7.475V43H327.863V7.475H327.263ZM327.563 42.7H319.762V43.3H327.563V42.7ZM320.062 43V7.475H319.462V43H320.062ZM319.762 7.175H307.089V7.775H319.762V7.175ZM307.389 7.475V1.066H306.789V7.475H307.389ZM307.089 1.366H340.178V0.765997H307.089V1.366ZM371.569 1.066H371.869V0.765997H371.569V1.066ZM371.569 7.272V7.572H371.869V7.272H371.569ZM352.98 7.272V6.972H352.68V7.272H352.98ZM352.98 18.901H352.68V19.201H352.98V18.901ZM367.625 18.901H367.925V18.601H367.625V18.901ZM367.625 24.904V25.204H367.925V24.904H367.625ZM352.98 24.904V24.604H352.68V24.904H352.98ZM352.98 36.765H352.68V37.065H352.98V36.765ZM371.569 36.765H371.869V36.465H371.569V36.765ZM371.569 43V43.3H371.869V43H371.569ZM345.121 43H344.821V43.3H345.121V43ZM345.121 1.066V0.765997H344.821V1.066H345.121ZM371.269 1.066V7.272H371.869V1.066H371.269ZM371.569 6.972H352.98V7.572H371.569V6.972ZM352.68 7.272V18.901H353.28V7.272H352.68ZM352.98 19.201H367.625V18.601H352.98V19.201ZM367.325 18.901V24.904H367.925V18.901H367.325ZM367.625 24.604H352.98V25.204H367.625V24.604ZM352.68 24.904V36.765H353.28V24.904H352.68ZM352.98 37.065H371.569V36.465H352.98V37.065ZM371.269 36.765V43H371.869V36.765H371.269ZM371.569 42.7H345.121V43.3H371.569V42.7ZM345.421 43V1.066H344.821V43H345.421ZM345.121 1.366H371.569V0.765997H345.121V1.366ZM412.002 8.693L411.736 8.55464L411.734 8.55883L412.002 8.693ZM411.248 9.592L411.094 9.33463L411.086 9.33964L411.248 9.592ZM408.957 9.418L408.795 9.67078L408.803 9.67524L408.957 9.418ZM407.246 8.403L407.392 8.14111L407.392 8.14111L407.246 8.403ZM404.926 7.417L404.825 7.69976L404.833 7.70222L404.926 7.417ZM398.981 7.359L399.072 7.645L399.076 7.6436L398.981 7.359ZM396.951 8.432L396.76 8.20085L396.756 8.20422L396.951 8.432ZM395.733 10.114L396.009 10.2312L396.01 10.2282L395.733 10.114ZM396.139 14.696L395.907 14.8867L395.911 14.8907L396.139 14.696ZM401.446 17.625L401.537 17.339L401.537 17.339L401.446 17.625ZM404.984 18.814L404.884 19.0968L404.889 19.0986L404.984 18.814ZM408.551 20.264L408.42 20.5341L408.424 20.5359L408.551 20.264ZM411.654 22.352L411.449 22.571L411.451 22.5733L411.654 22.352ZM413.829 25.426L413.555 25.5479L413.556 25.5514L413.829 25.426ZM413.684 35.199L413.405 35.0887L413.404 35.0904L413.684 35.199ZM410.842 39.52L411.052 39.7338L411.052 39.7338L410.842 39.52ZM406.289 42.42L406.397 42.6998L406.4 42.6987L406.289 42.42ZM396.168 43.058L396.229 42.7643L396.225 42.7635L396.168 43.058ZM392.427 41.956L392.313 42.2336L392.315 42.2342L392.427 41.956ZM389.092 40.216L388.927 40.4663L388.929 40.4677L389.092 40.216ZM386.337 37.954L386.08 37.7988L385.96 37.9975L386.122 38.1636L386.337 37.954ZM388.599 34.213L388.363 34.0277L388.352 34.0421L388.342 34.0578L388.599 34.213ZM389.353 33.546L389.507 33.8033L389.512 33.8004L389.353 33.546ZM391.934 33.865L391.758 34.108L391.764 34.112L391.934 33.865ZM393.906 35.17L393.744 35.4226L393.747 35.4244L393.906 35.17ZM396.603 36.504L396.492 36.783L396.499 36.7853L396.603 36.504ZM405.506 35.518L405.701 35.7458L405.703 35.744L405.506 35.518ZM406.492 28.268L406.255 28.4522L406.258 28.4562L406.492 28.268ZM404.317 26.528L404.176 26.7929L404.181 26.7952L404.317 26.528ZM401.214 25.31L401.132 25.5986L401.132 25.5986L401.214 25.31ZM397.676 24.237L397.584 24.5225L397.584 24.5225L397.676 24.237ZM391.035 20.728L390.827 20.9447L390.827 20.9447L391.035 20.728ZM388.831 17.48L388.554 17.5942L388.556 17.5992L388.831 17.48ZM388.918 8.171L388.642 8.05326L388.641 8.0564L388.918 8.171ZM391.586 4.314L391.379 4.09658L391.377 4.0983L391.586 4.314ZM408.58 1.762L408.476 2.04332L408.476 2.04332L408.58 1.762ZM413.916 5.01L414.182 5.14834L414.286 4.94771L414.122 4.79221L413.916 5.01ZM411.734 8.55883C411.537 8.95297 411.319 9.19974 411.094 9.33475L411.402 9.84925C411.757 9.63626 412.042 9.28369 412.27 8.82716L411.734 8.55883ZM411.086 9.33964C410.872 9.47675 410.603 9.553 410.262 9.553V10.153C410.694 10.153 411.082 10.0552 411.41 9.84435L411.086 9.33964ZM410.262 9.553C409.949 9.553 409.568 9.4348 409.111 9.16075L408.803 9.67524C409.313 9.9812 409.802 10.153 410.262 10.153V9.553ZM409.119 9.16531C408.629 8.85195 408.053 8.51052 407.392 8.14111L407.1 8.66488C407.753 9.03014 408.318 9.36538 408.795 9.67068L409.119 9.16531ZM407.392 8.14111C406.715 7.76234 405.923 7.42643 405.019 7.13178L404.833 7.70222C405.708 7.98757 406.463 8.30899 407.1 8.66488L407.392 8.14111ZM405.026 7.13433C404.116 6.81068 403.046 6.653 401.823 6.653V7.253C402.997 7.253 403.996 7.40465 404.825 7.69966L405.026 7.13433ZM401.823 6.653C400.716 6.653 399.736 6.79124 398.886 7.07439L399.076 7.6436C399.85 7.38542 400.764 7.253 401.823 7.253V6.653ZM398.89 7.07303C398.066 7.33436 397.354 7.70905 396.76 8.20088L397.142 8.66312C397.669 8.22695 398.311 7.8863 399.072 7.64497L398.89 7.07303ZM396.756 8.20422C396.179 8.69896 395.744 9.2985 395.456 9.99977L396.01 10.2282C396.263 9.61483 396.641 9.09304 397.146 8.65978L396.756 8.20422ZM395.457 9.99683C395.169 10.676 395.027 11.4221 395.027 12.231H395.627C395.627 11.4933 395.756 10.828 396.009 10.2312L395.457 9.99683ZM395.027 12.231C395.027 13.275 395.315 14.1674 395.907 14.8867L396.371 14.5053C395.88 13.91 395.627 13.159 395.627 12.231H395.027ZM395.911 14.8907C396.501 15.5829 397.269 16.1665 398.207 16.6452L398.479 16.1108C397.6 15.6615 396.898 15.1238 396.367 14.5013L395.911 14.8907ZM398.207 16.6452C399.132 17.118 400.183 17.5396 401.355 17.911L401.537 17.339C400.389 16.9757 399.371 16.566 398.479 16.1108L398.207 16.6452ZM401.355 17.911C402.512 18.2773 403.688 18.6725 404.884 19.0967L405.084 18.5313C403.883 18.1048 402.7 17.7074 401.537 17.339L401.355 17.911ZM404.889 19.0986C406.095 19.5005 407.272 19.979 408.42 20.5341L408.682 19.9939C407.51 19.4277 406.309 18.9395 405.079 18.5294L404.889 19.0986ZM408.424 20.5359C409.556 21.0642 410.564 21.7426 411.449 22.571L411.859 22.133C410.927 21.2601 409.866 20.5465 408.678 19.9921L408.424 20.5359ZM411.451 22.5733C412.327 23.3746 413.029 24.3644 413.555 25.5478L414.103 25.3042C413.546 24.0516 412.798 22.9921 411.856 22.1307L411.451 22.5733ZM413.556 25.5514C414.094 26.7202 414.37 28.1539 414.37 29.863H414.97C414.97 28.0921 414.685 26.5678 414.101 25.3006L413.556 25.5514ZM414.37 29.863C414.37 31.7222 414.048 33.4632 413.405 35.0887L413.963 35.3093C414.635 33.6095 414.97 31.7931 414.97 29.863H414.37ZM413.404 35.0904C412.782 36.6942 411.858 38.0987 410.631 39.3062L411.052 39.7338C412.339 38.4667 413.31 36.9905 413.964 35.3076L413.404 35.0904ZM410.632 39.3062C409.426 40.4931 407.943 41.439 406.178 42.1413L406.4 42.6987C408.231 41.9703 409.783 40.9829 411.052 39.7338L410.632 39.3062ZM406.181 42.1402C404.423 42.8204 402.402 43.164 400.112 43.164V43.764C402.462 43.764 404.558 43.4116 406.397 42.6998L406.181 42.1402ZM400.112 43.164C398.798 43.164 397.504 43.0308 396.229 42.7643L396.107 43.3517C397.422 43.6266 398.758 43.764 400.112 43.764V43.164ZM396.225 42.7635C394.948 42.5157 393.72 42.1538 392.539 41.6778L392.315 42.2342C393.532 42.7249 394.797 43.0976 396.111 43.3525L396.225 42.7635ZM392.541 41.6784C391.378 41.202 390.283 40.6305 389.255 39.9643L388.929 40.4677C389.989 41.1548 391.117 41.7434 392.313 42.2336L392.541 41.6784ZM389.257 39.9657C388.249 39.3001 387.348 38.5596 386.552 37.7444L386.122 38.1636C386.95 39.0111 387.885 39.7786 388.927 40.4663L389.257 39.9657ZM386.594 38.1092L388.856 34.3682L388.342 34.0578L386.08 37.7988L386.594 38.1092ZM388.835 34.3983C389.025 34.1559 389.249 33.9581 389.507 33.8032L389.199 33.2888C388.877 33.4819 388.598 33.7288 388.363 34.0277L388.835 34.3983ZM389.512 33.8004C389.773 33.6371 390.056 33.556 390.368 33.556V32.956C389.945 32.956 389.551 33.0682 389.194 33.2916L389.512 33.8004ZM390.368 33.556C390.766 33.556 391.227 33.7236 391.758 34.108L392.11 33.622C391.519 33.1944 390.937 32.956 390.368 32.956V33.556ZM391.764 34.112C392.328 34.501 392.988 34.9379 393.744 35.4226L394.068 34.9174C393.316 34.4354 392.661 34.0023 392.104 33.618L391.764 34.112ZM393.747 35.4244C394.538 35.9191 395.454 36.3715 396.492 36.7829L396.713 36.2251C395.702 35.8244 394.82 35.3876 394.065 34.9156L393.747 35.4244ZM396.499 36.7853C397.585 37.1874 398.869 37.384 400.344 37.384V36.784C398.919 36.784 397.709 36.5939 396.707 36.2227L396.499 36.7853ZM400.344 37.384C402.611 37.384 404.411 36.8516 405.701 35.7458L405.311 35.2902C404.165 36.2724 402.523 36.784 400.344 36.784V37.384ZM405.703 35.744C407.001 34.6114 407.633 33.0029 407.633 30.965H407.033C407.033 32.8711 406.447 34.298 405.309 35.292L405.703 35.744ZM407.633 30.965C407.633 29.8109 407.338 28.8406 406.726 28.0798L406.258 28.4562C406.767 29.0874 407.033 29.9151 407.033 30.965H407.633ZM406.729 28.0838C406.157 27.3481 405.395 26.7417 404.453 26.2608L404.181 26.7952C405.056 27.2423 405.745 27.7959 406.255 28.4522L406.729 28.0838ZM404.458 26.2631C403.528 25.7683 402.473 25.3549 401.296 25.0214L401.132 25.5986C402.275 25.9225 403.289 26.3211 404.176 26.7929L404.458 26.2631ZM401.296 25.0214C400.139 24.6937 398.963 24.3371 397.768 23.9515L397.584 24.5225C398.786 24.9102 399.969 25.2689 401.132 25.5986L401.296 25.0214ZM397.768 23.9515C396.581 23.5687 395.414 23.1093 394.265 22.5731L394.011 23.1169C395.182 23.6634 396.373 24.132 397.584 24.5225L397.768 23.9515ZM394.265 22.5731C393.134 22.0454 392.127 21.3582 391.242 20.5113L390.827 20.9447C391.76 21.8378 392.822 22.5619 394.011 23.1169L394.265 22.5731ZM391.242 20.5113C390.366 19.6722 389.653 18.6239 389.106 17.3608L388.556 17.5992C389.13 18.9267 389.887 20.0438 390.827 20.9447L391.242 20.5113ZM389.108 17.3658C388.586 16.0975 388.319 14.5246 388.319 12.637H387.719C387.719 14.5774 387.993 16.2331 388.554 17.5942L389.108 17.3658ZM388.319 12.637C388.319 11.1501 388.61 9.70027 389.195 8.28559L388.641 8.0564C388.027 9.54173 387.719 11.0693 387.719 12.637H388.319ZM389.194 8.28873C389.796 6.87643 390.663 5.62387 391.794 4.52969L391.377 4.0983C390.189 5.2468 389.277 6.56557 388.642 8.05327L389.194 8.28873ZM391.793 4.53141C392.941 3.43955 394.348 2.56004 396.018 1.89576L395.796 1.33824C394.064 2.02729 392.59 2.94578 391.379 4.09659L391.793 4.53141ZM396.018 1.89576C397.678 1.23555 399.582 0.902 401.736 0.902V0.302C399.521 0.302 397.539 0.645112 395.796 1.33824L396.018 1.89576ZM401.736 0.902C404.179 0.902 406.425 1.28364 408.476 2.04332L408.684 1.48067C406.559 0.69369 404.242 0.302 401.736 0.302V0.902ZM408.476 2.04332C410.53 2.804 412.273 3.86631 413.71 5.22778L414.122 4.79221C412.621 3.36968 410.806 2.26666 408.684 1.48067L408.476 2.04332ZM413.65 4.87166L411.736 8.55466L412.268 8.83134L414.182 5.14834L413.65 4.87166ZM456.003 43V43.3H456.303V43H456.003ZM448.144 43H447.844V43.3H448.144V43ZM448.144 24.672H448.444V24.372H448.144V24.672ZM428.482 24.672V24.372H428.182V24.672H428.482ZM428.482 43V43.3H428.782V43H428.482ZM420.623 43H420.323V43.3H420.623V43ZM420.623 1.066V0.765997H420.323V1.066H420.623ZM428.482 1.066H428.782V0.765997H428.482V1.066ZM428.482 19.104H428.182V19.404H428.482V19.104ZM448.144 19.104V19.404H448.444V19.104H448.144ZM448.144 1.066V0.765997H447.844V1.066H448.144ZM456.003 1.066H456.303V0.765997H456.003V1.066ZM456.003 42.7H448.144V43.3H456.003V42.7ZM448.444 43V24.672H447.844V43H448.444ZM448.144 24.372H428.482V24.972H448.144V24.372ZM428.182 24.672V43H428.782V24.672H428.182ZM428.482 42.7H420.623V43.3H428.482V42.7ZM420.923 43V1.066H420.323V43H420.923ZM420.623 1.366H428.482V0.765997H420.623V1.366ZM428.182 1.066V19.104H428.782V1.066H428.182ZM428.482 19.404H448.144V18.804H428.482V19.404ZM448.444 19.104V1.066H447.844V19.104H448.444ZM448.144 1.366H456.003V0.765997H448.144V1.366ZM455.703 1.066V43H456.303V1.066H455.703ZM503.149 30.588L503.428 30.6976L503.428 30.6969L503.149 30.588ZM498.828 37.374L499.043 37.5828L499.043 37.5828L498.828 37.374ZM492.129 41.869L492.242 42.1468L492.243 42.1461L492.129 41.869ZM474.758 41.869L474.643 42.1461L474.645 42.1471L474.758 41.869ZM468.03 37.374L467.814 37.5828L467.815 37.584L468.03 37.374ZM463.709 30.588L463.429 30.6969L463.429 30.6976L463.709 30.588ZM463.709 13.507L463.988 13.6166L463.988 13.6159L463.709 13.507ZM468.03 6.692L467.815 6.48204L467.814 6.48315L468.03 6.692ZM474.758 2.226L474.871 2.50383L474.872 2.5034L474.758 2.226ZM498.828 6.721L498.612 6.92985L498.613 6.93093L498.828 6.721ZM503.149 13.507L502.869 13.6159L502.869 13.6166L503.149 13.507ZM495.754 15.856L495.468 15.9491L495.47 15.9527L495.754 15.856ZM493.144 11.187L493.367 10.9871L493.367 10.9871L493.144 11.187ZM488.968 8.258L488.852 8.53492L488.853 8.5354L488.968 8.258ZM477.919 8.258L477.804 7.98059L477.804 7.98059L477.919 8.258ZM473.714 11.187L473.492 10.9852L473.49 10.9871L473.714 11.187ZM471.075 15.856L471.359 15.9527L471.359 15.9518L471.075 15.856ZM471.075 28.239L470.79 28.3348L470.791 28.3357L471.075 28.239ZM473.714 32.879L473.49 33.079L473.493 33.0825L473.714 32.879ZM477.919 35.779L477.804 36.0564L477.804 36.0564L477.919 35.779ZM488.968 35.779L488.853 35.5016L488.852 35.5021L488.968 35.779ZM493.144 32.879L493.366 33.0806L493.367 33.0789L493.144 32.879ZM495.754 28.239L495.469 28.1432L495.469 28.145L495.754 28.239ZM504.386 22.033C504.386 25.0731 503.879 27.8874 502.869 30.4791L503.428 30.6969C504.467 28.0299 504.986 25.1409 504.986 22.033H504.386ZM502.869 30.4784C501.858 33.0533 500.439 35.2811 498.612 37.1652L499.043 37.5828C500.928 35.6389 502.389 33.3427 503.428 30.6976L502.869 30.4784ZM498.612 37.1652C496.786 39.0481 494.588 40.5239 492.014 41.5919L492.243 42.1461C494.889 41.0487 497.157 39.5279 499.043 37.5828L498.612 37.1652ZM492.015 41.5912C489.445 42.6381 486.594 43.164 483.458 43.164V43.764C486.662 43.764 489.592 43.2265 492.242 42.1468L492.015 41.5912ZM483.458 43.164C480.321 43.164 477.46 42.6382 474.87 41.5909L474.645 42.1471C477.314 43.2265 480.253 43.764 483.458 43.764V43.164ZM474.872 41.5919C472.298 40.5238 470.089 39.0476 468.244 37.164L467.815 37.584C469.72 39.5284 471.997 41.0488 474.643 42.1461L474.872 41.5919ZM468.245 37.1652C466.418 35.2811 464.999 33.0533 463.988 30.4784L463.429 30.6976C464.468 33.3427 465.929 35.6389 467.814 37.5828L468.245 37.1652ZM463.988 30.4791C462.978 27.8874 462.472 25.0731 462.472 22.033H461.872C461.872 25.1409 462.39 28.0299 463.429 30.6969L463.988 30.4791ZM462.472 22.033C462.472 18.9929 462.978 16.1885 463.988 13.6166L463.429 13.3974C462.39 16.0455 461.872 18.9251 461.872 22.033H462.472ZM463.988 13.6159C464.999 11.0216 466.418 8.78449 468.245 6.90084L467.814 6.48315C465.929 8.42751 464.467 10.7337 463.429 13.3981L463.988 13.6159ZM468.244 6.90195C470.089 5.01876 472.297 3.5525 474.871 2.50383L474.644 1.94817C471.998 3.02616 469.721 4.53724 467.815 6.48204L468.244 6.90195ZM474.872 2.5034C477.461 1.43728 480.322 0.902 483.458 0.902V0.302C480.252 0.302 477.313 0.849385 474.643 1.9486L474.872 2.5034ZM483.458 0.902C486.594 0.902 489.444 1.43729 492.014 2.5031L492.243 1.94889C489.593 0.849374 486.663 0.302 483.458 0.302V0.902ZM492.014 2.5031C494.588 3.57105 496.786 5.04694 498.612 6.92984L499.043 6.51215C497.157 4.56706 494.889 3.04628 492.243 1.94889L492.014 2.5031ZM498.613 6.93093C500.439 8.79486 501.858 11.0219 502.869 13.6159L503.428 13.3981C502.39 10.7335 500.928 8.43647 499.042 6.51106L498.613 6.93093ZM502.869 13.6166C503.879 16.1885 504.386 18.9929 504.386 22.033H504.986C504.986 18.9251 504.467 16.0455 503.428 13.3974L502.869 13.6166ZM496.982 22.033C496.982 19.7058 496.669 17.6133 496.038 15.7593L495.47 15.9527C496.076 17.7334 496.382 19.7589 496.382 22.033H496.982ZM496.039 15.7629C495.428 13.8919 494.539 12.2978 493.367 10.9871L492.92 11.3869C494.029 12.6282 494.88 14.1468 495.468 15.9491L496.039 15.7629ZM493.367 10.9871C492.195 9.676 490.765 8.67381 489.082 7.98059L488.853 8.5354C490.456 9.19551 491.811 10.146 492.92 11.3869L493.367 10.9871ZM489.083 7.98107C487.417 7.28688 485.54 6.943 483.458 6.943V7.543C485.474 7.543 487.27 7.87579 488.852 8.53492L489.083 7.98107ZM483.458 6.943C481.375 6.943 479.489 7.2869 477.804 7.98059L478.033 8.5354C479.635 7.87576 481.441 7.543 483.458 7.543V6.943ZM477.804 7.98059C476.121 8.67364 474.682 9.67531 473.492 10.9852L473.935 11.3888C475.065 10.1467 476.429 9.19569 478.033 8.5354L477.804 7.98059ZM473.49 10.9871C472.319 12.2971 471.42 13.8902 470.79 15.7602L471.359 15.9518C471.966 14.1485 472.827 12.6289 473.937 11.3869L473.49 10.9871ZM470.791 15.7593C470.159 17.6133 469.847 19.7058 469.847 22.033H470.447C470.447 19.7589 470.752 17.7334 471.359 15.9527L470.791 15.7593ZM469.847 22.033C469.847 24.3603 470.159 26.4621 470.79 28.3348L471.359 28.1432C470.752 26.3426 470.447 24.307 470.447 22.033H469.847ZM470.791 28.3357C471.421 30.1865 472.319 31.7695 473.49 33.0789L473.937 32.6791C472.826 31.4365 471.966 29.9262 471.359 28.1423L470.791 28.3357ZM473.493 33.0825C474.684 34.3725 476.122 35.3638 477.804 36.0564L478.033 35.5016C476.428 34.8409 475.063 33.8988 473.934 32.6755L473.493 33.0825ZM477.804 36.0564C479.489 36.7501 481.375 37.094 483.458 37.094V36.494C481.441 36.494 479.635 36.1612 478.033 35.5016L477.804 36.0564ZM483.458 37.094C485.54 37.094 487.417 36.7501 489.083 36.0559L488.852 35.5021C487.27 36.1612 485.474 36.494 483.458 36.494V37.094ZM489.082 36.0564C490.764 35.3636 492.194 34.3718 493.366 33.0806L492.921 32.6774C491.812 33.8995 490.457 34.8411 488.853 35.5016L489.082 36.0564ZM493.367 33.0789C494.538 31.7688 495.428 30.1848 496.038 28.333L495.469 28.145C494.881 29.9278 494.03 31.4372 492.92 32.6791L493.367 33.0789ZM496.038 28.3348C496.669 26.4621 496.982 24.3603 496.982 22.033H496.382C496.382 24.307 496.076 26.3426 495.469 28.1432L496.038 28.3348ZM506.965 1.066V0.765997H506.558L506.679 1.15496L506.965 1.066ZM515.201 1.559L515.023 1.80025L515.029 1.80458L515.035 1.80861L515.201 1.559ZM516.129 2.835L516.418 2.75293L516.418 2.75258L516.129 2.835ZM523.263 27.92L523.552 27.8388L523.552 27.8379L523.263 27.92ZM523.727 29.95L523.432 30.0044L523.434 30.0134L523.727 29.95ZM524.162 32.241L523.866 32.2903L524.457 32.2971L524.162 32.241ZM524.655 29.95L524.365 29.8736L524.364 29.8791L524.655 29.95ZM525.264 27.92L525.548 28.0175L525.549 28.0136L525.264 27.92ZM533.5 2.835L533.217 2.73643L533.215 2.74141L533.5 2.835ZM534.399 1.617L534.213 1.38173L534.208 1.38571L534.399 1.617ZM540.054 1.559L539.876 1.80035L539.883 1.80527L540.054 1.559ZM540.982 2.835L540.697 2.9268L540.697 2.92798L540.982 2.835ZM549.16 27.92L548.875 28.013L548.876 28.0175L549.16 27.92ZM550.262 32.038L549.968 32.0983L550.557 32.091L550.262 32.038ZM550.668 29.863L550.375 29.7979L550.374 29.8057L550.668 29.863ZM551.132 27.92L550.844 27.8379L550.842 27.845L551.132 27.92ZM558.266 2.835L558.555 2.91706L558.555 2.91589L558.266 2.835ZM559.165 1.588L558.985 1.348L558.985 1.348L559.165 1.588ZM566.966 1.066L567.253 1.15496L567.373 0.765997H566.966V1.066ZM553.945 43V43.3H554.166L554.232 43.089L553.945 43ZM546.898 43L546.612 43.0914L546.679 43.3H546.898V43ZM537.734 14.348L537.448 14.4383L537.448 14.4394L537.734 14.348ZM537.357 13.159L537.068 13.238L537.071 13.25L537.357 13.159ZM537.009 11.796L537.301 11.726L536.717 11.726L537.009 11.796ZM536.632 13.159L536.346 13.068L536.343 13.0801L536.632 13.159ZM536.284 14.348L536.57 14.4402L536.57 14.4383L536.284 14.348ZM527.033 43V43.3H527.252L527.319 43.0922L527.033 43ZM519.986 43L519.7 43.089L519.765 43.3H519.986V43ZM506.965 1.366H513.519V0.765997H506.965V1.366ZM513.519 1.366C514.146 1.366 514.64 1.51762 515.023 1.80025L515.38 1.31775C514.873 0.943046 514.245 0.765997 513.519 0.765997V1.366ZM515.035 1.80861C515.439 2.07805 515.705 2.44381 515.841 2.91741L516.418 2.75258C516.244 2.14352 515.891 1.65862 515.368 1.30938L515.035 1.80861ZM515.841 2.91706L522.975 28.0021L523.552 27.8379L516.418 2.75293L515.841 2.91706ZM522.974 28.0012C523.146 28.6097 523.298 29.2773 523.432 30.0043L524.022 29.8957C523.885 29.1533 523.729 28.4676 523.552 27.8388L522.974 28.0012ZM523.434 30.0134C523.588 30.7235 523.732 31.4825 523.866 32.2903L524.458 32.1917C524.322 31.3755 524.176 30.6071 524.02 29.8866L523.434 30.0134ZM524.457 32.2971C524.611 31.4895 524.774 30.7308 524.947 30.0209L524.364 29.8791C524.188 30.5999 524.023 31.3685 523.867 32.1849L524.457 32.2971ZM524.945 30.0263C525.137 29.2977 525.338 28.6282 525.548 28.0175L524.98 27.8225C524.765 28.4491 524.56 29.133 524.365 29.8737L524.945 30.0263ZM525.549 28.0136L533.785 2.92858L533.215 2.74141L524.979 27.8264L525.549 28.0136ZM533.784 2.93355C533.917 2.55128 534.178 2.18852 534.59 1.84829L534.208 1.38571C533.731 1.78015 533.393 2.22938 533.217 2.73644L533.784 2.93355ZM534.585 1.85221C534.991 1.53151 535.484 1.366 536.081 1.366V0.765997C535.364 0.765997 534.736 0.967822 534.213 1.38179L534.585 1.85221ZM536.081 1.366H538.372V0.765997H536.081V1.366ZM538.372 1.366C538.999 1.366 539.493 1.51762 539.876 1.80025L540.233 1.31775C539.726 0.943046 539.098 0.765997 538.372 0.765997V1.366ZM539.883 1.80527C540.271 2.07508 540.542 2.44476 540.697 2.9268L541.268 2.74319C541.075 2.14257 540.727 1.66158 540.226 1.31273L539.883 1.80527ZM540.697 2.92798L548.875 28.013L549.445 27.827L541.267 2.74201L540.697 2.92798ZM548.876 28.0175C549.297 29.2408 549.661 30.6008 549.968 32.0983L550.556 31.9777C550.245 30.4592 549.874 29.0739 549.444 27.8225L548.876 28.0175ZM550.557 32.091C550.693 31.3383 550.828 30.6147 550.963 29.9203L550.374 29.8057C550.238 30.5033 550.102 31.2297 549.967 31.985L550.557 32.091ZM550.961 29.9281C551.115 29.2349 551.269 28.5906 551.423 27.995L550.842 27.845C550.686 28.4481 550.531 29.0991 550.375 29.7979L550.961 29.9281ZM551.421 28.0021L558.555 2.91706L557.978 2.75293L550.844 27.8379L551.421 28.0021ZM558.555 2.91589C558.67 2.50572 558.925 2.14281 559.345 1.828L558.985 1.348C558.477 1.72918 558.133 2.1976 557.977 2.75411L558.555 2.91589ZM559.345 1.828C559.75 1.52405 560.246 1.366 560.847 1.366V0.765997C560.134 0.765997 559.508 0.955946 558.985 1.348L559.345 1.828ZM560.847 1.366H566.966V0.765997H560.847V1.366ZM566.68 0.977034L553.659 42.911L554.232 43.089L567.253 1.15496L566.68 0.977034ZM553.945 42.7H546.898V43.3H553.945V42.7ZM547.184 42.9086L538.02 14.2566L537.448 14.4394L546.612 43.0914L547.184 42.9086ZM538.02 14.2577C537.904 13.8901 537.778 13.4935 537.643 13.068L537.071 13.25C537.207 13.6751 537.332 14.0712 537.448 14.4383L538.02 14.2577ZM537.647 13.0801C537.532 12.658 537.416 12.2067 537.301 11.726L536.717 11.866C536.834 12.352 536.951 12.8093 537.068 13.2379L537.647 13.0801ZM536.717 11.726C536.603 12.203 536.479 12.6503 536.346 13.068L536.918 13.25C537.056 12.817 537.183 12.3556 537.301 11.866L536.717 11.726ZM536.343 13.0801C536.228 13.5021 536.113 13.8946 535.998 14.2577L536.57 14.4383C536.688 14.0667 536.805 13.6666 536.922 13.2379L536.343 13.0801ZM535.999 14.2558L526.748 42.9078L527.319 43.0922L536.57 14.4402L535.999 14.2558ZM527.033 42.7H519.986V43.3H527.033V42.7ZM520.273 42.911L507.252 0.977034L506.679 1.15496L519.7 43.089L520.273 42.911ZM594.045 8.693L593.779 8.55464L593.777 8.55883L594.045 8.693ZM593.291 9.592L593.137 9.33463L593.129 9.33964L593.291 9.592ZM591 9.418L590.838 9.67078L590.846 9.67524L591 9.418ZM589.289 8.403L589.435 8.14111L589.435 8.14111L589.289 8.403ZM586.969 7.417L586.868 7.69976L586.876 7.70222L586.969 7.417ZM581.024 7.359L581.115 7.645L581.119 7.6436L581.024 7.359ZM578.994 8.432L578.803 8.20085L578.799 8.20422L578.994 8.432ZM577.776 10.114L578.052 10.2312L578.053 10.2282L577.776 10.114ZM578.182 14.696L577.95 14.8867L577.954 14.8907L578.182 14.696ZM583.489 17.625L583.58 17.339L583.58 17.339L583.489 17.625ZM587.027 18.814L586.927 19.0968L586.932 19.0986L587.027 18.814ZM590.594 20.264L590.463 20.5341L590.467 20.5359L590.594 20.264ZM593.697 22.352L593.492 22.571L593.494 22.5733L593.697 22.352ZM595.872 25.426L595.598 25.5479L595.599 25.5514L595.872 25.426ZM595.727 35.199L595.448 35.0887L595.447 35.0904L595.727 35.199ZM592.885 39.52L593.095 39.7338L593.095 39.7338L592.885 39.52ZM588.332 42.42L588.44 42.6998L588.443 42.6987L588.332 42.42ZM578.211 43.058L578.272 42.7643L578.268 42.7635L578.211 43.058ZM574.47 41.956L574.356 42.2336L574.358 42.2342L574.47 41.956ZM571.135 40.216L570.97 40.4663L570.972 40.4677L571.135 40.216ZM568.38 37.954L568.123 37.7988L568.003 37.9975L568.165 38.1636L568.38 37.954ZM570.642 34.213L570.406 34.0277L570.395 34.0421L570.385 34.0578L570.642 34.213ZM571.396 33.546L571.55 33.8033L571.555 33.8004L571.396 33.546ZM573.977 33.865L573.801 34.108L573.807 34.112L573.977 33.865ZM575.949 35.17L575.787 35.4226L575.79 35.4244L575.949 35.17ZM578.646 36.504L578.535 36.783L578.542 36.7853L578.646 36.504ZM587.549 35.518L587.744 35.7458L587.746 35.744L587.549 35.518ZM588.535 28.268L588.298 28.4522L588.301 28.4562L588.535 28.268ZM586.36 26.528L586.219 26.7929L586.224 26.7952L586.36 26.528ZM583.257 25.31L583.175 25.5986L583.175 25.5986L583.257 25.31ZM579.719 24.237L579.627 24.5225L579.627 24.5225L579.719 24.237ZM573.078 20.728L572.87 20.9447L572.87 20.9447L573.078 20.728ZM570.874 17.48L570.596 17.5942L570.599 17.5992L570.874 17.48ZM570.961 8.171L570.685 8.05326L570.684 8.0564L570.961 8.171ZM573.629 4.314L573.422 4.09658L573.42 4.0983L573.629 4.314ZM590.623 1.762L590.519 2.04332L590.519 2.04332L590.623 1.762ZM595.959 5.01L596.225 5.14834L596.329 4.94771L596.165 4.79221L595.959 5.01ZM593.777 8.55883C593.58 8.95297 593.362 9.19974 593.137 9.33475L593.445 9.84925C593.8 9.63626 594.085 9.28369 594.313 8.82716L593.777 8.55883ZM593.129 9.33964C592.915 9.47675 592.646 9.553 592.305 9.553V10.153C592.737 10.153 593.125 10.0552 593.453 9.84435L593.129 9.33964ZM592.305 9.553C591.992 9.553 591.611 9.4348 591.154 9.16075L590.846 9.67524C591.356 9.9812 591.845 10.153 592.305 10.153V9.553ZM591.162 9.16531C590.672 8.85195 590.096 8.51052 589.435 8.14111L589.143 8.66488C589.796 9.03014 590.361 9.36538 590.838 9.67068L591.162 9.16531ZM589.435 8.14111C588.757 7.76234 587.966 7.42643 587.062 7.13178L586.876 7.70222C587.751 7.98757 588.506 8.30899 589.143 8.66488L589.435 8.14111ZM587.069 7.13433C586.159 6.81068 585.089 6.653 583.866 6.653V7.253C585.04 7.253 586.039 7.40465 586.868 7.69966L587.069 7.13433ZM583.866 6.653C582.759 6.653 581.779 6.79124 580.929 7.07439L581.119 7.6436C581.893 7.38542 582.807 7.253 583.866 7.253V6.653ZM580.933 7.07303C580.109 7.33436 579.397 7.70905 578.803 8.20088L579.185 8.66312C579.712 8.22695 580.353 7.8863 581.115 7.64497L580.933 7.07303ZM578.799 8.20422C578.222 8.69896 577.787 9.2985 577.499 9.99977L578.053 10.2282C578.306 9.61483 578.684 9.09304 579.189 8.65978L578.799 8.20422ZM577.5 9.99683C577.212 10.676 577.07 11.4221 577.07 12.231H577.67C577.67 11.4933 577.799 10.828 578.052 10.2312L577.5 9.99683ZM577.07 12.231C577.07 13.275 577.358 14.1674 577.95 14.8867L578.414 14.5053C577.923 13.91 577.67 13.159 577.67 12.231H577.07ZM577.954 14.8907C578.544 15.5829 579.312 16.1665 580.25 16.6452L580.522 16.1108C579.643 15.6615 578.941 15.1238 578.41 14.5013L577.954 14.8907ZM580.25 16.6452C581.175 17.118 582.225 17.5396 583.398 17.911L583.58 17.339C582.432 16.9757 581.414 16.566 580.522 16.1108L580.25 16.6452ZM583.398 17.911C584.555 18.2773 585.731 18.6725 586.927 19.0967L587.127 18.5313C585.926 18.1048 584.743 17.7074 583.58 17.339L583.398 17.911ZM586.932 19.0986C588.138 19.5005 589.315 19.979 590.463 20.5341L590.724 19.9939C589.553 19.4277 588.352 18.9395 587.122 18.5294L586.932 19.0986ZM590.467 20.5359C591.599 21.0642 592.607 21.7426 593.492 22.571L593.902 22.133C592.97 21.2601 591.909 20.5465 590.721 19.9921L590.467 20.5359ZM593.494 22.5733C594.37 23.3746 595.072 24.3644 595.598 25.5478L596.146 25.3042C595.589 24.0516 594.841 22.9921 593.899 22.1307L593.494 22.5733ZM595.599 25.5514C596.137 26.7202 596.413 28.1539 596.413 29.863H597.013C597.013 28.0921 596.728 26.5678 596.144 25.3006L595.599 25.5514ZM596.413 29.863C596.413 31.7222 596.091 33.4632 595.448 35.0887L596.006 35.3093C596.678 33.6095 597.013 31.7931 597.013 29.863H596.413ZM595.447 35.0904C594.825 36.6942 593.901 38.0987 592.674 39.3062L593.095 39.7338C594.382 38.4667 595.353 36.9905 596.007 35.3076L595.447 35.0904ZM592.674 39.3062C591.469 40.4931 589.986 41.439 588.221 42.1413L588.443 42.6987C590.274 41.9703 591.826 40.9829 593.095 39.7338L592.674 39.3062ZM588.224 42.1402C586.466 42.8204 584.445 43.164 582.155 43.164V43.764C584.505 43.764 586.601 43.4116 588.44 42.6998L588.224 42.1402ZM582.155 43.164C580.841 43.164 579.547 43.0308 578.272 42.7643L578.15 43.3517C579.465 43.6266 580.8 43.764 582.155 43.764V43.164ZM578.268 42.7635C576.991 42.5157 575.763 42.1538 574.582 41.6778L574.358 42.2342C575.575 42.7249 576.84 43.0976 578.154 43.3525L578.268 42.7635ZM574.584 41.6784C573.421 41.202 572.326 40.6305 571.298 39.9643L570.972 40.4677C572.032 41.1548 573.16 41.7434 574.356 42.2336L574.584 41.6784ZM571.3 39.9657C570.292 39.3001 569.391 38.5596 568.595 37.7444L568.165 38.1636C568.993 39.0111 569.928 39.7786 570.97 40.4663L571.3 39.9657ZM568.637 38.1092L570.899 34.3682L570.385 34.0578L568.123 37.7988L568.637 38.1092ZM570.878 34.3983C571.068 34.1559 571.292 33.9581 571.55 33.8032L571.242 33.2888C570.92 33.4819 570.641 33.7288 570.406 34.0277L570.878 34.3983ZM571.555 33.8004C571.816 33.6371 572.099 33.556 572.411 33.556V32.956C571.988 32.956 571.594 33.0682 571.237 33.2916L571.555 33.8004ZM572.411 33.556C572.809 33.556 573.27 33.7236 573.801 34.108L574.153 33.622C573.562 33.1944 572.979 32.956 572.411 32.956V33.556ZM573.807 34.112C574.371 34.501 575.031 34.9379 575.787 35.4226L576.111 34.9174C575.359 34.4354 574.704 34.0023 574.147 33.618L573.807 34.112ZM575.79 35.4244C576.581 35.9191 577.497 36.3715 578.535 36.7829L578.756 36.2251C577.745 35.8244 576.863 35.3876 576.108 34.9156L575.79 35.4244ZM578.542 36.7853C579.627 37.1874 580.912 37.384 582.387 37.384V36.784C580.962 36.784 579.752 36.5939 578.75 36.2227L578.542 36.7853ZM582.387 37.384C584.654 37.384 586.454 36.8516 587.744 35.7458L587.354 35.2902C586.208 36.2724 584.566 36.784 582.387 36.784V37.384ZM587.746 35.744C589.044 34.6114 589.676 33.0029 589.676 30.965H589.076C589.076 32.8711 588.49 34.298 587.352 35.292L587.746 35.744ZM589.676 30.965C589.676 29.8109 589.381 28.8406 588.769 28.0798L588.301 28.4562C588.81 29.0874 589.076 29.9151 589.076 30.965H589.676ZM588.772 28.0838C588.2 27.3481 587.438 26.7417 586.496 26.2608L586.224 26.7952C587.099 27.2423 587.788 27.7959 588.298 28.4522L588.772 28.0838ZM586.501 26.2631C585.57 25.7683 584.516 25.3549 583.339 25.0214L583.175 25.5986C584.318 25.9225 585.332 26.3211 586.219 26.7929L586.501 26.2631ZM583.339 25.0214C582.182 24.6937 581.006 24.3371 579.811 23.9515L579.627 24.5225C580.829 24.9102 582.012 25.2689 583.175 25.5986L583.339 25.0214ZM579.811 23.9515C578.624 23.5687 577.457 23.1093 576.308 22.5731L576.054 23.1169C577.225 23.6634 578.416 24.132 579.627 24.5225L579.811 23.9515ZM576.308 22.5731C575.177 22.0454 574.17 21.3582 573.285 20.5113L572.87 20.9447C573.803 21.8378 574.865 22.5619 576.054 23.1169L576.308 22.5731ZM573.285 20.5113C572.409 19.6722 571.696 18.6239 571.149 17.3608L570.599 17.5992C571.173 18.9267 571.93 20.0438 572.87 20.9447L573.285 20.5113ZM571.151 17.3658C570.629 16.0975 570.362 14.5246 570.362 12.637H569.762C569.762 14.5774 570.036 16.2331 570.597 17.5942L571.151 17.3658ZM570.362 12.637C570.362 11.1501 570.653 9.70027 571.238 8.28559L570.684 8.0564C570.07 9.54173 569.762 11.0693 569.762 12.637H570.362ZM571.237 8.28873C571.839 6.87643 572.706 5.62387 573.837 4.52969L573.42 4.0983C572.232 5.2468 571.32 6.56557 570.685 8.05327L571.237 8.28873ZM573.836 4.53141C574.984 3.43955 576.391 2.56004 578.061 1.89576L577.839 1.33824C576.107 2.02729 574.633 2.94578 573.422 4.09659L573.836 4.53141ZM578.061 1.89576C579.721 1.23555 581.625 0.902 583.779 0.902V0.302C581.563 0.302 579.582 0.645112 577.839 1.33824L578.061 1.89576ZM583.779 0.902C586.222 0.902 588.468 1.28364 590.519 2.04332L590.727 1.48067C588.602 0.69369 586.285 0.302 583.779 0.302V0.902ZM590.519 2.04332C592.573 2.804 594.316 3.86631 595.753 5.22778L596.165 4.79221C594.664 3.36968 592.849 2.26666 590.727 1.48067L590.519 2.04332ZM595.693 4.87166L593.779 8.55466L594.311 8.83134L596.225 5.14834L595.693 4.87166Z" fill="#353535"/>
</svg>
