<svg width="530" height="44" viewBox="0 0 530 44" fill="none" xmlns="http://www.w3.org/2000/svg">
<path d="M26.7627 8.693L26.4965 8.55464L26.4944 8.55883L26.7627 8.693ZM26.0087 9.592L25.8543 9.33463L25.8465 9.33964L26.0087 9.592ZM23.7177 9.418L23.5559 9.67078L23.5634 9.67524L23.7177 9.418ZM22.0067 8.403L22.1531 8.14111L22.1531 8.14111L22.0067 8.403ZM19.6867 7.417L19.5862 7.69976L19.5937 7.70222L19.6867 7.417ZM13.7417 7.359L13.8324 7.645L13.8366 7.6436L13.7417 7.359ZM11.7117 8.432L11.5204 8.20085L11.5165 8.20422L11.7117 8.432ZM10.4937 10.114L10.7699 10.2312L10.7711 10.2282L10.4937 10.114ZM10.8997 14.696L10.6681 14.8867L10.6715 14.8907L10.8997 14.696ZM16.2067 17.625L16.2973 17.339L16.2973 17.339L16.2067 17.625ZM19.7447 18.814L19.6444 19.0968L19.6498 19.0986L19.7447 18.814ZM23.3117 20.264L23.1811 20.5341L23.1848 20.5359L23.3117 20.264ZM26.4147 22.352L26.2097 22.571L26.2122 22.5733L26.4147 22.352ZM28.5897 25.426L28.3155 25.5479L28.3172 25.5514L28.5897 25.426ZM28.4447 35.199L28.1657 35.0887L28.165 35.0904L28.4447 35.199ZM25.6027 39.52L25.8132 39.7338L25.8132 39.7338L25.6027 39.52ZM21.0497 42.42L21.158 42.6998L21.1606 42.6987L21.0497 42.42ZM10.9287 43.058L10.9901 42.7643L10.9859 42.7635L10.9287 43.058ZM7.18771 41.956L7.07394 42.2336L7.07552 42.2342L7.18771 41.956ZM3.85271 40.216L3.68739 40.4663L3.68954 40.4677L3.85271 40.216ZM1.09771 37.954L0.840991 37.7988L0.720835 37.9975L0.883098 38.1636L1.09771 37.954ZM3.35971 34.213L3.12382 34.0277L3.11248 34.0421L3.10299 34.0578L3.35971 34.213ZM4.11371 33.546L4.26809 33.8033L4.27271 33.8004L4.11371 33.546ZM6.69471 33.865L6.51871 34.108L6.52439 34.112L6.69471 33.865ZM8.66671 35.17L8.5048 35.4226L8.50771 35.4244L8.66671 35.17ZM11.3637 36.504L11.2532 36.783L11.2595 36.7853L11.3637 36.504ZM20.2667 35.518L20.462 35.7458L20.464 35.744L20.2667 35.518ZM21.2527 28.268L21.0159 28.4522L21.0191 28.4562L21.2527 28.268ZM19.0777 26.528L18.9368 26.7929L18.9413 26.7952L19.0777 26.528ZM15.9747 25.31L15.8929 25.5986L15.8929 25.5986L15.9747 25.31ZM12.4367 24.237L12.3446 24.5225L12.3446 24.5225L12.4367 24.237ZM5.79571 20.728L5.58824 20.9447L5.58824 20.9447L5.79571 20.728ZM3.59171 17.48L3.31426 17.5942L3.31639 17.5992L3.59171 17.48ZM3.67871 8.171L3.40276 8.05326L3.40146 8.0564L3.67871 8.171ZM6.34671 4.314L6.13999 4.09658L6.1382 4.0983L6.34671 4.314ZM23.3407 1.762L23.2365 2.04332L23.2365 2.04332L23.3407 1.762ZM28.6767 5.01L28.9429 5.14834L29.0472 4.94771L28.883 4.79221L28.6767 5.01ZM26.4944 8.55883C26.2973 8.95297 26.0794 9.19974 25.8544 9.33475L26.1631 9.84925C26.518 9.63626 26.8028 9.28369 27.031 8.82716L26.4944 8.55883ZM25.8465 9.33964C25.6332 9.47675 25.3636 9.553 25.0227 9.553V10.153C25.4552 10.153 25.8429 10.0552 26.1709 9.84435L25.8465 9.33964ZM25.0227 9.553C24.7098 9.553 24.3288 9.4348 23.8721 9.16075L23.5634 9.67524C24.0733 9.9812 24.5623 10.153 25.0227 10.153V9.553ZM23.8794 9.16531C23.3898 8.85195 22.8141 8.51052 22.1531 8.14111L21.8604 8.66488C22.514 9.03014 23.079 9.36538 23.556 9.67068L23.8794 9.16531ZM22.1531 8.14111C21.4752 7.76234 20.6833 7.42643 19.7797 7.13178L19.5937 7.70222C20.4688 7.98757 21.2235 8.30899 21.8604 8.66488L22.1531 8.14111ZM19.7872 7.13433C18.8769 6.81068 17.807 6.653 16.5837 6.653V7.253C17.7578 7.253 18.7565 7.40465 19.5862 7.69966L19.7872 7.13433ZM16.5837 6.653C15.4769 6.653 14.4963 6.79124 13.6468 7.07439L13.8366 7.6436C14.6111 7.38542 15.5251 7.253 16.5837 7.253V6.653ZM13.651 7.07303C12.8268 7.33436 12.1147 7.70905 11.5204 8.20088L11.903 8.66312C12.43 8.22695 13.0713 7.8863 13.8324 7.64497L13.651 7.07303ZM11.5165 8.20422C10.9393 8.69896 10.5051 9.2985 10.2163 9.99977L10.7711 10.2282C11.0237 9.61483 11.4015 9.09304 11.9069 8.65978L11.5165 8.20422ZM10.2175 9.99683C9.92942 10.676 9.78771 11.4221 9.78771 12.231H10.3877C10.3877 11.4933 10.5167 10.828 10.7699 10.2312L10.2175 9.99683ZM9.78771 12.231C9.78771 13.275 10.0757 14.1674 10.6681 14.8867L11.1313 14.5053C10.641 13.91 10.3877 13.159 10.3877 12.231H9.78771ZM10.6715 14.8907C11.2619 15.5829 12.0298 16.1665 12.9673 16.6452L13.2401 16.1108C12.3603 15.6615 11.6589 15.1238 11.128 14.5013L10.6715 14.8907ZM12.9673 16.6452C13.8932 17.118 14.9433 17.5396 16.1161 17.911L16.2973 17.339C15.1502 16.9757 14.1316 16.566 13.2401 16.1108L12.9673 16.6452ZM16.1161 17.911C17.2727 18.2773 18.4488 18.6725 19.6444 19.0967L19.845 18.5313C18.6433 18.1048 17.4607 17.7074 16.2973 17.339L16.1161 17.911ZM19.6498 19.0986C20.8556 19.5005 22.0327 19.979 23.1812 20.5341L23.4423 19.9939C22.2707 19.4277 21.0698 18.9395 19.8396 18.5294L19.6498 19.0986ZM23.1848 20.5359C24.317 21.0642 25.3248 21.7426 26.2097 22.571L26.6197 22.133C25.6873 21.2601 24.6264 20.5465 23.4386 19.9921L23.1848 20.5359ZM26.2122 22.5733C27.088 23.3746 27.7896 24.3644 28.3156 25.5478L28.8639 25.3042C28.3071 24.0516 27.5588 22.9921 26.6172 22.1307L26.2122 22.5733ZM28.3172 25.5514C28.8552 26.7202 29.1307 28.1539 29.1307 29.863H29.7307C29.7307 28.0921 29.4455 26.5678 28.8622 25.3006L28.3172 25.5514ZM29.1307 29.863C29.1307 31.7222 28.8084 33.4632 28.1657 35.0887L28.7237 35.3093C29.3957 33.6095 29.7307 31.7931 29.7307 29.863H29.1307ZM28.165 35.0904C27.5424 36.6942 26.6187 38.0987 25.3922 39.3062L25.8132 39.7338C27.1001 38.4667 28.071 36.9905 28.7244 35.3076L28.165 35.0904ZM25.3923 39.3062C24.1865 40.4931 22.7039 41.439 20.9388 42.1413L21.1606 42.6987C22.9915 41.9703 24.5442 40.9829 25.8132 39.7338L25.3923 39.3062ZM20.9414 42.1402C19.1842 42.8204 17.163 43.164 14.8727 43.164V43.764C17.2224 43.764 19.3192 43.4116 21.158 42.6998L20.9414 42.1402ZM14.8727 43.164C13.5592 43.164 12.2651 43.0308 10.9901 42.7643L10.8674 43.3517C12.183 43.6266 13.5183 43.764 14.8727 43.764V43.164ZM10.9859 42.7635C9.70895 42.5157 8.48041 42.1538 7.2999 41.6778L7.07552 42.2342C8.29234 42.7249 9.5578 43.0976 10.8716 43.3525L10.9859 42.7635ZM7.30148 41.6784C6.13896 41.202 5.04387 40.6305 4.01588 39.9643L3.68954 40.4677C4.74955 41.1548 5.8778 41.7434 7.07394 42.2336L7.30148 41.6784ZM4.01803 39.9657C3.01019 39.3001 2.10857 38.5596 1.31232 37.7444L0.883098 38.1636C1.71085 39.0111 2.6459 39.7786 3.68739 40.4663L4.01803 39.9657ZM1.35443 38.1092L3.61643 34.3682L3.10299 34.0578L0.840991 37.7988L1.35443 38.1092ZM3.59561 34.3983C3.78611 34.1559 4.00996 33.9581 4.26806 33.8032L3.95936 33.2888C3.63746 33.4819 3.35865 33.7288 3.12382 34.0277L3.59561 34.3983ZM4.27271 33.8004C4.53401 33.6371 4.81719 33.556 5.12871 33.556V32.956C4.70557 32.956 4.31208 33.0682 3.95471 33.2916L4.27271 33.8004ZM5.12871 33.556C5.52683 33.556 5.98796 33.7236 6.51876 34.108L6.87066 33.622C6.28013 33.1944 5.69726 32.956 5.12871 32.956V33.556ZM6.52439 34.112C7.08854 34.501 7.7488 34.9379 8.50481 35.4226L8.82861 34.9174C8.07662 34.4354 7.42222 34.0023 6.86503 33.618L6.52439 34.112ZM8.50771 35.4244C9.29922 35.9191 10.215 36.3715 11.2532 36.7829L11.4742 36.2251C10.4631 35.8244 9.58087 35.3876 8.82571 34.9156L8.50771 35.4244ZM11.2595 36.7853C12.3452 37.1874 13.6293 37.384 15.1047 37.384V36.784C13.6801 36.784 12.4702 36.5939 11.4679 36.2227L11.2595 36.7853ZM15.1047 37.384C17.3721 37.384 19.1718 36.8516 20.4619 35.7458L20.0715 35.2902C18.9256 36.2724 17.284 36.784 15.1047 36.784V37.384ZM20.464 35.744C21.7614 34.6114 22.3937 33.0029 22.3937 30.965H21.7937C21.7937 32.8711 21.208 34.298 20.0694 35.292L20.464 35.744ZM22.3937 30.965C22.3937 29.8109 22.0992 28.8406 21.4863 28.0798L21.0191 28.4562C21.5275 29.0874 21.7937 29.9151 21.7937 30.965H22.3937ZM21.4895 28.0838C20.9173 27.3481 20.1558 26.7417 19.2141 26.2608L18.9413 26.7952C19.8169 27.2423 20.5055 27.7959 21.0159 28.4522L21.4895 28.0838ZM19.2186 26.2631C18.2883 25.7683 17.2336 25.3549 16.0565 25.0214L15.8929 25.5986C17.0358 25.9225 18.0498 26.3211 18.9368 26.7929L19.2186 26.2631ZM16.0565 25.0214C14.9001 24.6937 13.7242 24.3371 12.5288 23.9515L12.3446 24.5225C13.5465 24.9102 14.7293 25.2689 15.8929 25.5986L16.0565 25.0214ZM12.5288 23.9515C11.3422 23.5687 10.1745 23.1093 9.02558 22.5731L8.77185 23.1169C9.94295 23.6634 11.1339 24.132 12.3446 24.5225L12.5288 23.9515ZM9.02558 22.5731C7.89475 22.0454 6.88776 21.3582 6.00318 20.5113L5.58824 20.9447C6.521 21.8378 7.58267 22.5619 8.77185 23.1169L9.02558 22.5731ZM6.00318 20.5113C5.12673 19.6722 4.41374 18.6239 3.86703 17.3608L3.31639 17.5992C3.89101 18.9267 4.64736 20.0438 5.58824 20.9447L6.00318 20.5113ZM3.86911 17.3658C3.3469 16.0975 3.07971 14.5246 3.07971 12.637H2.47971C2.47971 14.5774 2.75386 16.2331 3.31431 17.5942L3.86911 17.3658ZM3.07971 12.637C3.07971 11.1501 3.37123 9.70027 3.95596 8.28559L3.40146 8.0564C2.78753 9.54173 2.47971 11.0693 2.47971 12.637H3.07971ZM3.95464 8.28873C4.55723 6.87643 5.42332 5.62387 6.55522 4.52969L6.1382 4.0983C4.95011 5.2468 4.03753 6.56557 3.40278 8.05327L3.95464 8.28873ZM6.55343 4.53141C7.70176 3.43955 9.10839 2.56004 10.7786 1.89576L10.5568 1.33824C8.82437 2.02729 7.35033 2.94578 6.13999 4.09659L6.55343 4.53141ZM10.7786 1.89576C12.4385 1.23555 14.3428 0.902 16.4967 0.902V0.302C14.2813 0.302 12.2996 0.645112 10.5568 1.33824L10.7786 1.89576ZM16.4967 0.902C18.9398 0.902 21.1854 1.28364 23.2365 2.04332L23.4449 1.48067C21.32 0.69369 19.003 0.302 16.4967 0.302V0.902ZM23.2365 2.04332C25.2904 2.804 27.0333 3.86631 28.4704 5.22778L28.883 4.79221C27.3815 3.36968 25.5671 2.26666 23.4449 1.48067L23.2365 2.04332ZM28.4105 4.87166L26.4965 8.55466L27.0289 8.83134L28.9429 5.14834L28.4105 4.87166ZM43.4454 28.239V27.939H43.1454V28.239H43.4454ZM43.4454 43V43.3H43.7454V43H43.4454ZM35.6444 43H35.3444V43.3H35.6444V43ZM35.6444 1.066V0.765997H35.3444V1.066H35.6444ZM64.6154 9.041L64.3358 9.14957L64.3358 9.14958L64.6154 9.041ZM64.5574 20.032L64.8357 20.144L64.8362 20.1429L64.5574 20.032ZM61.5124 24.382L61.7131 24.605L61.7131 24.605L61.5124 24.382ZM43.4454 22.149H43.1454V22.449H43.4454V22.149ZM53.0444 21.627L53.1377 21.9122L53.1424 21.9106L53.0444 21.627ZM55.6834 20.09L55.8894 20.3081L55.8925 20.3051L55.6834 20.09ZM57.2494 17.654L57.531 17.7574L57.5317 17.7556L57.2494 17.654ZM57.2494 11.39L56.9693 11.4973L56.9693 11.4973L57.2494 11.39ZM55.6834 9.07L55.4807 9.29114L55.4807 9.29114L55.6834 9.07ZM53.0444 7.62L52.9511 7.90516L52.9558 7.90662L53.0444 7.62ZM43.4454 7.098V6.798H43.1454V7.098H43.4454ZM43.1454 28.239V43H43.7454V28.239H43.1454ZM43.4454 42.7H35.6444V43.3H43.4454V42.7ZM35.9444 43V1.066H35.3444V43H35.9444ZM35.6444 1.366H49.3034V0.765997H35.6444V1.366ZM49.3034 1.366C52.0845 1.366 54.4785 1.6922 56.4908 2.33766L56.674 1.76633C54.5877 1.09713 52.129 0.765997 49.3034 0.765997V1.366ZM56.4908 2.33766C58.5087 2.98491 60.1616 3.88503 61.4587 5.03176L61.8561 4.58224C60.4852 3.3703 58.7548 2.43375 56.674 1.76633L56.4908 2.33766ZM61.4587 5.03176C62.7572 6.17971 63.7153 7.55134 64.3358 9.14957L64.8951 8.93242C64.2396 7.24399 63.2256 5.79295 61.8561 4.58224L61.4587 5.03176ZM64.3358 9.14958C64.9589 10.7547 65.2724 12.5155 65.2724 14.435H65.8724C65.8724 12.4492 65.5479 10.6139 64.8951 8.93242L64.3358 9.14958ZM65.2724 14.435C65.2724 16.4312 64.9398 18.2587 64.2787 19.9211L64.8362 20.1429C65.5283 18.4026 65.8724 16.4988 65.8724 14.435H65.2724ZM64.2791 19.92C63.6196 21.5594 62.6312 22.9715 61.3117 24.159L61.7131 24.605C63.1003 23.3565 64.1419 21.8686 64.8357 20.144L64.2791 19.92ZM61.3117 24.159C59.994 25.345 58.3402 26.2735 56.3425 26.9394L56.5323 27.5086C58.5946 26.8211 60.3242 25.855 61.7131 24.605L61.3117 24.159ZM56.3425 26.9394C54.3502 27.6035 52.0056 27.939 49.3034 27.939V28.539C52.0533 28.539 54.4646 28.1978 56.5323 27.5086L56.3425 26.9394ZM49.3034 27.939H43.4454V28.539H49.3034V27.939ZM43.4454 22.449H49.3034V21.849H43.4454V22.449ZM49.3034 22.449C50.7574 22.449 52.0372 22.2723 53.1377 21.9121L52.9511 21.3419C51.9249 21.6777 50.7108 21.849 49.3034 21.849V22.449ZM53.1424 21.9106C54.239 21.5317 55.1575 20.9993 55.8894 20.3081L55.4774 19.8719C54.8173 20.4953 53.9765 20.9876 52.9465 21.3434L53.1424 21.9106ZM55.8925 20.3051C56.622 19.5959 57.1682 18.7452 57.531 17.7574L56.9678 17.5506C56.6347 18.4574 56.1368 19.2308 55.4743 19.8749L55.8925 20.3051ZM57.5317 17.7556C57.893 16.7519 58.0714 15.6439 58.0714 14.435H57.4714C57.4714 15.5847 57.3018 16.6227 56.9671 17.5524L57.5317 17.7556ZM58.0714 14.435C58.0714 13.2825 57.8925 12.2304 57.5296 11.2827L56.9693 11.4973C57.3023 12.3669 57.4714 13.3448 57.4714 14.435H58.0714ZM57.5296 11.2827C57.1655 10.332 56.6175 9.51926 55.8861 8.84885L55.4807 9.29114C56.1413 9.89673 56.6374 10.6307 56.9693 11.4973L57.5296 11.2827ZM55.8861 8.84885C55.1521 8.17595 54.2312 7.67283 53.133 7.33338L52.9558 7.90662C53.9843 8.2245 54.8228 8.68804 55.4807 9.29114L55.8861 8.84885ZM53.1377 7.33488C52.0372 6.97471 50.7574 6.798 49.3034 6.798V7.398C50.7108 7.398 51.9249 7.56928 52.9511 7.90512L53.1377 7.33488ZM49.3034 6.798H43.4454V7.398H49.3034V6.798ZM43.1454 7.098V22.149H43.7454V7.098H43.1454ZM110.319 30.588L110.599 30.6976L110.599 30.6969L110.319 30.588ZM105.998 37.374L106.214 37.5828L106.214 37.5828L105.998 37.374ZM99.2994 41.869L99.4126 42.1468L99.4144 42.1461L99.2994 41.869ZM81.9284 41.869L81.8135 42.1461L81.8159 42.1471L81.9284 41.869ZM75.2004 37.374L74.985 37.5828L74.9861 37.584L75.2004 37.374ZM70.8794 30.588L70.5999 30.6969L70.6002 30.6976L70.8794 30.588ZM70.8794 13.507L71.1587 13.6166L71.1589 13.6159L70.8794 13.507ZM75.2004 6.692L74.9861 6.48204L74.985 6.48315L75.2004 6.692ZM81.9284 2.226L82.0416 2.50383L82.0426 2.5034L81.9284 2.226ZM105.998 6.721L105.783 6.92985L105.784 6.93093L105.998 6.721ZM110.319 13.507L110.04 13.6159L110.04 13.6166L110.319 13.507ZM102.924 15.856L102.639 15.9491L102.64 15.9527L102.924 15.856ZM100.314 11.187L100.538 10.9871L100.538 10.9871L100.314 11.187ZM96.1384 8.258L96.023 8.53492L96.0242 8.5354L96.1384 8.258ZM85.0894 8.258L84.9752 7.98059L84.9752 7.98059L85.0894 8.258ZM80.8844 11.187L80.6624 10.9852L80.6608 10.9871L80.8844 11.187ZM78.2454 15.856L78.5294 15.9527L78.5297 15.9518L78.2454 15.856ZM78.2454 28.239L77.9611 28.3348L77.9614 28.3357L78.2454 28.239ZM80.8844 32.879L80.6607 33.079L80.664 33.0825L80.8844 32.879ZM85.0894 35.779L84.9752 36.0564L84.9752 36.0564L85.0894 35.779ZM96.1384 35.779L96.0242 35.5016L96.023 35.5021L96.1384 35.779ZM100.314 32.879L100.537 33.0806L100.538 33.0789L100.314 32.879ZM102.924 28.239L102.64 28.1432L102.64 28.145L102.924 28.239ZM111.556 22.033C111.556 25.0731 111.05 27.8874 110.04 30.4791L110.599 30.6969C111.638 28.0299 112.156 25.1409 112.156 22.033H111.556ZM110.04 30.4784C109.029 33.0533 107.61 35.2811 105.783 37.1652L106.214 37.5828C108.099 35.6389 109.56 33.3427 110.599 30.6976L110.04 30.4784ZM105.783 37.1652C103.957 39.0481 101.759 40.5239 99.1845 41.5919L99.4144 42.1461C102.06 41.0487 104.328 39.5279 106.214 37.5828L105.783 37.1652ZM99.1862 41.5912C96.6164 42.6381 93.7651 43.164 90.6284 43.164V43.764C93.8331 43.764 96.7624 43.2265 99.4126 42.1468L99.1862 41.5912ZM90.6284 43.164C87.4918 43.164 84.6305 42.6382 82.0409 41.5909L81.8159 42.1471C84.485 43.2265 87.4237 43.764 90.6284 43.764V43.164ZM82.0434 41.5919C79.4686 40.5238 77.2603 39.0476 75.4147 37.164L74.9861 37.584C76.8912 39.5284 79.1682 41.0488 81.8135 42.1461L82.0434 41.5919ZM75.4158 37.1652C73.5889 35.2811 72.1696 33.0533 71.1587 30.4784L70.6002 30.6976C71.6386 33.3427 73.1 35.6389 74.985 37.5828L75.4158 37.1652ZM71.1589 30.4791C70.149 27.8874 69.6424 25.0731 69.6424 22.033H69.0424C69.0424 25.1409 69.5605 28.0299 70.5999 30.6969L71.1589 30.4791ZM69.6424 22.033C69.6424 18.9929 70.149 16.1885 71.1587 13.6166L70.6002 13.3974C69.5605 16.0455 69.0424 18.9251 69.0424 22.033H69.6424ZM71.1589 13.6159C72.17 11.0216 73.5892 8.78449 75.4158 6.90084L74.985 6.48315C73.0996 8.42751 71.6382 10.7337 70.5999 13.3981L71.1589 13.6159ZM75.4147 6.90195C77.2599 5.01876 79.4676 3.5525 82.0416 2.50383L81.8152 1.94817C79.1692 3.02616 76.8916 4.53724 74.9861 6.48204L75.4147 6.90195ZM82.0426 2.5034C84.6318 1.43728 87.4924 0.902 90.6284 0.902V0.302C87.4231 0.302 84.4837 0.849385 81.8142 1.9486L82.0426 2.5034ZM90.6284 0.902C93.7644 0.902 96.6151 1.43729 99.1845 2.5031L99.4144 1.94889C96.7637 0.849374 93.8337 0.302 90.6284 0.302V0.902ZM99.1845 2.5031C101.759 3.57105 103.957 5.04694 105.783 6.92984L106.214 6.51215C104.328 4.56706 102.06 3.04628 99.4144 1.94889L99.1845 2.5031ZM105.784 6.93093C107.61 8.79486 109.029 11.0219 110.04 13.6159L110.599 13.3981C109.561 10.7335 108.099 8.43647 106.213 6.51106L105.784 6.93093ZM110.04 13.6166C111.05 16.1885 111.556 18.9929 111.556 22.033H112.156C112.156 18.9251 111.638 16.0455 110.599 13.3974L110.04 13.6166ZM104.152 22.033C104.152 19.7058 103.84 17.6133 103.208 15.7593L102.64 15.9527C103.247 17.7334 103.552 19.7589 103.552 22.033H104.152ZM103.21 15.7629C102.599 13.8919 101.71 12.2978 100.538 10.9871L100.091 11.3869C101.2 12.6282 102.051 14.1468 102.639 15.9491L103.21 15.7629ZM100.538 10.9871C99.3661 9.676 97.9362 8.67381 96.2526 7.98059L96.0242 8.5354C97.6273 9.19551 98.9814 10.146 100.091 11.3869L100.538 10.9871ZM96.2538 7.98107C94.5877 7.28688 92.7109 6.943 90.6284 6.943V7.543C92.6446 7.543 94.4411 7.87579 96.023 8.53492L96.2538 7.98107ZM90.6284 6.943C88.5458 6.943 86.6599 7.2869 84.9752 7.98059L85.2036 8.5354C86.8056 7.87576 88.6123 7.543 90.6284 7.543V6.943ZM84.9752 7.98059C83.2921 8.67364 81.8532 9.67531 80.6624 10.9852L81.1064 11.3888C82.2356 10.1467 83.6001 9.19569 85.2036 8.5354L84.9752 7.98059ZM80.6608 10.9871C79.4897 12.2971 78.591 13.8902 77.9611 15.7602L78.5297 15.9518C79.1371 14.1485 79.9978 12.6289 81.1081 11.3869L80.6608 10.9871ZM77.9614 15.7593C77.3303 17.6133 77.0174 19.7058 77.0174 22.033H77.6174C77.6174 19.7589 77.9232 17.7334 78.5294 15.9527L77.9614 15.7593ZM77.0174 22.033C77.0174 24.3603 77.3303 26.4621 77.9611 28.3348L78.5297 28.1432C77.9232 26.3426 77.6174 24.307 77.6174 22.033H77.0174ZM77.9614 28.3357C78.5915 30.1865 79.4902 31.7695 80.6608 33.0789L81.1081 32.6791C79.9973 31.4365 79.1367 29.9262 78.5294 28.1423L77.9614 28.3357ZM80.664 33.0825C81.8547 34.3725 83.2931 35.3638 84.9752 36.0564L85.2036 35.5016C83.599 34.8409 82.2341 33.8988 81.1049 32.6755L80.664 33.0825ZM84.9752 36.0564C86.6599 36.7501 88.5458 37.094 90.6284 37.094V36.494C88.6123 36.494 86.8056 36.1612 85.2036 35.5016L84.9752 36.0564ZM90.6284 37.094C92.7109 37.094 94.5877 36.7501 96.2538 36.0559L96.023 35.5021C94.4411 36.1612 92.6446 36.494 90.6284 36.494V37.094ZM96.2526 36.0564C97.9351 35.3636 99.3646 34.3718 100.537 33.0806L100.092 32.6774C98.9829 33.8995 97.6284 34.8411 96.0242 35.5016L96.2526 36.0564ZM100.538 33.0789C101.709 31.7688 102.599 30.1848 103.209 28.333L102.64 28.145C102.052 29.9278 101.201 31.4372 100.091 32.6791L100.538 33.0789ZM103.209 28.3348C103.84 26.4621 104.152 24.3603 104.152 22.033H103.552C103.552 24.307 103.247 26.3426 102.64 28.1432L103.209 28.3348ZM145.307 1.066H145.607V0.765997H145.307V1.066ZM145.307 7.475V7.775H145.607V7.475H145.307ZM132.692 7.475V7.175H132.392V7.475H132.692ZM132.692 43V43.3H132.992V43H132.692ZM124.891 43H124.591V43.3H124.891V43ZM124.891 7.475H125.191V7.175H124.891V7.475ZM112.218 7.475H111.918V7.775H112.218V7.475ZM112.218 1.066V0.765997H111.918V1.066H112.218ZM145.007 1.066V7.475H145.607V1.066H145.007ZM145.307 7.175H132.692V7.775H145.307V7.175ZM132.392 7.475V43H132.992V7.475H132.392ZM132.692 42.7H124.891V43.3H132.692V42.7ZM125.191 43V7.475H124.591V43H125.191ZM124.891 7.175H112.218V7.775H124.891V7.175ZM112.518 7.475V1.066H111.918V7.475H112.518ZM112.218 1.366H145.307V0.765997H112.218V1.366ZM159.038 43V43.3H159.338V43H159.038ZM151.208 43H150.908V43.3H151.208V43ZM151.208 1.066V0.765997H150.908V1.066H151.208ZM159.038 1.066H159.338V0.765997H159.038V1.066ZM159.038 42.7H151.208V43.3H159.038V42.7ZM151.508 43V1.066H150.908V43H151.508ZM151.208 1.366H159.038V0.765997H151.208V1.366ZM158.738 1.066V43H159.338V1.066H158.738ZM194.937 1.066H195.237V0.765997H194.937V1.066ZM194.937 7.272V7.572H195.237V7.272H194.937ZM176.348 7.272V6.972H176.048V7.272H176.348ZM176.348 19.684H176.048V19.984H176.348V19.684ZM192.037 19.684H192.337V19.384H192.037V19.684ZM192.037 25.919V26.219H192.337V25.919H192.037ZM176.348 25.919V25.619H176.048V25.919H176.348ZM176.348 43V43.3H176.648V43H176.348ZM168.489 43H168.189V43.3H168.489V43ZM168.489 1.066V0.765997H168.189V1.066H168.489ZM194.637 1.066V7.272H195.237V1.066H194.637ZM194.937 6.972H176.348V7.572H194.937V6.972ZM176.048 7.272V19.684H176.648V7.272H176.048ZM176.348 19.984H192.037V19.384H176.348V19.984ZM191.737 19.684V25.919H192.337V19.684H191.737ZM192.037 25.619H176.348V26.219H192.037V25.619ZM176.048 25.919V43H176.648V25.919H176.048ZM176.348 42.7H168.489V43.3H176.348V42.7ZM168.789 43V1.066H168.189V43H168.789ZM168.489 1.366H194.937V0.765997H168.489V1.366ZM219.704 26.702L219.446 26.5486L219.404 26.6195V26.702H219.704ZM219.704 43V43.3H220.004V43H219.704ZM211.903 43H211.603V43.3H211.903V43ZM211.903 26.702H212.203V26.6194L212.161 26.5484L211.903 26.702ZM196.62 1.066V0.765997H196.092L196.363 1.21962L196.62 1.066ZM205.088 1.559L204.894 1.78765L204.899 1.79217L205.088 1.559ZM206.103 2.806L205.839 2.94823L205.84 2.9503L206.103 2.806ZM213.788 16.813L214.053 16.6715L214.051 16.6687L213.788 16.813ZM214.948 19.191L214.673 19.3109L214.674 19.3135L214.948 19.191ZM215.847 21.366L215.567 21.4722L215.861 22.2513L216.131 21.4631L215.847 21.366ZM216.688 19.162L216.413 19.0421L216.412 19.0456L216.688 19.162ZM217.848 16.813L218.111 16.9571L218.112 16.9565L217.848 16.813ZM225.475 2.806L225.739 2.94955L225.744 2.94016L225.475 2.806ZM226.432 1.617L226.628 1.84405L226.628 1.84405L226.432 1.617ZM234.958 1.066L235.216 1.2194L235.486 0.765997H234.958V1.066ZM219.404 26.702V43H220.004V26.702H219.404ZM219.704 42.7H211.903V43.3H219.704V42.7ZM212.203 43V26.702H211.603V43H212.203ZM212.161 26.5484L196.878 0.912378L196.363 1.21962L211.646 26.8556L212.161 26.5484ZM196.62 1.366H203.493V0.765997H196.62V1.366ZM203.493 1.366C204.123 1.366 204.577 1.51846 204.894 1.78758L205.283 1.33042C204.826 0.942203 204.217 0.765997 203.493 0.765997V1.366ZM204.899 1.79217C205.272 2.09358 205.586 2.4773 205.839 2.94823L206.367 2.66377C206.08 2.12937 205.717 1.68175 205.277 1.32583L204.899 1.79217ZM205.84 2.9503L213.525 16.9573L214.051 16.6687L206.366 2.6617L205.84 2.9503ZM213.524 16.9545C213.965 17.7798 214.348 18.5652 214.673 19.3109L215.223 19.0711C214.891 18.3088 214.501 17.5089 214.053 16.6715L213.524 16.9545ZM214.674 19.3135C215.001 20.0431 215.298 20.7626 215.567 21.4722L216.128 21.2598C215.855 20.5387 215.553 19.8083 215.222 19.0685L214.674 19.3135ZM216.131 21.4631C216.38 20.7351 216.658 20.0069 216.965 19.2784L216.412 19.0456C216.1 19.7864 215.817 20.5275 215.563 21.2689L216.131 21.4631ZM216.963 19.2819C217.288 18.5371 217.67 17.7622 218.111 16.9571L217.585 16.6689C217.137 17.4878 216.746 18.2789 216.413 19.0421L216.963 19.2819ZM218.112 16.9565L225.739 2.94946L225.212 2.66253L217.585 16.6695L218.112 16.9565ZM225.744 2.94016C225.936 2.55608 226.228 2.19012 226.628 1.84405L226.236 1.38995C225.786 1.77854 225.44 2.20525 225.207 2.67183L225.744 2.94016ZM226.628 1.84405C226.99 1.53156 227.458 1.366 228.056 1.366V0.765997C227.34 0.765997 226.725 0.967764 226.236 1.38995L226.628 1.84405ZM228.056 1.366H234.958V0.765997H228.056V1.366ZM234.7 0.912593L219.446 26.5486L219.962 26.8554L235.216 1.2194L234.7 0.912593ZM258.283 28.239V27.939H257.983V28.239H258.283ZM258.283 43V43.3H258.583V43H258.283ZM250.482 43H250.182V43.3H250.482V43ZM250.482 1.066V0.765997H250.182V1.066H250.482ZM279.453 9.041L279.174 9.14957L279.174 9.14958L279.453 9.041ZM279.395 20.032L279.674 20.144L279.674 20.1429L279.395 20.032ZM276.35 24.382L276.551 24.605L276.551 24.605L276.35 24.382ZM258.283 22.149H257.983V22.449H258.283V22.149ZM267.882 21.627L267.976 21.9122L267.98 21.9106L267.882 21.627ZM270.521 20.09L270.727 20.3081L270.73 20.3051L270.521 20.09ZM272.087 17.654L272.369 17.7574L272.37 17.7556L272.087 17.654ZM272.087 11.39L271.807 11.4973L271.807 11.4973L272.087 11.39ZM270.521 9.07L270.319 9.29114L270.319 9.29114L270.521 9.07ZM267.882 7.62L267.789 7.90516L267.794 7.90662L267.882 7.62ZM258.283 7.098V6.798H257.983V7.098H258.283ZM257.983 28.239V43H258.583V28.239H257.983ZM258.283 42.7H250.482V43.3H258.283V42.7ZM250.782 43V1.066H250.182V43H250.782ZM250.482 1.366H264.141V0.765997H250.482V1.366ZM264.141 1.366C266.922 1.366 269.316 1.6922 271.329 2.33766L271.512 1.76633C269.426 1.09713 266.967 0.765997 264.141 0.765997V1.366ZM271.329 2.33766C273.347 2.98491 274.999 3.88503 276.297 5.03176L276.694 4.58224C275.323 3.3703 273.593 2.43375 271.512 1.76633L271.329 2.33766ZM276.297 5.03176C277.595 6.17971 278.553 7.55134 279.174 9.14957L279.733 8.93242C279.077 7.24399 278.064 5.79295 276.694 4.58224L276.297 5.03176ZM279.174 9.14958C279.797 10.7547 280.11 12.5155 280.11 14.435H280.71C280.71 12.4492 280.386 10.6139 279.733 8.93242L279.174 9.14958ZM280.11 14.435C280.11 16.4312 279.778 18.2587 279.117 19.9211L279.674 20.1429C280.366 18.4026 280.71 16.4988 280.71 14.435H280.11ZM279.117 19.92C278.457 21.5594 277.469 22.9715 276.15 24.159L276.551 24.605C277.938 23.3565 278.98 21.8686 279.674 20.144L279.117 19.92ZM276.15 24.159C274.832 25.345 273.178 26.2735 271.18 26.9394L271.37 27.5086C273.433 26.8211 275.162 25.855 276.551 24.605L276.15 24.159ZM271.18 26.9394C269.188 27.6035 266.843 27.939 264.141 27.939V28.539C266.891 28.539 269.303 28.1978 271.37 27.5086L271.18 26.9394ZM264.141 27.939H258.283V28.539H264.141V27.939ZM258.283 22.449H264.141V21.849H258.283V22.449ZM264.141 22.449C265.595 22.449 266.875 22.2723 267.976 21.9121L267.789 21.3419C266.763 21.6777 265.549 21.849 264.141 21.849V22.449ZM267.98 21.9106C269.077 21.5317 269.995 20.9993 270.727 20.3081L270.315 19.8719C269.655 20.4953 268.814 20.9876 267.784 21.3434L267.98 21.9106ZM270.73 20.3051C271.46 19.5959 272.006 18.7452 272.369 17.7574L271.806 17.5506C271.473 18.4574 270.975 19.2308 270.312 19.8749L270.73 20.3051ZM272.37 17.7556C272.731 16.7519 272.909 15.6439 272.909 14.435H272.309C272.309 15.5847 272.14 16.6227 271.805 17.5524L272.37 17.7556ZM272.909 14.435C272.909 13.2825 272.73 12.2304 272.367 11.2827L271.807 11.4973C272.14 12.3669 272.309 13.3448 272.309 14.435H272.909ZM272.367 11.2827C272.003 10.332 271.455 9.51926 270.724 8.84885L270.319 9.29114C270.979 9.89673 271.475 10.6307 271.807 11.4973L272.367 11.2827ZM270.724 8.84885C269.99 8.17595 269.069 7.67283 267.971 7.33338L267.794 7.90662C268.822 8.2245 269.661 8.68804 270.319 9.29114L270.724 8.84885ZM267.976 7.33488C266.875 6.97471 265.595 6.798 264.141 6.798V7.398C265.549 7.398 266.763 7.56928 267.789 7.90512L267.976 7.33488ZM264.141 6.798H258.283V7.398H264.141V6.798ZM257.983 7.098V22.149H258.583V7.098H257.983ZM294.272 36.562H293.972V36.862H294.272V36.562ZM311.063 36.562H311.363V36.262H311.063V36.562ZM311.063 43V43.3H311.363V43H311.063ZM286.471 43H286.171V43.3H286.471V43ZM286.471 1.066V0.765997H286.171V1.066H286.471ZM294.272 1.066H294.572V0.765997H294.272V1.066ZM294.272 36.862H311.063V36.262H294.272V36.862ZM310.763 36.562V43H311.363V36.562H310.763ZM311.063 42.7H286.471V43.3H311.063V42.7ZM286.771 43V1.066H286.171V43H286.771ZM286.471 1.366H294.272V0.765997H286.471V1.366ZM293.972 1.066V36.562H294.572V1.066H293.972ZM353.293 43V43.3H353.733L353.572 42.8903L353.293 43ZM345.579 42.507L345.389 42.7392L345.395 42.7439L345.401 42.7483L345.579 42.507ZM344.651 41.231L344.369 41.3341L344.371 41.3387L344.651 41.231ZM341.519 32.676L341.801 32.5729L341.729 32.376H341.519V32.676ZM324.148 32.676V32.376H323.939L323.866 32.5729L324.148 32.676ZM321.016 41.231L320.734 41.1279L320.733 41.1324L321.016 41.231ZM320.088 42.449L319.902 42.2137L319.897 42.2177L320.088 42.449ZM312.374 43L312.095 42.8903L311.934 43.3H312.374V43ZM328.846 1.066V0.765997H328.642L328.567 0.956313L328.846 1.066ZM336.821 1.066L337.1 0.956313L337.026 0.765997H336.821V1.066ZM326.149 27.166L325.868 27.0625L325.719 27.466H326.149V27.166ZM339.518 27.166V27.466H339.947L339.8 27.0629L339.518 27.166ZM334.414 13.217L334.696 13.1139L334.695 13.1117L334.414 13.217ZM333.631 11.042L333.345 11.133L333.348 11.1408L333.631 11.042ZM332.819 8.287L333.108 8.20758L332.819 7.15371L332.53 8.20758L332.819 8.287ZM332.007 11.042L331.721 10.951L331.719 10.957L332.007 11.042ZM331.253 13.275L330.974 13.165L330.972 13.1715L331.253 13.275ZM353.293 42.7H347.261V43.3H353.293V42.7ZM347.261 42.7C346.634 42.7 346.14 42.5484 345.758 42.2657L345.401 42.7483C345.908 43.123 346.535 43.3 347.261 43.3V42.7ZM345.769 42.2748C345.383 41.9591 345.105 41.5763 344.931 41.1233L344.371 41.3387C344.584 41.891 344.924 42.3589 345.389 42.7392L345.769 42.2748ZM344.933 41.1279L341.801 32.5729L341.237 32.7791L344.369 41.3341L344.933 41.1279ZM341.519 32.376H324.148V32.976H341.519V32.376ZM323.866 32.5729L320.734 41.1279L321.298 41.3341L324.43 32.7791L323.866 32.5729ZM320.733 41.1324C320.601 41.511 320.333 41.8728 319.902 42.2138L320.274 42.6842C320.772 42.2905 321.122 41.8404 321.3 41.3296L320.733 41.1324ZM319.897 42.2177C319.514 42.5345 319.033 42.7 318.435 42.7V43.3C319.152 43.3 319.773 43.0982 320.279 42.6803L319.897 42.2177ZM318.435 42.7H312.374V43.3H318.435V42.7ZM312.653 43.1097L329.125 1.17568L328.567 0.956313L312.095 42.8903L312.653 43.1097ZM328.846 1.366H336.821V0.765997H328.846V1.366ZM336.542 1.17568L353.014 43.1097L353.572 42.8903L337.1 0.956313L336.542 1.17568ZM326.149 27.466H339.518V26.866H326.149V27.466ZM339.8 27.0629L334.696 13.1139L334.132 13.3201L339.236 27.2691L339.8 27.0629ZM334.695 13.1117C334.464 12.4957 334.204 11.773 333.914 10.9432L333.348 11.1408C333.638 11.9737 333.9 12.7009 334.133 13.3223L334.695 13.1117ZM333.917 10.951C333.648 10.1047 333.378 9.19026 333.108 8.20758L332.53 8.36641C332.801 9.35574 333.073 10.278 333.345 11.133L333.917 10.951ZM332.53 8.20758C332.26 9.19026 331.991 10.1047 331.721 10.951L332.293 11.133C332.565 10.278 332.837 9.35574 333.108 8.36641L332.53 8.20758ZM331.719 10.957C331.47 11.8015 331.221 12.5372 330.974 13.165L331.532 13.385C331.788 12.7368 332.042 11.9838 332.295 11.127L331.719 10.957ZM330.972 13.1715L325.868 27.0625L326.431 27.2695L331.535 13.3785L330.972 13.1715ZM370.991 26.702L370.734 26.5486L370.691 26.6195V26.702H370.991ZM370.991 43V43.3H371.291V43H370.991ZM363.19 43H362.89V43.3H363.19V43ZM363.19 26.702H363.49V26.6194L363.448 26.5484L363.19 26.702ZM347.907 1.066V0.765997H347.379L347.65 1.21962L347.907 1.066ZM356.375 1.559L356.181 1.78765L356.187 1.79217L356.375 1.559ZM357.39 2.806L357.126 2.94823L357.127 2.9503L357.39 2.806ZM365.075 16.813L365.34 16.6715L365.338 16.6687L365.075 16.813ZM366.235 19.191L365.96 19.3109L365.962 19.3135L366.235 19.191ZM367.134 21.366L366.854 21.4722L367.149 22.2513L367.418 21.4631L367.134 21.366ZM367.975 19.162L367.7 19.0421L367.699 19.0456L367.975 19.162ZM369.135 16.813L369.398 16.9571L369.399 16.9565L369.135 16.813ZM376.762 2.806L377.026 2.94955L377.031 2.94016L376.762 2.806ZM377.719 1.617L377.915 1.84405L377.915 1.84405L377.719 1.617ZM386.245 1.066L386.503 1.2194L386.773 0.765997H386.245V1.066ZM370.691 26.702V43H371.291V26.702H370.691ZM370.991 42.7H363.19V43.3H370.991V42.7ZM363.49 43V26.702H362.89V43H363.49ZM363.448 26.5484L348.165 0.912378L347.65 1.21962L362.933 26.8556L363.448 26.5484ZM347.907 1.366H354.78V0.765997H347.907V1.366ZM354.78 1.366C355.41 1.366 355.864 1.51846 356.181 1.78758L356.57 1.33042C356.113 0.942203 355.504 0.765997 354.78 0.765997V1.366ZM356.187 1.79217C356.559 2.09358 356.873 2.4773 357.126 2.94823L357.654 2.66377C357.367 2.12937 357.004 1.68175 356.564 1.32583L356.187 1.79217ZM357.127 2.9503L364.812 16.9573L365.338 16.6687L357.653 2.6617L357.127 2.9503ZM364.811 16.9545C365.252 17.7798 365.635 18.5652 365.96 19.3109L366.51 19.0711C366.178 18.3088 365.788 17.5089 365.34 16.6715L364.811 16.9545ZM365.962 19.3135C366.288 20.0431 366.585 20.7626 366.854 21.4722L367.415 21.2598C367.142 20.5387 366.84 19.8083 366.509 19.0685L365.962 19.3135ZM367.418 21.4631C367.667 20.7351 367.945 20.0069 368.252 19.2784L367.699 19.0456C367.387 19.7864 367.104 20.5275 366.851 21.2689L367.418 21.4631ZM368.25 19.2819C368.575 18.5371 368.958 17.7622 369.398 16.9571L368.872 16.6689C368.424 17.4878 368.033 18.2789 367.7 19.0421L368.25 19.2819ZM369.399 16.9565L377.026 2.94946L376.499 2.66253L368.872 16.6695L369.399 16.9565ZM377.031 2.94016C377.223 2.55608 377.515 2.19012 377.915 1.84405L377.523 1.38995C377.073 1.77854 376.727 2.20525 376.494 2.67183L377.031 2.94016ZM377.915 1.84405C378.277 1.53156 378.745 1.366 379.343 1.366V0.765997C378.627 0.765997 378.012 0.967764 377.523 1.38995L377.915 1.84405ZM379.343 1.366H386.245V0.765997H379.343V1.366ZM385.988 0.912593L370.734 26.5486L371.249 26.8554L386.503 1.2194L385.988 0.912593ZM398.095 36.562H397.795V36.862H398.095V36.562ZM414.886 36.562H415.186V36.262H414.886V36.562ZM414.886 43V43.3H415.186V43H414.886ZM390.294 43H389.994V43.3H390.294V43ZM390.294 1.066V0.765997H389.994V1.066H390.294ZM398.095 1.066H398.395V0.765997H398.095V1.066ZM398.095 36.862H414.886V36.262H398.095V36.862ZM414.586 36.562V43H415.186V36.562H414.586ZM414.886 42.7H390.294V43.3H414.886V42.7ZM390.594 43V1.066H389.994V43H390.594ZM390.294 1.366H398.095V0.765997H390.294V1.366ZM397.795 1.066V36.562H398.395V1.066H397.795ZM429.043 43V43.3H429.343V43H429.043ZM421.213 43H420.913V43.3H421.213V43ZM421.213 1.066V0.765997H420.913V1.066H421.213ZM429.043 1.066H429.343V0.765997H429.043V1.066ZM429.043 42.7H421.213V43.3H429.043V42.7ZM421.513 43V1.066H420.913V43H421.513ZM421.213 1.366H429.043V0.765997H421.213V1.366ZM428.743 1.066V43H429.343V1.066H428.743ZM460.97 8.693L460.704 8.55464L460.701 8.55883L460.97 8.693ZM460.216 9.592L460.061 9.33463L460.054 9.33964L460.216 9.592ZM457.925 9.418L457.763 9.67078L457.77 9.67524L457.925 9.418ZM456.214 8.403L456.36 8.14111L456.36 8.14111L456.214 8.403ZM453.894 7.417L453.793 7.69976L453.801 7.70222L453.894 7.417ZM447.949 7.359L448.039 7.645L448.044 7.6436L447.949 7.359ZM445.919 8.432L445.727 8.20085L445.724 8.20422L445.919 8.432ZM444.701 10.114L444.977 10.2312L444.978 10.2282L444.701 10.114ZM445.107 14.696L444.875 14.8867L444.878 14.8907L445.107 14.696ZM450.414 17.625L450.504 17.339L450.504 17.339L450.414 17.625ZM453.952 18.814L453.851 19.0968L453.857 19.0986L453.952 18.814ZM457.519 20.264L457.388 20.5341L457.392 20.5359L457.519 20.264ZM460.622 22.352L460.417 22.571L460.419 22.5733L460.622 22.352ZM462.797 25.426L462.523 25.5479L462.524 25.5514L462.797 25.426ZM462.652 35.199L462.373 35.0887L462.372 35.0904L462.652 35.199ZM459.81 39.52L460.02 39.7338L460.02 39.7338L459.81 39.52ZM455.257 42.42L455.365 42.6998L455.368 42.6987L455.257 42.42ZM445.136 43.058L445.197 42.7643L445.193 42.7635L445.136 43.058ZM441.395 41.956L441.281 42.2336L441.283 42.2342L441.395 41.956ZM438.06 40.216L437.894 40.4663L437.897 40.4677L438.06 40.216ZM435.305 37.954L435.048 37.7988L434.928 37.9975L435.09 38.1636L435.305 37.954ZM437.567 34.213L437.331 34.0277L437.32 34.0421L437.31 34.0578L437.567 34.213ZM438.321 33.546L438.475 33.8033L438.48 33.8004L438.321 33.546ZM440.902 33.865L440.726 34.108L440.731 34.112L440.902 33.865ZM442.874 35.17L442.712 35.4226L442.715 35.4244L442.874 35.17ZM445.571 36.504L445.46 36.783L445.467 36.7853L445.571 36.504ZM454.474 35.518L454.669 35.7458L454.671 35.744L454.474 35.518ZM455.46 28.268L455.223 28.4522L455.226 28.4562L455.46 28.268ZM453.285 26.528L453.144 26.7929L453.148 26.7952L453.285 26.528ZM450.182 25.31L450.1 25.5986L450.1 25.5986L450.182 25.31ZM446.644 24.237L446.552 24.5225L446.552 24.5225L446.644 24.237ZM440.003 20.728L439.795 20.9447L439.795 20.9447L440.003 20.728ZM437.799 17.48L437.521 17.5942L437.523 17.5992L437.799 17.48ZM437.886 8.171L437.61 8.05326L437.608 8.0564L437.886 8.171ZM440.554 4.314L440.347 4.09658L440.345 4.0983L440.554 4.314ZM457.548 1.762L457.444 2.04332L457.444 2.04332L457.548 1.762ZM462.884 5.01L463.15 5.14834L463.254 4.94771L463.09 4.79221L462.884 5.01ZM460.701 8.55883C460.504 8.95297 460.286 9.19974 460.061 9.33475L460.37 9.84925C460.725 9.63626 461.01 9.28369 461.238 8.82716L460.701 8.55883ZM460.054 9.33964C459.84 9.47675 459.571 9.553 459.23 9.553V10.153C459.662 10.153 460.05 10.0552 460.378 9.84435L460.054 9.33964ZM459.23 9.553C458.917 9.553 458.536 9.4348 458.079 9.16075L457.77 9.67524C458.28 9.9812 458.769 10.153 459.23 10.153V9.553ZM458.086 9.16531C457.597 8.85195 457.021 8.51052 456.36 8.14111L456.067 8.66488C456.721 9.03014 457.286 9.36538 457.763 9.67068L458.086 9.16531ZM456.36 8.14111C455.682 7.76234 454.89 7.42643 453.987 7.13178L453.801 7.70222C454.676 7.98757 455.431 8.30899 456.067 8.66488L456.36 8.14111ZM453.994 7.13433C453.084 6.81068 452.014 6.653 450.791 6.653V7.253C451.965 7.253 452.964 7.40465 453.793 7.69966L453.994 7.13433ZM450.791 6.653C449.684 6.653 448.703 6.79124 447.854 7.07439L448.044 7.6436C448.818 7.38542 449.732 7.253 450.791 7.253V6.653ZM447.858 7.07303C447.034 7.33436 446.322 7.70905 445.727 8.20088L446.11 8.66312C446.637 8.22695 447.278 7.8863 448.039 7.64497L447.858 7.07303ZM445.724 8.20422C445.146 8.69896 444.712 9.2985 444.423 9.99977L444.978 10.2282C445.231 9.61483 445.609 9.09304 446.114 8.65978L445.724 8.20422ZM444.425 9.99683C444.136 10.676 443.995 11.4221 443.995 12.231H444.595C444.595 11.4933 444.724 10.828 444.977 10.2312L444.425 9.99683ZM443.995 12.231C443.995 13.275 444.283 14.1674 444.875 14.8867L445.338 14.5053C444.848 13.91 444.595 13.159 444.595 12.231H443.995ZM444.878 14.8907C445.469 15.5829 446.237 16.1665 447.174 16.6452L447.447 16.1108C446.567 15.6615 445.866 15.1238 445.335 14.5013L444.878 14.8907ZM447.174 16.6452C448.1 17.118 449.15 17.5396 450.323 17.911L450.504 17.339C449.357 16.9757 448.339 16.566 447.447 16.1108L447.174 16.6452ZM450.323 17.911C451.48 18.2773 452.656 18.6725 453.851 19.0967L454.052 18.5313C452.85 18.1048 451.668 17.7074 450.504 17.339L450.323 17.911ZM453.857 19.0986C455.063 19.5005 456.24 19.979 457.388 20.5341L457.649 19.9939C456.478 19.4277 455.277 18.9395 454.047 18.5294L453.857 19.0986ZM457.392 20.5359C458.524 21.0642 459.532 21.7426 460.417 22.571L460.827 22.133C459.894 21.2601 458.833 20.5465 457.646 19.9921L457.392 20.5359ZM460.419 22.5733C461.295 23.3746 461.997 24.3644 462.523 25.5478L463.071 25.3042C462.514 24.0516 461.766 22.9921 460.824 22.1307L460.419 22.5733ZM462.524 25.5514C463.062 26.7202 463.338 28.1539 463.338 29.863H463.938C463.938 28.0921 463.653 26.5678 463.069 25.3006L462.524 25.5514ZM463.338 29.863C463.338 31.7222 463.015 33.4632 462.373 35.0887L462.931 35.3093C463.603 33.6095 463.938 31.7931 463.938 29.863H463.338ZM462.372 35.0904C461.749 36.6942 460.826 38.0987 459.599 39.3062L460.02 39.7338C461.307 38.4667 462.278 36.9905 462.931 35.3076L462.372 35.0904ZM459.599 39.3062C458.394 40.4931 456.911 41.439 455.146 42.1413L455.368 42.6987C457.199 41.9703 458.751 40.9829 460.02 39.7338L459.599 39.3062ZM455.148 42.1402C453.391 42.8204 451.37 43.164 449.08 43.164V43.764C451.429 43.764 453.526 43.4116 455.365 42.6998L455.148 42.1402ZM449.08 43.164C447.766 43.164 446.472 43.0308 445.197 42.7643L445.074 43.3517C446.39 43.6266 447.725 43.764 449.08 43.764V43.164ZM445.193 42.7635C443.916 42.5157 442.687 42.1538 441.507 41.6778L441.283 42.2342C442.499 42.7249 443.765 43.0976 445.079 43.3525L445.193 42.7635ZM441.509 41.6784C440.346 41.202 439.251 40.6305 438.223 39.9643L437.897 40.4677C438.957 41.1548 440.085 41.7434 441.281 42.2336L441.509 41.6784ZM438.225 39.9657C437.217 39.3001 436.316 38.5596 435.519 37.7444L435.09 38.1636C435.918 39.0111 436.853 39.7786 437.894 40.4663L438.225 39.9657ZM435.561 38.1092L437.823 34.3682L437.31 34.0578L435.048 37.7988L435.561 38.1092ZM437.803 34.3983C437.993 34.1559 438.217 33.9581 438.475 33.8032L438.166 33.2888C437.844 33.4819 437.566 33.7288 437.331 34.0277L437.803 34.3983ZM438.48 33.8004C438.741 33.6371 439.024 33.556 439.336 33.556V32.956C438.913 32.956 438.519 33.0682 438.162 33.2916L438.48 33.8004ZM439.336 33.556C439.734 33.556 440.195 33.7236 440.726 34.108L441.078 33.622C440.487 33.1944 439.904 32.956 439.336 32.956V33.556ZM440.731 34.112C441.296 34.501 441.956 34.9379 442.712 35.4226L443.036 34.9174C442.284 34.4354 441.629 34.0023 441.072 33.618L440.731 34.112ZM442.715 35.4244C443.506 35.9191 444.422 36.3715 445.46 36.7829L445.681 36.2251C444.67 35.8244 443.788 35.3876 443.033 34.9156L442.715 35.4244ZM445.467 36.7853C446.552 37.1874 447.836 37.384 449.312 37.384V36.784C447.887 36.784 446.677 36.5939 445.675 36.2227L445.467 36.7853ZM449.312 37.384C451.579 37.384 453.379 36.8516 454.669 35.7458L454.279 35.2902C453.133 36.2724 451.491 36.784 449.312 36.784V37.384ZM454.671 35.744C455.968 34.6114 456.601 33.0029 456.601 30.965H456.001C456.001 32.8711 455.415 34.298 454.276 35.292L454.671 35.744ZM456.601 30.965C456.601 29.8109 456.306 28.8406 455.693 28.0798L455.226 28.4562C455.735 29.0874 456.001 29.9151 456.001 30.965H456.601ZM455.697 28.0838C455.124 27.3481 454.363 26.7417 453.421 26.2608L453.148 26.7952C454.024 27.2423 454.713 27.7959 455.223 28.4522L455.697 28.0838ZM453.426 26.2631C452.495 25.7683 451.441 25.3549 450.264 25.0214L450.1 25.5986C451.243 25.9225 452.257 26.3211 453.144 26.7929L453.426 26.2631ZM450.264 25.0214C449.107 24.6937 447.931 24.3371 446.736 23.9515L446.552 24.5225C447.754 24.9102 448.936 25.2689 450.1 25.5986L450.264 25.0214ZM446.736 23.9515C445.549 23.5687 444.381 23.1093 443.233 22.5731L442.979 23.1169C444.15 23.6634 445.341 24.132 446.552 24.5225L446.736 23.9515ZM443.233 22.5731C442.102 22.0454 441.095 21.3582 440.21 20.5113L439.795 20.9447C440.728 21.8378 441.79 22.5619 442.979 23.1169L443.233 22.5731ZM440.21 20.5113C439.334 19.6722 438.621 18.6239 438.074 17.3608L437.523 17.5992C438.098 18.9267 438.854 20.0438 439.795 20.9447L440.21 20.5113ZM438.076 17.3658C437.554 16.0975 437.287 14.5246 437.287 12.637H436.687C436.687 14.5774 436.961 16.2331 437.521 17.5942L438.076 17.3658ZM437.287 12.637C437.287 11.1501 437.578 9.70027 438.163 8.28559L437.608 8.0564C436.995 9.54173 436.687 11.0693 436.687 12.637H437.287ZM438.162 8.28873C438.764 6.87643 439.63 5.62387 440.762 4.52969L440.345 4.0983C439.157 5.2468 438.245 6.56557 437.61 8.05327L438.162 8.28873ZM440.76 4.53141C441.909 3.43955 443.315 2.56004 444.986 1.89576L444.764 1.33824C443.031 2.02729 441.557 2.94578 440.347 4.09659L440.76 4.53141ZM444.986 1.89576C446.646 1.23555 448.55 0.902 450.704 0.902V0.302C448.488 0.302 446.507 0.645112 444.764 1.33824L444.986 1.89576ZM450.704 0.902C453.147 0.902 455.392 1.28364 457.444 2.04332L457.652 1.48067C455.527 0.69369 453.21 0.302 450.704 0.302V0.902ZM457.444 2.04332C459.497 2.804 461.24 3.86631 462.677 5.22778L463.09 4.79221C461.589 3.36968 459.774 2.26666 457.652 1.48067L457.444 2.04332ZM462.618 4.87166L460.704 8.55466L461.236 8.83134L463.15 5.14834L462.618 4.87166ZM499.141 1.066H499.441V0.765997H499.141V1.066ZM499.141 7.475V7.775H499.441V7.475H499.141ZM486.526 7.475V7.175H486.226V7.475H486.526ZM486.526 43V43.3H486.826V43H486.526ZM478.725 43H478.425V43.3H478.725V43ZM478.725 7.475H479.025V7.175H478.725V7.475ZM466.052 7.475H465.752V7.775H466.052V7.475ZM466.052 1.066V0.765997H465.752V1.066H466.052ZM498.841 1.066V7.475H499.441V1.066H498.841ZM499.141 7.175H486.526V7.775H499.141V7.175ZM486.226 7.475V43H486.826V7.475H486.226ZM486.526 42.7H478.725V43.3H486.526V42.7ZM479.025 43V7.475H478.425V43H479.025ZM478.725 7.175H466.052V7.775H478.725V7.175ZM466.352 7.475V1.066H465.752V7.475H466.352ZM466.052 1.366H499.141V0.765997H466.052V1.366ZM526.56 8.693L526.293 8.55464L526.291 8.55883L526.56 8.693ZM525.806 9.592L525.651 9.33463L525.643 9.33964L525.806 9.592ZM523.515 9.418L523.353 9.67078L523.36 9.67524L523.515 9.418ZM521.804 8.403L521.95 8.14111L521.95 8.14111L521.804 8.403ZM519.484 7.417L519.383 7.69976L519.391 7.70222L519.484 7.417ZM513.539 7.359L513.629 7.645L513.633 7.6436L513.539 7.359ZM511.509 8.432L511.317 8.20085L511.313 8.20422L511.509 8.432ZM510.291 10.114L510.567 10.2312L510.568 10.2282L510.291 10.114ZM510.697 14.696L510.465 14.8867L510.468 14.8907L510.697 14.696ZM516.004 17.625L516.094 17.339L516.094 17.339L516.004 17.625ZM519.542 18.814L519.441 19.0968L519.447 19.0986L519.542 18.814ZM523.109 20.264L522.978 20.5341L522.982 20.5359L523.109 20.264ZM526.212 22.352L526.007 22.571L526.009 22.5733L526.212 22.352ZM528.387 25.426L528.112 25.5479L528.114 25.5514L528.387 25.426ZM528.242 35.199L527.963 35.0887L527.962 35.0904L528.242 35.199ZM525.4 39.52L525.61 39.7338L525.61 39.7338L525.4 39.52ZM520.847 42.42L520.955 42.6998L520.957 42.6987L520.847 42.42ZM510.726 43.058L510.787 42.7643L510.783 42.7635L510.726 43.058ZM506.985 41.956L506.871 42.2336L506.872 42.2342L506.985 41.956ZM503.65 40.216L503.484 40.4663L503.486 40.4677L503.65 40.216ZM500.895 37.954L500.638 37.7988L500.518 37.9975L500.68 38.1636L500.895 37.954ZM503.157 34.213L502.921 34.0277L502.909 34.0421L502.9 34.0578L503.157 34.213ZM503.911 33.546L504.065 33.8033L504.07 33.8004L503.911 33.546ZM506.492 33.865L506.316 34.108L506.321 34.112L506.492 33.865ZM508.464 35.17L508.302 35.4226L508.305 35.4244L508.464 35.17ZM511.161 36.504L511.05 36.783L511.056 36.7853L511.161 36.504ZM520.064 35.518L520.259 35.7458L520.261 35.744L520.064 35.518ZM521.05 28.268L520.813 28.4522L520.816 28.4562L521.05 28.268ZM518.875 26.528L518.734 26.7929L518.738 26.7952L518.875 26.528ZM515.772 25.31L515.69 25.5986L515.69 25.5986L515.772 25.31ZM512.234 24.237L512.141 24.5225L512.141 24.5225L512.234 24.237ZM505.593 20.728L505.385 20.9447L505.385 20.9447L505.593 20.728ZM503.389 17.48L503.111 17.5942L503.113 17.5992L503.389 17.48ZM503.476 8.171L503.2 8.05326L503.198 8.0564L503.476 8.171ZM506.144 4.314L505.937 4.09658L505.935 4.0983L506.144 4.314ZM523.138 1.762L523.033 2.04332L523.033 2.04332L523.138 1.762ZM528.474 5.01L528.74 5.14834L528.844 4.94771L528.68 4.79221L528.474 5.01ZM526.291 8.55883C526.094 8.95297 525.876 9.19974 525.651 9.33475L525.96 9.84925C526.315 9.63626 526.6 9.28369 526.828 8.82716L526.291 8.55883ZM525.643 9.33964C525.43 9.47675 525.16 9.553 524.82 9.553V10.153C525.252 10.153 525.64 10.0552 525.968 9.84435L525.643 9.33964ZM524.82 9.553C524.507 9.553 524.126 9.4348 523.669 9.16075L523.36 9.67524C523.87 9.9812 524.359 10.153 524.82 10.153V9.553ZM523.676 9.16531C523.187 8.85195 522.611 8.51052 521.95 8.14111L521.657 8.66488C522.311 9.03014 522.876 9.36538 523.353 9.67068L523.676 9.16531ZM521.95 8.14111C521.272 7.76234 520.48 7.42643 519.577 7.13178L519.391 7.70222C520.266 7.98757 521.02 8.30899 521.657 8.66488L521.95 8.14111ZM519.584 7.13433C518.674 6.81068 517.604 6.653 516.381 6.653V7.253C517.555 7.253 518.553 7.40465 519.383 7.69966L519.584 7.13433ZM516.381 6.653C515.274 6.653 514.293 6.79124 513.444 7.07439L513.633 7.6436C514.408 7.38542 515.322 7.253 516.381 7.253V6.653ZM513.448 7.07303C512.624 7.33436 511.912 7.70905 511.317 8.20088L511.7 8.66312C512.227 8.22695 512.868 7.8863 513.629 7.64497L513.448 7.07303ZM511.313 8.20422C510.736 8.69896 510.302 9.2985 510.013 9.99977L510.568 10.2282C510.821 9.61483 511.198 9.09304 511.704 8.65978L511.313 8.20422ZM510.014 9.99683C509.726 10.676 509.585 11.4221 509.585 12.231H510.185C510.185 11.4933 510.314 10.828 510.567 10.2312L510.014 9.99683ZM509.585 12.231C509.585 13.275 509.873 14.1674 510.465 14.8867L510.928 14.5053C510.438 13.91 510.185 13.159 510.185 12.231H509.585ZM510.468 14.8907C511.059 15.5829 511.827 16.1665 512.764 16.6452L513.037 16.1108C512.157 15.6615 511.456 15.1238 510.925 14.5013L510.468 14.8907ZM512.764 16.6452C513.69 17.118 514.74 17.5396 515.913 17.911L516.094 17.339C514.947 16.9757 513.928 16.566 513.037 16.1108L512.764 16.6452ZM515.913 17.911C517.07 18.2773 518.246 18.6725 519.441 19.0967L519.642 18.5313C518.44 18.1048 517.258 17.7074 516.094 17.339L515.913 17.911ZM519.447 19.0986C520.652 19.5005 521.83 19.979 522.978 20.5341L523.239 19.9939C522.068 19.4277 520.867 18.9395 519.636 18.5294L519.447 19.0986ZM522.982 20.5359C524.114 21.0642 525.122 21.7426 526.007 22.571L526.417 22.133C525.484 21.2601 524.423 20.5465 523.235 19.9921L522.982 20.5359ZM526.009 22.5733C526.885 23.3746 527.586 24.3644 528.112 25.5478L528.661 25.3042C528.104 24.0516 527.356 22.9921 526.414 22.1307L526.009 22.5733ZM528.114 25.5514C528.652 26.7202 528.928 28.1539 528.928 29.863H529.528C529.528 28.0921 529.242 26.5678 528.659 25.3006L528.114 25.5514ZM528.928 29.863C528.928 31.7222 528.605 33.4632 527.963 35.0887L528.521 35.3093C529.193 33.6095 529.528 31.7931 529.528 29.863H528.928ZM527.962 35.0904C527.339 36.6942 526.416 38.0987 525.189 39.3062L525.61 39.7338C526.897 38.4667 527.868 36.9905 528.521 35.3076L527.962 35.0904ZM525.189 39.3062C523.983 40.4931 522.501 41.439 520.736 42.1413L520.957 42.6987C522.788 41.9703 524.341 40.9829 525.61 39.7338L525.189 39.3062ZM520.738 42.1402C518.981 42.8204 516.96 43.164 514.67 43.164V43.764C517.019 43.764 519.116 43.4116 520.955 42.6998L520.738 42.1402ZM514.67 43.164C513.356 43.164 512.062 43.0308 510.787 42.7643L510.664 43.3517C511.98 43.6266 513.315 43.764 514.67 43.764V43.164ZM510.783 42.7635C509.506 42.5157 508.277 42.1538 507.097 41.6778L506.872 42.2342C508.089 42.7249 509.355 43.0976 510.668 43.3525L510.783 42.7635ZM507.098 41.6784C505.936 41.202 504.841 40.6305 503.813 39.9643L503.486 40.4677C504.546 41.1548 505.675 41.7434 506.871 42.2336L507.098 41.6784ZM503.815 39.9657C502.807 39.3001 501.905 38.5596 501.109 37.7444L500.68 38.1636C501.508 39.0111 502.443 39.7786 503.484 40.4663L503.815 39.9657ZM501.151 38.1092L503.413 34.3682L502.9 34.0578L500.638 37.7988L501.151 38.1092ZM503.392 34.3983C503.583 34.1559 503.807 33.9581 504.065 33.8032L503.756 33.2888C503.434 33.4819 503.156 33.7288 502.921 34.0277L503.392 34.3983ZM504.07 33.8004C504.331 33.6371 504.614 33.556 504.926 33.556V32.956C504.502 32.956 504.109 33.0682 503.752 33.2916L504.07 33.8004ZM504.926 33.556C505.324 33.556 505.785 33.7236 506.316 34.108L506.668 33.622C506.077 33.1944 505.494 32.956 504.926 32.956V33.556ZM506.321 34.112C506.885 34.501 507.546 34.9379 508.302 35.4226L508.625 34.9174C507.873 34.4354 507.219 34.0023 506.662 33.618L506.321 34.112ZM508.305 35.4244C509.096 35.9191 510.012 36.3715 511.05 36.7829L511.271 36.2251C510.26 35.8244 509.378 35.3876 508.623 34.9156L508.305 35.4244ZM511.056 36.7853C512.142 37.1874 513.426 37.384 514.902 37.384V36.784C513.477 36.784 512.267 36.5939 511.265 36.2227L511.056 36.7853ZM514.902 37.384C517.169 37.384 518.969 36.8516 520.259 35.7458L519.868 35.2902C518.723 36.2724 517.081 36.784 514.902 36.784V37.384ZM520.261 35.744C521.558 34.6114 522.191 33.0029 522.191 30.965H521.591C521.591 32.8711 521.005 34.298 519.866 35.292L520.261 35.744ZM522.191 30.965C522.191 29.8109 521.896 28.8406 521.283 28.0798L520.816 28.4562C521.324 29.0874 521.591 29.9151 521.591 30.965H522.191ZM521.286 28.0838C520.714 27.3481 519.953 26.7417 519.011 26.2608L518.738 26.7952C519.614 27.2423 520.302 27.7959 520.813 28.4522L521.286 28.0838ZM519.015 26.2631C518.085 25.7683 517.03 25.3549 515.853 25.0214L515.69 25.5986C516.833 25.9225 517.847 26.3211 518.734 26.7929L519.015 26.2631ZM515.853 25.0214C514.697 24.6937 513.521 24.3371 512.326 23.9515L512.141 24.5225C513.343 24.9102 514.526 25.2689 515.69 25.5986L515.853 25.0214ZM512.326 23.9515C511.139 23.5687 509.971 23.1093 508.822 22.5731L508.569 23.1169C509.74 23.6634 510.931 24.132 512.141 24.5225L512.326 23.9515ZM508.822 22.5731C507.692 22.0454 506.685 21.3582 505.8 20.5113L505.385 20.9447C506.318 21.8378 507.38 22.5619 508.569 23.1169L508.822 22.5731ZM505.8 20.5113C504.924 19.6722 504.211 18.6239 503.664 17.3608L503.113 17.5992C503.688 18.9267 504.444 20.0438 505.385 20.9447L505.8 20.5113ZM503.666 17.3658C503.144 16.0975 502.877 14.5246 502.877 12.637H502.277C502.277 14.5774 502.551 16.2331 503.111 17.5942L503.666 17.3658ZM502.877 12.637C502.877 11.1501 503.168 9.70027 503.753 8.28559L503.198 8.0564C502.584 9.54173 502.277 11.0693 502.277 12.637H502.877ZM503.752 8.28873C504.354 6.87643 505.22 5.62387 506.352 4.52969L505.935 4.0983C504.747 5.2468 503.834 6.56557 503.2 8.05327L503.752 8.28873ZM506.35 4.53141C507.499 3.43955 508.905 2.56004 510.575 1.89576L510.354 1.33824C508.621 2.02729 507.147 2.94578 505.937 4.09659L506.35 4.53141ZM510.575 1.89576C512.235 1.23555 514.14 0.902 516.294 0.902V0.302C514.078 0.302 512.096 0.645112 510.354 1.33824L510.575 1.89576ZM516.294 0.902C518.737 0.902 520.982 1.28364 523.033 2.04332L523.242 1.48067C521.117 0.69369 518.8 0.302 516.294 0.302V0.902ZM523.033 2.04332C525.087 2.804 526.83 3.86631 528.267 5.22778L528.68 4.79221C527.178 3.36968 525.364 2.26666 523.242 1.48067L523.033 2.04332ZM528.207 4.87166L526.293 8.55466L526.826 8.83134L528.74 5.14834L528.207 4.87166Z" fill="#353535"/>
</svg>
