<?xml version="1.0" encoding="UTF-8" standalone="no"?>
<svg
   xmlns:dc="http://purl.org/dc/elements/1.1/"
   xmlns:cc="http://creativecommons.org/ns#"
   xmlns:rdf="http://www.w3.org/1999/02/22-rdf-syntax-ns#"
   xmlns:svg="http://www.w3.org/2000/svg"
   xmlns="http://www.w3.org/2000/svg"
   xmlns:sodipodi="http://sodipodi.sourceforge.net/DTD/sodipodi-0.dtd"
   xmlns:inkscape="http://www.inkscape.org/namespaces/inkscape"
   width="32"
   height="24"
   viewBox="0 0 32 24"
   fill="none"
   version="1.1"
   id="svg12"
   sodipodi:docname="email.svg"
   inkscape:version="1.0.1 (c497b03c, 2020-09-10)">
  <metadata
     id="metadata18">
    <rdf:RDF>
      <cc:Work
         rdf:about="">
        <dc:format>image/svg+xml</dc:format>
        <dc:type
           rdf:resource="http://purl.org/dc/dcmitype/StillImage" />
        <dc:title></dc:title>
      </cc:Work>
    </rdf:RDF>
  </metadata>
  <defs
     id="defs16">
    <filter
       inkscape:collect="always"
       style="color-interpolation-filters:sRGB"
       id="filter851"
       x="-9.5142859e-06"
       width="1.000019"
       y="-1.24875e-05"
       height="1.000025">
      <feGaussianBlur
         inkscape:collect="always"
         stdDeviation="0.000124875"
         id="feGaussianBlur853" />
    </filter>
  </defs>
  <sodipodi:namedview
     pagecolor="#ffffff"
     bordercolor="#666666"
     borderopacity="1"
     objecttolerance="10"
     gridtolerance="10"
     guidetolerance="10"
     inkscape:pageopacity="0"
     inkscape:pageshadow="2"
     inkscape:window-width="820"
     inkscape:window-height="480"
     id="namedview14"
     showgrid="false"
     inkscape:zoom="32.90625"
     inkscape:cx="16"
     inkscape:cy="13.215575"
     inkscape:window-x="3056"
     inkscape:window-y="89"
     inkscape:window-maximized="0"
     inkscape:current-layer="svg12" />
  <path
     d="M 28.35,0 H 3.15 C 1.41277,0 0,1.3455 0,3 v 18 c 0,1.6545 1.41277,3 3.15,3 h 25.2 c 1.7372,0 3.15,-1.3455 3.15,-3 V 3 c 0,-1.6545 -1.4128,-3 -3.15,-3 z m 0,3 V 3.7665 L 15.75,13.101 3.15,3.768 V 3 Z M 3.15,21 V 7.566 l 11.633,8.6175 c 0.2835,0.2115 0.6252,0.3165 0.967,0.3165 0.3418,0 0.6836,-0.105 0.9671,-0.3165 L 28.35,7.566 28.3532,21 Z"
     fill="#F0F0F0"
     id="path10"
     style="fill:#2bc9af;stroke-width:0.999999;filter:url(#filter851);fill-opacity:1" />
</svg>
