<svg width="1151" height="128" viewBox="0 0 1151 128" fill="none" xmlns="http://www.w3.org/2000/svg">
<path d="M65.51 105.26C69.4767 105.26 72.99 104.92 76.05 104.24C79.11 103.56 82 102.653 84.72 101.52V82.735H72.48C70.6667 82.735 69.25 82.2533 68.23 81.29C67.21 80.3267 66.7 79.1083 66.7 77.635V61.825H110.73V114.1C107.557 116.423 104.242 118.435 100.785 120.135C97.385 121.778 93.73 123.138 89.82 124.215C85.9667 125.292 81.83 126.085 77.41 126.595C73.0467 127.105 68.3433 127.36 63.3 127.36C54.2333 127.36 45.8467 125.773 38.14 122.6C30.4333 119.37 23.7467 114.95 18.08 109.34C12.47 103.673 8.05 96.9867 4.82 89.28C1.64667 81.5167 0.0600002 73.1017 0.0600002 64.035C0.0600002 54.7983 1.59 46.3267 4.65 38.62C7.71 30.8567 12.0733 24.17 17.74 18.56C23.4633 12.95 30.3483 8.58666 38.395 5.46999C46.4983 2.35333 55.5367 0.794996 65.51 0.794996C70.6667 0.794996 75.5117 1.22 80.045 2.06999C84.5783 2.91999 88.7433 4.08166 92.54 5.555C96.3933 7.02833 99.9067 8.785 103.08 10.825C106.253 12.865 109.087 15.075 111.58 17.455L103.25 30.12C102.457 31.31 101.493 32.245 100.36 32.925C99.2833 33.605 98.0933 33.945 96.79 33.945C95.09 33.945 93.3333 33.3783 91.52 32.245C89.2533 30.885 87.1 29.7233 85.06 28.76C83.0767 27.74 81.0367 26.9183 78.94 26.295C76.8433 25.6717 74.6333 25.2183 72.31 24.935C69.9867 24.6517 67.38 24.51 64.49 24.51C59.1067 24.51 54.2617 25.4733 49.955 27.4C45.6483 29.27 41.965 31.9333 38.905 35.39C35.9017 38.8467 33.5783 43.0117 31.935 47.885C30.2917 52.7017 29.47 58.085 29.47 64.035C29.47 70.6083 30.3767 76.445 32.19 81.545C34.0033 86.645 36.4967 90.9517 39.67 94.465C42.9 97.9783 46.6967 100.67 51.06 102.54C55.48 104.353 60.2967 105.26 65.51 105.26ZM207.955 2.155V24.255H157.125V53.155H196.055V74.405H157.125V103.9H207.955V126H128.225V2.155H207.955ZM314.278 2.155V24.935H279.428V126H250.698V24.935H215.848V2.155H314.278ZM390.437 126H361.537V2.155H390.437V126ZM428.57 2.155C429.817 2.155 430.865 2.21166 431.715 2.325C432.565 2.43833 433.33 2.665 434.01 3.005C434.69 3.28833 435.342 3.71333 435.965 4.28C436.589 4.84666 437.297 5.61166 438.09 6.57499L496.91 80.95C496.684 78.57 496.514 76.275 496.4 74.065C496.287 71.7983 496.23 69.6733 496.23 67.69V2.155H521.56V126H506.6C504.39 126 502.52 125.66 500.99 124.98C499.46 124.3 497.987 123.053 496.57 121.24L438.175 47.46C438.345 49.6133 438.487 51.7383 438.6 53.835C438.714 55.875 438.77 57.8017 438.77 59.615V126H413.44V2.155H428.57ZM664.737 2.155V24.935H629.887V126H601.157V24.935H566.307V2.155H664.737ZM793.659 64.035C793.659 72.9883 792.1 81.3183 788.984 89.025C785.924 96.7317 781.589 103.447 775.979 109.17C770.369 114.837 763.597 119.285 755.664 122.515C747.787 125.745 739.032 127.36 729.399 127.36C719.765 127.36 710.982 125.745 703.049 122.515C695.115 119.285 688.315 114.837 682.649 109.17C677.039 103.447 672.675 96.7317 669.559 89.025C666.499 81.3183 664.969 72.9883 664.969 64.035C664.969 55.0817 666.499 46.7517 669.559 39.045C672.675 31.3383 677.039 24.6517 682.649 18.985C688.315 13.3183 695.115 8.86999 703.049 5.64C710.982 2.41 719.765 0.794996 729.399 0.794996C739.032 0.794996 747.787 2.43833 755.664 5.72499C763.597 8.955 770.369 13.4033 775.979 19.07C781.589 24.7367 785.924 31.4233 788.984 39.13C792.1 46.8367 793.659 55.1383 793.659 64.035ZM764.249 64.035C764.249 57.915 763.455 52.4183 761.869 47.545C760.282 42.615 757.987 38.45 754.984 35.05C752.037 31.65 748.41 29.0433 744.104 27.23C739.797 25.4167 734.895 24.51 729.399 24.51C723.845 24.51 718.887 25.4167 714.524 27.23C710.217 29.0433 706.562 31.65 703.559 35.05C700.612 38.45 698.345 42.615 696.759 47.545C695.172 52.4183 694.379 57.915 694.379 64.035C694.379 70.2117 695.172 75.765 696.759 80.695C698.345 85.5683 700.612 89.705 703.559 93.105C706.562 96.505 710.217 99.1117 714.524 100.925C718.887 102.682 723.845 103.56 729.399 103.56C734.895 103.56 739.797 102.682 744.104 100.925C748.41 99.1117 752.037 96.505 754.984 93.105C757.987 89.705 760.282 85.5683 761.869 80.695C763.455 75.765 764.249 70.2117 764.249 64.035ZM858.905 103.305C862.759 103.305 866.187 102.682 869.19 101.435C872.25 100.132 874.829 98.29 876.925 95.91C879.022 93.53 880.609 90.64 881.685 87.24C882.819 83.7833 883.385 79.8733 883.385 75.51V2.155H912.115V75.51C912.115 83.1033 910.869 90.0733 908.375 96.42C905.939 102.767 902.425 108.235 897.835 112.825C893.245 117.415 887.664 120.985 881.09 123.535C874.517 126.085 867.122 127.36 858.905 127.36C850.632 127.36 843.209 126.085 836.635 123.535C830.062 120.985 824.48 117.415 819.89 112.825C815.3 108.235 811.787 102.767 809.35 96.42C806.914 90.0733 805.695 83.1033 805.695 75.51V2.155H834.425V75.425C834.425 79.7883 834.964 83.6983 836.04 87.155C837.174 90.555 838.789 93.4733 840.885 95.91C842.982 98.29 845.532 100.132 848.535 101.435C851.595 102.682 855.052 103.305 858.905 103.305ZM1013.96 93.955C1014.64 93.955 1015.32 94.0967 1016 94.38C1016.68 94.6067 1017.33 95.0317 1017.95 95.655L1029.34 107.64C1024.36 114.157 1018.1 119.087 1010.56 122.43C1003.08 125.717 994.212 127.36 983.955 127.36C974.548 127.36 966.105 125.773 958.625 122.6C951.202 119.37 944.883 114.95 939.67 109.34C934.513 103.673 930.547 96.9867 927.77 89.28C924.993 81.5167 923.605 73.1017 923.605 64.035C923.605 54.7983 925.192 46.3267 928.365 38.62C931.538 30.8567 935.958 24.17 941.625 18.56C947.348 12.95 954.177 8.58666 962.11 5.46999C970.043 2.35333 978.798 0.794996 988.375 0.794996C993.022 0.794996 997.385 1.22 1001.46 2.06999C1005.6 2.86332 1009.45 3.99666 1013.02 5.46999C1016.59 6.88666 1019.88 8.615 1022.88 10.655C1025.89 12.6383 1028.55 14.8483 1030.87 17.285L1021.18 30.29C1020.56 31.0833 1019.82 31.82 1018.97 32.5C1018.12 33.1233 1016.93 33.435 1015.4 33.435C1014.38 33.435 1013.42 33.2083 1012.51 32.755C1011.61 32.3017 1010.64 31.7633 1009.62 31.14C1008.6 30.46 1007.47 29.7517 1006.22 29.015C1005.03 28.2217 1003.59 27.5133 1001.89 26.89C1000.25 26.21 998.292 25.6433 996.025 25.19C993.815 24.7367 991.208 24.51 988.205 24.51C982.992 24.51 978.232 25.445 973.925 27.315C969.618 29.1283 965.907 31.7633 962.79 35.22C959.73 38.62 957.322 42.7567 955.565 47.63C953.865 52.5033 953.015 57.9717 953.015 64.035C953.015 70.3817 953.865 76.02 955.565 80.95C957.322 85.88 959.673 90.045 962.62 93.445C965.623 96.7883 969.108 99.3383 973.075 101.095C977.042 102.852 981.292 103.73 985.825 103.73C988.432 103.73 990.812 103.617 992.965 103.39C995.118 103.107 997.102 102.653 998.915 102.03C1000.78 101.407 1002.54 100.613 1004.18 99.65C1005.88 98.63 1007.58 97.3833 1009.28 95.91C1009.96 95.3433 1010.7 94.89 1011.49 94.55C1012.29 94.1533 1013.11 93.955 1013.96 93.955ZM1150.59 126H1121.69V73.64H1071.37V126H1042.47V2.155H1071.37V53.92H1121.69V2.155H1150.59V126Z" fill="#323232"/>
</svg>
