<?xml version="1.0" encoding="UTF-8" standalone="no"?>
<svg
   xmlns:dc="http://purl.org/dc/elements/1.1/"
   xmlns:cc="http://creativecommons.org/ns#"
   xmlns:rdf="http://www.w3.org/1999/02/22-rdf-syntax-ns#"
   xmlns:svg="http://www.w3.org/2000/svg"
   xmlns="http://www.w3.org/2000/svg"
   xmlns:sodipodi="http://sodipodi.sourceforge.net/DTD/sodipodi-0.dtd"
   xmlns:inkscape="http://www.inkscape.org/namespaces/inkscape"
   width="1151"
   height="132"
   viewBox="0 0 1151 132"
   fill="none"
   version="1.1"
   id="svg12"
   sodipodi:docname="line.svg"
   inkscape:version="1.0.1 (c497b03c, 2020-09-10)">
  <metadata
     id="metadata18">
    <rdf:RDF>
      <cc:Work
         rdf:about="">
        <dc:format>image/svg+xml</dc:format>
        <dc:type
           rdf:resource="http://purl.org/dc/dcmitype/StillImage" />
      </cc:Work>
    </rdf:RDF>
  </metadata>
  <defs
     id="defs16" />
  <sodipodi:namedview
     pagecolor="#ffffff"
     bordercolor="#666666"
     borderopacity="1"
     objecttolerance="10"
     gridtolerance="10"
     guidetolerance="10"
     inkscape:pageopacity="0"
     inkscape:pageshadow="2"
     inkscape:window-width="705"
     inkscape:window-height="480"
     id="namedview14"
     showgrid="false"
     inkscape:zoom="0.91485665"
     inkscape:cx="575.5"
     inkscape:cy="66"
     inkscape:window-x="3167"
     inkscape:window-y="39"
     inkscape:window-maximized="0"
     inkscape:current-layer="svg12" />
  <path
     d="M74.115 114.59L74.4258 117.574L74.4528 117.571L74.4796 117.568L74.115 114.59ZM81.935 113.145L82.6785 116.051L81.935 113.145ZM88.82 110.935L89.9215 113.725L89.953 113.713L89.9842 113.7L88.82 110.935ZM95.28 107.875L96.6772 110.53L98.28 109.686V107.875H95.28ZM95.28 81.015H98.28V78.015H95.28V81.015ZM73.775 80.08L71.6537 82.2013L71.6998 82.2474L71.7478 82.2915L73.775 80.08ZM72.84 68.435V65.435H69.84V68.435H72.84ZM110.24 68.435H113.24V65.435H110.24V68.435ZM110.24 115.185L111.996 117.617L113.24 116.719V115.185H110.24ZM100.635 120.965L99.3117 118.273L99.3025 118.277L99.2934 118.282L100.635 120.965ZM90.01 125.13L90.8399 128.013L90.854 128.009L90.8681 128.005L90.01 125.13ZM77.94 127.51L77.5872 124.531L77.5679 124.533L77.5486 124.536L77.94 127.51ZM39.605 123.855L38.4542 126.625L38.4633 126.629L38.4724 126.633L39.605 123.855ZM20.565 111.105L18.4106 113.193L18.416 113.198L18.4215 113.204L20.565 111.105ZM8.07 91.385L5.2705 92.4633L5.27397 92.4723L5.27749 92.4813L8.07 91.385ZM7.985 40.725L5.1855 39.6467L5.18201 39.6557L5.17858 39.6648L7.985 40.725ZM20.48 21.09L18.3477 18.9797L18.3476 18.9798L20.48 21.09ZM40.115 8.34L39.0257 5.54475L39.0187 5.54749L40.115 8.34ZM79.385 4.93999L78.859 7.89352L78.8787 7.89702L78.8984 7.90026L79.385 4.93999ZM90.86 7.99999L89.777 10.7977L89.804 10.8081L89.8312 10.8181L90.86 7.99999ZM100.72 12.845L99.1001 15.3701L99.1172 15.381L99.1343 15.3917L100.72 12.845ZM109.135 19.22L111.679 20.81L113.004 18.6901L111.158 17.0045L109.135 19.22ZM104.46 26.7L106.999 28.2984L107.004 28.29L104.46 26.7ZM97.745 28.06L99.2481 25.4637L99.2295 25.453L99.2108 25.4425L97.745 28.06ZM86.525 21.94L85.3357 24.6942L85.3731 24.7103L85.4108 24.7254L86.525 21.94ZM77.6 19.22L76.9647 22.152L76.9747 22.1541L77.6 19.22ZM46.83 21.515L47.9393 24.3024L47.9515 24.2975L47.9637 24.2925L46.83 21.515ZM32.635 31.12L34.8152 33.1807L34.8222 33.1733L34.8292 33.1659L32.635 31.12ZM23.625 46.25L26.4515 47.2556L26.4545 47.247L23.625 46.25ZM23.71 86.795L20.883 87.799L20.8887 87.815L20.8945 87.8309L23.71 86.795ZM32.975 102.095L35.1544 100.033L32.975 102.095ZM65.105 118.015C68.4755 118.015 71.5845 117.87 74.4258 117.574L73.8042 111.606C71.2055 111.877 68.3078 112.015 65.105 112.015V118.015ZM74.4796 117.568C77.37 117.214 80.1043 116.71 82.6785 116.051L81.1915 110.239C78.8924 110.827 76.4133 111.286 73.7504 111.612L74.4796 117.568ZM82.6785 116.051C85.2265 115.4 87.6419 114.625 89.9215 113.725L87.7185 108.145C85.6915 108.945 83.5168 109.644 81.1915 110.239L82.6785 116.051ZM89.9842 113.7C92.2199 112.759 94.451 111.701 96.6772 110.53L93.8828 105.22C91.8024 106.315 89.7267 107.298 87.6558 108.17L89.9842 113.7ZM98.28 107.875V81.015H92.28V107.875H98.28ZM95.28 78.015H76.41V84.015H95.28V78.015ZM76.41 78.015C75.9502 78.015 75.8377 77.9011 75.8022 77.8685L71.7478 82.2915C73.0723 83.5056 74.7164 84.015 76.41 84.015V78.015ZM75.8963 77.9587C75.8696 77.932 75.8578 77.9155 75.8543 77.9101C75.8509 77.9052 75.8512 77.9048 75.852 77.9069C75.8528 77.9088 75.8505 77.9041 75.8476 77.8886C75.8446 77.8725 75.84 77.8393 75.84 77.785H69.84C69.84 79.4619 70.45 80.9977 71.6537 82.2013L75.8963 77.9587ZM75.84 77.785V68.435H69.84V77.785H75.84ZM72.84 71.435H110.24V65.435H72.84V71.435ZM107.24 68.435V115.185H113.24V68.435H107.24ZM108.484 112.753C105.559 114.865 102.502 116.705 99.3117 118.273L101.958 123.657C105.455 121.939 108.801 119.925 111.996 117.617L108.484 112.753ZM99.2934 118.282C96.1736 119.842 92.795 121.168 89.1519 122.255L90.8681 128.005C94.8184 126.825 98.5231 125.375 101.977 123.648L99.2934 118.282ZM89.1801 122.247C85.6128 123.274 81.7505 124.038 77.5872 124.531L78.2928 130.489C82.7429 129.962 86.9273 129.139 90.8399 128.013L89.1801 122.247ZM77.5486 124.536C73.3904 125.083 68.8478 125.36 63.915 125.36V131.36C69.0689 131.36 73.8763 131.071 78.3314 130.484L77.5486 124.536ZM63.915 125.36C55.4201 125.36 47.7067 123.918 40.7376 121.077L38.4724 126.633C46.2366 129.798 54.7299 131.36 63.915 131.36V125.36ZM40.7558 121.085C33.7437 118.172 27.7394 114.144 22.7085 109.006L18.4215 113.204C24.0439 118.946 30.7329 123.418 38.4542 126.625L40.7558 121.085ZM22.7194 109.017C17.6888 103.826 13.7316 97.5968 10.8625 90.2887L5.27749 92.4813C8.41506 100.473 12.7879 107.391 18.4106 113.193L22.7194 109.017ZM10.8695 90.3067C8.0703 83.0395 6.65 74.9952 6.65 66.14H0.65C0.65 75.6448 2.17637 84.4305 5.2705 92.4633L10.8695 90.3067ZM6.65 66.14C6.65 57.1599 8.04563 49.0534 10.7914 41.7852L5.17858 39.6648C2.14437 47.6965 0.65 56.5334 0.65 66.14H6.65ZM10.7845 41.8033C13.5931 34.5117 17.5405 28.3254 22.6124 23.2002L18.3476 18.9798C12.6528 24.7346 8.27022 31.6382 5.1855 39.6467L10.7845 41.8033ZM22.6123 23.2003C27.7401 18.0191 33.9256 13.9928 41.2113 11.1325L39.0187 5.54749C31.0044 8.69383 24.0999 13.1676 18.3477 18.9797L22.6123 23.2003ZM41.2043 11.1352C48.5155 8.28603 56.7521 6.83499 65.955 6.83499V0.834991C56.1179 0.834991 47.1279 2.38728 39.0257 5.54476L41.2043 11.1352ZM65.955 6.83499C70.6203 6.83499 74.919 7.19187 78.859 7.89352L79.911 1.98646C75.5777 1.21478 70.923 0.834991 65.955 0.834991V6.83499ZM78.8984 7.90026C82.8537 8.55046 86.4765 9.52009 89.777 10.7977L91.943 5.20229C88.2168 3.7599 84.1896 2.68953 79.8716 1.97972L78.8984 7.90026ZM89.8312 10.8181C93.2074 12.0506 96.2941 13.57 99.1001 15.3701L102.34 10.3199C99.1393 8.26669 95.6526 6.556 91.8888 5.18192L89.8312 10.8181ZM99.1343 15.3917C101.983 17.1651 104.641 19.1793 107.112 21.4355L111.158 17.0045C108.416 14.5007 105.464 12.2649 102.306 10.2983L99.1343 15.3917ZM106.591 17.63L101.916 25.11L107.004 28.29L111.679 20.81L106.591 17.63ZM101.921 25.1016C101.391 25.9442 101.018 25.995 100.72 25.995V31.995C103.482 31.995 105.603 30.5158 106.999 28.2984L101.921 25.1016ZM100.72 25.995C100.502 25.995 100.031 25.9168 99.2481 25.4637L96.2419 30.6563C97.6126 31.4499 99.1248 31.995 100.72 31.995V25.995ZM99.2108 25.4425C97.8615 24.6869 96.3296 23.7576 94.6114 22.6491L91.3586 27.6909C93.1538 28.849 94.7952 29.8465 96.2792 30.6775L99.2108 25.4425ZM94.6114 22.6491C92.6517 21.3848 90.3159 20.2252 87.6392 19.1546L85.4108 24.7254C87.8341 25.6947 89.805 26.6886 91.3586 27.6909L94.6114 22.6491ZM87.7143 19.1858C84.9946 18.0114 81.8211 17.0522 78.2253 16.2859L76.9747 22.1541C80.2923 22.8611 83.0687 23.7153 85.3357 24.6942L87.7143 19.1858ZM78.2353 16.288C74.5683 15.4935 70.2926 15.115 65.445 15.115V21.115C70.0041 21.115 73.8318 21.4732 76.9647 22.152L78.2353 16.288ZM65.445 15.115C58.2548 15.115 51.6574 16.3044 45.6963 18.7375L47.9637 24.2925C53.1093 22.1923 58.9219 21.115 65.445 21.115V15.115ZM45.7207 18.7276C39.7734 21.0944 34.6661 24.5426 30.4408 29.0741L34.8292 33.1659C38.4239 29.3107 42.78 26.3556 47.9393 24.3024L45.7207 18.7276ZM30.4548 29.0592C26.2265 33.5327 23.0166 38.95 20.7955 45.2529L26.4545 47.247C28.4268 41.65 31.2235 36.9806 34.8152 33.1807L30.4548 29.0592ZM20.7985 45.2444C18.5687 51.5122 17.48 58.4902 17.48 66.14H23.48C23.48 59.0565 24.488 52.7744 26.4515 47.2556L20.7985 45.2444ZM17.48 66.14C17.48 74.123 18.5951 81.3567 20.883 87.799L26.537 85.791C24.5183 80.1067 23.48 73.5703 23.48 66.14H17.48ZM20.8945 87.8309C23.2295 94.1774 26.5206 99.6374 30.7956 104.157L35.1544 100.033C31.496 96.166 28.6105 91.426 26.5255 85.7591L20.8945 87.8309ZM30.7956 104.157C35.0622 108.667 40.1256 112.111 45.9559 114.479L48.2141 108.921C43.1644 106.869 38.8211 103.91 35.1544 100.033L30.7956 104.157ZM45.9559 114.479C51.7949 116.852 58.1907 118.015 65.105 118.015V112.015C58.8726 112.015 53.2551 110.968 48.2141 108.921L45.9559 114.479ZM210.689 5.19499H213.689V2.19499H210.689V5.19499ZM210.689 18.625V21.625H213.689V18.625H210.689ZM152.209 18.625V15.625H149.209V18.625H152.209ZM152.209 59.085H149.209V62.085H152.209V59.085ZM199.554 59.085H202.554V56.085H199.554V59.085ZM199.554 72.005V75.005H202.554V72.005H199.554ZM152.209 72.005V69.005H149.209V72.005H152.209ZM152.209 113.57H149.209V116.57H152.209V113.57ZM210.689 113.57H213.689V110.57H210.689V113.57ZM210.689 127V130H213.689V127H210.689ZM135.634 127H132.634V130H135.634V127ZM135.634 5.19499V2.19499H132.634V5.19499H135.634ZM207.689 5.19499V18.625H213.689V5.19499H207.689ZM210.689 15.625H152.209V21.625H210.689V15.625ZM149.209 18.625V59.085H155.209V18.625H149.209ZM152.209 62.085H199.554V56.085H152.209V62.085ZM196.554 59.085V72.005H202.554V59.085H196.554ZM199.554 69.005H152.209V75.005H199.554V69.005ZM149.209 72.005V113.57H155.209V72.005H149.209ZM152.209 116.57H210.689V110.57H152.209V116.57ZM207.689 113.57V127H213.689V113.57H207.689ZM210.689 124H135.634V130H210.689V124ZM138.634 127V5.19499H132.634V127H138.634ZM135.634 8.19499H210.689V2.19499H135.634V8.19499ZM317.373 5.19499H320.373V2.19499H317.373V5.19499ZM317.373 19.05V22.05H320.373V19.05H317.373ZM278.018 19.05V16.05H275.018V19.05H278.018ZM278.018 127V130H281.018V127H278.018ZM261.528 127H258.528V130H261.528V127ZM261.528 19.05H264.528V16.05H261.528V19.05ZM222.003 19.05H219.003V22.05H222.003V19.05ZM222.003 5.19499V2.19499H219.003V5.19499H222.003ZM314.373 5.19499V19.05H320.373V5.19499H314.373ZM317.373 16.05H278.018V22.05H317.373V16.05ZM275.018 19.05V127H281.018V19.05H275.018ZM278.018 124H261.528V130H278.018V124ZM264.528 127V19.05H258.528V127H264.528ZM261.528 16.05H222.003V22.05H261.528V16.05ZM225.003 19.05V5.19499H219.003V19.05H225.003ZM222.003 8.19499H317.373V2.19499H222.003V8.19499ZM387.108 127V130H390.108V127H387.108ZM370.618 127H367.618V130H370.618V127ZM370.618 5.19499V2.19499H367.618V5.19499H370.618ZM387.108 5.19499H390.108V2.19499H387.108V5.19499ZM387.108 124H370.618V130H387.108V124ZM373.618 127V5.19499H367.618V127H373.618ZM370.618 8.19499H387.108V2.19499H370.618V8.19499ZM384.108 5.19499V127H390.108V5.19499H384.108ZM431.416 5.78999L429.905 8.38133L430.029 8.45369L430.159 8.51387L431.416 5.78999ZM433.882 7.99999L436.26 6.17192L436.242 6.14874L436.224 6.1259L433.882 7.99999ZM504.431 99.8L502.053 101.628L508.653 110.217L507.412 99.4561L504.431 99.8ZM504.091 95.55L501.094 95.6699L501.094 95.6749L504.091 95.55ZM504.007 5.19499V2.19499H501.007V5.19499H504.007ZM518.456 5.19499H521.456V2.19499H518.456V5.19499ZM518.456 127V130H521.456V127H518.456ZM506.811 126.32L505.4 128.967L505.435 128.986L505.47 129.003L506.811 126.32ZM504.261 124.025L501.883 125.853L501.895 125.868L501.907 125.884L504.261 124.025ZM433.796 32.31L436.175 30.4822L429.997 22.4411L430.806 32.5492L433.796 32.31ZM434.051 36.475L437.049 36.3501L434.051 36.475ZM434.136 127V130H437.136V127H434.136ZM419.686 127H416.686V130H419.686V127ZM419.686 5.19499V2.19499H416.686V5.19499H419.686ZM428.186 8.19499C428.799 8.19499 429.246 8.23703 429.556 8.2941C429.876 8.35315 429.956 8.41134 429.905 8.38133L432.928 3.19865C431.541 2.38948 429.801 2.19499 428.186 2.19499V8.19499ZM430.159 8.51387C430.26 8.56016 430.728 8.86039 431.539 9.87408L436.224 6.1259C435.222 4.87292 434.047 3.69983 432.674 3.06612L430.159 8.51387ZM431.503 9.82806L502.053 101.628L506.81 97.9719L436.26 6.17192L431.503 9.82806ZM507.412 99.4561C507.249 98.0492 507.142 96.7058 507.089 95.4251L501.094 95.6749C501.154 97.1142 501.274 98.6042 501.451 100.144L507.412 99.4561ZM507.089 95.4301C507.034 94.0499 507.007 92.7301 507.007 91.47H501.007C501.007 92.8166 501.036 94.2167 501.094 95.6699L507.089 95.4301ZM507.007 91.47V5.19499H501.007V91.47H507.007ZM504.007 8.19499H518.456V2.19499H504.007V8.19499ZM515.456 5.19499V127H521.456V5.19499H515.456ZM518.456 124H510.126V130H518.456V124ZM510.126 124C509.16 124 508.542 123.831 508.153 123.637L505.47 129.003C506.895 129.716 508.486 130 510.126 130V124ZM508.223 123.673C507.859 123.479 507.31 123.045 506.616 122.166L501.907 125.884C502.913 127.158 504.064 128.255 505.4 128.967L508.223 123.673ZM506.64 122.197L436.175 30.4822L431.418 34.1377L501.883 125.853L506.64 122.197ZM430.806 32.5492C430.916 33.9295 430.999 35.2797 431.054 36.5999L437.049 36.3501C436.991 34.9503 436.903 33.5238 436.787 32.0708L430.806 32.5492ZM431.054 36.5999C431.109 37.9262 431.136 39.1306 431.136 40.215H437.136C437.136 39.0328 437.107 37.7438 437.049 36.3501L431.054 36.5999ZM431.136 40.215V127H437.136V40.215H431.136ZM434.136 124H419.686V130H434.136V124ZM422.686 127V5.19499H416.686V127H422.686ZM419.686 8.19499H428.186V2.19499H419.686V8.19499ZM664.014 5.19499H667.014V2.19499H664.014V5.19499ZM664.014 19.05V22.05H667.014V19.05H664.014ZM624.659 19.05V16.05H621.659V19.05H624.659ZM624.659 127V130H627.659V127H624.659ZM608.169 127H605.169V130H608.169V127ZM608.169 19.05H611.169V16.05H608.169V19.05ZM568.644 19.05H565.644V22.05H568.644V19.05ZM568.644 5.19499V2.19499H565.644V5.19499H568.644ZM661.014 5.19499V19.05H667.014V5.19499H661.014ZM664.014 16.05H624.659V22.05H664.014V16.05ZM621.659 19.05V127H627.659V19.05H621.659ZM624.659 124H608.169V130H624.659V124ZM611.169 127V19.05H605.169V127H611.169ZM608.169 16.05H568.644V22.05H608.169V16.05ZM571.644 19.05V5.19499H565.644V19.05H571.644ZM568.644 8.19499H664.014V2.19499H568.644V8.19499ZM781.826 91.3L784.63 92.3671L784.633 92.3602L781.826 91.3ZM750.546 123.77L751.679 126.548L751.69 126.544L750.546 123.77ZM701.586 123.77L700.435 126.54L700.445 126.544L700.454 126.548L701.586 123.77ZM682.631 110.935L680.466 113.011L682.631 110.935ZM670.391 91.3L667.585 92.3602L667.588 92.3671L670.391 91.3ZM670.391 41.065L673.195 42.1321L673.198 42.1252L670.391 41.065ZM682.631 21.345L684.797 23.4212L684.802 23.4156L684.807 23.4101L682.631 21.345ZM701.586 8.42499L702.737 11.1955L701.586 8.42499ZM750.546 8.42499L749.396 11.1955L749.403 11.1986L750.546 8.42499ZM769.586 21.345L767.41 23.4101L767.416 23.4156L767.421 23.4212L769.586 21.345ZM781.826 41.065L779.02 42.1252L779.023 42.1321L781.826 41.065ZM757.516 30.95L755.291 32.9619L755.298 32.9696L755.305 32.9772L757.516 30.95ZM743.916 21.43L745.066 18.659L743.916 21.43ZM708.301 21.43L707.152 18.659L708.301 21.43ZM694.616 30.95L692.406 28.9215L692.405 28.9228L694.616 30.95ZM685.946 45.995L683.109 45.022L685.946 45.995ZM685.946 86.285L683.108 87.258L683.111 87.2663L685.946 86.285ZM694.616 101.33L692.391 103.342L692.405 103.358L692.42 103.374L694.616 101.33ZM708.301 110.765L707.152 113.536L707.164 113.541L707.177 113.546L708.301 110.765ZM743.916 110.765L745.041 113.546L745.053 113.541L745.066 113.536L743.916 110.765ZM757.516 101.33L759.728 103.357L759.735 103.35L759.742 103.342L757.516 101.33ZM766.186 86.285L769.021 87.2663L769.024 87.258L766.186 86.285ZM783.161 66.14C783.161 74.9428 781.768 82.9655 779.02 90.2398L784.633 92.3602C787.665 84.3345 789.161 75.5838 789.161 66.14H783.161ZM779.023 90.2329C776.266 97.476 772.394 103.671 767.421 108.859L771.752 113.011C777.318 107.205 781.607 100.311 784.63 92.3671L779.023 90.2329ZM767.421 108.859C762.455 114.038 756.462 118.087 749.403 120.996L751.69 126.544C759.477 123.334 766.178 118.825 771.752 113.011L767.421 108.859ZM749.414 120.992C742.449 123.831 734.68 125.275 726.066 125.275V131.275C735.359 131.275 743.91 129.715 751.679 126.548L749.414 120.992ZM726.066 125.275C717.453 125.275 709.684 123.831 702.719 120.992L700.454 126.548C708.222 129.715 716.773 131.275 726.066 131.275V125.275ZM702.737 121C695.734 118.091 689.767 114.042 684.797 108.859L680.466 113.011C686.036 118.821 692.705 123.329 700.435 126.54L702.737 121ZM684.797 108.859C679.823 103.671 675.952 97.476 673.195 90.2329L667.588 92.3671C670.611 100.311 674.899 107.205 680.466 113.011L684.797 108.859ZM673.198 90.2398C670.45 82.9655 669.056 74.9428 669.056 66.14H663.056C663.056 75.5838 664.553 84.3345 667.585 92.3602L673.198 90.2398ZM669.056 66.14C669.056 57.3368 670.45 49.3453 673.195 42.1321L667.588 39.9979C664.553 47.9713 663.056 56.6965 663.056 66.14H669.056ZM673.198 42.1252C675.956 34.8253 679.827 28.6048 684.797 23.4212L680.466 19.2688C674.896 25.0785 670.607 32.0047 667.585 40.0048L673.198 42.1252ZM684.807 23.4101C689.777 18.1737 695.741 14.1015 702.737 11.1955L700.435 5.6545C692.698 8.86848 686.026 13.4096 680.455 19.2799L684.807 23.4101ZM702.737 11.1955C709.697 8.30447 717.46 6.83499 726.066 6.83499V0.834991C716.766 0.834991 708.209 2.42551 700.435 5.6545L702.737 11.1955ZM726.066 6.83499C734.673 6.83499 742.436 8.30447 749.396 11.1955L751.697 5.6545C743.924 2.42551 735.366 0.834991 726.066 0.834991V6.83499ZM749.403 11.1986C756.456 14.1057 762.445 18.1778 767.41 23.4101L771.762 19.2799C766.188 13.4055 759.484 8.86426 751.69 5.6514L749.403 11.1986ZM767.421 23.4212C772.391 28.6048 776.262 34.8253 779.02 42.1252L784.633 40.0048C781.61 32.0047 777.322 25.0785 771.752 19.2688L767.421 23.4212ZM779.023 42.1321C781.768 49.3453 783.161 57.3368 783.161 66.14H789.161C789.161 56.6965 787.665 47.9713 784.63 39.9979L779.023 42.1321ZM772.246 66.14C772.246 58.3899 771.19 51.338 769.024 45.022L763.349 46.968C765.263 52.552 766.246 58.9301 766.246 66.14H772.246ZM769.024 45.022C766.868 38.7344 763.783 33.3462 759.728 28.9228L755.305 32.9772C758.73 36.7138 761.424 41.3556 763.349 46.968L769.024 45.022ZM759.742 28.9381C755.693 24.4605 750.789 21.0333 745.066 18.659L742.767 24.201C747.697 26.2467 751.859 29.1662 755.291 32.9619L759.742 28.9381ZM745.066 18.659C739.327 16.2781 732.979 15.115 726.066 15.115V21.115C732.3 21.115 737.852 22.1618 742.767 24.201L745.066 18.659ZM726.066 15.115C719.206 15.115 712.887 16.2794 707.152 18.659L709.451 24.201C714.369 22.1606 719.893 21.115 726.066 21.115V15.115ZM707.152 18.659C701.433 21.0317 696.506 24.4542 692.406 28.9215L696.827 32.9785C700.32 29.1724 704.516 26.2483 709.451 24.201L707.152 18.659ZM692.405 28.9228C688.35 33.3462 685.264 38.7344 683.109 45.022L688.784 46.968C690.708 41.3556 693.403 36.7138 696.828 32.9772L692.405 28.9228ZM683.109 45.022C680.943 51.338 679.886 58.3899 679.886 66.14H685.886C685.886 58.9301 686.87 52.552 688.784 46.968L683.109 45.022ZM679.886 66.14C679.886 73.8901 680.943 80.942 683.109 87.258L688.784 85.312C686.87 79.728 685.886 73.3499 685.886 66.14H679.886ZM683.111 87.2663C685.268 93.4956 688.35 98.8727 692.391 103.342L696.842 99.3181C693.402 95.5139 690.705 90.8611 688.781 85.3037L683.111 87.2663ZM692.42 103.374C696.52 107.779 701.442 111.167 707.152 113.536L709.451 107.994C704.507 105.943 700.306 103.041 696.813 99.2863L692.42 103.374ZM707.177 113.546C712.906 115.862 719.216 116.995 726.066 116.995V110.995C719.884 110.995 714.35 109.974 709.426 107.984L707.177 113.546ZM726.066 116.995C732.97 116.995 739.309 115.863 745.041 113.546L742.792 107.984C737.87 109.973 732.309 110.995 726.066 110.995V116.995ZM745.066 113.536C750.779 111.166 755.68 107.773 759.728 103.357L755.305 99.3028C751.873 103.047 747.707 105.944 742.767 107.994L745.066 113.536ZM759.742 103.342C763.782 98.8727 766.865 93.4956 769.021 87.2663L763.351 85.3037C761.428 90.8611 758.73 95.5139 755.291 99.3181L759.742 103.342ZM769.024 87.258C771.19 80.942 772.246 73.8901 772.246 66.14H766.246C766.246 73.3499 765.263 79.728 763.349 85.312L769.024 87.258ZM879.551 104.22L877.329 102.204L877.319 102.215L877.309 102.227L879.551 104.22ZM885.841 93.255L883.007 92.2724L883.001 92.2893L882.995 92.3063L885.841 93.255ZM888.051 5.19499V2.19499H885.051V5.19499H888.051ZM904.456 5.19499H907.456V2.19499H904.456V5.19499ZM901.056 98.78L898.249 97.7208L898.245 97.7325L898.241 97.7441L901.056 98.78ZM891.451 114.42L889.275 112.355L889.274 112.356L891.451 114.42ZM820.476 114.42L818.3 116.485L818.306 116.492L818.313 116.499L820.476 114.42ZM810.786 98.78L807.971 99.8159L807.975 99.8275L807.979 99.8392L810.786 98.78ZM807.471 5.19499V2.19499H804.471V5.19499H807.471ZM823.876 5.19499H826.876V2.19499H823.876V5.19499ZM826.001 93.17L823.155 94.1187L823.161 94.1357L823.167 94.1526L826.001 93.17ZM832.291 104.135L830.049 106.128L830.059 106.14L830.069 106.151L832.291 104.135ZM842.406 111.36L841.191 114.103L841.215 114.113L841.238 114.123L842.406 111.36ZM856.006 116.91C861.388 116.91 866.305 116.002 870.703 114.117L868.339 108.603C864.804 110.118 860.711 110.91 856.006 110.91V116.91ZM870.703 114.117C875.052 112.253 878.765 109.62 881.793 106.213L877.309 102.227C874.898 104.939 871.923 107.067 868.339 108.603L870.703 114.117ZM881.773 106.236C884.852 102.842 887.15 98.8153 888.687 94.2037L882.995 92.3063C881.699 96.1947 879.803 99.4778 877.329 102.204L881.773 106.236ZM888.676 94.2376C890.272 89.6324 891.051 84.6203 891.051 79.23H885.051C885.051 84.0397 884.357 88.3776 883.007 92.2724L888.676 94.2376ZM891.051 79.23V5.19499H885.051V79.23H891.051ZM888.051 8.19499H904.456V2.19499H888.051V8.19499ZM901.456 5.19499V79.23H907.456V5.19499H901.456ZM901.456 79.23C901.456 85.9291 900.377 92.0833 898.249 97.7208L903.863 99.8392C906.269 93.4634 907.456 86.5843 907.456 79.23H901.456ZM898.241 97.7441C896.164 103.388 893.173 108.246 889.275 112.355L893.628 116.485C898.116 111.754 901.528 106.186 903.872 99.8159L898.241 97.7441ZM889.274 112.356C885.449 116.39 880.737 119.589 875.086 121.934L877.386 127.476C883.749 124.835 889.18 121.176 893.628 116.484L889.274 112.356ZM875.086 121.934C869.494 124.255 863.15 125.445 856.006 125.445V131.445C863.822 131.445 870.964 130.141 877.386 127.476L875.086 121.934ZM856.006 125.445C848.862 125.445 842.518 124.255 836.926 121.934L834.626 127.476C841.048 130.141 848.19 131.445 856.006 131.445V125.445ZM836.926 121.934C831.272 119.587 826.525 116.385 822.639 112.341L818.313 116.499C822.814 121.182 828.266 124.836 834.626 127.476L836.926 121.934ZM822.652 112.355C818.749 108.241 815.726 103.374 813.593 97.7208L807.979 99.8392C810.379 106.199 813.817 111.759 818.3 116.485L822.652 112.355ZM813.602 97.7441C811.525 92.1001 810.471 85.9377 810.471 79.23H804.471C804.471 86.5756 805.627 93.4465 807.971 99.8159L813.602 97.7441ZM810.471 79.23V5.19499H804.471V79.23H810.471ZM807.471 8.19499H823.876V2.19499H807.471V8.19499ZM820.876 5.19499V79.145H826.876V5.19499H820.876ZM820.876 79.145C820.876 84.5235 821.623 89.5237 823.155 94.1187L828.847 92.2213C827.545 88.3163 826.876 83.9665 826.876 79.145H820.876ZM823.167 94.1526C824.756 98.7382 827.042 102.746 830.049 106.128L834.533 102.142C832.1 99.4044 830.193 96.1018 828.836 92.1874L823.167 94.1526ZM830.069 106.151C833.141 109.536 836.861 112.186 841.191 114.103L843.621 108.617C840.017 107.021 836.994 104.854 834.513 102.119L830.069 106.151ZM841.238 114.123C845.684 116.002 850.623 116.91 856.006 116.91V110.91C851.302 110.91 847.175 110.118 843.574 108.597L841.238 114.123ZM1021.16 102.945L1023.37 100.919L1023.32 100.87L1023.28 100.824L1021.16 102.945ZM1027.62 110L1029.89 111.96L1031.63 109.941L1029.83 107.974L1027.62 110ZM1009.43 123.515L1008.19 120.782L1008.18 120.785L1009.43 123.515ZM959.871 123.855L958.689 126.612L958.698 126.616L958.708 126.62L959.871 123.855ZM941.596 111.105L939.385 113.133L939.391 113.139L939.396 113.145L941.596 111.105ZM929.866 91.385L932.686 90.3615L929.866 91.385ZM930.121 40.895L927.328 39.7987L927.325 39.8077L927.321 39.8167L930.121 40.895ZM942.701 21.175L944.844 23.2741L942.701 21.175ZM961.996 8.42499L963.114 11.209L963.124 11.2046L961.996 8.42499ZM1010.02 7.99999L1008.84 10.7562L1008.84 10.7599L1010.02 7.99999ZM1027.36 19.305L1029.81 21.0383L1031.31 18.9117L1029.42 17.1233L1027.36 19.305ZM1022.01 26.87L1019.56 25.1367L1019.55 25.1431L1019.55 25.1496L1022.01 26.87ZM1020.65 28.315L1022.31 30.8112L1022.4 30.7504L1022.49 30.6831L1020.65 28.315ZM1016.06 28.06L1014.31 30.5012L1014.41 30.5708L1014.51 30.6325L1016.06 28.06ZM1013.17 26.02L1014.89 23.5623V23.5623L1013.17 26.02ZM1009.17 23.47L1007.64 26.0509V26.0509L1009.17 23.47ZM1003.73 20.92L1002.67 23.7259V23.7259L1003.73 20.92ZM996.421 18.965L995.821 21.9044L995.85 21.9103L995.879 21.9156L996.421 18.965ZM968.881 21.515L970.02 24.2902L970.027 24.2873L970.035 24.2842L968.881 21.515ZM954.941 31.035L952.761 28.9742V28.9743L954.941 31.035ZM945.761 46.165L942.948 45.1204L942.944 45.1322L942.94 45.1441L945.761 46.165ZM945.761 86.455L942.94 87.4759L942.944 87.4877L942.948 87.4996L945.761 86.455ZM954.686 101.585L952.46 103.597L952.475 103.613L952.49 103.629L954.686 101.585ZM968.116 110.935L969.272 108.167L968.116 110.935ZM994.551 113.57L994.959 116.542L994.987 116.538L995.016 116.534L994.551 113.57ZM1002.54 111.53L1001.52 108.711L1001.51 108.714L1001.49 108.718L1002.54 111.53ZM1009.43 108.13L1011.06 110.647L1011.07 110.642L1011.07 110.636L1009.43 108.13ZM1015.89 103.115L1013.9 100.865L1013.89 100.872L1013.89 100.879L1015.89 103.115ZM1018.69 104.84C1018.72 104.84 1018.74 104.844 1018.76 104.854C1018.79 104.867 1018.88 104.916 1019.03 105.066L1023.28 100.824C1022.07 99.6154 1020.51 98.84 1018.69 98.84V104.84ZM1018.94 104.971L1025.4 112.026L1029.83 107.974L1023.37 100.919L1018.94 104.971ZM1025.34 108.04C1020.65 113.481 1014.94 117.726 1008.19 120.782L1010.66 126.248C1018.19 122.844 1024.61 118.079 1029.89 111.96L1025.34 108.04ZM1008.18 120.785C1001.58 123.794 993.475 125.36 983.756 125.36V131.36C994.096 131.36 1003.1 129.696 1010.67 126.245L1008.18 120.785ZM983.756 125.36C975.319 125.36 967.76 123.919 961.034 121.09L958.708 126.62C966.262 129.798 974.626 131.36 983.756 131.36V125.36ZM961.053 121.098C954.28 118.195 948.54 114.183 943.796 109.065L939.396 113.145C944.738 118.907 951.182 123.395 958.689 126.612L961.053 121.098ZM943.806 109.077C939.054 103.897 935.34 97.6737 932.686 90.3615L927.046 92.4086C929.945 100.396 934.051 107.32 939.385 113.133L943.806 109.077ZM932.686 90.3615C930.042 83.0787 928.701 75.0152 928.701 66.14H922.701C922.701 75.6248 924.136 84.3913 927.046 92.4086L932.686 90.3615ZM928.701 66.14C928.701 57.2848 930.121 49.2405 932.92 41.9733L927.321 39.8167C924.227 47.8495 922.701 56.6352 922.701 66.14H928.701ZM932.913 41.9913C935.78 34.6898 939.761 28.4642 944.844 23.2741L940.557 19.0759C934.874 24.8791 930.468 31.8001 927.328 39.7987L932.913 41.9913ZM944.844 23.2741C949.923 18.0884 956 14.065 963.114 11.209L960.878 5.64102C953.031 8.79164 946.245 13.2683 940.557 19.0759L944.844 23.2741ZM963.124 11.2046C970.264 8.30595 978.177 6.83499 986.901 6.83499V0.834991C977.492 0.834991 968.801 2.42403 960.867 5.64536L963.124 11.2046ZM986.901 6.83499C995.554 6.83499 1002.84 8.17786 1008.84 10.7562L1011.21 5.24381C1004.28 2.26879 996.154 0.834991 986.901 0.834991V6.83499ZM1008.84 10.7599C1015.04 13.4006 1020.52 16.9754 1025.3 21.4867L1029.42 17.1233C1024.11 12.1146 1018.03 8.15273 1011.2 5.24008L1008.84 10.7599ZM1024.91 17.5717L1019.56 25.1367L1024.45 28.6033L1029.81 21.0383L1024.91 17.5717ZM1019.55 25.1496C1019.31 25.4882 1019.06 25.7467 1018.8 25.9469L1022.49 30.6831C1023.25 30.0899 1023.91 29.3852 1024.46 28.5904L1019.55 25.1496ZM1018.98 25.8188C1019.09 25.7471 1019.13 25.7524 1019.04 25.7743C1018.94 25.7966 1018.75 25.825 1018.44 25.825V31.825C1019.68 31.825 1021.1 31.6181 1022.31 30.8112L1018.98 25.8188ZM1018.44 25.825C1018.4 25.825 1018.14 25.8113 1017.6 25.4875L1014.51 30.6325C1015.67 31.3287 1017 31.825 1018.44 31.825V25.825ZM1017.8 25.6188C1017 25.0448 1016.02 24.359 1014.89 23.5623L1011.45 28.4777C1012.57 29.2676 1013.53 29.9418 1014.31 30.5012L1017.8 25.6188ZM1014.89 23.5623C1013.68 22.7153 1012.28 21.8242 1010.7 20.8891L1007.64 26.0509C1009.12 26.9292 1010.39 27.738 1011.45 28.4777L1014.89 23.5623ZM1010.7 20.8891C1008.99 19.8748 1007.01 18.9538 1004.79 18.1141L1002.67 23.7259C1004.64 24.4729 1006.29 25.2519 1007.64 26.0509L1010.7 20.8891ZM1004.79 18.1141C1002.49 17.2431 999.873 16.549 996.963 16.0144L995.879 21.9156C998.522 22.401 1000.78 23.0102 1002.67 23.7259L1004.79 18.1141ZM997.021 16.0256C994.001 15.4093 990.591 15.115 986.816 15.115V21.115C990.294 21.115 993.287 21.3874 995.821 21.9044L997.021 16.0256ZM986.816 15.115C979.945 15.115 973.569 16.3114 967.727 18.7458L970.035 24.2842C975.072 22.1853 980.653 21.115 986.816 21.115V15.115ZM967.741 18.7398C961.973 21.1077 956.97 24.5212 952.761 28.9742L957.121 33.0957C960.732 29.2754 965.021 26.3423 970.02 24.2902L967.741 18.7398ZM952.761 28.9743C948.544 33.4357 945.283 38.8362 942.948 45.1204L948.573 47.2096C950.659 41.5938 953.518 36.9076 957.121 33.0957L952.761 28.9743ZM942.94 45.1441C940.65 51.4703 939.531 58.4813 939.531 66.14H945.531C945.531 59.0654 946.565 52.7597 948.582 47.1859L942.94 45.1441ZM939.531 66.14C939.531 74.0138 940.647 81.1405 942.94 87.4759L948.582 85.4341C946.568 79.8695 945.531 73.4529 945.531 66.14H939.531ZM942.948 87.4996C945.273 93.7574 948.432 99.1417 952.46 103.597L956.911 99.5731C953.459 95.755 950.669 91.0526 948.573 85.4104L942.948 87.4996ZM952.49 103.629C956.578 108.022 961.41 111.386 966.96 113.703L969.272 108.167C964.508 106.178 960.387 103.308 956.882 99.5413L952.49 103.629ZM966.96 113.703C972.506 116.019 978.455 117.165 984.776 117.165V111.165C979.197 111.165 974.039 110.157 969.272 108.167L966.96 113.703ZM984.776 117.165C988.508 117.165 991.906 116.961 994.959 116.542L994.143 110.598C991.416 110.972 988.297 111.165 984.776 111.165V117.165ZM995.016 116.534C998.08 116.053 1000.94 115.326 1003.59 114.342L1001.49 108.718C999.268 109.547 996.802 110.18 994.086 110.606L995.016 116.534ZM1003.57 114.349C1006.26 113.37 1008.76 112.138 1011.06 110.647L1007.79 105.613C1005.9 106.842 1003.81 107.877 1001.52 108.711L1003.57 114.349ZM1011.07 110.636C1013.37 109.129 1015.64 107.364 1017.89 105.351L1013.89 100.879C1011.83 102.719 1009.79 104.298 1007.78 105.624L1011.07 110.636ZM1017.87 105.365C1018.51 104.798 1018.77 104.84 1018.69 104.84V98.84C1016.8 98.84 1015.19 99.7319 1013.9 100.865L1017.87 105.365ZM1147.99 127V130H1150.99V127H1147.99ZM1131.41 127H1128.41V130H1131.41V127ZM1131.41 71.58H1134.41V68.58H1131.41V71.58ZM1065.79 71.58V68.58H1062.79V71.58H1065.79ZM1065.79 127V130H1068.79V127H1065.79ZM1049.22 127H1046.22V130H1049.22V127ZM1049.22 5.19499V2.19499H1046.22V5.19499H1049.22ZM1065.79 5.19499H1068.79V2.19499H1065.79V5.19499ZM1065.79 59.51H1062.79V62.51H1065.79V59.51ZM1131.41 59.51V62.51H1134.41V59.51H1131.41ZM1131.41 5.19499V2.19499H1128.41V5.19499H1131.41ZM1147.99 5.19499H1150.99V2.19499H1147.99V5.19499ZM1147.99 124H1131.41V130H1147.99V124ZM1134.41 127V71.58H1128.41V127H1134.41ZM1131.41 68.58H1065.79V74.58H1131.41V68.58ZM1062.79 71.58V127H1068.79V71.58H1062.79ZM1065.79 124H1049.22V130H1065.79V124ZM1052.22 127V5.19499H1046.22V127H1052.22ZM1049.22 8.19499H1065.79V2.19499H1049.22V8.19499ZM1062.79 5.19499V59.51H1068.79V5.19499H1062.79ZM1065.79 62.51H1131.41V56.51H1065.79V62.51ZM1134.41 59.51V5.19499H1128.41V59.51H1134.41ZM1131.41 8.19499H1147.99V2.19499H1131.41V8.19499ZM1144.99 5.19499V127H1150.99V5.19499H1144.99Z"
     fill="#464646"
     id="path10"
     style="fill:#4d4d4d" />
</svg>
