<?xml version="1.0" encoding="UTF-8" standalone="no"?>
<svg
   xmlns:dc="http://purl.org/dc/elements/1.1/"
   xmlns:cc="http://creativecommons.org/ns#"
   xmlns:rdf="http://www.w3.org/1999/02/22-rdf-syntax-ns#"
   xmlns:svg="http://www.w3.org/2000/svg"
   xmlns="http://www.w3.org/2000/svg"
   xmlns:sodipodi="http://sodipodi.sourceforge.net/DTD/sodipodi-0.dtd"
   xmlns:inkscape="http://www.inkscape.org/namespaces/inkscape"
   width="1151"
   height="132"
   viewBox="0 0 1151 132"
   fill="none"
   version="1.1"
   id="svg12"
   sodipodi:docname="line-light.svg"
   inkscape:version="1.0.1 (c497b03c, 2020-09-10)">
  <metadata
     id="metadata18">
    <rdf:RDF>
      <cc:Work
         rdf:about="">
        <dc:format>image/svg+xml</dc:format>
        <dc:type
           rdf:resource="http://purl.org/dc/dcmitype/StillImage" />
        <dc:title></dc:title>
      </cc:Work>
    </rdf:RDF>
  </metadata>
  <defs
     id="defs16" />
  <sodipodi:namedview
     pagecolor="#ffffff"
     bordercolor="#666666"
     borderopacity="1"
     objecttolerance="10"
     gridtolerance="10"
     guidetolerance="10"
     inkscape:pageopacity="0"
     inkscape:pageshadow="2"
     inkscape:window-width="705"
     inkscape:window-height="480"
     id="namedview14"
     showgrid="false"
     inkscape:zoom="0.91485665"
     inkscape:cx="575.5"
     inkscape:cy="66"
     inkscape:window-x="3167"
     inkscape:window-y="23"
     inkscape:window-maximized="0"
     inkscape:current-layer="svg12"
     inkscape:document-rotation="0" />
  <path
     d="m 74.114996,114.59 0.3108,2.984 0.027,-0.003 0.0268,-0.003 z m 7.819999,-1.445 0.743501,2.906 z m 6.885,-2.21 1.1015,2.79 0.0315,-0.012 0.0312,-0.013 z m 6.46,-3.06 1.3972,2.655 1.6028,-0.844 v -1.811 z m 0,-26.86 h 3 v -3 h -3 z m -21.504999,-0.935 -2.1213,2.1213 0.0461,0.0461 0.048,0.0441 z m -0.935,-11.645 v -3 h -2.999999 v 3 z m 37.399994,0 h 3 v -3 h -3 z m 0,46.75 1.756,2.432 1.244,-0.898 v -1.534 z m -9.60499,5.78 -1.323305,-2.692 -0.0092,0.004 -0.0091,0.005 z m -10.625005,4.165 0.8299,2.883 0.0141,-0.004 0.0141,-0.004 z m -12.069999,2.38 -0.3528,-2.979 -0.0193,0.002 -0.0193,0.003 z m -38.334998,-3.655 -1.1508,2.77 0.0091,0.004 0.0091,0.004 z m -19.039999,-12.75 -2.1544,2.088 0.0054,0.005 0.0055,0.006 z m -12.4949993,-19.72 -2.7994999,1.0783 0.00347,0.009 0.00352,0.009 z m -0.085,-50.66 -2.7994999,-1.0783 -0.00349,0.009 -0.00343,0.0091 z M 20.479999,21.09 l -2.1323,-2.1103 -1.03e-4,10e-5 z m 19.634999,-12.75 -1.0893,-2.79525 -0.007,0.00274 z m 39.269998,-3.40001 -0.526,2.95353 0.0197,0.0035 0.0197,0.00324 z m 11.474999,3.06 -1.083,2.79771 0.027,0.0104 0.0272,0.01 z m 9.859995,4.84501 -1.619895,2.5251 0.0171,0.0109 0.0171,0.0107 z m 8.41501,6.375 2.54399,1.59 1.325,-2.1199 -1.846,-1.6856 z m -4.675,7.48 2.53899,1.5984 0.005,-0.0084 z m -6.715005,1.36 1.5031,-2.5963 -0.0186,-0.0107 -0.0187,-0.0105 z m -11.219999,-6.12 -1.1893,2.7542 0.0374,0.0161 0.0377,0.0151 z m -8.925,-2.72 -0.6353,2.932 0.01,0.0021 z m -30.769998,2.295 1.109299,2.7874 0.0122,-0.0049 0.0122,-0.005 z m -14.195,9.605 2.180201,2.0607 0.007,-0.0074 0.007,-0.0074 z m -9.009999,15.13 2.8265,1.0056 0.003,-0.0086 z m 0.085,40.545 -2.827,1.004 0.0057,0.016 0.0058,0.0159 z m 9.265,15.3 2.179399,-2.062 z m 32.129997,15.92 c 3.370501,0 6.479501,-0.145 9.3208,-0.441 l -0.6216,-5.968 c -2.5987,0.271 -5.496399,0.409 -8.6992,0.409 z m 9.3746,-0.447 c 2.8904,-0.354 5.6247,-0.858 8.1989,-1.517 l -1.487,-5.812 c -2.2991,0.588 -4.7782,1.047 -7.4411,1.373 z m 8.1989,-1.517 c 2.547999,-0.651 4.963399,-1.426 7.242999,-2.326 l -2.203,-5.58 c -2.026999,0.8 -4.201699,1.499 -6.526999,2.094 z m 7.3057,-2.351 c 2.235699,-0.941 4.466799,-1.999 6.692999,-3.17 l -2.7944,-5.31 c -2.0804,1.095 -4.1561,2.078 -6.226999,2.95 z m 8.295799,-5.825 v -26.86 h -5.999999 v 26.86 z m -3,-29.86 H 76.409997 v 6 h 18.869998 z m -18.869998,0 c -0.4598,0 -0.572301,-0.1139 -0.607801,-0.1465 l -4.054399,4.423 c 1.3245,1.2141 2.968599,1.7235 4.6622,1.7235 z m -0.513701,-0.0563 c -0.0267,-0.0267 -0.0385,-0.0432 -0.042,-0.0486 -0.0034,-0.0049 -0.0031,-0.0053 -0.0023,-0.0032 7.99e-4,0.0019 -0.0015,-0.0028 -0.0044,-0.0183 -0.003,-0.0161 -0.0076,-0.0493 -0.0076,-0.1036 h -5.999999 c 0,1.6769 0.61,3.2127 1.813699,4.4163 z m -0.0563,-0.1737 v -9.35 h -5.999999 v 9.35 z m -3,-6.35 h 37.399994 v -6 H 72.839996 Z m 34.400004,-3 v 46.75 h 5.99999 v -46.75 z m 1.24399,44.318 c -2.925,2.112 -5.982,3.952 -9.172295,5.52 l 2.646305,5.384 c 3.49699,-1.718 6.843,-3.732 10.03799,-6.04 z m -9.190595,5.529 c -3.1198,1.56 -6.498399,2.886 -10.141499,3.973 l 1.7162,5.75 c 3.9503,-1.18 7.654999,-2.63 11.108894,-4.357 z m -10.1133,3.965 c -3.567299,1.027 -7.429599,1.791 -11.592899,2.284 l 0.7056,5.958 c 4.4501,-0.527 8.6345,-1.35 12.547099,-2.476 z m -11.631499,2.289 c -4.158199,0.547 -8.700799,0.824 -13.633599,0.824 v 6 c 5.153899,0 9.961299,-0.289 14.416399,-0.876 z m -13.633599,0.824 c -8.4949,0 -16.2083,-1.442 -23.177399,-4.283 l -2.265199,5.556 c 7.764198,3.165 16.257499,4.727 25.442598,4.727 z m -23.159199,-4.275 c -7.0121,-2.913 -13.016399,-6.941 -18.047299,-12.079 l -4.287,4.198 c 5.6224,5.742 12.3114,10.214 20.032699,13.421 z m -18.0364,-12.068 C 17.6888,103.826 13.731599,97.5968 10.862499,90.2887 l -5.5850093,2.1926 c 3.13757,7.9917 7.5104093,14.9097 13.1331093,20.7117 z M 10.869499,90.3067 C 8.0702997,83.0395 6.6499997,74.9952 6.6499997,66.14 H 0.65 c 0,9.5048 1.52637,18.2905 4.6204998,26.3233 z M 6.6499997,66.14 c 0,-8.9801 1.3956299,-17.0866 4.1413993,-24.3548 L 5.1785797,39.6648 C 2.1443699,47.6965 0.65,56.5334 0.65,66.14 Z M 10.784499,41.8033 c 2.8086,-7.2916 6.756,-13.4779 11.8279,-18.6031 l -4.2648,-4.2204 C 12.6528,24.7346 8.2702197,31.6382 5.1854998,39.6467 Z m 11.8278,-18.603 c 5.127799,-5.1812 11.313299,-9.2075 18.598999,-12.0678 l -2.1926,-5.58501 C 31.004399,8.69383 24.099898,13.1676 18.347699,18.9797 Z M 41.204298,11.1352 C 48.515498,8.28603 56.752097,6.83499 65.954996,6.83499 V 0.834991 c -9.837098,0 -18.827098,1.552289 -26.929298,4.709769 z M 65.954996,6.83499 c 4.665301,0 8.964,0.35688 12.904,1.05853 l 1.052,-5.90706 c -4.3333,-0.77168 -8.988,-1.151469 -13.956,-1.151469 z m 12.9434,1.06527 c 3.9553,0.6502 7.5781,1.61983 10.878599,2.89744 l 2.166001,-5.59541 c -3.7262,-1.44239 -7.7534,-2.51276 -12.0714,-3.22257 z m 10.9328,2.91784 c 3.376199,1.2325 6.462899,2.7519 9.268899,4.552 l 3.239895,-5.0502 C 99.139296,8.26669 95.652596,6.556 91.888795,5.18192 Z m 9.303099,4.5736 c 2.848695,1.7734 5.506695,3.7876 7.977695,6.0438 l 4.046,-4.431 c -2.742,-2.5038 -5.694,-4.7396 -8.85199,-6.7062 z m 7.456695,2.2383 -4.67499,7.48 5.08799,3.18 4.675,-7.48 z m -4.67,7.4716 c -0.52999,0.8426 -0.90299,0.8934 -1.201,0.8934 v 6 c 2.762,0 4.883,-1.4792 6.279,-3.6966 z m -1.201,0.8934 c -0.21799,0 -0.68899,-0.0782 -1.471895,-0.5313 l -3.0062,5.1926 c 1.3707,0.7936 2.882901,1.3387 4.478095,1.3387 z m -1.509195,-0.5525 c -1.349299,-0.7556 -2.8812,-1.6849 -4.5994,-2.7934 l -3.2528,5.0418 c 1.7952,1.1581 3.436601,2.1556 4.9206,2.9866 z m -4.5994,-2.7934 c -1.959699,-1.2643 -4.295499,-2.4239 -6.9722,-3.4945 l -2.228399,5.5708 c 2.423299,0.9693 4.3942,1.9632 5.947799,2.9655 z m -6.8971,-3.4633 c -2.719699,-1.1744 -5.893199,-2.1336 -9.488999,-2.8999 l -1.2506,5.8682 c 3.3176,0.707 6.094,1.5612 8.361,2.5401 z M 78.235296,16.288 C 74.568297,15.4935 70.292597,15.115 65.444997,15.115 v 6 c 4.559099,0 8.386799,0.3582 11.519699,1.037 z M 65.444997,15.115 c -7.1902,0 -13.7876,1.1894 -19.748699,3.6225 l 2.2674,5.555 C 53.109297,22.1923 58.921897,21.115 65.444997,21.115 Z m -19.7243,3.6126 c -5.947299,2.3668 -11.054598,5.815 -15.279898,10.3465 l 4.388399,4.0918 c 3.5947,-3.8552 7.9508,-6.8103 13.110099,-8.8635 z M 30.454798,29.0592 c -4.2283,4.4735 -7.438199,9.8908 -9.6593,16.1937 l 5.659001,1.9941 c 1.972299,-5.597 4.768999,-10.2664 8.3607,-14.0663 z m -9.656299,16.1852 c -2.2298,6.2678 -3.3185,13.2458 -3.3185,20.8956 h 6 c 0,-7.0835 1.008,-13.3656 2.9715,-18.8844 z m -3.3185,20.8956 c 0,7.983 1.1151,15.2167 3.403,21.659 l 5.653999,-2.008 C 24.518299,80.1067 23.479999,73.5703 23.479999,66.14 Z m 3.4145,21.6909 c 2.335,6.3465 5.6261,11.8065 9.901099,16.3261 l 4.3588,-4.124 c -3.658399,-3.867 -6.543899,-8.607 -8.6289,-14.2739 z m 9.901099,16.3261 c 4.266601,4.51 9.33,7.954 15.1603,10.322 l 2.258199,-5.558 c -5.049699,-2.052 -9.392999,-5.011 -13.059699,-8.888 z m 15.1603,10.322 c 5.838999,2.373 12.2348,3.536 19.149098,3.536 v -6 c -6.232399,0 -11.849899,-1.047 -16.890899,-3.094 z M 210.68899,5.19499 h 3 v -3 h -3 z m 0,13.43001 v 3 h 3 v -3 z m -58.48,0 v -3 H 149.209 v 3 z m 0,40.46 H 149.209 v 3 h 2.99999 z m 47.345,0 h 3 v -3 h -3 z m 0,12.92 v 3 h 3 v -3 z m -47.345,0 v -3 H 149.209 v 3 z m 0,41.565 H 149.209 v 3 h 2.99999 z m 58.48,0 h 3 v -3 h -3 z m 0,13.43 v 3 h 3 v -3 z m -75.055,0 h -3 v 3 h 3 z m 0,-121.80501 v -3 h -3 v 3 z m 72.055,0 V 18.625 h 6 V 5.19499 Z m 3,10.43001 h -58.48 v 6 h 58.48 z m -61.47999,3 v 40.46 h 6 v -40.46 z m 2.99999,43.46 h 47.345 v -6 h -47.345 z m 44.345,-3 v 12.92 h 6 v -12.92 z m 3,9.92 h -47.345 v 6 h 47.345 z m -50.34499,3 v 41.565 h 6 V 72.005 Z m 2.99999,44.565 h 58.48 v -6 h -58.48 z m 55.48,-3 V 127 h 6 v -13.43 z m 3,10.43 h -75.055 v 6 h 75.055 z m -72.055,3 V 5.19499 h -6 V 127 Z m -3,-118.80501 h 75.055 v -6 h -75.055 z m 181.73899,-3 h 3.00001 v -3 h -3.00001 z m 0,13.85501 v 3 h 3.00001 v -3 z m -39.35499,0 v -3 h -3.00001 v 3 z m 0,107.95 v 3 h 2.99999 v -3 z m -16.49,0 h -3 v 3 h 3 z m 0,-107.95 h 3 v -3 h -3 z m -39.525,0 h -3.00001 v 3 h 3.00001 z m 0,-13.85501 v -3 h -3.00001 v 3 z m 92.37,0 V 19.05 h 6 V 5.19499 Z M 317.37298,16.05 h -39.35499 v 6 h 39.35499 z m -42.355,3 V 127 h 6 V 19.05 Z M 278.01799,124 h -16.49 v 6 h 16.49 z m -13.49,3 V 19.05 h -6 V 127 Z m -3,-110.95 h -39.525 v 6 h 39.525 z m -36.52501,3 V 5.19499 h -6 V 19.05 Z M 222.00299,8.19499 h 95.36999 v -6 H 222.00299 Z M 387.10798,127 v 3 h 3 v -3 z m -16.49,0 h -3 v 3 h 3 z m 0,-121.80501 v -3 h -3 v 3 z m 16.49,0 h 3 v -3 h -3 z m 0,118.80501 h -16.49 v 6 h 16.49 z m -13.49,3 V 5.19499 h -6 V 127 Z m -3,-118.80501 h 16.49 v -6 h -16.49 z m 13.49001,-3 V 127 h 5.99999 V 5.19499 Z m 47.30799,0.595 -1.51101,2.59134 0.12401,0.07236 0.13,0.06018 z m 2.466,2.21 2.378,-1.82807 -0.018,-0.02318 -0.018,-0.02284 z m 70.549,91.80001 -2.37801,1.828 6.60001,8.589 -1.24101,-10.7609 z m -0.34001,-4.25 -2.99699,0.1199 v 0.005 z m -0.084,-90.35501 v -3 h -2.99999 v 3 z m 14.449,0 h 3.00001 v -3 h -3.00001 z m 0,121.80501 v 3 h 3.00001 v -3 z m -11.645,-0.68 -1.41099,2.647 0.035,0.019 0.035,0.017 z m -2.55,-2.295 -2.37799,1.828 0.012,0.015 0.012,0.016 z m -70.46499,-91.715 2.379,-1.8278 -6.178,-8.0411 0.809,10.1081 z m 0.255,4.165 2.998,-0.1249 z m 0.085,90.525 v 3 h 3 v -3 z m -14.45,0 h -3 v 3 h 3 z m 0,-121.80501 v -3 h -3 v 3 z m 8.5,3 c 0.613,0 1.06,0.04204 1.36999,0.09911 0.32,0.05905 0.40001,0.11724 0.349,0.08723 l 3.02301,-5.18268 c -1.387,-0.80917 -3.127,-1.00366 -4.742,-1.00366 z m 1.973,0.31888 c 0.101,0.04629 0.56899,0.34652 1.38,1.36021 l 4.685,-3.74818 c -1.002,-1.25298 -2.177,-2.42607 -3.55,-3.05978 z m 1.344,1.31419 70.54999,91.79994 4.757,-3.6561 -70.54999,-91.79998 z m 75.90899,89.62804 c -0.16299,-1.4069 -0.27,-2.7503 -0.32299,-4.031 l -5.995,0.2498 c 0.06,1.4393 0.17999,2.9293 0.357,4.4691 z m -0.32299,-4.026 c -0.055,-1.3802 -0.082,-2.7 -0.082,-3.9601 h -5.99999 c 0,1.3466 0.029,2.7467 0.087,4.1999 z m -0.082,-3.9601 V 5.19499 h -5.99999 V 91.47 Z m -3,-83.27501 h 14.449 v -6 h -14.449 z m 11.449,-3 V 127 h 6.00001 V 5.19499 Z m 3,118.80501 h -8.32999 v 6 h 8.32999 z m -8.32999,0 c -0.966,0 -1.58401,-0.169 -1.97301,-0.363 l -2.68299,5.366 c 1.42499,0.713 3.01599,0.997 4.656,0.997 z m -1.90301,-0.327 c -0.36399,-0.194 -0.913,-0.628 -1.60699,-1.507 l -4.70901,3.718 c 1.00601,1.274 2.157,2.371 3.49301,3.083 z m -1.58299,-1.476 -70.465,-91.7148 -4.757,3.6555 70.465,91.7153 z m -75.834,-89.6478 c 0.10999,1.3803 0.193,2.7305 0.248,4.0507 l 5.995,-0.2498 c -0.058,-1.3998 -0.146,-2.8263 -0.262,-4.2793 z m 0.248,4.0507 c 0.055,1.3263 0.082,2.5307 0.082,3.6151 h 6 c 0,-1.1822 -0.029,-2.4712 -0.087,-3.8649 z m 0.082,3.6151 V 127 h 6 V 40.215 Z m 3,83.785 h -14.45 v 6 h 14.45 z m -11.45,3 V 5.19499 h -6 V 127 Z m -3,-118.80501 h 8.5 v -6 h -8.5 z m 244.32799,-3 h 2.99999 v -3 h -2.99999 z m 0,13.85501 v 3 h 2.99999 v -3 z m -39.35501,0 v -3 h -2.99999 v 3 z m 0,107.95 v 3 h 3.00001 v -3 z m -16.48999,0 h -3 v 3 h 3 z m 0,-107.95 h 3 v -3 h -3 z m -39.525,0 h -3 v 3 h 3 z m 0,-13.85501 v -3 h -3 v 3 z m 92.36999,0 V 19.05 h 6 V 5.19499 Z m 3,10.85501 h -39.35501 v 6 h 39.35501 z m -42.355,3 V 127 h 6 V 19.05 Z M 624.65896,124 h -16.48999 v 6 h 16.48999 z m -13.48999,3 V 19.05 h -6 V 127 Z m -3,-110.95 h -39.525 v 6 h 39.525 z m -36.525,3 V 5.19499 h -6 V 19.05 Z m -3,-10.85501 h 95.37 v -6 h -95.37 z m 213.182,83.10501 2.804,1.0671 0.003,-0.0069 z m -31.28,32.47 1.13299,2.778 0.011,-0.004 z m -48.96,0 -1.15101,2.77 0.01,0.004 0.009,0.004 z m -18.955,-12.835 -2.165,2.076 z m -12.24,-19.635 -2.806,1.0602 0.003,0.0069 z m 0,-50.235 2.804,1.0671 0.003,-0.0069 z m 12.24,-19.72 2.166,2.0762 0.005,-0.0056 0.005,-0.0055 z m 18.955,-12.92001 1.151,2.77051 z m 48.96,0 -1.15001,2.77051 0.007,0.0031 z m 19.03999,12.92001 -2.176,2.0651 0.006,0.0055 0.005,0.0056 z m 12.24001,19.72 -2.80601,1.0602 0.003,0.0069 z m -24.31001,-10.115 -2.225,2.0119 0.007,0.0077 0.007,0.0076 z m -13.6,-9.52 1.15001,-2.771 z m -35.615,0 -1.14899,-2.771 z m -13.68499,9.52 -2.21,-2.0285 -10e-4,0.0013 z m -8.67,15.045 -2.837,-0.973 z m 0,40.29 -2.838,0.973 0.003,0.0083 z m 8.67,15.045 -2.225,2.012 0.014,0.016 0.015,0.016 z m 13.68499,9.435 -1.14899,2.771 0.012,0.005 0.013,0.005 z m 35.615,0 1.125,2.781 0.012,-0.005 0.013,-0.005 z m 13.6,-9.435 2.212,2.027 0.007,-0.007 0.007,-0.008 z m 8.67001,-15.045 2.83499,0.9813 0.003,-0.0083 z M 783.16096,66.14 c 0,8.8028 -1.39299,16.8255 -4.141,24.0998 l 5.613,2.1204 c 3.032,-8.0257 4.528,-16.7764 4.528,-26.2202 z m -4.13799,24.0929 c -2.75701,7.2431 -6.62901,13.4381 -11.60201,18.6261 l 4.33101,4.152 c 5.56599,-5.806 9.85499,-12.7 12.878,-20.6439 z m -11.60201,18.6261 c -4.96599,5.179 -10.959,9.228 -18.01799,12.137 l 2.28699,5.548 c 7.78701,-3.21 14.488,-7.719 20.06201,-13.533 z m -18.007,12.133 c -6.96499,2.839 -14.734,4.283 -23.348,4.283 v 6 c 9.293,0 17.84401,-1.56 25.613,-4.727 z m -23.348,4.283 c -8.61299,0 -16.382,-1.444 -23.347,-4.283 l -2.26499,5.556 c 7.76799,3.167 16.31899,4.727 25.61199,4.727 z M 702.73697,121 c -7.00301,-2.909 -12.97001,-6.958 -17.94,-12.141 l -4.331,4.152 c 5.56999,5.81 12.239,10.318 19.96899,13.529 z m -17.94,-12.141 c -4.97401,-5.188 -8.845,-11.383 -11.602,-18.6261 l -5.607,2.1342 c 3.02299,7.9439 7.311,14.8379 12.878,20.6439 z M 673.19796,90.2398 c -2.74799,-7.2743 -4.14199,-15.297 -4.14199,-24.0998 h -6 c 0,9.4438 1.49699,18.1945 4.529,26.2202 z M 669.05597,66.14 c 0,-8.8032 1.394,-16.7947 4.139,-24.0079 l -5.607,-2.1342 c -3.03501,7.9734 -4.532,16.6986 -4.532,26.1421 z m 4.14199,-24.0148 c 2.75801,-7.2999 6.62901,-13.5204 11.59901,-18.704 l -4.331,-4.1524 c -5.57,5.8097 -9.859,12.7359 -12.881,20.736 z m 11.609,-18.7151 c 4.97001,-5.2364 10.93401,-9.3086 17.93001,-12.2146 l -2.30201,-5.541 c -7.737,3.21398 -14.40899,7.7551 -19.98,13.6254 z m 17.93001,-12.2146 c 6.95999,-2.89103 14.72299,-4.36051 23.32899,-4.36051 V 0.834991 c -9.3,0 -17.857,1.590519 -25.631,4.819509 z m 23.32899,-4.36051 c 8.60701,0 16.37001,1.46948 23.33,4.36051 l 2.301,-5.541 c -7.77299,-3.22899 -16.33099,-4.819509 -25.631,-4.819509 z m 23.33701,4.36361 c 7.053,2.9071 13.04199,6.9792 18.00699,12.2115 l 4.352,-4.1302 c -5.574,-5.8744 -12.278,-10.41564 -20.072,-13.6285 z m 18.01799,12.2226 c 4.97,5.1836 8.84101,11.4041 11.599,18.704 l 5.613,-2.1204 c -3.02299,-8.0001 -7.311,-14.9263 -12.88099,-20.736 z m 11.60201,18.7109 c 2.745,7.2132 4.13799,15.2047 4.13799,24.0079 h 6 c 0,-9.4435 -1.496,-18.1687 -4.53099,-26.1421 z M 772.24596,66.14 c 0,-7.7501 -1.056,-14.802 -3.222,-21.118 l -5.675,1.946 c 1.914,5.584 2.897,11.9621 2.897,19.172 z m -3.222,-21.118 c -2.156,-6.2876 -5.241,-11.6758 -9.296,-16.0992 l -4.423,4.0544 c 3.425,3.7366 6.119,8.3784 8.044,13.9908 z m -9.282,-16.0839 c -4.049,-4.4776 -8.95299,-7.9048 -14.67599,-10.2791 l -2.299,5.542 c 4.93,2.0457 9.092,4.9652 12.52399,8.7609 z M 745.06597,18.659 c -5.739,-2.3809 -12.087,-3.544 -19.00001,-3.544 v 6 c 6.23401,0 11.78601,1.0468 16.70101,3.086 z m -19.00001,-3.544 c -6.85999,0 -13.17899,1.1644 -18.91399,3.544 l 2.29899,5.542 c 4.918,-2.0404 10.442,-3.086 16.615,-3.086 z m -18.91399,3.544 c -5.71901,2.3727 -10.646,5.7952 -14.746,10.2625 l 4.421,4.057 c 3.49299,-3.8061 7.689,-6.7302 12.62399,-8.7775 z m -14.747,10.2638 c -4.05501,4.4234 -7.141,9.8116 -9.296,16.0992 l 5.67499,1.946 c 1.924,-5.6124 4.61901,-10.2542 8.04401,-13.9908 z m -9.296,16.0992 c -2.166,6.316 -3.223,13.3679 -3.223,21.118 h 6 c 0,-7.2099 0.984,-13.588 2.89799,-19.172 z m -3.223,21.118 c 0,7.7501 1.057,14.802 3.223,21.118 l 5.67499,-1.946 c -1.91399,-5.584 -2.89799,-11.9621 -2.89799,-19.172 z m 3.225,21.1263 c 2.15699,6.2293 5.23899,11.6064 9.28,16.0757 l 4.451,-4.0239 c -3.44,-3.8042 -6.13701,-8.457 -8.06101,-14.0144 z m 9.309,16.1077 c 4.09999,4.405 9.022,7.793 14.732,10.162 l 2.29899,-5.542 c -4.944,-2.051 -9.145,-4.953 -12.63799,-8.7077 z m 14.757,10.172 c 5.72899,2.316 12.03899,3.449 18.88899,3.449 v -6 c -6.18199,0 -11.71599,-1.021 -16.64,-3.011 z m 18.88899,3.449 c 6.904,0 13.243,-1.132 18.975,-3.449 l -2.249,-5.562 c -4.922,1.989 -10.483,3.011 -16.726,3.011 z m 19.00001,-3.459 c 5.71299,-2.37 10.61399,-5.763 14.66199,-10.179 l -4.423,-4.0542 c -3.43199,3.7442 -7.598,6.6412 -12.53799,8.6912 z m 14.67599,-10.194 c 4.04,-4.4693 7.12301,-9.8464 9.279,-16.0757 l -5.66999,-1.9626 c -1.923,5.5574 -4.62101,10.2102 -8.06001,14.0144 z m 9.282,-16.084 c 2.166,-6.316 3.222,-13.3679 3.222,-21.118 h -6 c 0,7.2099 -0.983,13.588 -2.897,19.172 z m 110.527,16.962 -2.222,-2.016 -0.01,0.011 -0.01,0.012 z m 6.29,-10.965 -2.834,-0.9826 -0.006,0.0169 -0.006,0.017 z m 2.21,-88.06001 v -3 h -3 v 3 z m 16.40499,0 h 3.00001 v -3 h -3.00001 z m -3.4,93.58501 -2.80699,-1.0592 -0.004,0.0117 -0.004,0.0116 z m -9.60499,15.64 -2.17601,-2.065 -10e-4,10e-4 z m -70.975,0 -2.176,2.065 0.006,0.007 0.007,0.007 z m -9.69,-15.64 -2.815,1.0359 0.004,0.0116 0.004,0.0117 z M 807.47095,5.19499 v -3 h -2.99999 v 3 z m 16.40501,0 h 3 v -3 h -3 z m 2.125,87.97501 -2.84601,0.9487 0.006,0.017 0.006,0.0169 z m 6.28999,10.965 -2.24199,1.993 0.01,0.012 0.01,0.011 z m 10.11501,7.225 -1.215,2.743 0.024,0.01 0.023,0.01 z m 13.6,5.55 c 5.382,0 10.29899,-0.908 14.697,-2.793 l -2.364,-5.514 c -3.53501,1.515 -7.62801,2.307 -12.333,2.307 z m 14.697,-2.793 c 4.34899,-1.864 8.06199,-4.497 11.09,-7.904 l -4.48401,-3.986 c -2.41099,2.712 -5.38599,4.84 -8.96999,6.376 z m 11.06999,-7.881 c 3.079,-3.394 5.377,-7.4207 6.91401,-12.0323 l -5.692,-1.8974 c -1.29601,3.8884 -3.192,7.1715 -5.666,9.8977 z m 6.90301,-11.9984 c 1.59599,-4.6052 2.37499,-9.6173 2.37499,-15.0076 h -5.99999 c 0,4.8097 -0.694,9.1476 -2.044,13.0424 z M 891.05095,79.23 V 5.19499 h -5.99999 V 79.23 Z M 888.05096,8.19499 h 16.40499 v -6 h -16.40499 z m 13.405,-3 V 79.23 h 6 V 5.19499 Z m 0,74.03501 c 0,6.6991 -1.07901,12.8533 -3.207,18.4908 l 5.61399,2.1184 c 2.40601,-6.3758 3.59301,-13.2549 3.59301,-20.6092 z m -3.21501,18.5141 c -2.07699,5.6439 -5.06799,10.5019 -8.966,14.6109 l 4.353,4.13 c 4.48801,-4.731 7.90001,-10.299 10.24401,-16.6691 z m -8.967,14.6119 c -3.82499,4.034 -8.53699,7.233 -14.18799,9.578 l 2.3,5.542 c 6.363,-2.641 11.794,-6.3 16.24199,-10.992 z m -14.18799,9.578 c -5.592,2.321 -11.936,3.511 -19.08,3.511 v 6 c 7.816,0 14.958,-1.304 21.38,-3.969 z m -19.08,3.511 c -7.144,0 -13.488,-1.19 -19.08,-3.511 l -2.3,5.542 c 6.422,2.665 13.564,3.969 21.38,3.969 z m -19.08,-3.511 c -5.654,-2.347 -10.40101,-5.549 -14.287,-9.593 l -4.32601,4.158 c 4.50101,4.683 9.95301,8.337 16.31301,10.977 z m -14.274,-9.579 c -3.903,-4.114 -6.92601,-8.981 -9.059,-14.6342 l -5.614,2.1184 c 2.4,6.3598 5.83799,11.9198 10.321,16.6458 z m -9.05,-14.6109 c -2.077,-5.644 -3.131,-11.8064 -3.131,-18.5141 h -6 c 0,7.3456 1.156,14.2165 3.5,20.5859 z M 810.47096,79.23 V 5.19499 h -6 V 79.23 Z M 807.47095,8.19499 h 16.40501 v -6 h -16.40501 z m 13.40501,-3 V 79.145 h 6 V 5.19499 Z m 0,73.95001 c 0,5.3785 0.74699,10.3787 2.27899,14.9737 l 5.69201,-1.8974 c -1.302,-3.905 -1.971,-8.2548 -1.971,-13.0763 z m 2.291,15.0076 c 1.589,4.5856 3.875,8.5934 6.882,11.9754 l 4.48399,-3.986 c -2.43299,-2.7376 -4.33999,-6.0402 -5.697,-9.9546 z m 6.902,11.9984 c 3.072,3.385 6.79199,6.035 11.122,7.952 l 2.43,-5.486 c -3.604,-1.596 -6.627,-3.763 -9.108,-6.498 z m 11.169,7.972 c 4.446,1.879 9.38499,2.787 14.768,2.787 v -6 c -4.70401,0 -8.831,-0.792 -12.432,-2.313 z m 179.92204,-11.178 2.21,-2.026 -0.05,-0.049 -0.04,-0.046 z m 6.46,7.055 2.27,1.96 1.7399,-2.019 -1.7999,-1.967 z m -18.1901,13.515 -1.2399,-2.733 -0.01,0.003 z m -49.55894,0.34 -1.18201,2.757 0.009,0.004 0.01,0.004 z m -18.275,-12.75 -2.211,2.028 0.006,0.006 0.005,0.006 z m -11.73001,-19.72 2.82,-1.0235 z m 0.25501,-50.49 -2.793,-1.0963 -0.003,0.009 -0.004,0.009 z m 12.57999,-19.72 2.143,2.0991 z m 19.29501,-12.75001 1.11799,2.78401 0.01,-0.0044 z m 48.02394,-0.425 -1.1799,2.75621 v 0.0037 z m 17.3401,11.30501 2.4499,1.7333 1.5,-2.1266 -1.89,-1.7884 z m -5.35,7.565 -2.4501,-1.7333 -0.01,0.0064 v 0.0065 z m -1.36,1.445 1.6599,2.4962 0.09,-0.0608 0.09,-0.0673 z m -4.5901,-0.255 -1.75,2.4412 0.1001,0.0696 0.1,0.0617 z m -2.89,-2.04 1.72,-2.4577 v 0 z m -4,-2.55 -1.5299,2.5809 v 0 z m -5.44,-2.55 -1.0599,2.8059 v 0 z m -7.30895,-1.955 -0.59999,2.9394 0.029,0.0059 0.029,0.0053 z m -27.54,2.55 1.139,2.7752 0.007,-0.0029 0.008,-0.0031 z m -13.93999,9.52 -2.18001,-2.0608 v 10e-5 z m -9.18,15.13 -2.81301,-1.0446 -0.004,0.0118 -0.004,0.0119 z m 0,40.29 -2.821,1.0209 0.004,0.0118 0.004,0.0119 z m 8.92499,15.13 -2.226,2.012 0.015,0.016 0.015,0.016 z m 13.43,9.35 1.156,-2.768 z m 26.435,2.635 0.408,2.972 0.028,-0.004 0.029,-0.004 z m 7.98905,-2.04 -1.0201,-2.819 -0.01,0.003 -0.02,0.004 z m 6.8899,-3.4 1.63,2.517 0.01,-0.005 v -0.006 z m 6.46,-5.015 -1.9899,-2.25 -0.01,0.007 v 0.007 z m 2.8,1.725 c 0.03,0 0.05,0.004 0.07,0.014 0.03,0.013 0.1199,0.062 0.2699,0.212 l 4.25,-4.242 c -1.2099,-1.2086 -2.7699,-1.984 -4.59,-1.984 z m 0.25,0.131 6.46,7.055 4.4301,-4.052 -6.46,-7.055 z m 6.4,3.069 c -4.6899,5.441 -10.3999,9.686 -17.1499,12.742 l 2.4699,5.466 c 7.53,-3.404 13.95,-8.169 19.2301,-14.288 z m -17.1599,12.745 c -6.6001,3.009 -14.70505,4.575 -24.42405,4.575 v 6 c 10.34,0 19.34405,-1.664 26.91395,-5.115 z m -24.42405,4.575 c -8.437,0 -15.996,-1.441 -22.722,-4.27 l -2.326,5.53 c 7.554,3.178 15.918,4.74 25.048,4.74 z m -22.703,-4.262 c -6.773,-2.903 -12.513,-6.915 -17.25699,-12.033 l -4.40001,4.08 c 5.342,5.762 11.78601,10.25 19.293,13.467 z m -17.247,-12.021 c -4.75199,-5.18 -8.46599,-11.4033 -11.12,-18.7155 l -5.64,2.0471 c 2.89901,7.9874 7.00501,14.9114 12.33901,20.7244 z m -11.12,-18.7155 c -2.644,-7.2828 -3.98499,-15.3463 -3.98499,-24.2215 h -6.00001 c 0,9.4848 1.43501,18.2513 4.345,26.2686 z M 928.70096,66.14 c 0,-8.8552 1.42,-16.8995 4.21899,-24.1667 l -5.599,-2.1566 c -3.094,8.0328 -4.62,16.8185 -4.62,26.3233 z m 4.21199,-24.1487 c 2.867,-7.3015 6.84801,-13.5271 11.931,-18.7172 l -4.28699,-4.1982 c -5.683,5.8032 -10.089,12.7242 -13.229,20.7228 z m 11.931,-18.7172 c 5.07901,-5.1857 11.156,-9.2091 18.27,-12.0651 l -2.236,-5.56798 c -7.84699,3.15062 -14.633,7.62728 -20.32099,13.43488 z m 18.28,-12.0695 c 7.14001,-2.89865 15.053,-4.36961 23.77701,-4.36961 V 0.834991 c -9.409,0 -18.10001,1.589039 -26.034,4.810369 z m 23.77701,-4.36961 c 8.65299,0 15.93904,1.34287 21.93904,3.92121 l 2.37,-5.51239 C 1004.2799,2.26879 996.15394,0.834991 986.90096,0.834991 Z M 1008.84,10.7599 c 6.1999,2.6407 11.68,6.2155 16.4599,10.7268 l 4.12,-4.3634 C 1024.11,12.1146 1018.0299,8.15273 1011.2,5.24008 Z m 16.0699,6.8118 -5.35,7.565 4.89,3.4666 5.36,-7.565 z m -5.36,7.5779 c -0.2399,0.3386 -0.4899,0.5971 -0.7499,0.7973 l 3.69,4.7362 c 0.7599,-0.5932 1.4199,-1.2979 1.9699,-2.0927 z m -0.57,0.6692 c 0.1101,-0.0717 0.15,-0.0664 0.06,-0.0445 -0.1,0.0223 -0.29,0.0507 -0.5999,0.0507 v 6 c 1.2399,0 2.66,-0.2069 3.8699,-1.0138 z m -0.5399,0.0062 c -0.04,0 -0.3,-0.0137 -0.84,-0.3375 l -3.09,5.145 c 1.1599,0.6962 2.4899,1.1925 3.93,1.1925 z m -0.6401,-0.2062 c -0.8,-0.574 -1.78,-1.2598 -2.91,-2.0565 l -3.44,4.9154 c 1.1201,0.7899 2.08,1.4641 2.86,2.0235 z m -2.91,-2.0565 c -1.21,-0.847 -2.6099,-1.7381 -4.19,-2.6732 l -3.0599,5.1618 c 1.48,0.8783 2.75,1.6871 3.8099,2.4268 z m -4.19,-2.6732 c -1.71,-1.0143 -3.69,-1.9353 -5.91,-2.775 l -2.1199,5.6118 c 1.9699,0.747 3.6199,1.526 4.97,2.325 z m -5.91,-2.775 c -2.3,-0.871 -4.91695,-1.5651 -7.82694,-2.0997 l -1.084,5.9012 c 2.64299,0.4854 4.90094,1.0946 6.79104,1.8103 z m -7.76894,-2.0885 c -3.02001,-0.6163 -6.43001,-0.9106 -10.20501,-0.9106 v 6 c 3.478,0 6.471,0.2724 9.00501,0.7894 z M 986.81595,15.115 c -6.871,0 -13.247,1.1964 -19.089,3.6308 l 2.308,5.5384 c 5.037,-2.0989 10.618,-3.1692 16.781,-3.1692 z m -19.075,3.6248 c -5.768,2.3679 -10.771,5.7814 -14.98,10.2344 l 4.36,4.1215 c 3.611,-3.8203 7.9,-6.7534 12.899,-8.8055 z m -14.98,10.2345 c -4.217,4.4614 -7.47799,9.8619 -9.813,16.1461 l 5.625,2.0892 c 2.086,-5.6158 4.945,-10.302 8.548,-14.1139 z m -9.82099,16.1698 c -2.29001,6.3262 -3.409,13.3372 -3.409,20.9959 h 6 c 0,-7.0746 1.03399,-13.3803 3.05099,-18.9541 z m -3.409,20.9959 c 0,7.8738 1.11599,15.0005 3.409,21.3359 l 5.64199,-2.0418 c -2.014,-5.5646 -3.05099,-11.9812 -3.05099,-19.2941 z m 3.41699,21.3596 c 2.325,6.2578 5.484,11.6421 9.512,16.0974 l 4.451,-4.0239 c -3.452,-3.8181 -6.242,-8.5205 -8.338,-14.1627 z m 9.542,16.1294 c 4.088,4.393 8.92,7.757 14.47,10.074 l 2.312,-5.536 c -4.764,-1.989 -8.885,-4.859 -12.39,-8.6257 z m 14.47,10.074 c 5.546,2.316 11.495,3.462 17.81601,3.462 v -6 c -5.579,0 -10.73701,-1.008 -15.50401,-2.998 z m 17.81601,3.462 c 3.73199,0 7.12999,-0.204 10.18299,-0.623 l -0.816,-5.944 c -2.727,0.374 -5.846,0.567 -9.36699,0.567 z m 10.23999,-0.631 c 3.064,-0.481 5.92395,-1.208 8.57395,-2.192 l -2.1,-5.624 c -2.22195,0.829 -4.68795,1.462 -7.40394,1.888 z m 8.55395,-2.185 c 2.69,-0.979 5.19,-2.211 7.49,-3.702 l -3.2699,-5.034 c -1.8901,1.229 -3.98,2.264 -6.2701,3.098 z m 7.5001,-3.713 c 2.2999,-1.507 4.5699,-3.272 6.82,-5.285 l -4,-4.472 c -2.0601,1.84 -4.1001,3.419 -6.1101,4.745 z m 6.7999,-5.271 c 0.6401,-0.567 0.9001,-0.525 0.82,-0.525 v -6 c -1.89,0 -3.4999,0.8919 -4.7899,2.025 z m 130.12,21.635 v 3 h 3.0001 v -3 z m -16.58,0 h -3 v 3 h 3 z m 0,-55.42 h 3 v -3 h -3 z m -65.62,0 v -3 h -2.9999 v 3 z m 0,55.42 v 3 h 3.0001 v -3 z m -16.57,0 h -3 v 3 h 3 z m 0,-121.80501 v -3 h -3 v 3 z m 16.57,0 h 3.0001 v -3 h -3.0001 z m 0,54.31501 h -2.9999 v 3 h 2.9999 z m 65.62,0 v 3 h 3 v -3 z m 0,-54.31501 v -3 h -3 v 3 z m 16.58,0 h 3.0001 v -3 h -3.0001 z m 0,118.80501 h -16.58 v 6 h 16.58 z m -13.58,3 V 71.58 h -6 V 127 Z m -3,-58.42 h -65.62 v 6 h 65.62 z m -68.6199,3 V 127 h 6 V 71.58 Z m 2.9999,52.42 h -16.57 v 6 h 16.57 z m -13.57,3 V 5.19499 h -6 V 127 Z m -3,-118.80501 h 16.57 v -6 h -16.57 z m 13.5701,-3 V 59.51 h 6 V 5.19499 Z m 2.9999,57.31501 h 65.62 v -6 h -65.62 z m 68.62,-3 V 5.19499 h -6 V 59.51 Z m -3,-51.31501 h 16.58 v -6 h -16.58 z m 13.58,-3 V 127 h 6.0001 V 5.19499 Z"
     fill="#464646"
     id="path10"
     style="fill:#b3b3b3;stroke-width:0.999999" />
</svg>
