<?xml version="1.0" encoding="UTF-8" standalone="no"?>
<svg
   xmlns:dc="http://purl.org/dc/elements/1.1/"
   xmlns:cc="http://creativecommons.org/ns#"
   xmlns:rdf="http://www.w3.org/1999/02/22-rdf-syntax-ns#"
   xmlns:svg="http://www.w3.org/2000/svg"
   xmlns="http://www.w3.org/2000/svg"
   xmlns:sodipodi="http://sodipodi.sourceforge.net/DTD/sodipodi-0.dtd"
   xmlns:inkscape="http://www.inkscape.org/namespaces/inkscape"
   width="32"
   height="24"
   viewBox="0 0 32 24"
   fill="none"
   version="1.1"
   id="svg12"
   sodipodi:docname="email.svg"
   inkscape:version="1.0.1 (c497b03c, 2020-09-10)">
  <metadata
     id="metadata18">
    <rdf:RDF>
      <cc:Work
         rdf:about="">
        <dc:format>image/svg+xml</dc:format>
        <dc:type
           rdf:resource="http://purl.org/dc/dcmitype/StillImage" />
      </cc:Work>
    </rdf:RDF>
  </metadata>
  <defs
     id="defs16" />
  <sodipodi:namedview
     pagecolor="#ffffff"
     bordercolor="#666666"
     borderopacity="1"
     objecttolerance="10"
     gridtolerance="10"
     guidetolerance="10"
     inkscape:pageopacity="0"
     inkscape:pageshadow="2"
     inkscape:window-width="820"
     inkscape:window-height="480"
     id="namedview14"
     showgrid="false"
     inkscape:zoom="32.90625"
     inkscape:cx="16"
     inkscape:cy="8.3532764"
     inkscape:window-x="3056"
     inkscape:window-y="89"
     inkscape:window-maximized="0"
     inkscape:current-layer="svg12" />
  <path
     d="M28.35 0H3.15C1.41277 0 0 1.3455 0 3V21C0 22.6545 1.41277 24 3.15 24H28.35C30.0872 24 31.5 22.6545 31.5 21V3C31.5 1.3455 30.0872 0 28.35 0ZM28.35 3V3.7665L15.75 13.101L3.15 3.768V3H28.35ZM3.15 21V7.566L14.783 16.1835C15.0665 16.395 15.4082 16.5 15.75 16.5C16.0918 16.5 16.4336 16.395 16.7171 16.1835L28.35 7.566L28.3532 21H3.15Z"
     fill="#F0F0F0"
     id="path10" />
</svg>
