<svg width="393" height="44" viewBox="0 0 393 44" fill="none" xmlns="http://www.w3.org/2000/svg">
<path d="M26.7351 36.794L26.8048 37.0858L26.8078 37.085L26.7351 36.794ZM30.4761 35.46L30.6049 35.7309L30.7761 35.6496V35.46H30.4761ZM30.4761 27.833H30.7761V27.533H30.4761V27.833ZM24.0381 27.427L23.8258 27.6393L23.8334 27.6463L24.0381 27.427ZM23.6031 21.975V21.675H23.3031V21.975H23.6031ZM37.5521 21.975H37.8521V21.675H37.5521V21.975ZM37.5521 38.94L37.7285 39.1826L37.8521 39.0928V38.94H37.5521ZM34.2171 40.97L34.3494 41.2392L34.3513 41.2383L34.2171 40.97ZM30.5341 42.362L30.4534 42.0731L30.4522 42.0734L30.5341 42.362ZM26.3581 43.174L26.3233 42.876L26.3195 42.8765L26.3581 43.174ZM13.1051 41.869L12.9904 42.1462L12.9904 42.1462L13.1051 41.869ZM6.43509 37.432L6.22187 37.643L6.22187 37.643L6.43509 37.432ZM2.02709 30.646L1.74826 30.7567L1.74897 30.7585L2.02709 30.646ZM1.99809 13.362L1.71856 13.2531L1.71856 13.2531L1.99809 13.362ZM6.34809 6.576L6.13595 6.36386L6.13487 6.36496L6.34809 6.576ZM13.2211 2.168L13.1125 1.88836L13.1125 1.88836L13.2211 2.168ZM31.1431 2.139L31.0291 2.4165L31.0317 2.41754L31.1431 2.139ZM37.5231 6.083L37.7758 6.2446L37.9104 6.03413L37.7278 5.86368L37.5231 6.083ZM35.2611 9.621L35.0083 9.45939L35.0063 9.46262L35.2611 9.621ZM32.0711 10.23L32.2329 9.97718L32.2242 9.97204L32.0711 10.23ZM30.1571 9.128L30.0074 9.38801L30.0107 9.38988L30.1571 9.128ZM28.0111 8.171L27.912 8.45416L27.9141 8.4549L28.0111 8.171ZM25.3721 7.504L25.3189 7.79925L25.32 7.79943L25.3721 7.504ZM16.3821 8.287L16.2674 8.00979L16.2662 8.01027L16.3821 8.287ZM12.1191 11.274L11.8973 11.072L11.8973 11.072L12.1191 11.274ZM9.39309 15.943L9.11002 15.8436L9.11002 15.8436L9.39309 15.943ZM9.45109 28.5L9.16856 28.6009L9.16889 28.6018L9.45109 28.5ZM12.2931 33.256L12.0745 33.4615L12.2931 33.256ZM16.6431 36.243L16.5284 36.5202L16.5311 36.5213L16.6431 36.243ZM22.1531 37.558C23.9289 37.558 25.4807 37.402 26.8048 37.0858L26.6654 36.5022C25.3988 36.8047 23.896 36.958 22.1531 36.958V37.558ZM26.8078 37.085C28.1411 36.7517 29.4069 36.3005 30.6049 35.7309L30.3473 35.1891C29.1866 35.7409 27.9584 36.1789 26.6623 36.503L26.8078 37.085ZM30.7761 35.46V27.833H30.1761V35.46H30.7761ZM30.4761 27.533H25.2271V28.133H30.4761V27.533ZM25.2271 27.533C24.7793 27.533 24.4635 27.4137 24.2428 27.2077L23.8334 27.6463C24.1927 27.9816 24.6696 28.133 25.2271 28.133V27.533ZM24.2502 27.2149C24.0158 26.9805 23.9031 26.7085 23.9031 26.383H23.3031C23.3031 26.8695 23.4803 27.2935 23.826 27.6391L24.2502 27.2149ZM23.9031 26.383V21.975H23.3031V26.383H23.9031ZM23.6031 22.275H37.5521V21.675H23.6031V22.275ZM37.2521 21.975V38.94H37.8521V21.975H37.2521ZM37.3756 38.6974C36.3255 39.4611 35.2279 40.1292 34.0829 40.7017L34.3513 41.2383C35.5262 40.6508 36.652 39.9655 37.7285 39.1826L37.3756 38.6974ZM34.0848 40.7008C32.9618 41.2527 31.7516 41.7103 30.4534 42.0731L30.6148 42.6509C31.946 42.279 33.191 41.8086 34.3494 41.2392L34.0848 40.7008ZM30.4522 42.0734C29.1739 42.4359 27.7978 42.7037 26.3233 42.876L26.3929 43.472C27.8957 43.2963 29.3036 43.0228 30.6159 42.6506L30.4522 42.0734ZM26.3195 42.8765C24.8453 43.0679 23.2537 43.164 21.5441 43.164V43.764C23.2758 43.764 24.8936 43.6667 26.3967 43.4715L26.3195 42.8765ZM21.5441 43.164C18.5249 43.164 15.7513 42.6387 13.2197 41.5918L12.9904 42.1462C15.6015 43.226 18.4539 43.764 21.5441 43.764V43.164ZM13.2197 41.5918C10.6837 40.543 8.49429 39.086 6.6483 37.221L6.22187 37.643C8.12655 39.5674 10.3838 41.0683 12.9904 42.1462L13.2197 41.5918ZM6.6483 37.221C4.80267 35.3563 3.35461 33.1284 2.3052 30.5335L1.74897 30.7585C2.82623 33.4222 4.31683 35.7184 6.22187 37.643L6.6483 37.221ZM2.30591 30.5353C1.27724 27.9446 0.761086 25.1116 0.761086 22.033H0.161086C0.161086 25.1798 0.688932 28.0888 1.74826 30.7567L2.30591 30.5353ZM0.761086 22.033C0.761086 18.9146 1.26797 16.0617 2.27761 13.4709L1.71856 13.2531C0.678874 15.9209 0.161086 18.8487 0.161086 22.033H0.761086ZM2.27761 13.4709C3.28827 10.8775 4.71649 8.65087 6.5613 6.78704L6.13487 6.36496C4.22902 8.29046 2.75723 10.5878 1.71856 13.2531L2.27761 13.4709ZM6.56022 6.78813C8.42326 4.92509 10.6782 3.47772 13.3297 2.44764L13.1125 1.88836C10.3893 2.94627 8.06225 4.43757 6.13595 6.36387L6.56022 6.78813ZM13.3297 2.44764C15.9773 1.41907 18.9557 0.902 22.2691 0.902V0.302C18.8931 0.302 15.8395 0.828931 13.1125 1.88836L13.3297 2.44764ZM22.2691 0.902C25.6621 0.902 28.5796 1.4101 31.0291 2.41649L31.2571 1.86151C28.7186 0.818566 25.7201 0.302 22.2691 0.302V0.902ZM31.0317 2.41754C33.5152 3.41095 35.609 4.7069 37.3184 6.30232L37.7278 5.86368C35.9572 4.2111 33.7976 2.87771 31.2545 1.86046L31.0317 2.41754ZM37.2703 5.9214L35.0083 9.4594L35.5138 9.7826L37.7758 6.2446L37.2703 5.9214ZM35.0063 9.46262C34.6069 10.1051 34.1063 10.394 33.4921 10.394V10.994C34.3472 10.994 35.0259 10.5675 35.5159 9.77938L35.0063 9.46262ZM33.4921 10.394C33.0976 10.394 32.6793 10.2631 32.2328 9.97732L31.9094 10.4827C32.4295 10.8156 32.9586 10.994 33.4921 10.994V10.394ZM32.2242 9.97204C31.6032 9.60331 30.963 9.23467 30.3034 8.86611L30.0107 9.38988C30.6659 9.75599 31.3016 10.122 31.9179 10.488L32.2242 9.97204ZM30.3068 8.86801C29.6499 8.48981 28.9166 8.16318 28.108 7.88709L27.9141 8.4549C28.691 8.72015 29.3883 9.03152 30.0074 9.38798L30.3068 8.86801ZM28.1102 7.88784C27.3186 7.6108 26.4228 7.38479 25.4242 7.20856L25.32 7.79943C26.2934 7.97121 27.1569 8.18987 27.912 8.45415L28.1102 7.88784ZM25.4252 7.20874C24.4367 7.03081 23.2969 6.943 22.0081 6.943V7.543C23.2712 7.543 24.3741 7.62918 25.3189 7.79925L25.4252 7.20874ZM22.0081 6.943C19.9054 6.943 17.9904 7.29683 16.2674 8.00979L16.4968 8.5642C18.1378 7.88517 19.9734 7.543 22.0081 7.543V6.943ZM16.2662 8.01027C14.5644 8.72266 13.1069 9.7434 11.8973 11.072L12.3409 11.476C13.4899 10.2139 14.8744 9.24334 16.4979 8.56373L16.2662 8.01027ZM11.8973 11.072C10.6883 12.3999 9.76002 13.9921 9.11002 15.8436L9.67615 16.0424C10.3022 14.2592 11.1913 12.7387 12.3409 11.476L11.8973 11.072ZM9.11002 15.8436C8.45914 17.6977 8.13609 19.7619 8.13609 22.033H8.73609C8.73609 19.8187 9.05103 17.823 9.67615 16.0424L9.11002 15.8436ZM8.13609 22.033C8.13609 24.4773 8.47827 26.6681 9.16856 28.6009L9.73361 28.3991C9.07057 26.5426 8.73609 24.422 8.73609 22.033H8.13609ZM9.16889 28.6018C9.85778 30.511 10.8252 32.1329 12.0745 33.4615L12.5116 33.0505C11.3249 31.7884 10.3977 30.2396 9.73328 28.3982L9.16889 28.6018ZM12.0745 33.4615C13.3224 34.7886 14.808 35.8083 16.5284 36.5202L16.7578 35.9658C15.1141 35.2857 13.6998 34.3141 12.5116 33.0505L12.0745 33.4615ZM16.5311 36.5213C18.2521 37.2137 20.1272 37.558 22.1531 37.558V36.958C20.1963 36.958 18.3981 36.6257 16.7551 35.9647L16.5311 36.5213ZM71.2592 1.066H71.5592V0.765997H71.2592V1.066ZM71.2592 7.272V7.572H71.5592V7.272H71.2592ZM52.6701 7.272V6.972H52.3701V7.272H52.6701ZM52.6701 18.901H52.3701V19.201H52.6701V18.901ZM67.3151 18.901H67.6151V18.601H67.3151V18.901ZM67.3151 24.904V25.204H67.6151V24.904H67.3151ZM52.6701 24.904V24.604H52.3701V24.904H52.6701ZM52.6701 36.765H52.3701V37.065H52.6701V36.765ZM71.2592 36.765H71.5592V36.465H71.2592V36.765ZM71.2592 43V43.3H71.5592V43H71.2592ZM44.8111 43H44.5111V43.3H44.8111V43ZM44.8111 1.066V0.765997H44.5111V1.066H44.8111ZM70.9592 1.066V7.272H71.5592V1.066H70.9592ZM71.2592 6.972H52.6701V7.572H71.2592V6.972ZM52.3701 7.272V18.901H52.9701V7.272H52.3701ZM52.6701 19.201H67.3151V18.601H52.6701V19.201ZM67.0151 18.901V24.904H67.6151V18.901H67.0151ZM67.3151 24.604H52.6701V25.204H67.3151V24.604ZM52.3701 24.904V36.765H52.9701V24.904H52.3701ZM52.6701 37.065H71.2592V36.465H52.6701V37.065ZM70.9592 36.765V43H71.5592V36.765H70.9592ZM71.2592 42.7H44.8111V43.3H71.2592V42.7ZM45.1111 43V1.066H44.5111V43H45.1111ZM44.8111 1.366H71.2592V0.765997H44.8111V1.366ZM107.554 1.066H107.854V0.765997H107.554V1.066ZM107.554 7.475V7.775H107.854V7.475H107.554ZM94.9386 7.475V7.175H94.6386V7.475H94.9386ZM94.9386 43V43.3H95.2386V43H94.9386ZM87.1376 43H86.8376V43.3H87.1376V43ZM87.1376 7.475H87.4376V7.175H87.1376V7.475ZM74.4646 7.475H74.1646V7.775H74.4646V7.475ZM74.4646 1.066V0.765997H74.1646V1.066H74.4646ZM107.254 1.066V7.475H107.854V1.066H107.254ZM107.554 7.175H94.9386V7.775H107.554V7.175ZM94.6386 7.475V43H95.2386V7.475H94.6386ZM94.9386 42.7H87.1376V43.3H94.9386V42.7ZM87.4376 43V7.475H86.8376V43H87.4376ZM87.1376 7.175H74.4646V7.775H87.1376V7.175ZM74.7646 7.475V1.066H74.1646V7.475H74.7646ZM74.4646 1.366H107.554V0.765997H74.4646V1.366ZM132.499 43V43.3H132.799V43H132.499ZM124.669 43H124.369V43.3H124.669V43ZM124.669 1.066V0.765997H124.369V1.066H124.669ZM132.499 1.066H132.799V0.765997H132.499V1.066ZM132.499 42.7H124.669V43.3H132.499V42.7ZM124.969 43V1.066H124.369V43H124.969ZM124.669 1.366H132.499V0.765997H124.669V1.366ZM132.199 1.066V43H132.799V1.066H132.199ZM146.909 1.124L146.86 1.41991L146.872 1.42194L146.884 1.42296L146.909 1.124ZM147.518 1.298L147.372 1.56024L147.389 1.56948L147.406 1.57654L147.518 1.298ZM148.069 1.675L147.857 1.88713L147.863 1.89336L147.87 1.89922L148.069 1.675ZM148.649 2.313L148.885 2.12777L148.885 2.12765L148.649 2.313ZM170.66 30.356L170.424 30.5412L171.078 31.375L170.958 30.3219L170.66 30.356ZM170.486 28.384L170.186 28.3928L170.186 28.4021L170.486 28.384ZM170.457 1.066V0.765997H170.157V1.066H170.457ZM177.33 1.066H177.63V0.765997H177.33V1.066ZM177.33 43V43.3H177.63V43H177.33ZM170.573 41.666L170.811 41.4831L170.809 41.4808L170.573 41.666ZM148.649 13.739L148.885 13.5537L148.255 12.7514L148.35 13.767L148.649 13.739ZM148.765 15.595L148.465 15.6044L148.465 15.6143L148.765 15.595ZM148.823 43V43.3H149.123V43H148.823ZM141.95 43H141.65V43.3H141.95V43ZM141.95 1.066V0.765997H141.65V1.066H141.95ZM146.039 1.366C146.377 1.366 146.65 1.38492 146.86 1.41991L146.958 0.828078C146.704 0.785741 146.396 0.765997 146.039 0.765997V1.366ZM146.884 1.42296C147.081 1.43935 147.241 1.48746 147.372 1.56024L147.664 1.03575C147.447 0.915206 147.201 0.847307 146.934 0.825033L146.884 1.42296ZM147.406 1.57654C147.556 1.6363 147.706 1.73672 147.857 1.88713L148.281 1.46287C148.083 1.26528 147.867 1.11436 147.629 1.01946L147.406 1.57654ZM147.87 1.89922C148.026 2.03788 148.207 2.23573 148.413 2.49834L148.885 2.12765C148.666 1.84894 148.46 1.62144 148.268 1.45078L147.87 1.89922ZM148.413 2.49822L170.424 30.5412L170.896 30.1708L148.885 2.12777L148.413 2.49822ZM170.958 30.3219C170.881 29.6502 170.824 28.9982 170.785 28.3659L170.186 28.4021C170.225 29.0458 170.284 29.7084 170.362 30.3901L170.958 30.3219ZM170.786 28.3752C170.766 27.7203 170.757 27.1143 170.757 26.557H170.157C170.157 27.1211 170.167 27.733 170.186 28.3928L170.786 28.3752ZM170.757 26.557V1.066H170.157V26.557H170.757ZM170.457 1.366H177.33V0.765997H170.457V1.366ZM177.03 1.066V43H177.63V1.066H177.03ZM177.33 42.7H173.299V43.3H177.33V42.7ZM173.299 42.7C172.709 42.7 172.244 42.6075 171.891 42.4391L171.633 42.9809C172.091 43.1992 172.651 43.3 173.299 43.3V42.7ZM171.891 42.4391C171.541 42.2727 171.18 41.9627 170.811 41.4831L170.335 41.8489C170.739 42.3746 171.17 42.7606 171.633 42.9809L171.891 42.4391ZM170.809 41.4808L148.885 13.5537L148.413 13.9242L170.337 41.8512L170.809 41.4808ZM148.35 13.767C148.408 14.3795 148.446 14.9919 148.465 15.6044L149.065 15.5856C149.045 14.9607 149.006 14.3358 148.948 13.711L148.35 13.767ZM148.465 15.6143C148.504 16.2084 148.523 16.7529 148.523 17.248H149.123C149.123 16.7378 149.103 16.1803 149.064 15.5757L148.465 15.6143ZM148.523 17.248V43H149.123V17.248H148.523ZM148.823 42.7H141.95V43.3H148.823V42.7ZM142.25 43V1.066H141.65V43H142.25ZM141.95 1.366H146.039V0.765997H141.95V1.366ZM226.556 1.066H226.856V0.765997H226.556V1.066ZM226.556 7.475V7.775H226.856V7.475H226.556ZM213.941 7.475V7.175H213.641V7.475H213.941ZM213.941 43V43.3H214.241V43H213.941ZM206.14 43H205.84V43.3H206.14V43ZM206.14 7.475H206.44V7.175H206.14V7.475ZM193.467 7.475H193.167V7.775H193.467V7.475ZM193.467 1.066V0.765997H193.167V1.066H193.467ZM226.256 1.066V7.475H226.856V1.066H226.256ZM226.556 7.175H213.941V7.775H226.556V7.175ZM213.641 7.475V43H214.241V7.475H213.641ZM213.941 42.7H206.14V43.3H213.941V42.7ZM206.44 43V7.475H205.84V43H206.44ZM206.14 7.175H193.467V7.775H206.14V7.175ZM193.767 7.475V1.066H193.167V7.475H193.767ZM193.467 1.366H226.556V0.765997H193.467V1.366ZM267.919 30.588L268.198 30.6976L268.199 30.6969L267.919 30.588ZM263.598 37.374L263.813 37.5828L263.813 37.5828L263.598 37.374ZM256.899 41.869L257.012 42.1468L257.014 42.1461L256.899 41.869ZM239.528 41.869L239.413 42.1461L239.416 42.1471L239.528 41.869ZM232.8 37.374L232.585 37.5828L232.586 37.584L232.8 37.374ZM228.479 30.588L228.199 30.6969L228.2 30.6976L228.479 30.588ZM228.479 13.507L228.758 13.6166L228.759 13.6159L228.479 13.507ZM232.8 6.692L232.586 6.48204L232.585 6.48315L232.8 6.692ZM239.528 2.226L239.641 2.50383L239.642 2.5034L239.528 2.226ZM263.598 6.721L263.383 6.92985L263.384 6.93093L263.598 6.721ZM267.919 13.507L267.639 13.6159L267.64 13.6166L267.919 13.507ZM260.524 15.856L260.239 15.9491L260.24 15.9527L260.524 15.856ZM257.914 11.187L258.138 10.9871L258.138 10.9871L257.914 11.187ZM253.738 8.258L253.623 8.53492L253.624 8.5354L253.738 8.258ZM242.689 8.258L242.575 7.98059L242.575 7.98059L242.689 8.258ZM238.484 11.187L238.262 10.9852L238.26 10.9871L238.484 11.187ZM235.845 15.856L236.129 15.9527L236.129 15.9518L235.845 15.856ZM235.845 28.239L235.561 28.3348L235.561 28.3357L235.845 28.239ZM238.484 32.879L238.26 33.079L238.264 33.0825L238.484 32.879ZM242.689 35.779L242.575 36.0564L242.575 36.0564L242.689 35.779ZM253.738 35.779L253.624 35.5016L253.623 35.5021L253.738 35.779ZM257.914 32.879L258.136 33.0806L258.138 33.0789L257.914 32.879ZM260.524 28.239L260.24 28.1432L260.239 28.145L260.524 28.239ZM269.156 22.033C269.156 25.0731 268.649 27.8874 267.639 30.4791L268.199 30.6969C269.238 28.0299 269.756 25.1409 269.756 22.033H269.156ZM267.64 30.4784C266.629 33.0533 265.21 35.2811 263.383 37.1652L263.813 37.5828C265.698 35.6389 267.16 33.3427 268.198 30.6976L267.64 30.4784ZM263.383 37.1652C261.557 39.0481 259.359 40.5239 256.784 41.5919L257.014 42.1461C259.659 41.0487 261.927 39.5279 263.813 37.5828L263.383 37.1652ZM256.786 41.5912C254.216 42.6381 251.365 43.164 248.228 43.164V43.764C251.433 43.764 254.362 43.2265 257.012 42.1468L256.786 41.5912ZM248.228 43.164C245.091 43.164 242.23 42.6382 239.64 41.5909L239.416 42.1471C242.085 43.2265 245.023 43.764 248.228 43.764V43.164ZM239.643 41.5919C237.068 40.5238 234.86 39.0476 233.014 37.164L232.586 37.584C234.491 39.5284 236.768 41.0488 239.413 42.1461L239.643 41.5919ZM233.015 37.1652C231.188 35.2811 229.769 33.0533 228.758 30.4784L228.2 30.6976C229.238 33.3427 230.7 35.6389 232.585 37.5828L233.015 37.1652ZM228.759 30.4791C227.749 27.8874 227.242 25.0731 227.242 22.033H226.642C226.642 25.1409 227.16 28.0299 228.199 30.6969L228.759 30.4791ZM227.242 22.033C227.242 18.9929 227.749 16.1885 228.758 13.6166L228.2 13.3974C227.16 16.0455 226.642 18.9251 226.642 22.033H227.242ZM228.759 13.6159C229.77 11.0216 231.189 8.78449 233.015 6.90084L232.585 6.48315C230.699 8.42751 229.238 10.7337 228.199 13.3981L228.759 13.6159ZM233.014 6.90195C234.859 5.01876 237.067 3.5525 239.641 2.50383L239.415 1.94817C236.769 3.02616 234.491 4.53724 232.586 6.48204L233.014 6.90195ZM239.642 2.5034C242.231 1.43728 245.092 0.902 248.228 0.902V0.302C245.023 0.302 242.083 0.849385 239.414 1.9486L239.642 2.5034ZM248.228 0.902C251.364 0.902 254.215 1.43729 256.784 2.5031L257.014 1.94889C254.363 0.849374 251.433 0.302 248.228 0.302V0.902ZM256.784 2.5031C259.359 3.57105 261.557 5.04694 263.383 6.92984L263.813 6.51215C261.927 4.56706 259.659 3.04628 257.014 1.94889L256.784 2.5031ZM263.384 6.93093C265.21 8.79486 266.629 11.0219 267.639 13.6159L268.199 13.3981C267.16 10.7335 265.698 8.43647 263.812 6.51106L263.384 6.93093ZM267.64 13.6166C268.649 16.1885 269.156 18.9929 269.156 22.033H269.756C269.756 18.9251 269.238 16.0455 268.198 13.3974L267.64 13.6166ZM261.752 22.033C261.752 19.7058 261.439 17.6133 260.808 15.7593L260.24 15.9527C260.846 17.7334 261.152 19.7589 261.152 22.033H261.752ZM260.809 15.7629C260.199 13.8919 259.309 12.2978 258.138 10.9871L257.69 11.3869C258.8 12.6282 259.651 14.1468 260.239 15.9491L260.809 15.7629ZM258.138 10.9871C256.966 9.676 255.536 8.67381 253.852 7.98059L253.624 8.5354C255.227 9.19551 256.581 10.146 257.69 11.3869L258.138 10.9871ZM253.853 7.98107C252.187 7.28688 250.311 6.943 248.228 6.943V7.543C250.244 7.543 252.041 7.87579 253.623 8.53492L253.853 7.98107ZM248.228 6.943C246.145 6.943 244.259 7.2869 242.575 7.98059L242.803 8.5354C244.405 7.87576 246.212 7.543 248.228 7.543V6.943ZM242.575 7.98059C240.892 8.67364 239.453 9.67531 238.262 10.9852L238.706 11.3888C239.835 10.1467 241.2 9.19569 242.803 8.5354L242.575 7.98059ZM238.26 10.9871C237.089 12.2971 236.191 13.8902 235.561 15.7602L236.129 15.9518C236.737 14.1485 237.597 12.6289 238.708 11.3869L238.26 10.9871ZM235.561 15.7593C234.93 17.6133 234.617 19.7058 234.617 22.033H235.217C235.217 19.7589 235.523 17.7334 236.129 15.9527L235.561 15.7593ZM234.617 22.033C234.617 24.3603 234.93 26.4621 235.561 28.3348L236.129 28.1432C235.523 26.3426 235.217 24.307 235.217 22.033H234.617ZM235.561 28.3357C236.191 30.1865 237.09 31.7695 238.26 33.0789L238.708 32.6791C237.597 31.4365 236.736 29.9262 236.129 28.1423L235.561 28.3357ZM238.264 33.0825C239.454 34.3725 240.893 35.3638 242.575 36.0564L242.803 35.5016C241.199 34.8409 239.834 33.8988 238.704 32.6755L238.264 33.0825ZM242.575 36.0564C244.259 36.7501 246.145 37.094 248.228 37.094V36.494C246.212 36.494 244.405 36.1612 242.803 35.5016L242.575 36.0564ZM248.228 37.094C250.311 37.094 252.187 36.7501 253.853 36.0559L253.623 35.5021C252.041 36.1612 250.244 36.494 248.228 36.494V37.094ZM253.852 36.0564C255.535 35.3636 256.964 34.3718 258.136 33.0806L257.692 32.6774C256.583 33.8995 255.228 34.8411 253.624 35.5016L253.852 36.0564ZM258.138 33.0789C259.309 31.7688 260.198 30.1848 260.809 28.333L260.239 28.145C259.651 29.9278 258.8 31.4372 257.69 32.6791L258.138 33.0789ZM260.808 28.3348C261.439 26.4621 261.752 24.3603 261.752 22.033H261.152C261.152 24.307 260.846 26.3426 260.24 28.1432L260.808 28.3348ZM296.531 35.953L296.415 35.6763L296.413 35.677L296.531 35.953ZM299.547 33.836L299.325 33.6335L299.323 33.6361L299.547 33.836ZM301.432 30.53L301.148 30.4326L301.147 30.4364L301.432 30.53ZM302.099 1.066V0.765997H301.799V1.066H302.099ZM309.9 1.066H310.2V0.765997H309.9V1.066ZM308.682 33.111L308.401 33.004L308.401 33.0054L308.682 33.111ZM305.231 38.592L305.444 38.8028L305.445 38.8014L305.231 38.592ZM299.75 42.188L299.86 42.4669L299.862 42.466L299.75 42.188ZM285.25 42.188L285.137 42.466L285.139 42.4669L285.25 42.188ZM279.769 38.592L279.553 38.8001L279.555 38.8028L279.769 38.592ZM276.318 33.111L276.037 33.2158L276.038 33.2189L276.318 33.111ZM275.129 1.066V0.765997H274.829V1.066H275.129ZM282.93 1.066H283.23V0.765997H282.93V1.066ZM283.568 30.501L283.283 30.5946L283.284 30.5984L283.568 30.501ZM285.453 33.836L285.227 34.0336L285.229 34.0359L285.453 33.836ZM288.44 35.953L288.322 36.229L288.324 36.2297L288.44 35.953ZM292.5 37.007C294.041 37.007 295.426 36.75 296.648 36.229L296.413 35.677C295.277 36.1613 293.974 36.407 292.5 36.407V37.007ZM296.647 36.2297C297.884 35.7109 298.927 34.98 299.77 34.0359L299.323 33.6361C298.543 34.5093 297.575 35.1898 296.415 35.6763L296.647 36.2297ZM299.768 34.0385C300.631 33.0952 301.28 31.955 301.717 30.6236L301.147 30.4364C300.733 31.6957 300.125 32.7594 299.325 33.6335L299.768 34.0385ZM301.715 30.6274C302.173 29.2959 302.399 27.8122 302.399 26.18H301.799C301.799 27.7571 301.58 29.1735 301.148 30.4326L301.715 30.6274ZM302.399 26.18V1.066H301.799V26.18H302.399ZM302.099 1.366H309.9V0.765997H302.099V1.366ZM309.6 1.066V26.18H310.2V1.066H309.6ZM309.6 26.18C309.6 28.6409 309.199 30.9146 308.401 33.004L308.962 33.218C309.788 31.0541 310.2 28.7071 310.2 26.18H309.6ZM308.401 33.0054C307.622 35.0756 306.494 36.8668 305.016 38.3826L305.445 38.8014C306.984 37.2238 308.156 35.3611 308.962 33.2166L308.401 33.0054ZM305.017 38.3812C303.54 39.8773 301.748 41.0541 299.637 41.91L299.862 42.466C302.043 41.5819 303.905 40.3614 305.444 38.8028L305.017 38.3812ZM299.639 41.9091C297.534 42.7437 295.155 43.164 292.5 43.164V43.764C295.219 43.764 297.674 43.3336 299.86 42.4669L299.639 41.9091ZM292.5 43.164C289.844 43.164 287.466 42.7437 285.36 41.9091L285.139 42.4669C287.326 43.3336 289.781 43.764 292.5 43.764V43.164ZM285.362 41.91C283.251 41.0541 281.459 39.8773 279.982 38.3812L279.555 38.8028C281.094 40.3614 282.956 41.5819 285.137 42.466L285.362 41.91ZM279.985 38.384C278.525 36.8676 277.396 35.0751 276.598 33.0031L276.038 33.2189C276.863 35.3615 278.035 37.2231 279.553 38.8L279.985 38.384ZM276.599 33.0062C275.82 30.9162 275.429 28.6418 275.429 26.18H274.829C274.829 28.7062 275.23 31.0524 276.037 33.2158L276.599 33.0062ZM275.429 26.18V1.066H274.829V26.18H275.429ZM275.129 1.366H282.93V0.765997H275.129V1.366ZM282.63 1.066V26.151H283.23V1.066H282.63ZM282.63 26.151C282.63 27.782 282.846 29.2642 283.283 30.5946L283.853 30.4074C283.439 29.1471 283.23 27.7294 283.23 26.151H282.63ZM283.284 30.5984C283.74 31.9265 284.387 33.0732 285.227 34.0336L285.678 33.6384C284.895 32.7428 284.285 31.6662 283.851 30.4036L283.284 30.5984ZM285.229 34.0359C286.072 34.9791 287.104 35.71 288.322 36.229L288.557 35.677C287.416 35.1907 286.458 34.5102 285.676 33.6361L285.229 34.0359ZM288.324 36.2297C289.564 36.75 290.958 37.007 292.5 37.007V36.407C291.025 36.407 289.712 36.1613 288.556 35.6763L288.324 36.2297ZM347.747 33.604L347.968 33.4007L347.965 33.3984L347.747 33.604ZM350.821 36.939L351.054 37.1275L351.217 36.926L351.042 36.7357L350.821 36.939ZM344.528 41.782L344.405 41.5084L344.404 41.5087L344.528 41.782ZM327.186 41.869L327.068 42.1446L327.068 42.145L327.186 41.869ZM320.835 37.432L320.615 37.6361L320.615 37.6361L320.835 37.432ZM316.775 30.646L316.492 30.7458L316.493 30.7477L316.775 30.646ZM316.949 13.391L317.228 13.5024L317.228 13.5017L316.949 13.391ZM321.357 6.605L321.145 6.39286L321.145 6.39286L321.357 6.605ZM328.143 2.197L328.254 2.47583L328.255 2.4754L328.143 2.197ZM345.05 2.11L344.931 2.38528L344.933 2.38645L345.05 2.11ZM351.053 6.054L351.296 6.22929L351.446 6.02103L351.264 5.84063L351.053 6.054ZM348.443 9.679L348.199 9.50359L348.193 9.51259L348.443 9.679ZM347.834 10.288L347.663 10.0412L347.654 10.048L347.834 10.288ZM345.485 10.027L345.305 10.267L345.305 10.267L345.485 10.027ZM343.716 8.896L343.568 9.15691L343.568 9.15691L343.716 8.896ZM340.99 7.765L340.898 8.05061L340.9 8.05107L340.99 7.765ZM331.391 8.287L331.505 8.56441L331.507 8.56373L331.391 8.287ZM327.128 11.216L326.909 11.0106L326.908 11.0124L327.128 11.216ZM324.344 15.885L324.062 15.7813L324.062 15.783L324.344 15.885ZM324.344 28.326L324.061 28.4271L324.062 28.4297L324.344 28.326ZM331.101 35.866L330.981 36.1409L330.984 36.1421L331.101 35.866ZM338.96 36.678L338.92 36.3806L338.919 36.3808L338.96 36.678ZM341.338 36.127L341.241 35.8431L341.239 35.844L341.338 36.127ZM343.397 35.17L343.552 35.4266L343.555 35.4252L343.397 35.17ZM345.34 33.691L345.139 33.468L345.138 33.469L345.34 33.691ZM345.949 33.285L346.073 33.5581L346.083 33.5536L346.093 33.5484L345.949 33.285ZM346.645 33.411C346.982 33.411 347.272 33.5371 347.529 33.8096L347.965 33.3984C347.603 33.0136 347.159 32.811 346.645 32.811V33.411ZM347.526 33.8073L350.6 37.1423L351.042 36.7357L347.968 33.4007L347.526 33.8073ZM350.588 36.7505C348.916 38.8209 346.856 40.4062 344.405 41.5084L344.651 42.0556C347.188 40.9152 349.323 39.2718 351.054 37.1275L350.588 36.7505ZM344.404 41.5087C341.978 42.6082 339.045 43.164 335.596 43.164V43.764C339.107 43.764 342.129 43.1984 344.652 42.0553L344.404 41.5087ZM335.596 43.164C332.518 43.164 329.755 42.6383 327.304 41.593L327.068 42.145C329.605 43.2263 332.449 43.764 335.596 43.764V43.164ZM327.304 41.5934C324.867 40.5458 322.784 39.0906 321.055 37.2279L320.615 37.6361C322.404 39.5627 324.556 41.0655 327.068 42.1446L327.304 41.5934ZM321.055 37.2279C319.325 35.3651 317.992 33.1387 317.057 30.5443L316.493 30.7477C317.453 33.4119 318.826 35.7095 320.615 37.6361L321.055 37.2279ZM317.058 30.5462C316.142 27.9524 315.683 25.1156 315.683 22.033H315.083C315.083 25.1758 315.552 28.0809 316.492 30.7458L317.058 30.5462ZM315.683 22.033C315.683 18.9152 316.199 16.0729 317.228 13.5024L316.67 13.2796C315.611 15.9291 315.083 18.8481 315.083 22.033H315.683ZM317.228 13.5017C318.258 10.9082 319.705 8.68129 321.569 6.81713L321.145 6.39286C319.22 8.31804 317.728 10.6151 316.67 13.2803L317.228 13.5017ZM321.569 6.81713C323.433 4.95297 325.66 3.50559 328.254 2.47582L328.032 1.91817C325.367 2.9764 323.07 4.46769 321.145 6.39286L321.569 6.81713ZM328.255 2.4754C330.864 1.42792 333.745 0.902 336.901 0.902V0.302C333.677 0.302 330.719 0.839412 328.031 1.9186L328.255 2.4754ZM336.901 0.902C339.982 0.902 342.656 1.39955 344.931 2.38526L345.169 1.83473C342.804 0.809777 340.045 0.302 336.901 0.302V0.902ZM344.933 2.38645C347.241 3.3589 349.209 4.6531 350.842 6.26737L351.264 5.84063C349.572 4.16823 347.538 2.8331 345.166 1.83355L344.933 2.38645ZM350.81 5.87871L348.2 9.50371L348.686 9.85429L351.296 6.22929L350.81 5.87871ZM348.193 9.51259C348.062 9.7102 347.886 9.8868 347.663 10.0413L348.005 10.5347C348.284 10.3412 348.515 10.1118 348.693 9.84541L348.193 9.51259ZM347.654 10.048C347.493 10.1686 347.237 10.249 346.848 10.249V10.849C347.309 10.849 347.711 10.7554 348.014 10.528L347.654 10.048ZM346.848 10.249C346.486 10.249 346.093 10.1079 345.665 9.787L345.305 10.267C345.805 10.6421 346.321 10.849 346.848 10.849V10.249ZM345.665 9.787C345.188 9.42894 344.586 9.04501 343.864 8.63509L343.568 9.15691C344.276 9.55899 344.854 9.92906 345.305 10.267L345.665 9.787ZM343.864 8.63509C343.125 8.21547 342.195 7.83093 341.08 7.47892L340.9 8.05107C341.989 8.39507 342.877 8.76453 343.568 9.15691L343.864 8.63509ZM341.082 7.47939C339.959 7.11847 338.543 6.943 336.843 6.943V7.543C338.507 7.543 339.856 7.71553 340.898 8.05061L341.082 7.47939ZM336.843 6.943C334.835 6.943 332.978 7.29752 331.275 8.01027L331.507 8.56373C333.129 7.88448 334.907 7.543 336.843 7.543V6.943ZM331.277 8.0096C329.594 8.70229 328.138 9.70294 326.909 11.0106L327.347 11.4214C328.516 10.1771 329.901 9.22504 331.505 8.5644L331.277 8.0096ZM326.908 11.0124C325.698 12.3208 324.751 13.9123 324.062 15.7813L324.625 15.9887C325.29 14.1844 326.199 12.6632 327.348 11.4196L326.908 11.0124ZM324.062 15.783C323.391 17.6383 323.058 19.723 323.058 22.033H323.658C323.658 19.7803 323.982 17.7663 324.626 15.987L324.062 15.783ZM323.058 22.033C323.058 24.4191 323.39 26.552 324.062 28.4271L324.626 28.2249C323.983 26.4267 323.658 24.3642 323.658 22.033H323.058ZM324.062 28.4297C324.75 30.297 325.678 31.8784 326.848 33.1676L327.292 32.7644C326.181 31.5403 325.291 30.0283 324.625 28.2223L324.062 28.4297ZM326.848 33.1676C328.017 34.4554 329.395 35.4471 330.981 36.1408L331.221 35.5912C329.713 34.9315 328.404 33.9899 327.292 32.7644L326.848 33.1676ZM330.984 36.1421C332.57 36.8161 334.272 37.152 336.089 37.152V36.552C334.348 36.552 332.726 36.2306 331.218 35.5899L330.984 36.1421ZM336.089 37.152C337.163 37.152 338.134 37.0935 339 36.9752L338.919 36.3808C338.085 36.4945 337.142 36.552 336.089 36.552V37.152ZM339 36.9754C339.887 36.8571 340.7 36.6691 341.437 36.41L341.239 35.844C340.545 36.0875 339.773 36.2669 338.92 36.3806L339 36.9754ZM341.435 36.4108C342.189 36.1528 342.895 35.8248 343.552 35.4266L343.241 34.9134C342.623 35.2885 341.956 35.5985 341.241 35.8432L341.435 36.4108ZM343.555 35.4252C344.229 35.0085 344.892 34.504 345.542 33.913L345.138 33.469C344.512 34.038 343.879 34.5195 343.239 34.9148L343.555 35.4252ZM345.541 33.914C345.714 33.7582 345.891 33.6407 346.073 33.5581L345.825 33.0119C345.581 33.1226 345.353 33.2758 345.139 33.468L345.541 33.914ZM346.093 33.5484C346.26 33.4573 346.442 33.411 346.645 33.411V32.811C346.345 32.811 346.064 32.8807 345.805 33.0216L346.093 33.5484ZM392.111 43V43.3H392.411V43H392.111ZM384.252 43H383.952V43.3H384.252V43ZM384.252 24.672H384.552V24.372H384.252V24.672ZM364.59 24.672V24.372H364.29V24.672H364.59ZM364.59 43V43.3H364.89V43H364.59ZM356.731 43H356.431V43.3H356.731V43ZM356.731 1.066V0.765997H356.431V1.066H356.731ZM364.59 1.066H364.89V0.765997H364.59V1.066ZM364.59 19.104H364.29V19.404H364.59V19.104ZM384.252 19.104V19.404H384.552V19.104H384.252ZM384.252 1.066V0.765997H383.952V1.066H384.252ZM392.111 1.066H392.411V0.765997H392.111V1.066ZM392.111 42.7H384.252V43.3H392.111V42.7ZM384.552 43V24.672H383.952V43H384.552ZM384.252 24.372H364.59V24.972H384.252V24.372ZM364.29 24.672V43H364.89V24.672H364.29ZM364.59 42.7H356.731V43.3H364.59V42.7ZM357.031 43V1.066H356.431V43H357.031ZM356.731 1.366H364.59V0.765997H356.731V1.366ZM364.29 1.066V19.104H364.89V1.066H364.29ZM364.59 19.404H384.252V18.804H364.59V19.404ZM384.552 19.104V1.066H383.952V19.104H384.552ZM384.252 1.366H392.111V0.765997H384.252V1.366ZM391.811 1.066V43H392.411V1.066H391.811Z" fill="#353535"/>
</svg>
