<svg width="1522" height="128" viewBox="0 0 1522 128" fill="none" xmlns="http://www.w3.org/2000/svg">
<path d="M0.2 126V2.155H45.76C54.3167 2.155 61.5983 2.94833 67.605 4.535C73.6117 6.12166 78.5133 8.36 82.31 11.25C86.1067 14.14 88.855 17.6533 90.555 21.79C92.3117 25.9267 93.19 30.545 93.19 35.645C93.19 38.4217 92.7933 41.1133 92 43.72C91.2067 46.27 89.96 48.6783 88.26 50.945C86.56 53.2117 84.3783 55.28 81.715 57.15C79.0517 58.9633 75.85 60.55 72.11 61.91C80.27 63.8933 86.305 67.1233 90.215 71.6C94.125 76.02 96.08 81.715 96.08 88.685C96.08 93.955 95.06 98.8567 93.02 103.39C90.98 107.923 87.9767 111.89 84.01 115.29C80.1 118.633 75.255 121.268 69.475 123.195C63.695 125.065 57.0933 126 49.67 126H0.2ZM28.93 73.47V104.325H49.16C52.9567 104.325 56.045 103.843 58.425 102.88C60.8617 101.917 62.76 100.67 64.12 99.14C65.48 97.61 66.415 95.8817 66.925 93.955C67.435 92.0283 67.69 90.0733 67.69 88.09C67.69 85.8233 67.3783 83.7833 66.755 81.97C66.1883 80.1567 65.1683 78.6267 63.695 77.38C62.2783 76.1333 60.38 75.17 58 74.49C55.62 73.81 52.6167 73.47 48.99 73.47H28.93ZM28.93 54.26H43.89C47.0633 54.26 49.925 54.0333 52.475 53.58C55.025 53.1267 57.1783 52.3333 58.935 51.2C60.7483 50.0667 62.1083 48.5083 63.015 46.525C63.9783 44.5417 64.46 42.0483 64.46 39.045C64.46 36.0983 64.0917 33.6617 63.355 31.735C62.6183 29.7517 61.485 28.165 59.955 26.975C58.425 25.785 56.47 24.935 54.09 24.425C51.7667 23.915 48.99 23.66 45.76 23.66H28.93V54.26ZM140.493 103.05H186.393V126H111.763V2.155H140.493V103.05ZM315.34 64.035C315.34 72.9883 313.782 81.3183 310.665 89.025C307.605 96.7317 303.27 103.447 297.66 109.17C292.05 114.837 285.278 119.285 277.345 122.515C269.468 125.745 260.713 127.36 251.08 127.36C241.447 127.36 232.663 125.745 224.73 122.515C216.797 119.285 209.997 114.837 204.33 109.17C198.72 103.447 194.357 96.7317 191.24 89.025C188.18 81.3183 186.65 72.9883 186.65 64.035C186.65 55.0817 188.18 46.7517 191.24 39.045C194.357 31.3383 198.72 24.6517 204.33 18.985C209.997 13.3183 216.797 8.86999 224.73 5.64C232.663 2.41 241.447 0.794996 251.08 0.794996C260.713 0.794996 269.468 2.43833 277.345 5.72499C285.278 8.955 292.05 13.4033 297.66 19.07C303.27 24.7367 307.605 31.4233 310.665 39.13C313.782 46.8367 315.34 55.1383 315.34 64.035ZM285.93 64.035C285.93 57.915 285.137 52.4183 283.55 47.545C281.963 42.615 279.668 38.45 276.665 35.05C273.718 31.65 270.092 29.0433 265.785 27.23C261.478 25.4167 256.577 24.51 251.08 24.51C245.527 24.51 240.568 25.4167 236.205 27.23C231.898 29.0433 228.243 31.65 225.24 35.05C222.293 38.45 220.027 42.615 218.44 47.545C216.853 52.4183 216.06 57.915 216.06 64.035C216.06 70.2117 216.853 75.765 218.44 80.695C220.027 85.5683 222.293 89.705 225.24 93.105C228.243 96.505 231.898 99.1117 236.205 100.925C240.568 102.682 245.527 103.56 251.08 103.56C256.577 103.56 261.478 102.682 265.785 100.925C270.092 99.1117 273.718 96.505 276.665 93.105C279.668 89.705 281.963 85.5683 283.55 80.695C285.137 75.765 285.93 70.2117 285.93 64.035ZM387.387 105.26C391.354 105.26 394.867 104.92 397.927 104.24C400.987 103.56 403.877 102.653 406.597 101.52V82.735H394.357C392.544 82.735 391.127 82.2533 390.107 81.29C389.087 80.3267 388.577 79.1083 388.577 77.635V61.825H432.607V114.1C429.434 116.423 426.119 118.435 422.662 120.135C419.262 121.778 415.607 123.138 411.697 124.215C407.844 125.292 403.707 126.085 399.287 126.595C394.924 127.105 390.22 127.36 385.177 127.36C376.11 127.36 367.724 125.773 360.017 122.6C352.31 119.37 345.624 114.95 339.957 109.34C334.347 103.673 329.927 96.9867 326.697 89.28C323.524 81.5167 321.937 73.1017 321.937 64.035C321.937 54.7983 323.467 46.3267 326.527 38.62C329.587 30.8567 333.95 24.17 339.617 18.56C345.34 12.95 352.225 8.58666 360.272 5.46999C368.375 2.35333 377.414 0.794996 387.387 0.794996C392.544 0.794996 397.389 1.22 401.922 2.06999C406.455 2.91999 410.62 4.08166 414.417 5.555C418.27 7.02833 421.784 8.785 424.957 10.825C428.13 12.865 430.964 15.075 433.457 17.455L425.127 30.12C424.334 31.31 423.37 32.245 422.237 32.925C421.16 33.605 419.97 33.945 418.667 33.945C416.967 33.945 415.21 33.3783 413.397 32.245C411.13 30.885 408.977 29.7233 406.937 28.76C404.954 27.74 402.914 26.9183 400.817 26.295C398.72 25.6717 396.51 25.2183 394.187 24.935C391.864 24.6517 389.257 24.51 386.367 24.51C380.984 24.51 376.139 25.4733 371.832 27.4C367.525 29.27 363.842 31.9333 360.782 35.39C357.779 38.8467 355.455 43.0117 353.812 47.885C352.169 52.7017 351.347 58.085 351.347 64.035C351.347 70.6083 352.254 76.445 354.067 81.545C355.88 86.645 358.374 90.9517 361.547 94.465C364.777 97.9783 368.574 100.67 372.937 102.54C377.357 104.353 382.174 105.26 387.387 105.26ZM598.233 126H575.963C573.47 126 571.402 125.433 569.758 124.3C568.172 123.11 567.067 121.608 566.443 119.795L559.133 98.205H512.043L504.733 119.795C504.167 121.382 503.062 122.827 501.418 124.13C499.775 125.377 497.763 126 495.383 126H472.943L520.883 2.155H550.293L598.233 126ZM518.673 78.655H552.503L541.113 44.74C540.377 42.5867 539.498 40.065 538.478 37.175C537.515 34.2283 536.552 31.055 535.588 27.655C534.682 31.1117 533.747 34.3133 532.783 37.26C531.82 40.2067 530.913 42.7567 530.063 44.91L518.673 78.655ZM623.445 2.155C624.692 2.155 625.74 2.21166 626.59 2.325C627.44 2.43833 628.205 2.665 628.885 3.005C629.565 3.28833 630.217 3.71333 630.84 4.28C631.464 4.84666 632.172 5.61166 632.965 6.57499L691.785 80.95C691.559 78.57 691.389 76.275 691.275 74.065C691.162 71.7983 691.105 69.6733 691.105 67.69V2.155H716.435V126H701.475C699.265 126 697.395 125.66 695.865 124.98C694.335 124.3 692.862 123.053 691.445 121.24L633.05 47.46C633.22 49.6133 633.362 51.7383 633.475 53.835C633.589 55.875 633.645 57.8017 633.645 59.615V126H608.315V2.155H623.445ZM849.181 64.035C849.181 72.9883 847.623 81.2617 844.506 88.855C841.446 96.3917 837.111 102.937 831.501 108.49C825.891 113.987 819.12 118.293 811.186 121.41C803.31 124.47 794.555 126 784.921 126H736.811V2.155H784.921C794.555 2.155 803.31 3.71333 811.186 6.82999C819.12 9.94666 825.891 14.2533 831.501 19.75C837.111 25.2467 841.446 31.7917 844.506 39.385C847.623 46.9217 849.181 55.1383 849.181 64.035ZM819.771 64.035C819.771 57.915 818.978 52.39 817.391 47.46C815.805 42.53 813.51 38.365 810.506 34.965C807.56 31.5083 803.933 28.8733 799.626 27.06C795.32 25.19 790.418 24.255 784.921 24.255H765.711V103.9H784.921C790.418 103.9 795.32 102.993 799.626 101.18C803.933 99.31 807.56 96.675 810.506 93.275C813.51 89.8183 815.805 85.625 817.391 80.695C818.978 75.765 819.771 70.2117 819.771 64.035ZM975.584 2.155V24.255H924.754V53.155H963.684V74.405H924.754V103.9H975.584V126H895.854V2.155H975.584ZM981.777 2.155H1004.9C1007.39 2.155 1009.43 2.72166 1011.02 3.855C1012.6 4.98833 1013.74 6.49 1014.42 8.35999L1038.39 74.66C1039.46 77.55 1040.54 80.695 1041.62 84.095C1042.75 87.495 1043.8 91.065 1044.76 94.805C1045.56 91.065 1046.46 87.495 1047.48 84.095C1048.56 80.695 1049.61 77.55 1050.63 74.66L1074.43 8.35999C1074.99 6.77333 1076.1 5.35666 1077.74 4.11C1079.39 2.80667 1081.4 2.155 1083.78 2.155H1107.07L1057.43 126H1031.42L981.777 2.155ZM1197.05 2.155V24.255H1146.22V53.155H1185.15V74.405H1146.22V103.9H1197.05V126H1117.32V2.155H1197.05ZM1228.57 2.155C1229.82 2.155 1230.87 2.21166 1231.72 2.325C1232.57 2.43833 1233.33 2.665 1234.01 3.005C1234.69 3.28833 1235.34 3.71333 1235.97 4.28C1236.59 4.84666 1237.3 5.61166 1238.09 6.57499L1296.91 80.95C1296.69 78.57 1296.52 76.275 1296.4 74.065C1296.29 71.7983 1296.23 69.6733 1296.23 67.69V2.155H1321.56V126H1306.6C1304.39 126 1302.52 125.66 1300.99 124.98C1299.46 124.3 1297.99 123.053 1296.57 121.24L1238.18 47.46C1238.35 49.6133 1238.49 51.7383 1238.6 53.835C1238.72 55.875 1238.77 57.8017 1238.77 59.615V126H1213.44V2.155H1228.57ZM1431.87 2.155V24.935H1397.02V126H1368.29V24.935H1333.44V2.155H1431.87ZM1512.73 27.315C1511.88 28.675 1510.97 29.695 1510.01 30.375C1509.1 31.055 1507.91 31.395 1506.44 31.395C1505.13 31.395 1503.72 30.9983 1502.19 30.205C1500.71 29.355 1499.01 28.42 1497.09 27.4C1495.22 26.38 1493.06 25.4733 1490.63 24.68C1488.19 23.83 1485.41 23.405 1482.3 23.405C1476.91 23.405 1472.89 24.5667 1470.23 26.89C1467.62 29.1567 1466.32 32.245 1466.32 36.155C1466.32 38.6483 1467.11 40.7167 1468.7 42.36C1470.28 44.0033 1472.35 45.42 1474.9 46.61C1477.51 47.8 1480.45 48.905 1483.74 49.925C1487.08 50.8883 1490.48 51.9933 1493.94 53.24C1497.4 54.43 1500.77 55.8467 1504.06 57.49C1507.4 59.1333 1510.35 61.23 1512.9 63.78C1515.5 66.33 1517.6 69.4467 1519.19 73.13C1520.77 76.7567 1521.57 81.1483 1521.57 86.305C1521.57 92.0283 1520.57 97.3833 1518.59 102.37C1516.61 107.357 1513.72 111.72 1509.92 115.46C1506.18 119.143 1501.53 122.062 1495.98 124.215C1490.48 126.312 1484.22 127.36 1477.2 127.36C1473.34 127.36 1469.4 126.963 1465.38 126.17C1461.41 125.377 1457.56 124.272 1453.82 122.855C1450.08 121.382 1446.57 119.653 1443.28 117.67C1439.99 115.687 1437.13 113.477 1434.7 111.04L1443.2 97.61C1443.82 96.59 1444.7 95.7683 1445.83 95.145C1446.96 94.5217 1448.18 94.21 1449.49 94.21C1451.19 94.21 1452.89 94.7483 1454.59 95.825C1456.34 96.9017 1458.3 98.0917 1460.45 99.395C1462.66 100.698 1465.18 101.888 1468.02 102.965C1470.85 104.042 1474.19 104.58 1478.05 104.58C1483.26 104.58 1487.31 103.447 1490.2 101.18C1493.09 98.8567 1494.54 95.2017 1494.54 90.215C1494.54 87.325 1493.74 84.9733 1492.16 83.16C1490.57 81.3467 1488.47 79.845 1485.87 78.655C1483.32 77.465 1480.4 76.4167 1477.11 75.51C1473.82 74.6033 1470.45 73.6117 1467 72.535C1463.54 71.4017 1460.17 70.0417 1456.88 68.455C1453.59 66.8117 1450.65 64.6867 1448.04 62.08C1445.49 59.4167 1443.42 56.13 1441.84 52.22C1440.25 48.2533 1439.46 43.38 1439.46 37.6C1439.46 32.9533 1440.39 28.42 1442.26 24C1444.13 19.58 1446.88 15.6417 1450.51 12.185C1454.13 8.72832 1458.58 5.97999 1463.85 3.93999C1469.12 1.84333 1475.16 0.794996 1481.96 0.794996C1485.75 0.794996 1489.44 1.10666 1493.01 1.73C1496.63 2.29667 1500.06 3.175 1503.29 4.36499C1506.52 5.49833 1509.52 6.88666 1512.3 8.52999C1515.13 10.1167 1517.66 11.93 1519.87 13.97L1512.73 27.315Z" fill="#E1E0E0"/>
</svg>
