<?xml version="1.0" encoding="UTF-8" standalone="no"?>
<svg
   xmlns:dc="http://purl.org/dc/elements/1.1/"
   xmlns:cc="http://creativecommons.org/ns#"
   xmlns:rdf="http://www.w3.org/1999/02/22-rdf-syntax-ns#"
   xmlns:svg="http://www.w3.org/2000/svg"
   xmlns="http://www.w3.org/2000/svg"
   xmlns:sodipodi="http://sodipodi.sourceforge.net/DTD/sodipodi-0.dtd"
   xmlns:inkscape="http://www.inkscape.org/namespaces/inkscape"
   width="1507"
   height="132"
   viewBox="0 0 1507 132"
   fill="none"
   version="1.1"
   id="svg12"
   sodipodi:docname="line-dark.svg"
   inkscape:version="1.0.1 (c497b03c, 2020-09-10)">
  <metadata
     id="metadata18">
    <rdf:RDF>
      <cc:Work
         rdf:about="">
        <dc:format>image/svg+xml</dc:format>
        <dc:type
           rdf:resource="http://purl.org/dc/dcmitype/StillImage" />
        <dc:title></dc:title>
      </cc:Work>
    </rdf:RDF>
  </metadata>
  <defs
     id="defs16" />
  <sodipodi:namedview
     pagecolor="#ffffff"
     bordercolor="#666666"
     borderopacity="1"
     objecttolerance="10"
     gridtolerance="10"
     guidetolerance="10"
     inkscape:pageopacity="0"
     inkscape:pageshadow="2"
     inkscape:window-width="705"
     inkscape:window-height="480"
     id="namedview14"
     showgrid="false"
     inkscape:zoom="0.69873922"
     inkscape:cx="753.5"
     inkscape:cy="66"
     inkscape:window-x="3359"
     inkscape:window-y="23"
     inkscape:window-maximized="0"
     inkscape:current-layer="svg12"
     inkscape:document-rotation="0" />
  <path
     d="M 3.79,127 H 0.790001 v 3 H 3.79 Z m 0,-121.80501 v -3 H 0.790001 v 3 z m 58.139999,2.21 -0.791899,2.89361 0.0077,0.0021 z m 13.345,6.29001 -1.855199,2.3576 0.0093,0.0073 0.0094,0.0073 z m 7.735,10.03 -2.771599,1.1482 0.01,0.0241 0.0104,0.0239 z m 1.105,21.93 -2.8343,-0.9833 -0.009,0.026 -0.0085,0.0261 z m -4.25,7.735 -2.3317,-1.8876 -0.0138,0.017 -0.0135,0.0171 z m -7.14,6.375 -1.629699,-2.5187 -0.0115,0.0074 -0.0113,0.0075 z M 62.695,64.355 61.809799,61.4886 62.1139,67.2982 Z m 20.144999,9.605 2.1474,-2.095 z m 3.909999,32.47 -2.732299,-1.239 -0.0069,0.016 -0.0067,0.015 z M 78.42,117.395 l -1.917101,-2.308 -0.0088,0.008 -0.0087,0.007 z m -13.430001,7.14 0.8931,2.864 0.0095,-0.003 0.0095,-0.003 z m -44.71,-53.04 v -3 H 17.28 v 3 z m 0,42.415 H 17.28 v 3 h 2.999999 z M 58.7,112.295 l -0.905701,-2.86 -0.0069,0.002 -0.007,0.002 z m 8.33,-4.505 2.000399,2.236 0.0033,-0.003 z m 4.844999,-6.97 2.801601,1.073 0.0037,-0.01 0.0037,-0.01 z M 66.69,77.02 l -1.9206,2.3047 0.016,0.0133 0.0162,0.0131 z M 20.279999,59.765 H 17.28 v 3 h 2.999999 z m 42.245,-5.78 -1.8741,-2.3426 -0.0145,0.0116 -0.0143,0.0118 z m 5.015,-6.545 2.763701,1.1669 0.0046,-0.0108 0.0045,-0.0108 z M 62.695,23.215 64.5347,20.8453 Z M 20.279999,18.2 v -3 H 17.28 v 3 z M 6.79,127 V 5.19499 H 0.790001 V 127 Z M 3.79,8.19499 h 38.845 v -6 H 3.79 Z m 38.845,0 c 7.296999,0 13.448299,0.72017 18.5031,2.10361 L 62.7219,4.51141 C 57.009999,2.94815 50.298,2.19499 42.635,2.19499 Z m 18.510799,2.10571 c 5.1556,1.3963 9.2102,3.341 12.274001,5.7519 l 3.710399,-4.7152 c -3.8495,-3.02911 -8.6915,-5.27773 -14.416,-6.82808 z m 12.2927,5.7665 c 3.1154,2.4119 5.363601,5.339 6.799901,8.806 l 5.543199,-2.2964 c -1.8504,-4.4663 -4.7589,-8.2259 -8.670099,-11.254 z m 6.8203,8.854 c 1.5122,3.4781 2.3012,7.4815 2.3012,12.0638 h 6 c 0,-5.2777 -0.911,-10.1143 -2.798799,-14.4562 z m 2.3012,12.0638 c 0,2.676 -0.4281,5.2332 -1.2793,7.6867 l 5.668601,1.9666 c 1.075399,-3.0998 1.610699,-6.3227 1.610699,-9.6533 z M 81.2632,44.7238 c -0.787701,2.4122 -2.0222,4.6691 -3.729901,6.7786 l 4.663401,3.7752 c 2.145699,-2.6505 3.7444,-5.5503 4.770099,-8.6914 z m -3.757201,6.8127 C 75.8667,53.623 73.7448,55.5319 71.0953,57.2463 l 3.2595,5.0374 c 3.1305,-2.0256 5.768498,-4.3667 7.869199,-7.0402 z M 71.0725,57.2612 c -2.556401,1.6872 -5.631601,3.106 -9.262701,4.2274 l 1.7704,5.7328 c 4.0756,-1.2586 7.687101,-2.8998 10.797301,-4.9526 z m -8.9586,10.037 c 8.5295,1.6841 14.6075,4.6863 18.578799,8.7568 l 4.2947,-4.19 C 79.891899,66.6422 72.539999,63.241 63.2761,61.4118 Z m 18.578799,8.7568 c 3.894401,3.9918 5.9473,9.3117 5.9473,16.265 H 92.64 c 0,-8.2334 -2.480501,-15.1535 -7.652601,-20.455 z m 5.9473,16.265 c 0,4.7747 -0.889799,9.05 -2.6223,12.871 l 5.4647,2.478 C 91.6032,102.99 92.64,97.8587 92.64,92.32 Z m -2.6359,12.902 c -1.676699,3.81 -4.164,7.093 -7.5012,9.865 l 3.8342,4.616 c 4.0295,-3.348 7.095601,-7.375 9.158899,-12.065 z m -7.518699,9.88 c -3.2776,2.766 -7.389701,4.974 -12.4075,6.575 l 1.8242,5.716 c 5.635499,-1.799 10.476799,-4.351 14.452498,-7.705 z m -12.388501,6.569 C 59.173999,123.206 53.449499,124 46.885,124 v 6 c 7.0355,0 13.381,-0.849 18.998099,-2.601 z M 46.885,124 H 3.79 v 6 H 46.885 Z M 17.28,71.495 v 42.415 h 5.999999 V 71.495 Z m 2.999999,45.415 H 46.63 v -6 H 20.279999 Z m 26.350001,0 c 4.916699,0 9.267799,-0.561 12.9896,-1.759 l -1.8392,-5.712 C 54.8156,110.394 51.12,110.91 46.63,110.91 Z m 12.975699,-1.755 c 3.712501,-1.176 6.889701,-2.861 9.4247,-5.129 L 65.0296,105.554 c -1.771701,1.585 -4.1478,2.903 -7.235301,3.881 z m 9.428,-5.132 c 2.549101,-2.288 4.4456,-5.004 5.642901,-8.13 l -5.603201,-2.1459 c -0.8427,2.1999 -2.1762,4.1309 -4.0471,5.8099 z m 5.650301,-8.15 c 1.1597,-3.0921 1.720999,-6.4284 1.720999,-9.978 H 70.405 c 0,2.9104 -0.458601,5.5241 -1.339001,7.8716 z m 1.720999,-9.978 c 0,-7.1002 -2.5763,-12.9527 -7.826599,-17.2061 l -3.776801,4.6622 C 68.5047,82.351 70.405,86.4152 70.405,91.895 Z m -7.7944,-17.1797 c -5.1907,-4.3255 -12.7297,-6.2203 -22.0656,-6.2203 v 6 c 8.6841,0 14.5751,1.7885 18.224401,4.8297 z m -22.0656,-6.2203 h -26.265 v 6 h 26.265 z m -26.265,-5.73 H 42.04 v -6 H 20.279999 Z m 21.760001,0 c 4.8539,0 9.181399,-0.5313 12.932,-1.6565 l -1.724001,-5.747 C 50.1986,56.2763 46.479399,56.765 42.04,56.765 Z m 12.932,-1.6565 c 3.6913,-1.1074 6.874599,-2.6862 9.455999,-4.8043 L 60.6221,51.6658 c -1.838701,1.5086 -4.265401,2.7631 -7.374101,3.6957 z m 9.4271,-4.7809 c 2.6368,-2.1094 4.624299,-4.6883 5.9046,-7.7207 l -5.527401,-2.3338 c -0.873,2.0676 -2.2288,3.852 -4.1254,5.3693 z m 5.9137,-7.7423 c 1.238999,-2.9998 1.842199,-6.226 1.842199,-9.6453 H 66.155 c 0,2.7007 -0.473501,5.1411 -1.3878,7.3547 z M 72.154999,38.94 c 0,-7.7555 -2.3666,-14.0162 -7.620299,-18.0947 l -3.679401,4.7394 C 64.215,28.1929 66.155,32.4155 66.155,38.94 Z M 64.5347,20.8453 C 59.453199,16.9004 51.9639,15.2 42.635,15.2 v 6 c 8.804499,0 14.6885,1.6429 18.220299,4.3847 z M 42.635,15.2 H 20.279999 v 6 H 42.635 Z m -25.355,3 v 41.565 h 5.999999 V 18.2 Z m 113.068,94.945 h -3 v 3 h 3 z m 52.7,0 h 3 v -3 h -3 z m 0,13.855 v 3 h 3 v -3 z m -69.19,0 h -3 v 3 h 3 z m 0,-121.80501 v -3 h -3 v 3 z m 16.49,0 h 3 v -3 h -3 z m 0,110.95001 h 52.7 v -6 h -52.7 z m 49.69999,-3 V 127 H 186.048 V 113.145 Z M 183.048,124 h -69.19 v 6 h 69.19 z m -66.19,3 V 5.19499 h -6 V 127 Z m -3,-118.80501 h 16.49 v -6 h -16.49 z m 13.49,-3 V 113.145 h 6 V 5.19499 Z M 303.17599,91.3 l 2.80401,1.0671 0.002,-0.0069 z m -31.27999,32.47 1.133,2.778 0.01,-0.004 z m -48.96,0 -1.15101,2.77 0.009,0.004 0.009,0.004 z m -18.95501,-12.835 -2.166,2.076 z M 191.741,91.3 l -2.80601,1.0602 0.002,0.0069 z m 0,-50.235 2.80399,1.0671 0.002,-0.0069 z m 12.23999,-19.72 2.16501,2.0762 0.006,-0.0056 0.005,-0.0055 z M 222.936,8.42499 l 1.151,2.77051 z m 48.96,0 -1.15101,2.77051 0.008,0.0031 z m 19.04,12.92001 -2.176,2.0651 0.005,0.0055 0.005,0.0056 z m 12.23999,19.72 -2.80599,1.0602 0.002,0.0069 z m -24.31,-10.115 -2.225,2.0119 0.007,0.0077 0.006,0.0076 z m -13.59999,-9.52 1.15,-2.771 z m -35.615,0 -1.15001,-2.771 z m -13.685,9.52 -2.21,-2.0285 -0.002,0.0013 z m -8.67,15.045 -2.83801,-0.973 z m 0,40.29 -2.83801,0.973 0.003,0.0083 z m 8.67,15.045 -2.225,2.012 0.014,0.016 0.015,0.016 z m 13.685,9.435 -1.15001,2.771 0.013,0.005 0.013,0.005 z m 35.615,0 1.124,2.781 0.013,-0.005 0.013,-0.005 z m 13.59999,-9.435 2.21101,2.027 0.007,-0.007 0.007,-0.008 z m 8.67001,-15.045 2.835,0.9813 0.003,-0.0083 z M 304.511,66.14 c 0,8.8028 -1.393,16.8255 -4.141,24.0998 l 5.612,2.1204 c 3.032,-8.0257 4.52899,-16.7764 4.52899,-26.2202 z m -4.139,24.0929 c -2.75701,7.2431 -6.628,13.4381 -11.602,18.6261 l 4.33099,4.152 C 298.668,107.205 302.956,100.311 305.98,92.3671 Z M 288.77,108.859 c -4.96501,5.179 -10.958,9.228 -18.017,12.137 l 2.286,5.548 c 7.788,-3.21 14.488,-7.719 20.06199,-13.533 z m -18.007,12.133 c -6.964,2.839 -14.734,4.283 -23.347,4.283 v 6 c 9.293,0 17.84399,-1.56 25.613,-4.727 z m -23.347,4.283 c -8.614,0 -16.383,-1.444 -23.347,-4.283 l -2.266,5.556 c 7.769,3.167 16.31999,4.727 25.613,4.727 z M 224.087,121 c -7.003,-2.909 -12.97101,-6.958 -17.941,-12.141 l -4.33101,4.152 c 5.57101,5.81 12.23901,10.318 19.97,13.529 z m -17.941,-12.141 c -4.973,-5.188 -8.84501,-11.383 -11.60101,-18.6261 l -5.60799,2.1342 c 3.023,7.9439 7.31199,14.8379 12.87799,20.6439 z M 194.547,90.2398 C 191.79899,82.9655 190.40599,74.9428 190.40599,66.14 H 184.406 c 0,9.4438 1.49699,18.1945 4.52899,26.2202 z M 190.40599,66.14 c 0,-8.8032 1.393,-16.7947 4.139,-24.0079 L 188.937,39.9979 c -3.035,7.9734 -4.531,16.6986 -4.531,26.1421 z M 194.547,42.1252 c 2.758,-7.2999 6.63,-13.5204 11.599,-18.704 l -4.33101,-4.1524 c -5.56999,5.8097 -9.85799,12.7359 -12.88,20.736 z M 206.15699,23.4101 C 211.126,18.1737 217.091,14.1015 224.087,11.1955 l -2.30201,-5.541 c -7.737,3.21398 -14.409,7.7551 -19.98,13.6254 z M 224.087,11.1955 c 6.95999,-2.89103 14.722,-4.36051 23.329,-4.36051 V 0.834991 c -9.3,0 -17.857,1.590519 -25.63101,4.819509 z m 23.329,-4.36051 c 8.607,0 16.369,1.46948 23.32899,4.36051 L 273.047,5.6545 C 265.273,2.42551 256.716,0.834991 247.416,0.834991 Z m 23.337,4.36361 c 7.052,2.9071 13.042,6.9792 18.007,12.2115 l 4.352,-4.1302 C 287.537,13.4055 280.833,8.86426 273.039,5.6514 Z m 18.017,12.2226 c 4.96999,5.1836 8.84199,11.4041 11.6,18.704 l 5.612,-2.1204 c -3.02201,-8.0001 -7.31001,-14.9263 -12.88101,-20.736 z m 11.602,18.7109 c 2.74499,7.2132 4.139,15.2047 4.139,24.0079 h 5.99999 c 0,-9.4435 -1.49699,-18.1687 -4.53099,-26.1421 z M 293.59599,66.14 c 0,-7.7501 -1.05699,-14.802 -3.22199,-21.118 l -5.676,1.946 c 1.91499,5.584 2.898,11.9621 2.898,19.172 z M 290.374,45.022 c -2.15601,-6.2876 -5.24201,-11.6758 -9.297,-16.0992 l -4.423,4.0544 c 3.42599,3.7366 6.12,8.3784 8.044,13.9908 z M 281.09099,28.9381 C 277.043,24.4605 272.138,21.0333 266.416,18.659 l -2.3,5.542 c 4.931,2.0457 9.093,4.9652 12.52499,8.7609 z M 266.416,18.659 c -5.739,-2.3809 -12.087,-3.544 -19,-3.544 v 6 c 6.234,0 11.785,1.0468 16.7,3.086 z m -19,-3.544 c -6.86001,0 -13.179,1.1644 -18.91501,3.544 l 2.30001,5.542 c 4.917,-2.0404 10.442,-3.086 16.615,-3.086 z m -18.91501,3.544 C 222.783,21.0317 217.856,24.4542 213.756,28.9215 l 4.42,4.057 c 3.493,-3.8061 7.69,-6.7302 12.625,-8.7775 z m -14.747,10.2638 c -4.05399,4.4234 -7.13999,9.8116 -9.296,16.0992 l 5.676,1.946 c 1.924,-5.6124 4.61801,-10.2542 8.043,-13.9908 z m -9.296,16.0992 C 202.293,51.338 201.236,58.3899 201.236,66.14 h 5.99999 c 0,-7.2099 0.98301,-13.588 2.898,-19.172 z M 201.236,66.14 c 0,7.7501 1.057,14.802 3.22199,21.118 l 5.676,-1.946 c -1.91499,-5.584 -2.898,-11.9621 -2.898,-19.172 z m 3.22501,21.1263 c 2.15598,6.2293 5.23899,11.6064 9.27999,16.0757 l 4.45,-4.0239 c -3.439,-3.8042 -6.136,-8.457 -8.06,-14.0144 z M 213.77,103.374 c 4.09899,4.405 9.022,7.793 14.73099,10.162 l 2.30001,-5.542 c -4.944,-2.051 -9.145,-4.953 -12.639,-8.7077 z m 14.757,10.172 c 5.728,2.316 12.038,3.449 18.889,3.449 v -6 c -6.183,0 -11.71601,-1.021 -16.64101,-3.011 z m 18.889,3.449 c 6.904,0 13.243,-1.132 18.974,-3.449 l -2.248,-5.562 c -4.922,1.989 -10.483,3.011 -16.726,3.011 z m 19,-3.459 c 5.713,-2.37 10.613,-5.763 14.661,-10.179 l -4.423,-4.0542 c -3.43201,3.7442 -7.59801,6.6412 -12.538,8.6912 z m 14.67499,-10.194 c 4.041,-4.4693 7.12401,-9.8464 9.28001,-16.0757 l -5.67001,-1.9626 c -1.924,5.5574 -4.621,10.2102 -8.06,14.0144 z M 290.374,87.258 c 2.165,-6.316 3.22199,-13.3679 3.22199,-21.118 H 287.596 c 0,7.2099 -0.98301,13.588 -2.898,19.172 z m 102.962,27.332 0.31099,2.984 0.026,-0.003 0.027,-0.003 z m 7.82,-1.445 0.743,2.906 z m 6.885,-2.21 1.101,2.79 0.032,-0.012 0.031,-0.013 z m 6.45999,-3.06 1.39701,2.655 1.603,-0.844 v -1.811 z m 0,-26.86 h 3.00001 v -3 h -3.00001 z m -21.505,-0.935 -2.122,2.1213 0.046,0.0461 0.049,0.0441 z m -0.935,-11.645 v -3 h -3 v 3 z m 37.4,0 h 3.00001 v -3 h -3.00001 z m 0,46.75 1.75601,2.432 1.244,-0.898 v -1.534 z m -9.60499,5.78 -1.32401,-2.692 -0.009,0.004 -0.009,0.005 z m -10.62501,4.165 0.83,2.883 0.014,-0.004 0.014,-0.004 z m -12.06999,2.38 -0.353,-2.979 -0.019,0.002 -0.02,0.003 z m -38.335,-3.655 -1.15101,2.77 0.009,0.004 0.009,0.004 z m -19.04,-12.75 -2.15501,2.088 0.006,0.005 0.005,0.006 z m -12.495,-19.72 -2.8,1.0783 0.004,0.009 0.003,0.009 z m -0.085,-50.66 -2.8,-1.0783 -0.003,0.009 -0.004,0.0091 z m 12.495,-19.635 -2.133,-2.1103 v 10e-5 z m 19.635,-12.75 -1.09,-2.79525 -0.007,0.00274 z m 39.26999,-3.40001 -0.526,2.95353 0.019,0.0035 0.02,0.00324 z m 11.475,3.06 -1.08299,2.79771 0.027,0.0104 0.027,0.01 z m 9.86001,4.84501 -1.62,2.5251 0.017,0.0109 0.017,0.0107 z m 8.415,6.375 2.54399,1.59 1.325,-2.1199 -1.846,-1.6856 z m -4.675,7.48 2.538,1.5984 0.006,-0.0084 z m -6.71501,1.36 1.503,-2.5963 -0.019,-0.0107 -0.018,-0.0105 z m -11.22,-6.12 -1.19,2.7542 0.038,0.0161 0.038,0.0151 z m -8.92499,-2.72 -0.636,2.932 0.01,0.0021 z m -30.77,2.295 1.109,2.7874 0.012,-0.0049 0.012,-0.005 z m -14.195,9.605 2.18,2.0607 0.007,-0.0074 0.007,-0.0074 z m -9.01,15.13 2.826,1.0056 0.003,-0.0086 z m 0.085,40.545 -2.827,1.004 0.005,0.016 0.006,0.0159 z m 9.265,15.3 2.17899,-2.062 z m 32.13,15.92 c 3.37,0 6.479,-0.145 9.32099,-0.441 l -0.62199,-5.968 c -2.59901,0.271 -5.496,0.409 -8.699,0.409 z m 9.374,-0.447 c 2.891,-0.354 5.625,-0.858 8.199,-1.517 l -1.487,-5.812 c -2.299,0.588 -4.778,1.047 -7.441,1.373 z m 8.199,-1.517 c 2.548,-0.651 4.964,-1.426 7.243,-2.326 l -2.203,-5.58 c -2.027,0.8 -4.20101,1.499 -6.527,2.094 z m 7.30599,-2.351 c 2.23601,-0.941 4.467,-1.999 6.69301,-3.17 l -2.795,-5.31 c -2.08001,1.095 -4.156,2.078 -6.22601,2.95 z m 8.29601,-5.825 v -26.86 h -6 v 26.86 z m -3.00001,-29.86 H 395.631 v 6 h 18.86999 z m -18.86999,0 c -0.46,0 -0.573,-0.1139 -0.60801,-0.1465 l -4.05399,4.423 c 1.324,1.2141 2.968,1.7235 4.662,1.7235 z m -0.514,-0.0563 c -0.027,-0.0267 -0.038,-0.0432 -0.042,-0.0486 -0.003,-0.0049 -0.003,-0.0053 -0.002,-0.0032 9.9e-4,0.0019 -0.002,-0.0028 -0.005,-0.0183 -0.003,-0.0161 -0.007,-0.0493 -0.007,-0.1036 h -6.00001 c 0,1.6769 0.61001,3.2127 1.813,4.4163 z m -0.056,-0.1737 v -9.35 h -6.00001 v 9.35 z m -3.00001,-6.35 h 37.4 v -6 h -37.4 z m 34.40001,-3 v 46.75 h 6 v -46.75 z m 1.24299,44.318 c -2.925,2.112 -5.982,3.952 -9.172,5.52 l 2.64701,5.384 c 3.49699,-1.718 6.84299,-3.732 10.038,-6.04 z m -9.18999,5.529 c -3.12,1.56 -6.498,2.886 -10.141,3.973 l 1.716,5.75 c 3.94999,-1.18 7.65499,-2.63 11.108,-4.357 z m -10.113,3.965 c -3.56801,1.027 -7.43001,1.791 -11.593,2.284 l 0.706,5.958 c 4.44999,-0.527 8.634,-1.35 12.54699,-2.476 z m -11.632,2.289 c -4.158,0.547 -8.701,0.824 -13.633,0.824 v 6 c 5.15399,0 9.96099,-0.289 14.416,-0.876 z m -13.633,0.824 c -8.495,0 -16.20901,-1.442 -23.17801,-4.283 l -2.26499,5.556 c 7.764,3.165 16.25799,4.727 25.443,4.727 z m -23.159,-4.275 c -7.013,-2.913 -13.017,-6.941 -18.04801,-12.079 l -4.28699,4.198 c 5.623,5.742 12.312,10.214 20.03299,13.421 z M 341.94,109.017 c -5.03101,-5.191 -8.988,-11.4202 -11.85701,-18.7283 l -5.58499,2.1926 c 3.138,7.9917 7.51099,14.9097 13.13299,20.7117 z M 330.08999,90.3067 C 327.291,83.0395 325.871,74.9952 325.871,66.14 h -6.00001 c 0,9.5048 1.52601,18.2905 4.62001,26.3233 z M 325.871,66.14 c 0,-8.9801 1.395,-17.0866 4.14099,-24.3548 l -5.613,-2.1204 c -3.03399,8.0317 -4.528,16.8686 -4.528,26.4752 z m 4.134,-24.3367 c 2.80899,-7.2916 6.756,-13.4779 11.828,-18.6031 l -4.265,-4.2204 c -5.69401,5.7548 -10.07701,12.6584 -13.162,20.6669 z m 11.828,-18.603 c 5.12799,-5.1812 11.313,-9.2075 18.599,-12.0678 l -2.193,-5.58501 c -8.014,3.14634 -14.918,7.62011 -20.671,13.43221 z m 18.592,-12.0651 c 7.311,-2.84917 15.54799,-4.30021 24.75099,-4.30021 V 0.834991 c -9.837,0 -18.827,1.552289 -26.92999,4.709769 z m 24.75099,-4.30021 c 4.665,0 8.96401,0.35688 12.904,1.05853 L 399.132,1.98646 C 394.79799,1.21478 390.144,0.834991 385.17599,0.834991 Z m 12.943,1.06527 c 3.95501,0.6502 7.578,1.61983 10.87901,2.89744 l 2.166,-5.59541 C 407.438,3.7599 403.41,2.68953 399.092,1.97972 Z M 409.052,10.8181 c 3.37599,1.2325 6.46299,2.7519 9.269,4.552 l 3.24,-5.0502 C 418.36,8.26669 414.87299,6.556 411.11,5.18192 Z m 9.303,4.5736 c 2.84799,1.7734 5.507,3.7876 7.97799,6.0438 l 4.046,-4.431 c -2.74299,-2.5038 -5.69399,-4.7396 -8.853,-6.7062 z m 7.45699,2.2383 -4.675,7.48 5.088,3.18 4.675,-7.48 z m -4.67,7.4716 c -0.531,0.8426 -0.90299,0.8934 -1.20099,0.8934 v 6 c 2.76199,0 4.88199,-1.4792 6.278,-3.6966 z M 419.941,25.995 c -0.218,0 -0.69,-0.0782 -1.47201,-0.5313 l -3.006,5.1926 c 1.37001,0.7936 2.883,1.3387 4.47801,1.3387 z m -1.50901,-0.5525 C 417.082,24.6869 415.55,23.7576 413.832,22.6491 l -3.253,5.0418 c 1.79499,1.1581 3.437,2.1556 4.92099,2.9866 z M 413.832,22.6491 c -1.96001,-1.2643 -4.29501,-2.4239 -6.97201,-3.4945 l -2.228,5.5708 c 2.423,0.9693 4.394,1.9632 5.94701,2.9655 z m -6.897,-3.4633 c -2.72,-1.1744 -5.89301,-2.1336 -9.48901,-2.8999 l -1.251,5.8682 c 3.31801,0.707 6.09401,1.5612 8.361,2.5401 z m -9.47901,-2.8978 c -3.667,-0.7945 -7.943,-1.173 -12.78999,-1.173 v 6 c 4.55899,0 8.386,0.3582 11.519,1.037 z M 384.666,15.115 c -7.191,0 -13.788,1.1894 -19.74901,3.6225 l 2.267,5.555 C 372.33,22.1923 378.143,21.115 384.666,21.115 Z m -19.725,3.6126 c -5.94701,2.3668 -11.054,5.815 -15.279,10.3465 l 4.38799,4.0918 c 3.595,-3.8552 7.95101,-6.8103 13.11001,-8.8635 z M 349.67599,29.0592 C 345.447,33.5327 342.237,38.95 340.016,45.2529 l 5.659,1.9941 c 1.97199,-5.597 4.76899,-10.2664 8.361,-14.0663 z M 340.019,45.2444 c -2.23,6.2678 -3.31801,13.2458 -3.31801,20.8956 h 6.00001 c 0,-7.0835 1.008,-13.3656 2.971,-18.8844 z M 336.70099,66.14 c 0,7.983 1.11501,15.2167 3.40301,21.659 l 5.654,-2.008 c -2.019,-5.6843 -3.057,-12.2207 -3.057,-19.651 z m 3.414,21.6909 c 2.335,6.3465 5.62601,11.8065 9.901,16.3261 l 4.359,-4.124 C 350.717,96.166 347.831,91.426 345.746,85.7591 Z m 9.901,16.3261 c 4.26701,4.51 9.33,7.954 15.161,10.322 l 2.25801,-5.558 c -5.05,-2.052 -9.39301,-5.011 -13.06001,-8.888 z m 15.161,10.322 c 5.83901,2.373 12.23401,3.536 19.14901,3.536 v -6 c -6.23301,0 -11.85,-1.047 -16.891,-3.094 z M 587.941,127 v 3 h 4.43 l -1.64501,-4.114 z m -16.32,-1.105 -1.89201,2.328 z m -2.04001,-2.805 -2.798,1.083 0.006,0.016 0.006,0.015 z m -11.39,-29.41 2.79701,-1.0834 -0.742,-1.9166 h -2.05501 z m -54.655,0 v -3 h -2.056 l -0.742,1.9166 z m -11.38999,29.41 2.79599,1.087 0.001,-0.004 z m -18.36,3.91 -2.78601,-1.114 -1.645,4.114 H 473.786 Z M 522.49099,5.19499 v -3 h -2.032 l -0.754,1.88616 z m 16.74501,0 2.785,-1.11384 -0.754,-1.88616 h -2.031 z M 508.126,81.78 505.327,80.6982 503.74899,84.78 h 4.37701 z m 45.475,0 v 3 h 4.37299 L 556.399,80.6998 Z m -19.12501,-49.555 2.798,-1.0802 -0.01,-0.0259 -0.01,-0.0258 z M 530.821,20.75 533.72499,19.9971 530.87,8.98763 527.923,19.9726 Z m -1.87,6.46 -2.86201,-0.8995 -0.009,0.0264 -0.008,0.0266 z m -1.70001,5.1 2.798,1.0818 0.002,-0.0049 z M 587.941,124 h -12.75 v 6 h 12.75 z m -12.75,0 c -0.969,0 -1.434,-0.235 -1.679,-0.433 l -3.78301,4.656 c 1.56801,1.275 3.483,1.777 5.46201,1.777 z m -1.679,-0.433 c -0.492,-0.4 -0.87401,-0.91 -1.14601,-1.591 l -5.571,2.228 c 0.634,1.586 1.613,2.946 2.934,4.019 z m -1.13401,-1.56 -11.38999,-29.4104 -5.595,2.1668 11.38999,29.4096 z m -14.187,-31.327 h -54.655 v 6 h 54.655 z m -57.453,1.9166 -11.38999,29.4104 5.59499,2.166 11.39001,-29.4096 z m -11.388,29.4064 c -0.186,0.477 -0.52799,0.978 -1.15199,1.491 l 3.81499,4.632 c 1.30301,-1.074 2.32101,-2.386 2.929,-3.949 z m -1.15199,1.491 c -0.35401,0.292 -0.842,0.506 -1.662,0.506 v 6 c 2.012,0 3.904,-0.579 5.47699,-1.874 z M 486.536,124 h -12.75 v 6 h 12.75 z m -9.96501,4.114 48.705,-121.80517 -5.571,-2.22768 -48.705,121.80485 z m 45.92,-119.91901 H 539.236 v -6 H 522.49099 Z M 536.45,6.30883 585.15499,128.114 l 5.571,-2.228 L 542.021,4.08115 Z M 508.126,84.78 h 45.475 v -6 h -45.475 z m 48.273,-4.0802 -19.12501,-49.555 -5.597,2.1604 19.125,49.555 z M 537.25399,31.0931 c -1.17999,-2.8963 -2.35999,-6.5846 -3.529,-11.096 l -5.808,1.5058 c 1.21001,4.6686 2.467,8.6303 3.78001,11.854 z M 527.923,19.9726 c -0.614,2.2886 -1.226,4.4007 -1.83401,6.3379 l 5.724,1.799 c 0.637,-2.0295 1.27201,-4.224 1.905,-6.5821 z m -1.851,6.3909 c -0.54901,1.8686 -1.09001,3.489 -1.62101,4.8696 l 5.6,2.1538 c 0.602,-1.5661 1.194,-3.3457 1.77801,-5.3304 z m -1.62,4.8647 -19.125,49.47 5.597,2.1636 19.12499,-49.47 z m 90.55,-25.43821 -1.51101,2.59134 0.124,0.07236 0.13,0.06018 z m 2.465,2.21 2.379,-1.82807 -0.018,-0.02318 -0.018,-0.02284 z m 70.55,91.80001 -2.37801,1.828 6.6,8.589 -1.241,-10.7609 z m -0.34,-4.25 -2.99701,0.1199 v 0.005 z M 687.592,5.19499 v -3 h -3 v 3 z m 14.45001,0 h 2.99999 v -3 h -3 z m 0,121.80501 v 3 h 2.99999 v -3 z m -11.64501,-0.68 -1.411,2.647 0.035,0.019 0.035,0.017 z m -2.55,-2.295 -2.37799,1.828 0.012,0.015 0.012,0.016 z m -70.465,-91.715 2.379,-1.8278 -6.17799,-8.0411 0.80899,10.1081 z m 0.255,4.165 2.998,-0.1249 z M 617.722,127 v 3 h 3 v -3 z m -14.45001,0 H 600.272 v 3 h 2.99999 z m 0,-121.80501 v -3 H 600.272 v 3 z m 8.5,3 c 0.613,0 1.06,0.04204 1.369,0.09911 0.321,0.05905 0.401,0.11724 0.35,0.08723 l 3.023,-5.18268 C 615.127,2.38948 613.387,2.19499 611.77199,2.19499 Z m 1.973,0.31888 c 0.101,0.04629 0.56901,0.34652 1.38001,1.36021 L 619.80999,6.1259 C 618.808,4.87292 617.633,3.69983 616.26,3.06612 Z m 1.344,1.31419 70.55,91.79994 4.75701,-3.6561 -70.55,-91.79998 z m 75.909,89.62804 c -0.163,-1.4069 -0.27,-2.7503 -0.32299,-4.031 l -5.99501,0.2498 c 0.06,1.4393 0.18001,2.9293 0.357,4.4691 z m -0.32299,-4.026 c -0.055,-1.3802 -0.083,-2.7 -0.083,-3.9601 h -6.00001 c 0,1.3466 0.03,2.7467 0.088,4.1999 z M 690.592,91.47 V 5.19499 h -6.00001 V 91.47 Z M 687.59199,8.19499 H 702.042 v -6 h -14.45001 z m 11.45,-3 V 127 h 6 V 5.19499 Z M 702.042,124 h -8.33001 v 6 h 8.33001 z m -8.33001,0 c -0.96599,0 -1.584,-0.169 -1.973,-0.363 l -2.683,5.366 c 1.425,0.713 3.016,0.997 4.656,0.997 z m -1.90299,-0.327 c -0.36401,-0.194 -0.913,-0.628 -1.60701,-1.507 l -4.709,3.718 c 1.006,1.274 2.15701,2.371 3.493,3.083 z m -1.58301,-1.476 -70.465,-91.7148 -4.758,3.6555 70.46601,91.7153 z m -75.834,-89.6478 c 0.11,1.3803 0.193,2.7305 0.24801,4.0507 l 5.99499,-0.2498 c -0.059,-1.3998 -0.146,-2.8263 -0.262,-4.2793 z m 0.24801,4.0507 c 0.055,1.3263 0.082,2.5307 0.082,3.6151 h 6.00001 c 0,-1.1822 -0.029,-2.4712 -0.087,-3.8649 z m 0.082,3.6151 V 127 h 6 V 40.215 Z m 3,83.785 h -14.45001 v 6 H 617.722 Z m -11.45,3 V 5.19499 h -6 V 127 Z M 603.27199,8.19499 h 8.5 v -6 h -8.5 z M 820.764,110.255 l 2.132,2.11 z m -18.95501,12.41 1.09501,2.793 0.009,-0.004 0.01,-0.004 z M 731.76799,127 H 728.768 v 3 h 2.99999 z m 0,-121.80501 v -3 H 728.768 v 3 z m 70.041,4.42001 -1.11499,2.7854 0.01,0.0037 0.009,0.0037 z m 18.95501,12.41 -2.144,2.0986 0.005,0.0057 0.006,0.0056 z m 12.23999,19.21 2.798,-1.0812 z m -15.64,4.845 2.834,-0.9813 v 0 z m -8.67,-14.96 -2.21201,2.0272 z M 748.344,18.54 v -3 h -3.00001 v 3 z m 0,95.115 h -3.00001 v 3 h 3.00001 z m 60.34999,-12.495 2.197,2.043 0.007,-0.008 0.007,-0.008 z m 8.67,-14.96 2.834,0.9813 v 0 z M 834.339,66.14 c 0,8.804 -1.39401,16.7328 -4.134,23.8238 l 5.59699,2.1624 c 3.04,-7.869 4.537,-16.5436 4.537,-25.9862 z m -4.134,23.8238 c -2.75201,7.1223 -6.614,13.1682 -11.57401,18.1812 l 4.26501,4.22 c 5.57999,-5.64 9.87799,-12.4011 12.90599,-20.2388 z m -11.57401,18.1812 c -4.964,5.017 -10.929,8.932 -17.93699,11.735 l 2.22899,5.57 c 7.726,-3.09 14.397,-7.449 19.97301,-13.085 z m -17.91801,11.727 C 793.738,122.608 785.95599,124 777.32799,124 v 6 c 9.28001,0 17.818,-1.498 25.57601,-4.542 z M 777.32799,124 h -45.56 v 6 h 45.56 z m -42.56,3 V 5.19499 H 728.768 V 127 Z m -3,-118.80501 h 45.56 v -6 h -45.56 z m 45.56,0 c 8.62101,0 16.39699,1.41756 23.36601,4.20541 l 2.22899,-5.57083 C 795.15899,3.7241 786.615,2.19499 777.32799,2.19499 Z m 23.38499,4.21281 c 6.99201,2.7432 12.94802,6.6505 17.90702,11.7158 l 4.28699,-4.1972 C 817.32599,14.225 810.64499,9.85901 802.904,6.82222 Z m 17.91801,11.7271 c 4.96001,5.0131 8.822,11.059 11.57401,18.1813 l 5.59699,-2.1624 c -3.028,-7.8377 -7.326,-14.5984 -12.90599,-20.2387 z M 830.205,42.3162 c 2.73999,7.091 4.134,15.0198 4.134,23.8238 h 5.99999 c 0,-9.4426 -1.497,-18.1172 -4.537,-25.9862 z M 823.42399,66.14 c 0,-7.7494 -1.057,-14.7766 -3.226,-21.0413 l -5.669,1.9626 c 1.911,5.5219 2.895,11.8681 2.895,19.0787 z m -3.226,-21.0413 c -2.157,-6.2318 -5.243,-11.5875 -9.29299,-16.0059 l -4.42302,4.0544 c 3.43001,3.7416 6.124,8.3593 8.04701,13.9141 z M 810.905,29.0928 c -4.053,-4.4218 -8.963,-7.79 -14.68701,-10.1041 l -2.249,5.5626 c 4.929,1.9926 9.086,4.8577 12.51299,8.5959 z M 796.21799,18.9887 c -5.729,-2.3159 -12.039,-3.4487 -18.89,-3.4487 v 6 c 6.183,0 11.716,1.0205 16.641,3.0113 z m -18.89,-3.4487 H 748.344 v 6 h 28.98399 z m -31.984,3 v 95.115 h 6 V 18.54 Z m 3.00001,98.115 h 28.98399 v -6 H 748.344 Z m 28.98399,0 c 6.851,0 13.161,-1.133 18.89,-3.449 l -2.249,-5.562 c -4.925,1.99 -10.458,3.011 -16.641,3.011 z m 18.89,-3.449 c 5.715,-2.31 10.62,-5.643 14.673,-10.003 l -4.395,-4.0855 c -3.427,3.6865 -7.588,6.5295 -12.527,8.5265 z M 810.905,103.187 c 4.04999,-4.4182 7.13599,-9.7739 9.29299,-16.0057 l -5.669,-1.9626 c -1.92301,5.5548 -4.617,10.1725 -8.04701,13.9141 z m 9.29299,-16.0057 c 2.169,-6.2647 3.226,-13.2919 3.226,-21.0413 h -6 c 0,7.2106 -0.984,13.5568 -2.895,19.0787 z M 967.693,5.19499 h 2.99999 v -3 H 967.693 Z m 0,13.43001 v 3 h 2.99999 v -3 z m -58.48001,0 v -3 h -3.00001 v 3 z m 0,40.46 h -3.00001 v 3 h 3.00001 z m 47.345,0 h 3 v -3 h -3 z m 0,12.92 v 3 h 3 v -3 z m -47.345,0 v -3 h -3.00001 v 3 z m 0,41.565 h -3.00001 v 3 h 3.00001 z m 58.48001,0 h 2.99999 v -3 H 967.693 Z m 0,13.43 v 3 h 2.99999 v -3 z m -75.05501,0 H 889.638 v 3 h 2.99999 z m 0,-121.80501 v -3 H 889.638 v 3 z m 72.055,0 V 18.625 h 6 V 5.19499 Z M 967.693,15.625 h -58.48001 v 6 H 967.693 Z m -61.48002,3 v 40.46 h 6.00001 v -40.46 z m 3.00001,43.46 h 47.345 v -6 h -47.345 z m 44.34501,-3 v 12.92 h 5.99999 v -12.92 z m 2.99999,9.92 h -47.345 v 6 h 47.345 z m -50.34501,3 v 41.565 h 6.00001 V 72.005 Z m 3.00001,44.565 H 967.693 v -6 h -58.48001 z m 55.48,-3 V 127 h 6 V 113.57 Z M 967.693,124 h -75.05501 v 6 H 967.693 Z m -72.05501,3 V 5.19499 H 889.638 V 127 Z m -3,-118.80501 H 967.693 v -6 h -75.05501 z m 84.66901,-3 v -3 h -4.462 l 1.684,4.1322 z m 18.78499,3.91 -2.78501,1.11421 v 0.0014 z M 1030.52,95.04 l -2.79,1.1156 0.01,0.0133 v 0.0134 z m 2.12,6.29 -2.89,0.795 0.01,0.034 0.01,0.033 z m 1.96,7.055 -2.91,0.743 5.84,-0.128 z m 1.61,-7.055 -2.89,-0.795 -0.01,0.033 -0.01,0.034 z m 2.13,-6.29 2.77,1.1423 0.01,-0.0157 v -0.0158 z m 34.25,-85.93501 -2.77,-1.14224 -0.01,0.01566 v 0.01574 z m 2.04,-2.635 1.91,2.31578 0.04,-0.03247 0.04,-0.03379 z m 16.83,-1.275 2.78,1.1322 1.68,-4.1322 h -4.46 z M 1041.82,127 v 3 h 2.02 l 0.76,-1.868 z m -14.87,0 -2.78,1.132 0.76,1.868 h 2.02 z M 977.307,8.19499 h 13.17499 v -6 H 977.307 Z m 13.17499,0 c 0.968,0 1.433,0.23451 1.678,0.43334 l 3.784,-4.65668 c -1.569,-1.2745 -3.48401,-1.77666 -5.462,-1.77666 z m 1.678,0.43334 c 0.492,0.39993 0.874,0.9096 1.14699,1.59087 l 5.57001,-2.22838 c -0.634,-1.58543 -1.61199,-2.94576 -2.933,-4.01917 z m 1.14699,1.59227 34.42302,85.935 5.57,-2.2312 -34.42301,-85.935 z M 1027.74,96.1823 c 0.74,1.8003 1.41,3.7797 2.01,5.9427 l 5.78,-1.59 c -0.65,-2.3704 -1.39,-4.5843 -2.24,-6.6372 z m 2.03,6.0097 c 0.67,2.225 1.31,4.537 1.92,6.936 l 5.81,-1.487 c -0.63,-2.473 -1.29,-4.865 -1.98,-7.173 z m 7.76,6.808 c 0.51,-2.402 1.04,-4.716 1.59,-6.942 l -5.82,-1.456 c -0.58,2.307 -1.12,4.696 -1.64,7.168 z m 1.57,-6.875 c 0.6,-2.163 1.27,-4.1424 2.01,-5.9427 l -5.55,-2.2845 c -0.84,2.0529 -1.59,4.2668 -2.24,6.6372 z m 2.02,-5.9742 34.26,-85.935 -5.57,-2.22165 -34.26,85.93505 z m 34.25,-85.9036 c 0.17,-0.42456 0.51,-0.92015 1.17,-1.46143 l -3.82,-4.63156 c -1.26,1.0454 -2.28,2.30648 -2.9,3.80854 z m 1.25,-1.52769 c 0.35,-0.31542 0.82,-0.52452 1.58,-0.52452 v -6 c -2.06,0 -3.98,0.64091 -5.55,2.02548 z m 1.58,-0.52452 h 13.26 v -6 h -13.26 z m 10.48,-4.1322 -49.64,121.80521 5.56,2.264 49.64,-121.80481 z M 1041.82,124 h -14.87 v 6 h 14.87 z m -12.09,1.868 L 980.085,4.06279 974.529,6.32719 1024.17,128.132 Z M 1182.02,5.19499 h 3 v -3 h -3 z m 0,13.43001 v 3 h 3 v -3 z m -58.48,0 v -3 h -3 v 3 z m 0,40.46 h -3 v 3 h 3 z m 47.34,0 h 3 v -3 h -3 z m 0,12.92 v 3 h 3 v -3 z m -47.34,0 v -3 h -3 v 3 z m 0,41.565 h -3 v 3 h 3 z m 58.48,0 h 3 v -3 h -3 z m 0,13.43 v 3 h 3 v -3 z m -75.06,0 h -3 v 3 h 3 z m 0,-121.80501 v -3 h -3 v 3 z m 72.06,0 V 18.625 h 6 V 5.19499 Z m 3,10.43001 h -58.48 v 6 h 58.48 z m -61.48,3 v 40.46 h 6 v -40.46 z m 3,43.46 h 47.34 v -6 h -47.34 z m 44.34,-3 v 12.92 h 6 v -12.92 z m 3,9.92 h -47.34 v 6 h 47.34 z m -50.34,3 v 41.565 h 6 V 72.005 Z m 3,44.565 h 58.48 v -6 h -58.48 z m 55.48,-3 V 127 h 6 v -13.43 z m 3,10.43 h -75.06 v 6 h 75.06 z m -72.06,3 V 5.19499 h -6 V 127 Z m -3,-118.80501 h 75.06 v -6 h -75.06 z m 110.51,-2.405 -1.51,2.59134 0.13,0.07236 0.13,0.06018 z m 2.47,2.21 2.38,-1.82807 -0.02,-0.02318 -0.02,-0.02284 z m 70.55,91.80001 -2.38,1.828 6.6,8.589 -1.24,-10.7609 z m -0.34,-4.25 -3,0.1199 v 0.005 z m -0.09,-90.35501 v -3 h -3 v 3 z m 14.45,0 h 3 v -3 h -3 z m 0,121.80501 v 3 h 3 v -3 z m -11.64,-0.68 -1.41,2.647 0.03,0.019 0.04,0.017 z m -2.55,-2.295 -2.38,1.828 0.01,0.015 0.01,0.016 z m -70.47,-91.715 2.38,-1.8278 -6.18,-8.0411 0.81,10.1081 z m 0.26,4.165 3,-0.1249 z m 0.08,90.525 v 3 h 3 v -3 z m -14.45,0 h -3 v 3 h 3 z m 0,-121.80501 v -3 h -3 v 3 z m 8.5,3 c 0.62,0 1.06,0.04204 1.37,0.09911 0.32,0.05905 0.4,0.11724 0.35,0.08723 l 3.02,-5.18268 c -1.38,-0.80917 -3.12,-1.00366 -4.74,-1.00366 z m 1.98,0.31888 c 0.1,0.04629 0.56,0.34652 1.38,1.36021 l 4.68,-3.74818 c -1,-1.25298 -2.18,-2.42607 -3.55,-3.05978 z m 1.34,1.31419 70.55,91.79994 4.76,-3.6561 -70.55,-91.79998 z m 75.91,89.62804 c -0.16,-1.4069 -0.27,-2.7503 -0.32,-4.031 l -6,0.2498 c 0.06,1.4393 0.18,2.9293 0.36,4.4691 z m -0.32,-4.026 c -0.06,-1.3802 -0.09,-2.7 -0.09,-3.9601 h -6 c 0,1.3466 0.03,2.7467 0.09,4.1999 z M 1293.06,91.47 V 5.19499 h -6 V 91.47 Z m -3,-83.27501 h 14.45 v -6 h -14.45 z m 11.45,-3 V 127 h 6 V 5.19499 Z m 3,118.80501 h -8.33 v 6 h 8.33 z m -8.33,0 c -0.96,0 -1.58,-0.169 -1.97,-0.363 l -2.68,5.366 c 1.42,0.713 3.01,0.997 4.65,0.997 z m -1.9,-0.327 c -0.36,-0.194 -0.91,-0.628 -1.61,-1.507 l -4.71,3.718 c 1.01,1.274 2.16,2.371 3.5,3.083 z m -1.58,-1.476 -70.47,-91.7148 -4.76,3.6555 70.47,91.7153 z m -75.84,-89.6478 c 0.11,1.3803 0.2,2.7305 0.25,4.0507 l 6,-0.2498 c -0.06,-1.3998 -0.15,-2.8263 -0.27,-4.2793 z m 0.25,4.0507 c 0.06,1.3263 0.08,2.5307 0.08,3.6151 h 6 c 0,-1.1822 -0.03,-2.4712 -0.08,-3.8649 z m 0.08,3.6151 V 127 h 6 V 40.215 Z m 3,83.785 h -14.45 v 6 h 14.45 z m -11.45,3 V 5.19499 h -6 V 127 Z m -3,-118.80501 h 8.5 v -6 h -8.5 z m 211.46,-3 h 3 v -3 h -3 z m 0,13.85501 v 3 h 3 v -3 z m -39.36,0 v -3 h -3 v 3 z m 0,107.95 v 3 h 3 v -3 z m -16.49,0 h -3 v 3 h 3 z m 0,-107.95 h 3 v -3 h -3 z m -39.52,0 h -3 v 3 h 3 z m 0,-13.85501 v -3 h -3 v 3 z m 92.37,0 V 19.05 h 6 V 5.19499 Z m 3,10.85501 h -39.36 v 6 h 39.36 z m -42.36,3 V 127 h 6 V 19.05 Z m 3,104.95 h -16.49 v 6 h 16.49 z m -13.49,3 V 19.05 h -6 V 127 Z m -3,-110.95 h -39.52 v 6 h 39.52 z m -36.52,3 V 5.19499 h -6 V 19.05 Z m -3,-10.85501 h 95.37 v -6 h -95.37 z m 175.07,16.04001 2.58,1.5435 0.05,-0.0877 0.04,-0.091 z m -1.61,1.955 1.72,2.4577 0.08,-0.0551 0.07,-0.06 z m -5.61,-0.85 -1.84,2.3738 0.03,0.0197 0.02,0.019 z m -4.85,-3.145 -1.57,2.5524 0.04,0.0269 0.04,0.0254 z m -7.05,-3.23 -1,2.8279 0.01,0.0032 v 0.0032 z m -19.72,0.085 0.96,2.8403 0.03,-0.0086 0.02,-0.009 z m -7.14,3.995 -1.99,-2.2495 -0.01,0.0147 -0.02,0.015 z m -4.25,6.035 2.76,1.1734 v -0.0122 l 0.01,-0.0122 z m 1.02,15.895 -2.43,1.7609 0.02,0.0345 0.03,0.0337 z m 6.63,5.695 -1.51,2.5913 0.01,0.0068 0.01,0.0066 z m 9.35,4.165 -0.98,2.8366 0.03,0.0095 0.03,0.009 z m 10.71,3.57 -0.98,2.8371 0.01,0.0023 0.01,0.0022 z m 10.71,4.25 -1.25,2.7265 0.02,0.0123 0.03,0.0117 z m 9.35,5.865 -1.98,2.2577 0.01,0.0101 0.02,0.01 z m 6.63,8.755 -2.71,1.2881 0.01,0.018 0.01,0.0179 z m -0.17,27.795 2.79,1.091 0.01,-0.012 z m -7.99,12.155 -2.11,-2.138 -0.01,0.008 v 0.009 z m -12.84,8.16 -1.08,-2.796 -0.02,0.004 z m -38.84,-1.275 -1.23,2.738 0.02,0.007 0.01,0.006 z m -16.58,-11.645 -2.56,-1.56 -1.19,1.953 1.57,1.664 z m 4.76,-7.82 -2.42,-1.765 -0.08,0.1 -0.06,0.105 z m 1.62,-1.53 1.61,2.531 0.03,-0.017 0.02,-0.018 z m 6.29,1.275 -1.95,2.284 0.03,0.021 0.02,0.021 z m 5.69,4.165 -1.68,2.487 0.02,0.009 0.01,0.01 z m 8.33,4.25 -1.12,2.782 0.03,0.012 0.03,0.011 z m 22.44,0.255 1,2.83 z m 7.74,-4.505 2.03,2.209 v -0.002 z m 4.93,-7.055 -2.77,-1.154 v 0 z m -0.85,-18.105 -2.47,1.7046 0.02,0.0338 0.03,0.0331 z m -6.55,-5.95 -1.51,2.5913 z m -9.35,-3.995 -0.93,2.8507 0.03,0.0091 0.02,0.0085 z m -10.71,-3.4 -0.93,2.8505 0.02,0.0086 0.03,0.0082 z m -10.71,-4.08 -1.21,2.7433 0.01,0.0036 v 0.0036 z m -9.26,-5.95 2,-2.2345 z m -6.63,-9.095 -2.74,1.2223 0.01,0.0256 0.01,0.0254 z m 0,-26.095 -2.77,-1.1677 v 0.0166 l -0.01,0.0167 z m 7.31,-10.71 -2.1,-2.1404 v 10e-5 z m 11.73,-7.48 -1.11,-2.78777 -0.01,0.00468 z m 34.76,0.425 -1.07,2.80076 z m 14.71,9.35 2.67,1.3648 1.01,-1.9713 -1.59,-1.5437 z m -6.57,6.2765 c -0.39,0.6486 -0.71,0.9904 -0.92,1.1559 l 3.75,4.6852 c 0.93,-0.7412 1.68,-1.7027 2.32,-2.7541 z m -0.76,1.0408 c 0.07,-0.0513 -0.01,0.0527 -0.49,0.0527 v 6 c 1.33,0 2.72,-0.2926 3.93,-1.1373 z m -0.49,0.0527 c 0.01,0 -0.11,0.003 -0.4,-0.1222 -0.3,-0.1254 -0.7,-0.3522 -1.22,-0.7353 l -3.57,4.825 c 1.51,1.1093 3.28,2.0325 5.19,2.0325 z m -1.57,-0.8189 c -1.39,-1.0766 -3.13,-2.2013 -5.19,-3.3758 l -2.98,5.2094 c 1.92,1.0922 3.4,2.0641 4.5,2.9141 z m -5.1,-3.3235 c -2.16,-1.3336 -4.72,-2.4966 -7.65,-3.5119 l -1.97,5.6686 c 2.63,0.9114 4.77,1.9017 6.47,2.9481 z m -7.63,-3.5055 c -3.13,-1.1097 -6.81,-1.6171 -10.95,-1.6171 v 6 c 3.68,0 6.64,0.4559 8.95,1.2729 z M 1467.83,14.52 c -3.95,0 -7.57,0.5471 -10.79,1.7073 l 2.03,5.6454 c 2.45,-0.8798 5.35,-1.3527 8.76,-1.3527 z m -10.74,1.6897 c -3.15,1.0702 -5.89,2.5839 -8.16,4.5858 l 3.97,4.499 c 1.59,-1.3981 3.6,-2.5477 6.12,-3.4042 z m -8.19,4.6155 c -2.2,1.9956 -3.87,4.3724 -5,7.1057 l 5.54,2.2981 c 0.79,-1.9132 1.95,-3.5598 3.5,-4.9642 z m -4.99,7.0814 c -1.14,2.6671 -1.69,5.535 -1.69,8.5684 h 6 c 0,-2.2933 0.42,-4.3554 1.21,-6.2216 z m -1.69,8.5684 c 0,3.8941 0.95,7.3805 3.04,10.2609 l 4.86,-3.5218 c -1.2,-1.6529 -1.9,-3.8332 -1.9,-6.7391 z m 3.09,10.3291 c 1.97,2.5551 4.48,4.7001 7.5,6.4572 l 3.02,-5.1826 c -2.43,-1.4163 -4.33,-3.0679 -5.76,-4.9328 z m 7.52,6.4706 c 2.96,1.6919 6.25,3.1543 9.86,4.3969 l 1.95,-5.6732 c -3.3,-1.1374 -6.24,-2.4517 -8.83,-3.9331 z m 9.92,4.4154 c 3.49,1.1273 7.04,2.3112 10.65,3.552 l 1.95,-5.6742 c -3.64,-1.2526 -7.23,-2.4486 -10.76,-3.588 z m 10.67,3.5565 c 3.58,1.2141 7.06,2.5926 10.42,4.1349 l 2.5,-5.453 c -3.55,-1.631 -7.22,-3.0859 -11,-4.3652 z m 10.47,4.1589 c 3.25,1.4142 6.1,3.2075 8.57,5.3722 l 3.95,-4.5154 c -2.96,-2.5953 -6.35,-4.712 -10.12,-6.3578 z m 8.6,5.3923 c 2.44,2.094 4.4,4.6698 5.87,7.7653 l 5.42,-2.5762 c -1.82,-3.8178 -4.28,-7.0787 -7.39,-9.7447 z m 5.89,7.8012 c 1.44,2.9376 2.24,6.7053 2.24,11.426 h 6 c 0,-5.366 -0.91,-10.0983 -2.86,-14.074 z m 2.24,11.426 c 0,4.9788 -0.85,9.626 -2.52,13.966 l 5.6,2.158 c 1.95,-5.067 2.92,-10.4495 2.92,-16.124 z m -2.52,13.954 c -1.66,4.258 -4.09,7.951 -7.3,11.108 l 4.21,4.276 c 3.82,-3.757 6.72,-8.167 8.68,-13.202 z m -7.31,11.125 c -3.13,3.129 -7.05,5.634 -11.8,7.485 l 2.17,5.592 c 5.44,-2.116 10.08,-5.051 13.87,-8.835 z m -11.82,7.489 c -4.63,1.822 -10,2.767 -16.15,2.767 v 6 c 6.76,0 12.9,-1.039 18.35,-3.183 z m -16.15,2.767 c -7.51,0 -14.3,-1.349 -20.4,-4.001 l -2.39,5.502 c 6.93,3.015 14.54,4.499 22.79,4.499 z m -20.37,-3.988 c -6.12,-2.738 -11.31,-6.395 -15.61,-10.964 l -4.37,4.114 c 4.88,5.178 10.73,9.284 17.53,12.326 z m -15.23,-7.347 4.76,-7.82 -5.13,-3.12 -4.76,7.82 z m 4.62,-7.615 c 0.24,-0.333 0.51,-0.578 0.8,-0.764 l -3.22,-5.062 c -0.96,0.607 -1.77,1.382 -2.43,2.296 z m 0.85,-0.799 c 0.2,-0.135 0.37,-0.176 0.55,-0.176 v -6 c -1.41,0 -2.72,0.4125 -3.88,1.184 z m 0.55,-0.176 c 0.13,0 0.8,0.105 2.13,1.239 l 3.89,-4.568 c -1.73,-1.473 -3.77,-2.671 -6.02,-2.671 z m 2.18,1.281 c 1.62,1.32 3.6,2.763 5.91,4.326 l 3.36,-4.974 c -2.22,-1.497 -4.04,-2.831 -5.48,-4.004 z m 5.94,4.345 c 2.53,1.662 5.49,3.166 8.86,4.526 l 2.25,-5.564 c -3.09,-1.247 -5.69,-2.576 -7.81,-3.974 z m 8.92,4.549 c 3.72,1.411 8.1,2.065 13.05,2.065 v -6 c -4.46,0 -8.07,-0.593 -10.92,-1.675 z m 13.05,2.065 c 4.18,0 8.01,-0.575 11.45,-1.785 l -1.99,-5.66 c -2.69,0.944 -5.82,1.445 -9.46,1.445 z m 11.45,-1.785 c 3.39,-1.193 6.33,-2.889 8.77,-5.126 l -4.06,-4.418 c -1.76,1.616 -3.97,2.924 -6.7,3.884 z m 8.77,-5.128 c 2.47,-2.279 4.37,-4.991 5.67,-8.108 l -5.54,-2.308 c -0.97,2.323 -2.36,4.315 -4.19,6.002 z m 5.67,-8.108 c 1.3,-3.1318 1.93,-6.5627 1.93,-10.249 h -6 c 0,3.0003 -0.51,5.6328 -1.47,7.941 z m 1.93,-10.249 c 0,-4.1416 -0.96,-7.8165 -3.13,-10.7815 l -4.84,3.543 c 1.23,1.6817 1.97,4.0134 1.97,7.2385 z m -3.08,-10.7146 c -1.92,-2.7734 -4.44,-5.0482 -7.51,-6.8367 l -3.02,5.1826 c 2.38,1.3849 4.22,3.0767 5.59,5.0633 z m -7.51,-6.8367 c -2.95,-1.7205 -6.28,-3.1386 -9.98,-4.272 l -1.76,5.7366 c 3.33,1.02 6.23,2.2652 8.72,3.718 z m -9.92,-4.2544 c -3.48,-1.1394 -7.07,-2.2782 -10.77,-3.4166 l -1.76,5.7346 c 3.67,1.1283 7.22,2.2561 10.66,3.3834 z m -10.71,-3.3998 c -3.54,-1.1607 -7.02,-2.4873 -10.45,-3.98 l -2.4,5.501 c 3.6,1.5673 7.26,2.9606 10.98,4.18 z m -10.43,-3.9728 c -3.18,-1.4072 -6,-3.2217 -8.48,-5.4412 l -4,4.469 c 2.96,2.6538 6.31,4.806 10.05,6.4588 z m -8.48,-5.4412 c -2.39,-2.1425 -4.37,-4.8368 -5.92,-8.1338 l -5.43,2.5466 c 1.86,3.9563 4.3,7.3254 7.35,10.0562 z m -5.89,-8.0828 c -1.43,-3.1929 -2.21,-7.2818 -2.21,-12.3777 h -6 c 0,5.6708 0.87,10.6485 2.73,14.8223 z m -2.21,-12.3777 c 0,-3.9141 0.75,-7.694 2.24,-11.3606 l -5.55,-2.2688 c -1.79,4.3801 -2.69,8.9301 -2.69,13.6294 z m 2.23,-11.3273 c 1.54,-3.6519 3.75,-6.8929 6.65,-9.7374 l -4.2,-4.2806 c -3.45,3.3888 -6.12,7.2878 -7.98,11.6826 z m 6.65,-9.7374 c 2.86,-2.807 6.42,-5.0962 10.75,-6.83722 l -2.24,-5.56617 c -4.97,1.99894 -9.23,4.69644 -12.71,8.12269 z m 10.74,-6.83256 c 4.28,-1.705 9.28,-2.59275 15.04,-2.59275 V 0.834991 c -6.37,0 -12.14,0.982249 -17.26,3.017269 z m 15.04,-2.59275 c 6.48,0 12.31,1.0253 17.54,3.03077 l 2.15,-5.60153 c -6,-2.3012 -12.57,-3.429239 -19.69,-3.429239 z m 17.54,3.03077 c 5.24,2.01164 9.79,4.91074 13.69,8.69944 l 4.18,-4.3004 c -4.49,-4.37128 -9.74,-7.70557 -15.72,-10.00057 z m 13.11,5.18444 -4,7.82 5.34,2.7296 4,-7.82 z"
     fill="#AEAEAE"
     id="path10"
     style="fill:#4d4d4d;stroke-width:1" />
</svg>
