<?xml version="1.0" encoding="UTF-8" standalone="no"?>
<svg
   xmlns:dc="http://purl.org/dc/elements/1.1/"
   xmlns:cc="http://creativecommons.org/ns#"
   xmlns:rdf="http://www.w3.org/1999/02/22-rdf-syntax-ns#"
   xmlns:svg="http://www.w3.org/2000/svg"
   xmlns="http://www.w3.org/2000/svg"
   xmlns:sodipodi="http://sodipodi.sourceforge.net/DTD/sodipodi-0.dtd"
   xmlns:inkscape="http://www.inkscape.org/namespaces/inkscape"
   width="1507"
   height="132"
   viewBox="0 0 1507 132"
   fill="none"
   version="1.1"
   id="svg12"
   sodipodi:docname="line.svg"
   inkscape:version="1.0.1 (c497b03c, 2020-09-10)">
  <metadata
     id="metadata18">
    <rdf:RDF>
      <cc:Work
         rdf:about="">
        <dc:format>image/svg+xml</dc:format>
        <dc:type
           rdf:resource="http://purl.org/dc/dcmitype/StillImage" />
      </cc:Work>
    </rdf:RDF>
  </metadata>
  <defs
     id="defs16" />
  <sodipodi:namedview
     pagecolor="#ffffff"
     bordercolor="#666666"
     borderopacity="1"
     objecttolerance="10"
     gridtolerance="10"
     guidetolerance="10"
     inkscape:pageopacity="0"
     inkscape:pageshadow="2"
     inkscape:window-width="705"
     inkscape:window-height="480"
     id="namedview14"
     showgrid="false"
     inkscape:zoom="0.69873922"
     inkscape:cx="753.5"
     inkscape:cy="66"
     inkscape:window-x="3359"
     inkscape:window-y="60"
     inkscape:window-maximized="0"
     inkscape:current-layer="svg12" />
  <path
     d="M3.79 127H0.790001V130H3.79V127ZM3.79 5.19499V2.19499H0.790001V5.19499H3.79ZM61.93 7.40499L61.1381 10.2986L61.1458 10.3007L61.93 7.40499ZM75.275 13.695L73.4198 16.0526L73.4291 16.0599L73.4385 16.0672L75.275 13.695ZM83.01 23.725L80.2384 24.8732L80.2484 24.8973L80.2588 24.9212L83.01 23.725ZM84.115 45.655L81.2807 44.6717L81.2717 44.6977L81.2632 44.7238L84.115 45.655ZM79.865 53.39L77.5333 51.5024L77.5195 51.5194L77.506 51.5365L79.865 53.39ZM72.725 59.765L71.0953 57.2463L71.0838 57.2537L71.0725 57.2612L72.725 59.765ZM62.695 64.355L61.8098 61.4886L62.1139 67.2982L62.695 64.355ZM82.84 73.96L84.9874 71.865L82.84 73.96ZM86.75 106.43L84.0177 105.191L84.0108 105.207L84.0041 105.222L86.75 106.43ZM78.42 117.395L76.5029 115.087L76.4941 115.095L76.4854 115.102L78.42 117.395ZM64.99 124.535L65.8831 127.399L65.8926 127.396L65.9021 127.393L64.99 124.535ZM20.28 71.495V68.495H17.28V71.495H20.28ZM20.28 113.91H17.28V116.91H20.28V113.91ZM58.7 112.295L57.7943 109.435L57.7874 109.437L57.7804 109.439L58.7 112.295ZM67.03 107.79L69.0304 110.026L69.0337 110.023L67.03 107.79ZM71.875 100.82L74.6766 101.893L74.6803 101.883L74.684 101.873L71.875 100.82ZM66.69 77.02L64.7694 79.3247L64.7854 79.338L64.8016 79.3511L66.69 77.02ZM20.28 59.765H17.28V62.765H20.28V59.765ZM62.525 53.985L60.6509 51.6424L60.6364 51.654L60.6221 51.6658L62.525 53.985ZM67.54 47.44L70.3037 48.6069L70.3083 48.5961L70.3128 48.5853L67.54 47.44ZM62.695 23.215L64.5347 20.8453L62.695 23.215ZM20.28 18.2V15.2H17.28V18.2H20.28ZM6.79 127V5.19499H0.790001V127H6.79ZM3.79 8.19499H42.635V2.19499H3.79V8.19499ZM42.635 8.19499C49.932 8.19499 56.0833 8.91516 61.1381 10.2986L62.7219 4.51141C57.01 2.94815 50.298 2.19499 42.635 2.19499V8.19499ZM61.1458 10.3007C66.3014 11.697 70.356 13.6417 73.4198 16.0526L77.1302 11.3374C73.2807 8.30829 68.4387 6.05967 62.7142 4.50932L61.1458 10.3007ZM73.4385 16.0672C76.5539 18.4791 78.8021 21.4062 80.2384 24.8732L85.7816 22.5768C83.9312 18.1105 81.0227 14.3509 77.1115 11.3228L73.4385 16.0672ZM80.2588 24.9212C81.771 28.3993 82.56 32.4027 82.56 36.985H88.56C88.56 31.7073 87.649 26.8707 85.7612 22.5288L80.2588 24.9212ZM82.56 36.985C82.56 39.661 82.1319 42.2182 81.2807 44.6717L86.9493 46.6383C88.0247 43.5385 88.56 40.3156 88.56 36.985H82.56ZM81.2632 44.7238C80.4755 47.136 79.241 49.3929 77.5333 51.5024L82.1967 55.2776C84.3424 52.6271 85.9411 49.7273 86.9668 46.5862L81.2632 44.7238ZM77.506 51.5365C75.8667 53.623 73.7448 55.5319 71.0953 57.2463L74.3548 62.2837C77.4853 60.2581 80.1233 57.917 82.224 55.2435L77.506 51.5365ZM71.0725 57.2612C68.5161 58.9484 65.4409 60.3672 61.8098 61.4886L63.5802 67.2214C67.6558 65.9628 71.2673 64.3216 74.3775 62.2688L71.0725 57.2612ZM62.1139 67.2982C70.6434 68.9823 76.7214 71.9845 80.6927 76.055L84.9874 71.865C79.8919 66.6422 72.54 63.241 63.2761 61.4118L62.1139 67.2982ZM80.6927 76.055C84.5871 80.0468 86.64 85.3667 86.64 92.32H92.64C92.64 84.0866 90.1595 77.1665 84.9874 71.865L80.6927 76.055ZM86.64 92.32C86.64 97.0947 85.7502 101.37 84.0177 105.191L89.4824 107.669C91.6032 102.99 92.64 97.8587 92.64 92.32H86.64ZM84.0041 105.222C82.3274 109.032 79.8401 112.315 76.5029 115.087L80.3371 119.703C84.3666 116.355 87.4327 112.328 89.496 107.638L84.0041 105.222ZM76.4854 115.102C73.2078 117.868 69.0957 120.076 64.0779 121.677L65.9021 127.393C71.5376 125.594 76.3789 123.042 80.3546 119.688L76.4854 115.102ZM64.0969 121.671C59.174 123.206 53.4495 124 46.885 124V130C53.9205 130 60.266 129.151 65.8831 127.399L64.0969 121.671ZM46.885 124H3.79V130H46.885V124ZM17.28 71.495V113.91H23.28V71.495H17.28ZM20.28 116.91H46.63V110.91H20.28V116.91ZM46.63 116.91C51.5467 116.91 55.8978 116.349 59.6196 115.151L57.7804 109.439C54.8156 110.394 51.12 110.91 46.63 110.91V116.91ZM59.6057 115.155C63.3182 113.979 66.4954 112.294 69.0304 110.026L65.0296 105.554C63.2579 107.139 60.8818 108.457 57.7943 109.435L59.6057 115.155ZM69.0337 110.023C71.5828 107.735 73.4793 105.019 74.6766 101.893L69.0734 99.7471C68.2307 101.947 66.8972 103.878 65.0263 105.557L69.0337 110.023ZM74.684 101.873C75.8437 98.7809 76.405 95.4446 76.405 91.895H70.405C70.405 94.8054 69.9464 97.4191 69.066 99.7666L74.684 101.873ZM76.405 91.895C76.405 84.7948 73.8287 78.9423 68.5784 74.6889L64.8016 79.3511C68.5047 82.351 70.405 86.4152 70.405 91.895H76.405ZM68.6106 74.7153C63.4199 70.3898 55.8809 68.495 46.545 68.495V74.495C55.2291 74.495 61.1201 76.2835 64.7694 79.3247L68.6106 74.7153ZM46.545 68.495H20.28V74.495H46.545V68.495ZM20.28 62.765H42.04V56.765H20.28V62.765ZM42.04 62.765C46.8939 62.765 51.2214 62.2337 54.972 61.1085L53.248 55.3615C50.1986 56.2763 46.4794 56.765 42.04 56.765V62.765ZM54.972 61.1085C58.6633 60.0011 61.8466 58.4223 64.428 56.3042L60.6221 51.6658C58.7834 53.1744 56.3567 54.4289 53.248 55.3615L54.972 61.1085ZM64.3991 56.3276C67.0359 54.2182 69.0234 51.6393 70.3037 48.6069L64.7763 46.2731C63.9033 48.3407 62.5475 50.1251 60.6509 51.6424L64.3991 56.3276ZM70.3128 48.5853C71.5518 45.5855 72.155 42.3593 72.155 38.94H66.155C66.155 41.6407 65.6815 44.0811 64.7672 46.2947L70.3128 48.5853ZM72.155 38.94C72.155 31.1845 69.7884 24.9238 64.5347 20.8453L60.8553 25.5847C64.215 28.1929 66.155 32.4155 66.155 38.94H72.155ZM64.5347 20.8453C59.4532 16.9004 51.9639 15.2 42.635 15.2V21.2C51.4395 21.2 57.3235 22.8429 60.8553 25.5847L64.5347 20.8453ZM42.635 15.2H20.28V21.2H42.635V15.2ZM17.28 18.2V59.765H23.28V18.2H17.28ZM130.348 113.145H127.348V116.145H130.348V113.145ZM183.048 113.145H186.048V110.145H183.048V113.145ZM183.048 127V130H186.048V127H183.048ZM113.858 127H110.858V130H113.858V127ZM113.858 5.19499V2.19499H110.858V5.19499H113.858ZM130.348 5.19499H133.348V2.19499H130.348V5.19499ZM130.348 116.145H183.048V110.145H130.348V116.145ZM180.048 113.145V127H186.048V113.145H180.048ZM183.048 124H113.858V130H183.048V124ZM116.858 127V5.19499H110.858V127H116.858ZM113.858 8.19499H130.348V2.19499H113.858V8.19499ZM127.348 5.19499V113.145H133.348V5.19499H127.348ZM303.176 91.3L305.98 92.3671L305.982 92.3602L303.176 91.3ZM271.896 123.77L273.029 126.548L273.039 126.544L271.896 123.77ZM222.936 123.77L221.785 126.54L221.794 126.544L221.803 126.548L222.936 123.77ZM203.981 110.935L201.815 113.011L203.981 110.935ZM191.741 91.3L188.935 92.3602L188.937 92.3671L191.741 91.3ZM191.741 41.065L194.545 42.1321L194.547 42.1252L191.741 41.065ZM203.981 21.345L206.146 23.4212L206.152 23.4156L206.157 23.4101L203.981 21.345ZM222.936 8.42499L224.087 11.1955L222.936 8.42499ZM271.896 8.42499L270.745 11.1955L270.753 11.1986L271.896 8.42499ZM290.936 21.345L288.76 23.4101L288.765 23.4156L288.77 23.4212L290.936 21.345ZM303.176 41.065L300.37 42.1252L300.372 42.1321L303.176 41.065ZM278.866 30.95L276.641 32.9619L276.648 32.9696L276.654 32.9772L278.866 30.95ZM265.266 21.43L266.416 18.659L265.266 21.43ZM229.651 21.43L228.501 18.659L229.651 21.43ZM215.966 30.95L213.756 28.9215L213.754 28.9228L215.966 30.95ZM207.296 45.995L204.458 45.022L207.296 45.995ZM207.296 86.285L204.458 87.258L204.461 87.2663L207.296 86.285ZM215.966 101.33L213.741 103.342L213.755 103.358L213.77 103.374L215.966 101.33ZM229.651 110.765L228.501 113.536L228.514 113.541L228.527 113.546L229.651 110.765ZM265.266 110.765L266.39 113.546L266.403 113.541L266.416 113.536L265.266 110.765ZM278.866 101.33L281.077 103.357L281.084 103.35L281.091 103.342L278.866 101.33ZM287.536 86.285L290.371 87.2663L290.374 87.258L287.536 86.285ZM304.511 66.14C304.511 74.9428 303.118 82.9655 300.37 90.2398L305.982 92.3602C309.014 84.3345 310.511 75.5838 310.511 66.14H304.511ZM300.372 90.2329C297.615 97.476 293.744 103.671 288.77 108.859L293.101 113.011C298.668 107.205 302.956 100.311 305.98 92.3671L300.372 90.2329ZM288.77 108.859C283.805 114.038 277.812 118.087 270.753 120.996L273.039 126.544C280.827 123.334 287.527 118.825 293.101 113.011L288.77 108.859ZM270.763 120.992C263.799 123.831 256.029 125.275 247.416 125.275V131.275C256.709 131.275 265.26 129.715 273.029 126.548L270.763 120.992ZM247.416 125.275C238.802 125.275 231.033 123.831 224.069 120.992L221.803 126.548C229.572 129.715 238.123 131.275 247.416 131.275V125.275ZM224.087 121C217.084 118.091 211.116 114.042 206.146 108.859L201.815 113.011C207.386 118.821 214.054 123.329 221.785 126.54L224.087 121ZM206.146 108.859C201.173 103.671 197.301 97.476 194.545 90.2329L188.937 92.3671C191.96 100.311 196.249 107.205 201.815 113.011L206.146 108.859ZM194.547 90.2398C191.799 82.9655 190.406 74.9428 190.406 66.14H184.406C184.406 75.5838 185.903 84.3345 188.935 92.3602L194.547 90.2398ZM190.406 66.14C190.406 57.3368 191.799 49.3453 194.545 42.1321L188.937 39.9979C185.902 47.9713 184.406 56.6965 184.406 66.14H190.406ZM194.547 42.1252C197.305 34.8253 201.177 28.6048 206.146 23.4212L201.815 19.2688C196.245 25.0785 191.957 32.0047 188.935 40.0048L194.547 42.1252ZM206.157 23.4101C211.126 18.1737 217.091 14.1015 224.087 11.1955L221.785 5.6545C214.048 8.86848 207.376 13.4096 201.805 19.2799L206.157 23.4101ZM224.087 11.1955C231.047 8.30447 238.809 6.83499 247.416 6.83499V0.834991C238.116 0.834991 229.559 2.42551 221.785 5.6545L224.087 11.1955ZM247.416 6.83499C256.023 6.83499 263.785 8.30447 270.745 11.1955L273.047 5.6545C265.273 2.42551 256.716 0.834991 247.416 0.834991V6.83499ZM270.753 11.1986C277.805 14.1057 283.795 18.1778 288.76 23.4101L293.112 19.2799C287.537 13.4055 280.833 8.86426 273.039 5.6514L270.753 11.1986ZM288.77 23.4212C293.74 28.6048 297.612 34.8253 300.37 42.1252L305.982 40.0048C302.96 32.0047 298.672 25.0785 293.101 19.2688L288.77 23.4212ZM300.372 42.1321C303.117 49.3453 304.511 57.3368 304.511 66.14H310.511C310.511 56.6965 309.014 47.9713 305.98 39.9979L300.372 42.1321ZM293.596 66.14C293.596 58.3899 292.539 51.338 290.374 45.022L284.698 46.968C286.613 52.552 287.596 58.9301 287.596 66.14H293.596ZM290.374 45.022C288.218 38.7344 285.132 33.3462 281.077 28.9228L276.654 32.9772C280.08 36.7138 282.774 41.3556 284.698 46.968L290.374 45.022ZM281.091 28.9381C277.043 24.4605 272.138 21.0333 266.416 18.659L264.116 24.201C269.047 26.2467 273.209 29.1662 276.641 32.9619L281.091 28.9381ZM266.416 18.659C260.677 16.2781 254.329 15.115 247.416 15.115V21.115C253.65 21.115 259.201 22.1618 264.116 24.201L266.416 18.659ZM247.416 15.115C240.556 15.115 234.237 16.2794 228.501 18.659L230.801 24.201C235.718 22.1606 241.243 21.115 247.416 21.115V15.115ZM228.501 18.659C222.783 21.0317 217.856 24.4542 213.756 28.9215L218.176 32.9785C221.669 29.1724 225.866 26.2483 230.801 24.201L228.501 18.659ZM213.754 28.9228C209.7 33.3462 206.614 38.7344 204.458 45.022L210.134 46.968C212.058 41.3556 214.752 36.7138 218.177 32.9772L213.754 28.9228ZM204.458 45.022C202.293 51.338 201.236 58.3899 201.236 66.14H207.236C207.236 58.9301 208.219 52.552 210.134 46.968L204.458 45.022ZM201.236 66.14C201.236 73.8901 202.293 80.942 204.458 87.258L210.134 85.312C208.219 79.728 207.236 73.3499 207.236 66.14H201.236ZM204.461 87.2663C206.617 93.4956 209.7 98.8727 213.741 103.342L218.191 99.3181C214.752 95.5139 212.055 90.8611 210.131 85.3037L204.461 87.2663ZM213.77 103.374C217.869 107.779 222.792 111.167 228.501 113.536L230.801 107.994C225.857 105.943 221.656 103.041 218.162 99.2863L213.77 103.374ZM228.527 113.546C234.255 115.862 240.565 116.995 247.416 116.995V110.995C241.233 110.995 235.7 109.974 230.775 107.984L228.527 113.546ZM247.416 116.995C254.32 116.995 260.659 115.863 266.39 113.546L264.142 107.984C259.22 109.973 253.659 110.995 247.416 110.995V116.995ZM266.416 113.536C272.129 111.166 277.029 107.773 281.077 103.357L276.654 99.3028C273.222 103.047 269.056 105.944 264.116 107.994L266.416 113.536ZM281.091 103.342C285.132 98.8727 288.215 93.4956 290.371 87.2663L284.701 85.3037C282.777 90.8611 280.08 95.5139 276.641 99.3181L281.091 103.342ZM290.374 87.258C292.539 80.942 293.596 73.8901 293.596 66.14H287.596C287.596 73.3499 286.613 79.728 284.698 85.312L290.374 87.258ZM393.336 114.59L393.647 117.574L393.673 117.571L393.7 117.568L393.336 114.59ZM401.156 113.145L401.899 116.051L401.156 113.145ZM408.041 110.935L409.142 113.725L409.174 113.713L409.205 113.7L408.041 110.935ZM414.501 107.875L415.898 110.53L417.501 109.686V107.875H414.501ZM414.501 81.015H417.501V78.015H414.501V81.015ZM392.996 80.08L390.874 82.2013L390.92 82.2474L390.969 82.2915L392.996 80.08ZM392.061 68.435V65.435H389.061V68.435H392.061ZM429.461 68.435H432.461V65.435H429.461V68.435ZM429.461 115.185L431.217 117.617L432.461 116.719V115.185H429.461ZM419.856 120.965L418.532 118.273L418.523 118.277L418.514 118.282L419.856 120.965ZM409.231 125.13L410.061 128.013L410.075 128.009L410.089 128.005L409.231 125.13ZM397.161 127.51L396.808 124.531L396.789 124.533L396.769 124.536L397.161 127.51ZM358.826 123.855L357.675 126.625L357.684 126.629L357.693 126.633L358.826 123.855ZM339.786 111.105L337.631 113.193L337.637 113.198L337.642 113.204L339.786 111.105ZM327.291 91.385L324.491 92.4633L324.495 92.4723L324.498 92.4813L327.291 91.385ZM327.206 40.725L324.406 39.6467L324.403 39.6557L324.399 39.6648L327.206 40.725ZM339.701 21.09L337.568 18.9797L337.568 18.9798L339.701 21.09ZM359.336 8.34L358.246 5.54475L358.239 5.54749L359.336 8.34ZM398.606 4.93999L398.08 7.89352L398.099 7.89702L398.119 7.90026L398.606 4.93999ZM410.081 7.99999L408.998 10.7977L409.025 10.8081L409.052 10.8181L410.081 7.99999ZM419.941 12.845L418.321 15.3701L418.338 15.381L418.355 15.3917L419.941 12.845ZM428.356 19.22L430.9 20.81L432.225 18.6901L430.379 17.0045L428.356 19.22ZM423.681 26.7L426.219 28.2984L426.225 28.29L423.681 26.7ZM416.966 28.06L418.469 25.4637L418.45 25.453L418.432 25.4425L416.966 28.06ZM405.746 21.94L404.556 24.6942L404.594 24.7103L404.632 24.7254L405.746 21.94ZM396.821 19.22L396.185 22.152L396.195 22.1541L396.821 19.22ZM366.051 21.515L367.16 24.3024L367.172 24.2975L367.184 24.2925L366.051 21.515ZM351.856 31.12L354.036 33.1807L354.043 33.1733L354.05 33.1659L351.856 31.12ZM342.846 46.25L345.672 47.2556L345.675 47.247L342.846 46.25ZM342.931 86.795L340.104 87.799L340.109 87.815L340.115 87.8309L342.931 86.795ZM352.196 102.095L354.375 100.033L352.196 102.095ZM384.326 118.015C387.696 118.015 390.805 117.87 393.647 117.574L393.025 111.606C390.426 111.877 387.529 112.015 384.326 112.015V118.015ZM393.7 117.568C396.591 117.214 399.325 116.71 401.899 116.051L400.412 110.239C398.113 110.827 395.634 111.286 392.971 111.612L393.7 117.568ZM401.899 116.051C404.447 115.4 406.863 114.625 409.142 113.725L406.939 108.145C404.912 108.945 402.738 109.644 400.412 110.239L401.899 116.051ZM409.205 113.7C411.441 112.759 413.672 111.701 415.898 110.53L413.103 105.22C411.023 106.315 408.947 107.298 406.877 108.17L409.205 113.7ZM417.501 107.875V81.015H411.501V107.875H417.501ZM414.501 78.015H395.631V84.015H414.501V78.015ZM395.631 78.015C395.171 78.015 395.058 77.9011 395.023 77.8685L390.969 82.2915C392.293 83.5056 393.937 84.015 395.631 84.015V78.015ZM395.117 77.9587C395.09 77.932 395.079 77.9155 395.075 77.9101C395.072 77.9052 395.072 77.9048 395.073 77.9069C395.074 77.9088 395.071 77.9041 395.068 77.8886C395.065 77.8725 395.061 77.8393 395.061 77.785H389.061C389.061 79.4619 389.671 80.9977 390.874 82.2013L395.117 77.9587ZM395.061 77.785V68.435H389.061V77.785H395.061ZM392.061 71.435H429.461V65.435H392.061V71.435ZM426.461 68.435V115.185H432.461V68.435H426.461ZM427.704 112.753C424.779 114.865 421.722 116.705 418.532 118.273L421.179 123.657C424.676 121.939 428.022 119.925 431.217 117.617L427.704 112.753ZM418.514 118.282C415.394 119.842 412.016 121.168 408.373 122.255L410.089 128.005C414.039 126.825 417.744 125.375 421.197 123.648L418.514 118.282ZM408.401 122.247C404.833 123.274 400.971 124.038 396.808 124.531L397.514 130.489C401.964 129.962 406.148 129.139 410.061 128.013L408.401 122.247ZM396.769 124.536C392.611 125.083 388.068 125.36 383.136 125.36V131.36C388.29 131.36 393.097 131.071 397.552 130.484L396.769 124.536ZM383.136 125.36C374.641 125.36 366.927 123.918 359.958 121.077L357.693 126.633C365.457 129.798 373.951 131.36 383.136 131.36V125.36ZM359.977 121.085C352.964 118.172 346.96 114.144 341.929 109.006L337.642 113.204C343.265 118.946 349.954 123.418 357.675 126.625L359.977 121.085ZM341.94 109.017C336.909 103.826 332.952 97.5968 330.083 90.2887L324.498 92.4813C327.636 100.473 332.009 107.391 337.631 113.193L341.94 109.017ZM330.09 90.3067C327.291 83.0395 325.871 74.9952 325.871 66.14H319.871C319.871 75.6448 321.397 84.4305 324.491 92.4633L330.09 90.3067ZM325.871 66.14C325.871 57.1599 327.266 49.0534 330.012 41.7852L324.399 39.6648C321.365 47.6965 319.871 56.5334 319.871 66.14H325.871ZM330.005 41.8033C332.814 34.5117 336.761 28.3254 341.833 23.2002L337.568 18.9798C331.874 24.7346 327.491 31.6382 324.406 39.6467L330.005 41.8033ZM341.833 23.2003C346.961 18.0191 353.146 13.9928 360.432 11.1325L358.239 5.54749C350.225 8.69383 343.321 13.1676 337.568 18.9797L341.833 23.2003ZM360.425 11.1352C367.736 8.28603 375.973 6.83499 385.176 6.83499V0.834991C375.339 0.834991 366.349 2.38728 358.246 5.54476L360.425 11.1352ZM385.176 6.83499C389.841 6.83499 394.14 7.19187 398.08 7.89352L399.132 1.98646C394.798 1.21478 390.144 0.834991 385.176 0.834991V6.83499ZM398.119 7.90026C402.074 8.55046 405.697 9.52009 408.998 10.7977L411.164 5.20229C407.438 3.7599 403.41 2.68953 399.092 1.97972L398.119 7.90026ZM409.052 10.8181C412.428 12.0506 415.515 13.57 418.321 15.3701L421.561 10.3199C418.36 8.26669 414.873 6.556 411.11 5.18192L409.052 10.8181ZM418.355 15.3917C421.203 17.1651 423.862 19.1793 426.333 21.4355L430.379 17.0045C427.636 14.5007 424.685 12.2649 421.526 10.2983L418.355 15.3917ZM425.812 17.63L421.137 25.11L426.225 28.29L430.9 20.81L425.812 17.63ZM421.142 25.1016C420.611 25.9442 420.239 25.995 419.941 25.995V31.995C422.703 31.995 424.823 30.5158 426.219 28.2984L421.142 25.1016ZM419.941 25.995C419.723 25.995 419.251 25.9168 418.469 25.4637L415.463 30.6563C416.833 31.4499 418.346 31.995 419.941 31.995V25.995ZM418.432 25.4425C417.082 24.6869 415.55 23.7576 413.832 22.6491L410.579 27.6909C412.374 28.849 414.016 29.8465 415.5 30.6775L418.432 25.4425ZM413.832 22.6491C411.872 21.3848 409.537 20.2252 406.86 19.1546L404.632 24.7254C407.055 25.6947 409.026 26.6886 410.579 27.6909L413.832 22.6491ZM406.935 19.1858C404.215 18.0114 401.042 17.0522 397.446 16.2859L396.195 22.1541C399.513 22.8611 402.289 23.7153 404.556 24.6942L406.935 19.1858ZM397.456 16.288C393.789 15.4935 389.513 15.115 384.666 15.115V21.115C389.225 21.115 393.052 21.4732 396.185 22.152L397.456 16.288ZM384.666 15.115C377.475 15.115 370.878 16.3044 364.917 18.7375L367.184 24.2925C372.33 22.1923 378.143 21.115 384.666 21.115V15.115ZM364.941 18.7276C358.994 21.0944 353.887 24.5426 349.662 29.0741L354.05 33.1659C357.645 29.3107 362.001 26.3556 367.16 24.3024L364.941 18.7276ZM349.676 29.0592C345.447 33.5327 342.237 38.95 340.016 45.2529L345.675 47.247C347.647 41.65 350.444 36.9806 354.036 33.1807L349.676 29.0592ZM340.019 45.2444C337.789 51.5122 336.701 58.4902 336.701 66.14H342.701C342.701 59.0565 343.709 52.7744 345.672 47.2556L340.019 45.2444ZM336.701 66.14C336.701 74.123 337.816 81.3567 340.104 87.799L345.758 85.791C343.739 80.1067 342.701 73.5703 342.701 66.14H336.701ZM340.115 87.8309C342.45 94.1774 345.741 99.6374 350.016 104.157L354.375 100.033C350.717 96.166 347.831 91.426 345.746 85.7591L340.115 87.8309ZM350.016 104.157C354.283 108.667 359.346 112.111 365.177 114.479L367.435 108.921C362.385 106.869 358.042 103.91 354.375 100.033L350.016 104.157ZM365.177 114.479C371.016 116.852 377.411 118.015 384.326 118.015V112.015C378.093 112.015 372.476 110.968 367.435 108.921L365.177 114.479ZM587.941 127V130H592.371L590.726 125.886L587.941 127ZM571.621 125.895L569.729 128.223L571.621 125.895ZM569.581 123.09L566.783 124.173L566.789 124.189L566.795 124.204L569.581 123.09ZM558.191 93.68L560.988 92.5966L560.246 90.68H558.191V93.68ZM503.536 93.68V90.68H501.48L500.738 92.5966L503.536 93.68ZM492.146 123.09L494.942 124.177L494.943 124.173L492.146 123.09ZM473.786 127L471 125.886L469.355 130H473.786V127ZM522.491 5.19499V2.19499H520.459L519.705 4.08115L522.491 5.19499ZM539.236 5.19499L542.021 4.08115L541.267 2.19499H539.236V5.19499ZM508.126 81.78L505.327 80.6982L503.749 84.78H508.126V81.78ZM553.601 81.78V84.78H557.974L556.399 80.6998L553.601 81.78ZM534.476 32.225L537.274 31.1448L537.264 31.1189L537.254 31.0931L534.476 32.225ZM530.821 20.75L533.725 19.9971L530.87 8.98763L527.923 19.9726L530.821 20.75ZM528.951 27.21L526.089 26.3105L526.08 26.3369L526.072 26.3635L528.951 27.21ZM527.251 32.31L530.049 33.3918L530.051 33.3869L527.251 32.31ZM587.941 124H575.191V130H587.941V124ZM575.191 124C574.222 124 573.757 123.765 573.512 123.567L569.729 128.223C571.297 129.498 573.212 130 575.191 130V124ZM573.512 123.567C573.02 123.167 572.638 122.657 572.366 121.976L566.795 124.204C567.429 125.79 568.408 127.15 569.729 128.223L573.512 123.567ZM572.378 122.007L560.988 92.5966L555.393 94.7634L566.783 124.173L572.378 122.007ZM558.191 90.68H503.536V96.68H558.191V90.68ZM500.738 92.5966L489.348 122.007L494.943 124.173L506.333 94.7634L500.738 92.5966ZM489.35 122.003C489.164 122.48 488.822 122.981 488.198 123.494L492.013 128.126C493.316 127.052 494.334 125.74 494.942 124.177L489.35 122.003ZM488.198 123.494C487.844 123.786 487.356 124 486.536 124V130C488.548 130 490.44 129.421 492.013 128.126L488.198 123.494ZM486.536 124H473.786V130H486.536V124ZM476.571 128.114L525.276 6.30883L519.705 4.08115L471 125.886L476.571 128.114ZM522.491 8.19499H539.236V2.19499H522.491V8.19499ZM536.45 6.30883L585.155 128.114L590.726 125.886L542.021 4.08115L536.45 6.30883ZM508.126 84.78H553.601V78.78H508.126V84.78ZM556.399 80.6998L537.274 31.1448L531.677 33.3052L550.802 82.8602L556.399 80.6998ZM537.254 31.0931C536.074 28.1968 534.894 24.5085 533.725 19.9971L527.917 21.5029C529.127 26.1715 530.384 30.1332 531.697 33.3569L537.254 31.0931ZM527.923 19.9726C527.309 22.2612 526.697 24.3733 526.089 26.3105L531.813 28.1095C532.45 26.08 533.085 23.8855 533.718 21.5274L527.923 19.9726ZM526.072 26.3635C525.523 28.2321 524.982 29.8525 524.451 31.2331L530.051 33.3869C530.653 31.8208 531.245 30.0412 531.829 28.0565L526.072 26.3635ZM524.452 31.2282L505.327 80.6982L510.924 82.8618L530.049 33.3918L524.452 31.2282ZM615.002 5.78999L613.491 8.38133L613.615 8.45369L613.745 8.51387L615.002 5.78999ZM617.467 7.99999L619.846 6.17192L619.828 6.14874L619.81 6.1259L617.467 7.99999ZM688.017 99.8L685.639 101.628L692.239 110.217L690.998 99.4561L688.017 99.8ZM687.677 95.55L684.68 95.6699L684.68 95.6749L687.677 95.55ZM687.592 5.19499V2.19499H684.592V5.19499H687.592ZM702.042 5.19499H705.042V2.19499H702.042V5.19499ZM702.042 127V130H705.042V127H702.042ZM690.397 126.32L688.986 128.967L689.021 128.986L689.056 129.003L690.397 126.32ZM687.847 124.025L685.469 125.853L685.481 125.868L685.493 125.884L687.847 124.025ZM617.382 32.31L619.761 30.4822L613.583 22.4411L614.392 32.5492L617.382 32.31ZM617.637 36.475L620.635 36.3501L617.637 36.475ZM617.722 127V130H620.722V127H617.722ZM603.272 127H600.272V130H603.272V127ZM603.272 5.19499V2.19499H600.272V5.19499H603.272ZM611.772 8.19499C612.385 8.19499 612.832 8.23703 613.141 8.2941C613.462 8.35315 613.542 8.41134 613.491 8.38133L616.514 3.19865C615.127 2.38948 613.387 2.19499 611.772 2.19499V8.19499ZM613.745 8.51387C613.846 8.56016 614.314 8.86039 615.125 9.87408L619.81 6.1259C618.808 4.87292 617.633 3.69983 616.26 3.06612L613.745 8.51387ZM615.089 9.82806L685.639 101.628L690.396 97.9719L619.846 6.17192L615.089 9.82806ZM690.998 99.4561C690.835 98.0492 690.728 96.7058 690.675 95.4251L684.68 95.6749C684.74 97.1142 684.86 98.6042 685.037 100.144L690.998 99.4561ZM690.675 95.4301C690.62 94.0499 690.592 92.7301 690.592 91.47H684.592C684.592 92.8166 684.622 94.2167 684.68 95.6699L690.675 95.4301ZM690.592 91.47V5.19499H684.592V91.47H690.592ZM687.592 8.19499H702.042V2.19499H687.592V8.19499ZM699.042 5.19499V127H705.042V5.19499H699.042ZM702.042 124H693.712V130H702.042V124ZM693.712 124C692.746 124 692.128 123.831 691.739 123.637L689.056 129.003C690.481 129.716 692.072 130 693.712 130V124ZM691.809 123.673C691.445 123.479 690.896 123.045 690.202 122.166L685.493 125.884C686.499 127.158 687.65 128.255 688.986 128.967L691.809 123.673ZM690.226 122.197L619.761 30.4822L615.003 34.1377L685.469 125.853L690.226 122.197ZM614.392 32.5492C614.502 33.9295 614.585 35.2797 614.64 36.5999L620.635 36.3501C620.576 34.9503 620.489 33.5238 620.373 32.0708L614.392 32.5492ZM614.64 36.5999C614.695 37.9262 614.722 39.1306 614.722 40.215H620.722C620.722 39.0328 620.693 37.7438 620.635 36.3501L614.64 36.5999ZM614.722 40.215V127H620.722V40.215H614.722ZM617.722 124H603.272V130H617.722V124ZM606.272 127V5.19499H600.272V127H606.272ZM603.272 8.19499H611.772V2.19499H603.272V8.19499ZM820.764 110.255L822.896 112.365L820.764 110.255ZM801.809 122.665L802.904 125.458L802.913 125.454L802.923 125.45L801.809 122.665ZM731.768 127H728.768V130H731.768V127ZM731.768 5.19499V2.19499H728.768V5.19499H731.768ZM801.809 9.615L800.694 12.4004L800.704 12.4041L800.713 12.4078L801.809 9.615ZM820.764 22.025L818.62 24.1236L818.625 24.1293L818.631 24.1349L820.764 22.025ZM833.004 41.235L835.802 40.1538L833.004 41.235ZM817.364 46.08L820.198 45.0987V45.0987L817.364 46.08ZM808.694 31.12L806.482 33.1472L808.694 31.12ZM748.344 18.54V15.54H745.344V18.54H748.344ZM748.344 113.655H745.344V116.655H748.344V113.655ZM808.694 101.16L810.891 103.203L810.898 103.195L810.905 103.187L808.694 101.16ZM817.364 86.2L820.198 87.1813V87.1813L817.364 86.2ZM834.339 66.14C834.339 74.944 832.945 82.8728 830.205 89.9638L835.802 92.1262C838.842 84.2572 840.339 75.5826 840.339 66.14H834.339ZM830.205 89.9638C827.453 97.0861 823.591 103.132 818.631 108.145L822.896 112.365C828.476 106.725 832.774 99.9639 835.802 92.1262L830.205 89.9638ZM818.631 108.145C813.667 113.162 807.702 117.077 800.694 119.88L802.923 125.45C810.649 122.36 817.32 118.001 822.896 112.365L818.631 108.145ZM800.713 119.872C793.738 122.608 785.956 124 777.328 124V130C786.608 130 795.146 128.502 802.904 125.458L800.713 119.872ZM777.328 124H731.768V130H777.328V124ZM734.768 127V5.19499H728.768V127H734.768ZM731.768 8.19499H777.328V2.19499H731.768V8.19499ZM777.328 8.19499C785.949 8.19499 793.725 9.61255 800.694 12.4004L802.923 6.82957C795.159 3.7241 786.615 2.19499 777.328 2.19499V8.19499ZM800.713 12.4078C807.705 15.151 813.661 19.0583 818.62 24.1236L822.907 19.9264C817.326 14.225 810.645 9.85901 802.904 6.82222L800.713 12.4078ZM818.631 24.1349C823.591 29.148 827.453 35.1939 830.205 42.3162L835.802 40.1538C832.774 32.3161 828.476 25.5554 822.896 19.9151L818.631 24.1349ZM830.205 42.3162C832.945 49.4072 834.339 57.336 834.339 66.14H840.339C840.339 56.6974 838.842 48.0228 835.802 40.1538L830.205 42.3162ZM823.424 66.14C823.424 58.3906 822.367 51.3634 820.198 45.0987L814.529 47.0613C816.44 52.5832 817.424 58.9294 817.424 66.14H823.424ZM820.198 45.0987C818.041 38.8669 814.955 33.5112 810.905 29.0928L806.482 33.1472C809.912 36.8888 812.606 41.5065 814.529 47.0613L820.198 45.0987ZM810.905 29.0928C806.852 24.671 801.942 21.3028 796.218 18.9887L793.969 24.5513C798.898 26.5439 803.055 29.409 806.482 33.1472L810.905 29.0928ZM796.218 18.9887C790.489 16.6728 784.179 15.54 777.328 15.54V21.54C783.511 21.54 789.044 22.5605 793.969 24.5513L796.218 18.9887ZM777.328 15.54H748.344V21.54H777.328V15.54ZM745.344 18.54V113.655H751.344V18.54H745.344ZM748.344 116.655H777.328V110.655H748.344V116.655ZM777.328 116.655C784.179 116.655 790.489 115.522 796.218 113.206L793.969 107.644C789.044 109.634 783.511 110.655 777.328 110.655V116.655ZM796.218 113.206C801.933 110.896 806.838 107.563 810.891 103.203L806.496 99.1175C803.069 102.804 798.908 105.647 793.969 107.644L796.218 113.206ZM810.905 103.187C814.955 98.7688 818.041 93.4131 820.198 87.1813L814.529 85.2187C812.606 90.7735 809.912 95.3912 806.482 99.1328L810.905 103.187ZM820.198 87.1813C822.367 80.9166 823.424 73.8894 823.424 66.14H817.424C817.424 73.3506 816.44 79.6968 814.529 85.2187L820.198 87.1813ZM967.693 5.19499H970.693V2.19499H967.693V5.19499ZM967.693 18.625V21.625H970.693V18.625H967.693ZM909.213 18.625V15.625H906.213V18.625H909.213ZM909.213 59.085H906.213V62.085H909.213V59.085ZM956.558 59.085H959.558V56.085H956.558V59.085ZM956.558 72.005V75.005H959.558V72.005H956.558ZM909.213 72.005V69.005H906.213V72.005H909.213ZM909.213 113.57H906.213V116.57H909.213V113.57ZM967.693 113.57H970.693V110.57H967.693V113.57ZM967.693 127V130H970.693V127H967.693ZM892.638 127H889.638V130H892.638V127ZM892.638 5.19499V2.19499H889.638V5.19499H892.638ZM964.693 5.19499V18.625H970.693V5.19499H964.693ZM967.693 15.625H909.213V21.625H967.693V15.625ZM906.213 18.625V59.085H912.213V18.625H906.213ZM909.213 62.085H956.558V56.085H909.213V62.085ZM953.558 59.085V72.005H959.558V59.085H953.558ZM956.558 69.005H909.213V75.005H956.558V69.005ZM906.213 72.005V113.57H912.213V72.005H906.213ZM909.213 116.57H967.693V110.57H909.213V116.57ZM964.693 113.57V127H970.693V113.57H964.693ZM967.693 124H892.638V130H967.693V124ZM895.638 127V5.19499H889.638V127H895.638ZM892.638 8.19499H967.693V2.19499H892.638V8.19499ZM977.307 5.19499V2.19499H972.845L974.529 6.32719L977.307 5.19499ZM996.092 9.10499L993.307 10.2192L993.307 10.2206L996.092 9.10499ZM1030.52 95.04L1027.73 96.1556L1027.74 96.1689L1027.74 96.1823L1030.52 95.04ZM1032.64 101.33L1029.75 102.125L1029.76 102.159L1029.77 102.192L1032.64 101.33ZM1034.6 108.385L1031.69 109.128L1037.53 109L1034.6 108.385ZM1036.21 101.33L1033.32 100.535L1033.31 100.568L1033.3 100.602L1036.21 101.33ZM1038.34 95.04L1041.11 96.1823L1041.12 96.1666L1041.12 96.1508L1038.34 95.04ZM1072.59 9.10499L1069.82 7.96275L1069.81 7.97841L1069.81 7.99415L1072.59 9.10499ZM1074.63 6.46999L1076.54 8.78577L1076.58 8.7533L1076.62 8.71951L1074.63 6.46999ZM1091.46 5.19499L1094.24 6.32719L1095.92 2.19499H1091.46V5.19499ZM1041.82 127V130H1043.84L1044.6 128.132L1041.82 127ZM1026.95 127L1024.17 128.132L1024.93 130H1026.95V127ZM977.307 8.19499H990.482V2.19499H977.307V8.19499ZM990.482 8.19499C991.45 8.19499 991.915 8.4295 992.16 8.62833L995.944 3.97165C994.375 2.69715 992.46 2.19499 990.482 2.19499V8.19499ZM992.16 8.62833C992.652 9.02826 993.034 9.53793 993.307 10.2192L998.877 7.99082C998.243 6.40539 997.265 5.04506 995.944 3.97165L992.16 8.62833ZM993.307 10.2206L1027.73 96.1556L1033.3 93.9244L998.877 7.9894L993.307 10.2206ZM1027.74 96.1823C1028.48 97.9826 1029.15 99.962 1029.75 102.125L1035.53 100.535C1034.88 98.1646 1034.14 95.9507 1033.29 93.8978L1027.74 96.1823ZM1029.77 102.192C1030.44 104.417 1031.08 106.729 1031.69 109.128L1037.5 107.641C1036.87 105.168 1036.21 102.776 1035.52 100.468L1029.77 102.192ZM1037.53 109C1038.04 106.598 1038.57 104.284 1039.12 102.058L1033.3 100.602C1032.72 102.909 1032.18 105.298 1031.66 107.77L1037.53 109ZM1039.1 102.125C1039.7 99.962 1040.37 97.9826 1041.11 96.1823L1035.56 93.8978C1034.72 95.9507 1033.97 98.1646 1033.32 100.535L1039.1 102.125ZM1041.12 96.1508L1075.38 10.2158L1069.81 7.99415L1035.55 93.9292L1041.12 96.1508ZM1075.37 10.2472C1075.54 9.82264 1075.88 9.32705 1076.54 8.78577L1072.72 4.15421C1071.46 5.19961 1070.44 6.46069 1069.82 7.96275L1075.37 10.2472ZM1076.62 8.71951C1076.97 8.40409 1077.44 8.19499 1078.2 8.19499V2.19499C1076.14 2.19499 1074.22 2.8359 1072.65 4.22047L1076.62 8.71951ZM1078.2 8.19499H1091.46V2.19499H1078.2V8.19499ZM1088.68 4.06279L1039.04 125.868L1044.6 128.132L1094.24 6.32719L1088.68 4.06279ZM1041.82 124H1026.95V130H1041.82V124ZM1029.73 125.868L980.085 4.06279L974.529 6.32719L1024.17 128.132L1029.73 125.868ZM1182.02 5.19499H1185.02V2.19499H1182.02V5.19499ZM1182.02 18.625V21.625H1185.02V18.625H1182.02ZM1123.54 18.625V15.625H1120.54V18.625H1123.54ZM1123.54 59.085H1120.54V62.085H1123.54V59.085ZM1170.88 59.085H1173.88V56.085H1170.88V59.085ZM1170.88 72.005V75.005H1173.88V72.005H1170.88ZM1123.54 72.005V69.005H1120.54V72.005H1123.54ZM1123.54 113.57H1120.54V116.57H1123.54V113.57ZM1182.02 113.57H1185.02V110.57H1182.02V113.57ZM1182.02 127V130H1185.02V127H1182.02ZM1106.96 127H1103.96V130H1106.96V127ZM1106.96 5.19499V2.19499H1103.96V5.19499H1106.96ZM1179.02 5.19499V18.625H1185.02V5.19499H1179.02ZM1182.02 15.625H1123.54V21.625H1182.02V15.625ZM1120.54 18.625V59.085H1126.54V18.625H1120.54ZM1123.54 62.085H1170.88V56.085H1123.54V62.085ZM1167.88 59.085V72.005H1173.88V59.085H1167.88ZM1170.88 69.005H1123.54V75.005H1170.88V69.005ZM1120.54 72.005V113.57H1126.54V72.005H1120.54ZM1123.54 116.57H1182.02V110.57H1123.54V116.57ZM1179.02 113.57V127H1185.02V113.57H1179.02ZM1182.02 124H1106.96V130H1182.02V124ZM1109.96 127V5.19499H1103.96V127H1109.96ZM1106.96 8.19499H1182.02V2.19499H1106.96V8.19499ZM1217.47 5.78999L1215.96 8.38133L1216.09 8.45369L1216.22 8.51387L1217.47 5.78999ZM1219.94 7.99999L1222.32 6.17192L1222.3 6.14874L1222.28 6.1259L1219.94 7.99999ZM1290.49 99.8L1288.11 101.628L1294.71 110.217L1293.47 99.4561L1290.49 99.8ZM1290.15 95.55L1287.15 95.6699L1287.15 95.6749L1290.15 95.55ZM1290.06 5.19499V2.19499H1287.06V5.19499H1290.06ZM1304.51 5.19499H1307.51V2.19499H1304.51V5.19499ZM1304.51 127V130H1307.51V127H1304.51ZM1292.87 126.32L1291.46 128.967L1291.49 128.986L1291.53 129.003L1292.87 126.32ZM1290.32 124.025L1287.94 125.853L1287.95 125.868L1287.96 125.884L1290.32 124.025ZM1219.85 32.31L1222.23 30.4822L1216.05 22.4411L1216.86 32.5492L1219.85 32.31ZM1220.11 36.475L1223.11 36.3501L1220.11 36.475ZM1220.19 127V130H1223.19V127H1220.19ZM1205.74 127H1202.74V130H1205.74V127ZM1205.74 5.19499V2.19499H1202.74V5.19499H1205.74ZM1214.24 8.19499C1214.86 8.19499 1215.3 8.23703 1215.61 8.2941C1215.93 8.35315 1216.01 8.41134 1215.96 8.38133L1218.98 3.19865C1217.6 2.38948 1215.86 2.19499 1214.24 2.19499V8.19499ZM1216.22 8.51387C1216.32 8.56016 1216.78 8.86039 1217.6 9.87408L1222.28 6.1259C1221.28 4.87292 1220.1 3.69983 1218.73 3.06612L1216.22 8.51387ZM1217.56 9.82806L1288.11 101.628L1292.87 97.9719L1222.32 6.17192L1217.56 9.82806ZM1293.47 99.4561C1293.31 98.0492 1293.2 96.7058 1293.15 95.4251L1287.15 95.6749C1287.21 97.1142 1287.33 98.6042 1287.51 100.144L1293.47 99.4561ZM1293.15 95.4301C1293.09 94.0499 1293.06 92.7301 1293.06 91.47H1287.06C1287.06 92.8166 1287.09 94.2167 1287.15 95.6699L1293.15 95.4301ZM1293.06 91.47V5.19499H1287.06V91.47H1293.06ZM1290.06 8.19499H1304.51V2.19499H1290.06V8.19499ZM1301.51 5.19499V127H1307.51V5.19499H1301.51ZM1304.51 124H1296.18V130H1304.51V124ZM1296.18 124C1295.22 124 1294.6 123.831 1294.21 123.637L1291.53 129.003C1292.95 129.716 1294.54 130 1296.18 130V124ZM1294.28 123.673C1293.92 123.479 1293.37 123.045 1292.67 122.166L1287.96 125.884C1288.97 127.158 1290.12 128.255 1291.46 128.967L1294.28 123.673ZM1292.7 122.197L1222.23 30.4822L1217.47 34.1377L1287.94 125.853L1292.7 122.197ZM1216.86 32.5492C1216.97 33.9295 1217.06 35.2797 1217.11 36.5999L1223.11 36.3501C1223.05 34.9503 1222.96 33.5238 1222.84 32.0708L1216.86 32.5492ZM1217.11 36.5999C1217.17 37.9262 1217.19 39.1306 1217.19 40.215H1223.19C1223.19 39.0328 1223.16 37.7438 1223.11 36.3501L1217.11 36.5999ZM1217.19 40.215V127H1223.19V40.215H1217.19ZM1220.19 124H1205.74V130H1220.19V124ZM1208.74 127V5.19499H1202.74V127H1208.74ZM1205.74 8.19499H1214.24V2.19499H1205.74V8.19499ZM1417.2 5.19499H1420.2V2.19499H1417.2V5.19499ZM1417.2 19.05V22.05H1420.2V19.05H1417.2ZM1377.84 19.05V16.05H1374.84V19.05H1377.84ZM1377.84 127V130H1380.84V127H1377.84ZM1361.35 127H1358.35V130H1361.35V127ZM1361.35 19.05H1364.35V16.05H1361.35V19.05ZM1321.83 19.05H1318.83V22.05H1321.83V19.05ZM1321.83 5.19499V2.19499H1318.83V5.19499H1321.83ZM1414.2 5.19499V19.05H1420.2V5.19499H1414.2ZM1417.2 16.05H1377.84V22.05H1417.2V16.05ZM1374.84 19.05V127H1380.84V19.05H1374.84ZM1377.84 124H1361.35V130H1377.84V124ZM1364.35 127V19.05H1358.35V127H1364.35ZM1361.35 16.05H1321.83V22.05H1361.35V16.05ZM1324.83 19.05V5.19499H1318.83V19.05H1324.83ZM1321.83 8.19499H1417.2V2.19499H1321.83V8.19499ZM1496.9 24.235L1499.48 25.7785L1499.53 25.6908L1499.57 25.5998L1496.9 24.235ZM1495.29 26.19L1497.01 28.6477L1497.09 28.5926L1497.16 28.5326L1495.29 26.19ZM1489.68 25.34L1487.84 27.7138L1487.87 27.7335L1487.89 27.7525L1489.68 25.34ZM1484.83 22.195L1483.26 24.7474L1483.3 24.7743L1483.34 24.7997L1484.83 22.195ZM1477.78 18.965L1476.78 21.7929L1476.79 21.7961L1476.79 21.7993L1477.78 18.965ZM1458.06 19.05L1459.02 21.8903L1459.05 21.8817L1459.07 21.8727L1458.06 19.05ZM1450.92 23.045L1448.93 20.7955L1448.92 20.8102L1448.9 20.8252L1450.92 23.045ZM1446.67 29.08L1449.43 30.2534L1449.43 30.2412L1449.44 30.229L1446.67 29.08ZM1447.69 44.975L1445.26 46.7359L1445.28 46.7704L1445.31 46.8041L1447.69 44.975ZM1454.32 50.67L1452.81 53.2613L1452.82 53.2681L1452.83 53.2747L1454.32 50.67ZM1463.67 54.835L1462.69 57.6716L1462.72 57.6811L1462.75 57.6901L1463.67 54.835ZM1474.38 58.405L1473.4 61.2421L1473.41 61.2444L1473.42 61.2466L1474.38 58.405ZM1485.09 62.655L1483.84 65.3815L1483.86 65.3938L1483.89 65.4055L1485.09 62.655ZM1494.44 68.52L1492.46 70.7777L1492.47 70.7878L1492.49 70.7978L1494.44 68.52ZM1501.07 77.275L1498.36 78.5631L1498.37 78.5811L1498.38 78.599L1501.07 77.275ZM1500.9 105.07L1503.69 106.161L1503.7 106.149L1500.9 105.07ZM1492.91 117.225L1490.8 115.087L1490.79 115.095L1490.79 115.104L1492.91 117.225ZM1480.07 125.385L1478.99 122.589L1478.97 122.593L1480.07 125.385ZM1441.23 124.11L1440 126.848L1440.02 126.855L1440.03 126.861L1441.23 124.11ZM1424.65 112.465L1422.09 110.905L1420.9 112.858L1422.47 114.522L1424.65 112.465ZM1429.41 104.645L1426.99 102.88L1426.91 102.98L1426.85 103.085L1429.41 104.645ZM1431.03 103.115L1432.64 105.646L1432.67 105.629L1432.69 105.611L1431.03 103.115ZM1437.32 104.39L1435.37 106.674L1435.4 106.695L1435.42 106.716L1437.32 104.39ZM1443.01 108.555L1441.33 111.042L1441.35 111.051L1441.36 111.061L1443.01 108.555ZM1451.34 112.805L1450.22 115.587L1450.25 115.599L1450.28 115.61L1451.34 112.805ZM1473.78 113.06L1474.78 115.89L1473.78 113.06ZM1481.52 108.555L1483.55 110.764L1483.55 110.762L1481.52 108.555ZM1486.45 101.5L1483.68 100.346V100.346L1486.45 101.5ZM1485.6 83.395L1483.13 85.0996L1483.15 85.1334L1483.18 85.1665L1485.6 83.395ZM1479.05 77.445L1477.54 80.0363L1479.05 77.445ZM1469.7 73.45L1468.77 76.3007L1468.8 76.3098L1468.82 76.3183L1469.7 73.45ZM1458.99 70.05L1458.06 72.9005L1458.08 72.9091L1458.11 72.9173L1458.99 70.05ZM1448.28 65.97L1447.07 68.7133L1447.08 68.7169L1447.08 68.7205L1448.28 65.97ZM1439.02 60.02L1441.02 57.7855L1439.02 60.02ZM1432.39 50.925L1429.65 52.1473L1429.66 52.1729L1429.67 52.1983L1432.39 50.925ZM1432.39 24.83L1429.62 23.6623L1429.62 23.6789L1429.61 23.6956L1432.39 24.83ZM1439.7 14.12L1437.6 11.9796V11.9797L1439.7 14.12ZM1451.43 6.64L1450.32 3.85223L1450.31 3.85691L1451.43 6.64ZM1486.19 7.065L1485.12 9.86576L1486.19 7.065ZM1500.9 16.415L1503.57 17.7798L1504.58 15.8085L1502.99 14.2648L1500.9 16.415ZM1494.33 22.6915C1493.94 23.3401 1493.62 23.6819 1493.41 23.8474L1497.16 28.5326C1498.09 27.7914 1498.84 26.8299 1499.48 25.7785L1494.33 22.6915ZM1493.57 23.7323C1493.64 23.681 1493.56 23.785 1493.08 23.785V29.785C1494.41 29.785 1495.8 29.4924 1497.01 28.6477L1493.57 23.7323ZM1493.08 23.785C1493.09 23.785 1492.97 23.788 1492.68 23.6628C1492.38 23.5374 1491.98 23.3106 1491.46 22.9275L1487.89 27.7525C1489.4 28.8618 1491.17 29.785 1493.08 29.785V23.785ZM1491.51 22.9661C1490.12 21.8895 1488.38 20.7648 1486.32 19.5903L1483.34 24.7997C1485.26 25.8919 1486.74 26.8638 1487.84 27.7138L1491.51 22.9661ZM1486.41 19.6426C1484.25 18.309 1481.69 17.146 1478.76 16.1307L1476.79 21.7993C1479.42 22.7107 1481.56 23.701 1483.26 24.7474L1486.41 19.6426ZM1478.78 16.1371C1475.65 15.0274 1471.97 14.52 1467.83 14.52V20.52C1471.51 20.52 1474.47 20.9759 1476.78 21.7929L1478.78 16.1371ZM1467.83 14.52C1463.88 14.52 1460.26 15.0671 1457.04 16.2273L1459.07 21.8727C1461.52 20.9929 1464.42 20.52 1467.83 20.52V14.52ZM1457.09 16.2097C1453.94 17.2799 1451.2 18.7936 1448.93 20.7955L1452.9 25.2945C1454.49 23.8964 1456.5 22.7468 1459.02 21.8903L1457.09 16.2097ZM1448.9 20.8252C1446.7 22.8208 1445.03 25.1976 1443.9 27.9309L1449.44 30.229C1450.23 28.3158 1451.39 26.6692 1452.94 25.2648L1448.9 20.8252ZM1443.91 27.9066C1442.77 30.5737 1442.22 33.4416 1442.22 36.475H1448.22C1448.22 34.1817 1448.64 32.1196 1449.43 30.2534L1443.91 27.9066ZM1442.22 36.475C1442.22 40.3691 1443.17 43.8555 1445.26 46.7359L1450.12 43.2141C1448.92 41.5612 1448.22 39.3809 1448.22 36.475H1442.22ZM1445.31 46.8041C1447.28 49.3592 1449.79 51.5042 1452.81 53.2613L1455.83 48.0787C1453.4 46.6624 1451.5 45.0108 1450.07 43.1459L1445.31 46.8041ZM1452.83 53.2747C1455.79 54.9666 1459.08 56.429 1462.69 57.6716L1464.64 51.9984C1461.34 50.861 1458.4 49.5467 1455.81 48.0653L1452.83 53.2747ZM1462.75 57.6901C1466.24 58.8174 1469.79 60.0013 1473.4 61.2421L1475.35 55.5679C1471.71 54.3153 1468.12 53.1193 1464.59 51.9799L1462.75 57.6901ZM1473.42 61.2466C1477 62.4607 1480.48 63.8392 1483.84 65.3815L1486.34 59.9285C1482.79 58.2975 1479.12 56.8426 1475.34 55.5633L1473.42 61.2466ZM1483.89 65.4055C1487.14 66.8197 1489.99 68.613 1492.46 70.7777L1496.41 66.2623C1493.45 63.667 1490.06 61.5503 1486.29 59.9045L1483.89 65.4055ZM1492.49 70.7978C1494.93 72.8918 1496.89 75.4676 1498.36 78.5631L1503.78 75.9869C1501.96 72.1691 1499.5 68.9082 1496.39 66.2422L1492.49 70.7978ZM1498.38 78.599C1499.82 81.5366 1500.62 85.3043 1500.62 90.025H1506.62C1506.62 84.659 1505.71 79.9267 1503.76 75.951L1498.38 78.599ZM1500.62 90.025C1500.62 95.0038 1499.77 99.651 1498.1 103.991L1503.7 106.149C1505.65 101.082 1506.62 95.6995 1506.62 90.025H1500.62ZM1498.1 103.979C1496.44 108.237 1494.01 111.93 1490.8 115.087L1495.01 119.363C1498.83 115.606 1501.73 111.196 1503.69 106.161L1498.1 103.979ZM1490.79 115.104C1487.66 118.233 1483.74 120.738 1478.99 122.589L1481.16 128.181C1486.6 126.065 1491.24 123.13 1495.03 119.346L1490.79 115.104ZM1478.97 122.593C1474.34 124.415 1468.97 125.36 1462.82 125.36V131.36C1469.58 131.36 1475.72 130.321 1481.17 128.177L1478.97 122.593ZM1462.82 125.36C1455.31 125.36 1448.52 124.011 1442.42 121.359L1440.03 126.861C1446.96 129.876 1454.57 131.36 1462.82 131.36V125.36ZM1442.45 121.372C1436.33 118.634 1431.14 114.977 1426.84 110.408L1422.47 114.522C1427.35 119.7 1433.2 123.806 1440 126.848L1442.45 121.372ZM1427.22 114.025L1431.98 106.205L1426.85 103.085L1422.09 110.905L1427.22 114.025ZM1431.84 106.41C1432.08 106.077 1432.35 105.832 1432.64 105.646L1429.42 100.584C1428.46 101.191 1427.65 101.966 1426.99 102.88L1431.84 106.41ZM1432.69 105.611C1432.89 105.476 1433.06 105.435 1433.24 105.435V99.435C1431.83 99.435 1430.52 99.8475 1429.36 100.619L1432.69 105.611ZM1433.24 105.435C1433.37 105.435 1434.04 105.54 1435.37 106.674L1439.26 102.106C1437.53 100.633 1435.49 99.435 1433.24 99.435V105.435ZM1435.42 106.716C1437.04 108.036 1439.02 109.479 1441.33 111.042L1444.69 106.068C1442.47 104.571 1440.65 103.237 1439.21 102.064L1435.42 106.716ZM1441.36 111.061C1443.89 112.723 1446.85 114.227 1450.22 115.587L1452.47 110.023C1449.38 108.776 1446.78 107.447 1444.66 106.049L1441.36 111.061ZM1450.28 115.61C1454 117.021 1458.38 117.675 1463.33 117.675V111.675C1458.87 111.675 1455.26 111.082 1452.41 110L1450.28 115.61ZM1463.33 117.675C1467.51 117.675 1471.34 117.1 1474.78 115.89L1472.79 110.23C1470.1 111.174 1466.97 111.675 1463.33 111.675V117.675ZM1474.78 115.89C1478.17 114.697 1481.11 113.001 1483.55 110.764L1479.49 106.346C1477.73 107.962 1475.52 109.27 1472.79 110.23L1474.78 115.89ZM1483.55 110.762C1486.02 108.483 1487.92 105.771 1489.22 102.654L1483.68 100.346C1482.71 102.669 1481.32 104.661 1479.49 106.348L1483.55 110.762ZM1489.22 102.654C1490.52 99.5222 1491.15 96.0913 1491.15 92.405H1485.15C1485.15 95.4053 1484.64 98.0378 1483.68 100.346L1489.22 102.654ZM1491.15 92.405C1491.15 88.2634 1490.19 84.5885 1488.02 81.6235L1483.18 85.1665C1484.41 86.8482 1485.15 89.1799 1485.15 92.405H1491.15ZM1488.07 81.6904C1486.15 78.917 1483.63 76.6422 1480.56 74.8537L1477.54 80.0363C1479.92 81.4212 1481.76 83.113 1483.13 85.0996L1488.07 81.6904ZM1480.56 74.8537C1477.61 73.1332 1474.28 71.7151 1470.58 70.5817L1468.82 76.3183C1472.15 77.3383 1475.05 78.5835 1477.54 80.0363L1480.56 74.8537ZM1470.64 70.5993C1467.16 69.4599 1463.57 68.3211 1459.87 67.1827L1458.11 72.9173C1461.78 74.0456 1465.33 75.1734 1468.77 76.3007L1470.64 70.5993ZM1459.93 67.1995C1456.39 66.0388 1452.91 64.7122 1449.48 63.2195L1447.08 68.7205C1450.68 70.2878 1454.34 71.6811 1458.06 72.9005L1459.93 67.1995ZM1449.5 63.2267C1446.32 61.8195 1443.5 60.005 1441.02 57.7855L1437.02 62.2545C1439.98 64.9083 1443.33 67.0605 1447.07 68.7133L1449.5 63.2267ZM1441.02 57.7855C1438.63 55.643 1436.65 52.9487 1435.1 49.6517L1429.67 52.1983C1431.53 56.1546 1433.97 59.5237 1437.02 62.2545L1441.02 57.7855ZM1435.13 49.7027C1433.7 46.5098 1432.92 42.4209 1432.92 37.325H1426.92C1426.92 42.9958 1427.79 47.9735 1429.65 52.1473L1435.13 49.7027ZM1432.92 37.325C1432.92 33.4109 1433.67 29.631 1435.16 25.9644L1429.61 23.6956C1427.82 28.0757 1426.92 32.6257 1426.92 37.325H1432.92ZM1435.15 25.9977C1436.69 22.3458 1438.9 19.1048 1441.8 16.2603L1437.6 11.9797C1434.15 15.3685 1431.48 19.2675 1429.62 23.6623L1435.15 25.9977ZM1441.8 16.2603C1444.66 13.4533 1448.22 11.1641 1452.55 9.42308L1450.31 3.85691C1445.34 5.85585 1441.08 8.55335 1437.6 11.9796L1441.8 16.2603ZM1452.54 9.42774C1456.82 7.72274 1461.82 6.83499 1467.58 6.83499V0.834991C1461.21 0.834991 1455.44 1.81724 1450.32 3.85226L1452.54 9.42774ZM1467.58 6.83499C1474.06 6.83499 1479.89 7.86029 1485.12 9.86576L1487.27 4.26423C1481.27 1.96303 1474.7 0.834991 1467.58 0.834991V6.83499ZM1485.12 9.86576C1490.36 11.8774 1494.91 14.7765 1498.81 18.5652L1502.99 14.2648C1498.5 9.89352 1493.25 6.55923 1487.27 4.26423L1485.12 9.86576ZM1498.23 15.0502L1494.23 22.8702L1499.57 25.5998L1503.57 17.7798L1498.23 15.0502Z"
     fill="#AEAEAE"
     id="path10"
     style="fill:#b3b3b3" />
</svg>
