<svg width="1193" height="128" viewBox="0 0 1193 128" fill="none" xmlns="http://www.w3.org/2000/svg">
<path d="M0.2 126V2.155H45.76C54.3167 2.155 61.5983 2.94833 67.605 4.535C73.6117 6.12166 78.5133 8.36 82.31 11.25C86.1067 14.14 88.855 17.6533 90.555 21.79C92.3117 25.9267 93.19 30.545 93.19 35.645C93.19 38.4217 92.7933 41.1133 92 43.72C91.2067 46.27 89.96 48.6783 88.26 50.945C86.56 53.2117 84.3783 55.28 81.715 57.15C79.0517 58.9633 75.85 60.55 72.11 61.91C80.27 63.8933 86.305 67.1233 90.215 71.6C94.125 76.02 96.08 81.715 96.08 88.685C96.08 93.955 95.06 98.8567 93.02 103.39C90.98 107.923 87.9767 111.89 84.01 115.29C80.1 118.633 75.255 121.268 69.475 123.195C63.695 125.065 57.0933 126 49.67 126H0.2ZM28.93 73.47V104.325H49.16C52.9567 104.325 56.045 103.843 58.425 102.88C60.8617 101.917 62.76 100.67 64.12 99.14C65.48 97.61 66.415 95.8817 66.925 93.955C67.435 92.0283 67.69 90.0733 67.69 88.09C67.69 85.8233 67.3783 83.7833 66.755 81.97C66.1883 80.1567 65.1683 78.6267 63.695 77.38C62.2783 76.1333 60.38 75.17 58 74.49C55.62 73.81 52.6167 73.47 48.99 73.47H28.93ZM28.93 54.26H43.89C47.0633 54.26 49.925 54.0333 52.475 53.58C55.025 53.1267 57.1783 52.3333 58.935 51.2C60.7483 50.0667 62.1083 48.5083 63.015 46.525C63.9783 44.5417 64.46 42.0483 64.46 39.045C64.46 36.0983 64.0917 33.6617 63.355 31.735C62.6183 29.7517 61.485 28.165 59.955 26.975C58.425 25.785 56.47 24.935 54.09 24.425C51.7667 23.915 48.99 23.66 45.76 23.66H28.93V54.26ZM227.023 126H204.753C202.259 126 200.191 125.433 198.548 124.3C196.961 123.11 195.856 121.608 195.232 119.795L187.923 98.205H140.833L133.523 119.795C132.956 121.382 131.851 122.827 130.208 124.13C128.564 125.377 126.553 126 124.173 126H101.733L149.673 2.155H179.083L227.023 126ZM147.463 78.655H181.293L169.903 44.74C169.166 42.5867 168.288 40.065 167.268 37.175C166.304 34.2283 165.341 31.055 164.378 27.655C163.471 31.1117 162.536 34.3133 161.573 37.26C160.609 40.2067 159.703 42.7567 158.853 44.91L147.463 78.655ZM315.173 93.955C315.853 93.955 316.533 94.0967 317.213 94.38C317.893 94.6067 318.544 95.0317 319.168 95.655L330.558 107.64C325.571 114.157 319.309 119.087 311.773 122.43C304.293 125.717 295.424 127.36 285.168 127.36C275.761 127.36 267.318 125.773 259.838 122.6C252.414 119.37 246.096 114.95 240.883 109.34C235.726 103.673 231.759 96.9867 228.983 89.28C226.206 81.5167 224.818 73.1017 224.818 64.035C224.818 54.7983 226.404 46.3267 229.578 38.62C232.751 30.8567 237.171 24.17 242.838 18.56C248.561 12.95 255.389 8.58666 263.323 5.46999C271.256 2.35333 280.011 0.794996 289.588 0.794996C294.234 0.794996 298.598 1.22 302.678 2.06999C306.814 2.86332 310.668 3.99666 314.238 5.46999C317.808 6.88666 321.094 8.615 324.098 10.655C327.101 12.6383 329.764 14.8483 332.088 17.285L322.398 30.29C321.774 31.0833 321.038 31.82 320.188 32.5C319.338 33.1233 318.148 33.435 316.618 33.435C315.598 33.435 314.634 33.2083 313.728 32.755C312.821 32.3017 311.858 31.7633 310.838 31.14C309.818 30.46 308.684 29.7517 307.438 29.015C306.248 28.2217 304.803 27.5133 303.103 26.89C301.459 26.21 299.504 25.6433 297.238 25.19C295.028 24.7367 292.421 24.51 289.418 24.51C284.204 24.51 279.444 25.445 275.138 27.315C270.831 29.1283 267.119 31.7633 264.003 35.22C260.943 38.62 258.534 42.7567 256.778 47.63C255.078 52.5033 254.228 57.9717 254.228 64.035C254.228 70.3817 255.078 76.02 256.778 80.95C258.534 85.88 260.886 90.045 263.833 93.445C266.836 96.7883 270.321 99.3383 274.288 101.095C278.254 102.852 282.504 103.73 287.038 103.73C289.644 103.73 292.024 103.617 294.178 103.39C296.331 103.107 298.314 102.653 300.128 102.03C301.998 101.407 303.754 100.613 305.398 99.65C307.098 98.63 308.798 97.3833 310.498 95.91C311.178 95.3433 311.914 94.89 312.708 94.55C313.501 94.1533 314.323 93.955 315.173 93.955ZM372.416 52.305H377.006C381.256 52.305 384.316 50.9733 386.186 48.31L414.066 7.84999C415.596 5.64 417.325 4.13833 419.251 3.34499C421.235 2.55166 423.643 2.155 426.476 2.155H451.466L414.746 52.22C413.443 54.0333 412.083 55.535 410.666 56.725C409.25 57.915 407.805 58.9067 406.331 59.7C408.485 60.4933 410.44 61.5983 412.196 63.015C414.01 64.375 415.653 66.2167 417.126 68.54L454.526 126H428.856C427.213 126 425.796 125.887 424.606 125.66C423.473 125.433 422.481 125.093 421.631 124.64C420.781 124.187 420.045 123.648 419.421 123.025C418.798 122.345 418.203 121.58 417.636 120.73L389.586 77.635C388.566 76.0483 387.263 74.9433 385.676 74.32C384.146 73.64 382.05 73.3 379.386 73.3H372.416V126H343.686V2.155H372.416V52.305ZM520.864 105.26C524.83 105.26 528.344 104.92 531.404 104.24C534.464 103.56 537.354 102.653 540.074 101.52V82.735H527.834C526.02 82.735 524.604 82.2533 523.584 81.29C522.564 80.3267 522.054 79.1083 522.054 77.635V61.825H566.084V114.1C562.91 116.423 559.595 118.435 556.139 120.135C552.739 121.778 549.084 123.138 545.174 124.215C541.32 125.292 537.184 126.085 532.764 126.595C528.4 127.105 523.697 127.36 518.654 127.36C509.587 127.36 501.2 125.773 493.494 122.6C485.787 119.37 479.1 114.95 473.434 109.34C467.824 103.673 463.404 96.9867 460.174 89.28C457 81.5167 455.414 73.1017 455.414 64.035C455.414 54.7983 456.944 46.3267 460.004 38.62C463.064 30.8567 467.427 24.17 473.094 18.56C478.817 12.95 485.702 8.58666 493.749 5.46999C501.852 2.35333 510.89 0.794996 520.864 0.794996C526.02 0.794996 530.865 1.22 535.399 2.06999C539.932 2.91999 544.097 4.08166 547.894 5.555C551.747 7.02833 555.26 8.785 558.434 10.825C561.607 12.865 564.44 15.075 566.934 17.455L558.604 30.12C557.81 31.31 556.847 32.245 555.714 32.925C554.637 33.605 553.447 33.945 552.144 33.945C550.444 33.945 548.687 33.3783 546.874 32.245C544.607 30.885 542.454 29.7233 540.414 28.76C538.43 27.74 536.39 26.9183 534.294 26.295C532.197 25.6717 529.987 25.2183 527.664 24.935C525.34 24.6517 522.734 24.51 519.844 24.51C514.46 24.51 509.615 25.4733 505.309 27.4C501.002 29.27 497.319 31.9333 494.259 35.39C491.255 38.8467 488.932 43.0117 487.289 47.885C485.645 52.7017 484.824 58.085 484.824 64.035C484.824 70.6083 485.73 76.445 487.544 81.545C489.357 86.645 491.85 90.9517 495.024 94.465C498.254 97.9783 502.05 100.67 506.414 102.54C510.834 104.353 515.65 105.26 520.864 105.26ZM612.309 80.185V126H583.579V2.155H623.869C632.822 2.155 640.444 3.09 646.734 4.96C653.081 6.77333 658.237 9.32333 662.204 12.61C666.227 15.8967 669.146 19.7783 670.959 24.255C672.772 28.7317 673.679 33.605 673.679 38.875C673.679 42.8983 673.141 46.695 672.064 50.265C670.987 53.835 669.372 57.15 667.219 60.21C665.122 63.2133 662.516 65.905 659.399 68.285C656.339 70.665 652.797 72.62 648.774 74.15C650.701 75.1133 652.486 76.3033 654.129 77.72C655.829 79.1367 657.302 80.865 658.549 82.905L684.899 126H658.889C654.072 126 650.616 124.187 648.519 120.56L627.949 84.605C627.042 83.0183 625.966 81.885 624.719 81.205C623.529 80.525 621.829 80.185 619.619 80.185H612.309ZM612.309 60.38H623.869C627.779 60.38 631.094 59.8983 633.814 58.935C636.591 57.915 638.857 56.5267 640.614 54.77C642.371 53.0133 643.646 50.9733 644.439 48.65C645.232 46.27 645.629 43.72 645.629 41C645.629 35.56 643.844 31.31 640.274 28.25C636.761 25.19 631.292 23.66 623.869 23.66H612.309V60.38ZM814.549 64.035C814.549 72.9883 812.991 81.3183 809.874 89.025C806.814 96.7317 802.479 103.447 796.869 109.17C791.259 114.837 784.487 119.285 776.554 122.515C768.677 125.745 759.922 127.36 750.289 127.36C740.656 127.36 731.872 125.745 723.939 122.515C716.006 119.285 709.206 114.837 703.539 109.17C697.929 103.447 693.566 96.7317 690.449 89.025C687.389 81.3183 685.859 72.9883 685.859 64.035C685.859 55.0817 687.389 46.7517 690.449 39.045C693.566 31.3383 697.929 24.6517 703.539 18.985C709.206 13.3183 716.006 8.86999 723.939 5.64C731.872 2.41 740.656 0.794996 750.289 0.794996C759.922 0.794996 768.677 2.43833 776.554 5.72499C784.487 8.955 791.259 13.4033 796.869 19.07C802.479 24.7367 806.814 31.4233 809.874 39.13C812.991 46.8367 814.549 55.1383 814.549 64.035ZM785.139 64.035C785.139 57.915 784.346 52.4183 782.759 47.545C781.172 42.615 778.877 38.45 775.874 35.05C772.927 31.65 769.301 29.0433 764.994 27.23C760.687 25.4167 755.786 24.51 750.289 24.51C744.736 24.51 739.777 25.4167 735.414 27.23C731.107 29.0433 727.452 31.65 724.449 35.05C721.502 38.45 719.236 42.615 717.649 47.545C716.062 52.4183 715.269 57.915 715.269 64.035C715.269 70.2117 716.062 75.765 717.649 80.695C719.236 85.5683 721.502 89.705 724.449 93.105C727.452 96.505 731.107 99.1117 735.414 100.925C739.777 102.682 744.736 103.56 750.289 103.56C755.786 103.56 760.687 102.682 764.994 100.925C769.301 99.1117 772.927 96.505 775.874 93.105C778.877 89.705 781.172 85.5683 782.759 80.695C784.346 75.765 785.139 70.2117 785.139 64.035ZM879.796 103.305C883.649 103.305 887.078 102.682 890.081 101.435C893.141 100.132 895.719 98.29 897.816 95.91C899.913 93.53 901.499 90.64 902.576 87.24C903.709 83.7833 904.276 79.8733 904.276 75.51V2.155H933.006V75.51C933.006 83.1033 931.759 90.0733 929.266 96.42C926.829 102.767 923.316 108.235 918.726 112.825C914.136 117.415 908.554 120.985 901.981 123.535C895.408 126.085 888.013 127.36 879.796 127.36C871.523 127.36 864.099 126.085 857.526 123.535C850.953 120.985 845.371 117.415 840.781 112.825C836.191 108.235 832.678 102.767 830.241 96.42C827.804 90.0733 826.586 83.1033 826.586 75.51V2.155H855.316V75.425C855.316 79.7883 855.854 83.6983 856.931 87.155C858.064 90.555 859.679 93.4733 861.776 95.91C863.873 98.29 866.423 100.132 869.426 101.435C872.486 102.682 875.943 103.305 879.796 103.305ZM966.766 2.155C968.012 2.155 969.061 2.21166 969.911 2.325C970.761 2.43833 971.526 2.665 972.206 3.005C972.886 3.28833 973.537 3.71333 974.161 4.28C974.784 4.84666 975.492 5.61166 976.286 6.57499L1035.11 80.95C1034.88 78.57 1034.71 76.275 1034.6 74.065C1034.48 71.7983 1034.43 69.6733 1034.43 67.69V2.155H1059.76V126H1044.8C1042.59 126 1040.72 125.66 1039.19 124.98C1037.66 124.3 1036.18 123.053 1034.77 121.24L976.371 47.46C976.541 49.6133 976.682 51.7383 976.796 53.835C976.909 55.875 976.966 57.8017 976.966 59.615V126H951.636V2.155H966.766ZM1192.5 64.035C1192.5 72.9883 1190.94 81.2617 1187.83 88.855C1184.77 96.3917 1180.43 102.937 1174.82 108.49C1169.21 113.987 1162.44 118.293 1154.51 121.41C1146.63 124.47 1137.87 126 1128.24 126H1080.13V2.155H1128.24C1137.87 2.155 1146.63 3.71333 1154.51 6.82999C1162.44 9.94666 1169.21 14.2533 1174.82 19.75C1180.43 25.2467 1184.77 31.7917 1187.83 39.385C1190.94 46.9217 1192.5 55.1383 1192.5 64.035ZM1163.09 64.035C1163.09 57.915 1162.3 52.39 1160.71 47.46C1159.12 42.53 1156.83 38.365 1153.83 34.965C1150.88 31.5083 1147.25 28.8733 1142.95 27.06C1138.64 25.19 1133.74 24.255 1128.24 24.255H1109.03V103.9H1128.24C1133.74 103.9 1138.64 102.993 1142.95 101.18C1147.25 99.31 1150.88 96.675 1153.83 93.275C1156.83 89.8183 1159.12 85.625 1160.71 80.695C1162.3 75.765 1163.09 70.2117 1163.09 64.035Z" fill="#E1E0E0"/>
</svg>
