<?xml version="1.0" encoding="UTF-8" standalone="no"?>
<svg
   xmlns:dc="http://purl.org/dc/elements/1.1/"
   xmlns:cc="http://creativecommons.org/ns#"
   xmlns:rdf="http://www.w3.org/1999/02/22-rdf-syntax-ns#"
   xmlns:svg="http://www.w3.org/2000/svg"
   xmlns="http://www.w3.org/2000/svg"
   xmlns:sodipodi="http://sodipodi.sourceforge.net/DTD/sodipodi-0.dtd"
   xmlns:inkscape="http://www.inkscape.org/namespaces/inkscape"
   width="1183"
   height="132"
   viewBox="0 0 1183 132"
   fill="none"
   version="1.1"
   id="svg12"
   sodipodi:docname="line.svg"
   inkscape:version="1.0.1 (c497b03c, 2020-09-10)">
  <metadata
     id="metadata18">
    <rdf:RDF>
      <cc:Work
         rdf:about="">
        <dc:format>image/svg+xml</dc:format>
        <dc:type
           rdf:resource="http://purl.org/dc/dcmitype/StillImage" />
      </cc:Work>
    </rdf:RDF>
  </metadata>
  <defs
     id="defs16" />
  <sodipodi:namedview
     pagecolor="#ffffff"
     bordercolor="#666666"
     borderopacity="1"
     objecttolerance="10"
     gridtolerance="10"
     guidetolerance="10"
     inkscape:pageopacity="0"
     inkscape:pageshadow="2"
     inkscape:window-width="705"
     inkscape:window-height="480"
     id="namedview14"
     showgrid="false"
     inkscape:zoom="0.89010989"
     inkscape:cx="591.5"
     inkscape:cy="66"
     inkscape:window-x="3095"
     inkscape:window-y="46"
     inkscape:window-maximized="0"
     inkscape:current-layer="svg12" />
  <path
     d="M3.79 127H0.790001V130H3.79V127ZM3.79 5.19499V2.19499H0.790001V5.19499H3.79ZM61.93 7.40499L61.1381 10.2986L61.1458 10.3007L61.93 7.40499ZM75.275 13.695L73.4198 16.0526L73.4291 16.0599L73.4385 16.0672L75.275 13.695ZM83.01 23.725L80.2384 24.8732L80.2484 24.8973L80.2588 24.9212L83.01 23.725ZM84.115 45.655L81.2807 44.6717L81.2717 44.6977L81.2632 44.7238L84.115 45.655ZM79.865 53.39L77.5333 51.5024L77.5195 51.5194L77.506 51.5365L79.865 53.39ZM72.725 59.765L71.0953 57.2463L71.0838 57.2537L71.0725 57.2612L72.725 59.765ZM62.695 64.355L61.8098 61.4886L62.1139 67.2982L62.695 64.355ZM82.84 73.96L84.9874 71.865L82.84 73.96ZM86.75 106.43L84.0177 105.191L84.0108 105.207L84.0041 105.222L86.75 106.43ZM78.42 117.395L76.5029 115.087L76.4941 115.095L76.4854 115.102L78.42 117.395ZM64.99 124.535L65.8831 127.399L65.8926 127.396L65.9021 127.393L64.99 124.535ZM20.28 71.495V68.495H17.28V71.495H20.28ZM20.28 113.91H17.28V116.91H20.28V113.91ZM58.7 112.295L57.7943 109.435L57.7874 109.437L57.7804 109.439L58.7 112.295ZM67.03 107.79L69.0304 110.026L69.0337 110.023L67.03 107.79ZM71.875 100.82L74.6766 101.893L74.6803 101.883L74.684 101.873L71.875 100.82ZM66.69 77.02L64.7694 79.3247L64.7854 79.338L64.8016 79.3511L66.69 77.02ZM20.28 59.765H17.28V62.765H20.28V59.765ZM62.525 53.985L60.6509 51.6424L60.6364 51.654L60.6221 51.6658L62.525 53.985ZM67.54 47.44L70.3037 48.6069L70.3083 48.5961L70.3128 48.5853L67.54 47.44ZM62.695 23.215L64.5347 20.8453L62.695 23.215ZM20.28 18.2V15.2H17.28V18.2H20.28ZM6.79 127V5.19499H0.790001V127H6.79ZM3.79 8.19499H42.635V2.19499H3.79V8.19499ZM42.635 8.19499C49.932 8.19499 56.0833 8.91516 61.1381 10.2986L62.7219 4.51141C57.01 2.94815 50.298 2.19499 42.635 2.19499V8.19499ZM61.1458 10.3007C66.3014 11.697 70.356 13.6417 73.4198 16.0526L77.1302 11.3374C73.2807 8.30829 68.4387 6.05967 62.7142 4.50932L61.1458 10.3007ZM73.4385 16.0672C76.5539 18.4791 78.8021 21.4062 80.2384 24.8732L85.7816 22.5768C83.9312 18.1105 81.0227 14.3509 77.1115 11.3228L73.4385 16.0672ZM80.2588 24.9212C81.771 28.3993 82.56 32.4027 82.56 36.985H88.56C88.56 31.7073 87.649 26.8707 85.7612 22.5288L80.2588 24.9212ZM82.56 36.985C82.56 39.661 82.1319 42.2182 81.2807 44.6717L86.9493 46.6383C88.0247 43.5385 88.56 40.3156 88.56 36.985H82.56ZM81.2632 44.7238C80.4755 47.136 79.241 49.3929 77.5333 51.5024L82.1967 55.2776C84.3424 52.6271 85.9411 49.7273 86.9668 46.5862L81.2632 44.7238ZM77.506 51.5365C75.8667 53.623 73.7448 55.5319 71.0953 57.2463L74.3548 62.2837C77.4853 60.2581 80.1233 57.917 82.224 55.2435L77.506 51.5365ZM71.0725 57.2612C68.5161 58.9484 65.4409 60.3672 61.8098 61.4886L63.5802 67.2214C67.6558 65.9628 71.2673 64.3216 74.3775 62.2688L71.0725 57.2612ZM62.1139 67.2982C70.6434 68.9823 76.7214 71.9845 80.6927 76.055L84.9874 71.865C79.8919 66.6422 72.54 63.241 63.2761 61.4118L62.1139 67.2982ZM80.6927 76.055C84.5871 80.0468 86.64 85.3667 86.64 92.32H92.64C92.64 84.0866 90.1595 77.1665 84.9874 71.865L80.6927 76.055ZM86.64 92.32C86.64 97.0947 85.7502 101.37 84.0177 105.191L89.4824 107.669C91.6032 102.99 92.64 97.8587 92.64 92.32H86.64ZM84.0041 105.222C82.3274 109.032 79.8401 112.315 76.5029 115.087L80.3371 119.703C84.3666 116.355 87.4327 112.328 89.496 107.638L84.0041 105.222ZM76.4854 115.102C73.2078 117.868 69.0957 120.076 64.0779 121.677L65.9021 127.393C71.5376 125.594 76.3789 123.042 80.3546 119.688L76.4854 115.102ZM64.0969 121.671C59.174 123.206 53.4495 124 46.885 124V130C53.9205 130 60.266 129.151 65.8831 127.399L64.0969 121.671ZM46.885 124H3.79V130H46.885V124ZM17.28 71.495V113.91H23.28V71.495H17.28ZM20.28 116.91H46.63V110.91H20.28V116.91ZM46.63 116.91C51.5467 116.91 55.8978 116.349 59.6196 115.151L57.7804 109.439C54.8156 110.394 51.12 110.91 46.63 110.91V116.91ZM59.6057 115.155C63.3182 113.979 66.4954 112.294 69.0304 110.026L65.0296 105.554C63.2579 107.139 60.8818 108.457 57.7943 109.435L59.6057 115.155ZM69.0337 110.023C71.5828 107.735 73.4793 105.019 74.6766 101.893L69.0734 99.7471C68.2307 101.947 66.8972 103.878 65.0263 105.557L69.0337 110.023ZM74.684 101.873C75.8437 98.7809 76.405 95.4446 76.405 91.895H70.405C70.405 94.8054 69.9464 97.4191 69.066 99.7666L74.684 101.873ZM76.405 91.895C76.405 84.7948 73.8287 78.9423 68.5784 74.6889L64.8016 79.3511C68.5047 82.351 70.405 86.4152 70.405 91.895H76.405ZM68.6106 74.7153C63.4199 70.3898 55.8809 68.495 46.545 68.495V74.495C55.2291 74.495 61.1201 76.2835 64.7694 79.3247L68.6106 74.7153ZM46.545 68.495H20.28V74.495H46.545V68.495ZM20.28 62.765H42.04V56.765H20.28V62.765ZM42.04 62.765C46.8939 62.765 51.2214 62.2337 54.972 61.1085L53.248 55.3615C50.1986 56.2763 46.4794 56.765 42.04 56.765V62.765ZM54.972 61.1085C58.6633 60.0011 61.8466 58.4223 64.428 56.3042L60.6221 51.6658C58.7834 53.1744 56.3567 54.4289 53.248 55.3615L54.972 61.1085ZM64.3991 56.3276C67.0359 54.2182 69.0234 51.6393 70.3037 48.6069L64.7763 46.2731C63.9033 48.3407 62.5475 50.1251 60.6509 51.6424L64.3991 56.3276ZM70.3128 48.5853C71.5518 45.5855 72.155 42.3593 72.155 38.94H66.155C66.155 41.6407 65.6815 44.0811 64.7672 46.2947L70.3128 48.5853ZM72.155 38.94C72.155 31.1845 69.7884 24.9238 64.5347 20.8453L60.8553 25.5847C64.215 28.1929 66.155 32.4155 66.155 38.94H72.155ZM64.5347 20.8453C59.4532 16.9004 51.9639 15.2 42.635 15.2V21.2C51.4395 21.2 57.3235 22.8429 60.8553 25.5847L64.5347 20.8453ZM42.635 15.2H20.28V21.2H42.635V15.2ZM17.28 18.2V59.765H23.28V18.2H17.28ZM214.073 127V130H218.504L216.859 125.886L214.073 127ZM197.753 125.895L195.862 128.223H195.862L197.753 125.895ZM195.713 123.09L192.916 124.173L192.922 124.189L192.928 124.204L195.713 123.09ZM184.323 93.68L187.121 92.5966L186.379 90.68H184.323V93.68ZM129.668 93.68V90.68H127.613L126.871 92.5966L129.668 93.68ZM118.278 123.09L121.074 124.177L121.076 124.173L118.278 123.09ZM99.9184 127L97.1328 125.886L95.4878 130H99.9184V127ZM148.623 5.19499V2.19499H146.592L145.838 4.08115L148.623 5.19499ZM165.368 5.19499L168.154 4.08115L167.4 2.19499H165.368V5.19499ZM134.258 81.78L131.46 80.6982L129.882 84.78H134.258V81.78ZM179.733 81.78V84.78H184.107L182.532 80.6998L179.733 81.78ZM160.608 32.225L163.407 31.1448L163.397 31.1189L163.387 31.0931L160.608 32.225ZM156.953 20.75L159.857 19.9971L157.003 8.98763L154.056 19.9726L156.953 20.75ZM155.083 27.21L152.221 26.3105L152.213 26.3369L152.205 26.3635L155.083 27.21ZM153.383 32.31L156.182 33.3918L156.183 33.3869L153.383 32.31ZM214.073 124H201.323V130H214.073V124ZM201.323 124C200.355 124 199.89 123.765 199.645 123.567L195.862 128.223C197.43 129.498 199.345 130 201.323 130V124ZM199.645 123.567C199.153 123.167 198.771 122.657 198.499 121.976L192.928 124.204C193.562 125.79 194.54 127.15 195.862 128.223L199.645 123.567ZM198.511 122.007L187.121 92.5966L181.526 94.7634L192.916 124.173L198.511 122.007ZM184.323 90.68H129.668V96.68H184.323V90.68ZM126.871 92.5966L115.481 122.007L121.076 124.173L132.466 94.7634L126.871 92.5966ZM115.482 122.003C115.297 122.48 114.954 122.981 114.331 123.494L118.145 128.126C119.449 127.052 120.467 125.74 121.074 124.177L115.482 122.003ZM114.331 123.494C113.977 123.786 113.489 124 112.668 124V130C114.681 130 116.573 129.421 118.145 128.126L114.331 123.494ZM112.668 124H99.9184V130H112.668V124ZM102.704 128.114L151.409 6.30883L145.838 4.08115L97.1328 125.886L102.704 128.114ZM148.623 8.19499H165.368V2.19499H148.623V8.19499ZM162.583 6.30883L211.288 128.114L216.859 125.886L168.154 4.08115L162.583 6.30883ZM134.258 84.78H179.733V78.78H134.258V84.78ZM182.532 80.6998L163.407 31.1448L157.81 33.3052L176.935 82.8602L182.532 80.6998ZM163.387 31.0931C162.207 28.1968 161.027 24.5085 159.857 19.9971L154.049 21.5029C155.26 26.1715 156.517 30.1332 157.83 33.3569L163.387 31.0931ZM154.056 19.9726C153.442 22.2612 152.83 24.3733 152.221 26.3105L157.945 28.1095C158.583 26.08 159.218 23.8855 159.851 21.5274L154.056 19.9726ZM152.205 26.3635C151.656 28.2321 151.114 29.8525 150.583 31.2331L156.183 33.3869C156.786 31.8208 157.378 30.0412 157.961 28.0565L152.205 26.3635ZM150.585 31.2282L131.46 80.6982L137.057 82.8618L156.182 33.3918L150.585 31.2282ZM314.068 102.945L316.28 100.919L316.236 100.87L316.189 100.824L314.068 102.945ZM320.528 110L322.799 111.96L324.541 109.941L322.74 107.974L320.528 110ZM302.338 123.515L301.101 120.782L301.093 120.785L302.338 123.515ZM252.783 123.855L251.601 126.612L251.61 126.616L251.62 126.62L252.783 123.855ZM234.508 111.105L232.297 113.133L232.303 113.139L232.308 113.145L234.508 111.105ZM222.778 91.385L225.598 90.3615L222.778 91.385ZM223.033 40.895L220.24 39.7987L220.237 39.8077L220.233 39.8167L223.033 40.895ZM235.613 21.175L237.756 23.2741L235.613 21.175ZM254.908 8.42499L256.026 11.209L256.036 11.2046L254.908 8.42499ZM302.933 7.99999L301.748 10.7562L301.757 10.7599L302.933 7.99999ZM320.273 19.305L322.721 21.0383L324.227 18.9117L322.332 17.1233L320.273 19.305ZM314.918 26.87L312.469 25.1367L312.465 25.1431L312.46 25.1496L314.918 26.87ZM313.558 28.315L315.222 30.8112L315.313 30.7504L315.4 30.6831L313.558 28.315ZM308.968 28.06L307.224 30.5012L307.322 30.5708L307.424 30.6325L308.968 28.06ZM306.078 26.02L307.798 23.5623V23.5623L306.078 26.02ZM302.083 23.47L300.553 26.0509L300.553 26.0509L302.083 23.47ZM296.643 20.92L295.581 23.7259V23.7259L296.643 20.92ZM289.333 18.965L288.733 21.9044L288.762 21.9103L288.791 21.9156L289.333 18.965ZM261.793 21.515L262.932 24.2902L262.939 24.2873L262.947 24.2842L261.793 21.515ZM247.853 31.035L245.673 28.9742V28.9743L247.853 31.035ZM238.673 46.165L235.861 45.1204L235.856 45.1322L235.852 45.1441L238.673 46.165ZM238.673 86.455L235.852 87.4759L235.856 87.4877L235.861 87.4996L238.673 86.455ZM247.598 101.585L245.373 103.597L245.387 103.613L245.402 103.629L247.598 101.585ZM261.028 110.935L262.184 108.167L261.028 110.935ZM287.463 113.57L287.871 116.542L287.899 116.538L287.928 116.534L287.463 113.57ZM295.453 111.53L294.428 108.711L294.417 108.714L294.407 108.718L295.453 111.53ZM302.338 108.13L303.97 110.647L303.979 110.642L303.987 110.636L302.338 108.13ZM308.798 103.115L306.813 100.865L306.805 100.872L306.798 100.879L308.798 103.115ZM311.603 104.84C311.636 104.84 311.65 104.844 311.672 104.854C311.702 104.867 311.796 104.916 311.947 105.066L316.189 100.824C314.981 99.6154 313.425 98.84 311.603 98.84V104.84ZM311.855 104.971L318.315 112.026L322.74 107.974L316.28 100.919L311.855 104.971ZM318.256 108.04C313.562 113.481 307.855 117.726 301.101 120.782L303.574 126.248C311.101 122.844 317.52 118.079 322.799 111.96L318.256 108.04ZM301.093 120.785C294.496 123.794 286.387 125.36 276.668 125.36V131.36C287.008 131.36 296.013 129.696 303.583 126.245L301.093 120.785ZM276.668 125.36C268.231 125.36 260.672 123.919 253.946 121.09L251.62 126.62C259.174 129.798 267.538 131.36 276.668 131.36V125.36ZM253.965 121.098C247.192 118.195 241.452 114.183 236.708 109.065L232.308 113.145C237.65 118.907 244.094 123.395 251.601 126.612L253.965 121.098ZM236.718 109.077C231.966 103.897 228.252 97.6737 225.598 90.3615L219.958 92.4086C222.857 100.396 226.963 107.32 232.297 113.133L236.718 109.077ZM225.598 90.3615C222.955 83.0787 221.613 75.0152 221.613 66.14H215.613C215.613 75.6248 217.048 84.3913 219.958 92.4086L225.598 90.3615ZM221.613 66.14C221.613 57.2848 223.033 49.2405 225.832 41.9733L220.233 39.8167C217.139 47.8495 215.613 56.6352 215.613 66.14H221.613ZM225.825 41.9913C228.692 34.6898 232.673 28.4642 237.756 23.2741L233.47 19.0759C227.786 24.8791 223.381 31.8001 220.24 39.7987L225.825 41.9913ZM237.756 23.2741C242.835 18.0884 248.913 14.065 256.026 11.209L253.79 5.64102C245.943 8.79164 239.157 13.2683 233.47 19.0759L237.756 23.2741ZM256.036 11.2046C263.176 8.30595 271.089 6.83499 279.813 6.83499V0.834991C270.404 0.834991 261.713 2.42403 253.779 5.64536L256.036 11.2046ZM279.813 6.83499C288.466 6.83499 295.75 8.17786 301.748 10.7562L304.118 5.24381C297.196 2.26879 289.066 0.834991 279.813 0.834991V6.83499ZM301.757 10.7599C307.954 13.4006 313.434 16.9754 318.214 21.4867L322.332 17.1233C317.025 12.1146 310.945 8.15273 304.109 5.24008L301.757 10.7599ZM317.824 17.5717L312.469 25.1367L317.367 28.6033L322.721 21.0383L317.824 17.5717ZM312.46 25.1496C312.223 25.4882 311.973 25.7467 311.716 25.9469L315.4 30.6831C316.162 30.0899 316.819 29.3852 317.376 28.5904L312.46 25.1496ZM311.894 25.8188C312.001 25.7471 312.043 25.7524 311.948 25.7743C311.852 25.7966 311.661 25.825 311.348 25.825V31.825C312.592 31.825 314.012 31.6181 315.222 30.8112L311.894 25.8188ZM311.348 25.825C311.312 25.825 311.051 25.8113 310.511 25.4875L307.424 30.6325C308.585 31.3287 309.911 31.825 311.348 31.825V25.825ZM310.712 25.6188C309.908 25.0448 308.936 24.359 307.798 23.5623L304.358 28.4777C305.486 29.2676 306.441 29.9418 307.224 30.5012L310.712 25.6188ZM307.798 23.5623C306.588 22.7153 305.19 21.8242 303.612 20.8891L300.553 26.0509C302.036 26.9292 303.301 27.738 304.358 28.4777L307.798 23.5623ZM303.612 20.8891C301.901 19.8748 299.924 18.9538 297.705 18.1141L295.581 23.7259C297.556 24.4729 299.205 25.2519 300.553 26.0509L303.612 20.8891ZM297.705 18.1141C295.403 17.2431 292.785 16.549 289.875 16.0144L288.791 21.9156C291.434 22.401 293.69 23.0102 295.581 23.7259L297.705 18.1141ZM289.933 16.0256C286.913 15.4093 283.503 15.115 279.728 15.115V21.115C283.206 21.115 286.2 21.3874 288.733 21.9044L289.933 16.0256ZM279.728 15.115C272.857 15.115 266.482 16.3114 260.639 18.7458L262.947 24.2842C267.984 22.1853 273.565 21.115 279.728 21.115V15.115ZM260.654 18.7398C254.886 21.1077 249.882 24.5212 245.673 28.9742L250.033 33.0957C253.644 29.2754 257.934 26.3423 262.932 24.2902L260.654 18.7398ZM245.673 28.9743C241.456 33.4357 238.195 38.8362 235.861 45.1204L241.485 47.2096C243.571 41.5938 246.43 36.9076 250.033 33.0957L245.673 28.9743ZM235.852 45.1441C233.562 51.4703 232.443 58.4813 232.443 66.14H238.443C238.443 59.0654 239.477 52.7597 241.494 47.1859L235.852 45.1441ZM232.443 66.14C232.443 74.0138 233.559 81.1405 235.852 87.4759L241.494 85.4341C239.48 79.8695 238.443 73.4529 238.443 66.14H232.443ZM235.861 87.4996C238.185 93.7574 241.345 99.1417 245.373 103.597L249.823 99.5731C246.371 95.755 243.581 91.0526 241.485 85.4104L235.861 87.4996ZM245.402 103.629C249.49 108.022 254.322 111.386 259.872 113.703L262.184 108.167C257.421 106.178 253.299 103.308 249.794 99.5413L245.402 103.629ZM259.872 113.703C265.418 116.019 271.367 117.165 277.688 117.165V111.165C272.109 111.165 266.951 110.157 262.184 108.167L259.872 113.703ZM277.688 117.165C281.42 117.165 284.818 116.961 287.871 116.542L287.055 110.598C284.328 110.972 281.209 111.165 277.688 111.165V117.165ZM287.928 116.534C290.992 116.053 293.853 115.326 296.499 114.342L294.407 108.718C292.18 109.547 289.714 110.18 286.998 110.606L287.928 116.534ZM296.478 114.349C299.172 113.37 301.672 112.138 303.97 110.647L300.705 105.613C298.81 106.842 296.721 107.877 294.428 108.711L296.478 114.349ZM303.987 110.636C306.278 109.129 308.548 107.364 310.798 105.351L306.798 100.879C304.742 102.719 302.705 104.298 300.689 105.624L303.987 110.636ZM310.783 105.365C311.425 104.798 311.682 104.84 311.603 104.84V98.84C309.711 98.84 308.098 99.7319 306.813 100.865L310.783 105.365ZM360.235 58.575H357.235V61.575H360.235V58.575ZM371.54 57.81L372.676 60.5866L372.706 60.5743L372.736 60.5612L371.54 57.81ZM375.195 55.005L372.946 53.0189L372.939 53.0276L372.931 53.0365L375.195 55.005ZM415.74 9.10499L417.988 11.0911L417.992 11.0869L415.74 9.10499ZM419.31 6.13L420.651 8.81328L420.677 8.80062L420.702 8.78749L419.31 6.13ZM437.84 5.19499L440.086 7.18311L444.501 2.19499H437.84V5.19499ZM391.43 57.64L393.645 59.6628L393.661 59.6456L393.676 59.6281L391.43 57.64ZM388.03 60.955L386.097 58.6603L386.067 58.6861L386.037 58.7128L388.03 60.955ZM384.715 63.165L383.425 60.4564L376.598 63.7073L383.797 66.0211L384.715 63.165ZM392.62 69.285L394.918 67.3561L394.911 67.3478L394.904 67.3396L392.62 69.285ZM441.07 127V130H447.505L443.368 125.071L441.07 127ZM422.115 126.065L420.658 128.687L420.715 128.719L420.773 128.748L422.115 126.065ZM420.67 124.96L418.549 127.081L420.67 124.96ZM419.31 123.515L417.046 125.484L417.057 125.496L417.068 125.508L419.31 123.515ZM377.235 75.15L379.498 73.181L379.473 73.1516L379.446 73.1228L377.235 75.15ZM375.45 73.45L373.329 75.5713L373.446 75.6888L373.576 75.7926L375.45 73.45ZM373.58 72.175L372.238 74.8583L372.28 74.8792L372.323 74.8989L373.58 72.175ZM371.115 71.495L370.562 74.4436L370.663 74.4625L370.764 74.4744L371.115 71.495ZM360.235 71.24V68.24H357.235V71.24H360.235ZM360.235 127V130H363.235V127H360.235ZM343.83 127H340.83V130H343.83V127ZM343.83 5.19499V2.19499H340.83V5.19499H343.83ZM360.235 5.19499H363.235V2.19499H360.235V5.19499ZM360.235 61.575H366.44V55.575H360.235V61.575ZM366.44 61.575C368.777 61.575 370.917 61.3059 372.676 60.5866L370.404 55.0334C369.669 55.3341 368.409 55.575 366.44 55.575V61.575ZM372.736 60.5612C374.528 59.7822 376.094 58.5427 377.459 56.9735L372.931 53.0365C372.029 54.074 371.159 54.7045 370.344 55.0588L372.736 60.5612ZM377.443 56.9911L417.988 11.0911L413.491 7.11889L372.946 53.0189L377.443 56.9911ZM417.992 11.0869C419.097 9.8317 419.99 9.144 420.651 8.81328L417.968 3.44671C416.363 4.24932 414.876 5.54496 413.488 7.12311L417.992 11.0869ZM420.702 8.78749C421.339 8.4539 422.324 8.19499 423.815 8.19499V2.19499C421.679 2.19499 419.661 2.55942 417.918 3.4725L420.702 8.78749ZM423.815 8.19499H437.84V2.19499H423.815V8.19499ZM435.593 3.20688L389.183 55.6519L393.676 59.6281L440.086 7.18311L435.593 3.20688ZM389.214 55.6172C388.092 56.8469 387.053 57.856 386.097 58.6603L389.962 63.2497C391.16 62.2407 392.388 61.0398 393.645 59.6628L389.214 55.6172ZM386.037 58.7128C385.221 59.4383 384.351 60.0155 383.425 60.4564L386.005 65.8736C387.459 65.1811 388.799 64.285 390.023 63.1972L386.037 58.7128ZM383.797 66.0211C385.028 66.4168 386.059 66.9936 386.927 67.7378L390.832 63.1822C389.32 61.8864 387.575 60.9332 385.633 60.3089L383.797 66.0211ZM386.927 67.7378C387.971 68.632 389.108 69.7882 390.336 71.2304L394.904 67.3396C393.525 65.7218 392.169 64.328 390.832 63.1822L386.927 67.7378ZM390.322 71.2139L438.772 128.929L443.368 125.071L394.918 67.3561L390.322 71.2139ZM441.07 124H426.79V130H441.07V124ZM426.79 124C425.853 124 425.189 123.924 424.744 123.822L423.395 129.668C424.424 129.906 425.573 130 426.79 130V124ZM424.744 123.822C424.196 123.695 423.775 123.541 423.456 123.382L420.773 128.748C421.588 129.156 422.471 129.455 423.395 129.668L424.744 123.822ZM423.572 123.443C423.328 123.307 423.067 123.114 422.791 122.839L418.549 127.081C419.18 127.712 419.882 128.256 420.658 128.687L423.572 123.443ZM422.791 122.839C422.382 122.429 421.969 121.991 421.552 121.522L417.068 125.508C417.558 126.059 418.051 126.584 418.549 127.081L422.791 122.839ZM421.573 121.546L379.498 73.181L374.971 77.119L417.046 125.484L421.573 121.546ZM379.446 73.1228C378.745 72.3581 378.038 71.6788 377.324 71.1074L373.576 75.7926C373.995 76.1279 374.478 76.5819 375.023 77.1772L379.446 73.1228ZM377.571 71.3287C376.782 70.5392 375.855 69.9211 374.837 69.4511L372.323 74.8989C372.778 75.1089 373.098 75.3408 373.329 75.5713L377.571 71.3287ZM374.921 69.4917C373.858 68.9602 372.683 68.6588 371.465 68.5155L370.764 74.4744C371.473 74.5579 371.941 74.7098 372.238 74.8583L374.921 69.4917ZM371.668 68.5464C370.515 68.3303 369.182 68.24 367.715 68.24V74.24C368.968 74.24 369.901 74.3197 370.562 74.4436L371.668 68.5464ZM367.715 68.24H360.235V74.24H367.715V68.24ZM357.235 71.24V127H363.235V71.24H357.235ZM360.235 124H343.83V130H360.235V124ZM346.83 127V5.19499H340.83V127H346.83ZM343.83 8.19499H360.235V2.19499H343.83V8.19499ZM357.235 5.19499V58.575H363.235V5.19499H357.235ZM518.677 114.59L518.988 117.574L519.015 117.571L519.042 117.568L518.677 114.59ZM526.497 113.145L527.241 116.051L526.497 113.145ZM533.383 110.935L534.484 113.725L534.516 113.713L534.547 113.7L533.383 110.935ZM539.843 107.875L541.24 110.53L542.843 109.686V107.875H539.843ZM539.843 81.015H542.843V78.015H539.843V81.015ZM518.338 80.08L516.216 82.2013L516.262 82.2474L516.31 82.2915L518.338 80.08ZM517.403 68.435V65.435H514.403V68.435H517.403ZM554.802 68.435H557.802V65.435H554.802V68.435ZM554.802 115.185L556.559 117.617L557.802 116.719V115.185H554.802ZM545.198 120.965L543.874 118.273L543.865 118.277L543.856 118.282L545.198 120.965ZM534.573 125.13L535.402 128.013L535.417 128.009L535.431 128.005L534.573 125.13ZM522.503 127.51L522.15 124.531L522.13 124.533L522.111 124.536L522.503 127.51ZM484.168 123.855L483.017 126.625L483.026 126.629L483.035 126.633L484.168 123.855ZM465.128 111.105L462.973 113.193L462.979 113.198L462.984 113.204L465.128 111.105ZM452.633 91.385L449.833 92.4633L449.836 92.4723L449.84 92.4813L452.633 91.385ZM452.547 40.725L449.748 39.6467L449.745 39.6557L449.741 39.6648L452.547 40.725ZM465.043 21.09L462.91 18.9797L462.91 18.9798L465.043 21.09ZM484.677 8.34L483.588 5.54475L483.581 5.54749L484.677 8.34ZM523.948 4.93999L523.422 7.89352L523.441 7.89702L523.461 7.90026L523.948 4.93999ZM535.422 7.99999L534.34 10.7977L534.367 10.8081L534.394 10.8181L535.422 7.99999ZM545.283 12.845L543.663 15.3701L543.68 15.381L543.697 15.3917L545.283 12.845ZM553.698 19.22L556.242 20.81L557.566 18.6901L555.72 17.0045L553.698 19.22ZM549.023 26.7L551.561 28.2984L551.566 28.29L549.023 26.7ZM542.307 28.06L543.811 25.4637L543.792 25.453L543.773 25.4425L542.307 28.06ZM531.088 21.94L529.898 24.6942L529.936 24.7103L529.973 24.7254L531.088 21.94ZM522.162 19.22L521.527 22.152L521.537 22.1541L522.162 19.22ZM491.393 21.515L492.502 24.3024L492.514 24.2975L492.526 24.2925L491.393 21.515ZM477.198 31.12L479.378 33.1807L479.385 33.1733L479.392 33.1659L477.198 31.12ZM468.188 46.25L471.014 47.2556L471.017 47.247L468.188 46.25ZM468.272 86.795L465.445 87.799L465.451 87.815L465.457 87.8309L468.272 86.795ZM477.538 102.095L479.717 100.033L477.538 102.095ZM509.667 118.015C513.038 118.015 516.147 117.87 518.988 117.574L518.367 111.606C515.768 111.877 512.87 112.015 509.667 112.015V118.015ZM519.042 117.568C521.932 117.214 524.667 116.71 527.241 116.051L525.754 110.239C523.455 110.827 520.976 111.286 518.313 111.612L519.042 117.568ZM527.241 116.051C529.789 115.4 532.204 114.625 534.484 113.725L532.281 108.145C530.254 108.945 528.079 109.644 525.754 110.239L527.241 116.051ZM534.547 113.7C536.782 112.759 539.013 111.701 541.24 110.53L538.445 105.22C536.365 106.315 534.289 107.298 532.218 108.17L534.547 113.7ZM542.843 107.875V81.015H536.843V107.875H542.843ZM539.843 78.015H520.972V84.015H539.843V78.015ZM520.972 78.015C520.513 78.015 520.4 77.9011 520.365 77.8685L516.31 82.2915C517.635 83.5056 519.279 84.015 520.972 84.015V78.015ZM520.459 77.9587C520.432 77.932 520.42 77.9155 520.417 77.9101C520.413 77.9052 520.414 77.9048 520.415 77.9069C520.415 77.9088 520.413 77.9041 520.41 77.8886C520.407 77.8725 520.403 77.8393 520.403 77.785H514.403C514.403 79.4619 515.013 80.9977 516.216 82.2013L520.459 77.9587ZM520.403 77.785V68.435H514.403V77.785H520.403ZM517.403 71.435H554.802V65.435H517.403V71.435ZM551.802 68.435V115.185H557.802V68.435H551.802ZM553.046 112.753C550.121 114.865 547.064 116.705 543.874 118.273L546.521 123.657C550.018 121.939 553.364 119.925 556.559 117.617L553.046 112.753ZM543.856 118.282C540.736 119.842 537.357 121.168 533.714 122.255L535.431 128.005C539.381 126.825 543.086 125.375 546.539 123.648L543.856 118.282ZM533.743 122.247C530.175 123.274 526.313 124.038 522.15 124.531L522.855 130.489C527.305 129.962 531.49 129.139 535.402 128.013L533.743 122.247ZM522.111 124.536C517.953 125.083 513.41 125.36 508.477 125.36V131.36C513.631 131.36 518.439 131.071 522.894 130.484L522.111 124.536ZM508.477 125.36C499.983 125.36 492.269 123.918 485.3 121.077L483.035 126.633C490.799 129.798 499.292 131.36 508.477 131.36V125.36ZM485.318 121.085C478.306 118.172 472.302 114.144 467.271 109.006L462.984 113.204C468.606 118.946 475.295 123.418 483.017 126.625L485.318 121.085ZM467.282 109.017C462.251 103.826 458.294 97.5968 455.425 90.2887L449.84 92.4813C452.978 100.473 457.35 107.391 462.973 113.193L467.282 109.017ZM455.432 90.3067C452.633 83.0395 451.212 74.9952 451.212 66.14H445.212C445.212 75.6448 446.739 84.4305 449.833 92.4633L455.432 90.3067ZM451.212 66.14C451.212 57.1599 452.608 49.0534 455.354 41.7852L449.741 39.6648C446.707 47.6965 445.212 56.5334 445.212 66.14H451.212ZM455.347 41.8033C458.156 34.5117 462.103 28.3254 467.175 23.2002L462.91 18.9798C457.215 24.7346 452.833 31.6382 449.748 39.6467L455.347 41.8033ZM467.175 23.2003C472.303 18.0191 478.488 13.9928 485.774 11.1325L483.581 5.54749C475.567 8.69383 468.662 13.1676 462.91 18.9797L467.175 23.2003ZM485.767 11.1352C493.078 8.28603 501.315 6.83499 510.518 6.83499V0.834991C500.68 0.834991 491.69 2.38728 483.588 5.54476L485.767 11.1352ZM510.518 6.83499C515.183 6.83499 519.482 7.19187 523.422 7.89352L524.473 1.98646C520.14 1.21478 515.486 0.834991 510.518 0.834991V6.83499ZM523.461 7.90026C527.416 8.55046 531.039 9.52009 534.34 10.7977L536.505 5.20229C532.779 3.7599 528.752 2.68953 524.434 1.97972L523.461 7.90026ZM534.394 10.8181C537.77 12.0506 540.857 13.57 543.663 15.3701L546.902 10.3199C543.702 8.26669 540.215 6.556 536.451 5.18192L534.394 10.8181ZM543.697 15.3917C546.545 17.1651 549.204 19.1793 551.675 21.4355L555.72 17.0045C552.978 14.5007 550.027 12.2649 546.868 10.2983L543.697 15.3917ZM551.154 17.63L546.479 25.11L551.566 28.29L556.242 20.81L551.154 17.63ZM546.484 25.1016C545.953 25.9442 545.581 25.995 545.283 25.995V31.995C548.044 31.995 550.165 30.5158 551.561 28.2984L546.484 25.1016ZM545.283 25.995C545.064 25.995 544.593 25.9168 543.811 25.4637L540.804 30.6563C542.175 31.4499 543.687 31.995 545.283 31.995V25.995ZM543.773 25.4425C542.424 24.6869 540.892 23.7576 539.174 22.6491L535.921 27.6909C537.716 28.849 539.358 29.8465 540.842 30.6775L543.773 25.4425ZM539.174 22.6491C537.214 21.3848 534.878 20.2252 532.202 19.1546L529.973 24.7254C532.397 25.6947 534.367 26.6886 535.921 27.6909L539.174 22.6491ZM532.277 19.1858C529.557 18.0114 526.384 17.0522 522.788 16.2859L521.537 22.1541C524.855 22.8611 527.631 23.7153 529.898 24.6942L532.277 19.1858ZM522.798 16.288C519.131 15.4935 514.855 15.115 510.008 15.115V21.115C514.567 21.115 518.394 21.4732 521.527 22.152L522.798 16.288ZM510.008 15.115C502.817 15.115 496.22 16.3044 490.259 18.7375L492.526 24.2925C497.672 22.1923 503.484 21.115 510.008 21.115V15.115ZM490.283 18.7276C484.336 21.0944 479.229 24.5426 475.003 29.0741L479.392 33.1659C482.986 29.3107 487.342 26.3556 492.502 24.3024L490.283 18.7276ZM475.017 29.0592C470.789 33.5327 467.579 38.95 465.358 45.2529L471.017 47.247C472.989 41.65 475.786 36.9806 479.378 33.1807L475.017 29.0592ZM465.361 45.2444C463.131 51.5122 462.043 58.4902 462.043 66.14H468.043C468.043 59.0565 469.051 52.7744 471.014 47.2556L465.361 45.2444ZM462.043 66.14C462.043 74.123 463.158 81.3567 465.445 87.799L471.1 85.791C469.081 80.1067 468.043 73.5703 468.043 66.14H462.043ZM465.457 87.8309C467.792 94.1774 471.083 99.6374 475.358 104.157L479.717 100.033C476.059 96.166 473.173 91.426 471.088 85.7591L465.457 87.8309ZM475.358 104.157C479.625 108.667 484.688 112.111 490.518 114.479L492.777 108.921C487.727 106.869 483.384 103.91 479.717 100.033L475.358 104.157ZM490.518 114.479C496.357 116.852 502.753 118.015 509.667 118.015V112.015C503.435 112.015 497.818 110.968 492.777 108.921L490.518 114.479ZM598.301 76.17V73.17H595.301V76.17H598.301ZM598.301 127V130H601.301V127H598.301ZM581.896 127H578.896V130H581.896V127ZM581.896 5.19499V2.19499H578.896V5.19499H581.896ZM636.296 7.57499L635.48 10.4618L635.493 10.4656L635.507 10.4693L636.296 7.57499ZM650.151 14.29L648.259 16.6183L648.268 16.6255L648.277 16.6326L650.151 14.29ZM658.311 25L655.544 26.1591L655.547 26.1659L655.55 26.1726L658.311 25ZM658.906 51.01L656.087 49.9848V49.9848L658.906 51.01ZM652.956 61.125L650.691 59.1586L650.688 59.1619L652.956 61.125ZM643.521 68.69L642.054 66.0732L642.046 66.0779L642.037 66.0828L643.521 68.69ZM630.941 73.45L630.272 70.5256L622.876 72.2186L629.43 76.0413L630.941 73.45ZM636.381 78.635L633.924 80.3554L633.943 80.3835L633.964 80.4111L636.381 78.635ZM671.911 127V130H677.838L674.329 125.224L671.911 127ZM650.661 123.515L653.223 121.953L653.16 121.85L653.088 121.752L650.661 123.515ZM619.041 79.995L616.593 81.729L616.604 81.7438L616.614 81.7584L619.041 79.995ZM615.896 77.105L614.451 79.7336L614.502 79.762L614.555 79.7883L615.896 77.105ZM598.301 64.185H595.301V67.185H598.301V64.185ZM628.221 62.485L629.116 65.3484L629.13 65.3441L629.144 65.3397L628.221 62.485ZM637.401 57.555L639.358 59.829L639.362 59.8255L637.401 57.555ZM643.011 49.905L640.248 48.7361L643.011 49.905ZM637.656 23.725L635.82 26.0976L635.827 26.1029L635.834 26.1081L637.656 23.725ZM598.301 18.2V15.2H595.301V18.2H598.301ZM595.301 76.17V127H601.301V76.17H595.301ZM598.301 124H581.896V130H598.301V124ZM584.896 127V5.19499H578.896V127H584.896ZM581.896 8.19499H616.321V2.19499H581.896V8.19499ZM616.321 8.19499C623.835 8.19499 630.205 8.96988 635.48 10.4618L637.113 4.68823C631.168 3.00677 624.221 2.19499 616.321 2.19499V8.19499ZM635.507 10.4693C640.81 11.9155 645.026 13.991 648.259 16.6183L652.043 11.9616C648.023 8.69566 643.003 6.29451 637.086 4.6807L635.507 10.4693ZM648.277 16.6326C651.584 19.2779 653.989 22.4465 655.544 26.1591L661.078 23.8408C659.12 19.1668 656.085 15.1954 652.025 11.9474L648.277 16.6326ZM655.55 26.1726C657.128 29.8877 657.946 34.1273 657.946 38.94H663.946C663.946 33.4394 663.008 28.3856 661.073 23.8274L655.55 26.1726ZM657.946 38.94C657.946 42.9258 657.318 46.5994 656.087 49.9848L661.726 52.0352C663.215 47.9406 663.946 43.5675 663.946 38.94H657.946ZM656.087 49.9848C654.852 53.3801 653.057 56.4327 650.691 59.1586L655.222 63.0914C658.069 59.8107 660.24 56.1199 661.726 52.0352L656.087 49.9848ZM650.688 59.1619C648.387 61.8208 645.522 64.1294 642.054 66.0732L644.988 71.3068C649.001 69.0573 652.426 66.3225 655.225 63.0881L650.688 59.1619ZM642.037 66.0828C638.641 68.0161 634.728 69.5055 630.272 70.5256L631.611 76.3744C636.561 75.2412 641.035 73.5572 645.005 71.2972L642.037 66.0828ZM629.43 76.0413C631.036 76.9785 632.543 78.3836 633.924 80.3554L638.839 76.9146C637.046 74.3531 634.926 72.3015 632.453 70.8587L629.43 76.0413ZM633.964 80.4111L669.494 128.776L674.329 125.224L638.799 76.8589L633.964 80.4111ZM671.911 124H657.291V130H671.911V124ZM657.291 124C655.204 124 654.03 123.278 653.223 121.953L648.1 125.077C650.126 128.399 653.372 130 657.291 130V124ZM653.088 121.752L621.468 78.2316L616.614 81.7584L648.234 125.278L653.088 121.752ZM621.489 78.2609C620.328 76.6209 618.93 75.2676 617.238 74.4217L614.555 79.7883C615.13 80.0757 615.828 80.6491 616.593 81.729L621.489 78.2609ZM617.342 74.4763C615.547 73.489 613.24 73.17 610.796 73.17V79.17C612.886 79.17 613.979 79.4743 614.451 79.7336L617.342 74.4763ZM610.796 73.17H598.301V79.17H610.796V73.17ZM598.301 67.185H615.556V61.185H598.301V67.185ZM615.556 67.185C620.599 67.185 625.134 66.5927 629.116 65.3484L627.326 59.6216C624.055 60.6439 620.147 61.185 615.556 61.185V67.185ZM629.144 65.3397C633.131 64.0514 636.563 62.2336 639.358 59.829L635.445 55.281C633.366 57.0697 630.678 58.5385 627.299 59.6303L629.144 65.3397ZM639.362 59.8255C642.193 57.3805 644.343 54.4572 645.774 51.0739L640.248 48.7361C639.186 51.2461 637.596 53.4228 635.44 55.2845L639.362 59.8255ZM645.774 51.0739C647.194 47.7168 647.881 44.055 647.881 40.13H641.881C641.881 43.345 641.321 46.1998 640.248 48.7361L645.774 51.0739ZM647.881 40.13C647.881 32.1478 645.187 25.7071 639.479 21.3419L635.834 26.1081C639.759 29.1096 641.881 33.6055 641.881 40.13H647.881ZM639.492 21.3524C633.981 17.088 626.093 15.2 616.321 15.2V21.2C625.476 21.2 631.811 22.9953 635.82 26.0976L639.492 21.3524ZM616.321 15.2H598.301V21.2H616.321V15.2ZM595.301 18.2V64.185H601.301V18.2H595.301ZM794.416 91.3L797.22 92.3671L797.223 92.3602L794.416 91.3ZM763.136 123.77L764.269 126.548L764.279 126.544L763.136 123.77ZM714.176 123.77L713.025 126.54L713.034 126.544L713.044 126.548L714.176 123.77ZM695.221 110.935L693.056 113.011L695.221 110.935ZM682.981 91.3L680.175 92.3602L680.177 92.3671L682.981 91.3ZM682.981 41.065L685.785 42.1321L685.788 42.1252L682.981 41.065ZM695.221 21.345L697.387 23.4212L697.392 23.4156L697.397 23.4101L695.221 21.345ZM714.176 8.42499L715.327 11.1955L714.176 8.42499ZM763.136 8.42499L761.985 11.1955L761.993 11.1986L763.136 8.42499ZM782.176 21.345L780 23.4101L780.005 23.4156L780.011 23.4212L782.176 21.345ZM794.416 41.065L791.61 42.1252L791.612 42.1321L794.416 41.065ZM770.106 30.95L767.881 32.9619L767.888 32.9696L767.895 32.9772L770.106 30.95ZM756.506 21.43L757.656 18.659L756.506 21.43ZM720.891 21.43L719.742 18.659L720.891 21.43ZM707.206 30.95L704.996 28.9215L704.995 28.9228L707.206 30.95ZM698.536 45.995L695.698 45.022L698.536 45.995ZM698.536 86.285L695.698 87.258L695.701 87.2663L698.536 86.285ZM707.206 101.33L704.981 103.342L704.995 103.358L705.01 103.374L707.206 101.33ZM720.891 110.765L719.742 113.536L719.754 113.541L719.767 113.546L720.891 110.765ZM756.506 110.765L757.631 113.546L757.643 113.541L757.656 113.536L756.506 110.765ZM770.106 101.33L772.318 103.357L772.325 103.35L772.331 103.342L770.106 101.33ZM778.776 86.285L781.611 87.2663L781.614 87.258L778.776 86.285ZM795.751 66.14C795.751 74.9428 794.358 82.9655 791.61 90.2398L797.223 92.3602C800.255 84.3345 801.751 75.5838 801.751 66.14H795.751ZM791.612 90.2329C788.856 97.476 784.984 103.671 780.011 108.859L784.342 113.011C789.908 107.205 794.197 100.311 797.22 92.3671L791.612 90.2329ZM780.011 108.859C775.045 114.038 769.052 118.087 761.993 120.996L764.279 126.544C772.067 123.334 778.768 118.825 784.342 113.011L780.011 108.859ZM762.004 120.992C755.039 123.831 747.27 125.275 738.656 125.275V131.275C747.949 131.275 756.5 129.715 764.269 126.548L762.004 120.992ZM738.656 125.275C730.043 125.275 722.273 123.831 715.309 120.992L713.044 126.548C720.812 129.715 729.363 131.275 738.656 131.275V125.275ZM715.327 121C708.324 118.091 702.356 114.042 697.387 108.859L693.056 113.011C698.626 118.821 705.295 123.329 713.025 126.54L715.327 121ZM697.387 108.859C692.413 103.671 688.542 97.476 685.785 90.2329L680.177 92.3671C683.201 100.311 687.489 107.205 693.056 113.011L697.387 108.859ZM685.788 90.2398C683.04 82.9655 681.646 74.9428 681.646 66.14H675.646C675.646 75.5838 677.143 84.3345 680.175 92.3602L685.788 90.2398ZM681.646 66.14C681.646 57.3368 683.04 49.3453 685.785 42.1321L680.177 39.9979C677.143 47.9713 675.646 56.6965 675.646 66.14H681.646ZM685.788 42.1252C688.545 34.8253 692.417 28.6048 697.387 23.4212L693.056 19.2688C687.486 25.0785 683.197 32.0047 680.175 40.0048L685.788 42.1252ZM697.397 23.4101C702.366 18.1737 708.331 14.1015 715.327 11.1955L713.025 5.6545C705.288 8.86848 698.616 13.4096 693.045 19.2799L697.397 23.4101ZM715.327 11.1955C722.287 8.30447 730.05 6.83499 738.656 6.83499V0.834991C729.356 0.834991 720.799 2.42551 713.025 5.6545L715.327 11.1955ZM738.656 6.83499C747.263 6.83499 755.026 8.30447 761.985 11.1955L764.287 5.6545C756.513 2.42551 747.956 0.834991 738.656 0.834991V6.83499ZM761.993 11.1986C769.045 14.1057 775.035 18.1778 780 23.4101L784.352 19.2799C778.778 13.4055 772.074 8.86426 764.279 5.6514L761.993 11.1986ZM780.011 23.4212C784.981 28.6048 788.852 34.8253 791.61 42.1252L797.223 40.0048C794.2 32.0047 789.912 25.0785 784.342 19.2688L780.011 23.4212ZM791.612 42.1321C794.358 49.3453 795.751 57.3368 795.751 66.14H801.751C801.751 56.6965 800.255 47.9713 797.22 39.9979L791.612 42.1321ZM784.836 66.14C784.836 58.3899 783.779 51.338 781.614 45.022L775.938 46.968C777.853 52.552 778.836 58.9301 778.836 66.14H784.836ZM781.614 45.022C779.458 38.7344 776.372 33.3462 772.318 28.9228L767.895 32.9772C771.32 36.7138 774.014 41.3556 775.938 46.968L781.614 45.022ZM772.331 28.9381C768.283 24.4605 763.378 21.0333 757.656 18.659L755.357 24.201C760.287 26.2467 764.449 29.1662 767.881 32.9619L772.331 28.9381ZM757.656 18.659C751.917 16.2781 745.569 15.115 738.656 15.115V21.115C744.89 21.115 750.442 22.1618 755.357 24.201L757.656 18.659ZM738.656 15.115C731.796 15.115 725.477 16.2794 719.742 18.659L722.041 24.201C726.959 22.1606 732.483 21.115 738.656 21.115V15.115ZM719.742 18.659C714.023 21.0317 709.096 24.4542 704.996 28.9215L709.416 32.9785C712.91 29.1724 717.106 26.2483 722.041 24.201L719.742 18.659ZM704.995 28.9228C700.94 33.3462 697.854 38.7344 695.698 45.022L701.374 46.968C703.298 41.3556 705.992 36.7138 709.418 32.9772L704.995 28.9228ZM695.698 45.022C693.533 51.338 692.476 58.3899 692.476 66.14H698.476C698.476 58.9301 699.459 52.552 701.374 46.968L695.698 45.022ZM692.476 66.14C692.476 73.8901 693.533 80.942 695.698 87.258L701.374 85.312C699.459 79.728 698.476 73.3499 698.476 66.14H692.476ZM695.701 87.2663C697.857 93.4956 700.94 98.8727 704.981 103.342L709.432 99.3181C705.992 95.5139 703.295 90.8611 701.371 85.3037L695.701 87.2663ZM705.01 103.374C709.11 107.779 714.032 111.167 719.742 113.536L722.041 107.994C717.097 105.943 712.896 103.041 709.402 99.2863L705.01 103.374ZM719.767 113.546C725.495 115.862 731.806 116.995 738.656 116.995V110.995C732.473 110.995 726.94 109.974 722.016 107.984L719.767 113.546ZM738.656 116.995C745.56 116.995 751.899 115.863 757.631 113.546L755.382 107.984C750.46 109.973 744.899 110.995 738.656 110.995V116.995ZM757.656 113.536C763.369 111.166 768.27 107.773 772.318 103.357L767.895 99.3028C764.463 103.047 760.297 105.944 755.357 107.994L757.656 113.536ZM772.331 103.342C776.372 98.8727 779.455 93.4956 781.611 87.2663L775.941 85.3037C774.018 90.8611 771.32 95.5139 767.881 99.3181L772.331 103.342ZM781.614 87.258C783.779 80.942 784.836 73.8901 784.836 66.14H778.836C778.836 73.3499 777.853 79.728 775.938 85.312L781.614 87.258ZM892.141 104.22L889.919 102.204L889.909 102.215L889.899 102.227L892.141 104.22ZM898.431 93.255L895.596 92.2724L895.591 92.2893L895.585 92.3063L898.431 93.255ZM900.641 5.19499V2.19499H897.641V5.19499H900.641ZM917.046 5.19499H920.046V2.19499H917.046V5.19499ZM913.646 98.78L910.839 97.7208L910.835 97.7325L910.83 97.7441L913.646 98.78ZM904.041 114.42L901.865 112.355L901.864 112.356L904.041 114.42ZM833.066 114.42L830.89 116.485L830.896 116.492L830.903 116.499L833.066 114.42ZM823.376 98.78L820.56 99.8159L820.565 99.8275L820.569 99.8392L823.376 98.78ZM820.061 5.19499V2.19499H817.061V5.19499H820.061ZM836.466 5.19499H839.466V2.19499H836.466V5.19499ZM838.591 93.17L835.745 94.1187L835.751 94.1357L835.756 94.1526L838.591 93.17ZM844.881 104.135L842.639 106.128L842.649 106.14L842.659 106.151L844.881 104.135ZM854.996 111.36L853.781 114.103L853.805 114.113L853.828 114.123L854.996 111.36ZM868.596 116.91C873.978 116.91 878.895 116.002 883.293 114.117L880.929 108.603C877.393 110.118 873.301 110.91 868.596 110.91V116.91ZM883.293 114.117C887.642 112.253 891.354 109.62 894.383 106.213L889.899 102.227C887.487 104.939 884.513 107.067 880.929 108.603L883.293 114.117ZM894.363 106.236C897.442 102.842 899.74 98.8153 901.277 94.2037L895.585 92.3063C894.289 96.1947 892.393 99.4778 889.919 102.204L894.363 106.236ZM901.265 94.2376C902.862 89.6324 903.641 84.6203 903.641 79.23H897.641C897.641 84.0397 896.947 88.3776 895.596 92.2724L901.265 94.2376ZM903.641 79.23V5.19499H897.641V79.23H903.641ZM900.641 8.19499H917.046V2.19499H900.641V8.19499ZM914.046 5.19499V79.23H920.046V5.19499H914.046ZM914.046 79.23C914.046 85.9291 912.966 92.0833 910.839 97.7208L916.453 99.8392C918.859 93.4634 920.046 86.5843 920.046 79.23H914.046ZM910.83 97.7441C908.754 103.388 905.763 108.246 901.865 112.355L906.217 116.485C910.706 111.754 914.118 106.186 916.461 99.8159L910.83 97.7441ZM901.864 112.356C898.039 116.39 893.327 119.589 887.676 121.934L889.976 127.476C896.339 124.835 901.769 121.176 906.218 116.484L901.864 112.356ZM887.676 121.934C882.084 124.255 875.74 125.445 868.596 125.445V131.445C876.412 131.445 883.554 130.141 889.976 127.476L887.676 121.934ZM868.596 125.445C861.452 125.445 855.108 124.255 849.516 121.934L847.216 127.476C853.638 130.141 860.78 131.445 868.596 131.445V125.445ZM849.516 121.934C843.862 119.587 839.115 116.385 835.229 112.341L830.903 116.499C835.404 121.182 840.856 124.836 847.216 127.476L849.516 121.934ZM835.242 112.355C831.339 108.241 828.316 103.374 826.183 97.7208L820.569 99.8392C822.969 106.199 826.407 111.759 830.89 116.485L835.242 112.355ZM826.191 97.7441C824.115 92.1001 823.061 85.9377 823.061 79.23H817.061C817.061 86.5756 818.217 93.4465 820.56 99.8159L826.191 97.7441ZM823.061 79.23V5.19499H817.061V79.23H823.061ZM820.061 8.19499H836.466V2.19499H820.061V8.19499ZM833.466 5.19499V79.145H839.466V5.19499H833.466ZM833.466 79.145C833.466 84.5235 834.213 89.5237 835.745 94.1187L841.437 92.2213C840.135 88.3163 839.466 83.9665 839.466 79.145H833.466ZM835.756 94.1526C837.346 98.7382 839.632 102.746 842.639 106.128L847.123 102.142C844.69 99.4044 842.782 96.1018 841.425 92.1874L835.756 94.1526ZM842.659 106.151C845.731 109.536 849.451 112.186 853.781 114.103L856.211 108.617C852.607 107.021 849.584 104.854 847.103 102.119L842.659 106.151ZM853.828 114.123C858.274 116.002 863.213 116.91 868.596 116.91V110.91C863.892 110.91 859.765 110.118 856.164 108.597L853.828 114.123ZM957.161 5.78999L955.649 8.38133L955.773 8.45369L955.903 8.51387L957.161 5.78999ZM959.626 7.99999L962.004 6.17192L961.987 6.14874L961.968 6.1259L959.626 7.99999ZM1030.18 99.8L1027.8 101.628L1034.4 110.217L1033.16 99.4561L1030.18 99.8ZM1029.84 95.55L1026.84 95.6699L1026.84 95.6749L1029.84 95.55ZM1029.75 5.19499V2.19499H1026.75V5.19499H1029.75ZM1044.2 5.19499H1047.2V2.19499H1044.2V5.19499ZM1044.2 127V130H1047.2V127H1044.2ZM1032.56 126.32L1031.14 128.967L1031.18 128.986L1031.21 129.003L1032.56 126.32ZM1030.01 124.025L1027.63 125.853L1027.64 125.868L1027.65 125.884L1030.01 124.025ZM959.541 32.31L961.92 30.4822L955.742 22.4411L956.55 32.5492L959.541 32.31ZM959.796 36.475L962.793 36.3501L959.796 36.475ZM959.881 127V130H962.881V127H959.881ZM945.431 127H942.431V130H945.431V127ZM945.431 5.19499V2.19499H942.431V5.19499H945.431ZM953.931 8.19499C954.543 8.19499 954.99 8.23703 955.3 8.2941C955.62 8.35315 955.7 8.41134 955.649 8.38133L958.672 3.19865C957.285 2.38948 955.545 2.19499 953.931 2.19499V8.19499ZM955.903 8.51387C956.004 8.56016 956.472 8.86039 957.283 9.87408L961.968 6.1259C960.966 4.87292 959.791 3.69983 958.418 3.06612L955.903 8.51387ZM957.247 9.82806L1027.8 101.628L1032.55 97.9719L962.004 6.17192L957.247 9.82806ZM1033.16 99.4561C1032.99 98.0492 1032.89 96.7058 1032.83 95.4251L1026.84 95.6749C1026.9 97.1142 1027.02 98.6042 1027.2 100.144L1033.16 99.4561ZM1032.83 95.4301C1032.78 94.0499 1032.75 92.7301 1032.75 91.47H1026.75C1026.75 92.8166 1026.78 94.2167 1026.84 95.6699L1032.83 95.4301ZM1032.75 91.47V5.19499H1026.75V91.47H1032.75ZM1029.75 8.19499H1044.2V2.19499H1029.75V8.19499ZM1041.2 5.19499V127H1047.2V5.19499H1041.2ZM1044.2 124H1035.87V130H1044.2V124ZM1035.87 124C1034.9 124 1034.29 123.831 1033.9 123.637L1031.21 129.003C1032.64 129.716 1034.23 130 1035.87 130V124ZM1033.97 123.673C1033.6 123.479 1033.05 123.045 1032.36 122.166L1027.65 125.884C1028.66 127.158 1029.81 128.255 1031.14 128.967L1033.97 123.673ZM1032.38 122.197L961.92 30.4822L957.162 34.1377L1027.63 125.853L1032.38 122.197ZM956.55 32.5492C956.661 33.9295 956.743 35.2797 956.798 36.5999L962.793 36.3501C962.735 34.9503 962.647 33.5238 962.531 32.0708L956.55 32.5492ZM956.798 36.5999C956.854 37.9262 956.881 39.1306 956.881 40.215H962.881C962.881 39.0328 962.851 37.7438 962.793 36.3501L956.798 36.5999ZM956.881 40.215V127H962.881V40.215H956.881ZM959.881 124H945.431V130H959.881V124ZM948.431 127V5.19499H942.431V127H948.431ZM945.431 8.19499H953.931V2.19499H945.431V8.19499ZM1162.92 110.255L1165.05 112.365L1162.92 110.255ZM1143.97 122.665L1145.06 125.458L1145.07 125.454L1145.08 125.45L1143.97 122.665ZM1073.93 127H1070.93V130H1073.93V127ZM1073.93 5.19499V2.19499H1070.93V5.19499H1073.93ZM1143.97 9.615L1142.85 12.4004L1142.86 12.4041L1142.87 12.4078L1143.97 9.615ZM1162.92 22.025L1160.78 24.1236L1160.78 24.1293L1160.79 24.1349L1162.92 22.025ZM1175.16 41.235L1177.96 40.1538L1175.16 41.235ZM1159.52 46.08L1162.36 45.0987V45.0987L1159.52 46.08ZM1150.85 31.12L1148.64 33.1472L1150.85 31.12ZM1090.5 18.54V15.54H1087.5V18.54H1090.5ZM1090.5 113.655H1087.5V116.655H1090.5V113.655ZM1150.85 101.16L1153.05 103.203L1153.06 103.195L1153.06 103.187L1150.85 101.16ZM1159.52 86.2L1162.36 87.1813V87.1813L1159.52 86.2ZM1176.5 66.14C1176.5 74.944 1175.1 82.8728 1172.36 89.9638L1177.96 92.1262C1181 84.2572 1182.5 75.5826 1182.5 66.14H1176.5ZM1172.36 89.9638C1169.61 97.0861 1165.75 103.132 1160.79 108.145L1165.05 112.365C1170.63 106.725 1174.93 99.9639 1177.96 92.1262L1172.36 89.9638ZM1160.79 108.145C1155.83 113.162 1149.86 117.077 1142.85 119.88L1145.08 125.45C1152.81 122.36 1159.48 118.001 1165.05 112.365L1160.79 108.145ZM1142.87 119.872C1135.9 122.608 1128.11 124 1119.49 124V130C1128.77 130 1137.3 128.502 1145.06 125.458L1142.87 119.872ZM1119.49 124H1073.93V130H1119.49V124ZM1076.93 127V5.19499H1070.93V127H1076.93ZM1073.93 8.19499H1119.49V2.19499H1073.93V8.19499ZM1119.49 8.19499C1128.11 8.19499 1135.88 9.61255 1142.85 12.4004L1145.08 6.82957C1137.32 3.7241 1128.77 2.19499 1119.49 2.19499V8.19499ZM1142.87 12.4078C1149.86 15.151 1155.82 19.0583 1160.78 24.1236L1165.07 19.9264C1159.48 14.225 1152.8 9.85901 1145.06 6.82222L1142.87 12.4078ZM1160.79 24.1349C1165.75 29.148 1169.61 35.1939 1172.36 42.3162L1177.96 40.1538C1174.93 32.3161 1170.63 25.5554 1165.05 19.9151L1160.79 24.1349ZM1172.36 42.3162C1175.1 49.4072 1176.5 57.336 1176.5 66.14H1182.5C1182.5 56.6974 1181 48.0228 1177.96 40.1538L1172.36 42.3162ZM1165.58 66.14C1165.58 58.3906 1164.53 51.3634 1162.36 45.0987L1156.69 47.0613C1158.6 52.5832 1159.58 58.9294 1159.58 66.14H1165.58ZM1162.36 45.0987C1160.2 38.8669 1157.11 33.5112 1153.06 29.0928L1148.64 33.1472C1152.07 36.8888 1154.76 41.5065 1156.69 47.0613L1162.36 45.0987ZM1153.06 29.0928C1149.01 24.671 1144.1 21.3028 1138.38 18.9887L1136.13 24.5513C1141.06 26.5439 1145.21 29.409 1148.64 33.1472L1153.06 29.0928ZM1138.38 18.9887C1132.65 16.6728 1126.34 15.54 1119.49 15.54V21.54C1125.67 21.54 1131.2 22.5605 1136.13 24.5513L1138.38 18.9887ZM1119.49 15.54H1090.5V21.54H1119.49V15.54ZM1087.5 18.54V113.655H1093.5V18.54H1087.5ZM1090.5 116.655H1119.49V110.655H1090.5V116.655ZM1119.49 116.655C1126.34 116.655 1132.65 115.522 1138.38 113.206L1136.13 107.644C1131.2 109.634 1125.67 110.655 1119.49 110.655V116.655ZM1138.38 113.206C1144.09 110.896 1149 107.563 1153.05 103.203L1148.65 99.1175C1145.23 102.804 1141.07 105.647 1136.13 107.644L1138.38 113.206ZM1153.06 103.187C1157.11 98.7688 1160.2 93.4131 1162.36 87.1813L1156.69 85.2187C1154.76 90.7735 1152.07 95.3912 1148.64 99.1328L1153.06 103.187ZM1162.36 87.1813C1164.53 80.9166 1165.58 73.8894 1165.58 66.14H1159.58C1159.58 73.3506 1158.6 79.6968 1156.69 85.2187L1162.36 87.1813Z"
     fill="#AEAEAE"
     id="path10"
     style="fill:#b3b3b3" />
</svg>
